<svg width="32" height="32" viewBox="0 0 32 32" fill="none" xmlns="http://www.w3.org/2000/svg">
<g clip-path="url(#clip0_2605_13127)">
<path d="M24.5198 13.0355C24.4457 13.5305 24.1091 14.2029 23.723 14.7876C23.2358 15.5253 22.4627 16.042 21.5778 16.2214L17.6802 17.0118C17.0537 17.1388 16.4857 17.4567 16.0591 17.919L13.5035 20.6891C13.0232 21.2097 12.6875 21.0856 12.6875 20.3873C12.6817 20.4132 11.4191 23.5706 14.7651 25.442C16.0507 26.1611 17.9013 25.9027 19.1869 25.1837L25.9988 21.3737C28.5463 19.9487 30.345 17.5382 30.9428 14.748C30.9665 14.6376 30.9847 14.5268 31.0044 14.4162L24.5198 13.0355Z" fill="url(#paint0_linear_2605_13127)"/>
<path d="M22.7528 9.22937C24.0384 9.94846 24.5637 11.019 24.5637 12.4572C24.5637 12.6524 24.5479 12.8452 24.5194 13.0352L27.2641 14.1785L31.004 14.4159C31.4829 11.7283 30.5444 8.96201 28.862 6.76315C27.5959 5.10841 25.9667 3.67242 24.0081 2.5769C22.417 1.68699 20.7636 1.10065 19.1025 0.778931L17.2361 3.12269L16.6465 5.81395L22.7528 9.22937Z" fill="url(#paint1_linear_2605_13127)"/>
<path d="M0.783353 11.2018C0.782655 11.2039 0.784588 11.2045 0.785316 11.2023C0.929339 10.7835 1.10994 10.3161 1.3354 9.81694C2.5131 7.20903 4.78262 5.46971 7.57468 4.58288C10.3668 3.69607 13.4153 4.00692 15.9599 5.4302L16.6463 5.8141L19.1023 0.779081C11.2908 -0.733817 3.30704 3.71641 0.793284 11.1726C0.792083 11.1762 0.787713 11.1886 0.783353 11.2018Z" fill="url(#paint2_linear_2605_13127)"/>
<path d="M18.9201 25.1834C17.6345 25.9025 16.0505 25.9025 14.7649 25.1834C14.5904 25.0858 14.4259 24.9761 14.2703 24.8572L12.0093 26.3646L10.0605 29.4183C12.2235 31.1638 15.0323 31.725 17.8392 31.4128C19.9515 31.178 22.0497 30.5292 24.0084 29.4336C25.5994 28.5437 26.9502 27.4497 28.0684 26.2168L26.9065 23.4791L25.0264 21.7679L18.9201 25.1834Z" fill="url(#paint3_linear_2605_13127)"/>
<path d="M14.2694 24.8573C13.2789 24.1008 12.6864 22.9403 12.6864 21.6974V21.5734V11.2217C12.6864 10.6363 12.8643 10.5368 13.3877 10.8296C12.5816 10.3787 10.7196 8.83105 8.42045 10.117C7.13484 10.8361 6.07617 12.4234 6.07617 13.8614V21.4816C6.07617 24.3314 7.59833 27.3041 9.79375 29.2008C9.88059 29.2757 9.97049 29.3465 10.0596 29.4184L14.2694 24.8573Z" fill="url(#paint4_linear_2605_13127)"/>
<path d="M27.9097 5.63625C27.9082 5.6346 27.9066 5.63593 27.9082 5.63759C28.2106 5.96787 28.5381 6.35305 28.8716 6.79183C30.6141 9.08386 31.2651 11.9868 30.6619 14.7727C30.0586 17.5586 28.2564 19.9609 25.7118 21.3841L25.0254 21.768L28.0674 26.2169C33.3257 20.4196 33.3393 11.4962 27.9308 5.65918C27.9282 5.65638 27.9193 5.6465 27.9097 5.63625Z" fill="url(#paint5_linear_2605_13127)"/>
<path d="M6.34355 13.8616C6.34354 12.4234 7.13551 11.0946 8.42113 10.3755C8.59564 10.2779 8.77601 10.1947 8.96002 10.1236L8.74304 7.47295L7.21861 4.44031C4.57671 5.38231 2.4397 7.32907 1.31528 9.84007C0.469097 11.7296 9.792e-06 13.8146 0 16.0055C0 17.7854 0.302549 19.4657 0.845532 21.0203L3.87391 21.4143L6.34355 20.6924V13.8616Z" fill="url(#paint6_linear_2605_13127)"/>
<path d="M8.96016 10.1237C10.1317 9.67096 11.4653 9.75414 12.5764 10.3756L12.6872 10.4376L21.5826 15.413C22.2066 15.762 22.1499 16.1055 21.4446 16.2484L21.9578 16.1443C22.633 16.0075 23.2499 15.6729 23.7217 15.1852C24.5328 14.3468 24.8306 13.3353 24.8306 12.4575C24.8306 11.0194 24.0386 9.69046 22.753 8.97139L15.9411 5.16134C13.3936 3.73645 10.3395 3.43261 7.54622 4.32618C7.43572 4.36152 7.32756 4.40159 7.21875 4.44039L8.96016 10.1237Z" fill="url(#paint7_linear_2605_13127)"/>
<path d="M19.3223 31.1785C19.3246 31.178 19.3241 31.176 19.3219 31.1765C18.8754 31.2652 18.3674 31.3473 17.8083 31.4077C14.8882 31.7236 11.9676 30.8183 9.77888 28.9193C7.5901 27.0202 6.34371 24.3071 6.34372 21.4606L6.34371 20.6927L0.845703 21.0205C3.39904 28.3308 11.3691 32.8038 19.2913 31.1848C19.2951 31.184 19.3084 31.1814 19.3223 31.1785Z" fill="url(#paint8_linear_2605_13127)"/>
</g>
<defs>
<linearGradient id="paint0_linear_2605_13127" x1="20.0604" y1="23.5346" x2="23.0336" y2="12.8552" gradientUnits="userSpaceOnUse">
<stop stop-color="#1724C9"/>
<stop offset="1" stop-color="#1D63EC"/>
</linearGradient>
<linearGradient id="paint1_linear_2605_13127" x1="27.3093" y1="10.5698" x2="19.2835" y2="2.32237" gradientUnits="userSpaceOnUse">
<stop stop-color="#1C65F2"/>
<stop offset="1" stop-color="#0886FC"/>
</linearGradient>
<linearGradient id="paint2_linear_2605_13127" x1="16.1643" y1="5.35386" x2="3.67723" y2="6.16757" gradientUnits="userSpaceOnUse">
<stop stop-color="#0689FC"/>
<stop offset="1" stop-color="#2AA5FF"/>
</linearGradient>
<linearGradient id="paint3_linear_2605_13127" x1="15.32" y1="28.2789" x2="26.4887" y2="25.1709" gradientUnits="userSpaceOnUse">
<stop stop-color="#1B5AEB"/>
<stop offset="1" stop-color="#1077F8"/>
</linearGradient>
<linearGradient id="paint4_linear_2605_13127" x1="7.26808" y1="15.6923" x2="14.9784" y2="23.9314" gradientUnits="userSpaceOnUse">
<stop stop-color="#1724C9"/>
<stop offset="1" stop-color="#1A46DF"/>
</linearGradient>
<linearGradient id="paint5_linear_2605_13127" x1="25.4497" y1="21.4649" x2="30.7369" y2="10.4736" gradientUnits="userSpaceOnUse">
<stop stop-color="#0982FA"/>
<stop offset="1" stop-color="#289AED"/>
</linearGradient>
<linearGradient id="paint6_linear_2605_13127" x1="5.36387" y1="9.33928" x2="2.55694" y2="20.2191" gradientUnits="userSpaceOnUse">
<stop stop-color="#1C64F2"/>
<stop offset="1" stop-color="#0A97FF"/>
</linearGradient>
<linearGradient id="paint7_linear_2605_13127" x1="20.5432" y1="8.82392" x2="9.71791" y2="11.6034" gradientUnits="userSpaceOnUse">
<stop stop-color="#1724C9"/>
<stop offset="1" stop-color="#1C5EEE"/>
</linearGradient>
<linearGradient id="paint8_linear_2605_13127" x1="6.40691" y1="21.1948" x2="13.0406" y2="31.4852" gradientUnits="userSpaceOnUse">
<stop stop-color="#0E98FF"/>
<stop offset="1" stop-color="#318DDD"/>
</linearGradient>
<clipPath id="clip0_2605_13127">
<rect width="32" height="32" fill="white"/>
</clipPath>
</defs>
</svg>
