<svg width="28" height="29" viewBox="0 0 28 29" fill="none" xmlns="http://www.w3.org/2000/svg">
<g clip-path="url(#clip0_2605_13124)">
<path d="M5.54485 17.9003L22.632 12.1961C22.2905 10.0608 22.0472 8.63429 21.7653 7.54568C21.4615 6.37471 21.2208 6.06146 21.1263 5.95285C20.7967 5.57593 20.3865 5.27803 19.9261 5.08124C19.7931 5.02437 19.4203 4.89224 18.214 4.96487C16.9377 5.04187 15.2623 5.30262 12.6091 5.72273C9.95671 6.14273 8.28218 6.41321 7.04515 6.73346C5.87484 7.0372 5.5606 7.2787 5.45199 7.3733C5.07563 7.70311 4.77801 8.11312 4.58104 8.57315C4.52417 8.70604 4.39193 9.0789 4.46467 10.2857C4.54167 11.5616 4.80252 13.2376 5.22263 15.8901C5.33999 16.6339 5.44587 17.2991 5.54485 17.9003Z" fill="url(#paint0_linear_2605_13124)"/>
<path d="M0.833987 16.585C0.021659 11.4532 -0.385435 8.88723 0.495143 6.82727C0.954257 5.75277 1.64961 4.79554 2.52952 4.02672C4.21641 2.55387 6.78202 2.14787 11.9135 1.33489C17.0465 0.520812 19.6124 0.114921 21.6738 0.995281C22.7478 1.45438 23.7046 2.14953 24.4732 3.02911C25.9473 4.71633 26.3534 7.28227 27.1658 12.415C27.979 17.5469 28.3852 20.1136 27.5045 22.1728C27.0457 23.2472 26.3507 24.2043 25.4711 24.9732C23.7843 26.447 21.2177 26.8531 16.0855 27.666C10.954 28.479 8.38742 28.8851 6.32778 28.0047C5.25373 27.5456 4.2969 26.8504 3.52833 25.9708C2.05417 24.2836 1.64807 21.7177 0.834862 16.585H0.833987ZM9.88608 25.6987C11.2604 25.6156 13.0304 25.3382 15.6504 24.9233C18.2712 24.5085 20.0385 24.225 21.3726 23.8793C22.6638 23.5441 23.259 23.2177 23.6433 22.8817C24.2086 22.3874 24.6554 21.7721 24.9503 21.0815C25.1516 20.6125 25.2784 19.9456 25.1979 18.6136C25.1148 17.2397 24.8373 15.4692 24.4225 12.849C24.0075 10.2289 23.7246 8.46023 23.379 7.12739C23.0437 5.83567 22.7163 5.24067 22.3811 4.85644C21.887 4.29096 21.2718 3.84407 20.5813 3.54897C20.1121 3.34772 19.4451 3.22084 18.1127 3.30123C16.7384 3.38436 14.9693 3.66184 12.3485 4.0767C9.72858 4.49233 7.96032 4.77506 6.62714 5.12069C5.3351 5.45592 4.74075 5.78317 4.35652 6.11841C3.79084 6.61255 3.34379 7.22782 3.04861 7.9185C2.84813 8.38761 2.72125 9.05447 2.80175 10.3864C2.88488 11.7613 3.1616 13.5308 3.57733 16.1509C3.9923 18.7711 4.27503 20.5398 4.62077 21.8727C4.956 23.1644 5.28249 23.7594 5.61871 24.1436C6.1128 24.7091 6.72795 25.156 7.41847 25.4511C7.88769 25.6523 8.55378 25.7792 9.88707 25.6987H9.88608Z" fill="url(#paint1_linear_2605_13124)"/>
</g>
<defs>
<linearGradient id="paint0_linear_2605_13124" x1="-28.517" y1="-53.4749" x2="84.0925" y2="98.2325" gradientUnits="userSpaceOnUse">
<stop stop-color="#66E3FF"/>
<stop offset="1" stop-color="#7064F9"/>
</linearGradient>
<linearGradient id="paint1_linear_2605_13124" x1="-12.3566" y1="-27.6362" x2="44.614" y2="62.6143" gradientUnits="userSpaceOnUse">
<stop stop-color="#66E3FF"/>
<stop offset="1" stop-color="#7064F9"/>
</linearGradient>
<clipPath id="clip0_2605_13124">
<rect width="28" height="28" fill="white" transform="translate(0 0.5)"/>
</clipPath>
</defs>
</svg>
