<?xml version="1.0" encoding="UTF-8"?>
<svg version="1.1" xmlns="http://www.w3.org/2000/svg" width="32" height="32">
<path d="M0 0 C3.78313596 1.9161338 6.38430691 4.49378175 8.26953125 8.296875 C9.98164823 13.62571247 9.8675154 19.18261098 7.3671875 24.2265625 C3.96198865 28.59220205 0.91939743 30.88532156 -4.5 31.73046875 C-10.53383035 32.01473735 -14.30017207 31.07227203 -19.0703125 27.3515625 C-22.83575589 22.52407098 -23.66796901 18.80716721 -23.390625 12.71484375 C-22.74942733 7.98405608 -21.03051165 5.23974672 -17.5703125 2.0390625 C-12.41457674 -1.44105914 -5.91761176 -1.85344066 0 0 Z " fill="#171E1A" transform="translate(23.0703125,0.6484375)"/>
<path d="M0 0 C0.2475 0.763125 0.495 1.52625 0.75 2.3125 C2.13305995 5.28607889 3.23004483 6.32123929 6 8 C6.99 8.33 7.98 8.66 9 9 C8.52 14.4 8.52 14.4 6.375 16.875 C2.97792899 18.4841389 0.71564293 18.52149375 -3 18 C-5.91963173 16.01216563 -7.61102978 14.5685303 -8.48046875 11.0625 C-8.76923092 6.94178582 -8.27522871 5.35705346 -5.6875 2 C-3 0 -3 0 0 0 Z " fill="#BCF672" transform="translate(16,7)"/>
<path d="M0 0 C3.78313596 1.9161338 6.38430691 4.49378175 8.26953125 8.296875 C9.98164823 13.62571247 9.8675154 19.18261098 7.3671875 24.2265625 C3.96198865 28.59220205 0.91939743 30.88532156 -4.5 31.73046875 C-10.53383035 32.01473735 -14.30017207 31.07227203 -19.0703125 27.3515625 C-22.83575589 22.52407098 -23.66796901 18.80716721 -23.390625 12.71484375 C-22.74942733 7.98405608 -21.03051165 5.23974672 -17.5703125 2.0390625 C-12.41457674 -1.44105914 -5.91761176 -1.85344066 0 0 Z M-19.3828125 6.9765625 C-22.27573402 11.04808168 -22.69338843 14.42926266 -22.0703125 19.3515625 C-20.67962656 23.51524269 -18.49698294 26.39123396 -14.8203125 28.7890625 C-10.89936872 30.72440014 -7.36286279 31.17120301 -3.0703125 30.3515625 C1.88335353 28.64999836 4.95227225 25.8932881 7.2734375 21.2109375 C8.79892413 16.88872539 8.3267687 13.45456584 6.8046875 9.2265625 C4.23647673 5.28863932 1.18743585 2.48043667 -3.0703125 0.3515625 C-10.52485663 -0.26964951 -14.29226157 1.19809928 -19.3828125 6.9765625 Z " fill="#272C2A" transform="translate(23.0703125,0.6484375)"/>
</svg>
