<svg width="156" height="40" viewBox="0 0 156 40" fill="none" xmlns="http://www.w3.org/2000/svg">
<rect width="40" height="40" rx="20" fill="#165A50"/>
<path d="M32.1328 19.501C31.518 19.6123 30.8846 19.6705 30.2377 19.6705C24.3888 19.6705 19.6472 14.9189 19.6472 9.05765C19.6472 8.89469 19.6509 8.73258 19.6582 8.57141C13.8412 9.10533 9.28534 14.0074 9.28534 19.9759C9.28534 26.301 14.4021 31.4286 20.7139 31.4286C27.0257 31.4286 32.1425 26.301 32.1425 19.9759C32.1425 19.8168 32.1392 19.6585 32.1328 19.501Z" fill="#C2FD75"/>
<path d="M52 19.1456V4.39673H54.7954L61.9091 15.1403V4.39673H64.5167V19.1456H61.7839L54.6077 8.46467V19.1456H52Z" fill="#030E09"/>
<path d="M66.9744 19.1456V8.15175H69.5195V19.1456H66.9744ZM68.247 6.87922C67.7602 6.87922 67.3708 6.73319 67.0788 6.44113C66.7867 6.14908 66.6407 5.76662 66.6407 5.29377C66.6407 4.83482 66.7937 4.45932 67.0996 4.16726C67.4056 3.86129 67.788 3.70831 68.247 3.70831C68.692 3.70831 69.0745 3.85434 69.3943 4.1464C69.7142 4.43846 69.8742 4.82091 69.8742 5.29377C69.8742 5.76662 69.7212 6.14908 69.4152 6.44113C69.1092 6.73319 68.7198 6.87922 68.247 6.87922Z" fill="#030E09"/>
<path d="M76.4086 19.2916C75.2682 19.2916 74.3086 19.0622 73.5298 18.6032C72.7509 18.1304 72.1599 17.4698 71.7566 16.6214C71.3532 15.7731 71.1516 14.7926 71.1516 13.68C71.1516 12.5674 71.3602 11.5869 71.7774 10.7385C72.1946 9.87628 72.8066 9.20177 73.6132 8.71501C74.4198 8.22824 75.4003 7.98486 76.5546 7.98486C77.403 7.98486 78.154 8.13089 78.8077 8.42295C79.4752 8.71501 80.0106 9.14614 80.414 9.71635C80.8312 10.2726 81.0954 10.968 81.2067 11.8025H78.7033C78.5365 11.274 78.2583 10.8915 77.8689 10.6551C77.4934 10.4048 77.0414 10.2796 76.5129 10.2796C75.8036 10.2796 75.2404 10.4534 74.8232 10.8011C74.4198 11.1349 74.1278 11.5591 73.947 12.0737C73.7662 12.5882 73.6758 13.1237 73.6758 13.68C73.6758 14.2641 73.7731 14.8134 73.9678 15.328C74.1626 15.8287 74.4616 16.232 74.8649 16.538C75.2821 16.8439 75.8175 16.9969 76.4712 16.9969C76.9997 16.9969 77.4725 16.8787 77.8898 16.6423C78.3209 16.4058 78.599 16.0234 78.7242 15.4949H81.311C81.2136 16.3433 80.9285 17.0525 80.4557 17.6227C79.9967 18.179 79.4126 18.5963 78.7033 18.8744C77.9941 19.1526 77.2292 19.2916 76.4086 19.2916Z" fill="#030E09"/>
<path d="M87.7278 19.2916C86.5874 19.2916 85.6138 19.0552 84.8072 18.5824C84.0145 18.1095 83.4095 17.4559 82.9923 16.6214C82.589 15.7731 82.3873 14.7926 82.3873 13.68C82.3873 12.5674 82.5959 11.5869 83.0131 10.7385C83.4443 9.87628 84.0562 9.20177 84.8489 8.71501C85.6556 8.22824 86.6221 7.98486 87.7486 7.98486C88.5831 7.98486 89.3132 8.13785 89.9391 8.44381C90.5649 8.73587 91.0864 9.13918 91.5037 9.65376C91.9348 10.1683 92.2547 10.7525 92.4633 11.4061C92.6719 12.0598 92.7692 12.7482 92.7553 13.4714C92.7414 13.6383 92.7275 13.8051 92.7136 13.972C92.6997 14.125 92.6788 14.2919 92.651 14.4727H84.9324C84.9741 14.9595 85.0993 15.4045 85.3079 15.8078C85.5304 16.2111 85.8364 16.531 86.2258 16.7674C86.6291 17.0039 87.1298 17.1221 87.7278 17.1221C88.0755 17.1221 88.4092 17.0804 88.7291 16.9969C89.049 16.8996 89.3271 16.7605 89.5636 16.5797C89.8139 16.3989 89.9808 16.1694 90.0642 15.8913H92.6093C92.4285 16.684 92.0947 17.3307 91.608 17.8314C91.1212 18.332 90.5371 18.7006 89.8556 18.937C89.1881 19.1734 88.4788 19.2916 87.7278 19.2916ZM84.9741 12.5743H90.2728C90.2728 12.1154 90.1685 11.6982 89.9599 11.3227C89.7513 10.9472 89.4523 10.6551 89.0629 10.4465C88.6874 10.224 88.2284 10.1127 87.6861 10.1127C87.1019 10.1127 86.6152 10.2309 86.2258 10.4673C85.8364 10.7038 85.5374 11.0097 85.3287 11.3852C85.1201 11.7607 85.0019 12.1571 84.9741 12.5743Z" fill="#030E09"/>
<path d="M93.2188 19.1456L98.8722 4.39673H101.981L107.613 19.1456H104.797L103.816 16.4128H97.0156L96.0142 19.1456H93.2188ZM97.85 14.0555H102.961L100.416 7.02525L97.85 14.0555Z" fill="#030E09"/>
<path d="M113 19.2916C111.888 19.2916 110.97 19.0413 110.247 18.5406C109.523 18.0261 108.981 17.3446 108.619 16.4962C108.272 15.6479 108.098 14.7022 108.098 13.6591C108.098 12.5743 108.286 11.6078 108.661 10.7594C109.037 9.89714 109.6 9.22263 110.351 8.73587C111.102 8.2352 112.041 7.98486 113.167 7.98486C113.584 7.98486 113.988 8.03354 114.377 8.13089C114.78 8.21434 115.156 8.35341 115.504 8.54812C115.865 8.72891 116.164 8.97229 116.401 9.27826V4.39673H118.946V19.1456H116.484L116.442 17.7688C116.178 18.1165 115.865 18.4016 115.504 18.6241C115.156 18.8466 114.767 19.0135 114.335 19.1248C113.904 19.236 113.459 19.2916 113 19.2916ZM113.48 16.9969C114.148 16.9969 114.697 16.8439 115.128 16.538C115.559 16.2181 115.879 15.8009 116.088 15.2863C116.31 14.7578 116.422 14.2015 116.422 13.6174C116.422 13.0055 116.31 12.4492 116.088 11.9485C115.879 11.4478 115.559 11.0445 115.128 10.7385C114.697 10.4326 114.148 10.2796 113.48 10.2796C112.771 10.2796 112.208 10.4395 111.79 10.7594C111.387 11.0793 111.088 11.5035 110.893 12.0319C110.713 12.5465 110.622 13.1028 110.622 13.7008C110.622 14.1459 110.671 14.5701 110.768 14.9734C110.879 15.3628 111.046 15.7105 111.269 16.0164C111.491 16.3224 111.783 16.5658 112.145 16.7466C112.507 16.9135 112.952 16.9969 113.48 16.9969Z" fill="#030E09"/>
<path d="M120.994 19.1456V8.15175H123.33L123.497 9.40343C123.775 9.02793 124.074 8.74282 124.394 8.54812C124.728 8.3395 125.069 8.19348 125.416 8.11003C125.778 8.02659 126.119 7.98486 126.438 7.98486C127.134 7.98486 127.725 8.12394 128.212 8.40209C128.712 8.68024 129.102 9.09746 129.38 9.65376C129.658 9.26435 129.971 8.95143 130.319 8.71501C130.666 8.46467 131.035 8.28387 131.424 8.17261C131.814 8.04745 132.224 7.98486 132.655 7.98486C133.503 7.98486 134.185 8.16566 134.699 8.52726C135.214 8.87494 135.59 9.3617 135.826 9.98754C136.062 10.5995 136.181 11.3018 136.181 12.0945V19.1456H133.636V12.9081C133.636 12.63 133.622 12.3379 133.594 12.0319C133.566 11.726 133.489 11.4409 133.364 11.1766C133.253 10.9124 133.086 10.6968 132.864 10.5299C132.641 10.363 132.328 10.2796 131.925 10.2796C131.522 10.2796 131.188 10.37 130.924 10.5508C130.673 10.7177 130.465 10.9472 130.298 11.2392C130.145 11.5174 130.033 11.8303 129.964 12.178C129.908 12.5117 129.88 12.8455 129.88 13.1793V19.1456H127.335V12.8873C127.335 12.623 127.315 12.3449 127.273 12.0528C127.245 11.7468 127.175 11.4617 127.064 11.1975C126.967 10.9193 126.8 10.6968 126.564 10.5299C126.341 10.363 126.028 10.2796 125.625 10.2796C125.041 10.2796 124.596 10.4395 124.29 10.7594C123.998 11.0793 123.796 11.4687 123.685 11.9276C123.587 12.3866 123.539 12.8247 123.539 13.2419V19.1456H120.994Z" fill="#030E09"/>
<path d="M138.117 19.1456V8.15175H140.662V19.1456H138.117ZM139.389 6.87922C138.903 6.87922 138.513 6.73319 138.221 6.44113C137.929 6.14908 137.783 5.76662 137.783 5.29377C137.783 4.83482 137.936 4.45932 138.242 4.16726C138.548 3.86129 138.931 3.70831 139.389 3.70831C139.835 3.70831 140.217 3.85434 140.537 4.1464C140.857 4.43846 141.017 4.82091 141.017 5.29377C141.017 5.76662 140.864 6.14908 140.558 6.44113C140.252 6.73319 139.862 6.87922 139.389 6.87922Z" fill="#030E09"/>
<path d="M142.711 19.1456V8.15175H145.089L145.235 9.54946C145.528 9.16005 145.868 8.85408 146.258 8.63156C146.647 8.40904 147.057 8.24911 147.489 8.15175C147.92 8.04049 148.323 7.98486 148.698 7.98486C149.742 7.98486 150.562 8.21434 151.16 8.67328C151.772 9.13223 152.203 9.74416 152.453 10.5091C152.704 11.274 152.829 12.1293 152.829 13.075V19.1456H150.284V13.4922C150.284 13.0889 150.256 12.6995 150.2 12.324C150.145 11.9346 150.034 11.5869 149.867 11.2809C149.714 10.975 149.491 10.7316 149.199 10.5508C148.907 10.37 148.518 10.2796 148.031 10.2796C147.433 10.2796 146.925 10.4395 146.508 10.7594C146.091 11.0793 145.778 11.5104 145.569 12.0528C145.361 12.5813 145.256 13.1863 145.256 13.8677V19.1456H142.711Z" fill="#030E09"/>
<path d="M55.784 34.4016C55.3807 34.4016 55.047 34.3356 54.783 34.2036C54.519 34.0643 54.3063 33.903 54.145 33.7196C53.991 33.5363 53.8737 33.3786 53.793 33.2466H53.738V34.2916H52.913V25.9316H53.738V29.5066H53.793C53.8737 29.3673 53.991 29.2096 54.145 29.0336C54.3063 28.8503 54.519 28.6926 54.783 28.5606C55.047 28.4213 55.3807 28.3516 55.784 28.3516C56.224 28.3516 56.609 28.4396 56.939 28.6156C57.269 28.7843 57.5403 29.0153 57.753 29.3086C57.973 29.5946 58.138 29.9173 58.248 30.2766C58.358 30.636 58.413 31.0026 58.413 31.3766C58.413 31.7506 58.358 32.1173 58.248 32.4766C58.138 32.836 57.973 33.1623 57.753 33.4556C57.5403 33.7416 57.269 33.9726 56.939 34.1486C56.609 34.3173 56.224 34.4016 55.784 34.4016ZM55.663 33.6866C56.0957 33.6866 56.4513 33.573 56.73 33.3456C57.016 33.1183 57.2287 32.8286 57.368 32.4766C57.5147 32.1246 57.588 31.758 57.588 31.3766C57.588 30.9953 57.5147 30.6286 57.368 30.2766C57.2287 29.9246 57.016 29.635 56.73 29.4076C56.4513 29.1803 56.0957 29.0666 55.663 29.0666C55.2377 29.0666 54.882 29.1803 54.596 29.4076C54.31 29.635 54.0973 29.9246 53.958 30.2766C53.8187 30.6286 53.749 30.9953 53.749 31.3766C53.749 31.758 53.8187 32.1246 53.958 32.4766C54.0973 32.8286 54.31 33.1183 54.596 33.3456C54.882 33.573 55.2377 33.6866 55.663 33.6866ZM59.4504 36.4366C59.289 36.4366 59.157 36.4293 59.0544 36.4146C58.9517 36.4073 58.9004 36.4036 58.9004 36.4036V35.6886C58.9004 35.6886 58.9554 35.6923 59.0654 35.6996C59.1827 35.7143 59.3037 35.7216 59.4284 35.7216C59.8757 35.7216 60.246 35.6116 60.5394 35.3916C60.8327 35.1716 61.0747 34.827 61.2654 34.3576L58.9884 28.4616H59.8464L61.6724 33.2906L63.5094 28.4616H64.3784L62.0464 34.4346C61.775 35.1166 61.4267 35.619 61.0014 35.9416C60.5834 36.2716 60.0664 36.4366 59.4504 36.4366ZM67.7755 34.2916V26.1516H70.3165C70.9618 26.1516 71.5265 26.269 72.0105 26.5036C72.4945 26.731 72.8941 27.039 73.2095 27.4276C73.5321 27.8163 73.7741 28.2526 73.9355 28.7366C74.0968 29.2206 74.1775 29.7156 74.1775 30.2216C74.1775 30.7276 74.0968 31.2226 73.9355 31.7066C73.7741 32.1906 73.5321 32.627 73.2095 33.0156C72.8941 33.4043 72.4945 33.716 72.0105 33.9506C71.5265 34.178 70.9618 34.2916 70.3165 34.2916H67.7755ZM70.2945 26.9106H68.6225V33.5326H70.2945C70.8005 33.5326 71.2405 33.441 71.6145 33.2576C71.9958 33.067 72.3111 32.814 72.5605 32.4986C72.8171 32.1833 73.0078 31.8276 73.1325 31.4316C73.2571 31.0356 73.3195 30.6323 73.3195 30.2216C73.3195 29.811 73.2571 29.4076 73.1325 29.0116C73.0078 28.6156 72.8171 28.26 72.5605 27.9446C72.3111 27.6293 71.9958 27.38 71.6145 27.1966C71.2405 27.006 70.8005 26.9106 70.2945 26.9106ZM77.8812 28.3516C78.2845 28.3516 78.6182 28.4213 78.8822 28.5606C79.1462 28.6926 79.3552 28.8503 79.5092 29.0336C79.6705 29.217 79.7879 29.3746 79.8612 29.5066H79.9272V28.4616H80.7412V34.2916H79.9272V33.2466H79.8612C79.7879 33.386 79.6705 33.5473 79.5092 33.7306C79.3552 33.9066 79.1462 34.0643 78.8822 34.2036C78.6182 34.3356 78.2845 34.4016 77.8812 34.4016C77.4412 34.4016 77.0562 34.3173 76.7262 34.1486C76.3962 33.9726 76.1212 33.7416 75.9012 33.4556C75.6812 33.1623 75.5162 32.836 75.4062 32.4766C75.3035 32.1173 75.2522 31.7506 75.2522 31.3766C75.2522 31.0026 75.3035 30.636 75.4062 30.2766C75.5162 29.9173 75.6812 29.5946 75.9012 29.3086C76.1212 29.0153 76.3962 28.7843 76.7262 28.6156C77.0562 28.4396 77.4412 28.3516 77.8812 28.3516ZM78.0022 29.0666C77.5695 29.0666 77.2102 29.1803 76.9242 29.4076C76.6382 29.635 76.4255 29.9246 76.2862 30.2766C76.1469 30.6286 76.0772 30.9953 76.0772 31.3766C76.0772 31.758 76.1469 32.1246 76.2862 32.4766C76.4255 32.8286 76.6382 33.1183 76.9242 33.3456C77.2102 33.573 77.5695 33.6866 78.0022 33.6866C78.4275 33.6866 78.7795 33.573 79.0582 33.3456C79.3442 33.1183 79.5569 32.8286 79.6962 32.4766C79.8429 32.1246 79.9162 31.758 79.9162 31.3766C79.9162 30.9953 79.8429 30.6286 79.6962 30.2766C79.5569 29.9246 79.3442 29.635 79.0582 29.4076C78.7795 29.1803 78.4275 29.0666 78.0022 29.0666ZM84.1594 34.4016C83.7194 34.4016 83.3564 34.3393 83.0704 34.2146C82.7917 34.09 82.568 33.936 82.3994 33.7526C82.238 33.5693 82.1207 33.386 82.0474 33.2026C81.974 33.0193 81.9264 32.8653 81.9044 32.7406C81.8824 32.616 81.8714 32.5536 81.8714 32.5536H82.7184C82.7184 32.5536 82.7294 32.6123 82.7514 32.7296C82.7734 32.8396 82.8284 32.9716 82.9164 33.1256C83.0117 33.2723 83.1584 33.4043 83.3564 33.5216C83.5544 33.6316 83.8257 33.6866 84.1704 33.6866C84.5444 33.6866 84.8414 33.5913 85.0614 33.4006C85.2814 33.21 85.3914 32.9753 85.3914 32.6966C85.3914 32.4326 85.2997 32.2273 85.1164 32.0806C84.9404 31.934 84.702 31.8276 84.4014 31.7616L83.6314 31.5856C83.338 31.5123 83.0704 31.4133 82.8284 31.2886C82.5864 31.164 82.392 30.999 82.2454 30.7936C82.0987 30.581 82.0254 30.3206 82.0254 30.0126C82.0254 29.5213 82.205 29.1216 82.5644 28.8136C82.9237 28.5056 83.393 28.3516 83.9724 28.3516C84.361 28.3516 84.68 28.4103 84.9294 28.5276C85.186 28.6376 85.3877 28.777 85.5344 28.9456C85.6884 29.1143 85.7984 29.283 85.8644 29.4516C85.9377 29.613 85.9854 29.7523 86.0074 29.8696C86.0294 29.9796 86.0404 30.0346 86.0404 30.0346H85.2374C85.2374 30.0346 85.2227 29.987 85.1934 29.8916C85.1714 29.789 85.12 29.6753 85.0394 29.5506C84.966 29.4186 84.8414 29.305 84.6654 29.2096C84.4967 29.107 84.2657 29.0556 83.9724 29.0556C83.591 29.0556 83.305 29.1473 83.1144 29.3306C82.931 29.514 82.8394 29.723 82.8394 29.9576C82.8394 30.185 82.92 30.3646 83.0814 30.4966C83.25 30.6286 83.4774 30.7276 83.7634 30.7936L84.5444 30.9806C85.0357 31.098 85.4354 31.2923 85.7434 31.5636C86.0514 31.8276 86.2054 32.1943 86.2054 32.6636C86.2054 32.979 86.121 33.2686 85.9524 33.5326C85.791 33.7966 85.5564 34.0093 85.2484 34.1706C84.9477 34.3246 84.5847 34.4016 84.1594 34.4016ZM87.4719 34.2916V25.9316H88.2969V29.4296H88.3519C88.4032 29.3196 88.4949 29.1803 88.6269 29.0116C88.7589 28.8356 88.9422 28.6816 89.1769 28.5496C89.4189 28.4176 89.7196 28.3516 90.0789 28.3516C90.5042 28.3516 90.8672 28.4506 91.1679 28.6486C91.4686 28.8466 91.6996 29.1143 91.8609 29.4516C92.0222 29.789 92.1029 30.1703 92.1029 30.5956V34.2916H91.2779V30.6396C91.2779 30.1923 91.1569 29.822 90.9149 29.5286C90.6802 29.228 90.3356 29.0776 89.8809 29.0776C89.5069 29.0776 89.2026 29.173 88.9679 29.3636C88.7406 29.5543 88.5719 29.8 88.4619 30.1006C88.3519 30.4013 88.2969 30.7093 88.2969 31.0246V34.2916H87.4719ZM96.493 34.4016C96.0897 34.4016 95.756 34.3356 95.492 34.2036C95.228 34.0643 95.0154 33.903 94.854 33.7196C94.7 33.5363 94.5827 33.3786 94.502 33.2466H94.447V34.2916H93.622V25.9316H94.447V29.5066H94.502C94.5827 29.3673 94.7 29.2096 94.854 29.0336C95.0154 28.8503 95.228 28.6926 95.492 28.5606C95.756 28.4213 96.0897 28.3516 96.493 28.3516C96.933 28.3516 97.318 28.4396 97.648 28.6156C97.978 28.7843 98.2494 29.0153 98.462 29.3086C98.682 29.5946 98.847 29.9173 98.957 30.2766C99.067 30.636 99.122 31.0026 99.122 31.3766C99.122 31.7506 99.067 32.1173 98.957 32.4766C98.847 32.836 98.682 33.1623 98.462 33.4556C98.2494 33.7416 97.978 33.9726 97.648 34.1486C97.318 34.3173 96.933 34.4016 96.493 34.4016ZM96.372 33.6866C96.8047 33.6866 97.1604 33.573 97.439 33.3456C97.725 33.1183 97.9377 32.8286 98.077 32.4766C98.2237 32.1246 98.297 31.758 98.297 31.3766C98.297 30.9953 98.2237 30.6286 98.077 30.2766C97.9377 29.9246 97.725 29.635 97.439 29.4076C97.1604 29.1803 96.8047 29.0666 96.372 29.0666C95.9467 29.0666 95.591 29.1803 95.305 29.4076C95.019 29.635 94.8064 29.9246 94.667 30.2766C94.5277 30.6286 94.458 30.9953 94.458 31.3766C94.458 31.758 94.5277 32.1246 94.667 32.4766C94.8064 32.8286 95.019 33.1183 95.305 33.3456C95.591 33.573 95.9467 33.6866 96.372 33.6866ZM103.034 34.4016C102.572 34.4016 102.165 34.3173 101.813 34.1486C101.468 33.98 101.175 33.7526 100.933 33.4666C100.698 33.1806 100.522 32.858 100.405 32.4986C100.287 32.132 100.229 31.758 100.229 31.3766C100.229 30.988 100.287 30.614 100.405 30.2546C100.522 29.8953 100.698 29.5726 100.933 29.2866C101.175 29.0006 101.468 28.7733 101.813 28.6046C102.165 28.436 102.572 28.3516 103.034 28.3516C103.496 28.3516 103.903 28.436 104.255 28.6046C104.607 28.7733 104.9 29.0006 105.135 29.2866C105.369 29.5726 105.545 29.8953 105.663 30.2546C105.787 30.614 105.85 30.988 105.85 31.3766C105.85 31.758 105.787 32.132 105.663 32.4986C105.545 32.858 105.369 33.1806 105.135 33.4666C104.9 33.7526 104.607 33.98 104.255 34.1486C103.903 34.3173 103.496 34.4016 103.034 34.4016ZM103.034 33.6646C103.466 33.6646 103.829 33.5546 104.123 33.3346C104.416 33.1146 104.636 32.8323 104.783 32.4876C104.937 32.1356 105.014 31.7653 105.014 31.3766C105.014 30.988 104.937 30.6213 104.783 30.2766C104.636 29.9246 104.416 29.6386 104.123 29.4186C103.829 29.1986 103.466 29.0886 103.034 29.0886C102.601 29.0886 102.238 29.1986 101.945 29.4186C101.651 29.6386 101.431 29.9246 101.285 30.2766C101.138 30.6213 101.065 30.988 101.065 31.3766C101.065 31.7653 101.138 32.1356 101.285 32.4876C101.431 32.8323 101.651 33.1146 101.945 33.3346C102.238 33.5546 102.601 33.6646 103.034 33.6646ZM109.588 28.3516C109.991 28.3516 110.325 28.4213 110.589 28.5606C110.853 28.6926 111.062 28.8503 111.216 29.0336C111.377 29.217 111.495 29.3746 111.568 29.5066H111.634V28.4616H112.448V34.2916H111.634V33.2466H111.568C111.495 33.386 111.377 33.5473 111.216 33.7306C111.062 33.9066 110.853 34.0643 110.589 34.2036C110.325 34.3356 109.991 34.4016 109.588 34.4016C109.148 34.4016 108.763 34.3173 108.433 34.1486C108.103 33.9726 107.828 33.7416 107.608 33.4556C107.388 33.1623 107.223 32.836 107.113 32.4766C107.01 32.1173 106.959 31.7506 106.959 31.3766C106.959 31.0026 107.01 30.636 107.113 30.2766C107.223 29.9173 107.388 29.5946 107.608 29.3086C107.828 29.0153 108.103 28.7843 108.433 28.6156C108.763 28.4396 109.148 28.3516 109.588 28.3516ZM109.709 29.0666C109.276 29.0666 108.917 29.1803 108.631 29.4076C108.345 29.635 108.132 29.9246 107.993 30.2766C107.854 30.6286 107.784 30.9953 107.784 31.3766C107.784 31.758 107.854 32.1246 107.993 32.4766C108.132 32.8286 108.345 33.1183 108.631 33.3456C108.917 33.573 109.276 33.6866 109.709 33.6866C110.134 33.6866 110.486 33.573 110.765 33.3456C111.051 33.1183 111.264 32.8286 111.403 32.4766C111.55 32.1246 111.623 31.758 111.623 31.3766C111.623 30.9953 111.55 30.6286 111.403 30.2766C111.264 29.9246 111.051 29.635 110.765 29.4076C110.486 29.1803 110.134 29.0666 109.709 29.0666ZM113.875 34.2916V28.4616H114.7V29.2206H114.744C114.861 28.986 115.041 28.7843 115.283 28.6156C115.525 28.4396 115.862 28.3516 116.295 28.3516C116.434 28.3516 116.555 28.359 116.658 28.3736C116.768 28.3883 116.823 28.3956 116.823 28.3956V29.1876C116.823 29.1876 116.764 29.1803 116.647 29.1656C116.53 29.151 116.405 29.1436 116.273 29.1436C115.972 29.1436 115.701 29.206 115.459 29.3306C115.224 29.448 115.037 29.6533 114.898 29.9466C114.766 30.2326 114.7 30.625 114.7 31.1236V34.2916H113.875ZM119.89 34.4016C119.45 34.4016 119.065 34.3173 118.735 34.1486C118.405 33.9726 118.13 33.7416 117.91 33.4556C117.69 33.1623 117.525 32.836 117.415 32.4766C117.312 32.1173 117.261 31.7506 117.261 31.3766C117.261 31.0026 117.312 30.636 117.415 30.2766C117.525 29.9173 117.69 29.5946 117.91 29.3086C118.13 29.0153 118.405 28.7843 118.735 28.6156C119.065 28.4396 119.45 28.3516 119.89 28.3516C120.293 28.3516 120.627 28.4213 120.891 28.5606C121.155 28.6926 121.364 28.8503 121.518 29.0336C121.679 29.217 121.797 29.3746 121.87 29.5066H121.936V25.9316H122.75V34.2916H121.936V33.2466H121.87C121.797 33.386 121.679 33.5473 121.518 33.7306C121.364 33.9066 121.155 34.0643 120.891 34.2036C120.627 34.3356 120.293 34.4016 119.89 34.4016ZM120.011 33.6866C120.436 33.6866 120.788 33.573 121.067 33.3456C121.353 33.1183 121.566 32.8286 121.705 32.4766C121.852 32.1246 121.925 31.758 121.925 31.3766C121.925 30.9953 121.852 30.6286 121.705 30.2766C121.566 29.9246 121.353 29.635 121.067 29.4076C120.788 29.1803 120.436 29.0666 120.011 29.0666C119.578 29.0666 119.219 29.1803 118.933 29.4076C118.647 29.635 118.434 29.9246 118.295 30.2766C118.156 30.6286 118.086 30.9953 118.086 31.3766C118.086 31.758 118.156 32.1246 118.295 32.4766C118.434 32.8286 118.647 33.1183 118.933 33.3456C119.219 33.573 119.578 33.6866 120.011 33.6866ZM124.813 34.4016C124.571 34.4016 124.351 34.387 124.153 34.3576C123.955 34.3356 123.856 34.3246 123.856 34.3246V33.5656C123.856 33.5656 123.951 33.5766 124.142 33.5986C124.333 33.6206 124.527 33.6316 124.725 33.6316C125.312 33.6316 125.77 33.4813 126.1 33.1806C126.437 32.88 126.606 32.3923 126.606 31.7176V26.1516H127.453V31.7176C127.453 32.561 127.226 33.221 126.771 33.6976C126.324 34.167 125.671 34.4016 124.813 34.4016ZM130.877 34.4016C130.297 34.4016 129.835 34.2146 129.491 33.8406C129.146 33.4666 128.974 32.946 128.974 32.2786V28.4616H129.799V32.2456C129.799 32.7003 129.912 33.0523 130.14 33.3016C130.367 33.551 130.679 33.6756 131.075 33.6756C131.463 33.6756 131.775 33.573 132.01 33.3676C132.244 33.155 132.413 32.891 132.516 32.5756C132.626 32.253 132.681 31.9193 132.681 31.5746V28.4616H133.506V34.2916H132.681V33.3346H132.626C132.574 33.4373 132.483 33.5766 132.351 33.7526C132.219 33.9213 132.035 34.0716 131.801 34.2036C131.566 34.3356 131.258 34.4016 130.877 34.4016ZM134.931 34.2916V28.4616H135.756V29.4296H135.811C135.862 29.3196 135.954 29.1803 136.086 29.0116C136.218 28.8356 136.401 28.6816 136.636 28.5496C136.87 28.4176 137.167 28.3516 137.527 28.3516C137.959 28.3516 138.326 28.4506 138.627 28.6486C138.927 28.8466 139.155 29.1143 139.309 29.4516C139.47 29.789 139.551 30.1703 139.551 30.5956V34.2916H138.737V30.6396C138.737 30.1923 138.616 29.822 138.374 29.5286C138.139 29.228 137.791 29.0776 137.329 29.0776C136.962 29.0776 136.661 29.173 136.427 29.3636C136.199 29.5543 136.031 29.8 135.921 30.1006C135.811 30.4013 135.756 30.7093 135.756 31.0246V34.2916H134.931ZM143.722 36.6016C143.253 36.6016 142.861 36.5356 142.545 36.4036C142.23 36.279 141.977 36.1213 141.786 35.9306C141.603 35.7473 141.464 35.5603 141.368 35.3696C141.28 35.179 141.222 35.0213 141.192 34.8966C141.163 34.772 141.148 34.7096 141.148 34.7096H141.973C141.973 34.7096 141.992 34.7683 142.028 34.8856C142.065 35.003 142.138 35.1386 142.248 35.2926C142.366 35.4466 142.542 35.5823 142.776 35.6996C143.011 35.817 143.326 35.8756 143.722 35.8756C144.199 35.8756 144.569 35.7803 144.833 35.5896C145.097 35.399 145.281 35.157 145.383 34.8636C145.486 34.5776 145.537 34.2843 145.537 33.9836V33.1806H145.493C145.42 33.3053 145.303 33.4593 145.141 33.6426C144.98 33.8186 144.764 33.9726 144.492 34.1046C144.221 34.2366 143.884 34.3026 143.48 34.3026C143.04 34.3026 142.655 34.2183 142.325 34.0496C142.003 33.881 141.731 33.6536 141.511 33.3676C141.291 33.0816 141.126 32.7626 141.016 32.4106C140.914 32.0586 140.862 31.6956 140.862 31.3216C140.862 30.955 140.914 30.5956 141.016 30.2436C141.126 29.8916 141.291 29.5726 141.511 29.2866C141.731 29.0006 142.003 28.7733 142.325 28.6046C142.655 28.436 143.04 28.3516 143.48 28.3516C143.884 28.3516 144.221 28.4176 144.492 28.5496C144.764 28.6816 144.98 28.8393 145.141 29.0226C145.303 29.1986 145.42 29.349 145.493 29.4736H145.537V28.4616H146.362V33.9726C146.362 34.794 146.128 35.4356 145.658 35.8976C145.196 36.367 144.551 36.6016 143.722 36.6016ZM143.612 33.5876C144.038 33.5876 144.393 33.4776 144.679 33.2576C144.965 33.0376 145.178 32.7553 145.317 32.4106C145.464 32.066 145.537 31.703 145.537 31.3216C145.537 30.9403 145.464 30.581 145.317 30.2436C145.178 29.899 144.965 29.6166 144.679 29.3966C144.401 29.1766 144.049 29.0666 143.623 29.0666C143.191 29.0666 142.831 29.1766 142.545 29.3966C142.259 29.6166 142.047 29.899 141.907 30.2436C141.768 30.5883 141.698 30.9476 141.698 31.3216C141.698 31.703 141.768 32.066 141.907 32.4106C142.047 32.7553 142.259 33.0376 142.545 33.2576C142.831 33.4776 143.187 33.5876 143.612 33.5876ZM147.856 34.2916L147.867 25.9316H148.681V34.2916H147.856ZM152.786 34.4016C152.317 34.4016 151.91 34.3173 151.565 34.1486C151.22 33.9726 150.938 33.738 150.718 33.4446C150.498 33.1513 150.333 32.825 150.223 32.4656C150.12 32.1063 150.069 31.7433 150.069 31.3766C150.069 31.01 150.12 30.647 150.223 30.2876C150.333 29.9283 150.498 29.602 150.718 29.3086C150.938 29.0153 151.213 28.7843 151.543 28.6156C151.88 28.4396 152.28 28.3516 152.742 28.3516C153.226 28.3516 153.655 28.4653 154.029 28.6926C154.41 28.92 154.707 29.2573 154.92 29.7046C155.14 30.1446 155.25 30.6983 155.25 31.3656V31.6076H150.905C150.92 31.9816 151 32.3263 151.147 32.6416C151.301 32.957 151.514 33.21 151.785 33.4006C152.064 33.5913 152.397 33.6866 152.786 33.6866C153.109 33.6866 153.376 33.6316 153.589 33.5216C153.802 33.4043 153.963 33.2723 154.073 33.1256C154.19 32.9716 154.271 32.8396 154.315 32.7296C154.366 32.6196 154.392 32.5646 154.392 32.5646H155.173C155.173 32.5646 155.155 32.627 155.118 32.7516C155.081 32.869 155.015 33.0193 154.92 33.2026C154.825 33.386 154.685 33.5693 154.502 33.7526C154.326 33.936 154.099 34.09 153.82 34.2146C153.541 34.3393 153.197 34.4016 152.786 34.4016ZM150.916 30.9476H154.425C154.403 30.5003 154.311 30.141 154.15 29.8696C153.996 29.591 153.794 29.3893 153.545 29.2646C153.296 29.14 153.028 29.0776 152.742 29.0776C152.221 29.0776 151.8 29.25 151.477 29.5946C151.154 29.932 150.967 30.383 150.916 30.9476Z" fill="#030E09" fill-opacity="0.6"/>
</svg>
