<svg width="168" height="40" viewBox="0 0 168 40" fill="none" xmlns="http://www.w3.org/2000/svg">
<rect width="40" height="40" rx="20" fill="#053B25"/>
<path d="M32.1327 19.501C31.5178 19.6124 30.8844 19.6705 30.2375 19.6705C24.3886 19.6705 19.6471 14.919 19.6471 9.05766C19.6471 8.89469 19.6507 8.73259 19.658 8.57142C13.8411 9.10534 9.28516 14.0074 9.28516 19.9759C9.28516 26.301 14.4019 31.4286 20.7137 31.4286C27.0256 31.4286 32.1423 26.301 32.1423 19.9759C32.1423 19.8168 32.1391 19.6585 32.1327 19.501Z" fill="#C2FD75"/>
<path d="M52 18.6456V3.89675H54.7954L61.9091 14.6403V3.89675H64.5167V18.6456H61.7839L54.6077 7.96469V18.6456H52Z" fill="white"/>
<path d="M66.9744 18.6456V7.65177H69.5195V18.6456H66.9744ZM68.247 6.37924C67.7602 6.37924 67.3708 6.23321 67.0788 5.94115C66.7867 5.6491 66.6407 5.26664 66.6407 4.79379C66.6407 4.33484 66.7937 3.95934 67.0996 3.66728C67.4056 3.36132 67.788 3.20833 68.247 3.20833C68.692 3.20833 69.0745 3.35436 69.3944 3.64642C69.7142 3.93848 69.8742 4.32093 69.8742 4.79379C69.8742 5.26664 69.7212 5.6491 69.4152 5.94115C69.1092 6.23321 68.7198 6.37924 68.247 6.37924Z" fill="white"/>
<path d="M76.4086 18.7917C75.2682 18.7917 74.3086 18.5622 73.5298 18.1032C72.7509 17.6304 72.1599 16.9698 71.7566 16.1214C71.3532 15.2731 71.1516 14.2926 71.1516 13.18C71.1516 12.0674 71.3602 11.0869 71.7774 10.2386C72.1946 9.3763 72.8066 8.70179 73.6132 8.21503C74.4198 7.72827 75.4003 7.48488 76.5546 7.48488C77.403 7.48488 78.154 7.63091 78.8077 7.92297C79.4752 8.21503 80.0106 8.64616 80.414 9.21637C80.8312 9.77267 81.0954 10.468 81.2067 11.3025H78.7033C78.5365 10.774 78.2583 10.3915 77.8689 10.1551C77.4934 9.90479 77.0414 9.77962 76.5129 9.77962C75.8036 9.77962 75.2404 9.95346 74.8232 10.3011C74.4198 10.6349 74.1278 11.0591 73.947 11.5737C73.7662 12.0883 73.6758 12.6237 73.6758 13.18C73.6758 13.7641 73.7731 14.3135 73.9678 14.828C74.1626 15.3287 74.4616 15.732 74.8649 16.038C75.2821 16.344 75.8175 16.4969 76.4712 16.4969C76.9997 16.4969 77.4725 16.3787 77.8898 16.1423C78.3209 15.9059 78.599 15.5234 78.7242 14.9949H81.311C81.2136 15.8433 80.9285 16.5526 80.4557 17.1228C79.9967 17.6791 79.4126 18.0963 78.7033 18.3744C77.9941 18.6526 77.2292 18.7917 76.4086 18.7917Z" fill="white"/>
<path d="M87.7278 18.7917C86.5874 18.7917 85.6138 18.5552 84.8072 18.0824C84.0145 17.6095 83.4095 16.9559 82.9923 16.1214C82.589 15.2731 82.3873 14.2926 82.3873 13.18C82.3873 12.0674 82.5959 11.0869 83.0131 10.2386C83.4443 9.3763 84.0562 8.70179 84.8489 8.21503C85.6556 7.72827 86.6221 7.48488 87.7486 7.48488C88.5831 7.48488 89.3132 7.63787 89.9391 7.94383C90.5649 8.23589 91.0864 8.63921 91.5037 9.15378C91.9348 9.66836 92.2547 10.2525 92.4633 10.9061C92.6719 11.5598 92.7692 12.2482 92.7553 12.9714C92.7414 13.1383 92.7275 13.3052 92.7136 13.4721C92.6997 13.625 92.6788 13.7919 92.651 13.9727H84.9324C84.9741 14.4595 85.0993 14.9045 85.3079 15.3078C85.5304 15.7112 85.8364 16.031 86.2258 16.2675C86.6291 16.5039 87.1298 16.6221 87.7278 16.6221C88.0755 16.6221 88.4092 16.5804 88.7291 16.4969C89.049 16.3996 89.3271 16.2605 89.5636 16.0797C89.8139 15.8989 89.9808 15.6694 90.0642 15.3913H92.6093C92.4285 16.184 92.0947 16.8307 91.608 17.3314C91.1212 17.8321 90.5371 18.2006 89.8556 18.437C89.1881 18.6735 88.4788 18.7917 87.7278 18.7917ZM84.9741 12.0744H90.2728C90.2728 11.6154 90.1685 11.1982 89.9599 10.8227C89.7513 10.4472 89.4523 10.1551 89.0629 9.94651C88.6874 9.72399 88.2284 9.61273 87.6861 9.61273C87.1019 9.61273 86.6152 9.73094 86.2258 9.96737C85.8364 10.2038 85.5374 10.5098 85.3287 10.8853C85.1201 11.2608 85.0019 11.6571 84.9741 12.0744Z" fill="white"/>
<path d="M93.2188 18.6456L98.8722 3.89675H101.981L107.613 18.6456H104.797L103.816 15.9128H97.0156L96.0142 18.6456H93.2188ZM97.85 13.5555H102.961L100.416 6.52527L97.85 13.5555Z" fill="white"/>
<path d="M113 18.7917C111.888 18.7917 110.97 18.5413 110.247 18.0407C109.523 17.5261 108.981 16.8446 108.619 15.9963C108.272 15.1479 108.098 14.2022 108.098 13.1591C108.098 12.0744 108.286 11.1078 108.661 10.2594C109.037 9.39716 109.6 8.72265 110.351 8.23589C111.102 7.73522 112.041 7.48488 113.167 7.48488C113.584 7.48488 113.988 7.53356 114.377 7.63091C114.78 7.71436 115.156 7.85343 115.504 8.04814C115.865 8.22893 116.164 8.47232 116.401 8.77828V3.89675H118.946V18.6456H116.484L116.442 17.2688C116.178 17.6165 115.865 17.9016 115.504 18.1241C115.156 18.3466 114.767 18.5135 114.335 18.6248C113.904 18.736 113.459 18.7917 113 18.7917ZM113.48 16.4969C114.148 16.4969 114.697 16.344 115.128 16.038C115.559 15.7181 115.879 15.3009 116.088 14.7863C116.31 14.2578 116.422 13.7015 116.422 13.1174C116.422 12.5055 116.31 11.9492 116.088 11.4485C115.879 10.9478 115.559 10.5445 115.128 10.2386C114.697 9.9326 114.148 9.77962 113.48 9.77962C112.771 9.77962 112.208 9.93956 111.79 10.2594C111.387 10.5793 111.088 11.0035 110.893 11.532C110.713 12.0465 110.622 12.6028 110.622 13.2009C110.622 13.6459 110.671 14.0701 110.768 14.4734C110.879 14.8628 111.046 15.2105 111.269 15.5165C111.491 15.8224 111.783 16.0658 112.145 16.2466C112.507 16.4135 112.952 16.4969 113.48 16.4969Z" fill="white"/>
<path d="M120.994 18.6456V7.65177H123.33L123.497 8.90345C123.775 8.52795 124.074 8.24284 124.394 8.04814C124.728 7.83953 125.069 7.6935 125.416 7.61005C125.778 7.52661 126.119 7.48488 126.438 7.48488C127.134 7.48488 127.725 7.62396 128.212 7.90211C128.712 8.18026 129.102 8.59748 129.38 9.15378C129.658 8.76437 129.971 8.45146 130.319 8.21503C130.666 7.96469 131.035 7.7839 131.424 7.67264C131.814 7.54747 132.224 7.48488 132.655 7.48488C133.503 7.48488 134.185 7.66568 134.699 8.02728C135.214 8.37496 135.59 8.86173 135.826 9.48756C136.062 10.0995 136.181 10.8018 136.181 11.5945V18.6456H133.636V12.4081C133.636 12.13 133.622 11.8379 133.594 11.532C133.566 11.226 133.489 10.9409 133.364 10.6767C133.253 10.4124 133.086 10.1968 132.864 10.03C132.641 9.86306 132.328 9.77962 131.925 9.77962C131.522 9.77962 131.188 9.87002 130.924 10.0508C130.673 10.2177 130.465 10.4472 130.298 10.7392C130.145 11.0174 130.033 11.3303 129.964 11.678C129.908 12.0118 129.881 12.3455 129.881 12.6793V18.6456H127.335V12.3873C127.335 12.123 127.315 11.8449 127.273 11.5528C127.245 11.2469 127.175 10.9618 127.064 10.6975C126.967 10.4194 126.8 10.1968 126.564 10.03C126.341 9.86306 126.028 9.77962 125.625 9.77962C125.041 9.77962 124.596 9.93956 124.29 10.2594C123.998 10.5793 123.796 10.9687 123.685 11.4277C123.587 11.8866 123.539 12.3247 123.539 12.7419V18.6456H120.994Z" fill="white"/>
<path d="M138.117 18.6456V7.65177H140.662V18.6456H138.117ZM139.389 6.37924C138.903 6.37924 138.513 6.23321 138.221 5.94115C137.929 5.6491 137.783 5.26664 137.783 4.79379C137.783 4.33484 137.936 3.95934 138.242 3.66728C138.548 3.36132 138.931 3.20833 139.389 3.20833C139.835 3.20833 140.217 3.35436 140.537 3.64642C140.857 3.93848 141.017 4.32093 141.017 4.79379C141.017 5.26664 140.864 5.6491 140.558 5.94115C140.252 6.23321 139.862 6.37924 139.389 6.37924Z" fill="white"/>
<path d="M142.711 18.6456V7.65177H145.089L145.235 9.04948C145.528 8.66007 145.868 8.3541 146.258 8.13158C146.647 7.90906 147.057 7.74913 147.489 7.65177C147.92 7.54051 148.323 7.48488 148.698 7.48488C149.742 7.48488 150.562 7.71436 151.16 8.1733C151.772 8.63225 152.203 9.24418 152.453 10.0091C152.704 10.774 152.829 11.6293 152.829 12.575V18.6456H150.284V12.9922C150.284 12.5889 150.256 12.1995 150.2 11.824C150.145 11.4346 150.034 11.0869 149.867 10.781C149.714 10.475 149.491 10.2316 149.199 10.0508C148.907 9.87002 148.518 9.77962 148.031 9.77962C147.433 9.77962 146.925 9.93956 146.508 10.2594C146.091 10.5793 145.778 11.0104 145.569 11.5528C145.361 12.0813 145.256 12.6863 145.256 13.3677V18.6456H142.711Z" fill="white"/>
<path d="M56.128 33.9117C55.688 33.9117 55.324 33.8397 55.036 33.6957C54.748 33.5437 54.516 33.3677 54.34 33.1677C54.172 32.9677 54.044 32.7957 53.956 32.6517H53.896V33.7917H52.996V24.6717H53.896V28.5717H53.956C54.044 28.4197 54.172 28.2477 54.34 28.0557C54.516 27.8557 54.748 27.6837 55.036 27.5397C55.324 27.3877 55.688 27.3117 56.128 27.3117C56.608 27.3117 57.028 27.4077 57.388 27.5997C57.748 27.7837 58.044 28.0357 58.276 28.3557C58.516 28.6677 58.696 29.0197 58.816 29.4117C58.936 29.8037 58.996 30.2037 58.996 30.6117C58.996 31.0197 58.936 31.4197 58.816 31.8117C58.696 32.2037 58.516 32.5597 58.276 32.8797C58.044 33.1917 57.748 33.4437 57.388 33.6357C57.028 33.8197 56.608 33.9117 56.128 33.9117ZM55.996 33.1317C56.468 33.1317 56.856 33.0077 57.16 32.7597C57.472 32.5117 57.704 32.1957 57.856 31.8117C58.016 31.4277 58.096 31.0277 58.096 30.6117C58.096 30.1957 58.016 29.7957 57.856 29.4117C57.704 29.0277 57.472 28.7117 57.16 28.4637C56.856 28.2157 56.468 28.0917 55.996 28.0917C55.532 28.0917 55.144 28.2157 54.832 28.4637C54.52 28.7117 54.288 29.0277 54.136 29.4117C53.984 29.7957 53.908 30.1957 53.908 30.6117C53.908 31.0277 53.984 31.4277 54.136 31.8117C54.288 32.1957 54.52 32.5117 54.832 32.7597C55.144 33.0077 55.532 33.1317 55.996 33.1317ZM60.1277 36.1317C59.9517 36.1317 59.8077 36.1237 59.6957 36.1077C59.5837 36.0997 59.5277 36.0957 59.5277 36.0957V35.3157C59.5277 35.3157 59.5877 35.3197 59.7077 35.3277C59.8357 35.3437 59.9677 35.3517 60.1037 35.3517C60.5917 35.3517 60.9957 35.2317 61.3157 34.9917C61.6357 34.7517 61.8997 34.3757 62.1077 33.8637L59.6237 27.4317H60.5597L62.5517 32.6997L64.5557 27.4317H65.5037L62.9597 33.9477C62.6637 34.6917 62.2837 35.2397 61.8197 35.5917C61.3637 35.9517 60.7997 36.1317 60.1277 36.1317ZM69.2096 33.7917V24.9117H71.9816C72.6856 24.9117 73.3016 25.0397 73.8296 25.2957C74.3576 25.5437 74.7936 25.8797 75.1376 26.3037C75.4896 26.7277 75.7536 27.2037 75.9296 27.7317C76.1056 28.2597 76.1936 28.7997 76.1936 29.3517C76.1936 29.9037 76.1056 30.4437 75.9296 30.9717C75.7536 31.4997 75.4896 31.9757 75.1376 32.3997C74.7936 32.8237 74.3576 33.1637 73.8296 33.4197C73.3016 33.6677 72.6856 33.7917 71.9816 33.7917H69.2096ZM71.9576 25.7397H70.1336V32.9637H71.9576C72.5096 32.9637 72.9896 32.8637 73.3976 32.6637C73.8136 32.4557 74.1576 32.1797 74.4296 31.8357C74.7096 31.4917 74.9176 31.1037 75.0536 30.6717C75.1896 30.2397 75.2576 29.7997 75.2576 29.3517C75.2576 28.9037 75.1896 28.4637 75.0536 28.0317C74.9176 27.5997 74.7096 27.2117 74.4296 26.8677C74.1576 26.5237 73.8136 26.2517 73.3976 26.0517C72.9896 25.8437 72.5096 25.7397 71.9576 25.7397ZM80.234 27.3117C80.674 27.3117 81.038 27.3877 81.326 27.5397C81.614 27.6837 81.842 27.8557 82.01 28.0557C82.186 28.2557 82.314 28.4277 82.394 28.5717H82.466V27.4317H83.354V33.7917H82.466V32.6517H82.394C82.314 32.8037 82.186 32.9797 82.01 33.1797C81.842 33.3717 81.614 33.5437 81.326 33.6957C81.038 33.8397 80.674 33.9117 80.234 33.9117C79.754 33.9117 79.334 33.8197 78.974 33.6357C78.614 33.4437 78.314 33.1917 78.074 32.8797C77.834 32.5597 77.654 32.2037 77.534 31.8117C77.422 31.4197 77.366 31.0197 77.366 30.6117C77.366 30.2037 77.422 29.8037 77.534 29.4117C77.654 29.0197 77.834 28.6677 78.074 28.3557C78.314 28.0357 78.614 27.7837 78.974 27.5997C79.334 27.4077 79.754 27.3117 80.234 27.3117ZM80.366 28.0917C79.894 28.0917 79.502 28.2157 79.19 28.4637C78.878 28.7117 78.646 29.0277 78.494 29.4117C78.342 29.7957 78.266 30.1957 78.266 30.6117C78.266 31.0277 78.342 31.4277 78.494 31.8117C78.646 32.1957 78.878 32.5117 79.19 32.7597C79.502 33.0077 79.894 33.1317 80.366 33.1317C80.83 33.1317 81.214 33.0077 81.518 32.7597C81.83 32.5117 82.062 32.1957 82.214 31.8117C82.374 31.4277 82.454 31.0277 82.454 30.6117C82.454 30.1957 82.374 29.7957 82.214 29.4117C82.062 29.0277 81.83 28.7117 81.518 28.4637C81.214 28.2157 80.83 28.0917 80.366 28.0917ZM87.0829 33.9117C86.6029 33.9117 86.2069 33.8437 85.8949 33.7077C85.5909 33.5717 85.3469 33.4037 85.1629 33.2037C84.9869 33.0037 84.8589 32.8037 84.7789 32.6037C84.6989 32.4037 84.6469 32.2357 84.6229 32.0997C84.5989 31.9637 84.5869 31.8957 84.5869 31.8957H85.5109C85.5109 31.8957 85.5229 31.9597 85.5469 32.0877C85.5709 32.2077 85.6309 32.3517 85.7269 32.5197C85.8309 32.6797 85.9909 32.8237 86.2069 32.9517C86.4229 33.0717 86.7189 33.1317 87.0949 33.1317C87.5029 33.1317 87.8269 33.0277 88.0669 32.8197C88.3069 32.6117 88.4269 32.3557 88.4269 32.0517C88.4269 31.7637 88.3269 31.5397 88.1269 31.3797C87.9349 31.2197 87.6749 31.1037 87.3469 31.0317L86.5069 30.8397C86.1869 30.7597 85.8949 30.6517 85.6309 30.5157C85.3669 30.3797 85.1549 30.1997 84.9949 29.9757C84.8349 29.7437 84.7549 29.4597 84.7549 29.1237C84.7549 28.5877 84.9509 28.1517 85.3429 27.8157C85.7349 27.4797 86.2469 27.3117 86.8789 27.3117C87.3029 27.3117 87.6509 27.3757 87.9229 27.5037C88.2029 27.6237 88.4229 27.7757 88.5829 27.9597C88.7509 28.1437 88.8709 28.3277 88.9429 28.5117C89.0229 28.6877 89.0749 28.8397 89.0989 28.9677C89.1229 29.0877 89.1349 29.1477 89.1349 29.1477H88.2589C88.2589 29.1477 88.2429 29.0957 88.2109 28.9917C88.1869 28.8797 88.1309 28.7557 88.0429 28.6197C87.9629 28.4757 87.8269 28.3517 87.6349 28.2477C87.4509 28.1357 87.1989 28.0797 86.8789 28.0797C86.4629 28.0797 86.1509 28.1797 85.9429 28.3797C85.7429 28.5797 85.6429 28.8077 85.6429 29.0637C85.6429 29.3117 85.7309 29.5077 85.9069 29.6517C86.0909 29.7957 86.3389 29.9037 86.6509 29.9757L87.5029 30.1797C88.0389 30.3077 88.4749 30.5197 88.8109 30.8157C89.1469 31.1037 89.3149 31.5037 89.3149 32.0157C89.3149 32.3597 89.2229 32.6757 89.0389 32.9637C88.8629 33.2517 88.6069 33.4837 88.2709 33.6597C87.9429 33.8277 87.5469 33.9117 87.0829 33.9117ZM90.6966 33.7917V24.6717H91.5966V28.4877H91.6566C91.7126 28.3677 91.8126 28.2157 91.9566 28.0317C92.1006 27.8397 92.3006 27.6717 92.5566 27.5277C92.8206 27.3837 93.1486 27.3117 93.5406 27.3117C94.0046 27.3117 94.4006 27.4197 94.7286 27.6357C95.0566 27.8517 95.3086 28.1437 95.4846 28.5117C95.6606 28.8797 95.7486 29.2957 95.7486 29.7597V33.7917H94.8486V29.8077C94.8486 29.3197 94.7166 28.9157 94.4526 28.5957C94.1966 28.2677 93.8206 28.1037 93.3246 28.1037C92.9166 28.1037 92.5846 28.2077 92.3286 28.4157C92.0806 28.6237 91.8966 28.8917 91.7766 29.2197C91.6566 29.5477 91.5966 29.8837 91.5966 30.2277V33.7917H90.6966ZM100.538 33.9117C100.098 33.9117 99.7338 33.8397 99.4458 33.6957C99.1578 33.5437 98.9258 33.3677 98.7498 33.1677C98.5818 32.9677 98.4538 32.7957 98.3658 32.6517H98.3058V33.7917H97.4058V24.6717H98.3058V28.5717H98.3658C98.4538 28.4197 98.5818 28.2477 98.7498 28.0557C98.9258 27.8557 99.1578 27.6837 99.4458 27.5397C99.7338 27.3877 100.098 27.3117 100.538 27.3117C101.018 27.3117 101.438 27.4077 101.798 27.5997C102.158 27.7837 102.454 28.0357 102.686 28.3557C102.926 28.6677 103.106 29.0197 103.226 29.4117C103.346 29.8037 103.406 30.2037 103.406 30.6117C103.406 31.0197 103.346 31.4197 103.226 31.8117C103.106 32.2037 102.926 32.5597 102.686 32.8797C102.454 33.1917 102.158 33.4437 101.798 33.6357C101.438 33.8197 101.018 33.9117 100.538 33.9117ZM100.406 33.1317C100.878 33.1317 101.266 33.0077 101.57 32.7597C101.882 32.5117 102.114 32.1957 102.266 31.8117C102.426 31.4277 102.506 31.0277 102.506 30.6117C102.506 30.1957 102.426 29.7957 102.266 29.4117C102.114 29.0277 101.882 28.7117 101.57 28.4637C101.266 28.2157 100.878 28.0917 100.406 28.0917C99.9418 28.0917 99.5538 28.2157 99.2418 28.4637C98.9298 28.7117 98.6978 29.0277 98.5458 29.4117C98.3938 29.7957 98.3178 30.1957 98.3178 30.6117C98.3178 31.0277 98.3938 31.4277 98.5458 31.8117C98.6978 32.1957 98.9298 32.5117 99.2418 32.7597C99.5538 33.0077 99.9418 33.1317 100.406 33.1317ZM107.673 33.9117C107.169 33.9117 106.725 33.8197 106.341 33.6357C105.965 33.4517 105.645 33.2037 105.381 32.8917C105.125 32.5797 104.933 32.2277 104.805 31.8357C104.677 31.4357 104.613 31.0277 104.613 30.6117C104.613 30.1877 104.677 29.7797 104.805 29.3877C104.933 28.9957 105.125 28.6437 105.381 28.3317C105.645 28.0197 105.965 27.7717 106.341 27.5877C106.725 27.4037 107.169 27.3117 107.673 27.3117C108.177 27.3117 108.621 27.4037 109.005 27.5877C109.389 27.7717 109.709 28.0197 109.965 28.3317C110.221 28.6437 110.413 28.9957 110.541 29.3877C110.677 29.7797 110.745 30.1877 110.745 30.6117C110.745 31.0277 110.677 31.4357 110.541 31.8357C110.413 32.2277 110.221 32.5797 109.965 32.8917C109.709 33.2037 109.389 33.4517 109.005 33.6357C108.621 33.8197 108.177 33.9117 107.673 33.9117ZM107.673 33.1077C108.145 33.1077 108.541 32.9877 108.861 32.7477C109.181 32.5077 109.421 32.1997 109.581 31.8237C109.749 31.4397 109.833 31.0357 109.833 30.6117C109.833 30.1877 109.749 29.7877 109.581 29.4117C109.421 29.0277 109.181 28.7157 108.861 28.4757C108.541 28.2357 108.145 28.1157 107.673 28.1157C107.201 28.1157 106.805 28.2357 106.485 28.4757C106.165 28.7157 105.925 29.0277 105.765 29.4117C105.605 29.7877 105.525 30.1877 105.525 30.6117C105.525 31.0357 105.605 31.4397 105.765 31.8237C105.925 32.1997 106.165 32.5077 106.485 32.7477C106.805 32.9877 107.201 33.1077 107.673 33.1077ZM114.823 27.3117C115.263 27.3117 115.627 27.3877 115.915 27.5397C116.203 27.6837 116.431 27.8557 116.599 28.0557C116.775 28.2557 116.903 28.4277 116.983 28.5717H117.055V27.4317H117.943V33.7917H117.055V32.6517H116.983C116.903 32.8037 116.775 32.9797 116.599 33.1797C116.431 33.3717 116.203 33.5437 115.915 33.6957C115.627 33.8397 115.263 33.9117 114.823 33.9117C114.343 33.9117 113.923 33.8197 113.563 33.6357C113.203 33.4437 112.903 33.1917 112.663 32.8797C112.423 32.5597 112.243 32.2037 112.123 31.8117C112.011 31.4197 111.955 31.0197 111.955 30.6117C111.955 30.2037 112.011 29.8037 112.123 29.4117C112.243 29.0197 112.423 28.6677 112.663 28.3557C112.903 28.0357 113.203 27.7837 113.563 27.5997C113.923 27.4077 114.343 27.3117 114.823 27.3117ZM114.955 28.0917C114.483 28.0917 114.091 28.2157 113.779 28.4637C113.467 28.7117 113.235 29.0277 113.083 29.4117C112.931 29.7957 112.855 30.1957 112.855 30.6117C112.855 31.0277 112.931 31.4277 113.083 31.8117C113.235 32.1957 113.467 32.5117 113.779 32.7597C114.091 33.0077 114.483 33.1317 114.955 33.1317C115.419 33.1317 115.803 33.0077 116.107 32.7597C116.419 32.5117 116.651 32.1957 116.803 31.8117C116.963 31.4277 117.043 31.0277 117.043 30.6117C117.043 30.1957 116.963 29.7957 116.803 29.4117C116.651 29.0277 116.419 28.7117 116.107 28.4637C115.803 28.2157 115.419 28.0917 114.955 28.0917ZM119.5 33.7917V27.4317H120.4V28.2597H120.448C120.576 28.0037 120.772 27.7837 121.036 27.5997C121.3 27.4077 121.668 27.3117 122.14 27.3117C122.292 27.3117 122.424 27.3197 122.536 27.3357C122.656 27.3517 122.716 27.3597 122.716 27.3597V28.2237C122.716 28.2237 122.652 28.2157 122.524 28.1997C122.396 28.1837 122.26 28.1757 122.116 28.1757C121.788 28.1757 121.492 28.2437 121.228 28.3797C120.972 28.5077 120.768 28.7317 120.616 29.0517C120.472 29.3637 120.4 29.7917 120.4 30.3357V33.7917H119.5ZM126.062 33.9117C125.582 33.9117 125.162 33.8197 124.802 33.6357C124.442 33.4437 124.142 33.1917 123.902 32.8797C123.662 32.5597 123.482 32.2037 123.362 31.8117C123.25 31.4197 123.194 31.0197 123.194 30.6117C123.194 30.2037 123.25 29.8037 123.362 29.4117C123.482 29.0197 123.662 28.6677 123.902 28.3557C124.142 28.0357 124.442 27.7837 124.802 27.5997C125.162 27.4077 125.582 27.3117 126.062 27.3117C126.502 27.3117 126.866 27.3877 127.154 27.5397C127.442 27.6837 127.67 27.8557 127.838 28.0557C128.014 28.2557 128.142 28.4277 128.222 28.5717H128.294V24.6717H129.182V33.7917H128.294V32.6517H128.222C128.142 32.8037 128.014 32.9797 127.838 33.1797C127.67 33.3717 127.442 33.5437 127.154 33.6957C126.866 33.8397 126.502 33.9117 126.062 33.9117ZM126.194 33.1317C126.658 33.1317 127.042 33.0077 127.346 32.7597C127.658 32.5117 127.89 32.1957 128.042 31.8117C128.202 31.4277 128.282 31.0277 128.282 30.6117C128.282 30.1957 128.202 29.7957 128.042 29.4117C127.89 29.0277 127.658 28.7117 127.346 28.4637C127.042 28.2157 126.658 28.0917 126.194 28.0917C125.722 28.0917 125.33 28.2157 125.018 28.4637C124.706 28.7117 124.474 29.0277 124.322 29.4117C124.17 29.7957 124.094 30.1957 124.094 30.6117C124.094 31.0277 124.17 31.4277 124.322 31.8117C124.474 32.1957 124.706 32.5117 125.018 32.7597C125.33 33.0077 125.722 33.1317 126.194 33.1317ZM133.958 33.9117C133.694 33.9117 133.454 33.8957 133.238 33.8637C133.022 33.8397 132.914 33.8277 132.914 33.8277V32.9997C132.914 32.9997 133.018 33.0117 133.226 33.0357C133.434 33.0597 133.646 33.0717 133.862 33.0717C134.502 33.0717 135.002 32.9077 135.362 32.5797C135.73 32.2517 135.914 31.7197 135.914 30.9837V24.9117H136.838V30.9837C136.838 31.9037 136.59 32.6237 136.094 33.1437C135.606 33.6557 134.894 33.9117 133.958 33.9117ZM140.573 33.9117C139.941 33.9117 139.437 33.7077 139.061 33.2997C138.685 32.8917 138.497 32.3237 138.497 31.5957V27.4317H139.397V31.5597C139.397 32.0557 139.521 32.4397 139.769 32.7117C140.017 32.9837 140.357 33.1197 140.789 33.1197C141.213 33.1197 141.553 33.0077 141.809 32.7837C142.065 32.5517 142.249 32.2637 142.361 31.9197C142.481 31.5677 142.541 31.2037 142.541 30.8277V27.4317H143.441V33.7917H142.541V32.7477H142.481C142.425 32.8597 142.325 33.0117 142.181 33.2037C142.037 33.3877 141.837 33.5517 141.581 33.6957C141.325 33.8397 140.989 33.9117 140.573 33.9117ZM144.995 33.7917V27.4317H145.895V28.4877H145.955C146.011 28.3677 146.111 28.2157 146.255 28.0317C146.399 27.8397 146.599 27.6717 146.855 27.5277C147.111 27.3837 147.435 27.3117 147.827 27.3117C148.299 27.3117 148.699 27.4197 149.027 27.6357C149.355 27.8517 149.603 28.1437 149.771 28.5117C149.947 28.8797 150.035 29.2957 150.035 29.7597V33.7917H149.147V29.8077C149.147 29.3197 149.015 28.9157 148.751 28.5957C148.495 28.2677 148.115 28.1037 147.611 28.1037C147.211 28.1037 146.883 28.2077 146.627 28.4157C146.379 28.6237 146.195 28.8917 146.075 29.2197C145.955 29.5477 145.895 29.8837 145.895 30.2277V33.7917H144.995ZM154.587 36.3117C154.075 36.3117 153.647 36.2397 153.303 36.0957C152.959 35.9597 152.683 35.7877 152.475 35.5797C152.275 35.3797 152.123 35.1757 152.019 34.9677C151.923 34.7597 151.859 34.5877 151.827 34.4517C151.795 34.3157 151.779 34.2477 151.779 34.2477H152.679C152.679 34.2477 152.699 34.3117 152.739 34.4397C152.779 34.5677 152.859 34.7157 152.979 34.8837C153.107 35.0517 153.299 35.1997 153.555 35.3277C153.811 35.4557 154.155 35.5197 154.587 35.5197C155.107 35.5197 155.511 35.4157 155.799 35.2077C156.087 34.9997 156.287 34.7357 156.399 34.4157C156.511 34.1037 156.567 33.7837 156.567 33.4557V32.5797H156.519C156.439 32.7157 156.311 32.8837 156.135 33.0837C155.959 33.2757 155.723 33.4437 155.427 33.5877C155.131 33.7317 154.763 33.8037 154.323 33.8037C153.843 33.8037 153.423 33.7117 153.063 33.5277C152.711 33.3437 152.415 33.0957 152.175 32.7837C151.935 32.4717 151.755 32.1237 151.635 31.7397C151.523 31.3557 151.467 30.9597 151.467 30.5517C151.467 30.1517 151.523 29.7597 151.635 29.3757C151.755 28.9917 151.935 28.6437 152.175 28.3317C152.415 28.0197 152.711 27.7717 153.063 27.5877C153.423 27.4037 153.843 27.3117 154.323 27.3117C154.763 27.3117 155.131 27.3837 155.427 27.5277C155.723 27.6717 155.959 27.8437 156.135 28.0437C156.311 28.2357 156.439 28.3997 156.519 28.5357H156.567V27.4317H157.467V33.4437C157.467 34.3397 157.211 35.0397 156.699 35.5437C156.195 36.0557 155.491 36.3117 154.587 36.3117ZM154.467 33.0237C154.931 33.0237 155.319 32.9037 155.631 32.6637C155.943 32.4237 156.175 32.1157 156.327 31.7397C156.487 31.3637 156.567 30.9677 156.567 30.5517C156.567 30.1357 156.487 29.7437 156.327 29.3757C156.175 28.9997 155.943 28.6917 155.631 28.4517C155.327 28.2117 154.943 28.0917 154.479 28.0917C154.007 28.0917 153.615 28.2117 153.303 28.4517C152.991 28.6917 152.759 28.9997 152.607 29.3757C152.455 29.7517 152.379 30.1437 152.379 30.5517C152.379 30.9677 152.455 31.3637 152.607 31.7397C152.759 32.1157 152.991 32.4237 153.303 32.6637C153.615 32.9037 154.003 33.0237 154.467 33.0237ZM159.096 33.7917L159.108 24.6717H159.996V33.7917H159.096ZM164.474 33.9117C163.962 33.9117 163.518 33.8197 163.142 33.6357C162.766 33.4437 162.458 33.1877 162.218 32.8677C161.978 32.5477 161.798 32.1917 161.678 31.7997C161.566 31.4077 161.51 31.0117 161.51 30.6117C161.51 30.2117 161.566 29.8157 161.678 29.4237C161.798 29.0317 161.978 28.6757 162.218 28.3557C162.458 28.0357 162.758 27.7837 163.118 27.5997C163.486 27.4077 163.922 27.3117 164.426 27.3117C164.954 27.3117 165.422 27.4357 165.83 27.6837C166.246 27.9317 166.57 28.2997 166.802 28.7877C167.042 29.2677 167.162 29.8717 167.162 30.5997V30.8637H162.422C162.438 31.2717 162.526 31.6477 162.686 31.9917C162.854 32.3357 163.086 32.6117 163.382 32.8197C163.686 33.0277 164.05 33.1317 164.474 33.1317C164.826 33.1317 165.118 33.0717 165.35 32.9517C165.582 32.8237 165.758 32.6797 165.878 32.5197C166.006 32.3517 166.094 32.2077 166.142 32.0877C166.198 31.9677 166.226 31.9077 166.226 31.9077H167.078C167.078 31.9077 167.058 31.9757 167.018 32.1117C166.978 32.2397 166.906 32.4037 166.802 32.6037C166.698 32.8037 166.546 33.0037 166.346 33.2037C166.154 33.4037 165.906 33.5717 165.602 33.7077C165.298 33.8437 164.922 33.9117 164.474 33.9117ZM162.434 30.1437H166.262C166.238 29.6557 166.138 29.2637 165.962 28.9677C165.794 28.6637 165.574 28.4437 165.302 28.3077C165.03 28.1717 164.738 28.1037 164.426 28.1037C163.858 28.1037 163.398 28.2917 163.046 28.6677C162.694 29.0357 162.49 29.5277 162.434 30.1437Z" fill="white" fill-opacity="0.6"/>
</svg>
