<svg width="17" height="16" viewBox="0 0 17 16" fill="none" xmlns="http://www.w3.org/2000/svg">
<path d="M1.83301 8.00004C1.83301 4.85737 1.83301 3.28604 2.80901 2.30937C3.78634 1.33337 5.35701 1.33337 8.49967 1.33337C11.6423 1.33337 13.2137 1.33337 14.1897 2.30937C15.1663 3.28671 15.1663 4.85737 15.1663 8.00004C15.1663 11.1427 15.1663 12.714 14.1897 13.69C13.2143 14.6667 11.6423 14.6667 8.49967 14.6667C5.35701 14.6667 3.78567 14.6667 2.80901 13.69C1.83301 12.7147 1.83301 11.1427 1.83301 8.00004Z" stroke="#030E09"/>
<path d="M5.16634 3.99992C5.16634 4.17673 5.0961 4.3463 4.97108 4.47132C4.84605 4.59635 4.67649 4.66659 4.49967 4.66659C4.32286 4.66659 4.15329 4.59635 4.02827 4.47132C3.90325 4.3463 3.83301 4.17673 3.83301 3.99992C3.83301 3.82311 3.90325 3.65354 4.02827 3.52851C4.15329 3.40349 4.32286 3.33325 4.49967 3.33325C4.67649 3.33325 4.84605 3.40349 4.97108 3.52851C5.0961 3.65354 5.16634 3.82311 5.16634 3.99992ZM7.16634 3.99992C7.16634 4.17673 7.0961 4.3463 6.97108 4.47132C6.84605 4.59635 6.67649 4.66659 6.49967 4.66659C6.32286 4.66659 6.15329 4.59635 6.02827 4.47132C5.90325 4.3463 5.83301 4.17673 5.83301 3.99992C5.83301 3.82311 5.90325 3.65354 6.02827 3.52851C6.15329 3.40349 6.32286 3.33325 6.49967 3.33325C6.67649 3.33325 6.84605 3.40349 6.97108 3.52851C7.0961 3.65354 7.16634 3.82311 7.16634 3.99992ZM9.16634 3.99992C9.16634 4.17673 9.0961 4.3463 8.97108 4.47132C8.84605 4.59635 8.67649 4.66659 8.49967 4.66659C8.32286 4.66659 8.15329 4.59635 8.02827 4.47132C7.90325 4.3463 7.83301 4.17673 7.83301 3.99992C7.83301 3.82311 7.90325 3.65354 8.02827 3.52851C8.15329 3.40349 8.32286 3.33325 8.49967 3.33325C8.67649 3.33325 8.84605 3.40349 8.97108 3.52851C9.0961 3.65354 9.16634 3.82311 9.16634 3.99992Z" fill="#030E09"/>
<path d="M1.83301 6.33325H15.1663M6.49967 13.9999V6.66659" stroke="#030E09" stroke-linecap="round"/>
</svg>
