<svg width="17" height="16" viewBox="0 0 17 16" fill="none" xmlns="http://www.w3.org/2000/svg">
<path d="M2.16699 4.33317C2.16699 3.62593 2.44794 2.94765 2.94804 2.44755C3.44814 1.94746 4.12641 1.6665 4.83366 1.6665C5.5409 1.6665 6.21918 1.94746 6.71928 2.44755C7.21937 2.94765 7.50033 3.62593 7.50033 4.33317C7.50033 5.04041 7.21937 5.71869 6.71928 6.21879C6.21918 6.71889 5.5409 6.99984 4.83366 6.99984C4.12641 6.99984 3.44814 6.71889 2.94804 6.21879C2.44794 5.71869 2.16699 5.04041 2.16699 4.33317ZM9.50033 11.6665C9.50033 10.9593 9.78128 10.281 10.2814 9.78089C10.7815 9.28079 11.4597 8.99984 12.167 8.99984C12.8742 8.99984 13.5525 9.28079 14.0526 9.78089C14.5527 10.281 14.8337 10.9593 14.8337 11.6665C14.8337 12.3737 14.5527 13.052 14.0526 13.5521C13.5525 14.0522 12.8742 14.3332 12.167 14.3332C11.4597 14.3332 10.7815 14.0522 10.2814 13.5521C9.78128 13.052 9.50033 12.3737 9.50033 11.6665ZM14.8337 4.33317C14.8337 3.62593 14.5527 2.94765 14.0526 2.44755C13.5525 1.94746 12.8742 1.6665 12.167 1.6665C11.4597 1.6665 10.7815 1.94746 10.2814 2.44755C9.78128 2.94765 9.50033 3.62593 9.50033 4.33317C9.50033 5.04041 9.78128 5.71869 10.2814 6.21879C10.7815 6.71889 11.4597 6.99984 12.167 6.99984C12.8742 6.99984 13.5525 6.71889 14.0526 6.21879C14.5527 5.71869 14.8337 5.04041 14.8337 4.33317ZM7.50033 11.6665C7.50033 10.9593 7.21937 10.281 6.71928 9.78089C6.21918 9.28079 5.5409 8.99984 4.83366 8.99984C4.12641 8.99984 3.44814 9.28079 2.94804 9.78089C2.44794 10.281 2.16699 10.9593 2.16699 11.6665C2.16699 12.3737 2.44794 13.052 2.94804 13.5521C3.44814 14.0522 4.12641 14.3332 4.83366 14.3332C5.5409 14.3332 6.21918 14.0522 6.71928 13.5521C7.21937 13.052 7.50033 12.3737 7.50033 11.6665Z" stroke="#030E09"/>
</svg>
