<svg width="20" height="20" viewBox="0 0 20 20" fill="none" xmlns="http://www.w3.org/2000/svg">
<path d="M4.72497 8.26166L7.27664 4.80916C8.92581 2.57749 9.75081 1.46166 10.52 1.69749C11.2891 1.93333 11.2891 3.30166 11.2891 6.03916V6.29749C11.2891 7.28499 11.2891 7.77833 11.605 8.08749L11.6216 8.10416C11.9441 8.40666 12.4575 8.40666 13.485 8.40666C15.335 8.40666 16.2591 8.40666 16.5716 8.96749L16.5866 8.99583C16.8816 9.56499 16.3458 10.29 15.275 11.7375L12.7233 15.1908C11.0733 17.4225 10.2491 18.5383 9.47997 18.3025C8.71081 18.0667 8.71081 16.6983 8.71081 13.9608V13.7025C8.71081 12.715 8.71081 12.2217 8.39497 11.9125L8.37831 11.8958C8.05581 11.5933 7.54247 11.5933 6.51497 11.5933C4.66497 11.5933 3.7408 11.5933 3.42914 11.0325L3.41331 11.0042C3.11831 10.435 3.65414 9.71083 4.72497 8.26249V8.26166Z" stroke="#030E09" stroke-width="1.25"/>
</svg>
