<svg width="20" height="20" viewBox="0 0 20 20" fill="none" xmlns="http://www.w3.org/2000/svg">
<path fill-rule="evenodd" clip-rule="evenodd" d="M0 10C0 7.34784 1.05357 4.8043 2.92893 2.92893C4.8043 1.05357 7.34784 0 10 0C12.6522 0 15.1957 1.05357 17.0711 2.92893C18.9464 4.8043 20 7.34784 20 10C20 12.6522 18.9464 15.1957 17.0711 17.0711C15.1957 18.9464 12.6522 20 10 20C7.34784 20 4.8043 18.9464 2.92893 17.0711C1.05357 15.1957 0 12.6522 0 10ZM10 4.66667C10.1268 4.66662 10.2509 4.70273 10.3579 4.77074C10.4649 4.83875 10.5503 4.93586 10.604 5.05067L11.8933 7.8L14.7667 8.24C14.8877 8.25866 15.0012 8.31028 15.0948 8.38919C15.1884 8.46811 15.2585 8.57128 15.2973 8.68739C15.3361 8.80349 15.3422 8.92805 15.315 9.0474C15.2877 9.16675 15.2281 9.27629 15.1427 9.364L13.0453 11.5147L13.5427 14.56C13.5629 14.6836 13.5479 14.8104 13.4994 14.9259C13.4509 15.0413 13.3709 15.1408 13.2685 15.2129C13.166 15.285 13.0454 15.3267 12.9203 15.3334C12.7953 15.3401 12.6708 15.3114 12.5613 15.2507L10 13.8347L7.43867 15.2507C7.32905 15.3115 7.20448 15.3403 7.07927 15.3336C6.95406 15.3268 6.83328 15.2849 6.73081 15.2127C6.62833 15.1404 6.54831 15.0407 6.49994 14.925C6.45157 14.8093 6.4368 14.6824 6.45733 14.5587L6.95467 11.5147L4.856 9.364C4.77018 9.27624 4.71026 9.1665 4.68283 9.04686C4.65541 8.92722 4.66154 8.80233 4.70056 8.68595C4.73959 8.56958 4.80998 8.46624 4.90398 8.38731C4.99799 8.30839 5.11196 8.25695 5.23333 8.23867L8.10533 7.8L9.396 5.05067C9.44975 4.93586 9.53512 4.83875 9.6421 4.77074C9.74908 4.70273 9.87323 4.66662 10 4.66667Z" fill="#F6B51E"/>
</svg>
