<svg width="20" height="20" viewBox="0 0 20 20" fill="none" xmlns="http://www.w3.org/2000/svg">
<path d="M9.0468 11.8083C9.16427 11.6913 9.23044 11.5324 9.23075 11.3666C9.23106 11.2008 9.16549 11.0416 9.04846 10.9242C8.93144 10.8067 8.77254 10.7405 8.60673 10.7402C8.44091 10.7399 8.28177 10.8055 8.1643 10.9225L9.0468 11.8083ZM8.2668 6.185C8.40605 6.26858 8.57237 6.29467 8.73052 6.25775C8.88868 6.22083 9.02625 6.12379 9.1141 5.98719C9.20195 5.8506 9.23318 5.68517 9.20118 5.52594C9.16917 5.36672 9.07644 5.22621 8.94263 5.13417L8.2668 6.185ZM10.4168 15.4167L9.97513 15.8583L10.0051 15.8867L10.4168 15.4167ZM14.8535 11.0267C14.8089 10.9577 14.7511 10.8982 14.6835 10.8516C14.616 10.805 14.5399 10.7721 14.4596 10.7549C14.2974 10.7201 14.1281 10.7512 13.9889 10.8413C13.8496 10.9313 13.7519 11.073 13.7171 11.2351C13.6823 11.3973 13.7134 11.5666 13.8035 11.7058L14.8535 11.0267ZM10.8526 15.7983L11.2943 15.3567L11.2793 15.3417L11.2643 15.3292L10.8526 15.7983ZM16.4701 8.3475L11.5976 13.205L12.481 14.09L17.3526 9.23167L16.4701 8.3475ZM7.90263 13.205L6.75763 12.0633L5.87513 12.95L7.02013 14.0917L7.90263 13.205ZM6.75763 8.385L11.631 3.52667L10.7476 2.64167L5.87513 7.5L6.75763 8.385ZM14.6226 2.29167H15.0968V1.04167H14.6218L14.6226 2.29167ZM17.7085 4.89417V5.36667H18.9585V4.89417H17.7085ZM15.0968 2.29167C15.8768 2.29167 16.4001 2.29333 16.7893 2.345C17.161 2.395 17.3168 2.48084 17.4185 2.58167L18.301 1.69667C17.9285 1.325 17.4651 1.175 16.9551 1.10667C16.4635 1.04 15.8418 1.04167 15.0968 1.04167V2.29167ZM18.9585 4.89417C18.9585 4.15084 18.9601 3.53084 18.8935 3.04C18.8251 2.53084 18.6735 2.06834 18.301 1.69667L17.4168 2.58167C17.5185 2.6825 17.6043 2.8375 17.6543 3.20667C17.706 3.595 17.7085 4.115 17.7085 4.89417H18.9585ZM6.75846 12.0642C6.20596 11.5142 5.83763 11.1442 5.5993 10.8325C5.3718 10.5358 5.32346 10.3658 5.32346 10.2242H4.07346C4.07346 10.7508 4.2943 11.1842 4.6068 11.5925C4.90763 11.9858 5.34846 12.4233 5.87513 12.9492L6.75846 12.0642ZM7.0193 14.09C7.54596 14.615 7.98596 15.055 8.38013 15.355C8.7893 15.6667 9.22346 15.8858 9.75013 15.8858V14.6358C9.60596 14.6358 9.43513 14.5867 9.1368 14.3608C8.82513 14.1225 8.4543 13.755 7.90263 13.205L7.0193 14.09ZM17.3526 9.23167C18.0185 8.56917 18.4818 8.12167 18.726 7.535L17.5718 7.05584C17.446 7.35917 17.2076 7.61167 16.4701 8.3475L17.3526 9.23167ZM17.7085 5.36667C17.7085 6.4075 17.6976 6.7525 17.5718 7.05584L18.726 7.535C18.9693 6.94834 18.9585 6.305 18.9585 5.36667H17.7085ZM11.6301 3.5275C12.3676 2.79167 12.6218 2.55417 12.926 2.42834L12.4493 1.27333C11.8618 1.51584 11.4135 1.97834 10.7476 2.64167L11.6301 3.5275ZM14.6218 1.04167C13.6801 1.04167 13.0368 1.03083 12.4493 1.27333L12.926 2.42834C13.231 2.30334 13.5793 2.29167 14.6226 2.29167L14.6218 1.04167ZM7.33013 13.5192L9.0468 11.8083L8.1643 10.9225L6.44763 12.6342L7.33013 13.5192ZM8.94263 5.13417L8.41846 4.79667L7.7418 5.8475L8.2668 6.185L8.94263 5.13417ZM8.41846 4.79667C7.90096 4.46334 7.48263 4.19334 7.12346 4C6.75513 3.80167 6.41096 3.66084 6.03013 3.605L5.84763 4.84167C6.03096 4.86834 6.23096 4.93917 6.53013 5.1C6.8368 5.26583 7.20846 5.50417 7.7418 5.8475L8.41846 4.79667ZM2.29596 7.12833C2.76129 6.6579 3.23639 6.19725 3.72096 5.74667C3.91674 5.56557 4.11968 5.39238 4.3293 5.2275C4.51513 5.08417 4.63346 5.01417 4.6893 4.99083L4.21013 3.83584C3.99596 3.925 3.77096 4.07917 3.56596 4.2375C3.35096 4.40334 3.11596 4.60584 2.87763 4.82334C2.40096 5.25834 1.87763 5.78084 1.41346 6.24334L2.29596 7.12833ZM6.03013 3.605C5.41375 3.51586 4.78474 3.59564 4.21013 3.83584L4.6893 4.99083C5.05473 4.83698 5.45506 4.78597 5.84763 4.84167L6.03013 3.605ZM1.84013 8.31084L2.15596 8.43584L2.61596 7.27417L2.30096 7.14917L1.84013 8.31084ZM3.40263 9.25334L4.20263 10.0517L5.08596 9.16667L4.2868 8.36834L3.40263 9.25334ZM2.15596 8.43584L2.25096 8.47417L2.7268 7.31833L2.61596 7.27417L2.15596 8.43584ZM4.28513 8.36834L4.20096 8.285L3.33013 9.18167L3.40263 9.25334L4.28513 8.36834ZM2.25096 8.47417C2.65263 8.63917 3.01846 8.88 3.33013 9.1825L4.20096 8.285C3.77545 7.87205 3.27514 7.54398 2.7268 7.31833L2.25096 8.47417ZM1.41346 6.24334C1.26502 6.39113 1.15572 6.57357 1.09541 6.77417C1.0351 6.97478 1.02569 7.18725 1.06803 7.3924C1.11037 7.59755 1.20312 7.78893 1.33791 7.94928C1.47271 8.10962 1.64531 8.23388 1.84013 8.31084L2.30096 7.14917L2.29513 7.14583L2.29263 7.13917V7.13334L2.29596 7.12833L1.41346 6.24334ZM13.8043 11.7058L14.1426 12.2283L15.1918 11.5492L14.8535 11.0267L13.8043 11.7058ZM12.8576 17.6533L12.7876 17.7242L13.671 18.6083L13.741 18.5392L12.8576 17.6533ZM14.1426 12.2283C14.4876 12.7617 14.726 13.1308 14.8926 13.4367C15.0535 13.735 15.1243 13.9342 15.151 14.1158L16.3876 13.9325C16.331 13.5517 16.1893 13.2075 15.991 12.8408C15.7968 12.4825 15.526 12.0658 15.1918 11.5492L14.1426 12.2283ZM13.741 18.5392C14.2051 18.0758 14.7285 17.5533 15.1651 17.0783C15.3826 16.8408 15.586 16.6067 15.7526 16.3925C15.911 16.1883 16.066 15.9633 16.1551 15.7492L15.0018 15.2683C14.9363 15.3963 14.8567 15.5165 14.7643 15.6267C14.5991 15.8357 14.4256 16.0381 14.2443 16.2333C13.792 16.7163 13.3297 17.1897 12.8576 17.6533L13.741 18.5392ZM15.151 14.1158C15.2076 14.4958 15.1576 14.8942 15.001 15.2683L16.1551 15.7492C16.3968 15.1756 16.4772 14.5485 16.3876 13.9325L15.151 14.1158ZM11.2643 15.3292L10.8285 14.9467L10.0051 15.8867L10.4401 16.2683L11.2643 15.3292ZM12.8718 17.7475C12.6926 17.2983 12.5851 17.0267 12.4435 16.7692L11.3476 17.3692C11.4443 17.5442 11.521 17.7342 11.7101 18.2108L12.8718 17.7475ZM10.411 16.2417C10.7743 16.6033 10.9193 16.7492 11.0426 16.9067L12.026 16.135C11.8451 15.9042 11.6368 15.6975 11.2935 15.3558L10.411 16.2417ZM12.4443 16.7683C12.3223 16.5462 12.1824 16.3344 12.026 16.135L11.0426 16.9067C11.1571 17.0522 11.2587 17.2064 11.3476 17.3692L12.4443 16.7683ZM13.8851 7.5C13.6984 7.68579 13.4456 7.79009 13.1822 7.79009C12.9188 7.79009 12.6661 7.68579 12.4793 7.5L11.5968 8.385C12.0179 8.80462 12.5881 9.04024 13.1826 9.04024C13.7771 9.04024 14.3474 8.80462 14.7685 8.385L13.8851 7.5ZM12.4793 7.5C12.387 7.40857 12.3137 7.29974 12.2636 7.1798C12.2136 7.05986 12.1878 6.9312 12.1878 6.80125C12.1878 6.6713 12.2136 6.54264 12.2636 6.4227C12.3137 6.30277 12.387 6.19394 12.4793 6.1025L11.5968 5.2175C11.3882 5.42504 11.2226 5.67175 11.1097 5.94348C10.9967 6.2152 10.9385 6.50657 10.9385 6.80084C10.9385 7.0951 10.9967 7.38647 11.1097 7.65819C11.2226 7.92992 11.3882 8.17663 11.5968 8.38417L12.4793 7.5ZM12.4793 6.1025C12.6661 5.91646 12.919 5.812 13.1826 5.812C13.4463 5.812 13.6992 5.91646 13.886 6.1025L14.7685 5.2175C14.3474 4.79788 13.7771 4.56226 13.1826 4.56226C12.5881 4.56226 12.0179 4.79788 11.5968 5.2175L12.4793 6.1025ZM13.886 6.1025C13.9783 6.19394 14.0516 6.30277 14.1016 6.4227C14.1517 6.54264 14.1774 6.6713 14.1774 6.80125C14.1774 6.9312 14.1517 7.05986 14.1016 7.1798C14.0516 7.29974 13.9775 7.40857 13.8851 7.5L14.7685 8.385C14.9771 8.17747 15.1426 7.93075 15.2556 7.65903C15.3686 7.38731 15.4267 7.09594 15.4267 6.80167C15.4267 6.5074 15.3686 6.21603 15.2556 5.94431C15.1426 5.67259 14.9771 5.42504 14.7685 5.2175L13.886 6.1025ZM12.7868 17.7233C12.7938 17.7177 12.8017 17.7132 12.8101 17.71L12.8293 17.7092L12.8493 17.7192C12.8593 17.7275 12.8665 17.7369 12.871 17.7475L11.7093 18.21C12.0293 19.0125 13.0693 19.2067 13.6693 18.6083L12.7868 17.7233ZM11.5976 13.205C11.1718 13.63 10.8501 13.9492 10.5743 14.1867C10.2985 14.4258 10.1118 14.5417 9.96596 14.5958L10.3976 15.7692C10.7543 15.6375 11.076 15.4058 11.3918 15.1325C11.7076 14.8592 12.0651 14.5033 12.4793 14.0908L11.5976 13.205ZM9.96596 14.5958C9.89694 14.6228 9.82424 14.6364 9.75013 14.6358V15.8858C9.97458 15.8853 10.1899 15.8464 10.3976 15.7692L9.96596 14.5958ZM10.8576 14.975L10.6243 14.7408L9.7393 15.6242L9.9743 15.8583L10.8576 14.975ZM5.87513 7.5C5.47096 7.90334 5.1218 8.25084 4.85013 8.56C4.58013 8.86834 4.3493 9.18084 4.2118 9.52334L5.37096 9.99C5.43013 9.8425 5.5518 9.65667 5.79013 9.38417C6.02763 9.11334 6.34263 8.79917 6.75763 8.38417L5.87513 7.5ZM4.2118 9.52334C4.12018 9.74562 4.07318 9.98375 4.07346 10.2242H5.32346C5.32346 10.1492 5.3368 10.0758 5.37096 9.99L4.2118 9.52334ZM4.20263 10.0517L4.3493 10.1983L5.23263 9.315L5.08763 9.16667L4.20263 10.0517Z" fill="#C2FD75"/>
</svg>
