<svg width="1282" height="199" viewBox="0 0 1282 199" fill="none" xmlns="http://www.w3.org/2000/svg">
<mask id="path-1-outside-1_108_1020" maskUnits="userSpaceOnUse" x="0" y="0" width="1282" height="199" fill="black">
<rect fill="white" width="1282" height="199"/>
<path d="M1 196.154V9.70281H36.487L126.793 145.519V9.70281H159.897V196.154H125.204L34.1035 61.1285V196.154H1Z"/>
<path d="M191.097 196.154V57.1727H223.406V196.154H191.097ZM207.252 41.0857C201.072 41.0857 196.129 39.2396 192.421 35.5475C188.714 31.8554 186.86 27.0205 186.86 21.0428C186.86 15.241 188.802 10.494 192.686 6.80186C196.57 2.93395 201.425 1 207.252 1C212.901 1 217.756 2.84605 221.817 6.53814C225.878 10.2303 227.908 15.0651 227.908 21.0428C227.908 27.0205 225.966 31.8554 222.082 35.5475C218.198 39.2396 213.254 41.0857 207.252 41.0857Z"/>
<path d="M310.862 198C296.384 198 284.202 195.099 274.315 189.297C264.428 183.32 256.925 174.968 251.805 164.244C246.685 153.519 244.125 141.124 244.125 127.059C244.125 112.994 246.773 100.599 252.07 89.8742C257.366 78.9737 265.135 70.4467 275.375 64.2932C285.615 58.1397 298.062 55.0629 312.715 55.0629C323.485 55.0629 333.019 56.909 341.317 60.6011C349.791 64.2932 356.589 69.7434 361.709 76.9518C367.005 83.9844 370.36 92.7751 371.772 103.324H339.993C337.874 96.643 334.343 91.8081 329.4 88.8193C324.633 85.6546 318.895 84.0723 312.186 84.0723C303.182 84.0723 296.031 86.27 290.735 90.6653C285.615 94.8849 281.907 100.247 279.612 106.752C277.317 113.257 276.169 120.026 276.169 127.059C276.169 134.443 277.405 141.388 279.877 147.893C282.348 154.222 286.144 159.321 291.264 163.189C296.561 167.057 303.358 168.991 311.656 168.991C318.365 168.991 324.368 167.496 329.664 164.507C335.137 161.519 338.669 156.684 340.257 150.003H373.096C371.86 160.727 368.241 169.694 362.238 176.902C356.412 183.935 348.997 189.209 339.993 192.726C330.989 196.242 321.278 198 310.862 198Z"/>
<path d="M454.556 198C440.078 198 427.72 195.011 417.48 189.033C407.416 183.056 399.736 174.793 394.44 164.244C389.32 153.519 386.76 141.124 386.76 127.059C386.76 112.994 389.408 100.599 394.705 89.8742C400.178 78.9737 407.946 70.4467 418.009 64.2932C428.249 58.1397 440.52 55.0629 454.821 55.0629C465.414 55.0629 474.683 56.9969 482.627 60.8648C490.572 64.5569 497.193 69.6555 502.49 76.1606C507.963 82.6658 512.023 90.05 514.672 98.3133C517.32 106.577 518.556 115.279 518.379 124.422C518.203 126.531 518.026 128.641 517.85 130.751C517.673 132.685 517.408 134.795 517.055 137.08H419.069C419.598 143.234 421.187 148.86 423.836 153.959C426.66 159.057 430.545 163.101 435.488 166.09C440.608 169.079 446.964 170.573 454.556 170.573C458.97 170.573 463.207 170.046 467.267 168.991C471.328 167.76 474.859 166.002 477.861 163.716C481.039 161.431 483.157 158.53 484.216 155.013H516.526C514.23 165.035 509.993 173.21 503.814 179.54C497.634 185.869 490.219 190.528 481.568 193.517C473.094 196.506 464.09 198 454.556 198ZM419.598 113.082H486.865C486.865 107.28 485.541 102.005 482.892 97.2584C480.244 92.5114 476.448 88.8193 471.505 86.1821C466.738 83.369 460.912 81.9625 454.026 81.9625C446.611 81.9625 440.432 83.4569 435.488 86.4458C430.545 89.4346 426.749 93.3025 424.1 98.0495C421.452 102.797 419.951 107.807 419.598 113.082Z"/>
<path d="M524.263 196.154L596.032 9.70281H635.491L706.995 196.154H671.243L658.796 161.606H572.462L559.75 196.154H524.263ZM583.055 131.806H647.938L615.629 42.9317L583.055 131.806Z"/>
<path d="M775.385 198C761.261 198 749.608 194.835 740.428 188.506C731.247 182.001 724.361 173.386 719.771 162.661C715.357 151.937 713.15 139.981 713.15 126.795C713.15 113.082 715.534 100.863 720.301 90.1379C725.068 79.2374 732.218 70.7104 741.752 64.5569C751.286 58.2276 763.203 55.0629 777.504 55.0629C782.8 55.0629 787.92 55.6783 792.864 56.909C797.984 57.9639 802.75 59.722 807.164 62.1834C811.755 64.469 815.551 67.5457 818.552 71.4137V9.70281H850.861V196.154H819.611L819.082 178.748C815.727 183.144 811.755 186.748 807.164 189.561C802.75 192.374 797.807 194.484 792.334 195.89C786.861 197.297 781.211 198 775.385 198ZM781.476 168.991C789.95 168.991 796.924 167.057 802.397 163.189C807.87 159.145 811.931 153.871 814.58 147.365C817.404 140.685 818.817 133.652 818.817 126.268C818.817 118.532 817.404 111.499 814.58 105.17C811.931 98.8407 807.87 93.7421 802.397 89.8742C796.924 86.0062 789.95 84.0723 781.476 84.0723C772.472 84.0723 765.321 86.0942 760.025 90.1379C754.905 94.1816 751.109 99.544 748.637 106.225C746.342 112.73 745.194 119.763 745.194 127.323C745.194 132.949 745.812 138.311 747.048 143.41C748.461 148.332 750.579 152.728 753.404 156.596C756.229 160.464 759.937 163.54 764.527 165.826C769.117 167.936 774.767 168.991 781.476 168.991Z"/>
<path d="M876.858 196.154V57.1727H906.518L908.637 72.996C912.168 68.249 915.964 64.6448 920.025 62.1834C924.262 59.5462 928.587 57.7001 933.001 56.6452C937.592 55.5904 941.917 55.0629 945.978 55.0629C954.805 55.0629 962.309 56.8211 968.488 60.3373C974.844 63.8536 979.788 69.1281 983.319 76.1606C986.85 71.2378 990.822 67.282 995.236 64.2932C999.65 61.1285 1004.33 58.8429 1009.27 57.4364C1014.22 55.8541 1019.42 55.0629 1024.9 55.0629C1035.67 55.0629 1044.32 57.3485 1050.85 61.9197C1057.38 66.315 1062.15 72.4685 1065.15 80.3802C1068.15 88.116 1069.65 96.9947 1069.65 107.016V196.154H1037.34V117.301C1037.34 113.785 1037.17 110.093 1036.81 106.225C1036.46 102.357 1035.49 98.7528 1033.9 95.4123C1032.49 92.0718 1030.37 89.3467 1027.54 87.237C1024.72 85.1272 1020.75 84.0723 1015.63 84.0723C1010.51 84.0723 1006.27 85.2151 1002.92 87.5007C999.738 89.6104 997.09 92.5114 994.971 96.2035C993.029 99.7198 991.617 103.676 990.734 108.071C990.028 112.291 989.674 116.51 989.674 120.73V196.154H957.365V117.037C957.365 113.697 957.101 110.181 956.571 106.489C956.218 102.621 955.335 99.0165 953.923 95.676C952.687 92.1597 950.568 89.3467 947.567 87.237C944.742 85.1272 940.77 84.0723 935.65 84.0723C928.234 84.0723 922.585 86.0942 918.7 90.1379C914.993 94.1816 912.433 99.1044 911.02 104.906C909.785 110.708 909.167 116.246 909.167 121.521V196.154H876.858Z"/>
<path d="M1094.23 196.154V57.1727H1126.54V196.154H1094.23ZM1110.39 41.0857C1104.21 41.0857 1099.27 39.2396 1095.56 35.5475C1091.85 31.8554 1090 27.0205 1090 21.0428C1090 15.241 1091.94 10.494 1095.82 6.80186C1099.71 2.93395 1104.56 1 1110.39 1C1116.04 1 1120.89 2.84605 1124.95 6.53814C1129.01 10.2303 1131.05 15.0651 1131.05 21.0428C1131.05 27.0205 1129.1 31.8554 1125.22 35.5475C1121.33 39.2396 1116.39 41.0857 1110.39 41.0857Z"/>
<path d="M1152.56 196.154V57.1727H1182.75L1184.6 74.842C1188.31 69.9192 1192.64 66.0513 1197.58 63.2383C1202.52 60.4253 1207.73 58.4034 1213.2 57.1727C1218.68 55.7662 1223.8 55.0629 1228.56 55.0629C1241.81 55.0629 1252.22 57.9639 1259.81 63.7657C1267.58 69.5676 1273.06 77.3034 1276.23 86.9732C1279.41 96.643 1281 107.456 1281 119.411V196.154H1248.69V124.685C1248.69 119.587 1248.34 114.664 1247.63 109.917C1246.93 104.994 1245.51 100.599 1243.39 96.7309C1241.45 92.863 1238.63 89.7863 1234.92 87.5007C1231.21 85.2151 1226.27 84.0723 1220.09 84.0723C1212.5 84.0723 1206.05 86.0942 1200.76 90.1379C1195.46 94.1816 1191.49 99.6319 1188.84 106.489C1186.19 113.17 1184.87 120.818 1184.87 129.432V196.154H1152.56Z"/>
</mask>
<path d="M1 196.154V9.70281H36.487L126.793 145.519V9.70281H159.897V196.154H125.204L34.1035 61.1285V196.154H1Z" stroke="url(#paint0_linear_108_1020)" stroke-opacity="0.6" stroke-width="0.8" mask="url(#path-1-outside-1_108_1020)"/>
<path d="M191.097 196.154V57.1727H223.406V196.154H191.097ZM207.252 41.0857C201.072 41.0857 196.129 39.2396 192.421 35.5475C188.714 31.8554 186.86 27.0205 186.86 21.0428C186.86 15.241 188.802 10.494 192.686 6.80186C196.57 2.93395 201.425 1 207.252 1C212.901 1 217.756 2.84605 221.817 6.53814C225.878 10.2303 227.908 15.0651 227.908 21.0428C227.908 27.0205 225.966 31.8554 222.082 35.5475C218.198 39.2396 213.254 41.0857 207.252 41.0857Z" stroke="url(#paint1_linear_108_1020)" stroke-opacity="0.6" stroke-width="0.8" mask="url(#path-1-outside-1_108_1020)"/>
<path d="M310.862 198C296.384 198 284.202 195.099 274.315 189.297C264.428 183.32 256.925 174.968 251.805 164.244C246.685 153.519 244.125 141.124 244.125 127.059C244.125 112.994 246.773 100.599 252.07 89.8742C257.366 78.9737 265.135 70.4467 275.375 64.2932C285.615 58.1397 298.062 55.0629 312.715 55.0629C323.485 55.0629 333.019 56.909 341.317 60.6011C349.791 64.2932 356.589 69.7434 361.709 76.9518C367.005 83.9844 370.36 92.7751 371.772 103.324H339.993C337.874 96.643 334.343 91.8081 329.4 88.8193C324.633 85.6546 318.895 84.0723 312.186 84.0723C303.182 84.0723 296.031 86.27 290.735 90.6653C285.615 94.8849 281.907 100.247 279.612 106.752C277.317 113.257 276.169 120.026 276.169 127.059C276.169 134.443 277.405 141.388 279.877 147.893C282.348 154.222 286.144 159.321 291.264 163.189C296.561 167.057 303.358 168.991 311.656 168.991C318.365 168.991 324.368 167.496 329.664 164.507C335.137 161.519 338.669 156.684 340.257 150.003H373.096C371.86 160.727 368.241 169.694 362.238 176.902C356.412 183.935 348.997 189.209 339.993 192.726C330.989 196.242 321.278 198 310.862 198Z" stroke="url(#paint2_linear_108_1020)" stroke-opacity="0.6" stroke-width="0.8" mask="url(#path-1-outside-1_108_1020)"/>
<path d="M454.556 198C440.078 198 427.72 195.011 417.48 189.033C407.416 183.056 399.736 174.793 394.44 164.244C389.32 153.519 386.76 141.124 386.76 127.059C386.76 112.994 389.408 100.599 394.705 89.8742C400.178 78.9737 407.946 70.4467 418.009 64.2932C428.249 58.1397 440.52 55.0629 454.821 55.0629C465.414 55.0629 474.683 56.9969 482.627 60.8648C490.572 64.5569 497.193 69.6555 502.49 76.1606C507.963 82.6658 512.023 90.05 514.672 98.3133C517.32 106.577 518.556 115.279 518.379 124.422C518.203 126.531 518.026 128.641 517.85 130.751C517.673 132.685 517.408 134.795 517.055 137.08H419.069C419.598 143.234 421.187 148.86 423.836 153.959C426.66 159.057 430.545 163.101 435.488 166.09C440.608 169.079 446.964 170.573 454.556 170.573C458.97 170.573 463.207 170.046 467.267 168.991C471.328 167.76 474.859 166.002 477.861 163.716C481.039 161.431 483.157 158.53 484.216 155.013H516.526C514.23 165.035 509.993 173.21 503.814 179.54C497.634 185.869 490.219 190.528 481.568 193.517C473.094 196.506 464.09 198 454.556 198ZM419.598 113.082H486.865C486.865 107.28 485.541 102.005 482.892 97.2584C480.244 92.5114 476.448 88.8193 471.505 86.1821C466.738 83.369 460.912 81.9625 454.026 81.9625C446.611 81.9625 440.432 83.4569 435.488 86.4458C430.545 89.4346 426.749 93.3025 424.1 98.0495C421.452 102.797 419.951 107.807 419.598 113.082Z" stroke="url(#paint3_linear_108_1020)" stroke-opacity="0.6" stroke-width="0.8" mask="url(#path-1-outside-1_108_1020)"/>
<path d="M524.263 196.154L596.032 9.70281H635.491L706.995 196.154H671.243L658.796 161.606H572.462L559.75 196.154H524.263ZM583.055 131.806H647.938L615.629 42.9317L583.055 131.806Z" stroke="url(#paint4_linear_108_1020)" stroke-opacity="0.6" stroke-width="0.8" mask="url(#path-1-outside-1_108_1020)"/>
<path d="M775.385 198C761.261 198 749.608 194.835 740.428 188.506C731.247 182.001 724.361 173.386 719.771 162.661C715.357 151.937 713.15 139.981 713.15 126.795C713.15 113.082 715.534 100.863 720.301 90.1379C725.068 79.2374 732.218 70.7104 741.752 64.5569C751.286 58.2276 763.203 55.0629 777.504 55.0629C782.8 55.0629 787.92 55.6783 792.864 56.909C797.984 57.9639 802.75 59.722 807.164 62.1834C811.755 64.469 815.551 67.5457 818.552 71.4137V9.70281H850.861V196.154H819.611L819.082 178.748C815.727 183.144 811.755 186.748 807.164 189.561C802.75 192.374 797.807 194.484 792.334 195.89C786.861 197.297 781.211 198 775.385 198ZM781.476 168.991C789.95 168.991 796.924 167.057 802.397 163.189C807.87 159.145 811.931 153.871 814.58 147.365C817.404 140.685 818.817 133.652 818.817 126.268C818.817 118.532 817.404 111.499 814.58 105.17C811.931 98.8407 807.87 93.7421 802.397 89.8742C796.924 86.0062 789.95 84.0723 781.476 84.0723C772.472 84.0723 765.321 86.0942 760.025 90.1379C754.905 94.1816 751.109 99.544 748.637 106.225C746.342 112.73 745.194 119.763 745.194 127.323C745.194 132.949 745.812 138.311 747.048 143.41C748.461 148.332 750.579 152.728 753.404 156.596C756.229 160.464 759.937 163.54 764.527 165.826C769.117 167.936 774.767 168.991 781.476 168.991Z" stroke="url(#paint5_linear_108_1020)" stroke-opacity="0.6" stroke-width="0.8" mask="url(#path-1-outside-1_108_1020)"/>
<path d="M876.858 196.154V57.1727H906.518L908.637 72.996C912.168 68.249 915.964 64.6448 920.025 62.1834C924.262 59.5462 928.587 57.7001 933.001 56.6452C937.592 55.5904 941.917 55.0629 945.978 55.0629C954.805 55.0629 962.309 56.8211 968.488 60.3373C974.844 63.8536 979.788 69.1281 983.319 76.1606C986.85 71.2378 990.822 67.282 995.236 64.2932C999.65 61.1285 1004.33 58.8429 1009.27 57.4364C1014.22 55.8541 1019.42 55.0629 1024.9 55.0629C1035.67 55.0629 1044.32 57.3485 1050.85 61.9197C1057.38 66.315 1062.15 72.4685 1065.15 80.3802C1068.15 88.116 1069.65 96.9947 1069.65 107.016V196.154H1037.34V117.301C1037.34 113.785 1037.17 110.093 1036.81 106.225C1036.46 102.357 1035.49 98.7528 1033.9 95.4123C1032.49 92.0718 1030.37 89.3467 1027.54 87.237C1024.72 85.1272 1020.75 84.0723 1015.63 84.0723C1010.51 84.0723 1006.27 85.2151 1002.92 87.5007C999.738 89.6104 997.09 92.5114 994.971 96.2035C993.029 99.7198 991.617 103.676 990.734 108.071C990.028 112.291 989.674 116.51 989.674 120.73V196.154H957.365V117.037C957.365 113.697 957.101 110.181 956.571 106.489C956.218 102.621 955.335 99.0165 953.923 95.676C952.687 92.1597 950.568 89.3467 947.567 87.237C944.742 85.1272 940.77 84.0723 935.65 84.0723C928.234 84.0723 922.585 86.0942 918.7 90.1379C914.993 94.1816 912.433 99.1044 911.02 104.906C909.785 110.708 909.167 116.246 909.167 121.521V196.154H876.858Z" stroke="url(#paint6_linear_108_1020)" stroke-opacity="0.6" stroke-width="0.8" mask="url(#path-1-outside-1_108_1020)"/>
<path d="M1094.23 196.154V57.1727H1126.54V196.154H1094.23ZM1110.39 41.0857C1104.21 41.0857 1099.27 39.2396 1095.56 35.5475C1091.85 31.8554 1090 27.0205 1090 21.0428C1090 15.241 1091.94 10.494 1095.82 6.80186C1099.71 2.93395 1104.56 1 1110.39 1C1116.04 1 1120.89 2.84605 1124.95 6.53814C1129.01 10.2303 1131.05 15.0651 1131.05 21.0428C1131.05 27.0205 1129.1 31.8554 1125.22 35.5475C1121.33 39.2396 1116.39 41.0857 1110.39 41.0857Z" stroke="url(#paint7_linear_108_1020)" stroke-opacity="0.6" stroke-width="0.8" mask="url(#path-1-outside-1_108_1020)"/>
<path d="M1152.56 196.154V57.1727H1182.75L1184.6 74.842C1188.31 69.9192 1192.64 66.0513 1197.58 63.2383C1202.52 60.4253 1207.73 58.4034 1213.2 57.1727C1218.68 55.7662 1223.8 55.0629 1228.56 55.0629C1241.81 55.0629 1252.22 57.9639 1259.81 63.7657C1267.58 69.5676 1273.06 77.3034 1276.23 86.9732C1279.41 96.643 1281 107.456 1281 119.411V196.154H1248.69V124.685C1248.69 119.587 1248.34 114.664 1247.63 109.917C1246.93 104.994 1245.51 100.599 1243.39 96.7309C1241.45 92.863 1238.63 89.7863 1234.92 87.5007C1231.21 85.2151 1226.27 84.0723 1220.09 84.0723C1212.5 84.0723 1206.05 86.0942 1200.76 90.1379C1195.46 94.1816 1191.49 99.6319 1188.84 106.489C1186.19 113.17 1184.87 120.818 1184.87 129.432V196.154H1152.56Z" stroke="url(#paint8_linear_108_1020)" stroke-opacity="0.6" stroke-width="0.8" mask="url(#path-1-outside-1_108_1020)"/>
<defs>
<linearGradient id="paint0_linear_108_1020" x1="641" y1="0.999994" x2="641" y2="198" gradientUnits="userSpaceOnUse">
<stop stop-color="#F5F5F5"/>
<stop offset="1" stop-color="#F5F5F5" stop-opacity="0.4"/>
</linearGradient>
<linearGradient id="paint1_linear_108_1020" x1="641" y1="0.999994" x2="641" y2="198" gradientUnits="userSpaceOnUse">
<stop stop-color="#F5F5F5"/>
<stop offset="1" stop-color="#F5F5F5" stop-opacity="0.4"/>
</linearGradient>
<linearGradient id="paint2_linear_108_1020" x1="641" y1="0.999994" x2="641" y2="198" gradientUnits="userSpaceOnUse">
<stop stop-color="#F5F5F5"/>
<stop offset="1" stop-color="#F5F5F5" stop-opacity="0.4"/>
</linearGradient>
<linearGradient id="paint3_linear_108_1020" x1="641" y1="0.999994" x2="641" y2="198" gradientUnits="userSpaceOnUse">
<stop stop-color="#F5F5F5"/>
<stop offset="1" stop-color="#F5F5F5" stop-opacity="0.4"/>
</linearGradient>
<linearGradient id="paint4_linear_108_1020" x1="641" y1="0.999994" x2="641" y2="198" gradientUnits="userSpaceOnUse">
<stop stop-color="#F5F5F5"/>
<stop offset="1" stop-color="#F5F5F5" stop-opacity="0.4"/>
</linearGradient>
<linearGradient id="paint5_linear_108_1020" x1="641" y1="0.999994" x2="641" y2="198" gradientUnits="userSpaceOnUse">
<stop stop-color="#F5F5F5"/>
<stop offset="1" stop-color="#F5F5F5" stop-opacity="0.4"/>
</linearGradient>
<linearGradient id="paint6_linear_108_1020" x1="641" y1="0.999994" x2="641" y2="198" gradientUnits="userSpaceOnUse">
<stop stop-color="#F5F5F5"/>
<stop offset="1" stop-color="#F5F5F5" stop-opacity="0.4"/>
</linearGradient>
<linearGradient id="paint7_linear_108_1020" x1="641" y1="0.999994" x2="641" y2="198" gradientUnits="userSpaceOnUse">
<stop stop-color="#F5F5F5"/>
<stop offset="1" stop-color="#F5F5F5" stop-opacity="0.4"/>
</linearGradient>
<linearGradient id="paint8_linear_108_1020" x1="641" y1="0.999994" x2="641" y2="198" gradientUnits="userSpaceOnUse">
<stop stop-color="#F5F5F5"/>
<stop offset="1" stop-color="#F5F5F5" stop-opacity="0.4"/>
</linearGradient>
</defs>
</svg>
