<svg width="32" height="32" viewBox="0 0 32 32" fill="none" xmlns="http://www.w3.org/2000/svg">
<path d="M3.33301 8.66683C3.33301 7.25234 3.89491 5.89579 4.89511 4.8956C5.8953 3.8954 7.25185 3.3335 8.66634 3.3335C10.0808 3.3335 11.4374 3.8954 12.4376 4.8956C13.4378 5.89579 13.9997 7.25234 13.9997 8.66683V12.2228C13.9997 12.6362 13.9997 12.8428 13.9543 13.0122C13.8938 13.2382 13.7747 13.4443 13.6093 13.6098C13.4438 13.7752 13.2377 13.8942 13.0117 13.9548C12.8423 14.0002 12.6357 14.0002 12.2223 14.0002H8.66634C7.25185 14.0002 5.8953 13.4383 4.89511 12.4381C3.89491 11.4379 3.33301 10.0813 3.33301 8.66683ZM17.9997 19.7775C17.9997 19.3642 17.9997 19.1575 18.045 18.9882C18.1056 18.7621 18.2246 18.556 18.3901 18.3906C18.5555 18.2251 18.7616 18.1061 18.9877 18.0455C19.157 18.0002 19.3637 18.0002 19.777 18.0002H23.333C24.3878 18.0002 25.419 18.313 26.296 18.899C27.1731 19.485 27.8567 20.318 28.2604 21.2925C28.664 22.2671 28.7697 23.3394 28.5639 24.374C28.3581 25.4085 27.8501 26.3589 27.1042 27.1047C26.3584 27.8506 25.4081 28.3586 24.3735 28.5644C23.3389 28.7701 22.2666 28.6645 21.292 28.2609C20.3175 27.8572 19.4845 27.1736 18.8985 26.2965C18.3125 25.4195 17.9997 24.3883 17.9997 23.3335V19.7775ZM3.33301 23.3335C3.33301 21.919 3.89491 20.5625 4.89511 19.5623C5.8953 18.5621 7.25185 18.0002 8.66634 18.0002H11.8663C12.613 18.0002 12.9863 18.0002 13.2717 18.1455C13.5225 18.2733 13.7265 18.4773 13.8543 18.7282C13.9997 19.0135 13.9997 19.3868 13.9997 20.1335V23.3335C13.9997 24.748 13.4378 26.1045 12.4376 27.1047C11.4374 28.1049 10.0808 28.6668 8.66634 28.6668C7.25185 28.6668 5.8953 28.1049 4.89511 27.1047C3.89491 26.1045 3.33301 24.748 3.33301 23.3335ZM17.9997 8.66683C17.9997 7.612 18.3125 6.58085 18.8985 5.70379C19.4845 4.82673 20.3175 4.14314 21.292 3.73947C22.2666 3.33581 23.3389 3.23019 24.3735 3.43598C25.4081 3.64176 26.3584 4.14972 27.1042 4.8956C27.8501 5.64148 28.3581 6.59178 28.5639 7.62635C28.7697 8.66092 28.664 9.73327 28.2604 10.7078C27.8567 11.6824 27.1731 12.5153 26.296 13.1013C25.419 13.6874 24.3878 14.0002 23.333 14.0002H19.5237C19.3463 14.0002 19.257 14.0002 19.1837 13.9922C18.8834 13.9584 18.6035 13.8237 18.3898 13.61C18.1762 13.3963 18.0414 13.1164 18.0077 12.8162C17.9997 12.7415 17.9997 12.6535 17.9997 12.4762V8.66683Z" stroke="black" stroke-width="2"/>
</svg>
