<svg width="32" height="32" viewBox="0 0 32 32" fill="none" xmlns="http://www.w3.org/2000/svg">
<path d="M28.0003 9.99984L22.667 12.6665M22.667 12.6665L22.0003 12.9998L16.0003 15.9998M22.667 12.6665V17.3332M22.667 12.6665L10.0003 5.99984M16.0003 15.9998L4.00033 9.99984M16.0003 15.9998V28.6665M20.771 4.50917L23.4377 5.90917C26.3057 7.4145 27.7403 8.1665 28.5377 9.51984C29.3337 10.8718 29.3337 12.5558 29.3337 15.9225V16.0785C29.3337 19.4438 29.3337 21.1278 28.5377 22.4798C27.7403 23.8332 26.3057 24.5865 23.4377 26.0918L20.771 27.4905C18.4297 28.7185 17.259 29.3332 16.0003 29.3332C14.7417 29.3332 13.571 28.7198 11.2297 27.4905L8.56299 26.0905C5.69499 24.5852 4.26033 23.8332 3.46299 22.4798C2.66699 21.1278 2.66699 19.4438 2.66699 16.0798V15.9238C2.66699 12.5572 2.66699 10.8732 3.46299 9.52117C4.26033 8.16784 5.69499 7.4145 8.56299 5.9105L11.2297 4.5105C13.571 3.28117 14.7417 2.6665 16.0003 2.6665C17.259 2.6665 18.4297 3.27984 20.771 4.50917Z" stroke="#030E09" stroke-width="2" stroke-linecap="round"/>
</svg>
