<svg width="32" height="32" viewBox="0 0 32 32" fill="none" xmlns="http://www.w3.org/2000/svg">
<path d="M2.66699 16.0002C2.66699 10.9722 2.66699 8.4575 4.22966 6.89616C5.79233 5.33483 8.30566 5.3335 13.3337 5.3335H18.667C23.695 5.3335 26.2097 5.3335 27.771 6.89616C29.3323 8.45883 29.3337 10.9722 29.3337 16.0002V18.6668C29.3337 23.6948 29.3337 26.2095 27.771 27.7708C26.2083 29.3322 23.695 29.3335 18.667 29.3335H13.3337C8.30566 29.3335 5.79099 29.3335 4.22966 27.7708C2.66833 26.2082 2.66699 23.6948 2.66699 18.6668V16.0002Z" stroke="black" stroke-width="2"/>
<path d="M9.33398 5.3335V3.3335M22.6673 5.3335V3.3335" stroke="black" stroke-width="2" stroke-linecap="round"/>
<path d="M12 19.3335L14 17.3335V22.6668" stroke="black" stroke-width="2" stroke-linecap="round" stroke-linejoin="round"/>
<path d="M3.33398 12H28.6673M17.334 21.3333V18.6667C17.334 18.313 17.4745 17.9739 17.7245 17.7239C17.9746 17.4738 18.3137 17.3333 18.6673 17.3333C19.0209 17.3333 19.3601 17.4738 19.6101 17.7239C19.8602 17.9739 20.0007 18.313 20.0007 18.6667V21.3333C20.0007 21.687 19.8602 22.0261 19.6101 22.2761C19.3601 22.5262 19.0209 22.6667 18.6673 22.6667C18.3137 22.6667 17.9746 22.5262 17.7245 22.2761C17.4745 22.0261 17.334 21.687 17.334 21.3333Z" stroke="black" stroke-width="2" stroke-linecap="round"/>
</svg>
