<svg width="32" height="32" viewBox="0 0 32 32" fill="none" xmlns="http://www.w3.org/2000/svg">
<path d="M29.3337 29.333H2.66699" stroke="black" stroke-width="2" stroke-linecap="round"/>
<path d="M28 29.3332V19.3332C28 18.8027 27.7893 18.294 27.4142 17.919C27.0391 17.5439 26.5304 17.3332 26 17.3332H22C21.4696 17.3332 20.9609 17.5439 20.5858 17.919C20.2107 18.294 20 18.8027 20 19.3332V29.3332V6.6665C20 4.78117 20 3.8385 19.4133 3.25317C18.8293 2.6665 17.8867 2.6665 16 2.6665C14.1133 2.6665 13.172 2.6665 12.5867 3.25317C12 3.83717 12 4.77984 12 6.6665V29.3332V12.6665C12 12.1361 11.7893 11.6274 11.4142 11.2523C11.0391 10.8772 10.5304 10.6665 10 10.6665H6C5.46957 10.6665 4.96086 10.8772 4.58579 11.2523C4.21071 11.6274 4 12.1361 4 12.6665V29.3332" stroke="black" stroke-width="2"/>
</svg>
