<svg width="32" height="32" viewBox="0 0 32 32" fill="none" xmlns="http://www.w3.org/2000/svg">
<path d="M4.90674 17.3333L4.20274 18.0427C4.39002 18.2283 4.64305 18.3325 4.90674 18.3325C5.17044 18.3325 5.42347 18.2283 5.61074 18.0427L4.90674 17.3333ZM7.85074 15.8213C8.03923 15.6343 8.14567 15.38 8.14667 15.1145C8.14767 14.8489 8.04314 14.5938 7.85608 14.4053C7.76345 14.312 7.65335 14.2379 7.53206 14.1871C7.41077 14.1363 7.28067 14.1099 7.14918 14.1094C6.88363 14.1084 6.62856 14.2129 6.44008 14.4L7.85074 15.8213ZM3.37074 14.4C3.1814 14.2185 2.92832 14.1186 2.66604 14.122C2.40376 14.1253 2.15329 14.2315 1.96861 14.4178C1.78393 14.604 1.67982 14.8554 1.67872 15.1177C1.67762 15.38 1.77963 15.6322 1.96274 15.82L3.37074 14.4ZM24.8214 9.85601C24.8884 9.97144 24.9779 10.0723 25.0845 10.1526C25.1911 10.2329 25.3127 10.291 25.4422 10.3236C25.5716 10.3562 25.7063 10.3625 25.8382 10.3422C25.9701 10.3219 26.0967 10.2754 26.2103 10.2054C26.324 10.1355 26.4225 10.0435 26.5001 9.93481C26.5776 9.82618 26.6326 9.70311 26.6619 9.57288C26.6911 9.44264 26.694 9.30787 26.6703 9.17651C26.6467 9.04515 26.5969 8.91985 26.5241 8.80801L24.8214 9.85601ZM16.1054 3.00001C9.37608 3.00001 3.90541 8.41468 3.90541 15.1107H5.90541C5.90541 9.53468 10.4654 5.00001 16.1054 5.00001V3.00001ZM3.90541 15.1107V17.3333H5.90541V15.1107H3.90541ZM5.61208 18.044L7.85074 15.8213L6.44008 14.4L4.20008 16.6227L5.61208 18.044ZM5.61208 16.624L3.37074 14.4L1.96141 15.82L4.20141 18.0413L5.61208 16.624ZM26.5241 8.81068C25.4293 7.03232 23.8968 5.56437 22.073 4.54709C20.2492 3.5298 18.1937 2.99714 16.1054 3.00001V5.00001C17.8524 4.99664 19.5723 5.44142 21.0983 6.29184C22.6243 7.14226 23.9066 8.36988 24.8227 9.85735L26.5241 8.81068ZM27.0854 14.6667L27.7881 13.956C27.6009 13.7712 27.3485 13.6675 27.0854 13.6675C26.8224 13.6675 26.5699 13.7712 26.3827 13.956L27.0854 14.6667ZM24.1334 16.1773C24.04 16.2697 23.9657 16.3796 23.9147 16.5006C23.8638 16.6217 23.8372 16.7517 23.8364 16.883C23.8349 17.1483 23.9389 17.4034 24.1254 17.592C24.3119 17.7807 24.5658 17.8875 24.8311 17.889C25.0964 17.8905 25.3514 17.7865 25.5401 17.6L24.1334 16.1773ZM28.6307 17.6C28.7236 17.6948 28.8344 17.7701 28.9567 17.8216C29.079 17.8732 29.2103 17.8998 29.343 17.9001C29.4757 17.9004 29.6071 17.8742 29.7296 17.8232C29.8521 17.7722 29.9632 17.6973 30.0564 17.6029C30.1497 17.5085 30.2232 17.3965 30.2727 17.2734C30.3222 17.1503 30.3468 17.0185 30.3449 16.8858C30.343 16.7532 30.3147 16.6222 30.2617 16.5006C30.2087 16.3789 30.132 16.269 30.0361 16.1773L28.6307 17.6ZM7.09074 22.1413C6.95142 21.9156 6.7281 21.7544 6.46993 21.6932C6.21175 21.6321 5.93987 21.676 5.71408 21.8153C5.48829 21.9547 5.3271 22.178 5.26596 22.4362C5.20482 22.6943 5.24875 22.9662 5.38808 23.192L7.09074 22.1413ZM15.8441 29C22.5934 29 28.0841 23.5893 28.0841 16.8893H26.0841C26.0841 22.4627 21.5107 27 15.8441 27V29ZM28.0841 16.8893V14.6667H26.0841V16.8893H28.0841ZM26.3827 13.956L24.1334 16.1773L25.5401 17.6L27.7881 15.3773L26.3827 13.956ZM26.3827 15.3773L28.6307 17.6L30.0361 16.1773L27.7881 13.956L26.3827 15.3773ZM5.38674 23.1907C6.48892 24.9709 8.02842 26.4393 9.85867 27.4562C11.6889 28.4731 13.749 29.0045 15.8427 29V27C14.0903 27.0045 12.3659 26.5604 10.8337 25.7099C9.30151 24.8595 8.01383 23.6309 7.09074 22.1413L5.38674 23.1907Z" fill="black"/>
</svg>
