<svg width="32" height="32" viewBox="0 0 32 32" fill="none" xmlns="http://www.w3.org/2000/svg">
<path d="M2.66699 2.6665H29.3337M12.0003 13.9998L13.7243 12.2758C14.1683 11.8318 14.391 11.6092 14.667 11.6092C14.943 11.6092 15.1657 11.8318 15.6097 12.2758L16.391 13.0572C16.835 13.5012 17.0577 13.7238 17.3337 13.7238C17.6097 13.7238 17.8323 13.5012 18.2763 13.0572L20.0003 11.3332M16.0003 27.9998V22.6665M16.0003 27.9998L13.3337 29.3332M16.0003 27.9998L18.667 29.3332" stroke="black" stroke-width="2" stroke-linecap="round"/>
<path d="M26.6673 2.6665V13.9998C26.6673 18.0852 26.6673 20.1278 25.3287 21.3972C23.99 22.6665 21.8353 22.6665 17.5247 22.6665H14.4767C10.1673 22.6665 8.01132 22.6665 6.67265 21.3972C5.33398 20.1278 5.33398 18.0852 5.33398 13.9998V2.6665" stroke="black" stroke-width="2"/>
</svg>
