<svg width="32" height="32" viewBox="0 0 32 32" fill="none" xmlns="http://www.w3.org/2000/svg">
<path d="M5.33301 10.6665C5.33301 6.89584 5.33301 5.00917 6.50501 3.8385C7.67567 2.6665 9.56234 2.6665 13.333 2.6665H18.6663C22.437 2.6665 24.3237 2.6665 25.4943 3.8385C26.6663 5.00917 26.6663 6.89584 26.6663 10.6665V21.3332C26.6663 25.1038 26.6663 26.9905 25.4943 28.1612C24.3237 29.3332 22.437 29.3332 18.6663 29.3332H13.333C9.56234 29.3332 7.67567 29.3332 6.50501 28.1612C5.33301 26.9905 5.33301 25.1038 5.33301 21.3332V10.6665Z" stroke="black" stroke-width="2"/>
<path d="M26.5303 21.333H10.5303C9.29034 21.333 8.67034 21.333 8.16101 21.469C7.48276 21.6509 6.86433 22.0081 6.36791 22.5048C5.87149 23.0014 5.51456 23.62 5.33301 24.2983" stroke="black" stroke-width="2"/>
<path d="M10.666 9.33301H21.3327M10.666 13.9997H17.3327" stroke="black" stroke-width="2" stroke-linecap="round"/>
</svg>
