<svg width="32" height="32" viewBox="0 0 32 32" fill="none" xmlns="http://www.w3.org/2000/svg">
<path d="M4 13.8892C4 9.62517 4 7.49317 4.504 6.77584C5.00667 6.05984 7.01067 5.37317 11.02 4.00117L11.784 3.73984C13.8733 3.02384 14.9173 2.6665 16 2.6665C17.0827 2.6665 18.1267 3.02384 20.216 3.73984L20.98 4.00117C24.9893 5.37317 26.9933 6.05984 27.496 6.77584C28 7.49317 28 9.6265 28 13.8892V15.9878C28 23.5052 22.348 27.1545 18.8013 28.7025C17.84 29.1225 17.36 29.3332 16 29.3332C14.64 29.3332 14.16 29.1225 13.1987 28.7025C9.652 27.1532 4 23.5065 4 15.9878V13.8892Z" stroke="#030E09" stroke-width="2"/>
<path d="M15.9997 18V22M17.9997 17.464C17.5444 17.7381 17.0391 17.9187 16.5132 17.9953C15.9873 18.0719 15.4515 18.043 14.9369 17.9102C14.4223 17.7774 13.9394 17.5434 13.5163 17.2218C13.0932 16.9003 12.7384 16.4977 12.4726 16.0375C12.2069 15.5772 12.0355 15.0687 11.9685 14.5415C11.9014 14.0143 11.9401 13.4791 12.0823 12.967C12.2245 12.455 12.4673 11.9764 12.7965 11.5592C13.1257 11.142 13.5347 10.7946 13.9997 10.5373C14.9169 10.0297 15.9966 9.90249 17.0066 10.1829C18.0166 10.4633 18.8762 11.129 19.4004 12.0368C19.9246 12.9445 20.0716 14.0218 19.8096 15.0367C19.5476 16.0517 18.8977 16.9233 17.9997 17.464Z" stroke="#030E09" stroke-width="2" stroke-linecap="round"/>
</svg>
