<svg width="32" height="32" viewBox="0 0 32 32" fill="none" xmlns="http://www.w3.org/2000/svg">
<path d="M2.66699 14.6667C2.66699 9.63867 2.66699 7.124 4.22966 5.56267C5.79233 4.00133 8.30566 4 13.3337 4H18.667C23.695 4 26.2097 4 27.771 5.56267C29.3323 7.12533 29.3337 9.63867 29.3337 14.6667V17.3333C29.3337 22.3613 29.3337 24.876 27.771 26.4373C26.2083 27.9987 23.695 28 18.667 28H13.3337C8.30566 28 5.79099 28 4.22966 26.4373C2.66833 24.8747 2.66699 22.3613 2.66699 17.3333V14.6667Z" stroke="black" stroke-width="2"/>
<path d="M7.33398 13.3333H15.334M8.66732 18.6667H14.0007M20.0007 28V4" stroke="black" stroke-width="2" stroke-linecap="round"/>
</svg>
