<svg width="32" height="32" viewBox="0 0 32 32" fill="none" xmlns="http://www.w3.org/2000/svg">
<path d="M12 16C12 15.3787 12 15.068 12.1013 14.8227C12.2369 14.4966 12.4964 14.2377 12.8227 14.1027C13.068 14 13.3787 14 14 14H18C18.6213 14 18.932 14 19.1773 14.1013C19.5034 14.2369 19.7623 14.4964 19.8973 14.8227C20 15.068 20 15.3787 20 16C20 16.6213 20 16.932 19.8987 17.1773C19.7631 17.5034 19.5036 17.7623 19.1773 17.8973C18.932 18 18.6213 18 18 18H14C13.3787 18 13.068 18 12.8227 17.8987C12.4966 17.7631 12.2377 17.5036 12.1027 17.1773C12 16.932 12 16.6213 12 16Z" stroke="black" stroke-width="2"/>
<path d="M27.3337 9.3335V17.3335C27.3337 22.3615 27.3337 24.8762 25.771 26.4375C24.2083 27.9988 21.695 28.0002 16.667 28.0002H15.3337C10.3057 28.0002 7.79099 28.0002 6.22966 26.4375C4.66833 24.8748 4.66699 22.3615 4.66699 17.3335V9.3335" stroke="black" stroke-width="2" stroke-linecap="round"/>
<path d="M2.66699 6.66667C2.66699 5.40933 2.66699 4.78133 3.05766 4.39067C3.44833 4 4.07633 4 5.33366 4H26.667C27.9243 4 28.5523 4 28.943 4.39067C29.3337 4.78133 29.3337 5.40933 29.3337 6.66667C29.3337 7.924 29.3337 8.552 28.943 8.94267C28.5523 9.33333 27.9243 9.33333 26.667 9.33333H5.33366C4.07633 9.33333 3.44833 9.33333 3.05766 8.94267C2.66699 8.552 2.66699 7.924 2.66699 6.66667Z" stroke="black" stroke-width="2"/>
</svg>
