<svg width="32" height="32" viewBox="0 0 32 32" fill="none" xmlns="http://www.w3.org/2000/svg">
<path d="M5.12696 10.563C4.76454 10.2072 4.4762 9.78325 4.27858 9.31545C4.08097 8.84766 3.978 8.34535 3.97563 7.83753C3.97326 7.32971 4.07153 6.82646 4.26477 6.35684C4.45801 5.88723 4.74238 5.46055 5.10147 5.10147C5.46055 4.74238 5.88723 4.45801 6.35684 4.26477C6.82646 4.07153 7.32971 3.97326 7.83753 3.97563C8.34535 3.978 8.84766 4.08097 9.31545 4.27858C9.78325 4.4762 10.2072 4.76454 10.563 5.12696L26.875 21.4376C27.5758 22.1628 27.9638 23.1343 27.9552 24.1427C27.9466 25.1512 27.5422 26.1159 26.829 26.829C26.1159 27.5422 25.1512 27.9466 24.1427 27.9552C23.1343 27.9638 22.1628 27.5758 21.4376 26.875L5.12696 10.563Z" stroke="#030E09" stroke-width="2"/>
<path d="M8 13.3333L13.3333 8" stroke="#030E09" stroke-width="2" stroke-linecap="round"/>
<path d="M21.4666 3.07606C21.5137 2.95525 21.5961 2.85148 21.7032 2.77832C21.8102 2.70516 21.9369 2.66602 22.0665 2.66602C22.1962 2.66602 22.3229 2.70516 22.4299 2.77832C22.537 2.85148 22.6194 2.95525 22.6666 3.07606L23.2399 4.53606C23.2717 4.61874 23.3204 4.69391 23.3829 4.7568C23.4453 4.81968 23.5201 4.86892 23.6025 4.90139L25.0572 5.47739C25.1777 5.52538 25.281 5.6084 25.3538 5.71572C25.4265 5.82304 25.4654 5.94972 25.4654 6.07939C25.4654 6.20906 25.4265 6.33575 25.3538 6.44307C25.281 6.55039 25.1777 6.63341 25.0572 6.68139L23.6039 7.25739C23.5221 7.29091 23.4478 7.34035 23.3853 7.40284C23.3228 7.46533 23.2734 7.53962 23.2399 7.62139L22.6666 9.08006C22.6194 9.20086 22.537 9.30464 22.4299 9.3778C22.3229 9.45096 22.1962 9.4901 22.0665 9.4901C21.9369 9.4901 21.8102 9.45096 21.7032 9.3778C21.5961 9.30464 21.5137 9.20086 21.4666 9.08006L20.8932 7.62006C20.8597 7.53829 20.8103 7.464 20.7478 7.40151C20.6853 7.33902 20.611 7.28958 20.5292 7.25606L19.0759 6.68006C18.9554 6.63208 18.8521 6.54906 18.7793 6.44173C18.7066 6.33441 18.6677 6.20773 18.6677 6.07806C18.6677 5.94839 18.7066 5.8217 18.7793 5.71438C18.8521 5.60706 18.9554 5.52404 19.0759 5.47606L20.5292 4.90006C20.6111 4.86639 20.6855 4.81674 20.748 4.75401C20.8105 4.69129 20.8598 4.61674 20.8932 4.53473L21.4666 3.07606ZM26.6225 12.1734C26.6697 12.0526 26.7521 11.9488 26.8592 11.8757C26.9662 11.8025 27.0929 11.7633 27.2226 11.7633C27.3522 11.7633 27.4789 11.8025 27.5859 11.8757C27.693 11.9488 27.7754 12.0526 27.8226 12.1734L28.0306 12.7054C28.0972 12.8721 28.2279 13.0041 28.3945 13.0694L28.9252 13.2801C29.0453 13.3283 29.1481 13.4113 29.2206 13.5185C29.293 13.6256 29.3318 13.752 29.3318 13.8814C29.3318 14.0108 29.293 14.1372 29.2206 14.2443C29.1481 14.3515 29.0453 14.4345 28.9252 14.4827L28.3945 14.6934C28.3128 14.7269 28.2385 14.7764 28.176 14.8388C28.1135 14.9013 28.0641 14.9756 28.0306 15.0574L27.8226 15.5907C27.7754 15.7115 27.693 15.8153 27.5859 15.8885C27.4789 15.9616 27.3522 16.0008 27.2226 16.0008C27.0929 16.0008 26.9662 15.9616 26.8592 15.8885C26.7521 15.8153 26.6697 15.7115 26.6225 15.5907L26.4132 15.0574C26.3799 14.9757 26.3306 14.9015 26.2684 14.839C26.2061 14.7766 26.1321 14.7271 26.0506 14.6934L25.5199 14.4827C25.3998 14.4345 25.297 14.3515 25.2245 14.2443C25.1521 14.1372 25.1133 14.0108 25.1133 13.8814C25.1133 13.752 25.1521 13.6256 25.2245 13.5185C25.297 13.4113 25.3998 13.3283 25.5199 13.2801L26.0506 13.0694C26.1321 13.0357 26.2061 12.9862 26.2684 12.9237C26.3306 12.8613 26.3799 12.787 26.4132 12.7054L26.6225 12.1734ZM6.84388 20.4094C6.89099 20.2886 6.97346 20.1848 7.08052 20.1117C7.18757 20.0385 7.31422 19.9993 7.44388 19.9993C7.57355 19.9993 7.70019 20.0385 7.80725 20.1117C7.9143 20.1848 7.99678 20.2886 8.04388 20.4094L8.25322 20.9427C8.28524 21.0252 8.334 21.1001 8.39642 21.1627C8.45884 21.2254 8.53356 21.2744 8.61588 21.3067L9.14655 21.5161C9.26701 21.564 9.37031 21.6471 9.44308 21.7544C9.51586 21.8617 9.55476 21.9884 9.55476 22.1181C9.55476 22.2477 9.51586 22.3744 9.44308 22.4817C9.37031 22.5891 9.26701 22.6721 9.14655 22.7201L8.61588 22.9307C8.53356 22.963 8.45884 23.0121 8.39642 23.0747C8.334 23.1374 8.28524 23.2123 8.25322 23.2947L8.04388 23.8281C7.99678 23.9489 7.9143 24.0526 7.80725 24.1258C7.70019 24.199 7.57355 24.2381 7.44388 24.2381C7.31422 24.2381 7.18757 24.199 7.08052 24.1258C6.97346 24.0526 6.89099 23.9489 6.84388 23.8281L6.63455 23.2947C6.60253 23.2123 6.55377 23.1374 6.49135 23.0747C6.42893 23.0121 6.3542 22.963 6.27188 22.9307L5.74122 22.7201C5.62075 22.6721 5.51746 22.5891 5.44468 22.4817C5.37191 22.3744 5.33301 22.2477 5.33301 22.1181C5.33301 21.9884 5.37191 21.8617 5.44468 21.7544C5.51746 21.6471 5.62075 21.564 5.74122 21.5161L6.27188 21.3067C6.35433 21.2743 6.42914 21.225 6.49157 21.1621C6.554 21.0992 6.60268 21.0241 6.63455 20.9414L6.84388 20.4094Z" stroke="#030E09" stroke-width="1.33333"/>
</svg>
