<svg width="372" height="385" viewBox="0 0 372 385" fill="none" xmlns="http://www.w3.org/2000/svg">
<rect width="372" height="385" rx="16" fill="white"/>
<rect x="0.5" y="0.5" width="371" height="384" rx="15.5" stroke="#030E09" stroke-opacity="0.05"/>
<path d="M30.768 42.144C29.448 42.144 28.338 41.874 27.438 41.334C26.538 40.782 25.86 40.02 25.404 39.048C24.948 38.076 24.72 36.948 24.72 35.664C24.72 34.38 24.954 33.246 25.422 32.262C25.89 31.278 26.574 30.51 27.474 29.958C28.374 29.394 29.472 29.112 30.768 29.112C31.728 29.112 32.574 29.274 33.306 29.598C34.038 29.922 34.632 30.384 35.088 30.984C35.556 31.572 35.856 32.298 35.988 33.162H33.81C33.642 32.55 33.3 32.07 32.784 31.722C32.268 31.374 31.596 31.2 30.768 31.2C29.868 31.2 29.142 31.41 28.59 31.83C28.038 32.25 27.636 32.79 27.384 33.45C27.144 34.11 27.024 34.818 27.024 35.574C27.024 36.354 27.15 37.086 27.402 37.77C27.666 38.454 28.08 39.006 28.644 39.426C29.208 39.846 29.934 40.056 30.822 40.056C31.374 40.056 31.854 39.978 32.262 39.822C32.682 39.666 33.03 39.444 33.306 39.156C33.594 38.856 33.792 38.508 33.9 38.112H36.186C36.042 38.964 35.718 39.69 35.214 40.29C34.722 40.89 34.092 41.352 33.324 41.676C32.568 41.988 31.716 42.144 30.768 42.144ZM42.0889 42.126C40.7209 42.126 39.6709 41.772 38.9389 41.064C38.2189 40.356 37.8589 39.276 37.8589 37.824V32.514H40.0549V37.68C40.0549 38.184 40.1209 38.622 40.2529 38.994C40.3969 39.366 40.6189 39.654 40.9189 39.858C41.2309 40.05 41.6209 40.146 42.0889 40.146C42.5929 40.146 42.9889 40.044 43.2769 39.84C43.5769 39.624 43.7869 39.33 43.9069 38.958C44.0269 38.586 44.0869 38.16 44.0869 37.68V32.514H46.2829V37.824C46.2829 39.312 45.9109 40.404 45.1669 41.1C44.4349 41.784 43.4089 42.126 42.0889 42.126ZM48.4074 42V32.514H50.4054L50.5314 33.756C50.7714 33.396 51.0414 33.12 51.3414 32.928C51.6534 32.724 51.9834 32.58 52.3314 32.496C52.6914 32.412 53.0514 32.37 53.4114 32.37C53.5434 32.37 53.6634 32.37 53.7714 32.37C53.8914 32.37 53.9874 32.376 54.0594 32.388V34.476H53.4834C52.8594 34.476 52.3314 34.596 51.8994 34.836C51.4674 35.076 51.1434 35.418 50.9274 35.862C50.7114 36.306 50.6034 36.852 50.6034 37.5V42H48.4074ZM55.3868 42V32.514H57.3848L57.5108 33.756C57.7508 33.396 58.0208 33.12 58.3208 32.928C58.6328 32.724 58.9628 32.58 59.3108 32.496C59.6708 32.412 60.0308 32.37 60.3908 32.37C60.5228 32.37 60.6428 32.37 60.7508 32.37C60.8708 32.37 60.9668 32.376 61.0388 32.388V34.476H60.4628C59.8388 34.476 59.3108 34.596 58.8788 34.836C58.4468 35.076 58.1228 35.418 57.9068 35.862C57.6908 36.306 57.5828 36.852 57.5828 37.5V42H55.3868ZM66.4384 42.126C65.4544 42.126 64.6144 41.922 63.9184 41.514C63.2344 41.106 62.7124 40.542 62.3524 39.822C62.0044 39.09 61.8304 38.244 61.8304 37.284C61.8304 36.324 62.0104 35.478 62.3704 34.746C62.7424 34.002 63.2704 33.42 63.9544 33C64.6504 32.58 65.4844 32.37 66.4564 32.37C67.1764 32.37 67.8064 32.502 68.3464 32.766C68.8864 33.018 69.3364 33.366 69.6964 33.81C70.0684 34.254 70.3444 34.758 70.5244 35.322C70.7044 35.886 70.7884 36.48 70.7764 37.104C70.7644 37.248 70.7524 37.392 70.7404 37.536C70.7284 37.668 70.7104 37.812 70.6864 37.968H64.0264C64.0624 38.388 64.1704 38.772 64.3504 39.12C64.5424 39.468 64.8064 39.744 65.1424 39.948C65.4904 40.152 65.9224 40.254 66.4384 40.254C66.7384 40.254 67.0264 40.218 67.3024 40.146C67.5784 40.062 67.8184 39.942 68.0224 39.786C68.2384 39.63 68.3824 39.432 68.4544 39.192H70.6504C70.4944 39.876 70.2064 40.434 69.7864 40.866C69.3664 41.298 68.8624 41.616 68.2744 41.82C67.6984 42.024 67.0864 42.126 66.4384 42.126ZM64.0624 36.33H68.6344C68.6344 35.934 68.5444 35.574 68.3644 35.25C68.1844 34.926 67.9264 34.674 67.5904 34.494C67.2664 34.302 66.8704 34.206 66.4024 34.206C65.8984 34.206 65.4784 34.308 65.1424 34.512C64.8064 34.716 64.5484 34.98 64.3684 35.304C64.1884 35.628 64.0864 35.97 64.0624 36.33ZM72.5623 42V32.514H74.6143L74.7403 33.72C74.9923 33.384 75.2863 33.12 75.6223 32.928C75.9583 32.736 76.3123 32.598 76.6843 32.514C77.0563 32.418 77.4043 32.37 77.7283 32.37C78.6283 32.37 79.3363 32.568 79.8523 32.964C80.3803 33.36 80.7523 33.888 80.9683 34.548C81.1843 35.208 81.2923 35.946 81.2923 36.762V42H79.0963V37.122C79.0963 36.774 79.0723 36.438 79.0243 36.114C78.9763 35.778 78.8803 35.478 78.7363 35.214C78.6043 34.95 78.4123 34.74 78.1603 34.584C77.9083 34.428 77.5723 34.35 77.1523 34.35C76.6363 34.35 76.1983 34.488 75.8383 34.764C75.4783 35.04 75.2083 35.412 75.0283 35.88C74.8483 36.336 74.7583 36.858 74.7583 37.446V42H72.5623ZM87.1713 42.108C86.1273 42.108 85.3653 41.82 84.8853 41.244C84.4053 40.668 84.1653 39.87 84.1653 38.85V34.458H82.7073V32.514H84.1653V29.85H86.3613V32.514H89.2413V34.458H86.3613V38.436C86.3613 38.748 86.3973 39.03 86.4693 39.282C86.5413 39.534 86.6733 39.732 86.8653 39.876C87.0573 40.02 87.3213 40.098 87.6573 40.11C87.9453 40.11 88.1913 40.062 88.3953 39.966C88.5993 39.87 88.7673 39.762 88.8993 39.642L89.6373 41.316C89.4093 41.508 89.1513 41.664 88.8633 41.784C88.5873 41.904 88.3053 41.988 88.0173 42.036C87.7293 42.084 87.4473 42.108 87.1713 42.108ZM98.2472 42L93.5492 29.274H95.9972L99.7772 40.092L103.503 29.274H105.933L101.271 42H98.2472ZM107.177 42V32.514H109.373V42H107.177ZM108.275 31.416C107.855 31.416 107.519 31.29 107.267 31.038C107.015 30.786 106.889 30.456 106.889 30.048C106.889 29.652 107.021 29.328 107.285 29.076C107.549 28.812 107.879 28.68 108.275 28.68C108.659 28.68 108.989 28.806 109.265 29.058C109.541 29.31 109.679 29.64 109.679 30.048C109.679 30.456 109.547 30.786 109.283 31.038C109.019 31.29 108.683 31.416 108.275 31.416ZM115.173 42.126C114.717 42.126 114.261 42.078 113.805 41.982C113.361 41.886 112.941 41.73 112.545 41.514C112.149 41.286 111.819 40.98 111.555 40.596C111.291 40.212 111.117 39.732 111.033 39.156H113.247C113.343 39.42 113.493 39.636 113.697 39.804C113.913 39.96 114.159 40.08 114.435 40.164C114.723 40.236 115.005 40.272 115.281 40.272C115.449 40.272 115.629 40.26 115.821 40.236C116.025 40.212 116.211 40.164 116.379 40.092C116.559 40.02 116.703 39.918 116.811 39.786C116.919 39.642 116.973 39.456 116.973 39.228C116.973 39.012 116.913 38.844 116.793 38.724C116.673 38.592 116.511 38.49 116.307 38.418C116.103 38.334 115.857 38.268 115.569 38.22C115.053 38.112 114.501 37.998 113.913 37.878C113.325 37.746 112.815 37.542 112.383 37.266C112.203 37.158 112.047 37.032 111.915 36.888C111.783 36.744 111.669 36.588 111.573 36.42C111.489 36.24 111.423 36.048 111.375 35.844C111.339 35.64 111.321 35.418 111.321 35.178C111.321 34.674 111.423 34.248 111.627 33.9C111.843 33.54 112.125 33.252 112.473 33.036C112.833 32.808 113.241 32.64 113.697 32.532C114.153 32.424 114.621 32.37 115.101 32.37C115.749 32.37 116.337 32.472 116.865 32.676C117.393 32.88 117.831 33.192 118.179 33.612C118.539 34.032 118.755 34.566 118.827 35.214H116.739C116.679 34.914 116.493 34.674 116.181 34.494C115.881 34.314 115.497 34.224 115.029 34.224C114.861 34.224 114.687 34.242 114.507 34.278C114.327 34.302 114.153 34.35 113.985 34.422C113.829 34.482 113.697 34.578 113.589 34.71C113.493 34.842 113.445 35.004 113.445 35.196C113.445 35.376 113.487 35.532 113.571 35.664C113.667 35.796 113.805 35.91 113.985 36.006C114.177 36.09 114.399 36.162 114.651 36.222C115.059 36.306 115.485 36.39 115.929 36.474C116.373 36.558 116.757 36.642 117.081 36.726C117.465 36.834 117.813 36.99 118.125 37.194C118.437 37.386 118.677 37.644 118.845 37.968C119.025 38.28 119.115 38.682 119.115 39.174C119.115 39.75 118.995 40.23 118.755 40.614C118.527 40.998 118.221 41.298 117.837 41.514C117.453 41.73 117.027 41.886 116.559 41.982C116.091 42.078 115.629 42.126 115.173 42.126ZM120.767 42V32.514H122.963V42H120.767ZM121.865 31.416C121.445 31.416 121.109 31.29 120.857 31.038C120.605 30.786 120.479 30.456 120.479 30.048C120.479 29.652 120.611 29.328 120.875 29.076C121.139 28.812 121.469 28.68 121.865 28.68C122.249 28.68 122.579 28.806 122.855 29.058C123.131 29.31 123.269 29.64 123.269 30.048C123.269 30.456 123.137 30.786 122.873 31.038C122.609 31.29 122.273 31.416 121.865 31.416ZM128.907 42.108C127.863 42.108 127.101 41.82 126.621 41.244C126.141 40.668 125.901 39.87 125.901 38.85V34.458H124.443V32.514H125.901V29.85H128.097V32.514H130.977V34.458H128.097V38.436C128.097 38.748 128.133 39.03 128.205 39.282C128.277 39.534 128.409 39.732 128.601 39.876C128.793 40.02 129.057 40.098 129.393 40.11C129.681 40.11 129.927 40.062 130.131 39.966C130.335 39.87 130.503 39.762 130.635 39.642L131.373 41.316C131.145 41.508 130.887 41.664 130.599 41.784C130.323 41.904 130.041 41.988 129.753 42.036C129.465 42.084 129.183 42.108 128.907 42.108ZM136.234 42.126C135.778 42.126 135.322 42.078 134.866 41.982C134.422 41.886 134.002 41.73 133.606 41.514C133.21 41.286 132.88 40.98 132.616 40.596C132.352 40.212 132.178 39.732 132.094 39.156H134.308C134.404 39.42 134.554 39.636 134.758 39.804C134.974 39.96 135.22 40.08 135.496 40.164C135.784 40.236 136.066 40.272 136.342 40.272C136.51 40.272 136.69 40.26 136.882 40.236C137.086 40.212 137.272 40.164 137.44 40.092C137.62 40.02 137.764 39.918 137.872 39.786C137.98 39.642 138.034 39.456 138.034 39.228C138.034 39.012 137.974 38.844 137.854 38.724C137.734 38.592 137.572 38.49 137.368 38.418C137.164 38.334 136.918 38.268 136.63 38.22C136.114 38.112 135.562 37.998 134.974 37.878C134.386 37.746 133.876 37.542 133.444 37.266C133.264 37.158 133.108 37.032 132.976 36.888C132.844 36.744 132.73 36.588 132.634 36.42C132.55 36.24 132.484 36.048 132.436 35.844C132.4 35.64 132.382 35.418 132.382 35.178C132.382 34.674 132.484 34.248 132.688 33.9C132.904 33.54 133.186 33.252 133.534 33.036C133.894 32.808 134.302 32.64 134.758 32.532C135.214 32.424 135.682 32.37 136.162 32.37C136.81 32.37 137.398 32.472 137.926 32.676C138.454 32.88 138.892 33.192 139.24 33.612C139.6 34.032 139.816 34.566 139.888 35.214H137.8C137.74 34.914 137.554 34.674 137.242 34.494C136.942 34.314 136.558 34.224 136.09 34.224C135.922 34.224 135.748 34.242 135.568 34.278C135.388 34.302 135.214 34.35 135.046 34.422C134.89 34.482 134.758 34.578 134.65 34.71C134.554 34.842 134.506 35.004 134.506 35.196C134.506 35.376 134.548 35.532 134.632 35.664C134.728 35.796 134.866 35.91 135.046 36.006C135.238 36.09 135.46 36.162 135.712 36.222C136.12 36.306 136.546 36.39 136.99 36.474C137.434 36.558 137.818 36.642 138.142 36.726C138.526 36.834 138.874 36.99 139.186 37.194C139.498 37.386 139.738 37.644 139.906 37.968C140.086 38.28 140.176 38.682 140.176 39.174C140.176 39.75 140.056 40.23 139.816 40.614C139.588 40.998 139.282 41.298 138.898 41.514C138.514 41.73 138.088 41.886 137.62 41.982C137.152 42.078 136.69 42.126 136.234 42.126Z" fill="#030E09"/>
<path d="M186 75.8125C186 74.2592 187.26 72.9954 188.812 73.0439C202.152 73.4609 215.245 76.8403 227.136 82.9511C239.862 89.4909 250.846 98.9706 259.175 110.604C267.505 122.237 272.942 135.689 275.033 149.843C277.125 163.998 275.812 178.447 271.202 191.992C266.593 205.538 258.821 217.789 248.53 227.73C238.24 237.671 225.727 245.015 212.031 249.153C198.334 253.292 183.848 254.105 169.774 251.525C156.624 249.115 144.187 243.807 133.362 236.001C132.102 235.093 131.874 233.323 132.822 232.092L142.961 218.919C143.908 217.688 145.671 217.464 146.94 218.359C154.956 224.015 164.114 227.869 173.785 229.642C184.38 231.584 195.285 230.972 205.596 227.856C215.907 224.741 225.326 219.212 233.073 211.729C240.82 204.245 246.671 195.022 250.14 184.825C253.61 174.628 254.599 163.751 253.024 153.096C251.45 142.44 247.357 132.314 241.087 123.556C234.816 114.799 226.547 107.662 216.967 102.739C208.222 98.2451 198.613 95.7135 188.812 95.3064C187.26 95.2419 186 93.9888 186 92.4355L186 75.8125Z" fill="#053B25"/>
<path d="M129.752 229.617C128.75 230.804 126.972 230.957 125.817 229.918C114.274 219.537 105.599 206.333 100.659 191.581C95.7184 176.83 94.6911 161.065 97.654 145.825C97.9504 144.3 99.4618 143.352 100.976 143.695L117.187 147.376C118.702 147.72 119.645 149.226 119.364 150.754C117.295 162.014 118.11 173.631 121.755 184.516C125.401 195.401 131.747 205.166 140.18 212.909C141.324 213.959 141.478 215.729 140.476 216.916L129.752 229.617Z" fill="#F6B51E"/>
<path d="M101.719 140.675C100.218 140.277 99.3186 138.736 99.763 137.248C104.929 119.949 115.186 104.58 129.228 93.1647C143.27 81.7493 160.41 74.8461 178.399 73.3215C179.947 73.1904 181.272 74.3852 181.355 75.9363L182.24 92.5357C182.323 94.0868 181.132 95.4053 179.585 95.5523C166.296 96.816 153.653 101.981 143.262 110.428C132.872 118.875 125.234 130.197 121.283 142.949C120.823 144.432 119.289 145.329 117.788 144.932L101.719 140.675Z" fill="#C2FD75"/>
<path d="M172.019 149.156V139.108H168.387V137.844H177.043V139.108H173.411V149.156H172.019ZM181.259 149.252C180.374 149.252 179.632 149.071 179.035 148.708C178.438 148.335 177.99 147.823 177.691 147.172C177.403 146.522 177.259 145.78 177.259 144.948C177.259 144.106 177.408 143.364 177.707 142.724C178.006 142.074 178.454 141.562 179.051 141.188C179.648 140.815 180.395 140.628 181.291 140.628C182.176 140.628 182.912 140.815 183.499 141.188C184.096 141.562 184.539 142.074 184.827 142.724C185.126 143.364 185.275 144.106 185.275 144.948C185.275 145.78 185.126 146.522 184.827 147.172C184.528 147.823 184.08 148.335 183.483 148.708C182.896 149.071 182.155 149.252 181.259 149.252ZM181.259 148.052C181.878 148.052 182.379 147.914 182.763 147.636C183.158 147.359 183.446 146.986 183.627 146.516C183.819 146.047 183.915 145.524 183.915 144.948C183.915 144.372 183.819 143.85 183.627 143.38C183.446 142.911 183.158 142.538 182.763 142.26C182.379 141.983 181.878 141.844 181.259 141.844C180.651 141.844 180.15 141.983 179.755 142.26C179.371 142.538 179.083 142.911 178.891 143.38C178.71 143.85 178.619 144.372 178.619 144.948C178.619 145.524 178.71 146.047 178.891 146.516C179.083 146.986 179.371 147.359 179.755 147.636C180.15 147.914 180.651 148.052 181.259 148.052ZM190.295 149.252C189.409 149.252 188.785 149.012 188.423 148.532C188.071 148.052 187.895 147.37 187.895 146.484V141.924H186.519V140.724H187.895V138.196H189.255V140.724H191.847V141.924H189.255V146.308C189.255 146.628 189.281 146.922 189.335 147.188C189.388 147.444 189.5 147.652 189.671 147.812C189.841 147.962 190.097 148.042 190.439 148.052C190.684 148.052 190.897 148.01 191.079 147.924C191.271 147.839 191.431 147.738 191.559 147.62L192.151 148.612C191.969 148.762 191.777 148.884 191.575 148.98C191.383 149.076 191.18 149.146 190.967 149.188C190.764 149.231 190.54 149.252 190.295 149.252ZM196.206 149.252C195.822 149.252 195.449 149.204 195.086 149.108C194.734 149.002 194.414 148.847 194.126 148.644C193.849 148.431 193.625 148.17 193.454 147.86C193.294 147.54 193.214 147.172 193.214 146.756C193.214 146.276 193.3 145.871 193.47 145.54C193.652 145.21 193.892 144.948 194.19 144.756C194.489 144.564 194.836 144.426 195.23 144.34C195.625 144.255 196.036 144.212 196.462 144.212H198.942C198.942 143.732 198.873 143.316 198.734 142.964C198.606 142.612 198.393 142.34 198.094 142.148C197.796 141.946 197.401 141.844 196.91 141.844C196.612 141.844 196.334 141.876 196.078 141.94C195.822 142.004 195.604 142.106 195.422 142.244C195.241 142.383 195.108 142.57 195.022 142.804H193.566C193.641 142.42 193.785 142.095 193.998 141.828C194.222 141.551 194.489 141.327 194.798 141.156C195.118 140.975 195.46 140.842 195.822 140.756C196.185 140.671 196.548 140.628 196.91 140.628C198.126 140.628 198.99 140.986 199.502 141.7C200.014 142.415 200.27 143.38 200.27 144.596V149.156H199.134L199.054 148.084C198.82 148.404 198.537 148.65 198.206 148.82C197.876 148.991 197.534 149.103 197.182 149.156C196.841 149.22 196.516 149.252 196.206 149.252ZM196.334 148.052C196.868 148.052 197.326 147.967 197.71 147.796C198.105 147.615 198.409 147.354 198.622 147.012C198.836 146.671 198.942 146.255 198.942 145.764V145.348H197.454C197.102 145.348 196.756 145.354 196.414 145.364C196.073 145.375 195.764 145.418 195.486 145.492C195.209 145.567 194.985 145.695 194.814 145.876C194.654 146.058 194.574 146.319 194.574 146.66C194.574 146.98 194.654 147.242 194.814 147.444C194.985 147.647 195.204 147.802 195.47 147.908C195.748 148.004 196.036 148.052 196.334 148.052ZM202.409 149.156V137.844H203.769V149.156H202.409Z" fill="#030E09" fill-opacity="0.6"/>
<path d="M150.172 185.156V182.272L155.688 177.624C156.136 177.251 156.631 176.84 157.172 176.392C157.713 175.944 158.227 175.459 158.712 174.936C159.216 174.395 159.636 173.835 159.972 173.256C160.308 172.678 160.476 172.071 160.476 171.436C160.476 170.484 160.187 169.738 159.608 169.196C159.048 168.655 158.245 168.384 157.2 168.384C156.285 168.384 155.539 168.58 154.96 168.972C154.381 169.364 154.017 169.896 153.868 170.568H150.424C150.555 169.318 150.956 168.3 151.628 167.516C152.319 166.714 153.168 166.116 154.176 165.724C155.184 165.314 156.239 165.108 157.34 165.108C158.591 165.108 159.711 165.342 160.7 165.808C161.689 166.256 162.473 166.928 163.052 167.824C163.649 168.702 163.948 169.775 163.948 171.044C163.948 172.183 163.724 173.21 163.276 174.124C162.847 175.039 162.259 175.879 161.512 176.644C160.784 177.391 159.981 178.128 159.104 178.856L155.324 181.964H164.004V185.156H150.172ZM168.239 189.16L167.259 187.676C167.539 187.527 167.828 187.312 168.127 187.032C168.425 186.771 168.696 186.472 168.939 186.136C169.2 185.819 169.377 185.53 169.471 185.268C168.929 185.212 168.463 185.016 168.071 184.68C167.697 184.326 167.511 183.831 167.511 183.196C167.511 182.543 167.735 182.03 168.183 181.656C168.631 181.283 169.135 181.096 169.695 181.096C170.404 181.096 170.964 181.367 171.375 181.908C171.785 182.431 171.991 183.122 171.991 183.98C171.991 184.746 171.804 185.483 171.431 186.192C171.076 186.902 170.609 187.518 170.031 188.04C169.471 188.563 168.873 188.936 168.239 189.16ZM175.913 185.156L183.641 168.58H173.841V165.36H187.561V167.992L179.805 185.156H175.913ZM196.599 185.38C195.722 185.38 194.891 185.278 194.107 185.072C193.323 184.848 192.614 184.512 191.979 184.064C191.345 183.616 190.813 183.047 190.383 182.356C189.973 181.647 189.693 180.816 189.543 179.864H192.987C193.137 180.275 193.379 180.658 193.715 181.012C194.07 181.367 194.49 181.647 194.975 181.852C195.479 182.058 196.021 182.16 196.599 182.16C197.383 182.16 198.055 182.03 198.615 181.768C199.175 181.488 199.614 181.096 199.931 180.592C200.249 180.07 200.407 179.444 200.407 178.716C200.407 177.634 200.071 176.784 199.399 176.168C198.746 175.552 197.85 175.244 196.711 175.244C196.039 175.244 195.414 175.366 194.835 175.608C194.257 175.832 193.715 176.15 193.211 176.56H190.103L190.635 165.36H203.263V168.552H193.855L193.519 173.284C194.079 172.892 194.723 172.603 195.451 172.416C196.179 172.211 196.973 172.118 197.831 172.136C199.101 172.155 200.193 172.435 201.107 172.976C202.041 173.499 202.75 174.227 203.235 175.16C203.721 176.094 203.963 177.195 203.963 178.464C203.963 179.939 203.637 181.19 202.983 182.216C202.349 183.243 201.471 184.027 200.351 184.568C199.25 185.11 197.999 185.38 196.599 185.38ZM214.022 185.38C213.107 185.38 212.211 185.278 211.334 185.072C210.457 184.867 209.673 184.531 208.982 184.064C208.291 183.579 207.731 182.963 207.302 182.216C206.891 181.451 206.686 180.518 206.686 179.416C206.686 178.688 206.798 178.026 207.022 177.428C207.265 176.812 207.61 176.28 208.058 175.832C208.506 175.384 209.029 175.02 209.626 174.74C209.047 174.404 208.581 174.003 208.226 173.536C207.89 173.07 207.657 172.566 207.526 172.024C207.395 171.483 207.33 170.951 207.33 170.428C207.33 169.476 207.517 168.664 207.89 167.992C208.263 167.32 208.777 166.77 209.43 166.34C210.083 165.911 210.802 165.603 211.586 165.416C212.389 165.211 213.21 165.108 214.05 165.108C214.89 165.108 215.711 165.211 216.514 165.416C217.317 165.603 218.035 165.92 218.67 166.368C219.323 166.798 219.837 167.358 220.21 168.048C220.583 168.72 220.77 169.551 220.77 170.54C220.77 171.026 220.695 171.53 220.546 172.052C220.397 172.575 220.145 173.07 219.79 173.536C219.454 173.984 218.997 174.367 218.418 174.684C219.053 174.964 219.594 175.338 220.042 175.804C220.49 176.252 220.826 176.784 221.05 177.4C221.293 177.998 221.414 178.679 221.414 179.444C221.414 180.527 221.199 181.451 220.77 182.216C220.359 182.982 219.799 183.598 219.09 184.064C218.381 184.512 217.587 184.848 216.71 185.072C215.833 185.278 214.937 185.38 214.022 185.38ZM214.022 182.244C214.47 182.244 214.909 182.198 215.338 182.104C215.786 182.011 216.197 181.852 216.57 181.628C216.962 181.404 217.279 181.106 217.522 180.732C217.765 180.34 217.886 179.864 217.886 179.304C217.886 178.632 217.709 178.082 217.354 177.652C216.999 177.223 216.533 176.906 215.954 176.7C215.375 176.495 214.741 176.392 214.05 176.392C213.359 176.392 212.715 176.495 212.118 176.7C211.539 176.906 211.073 177.223 210.718 177.652C210.363 178.082 210.186 178.632 210.186 179.304C210.186 179.864 210.298 180.34 210.522 180.732C210.765 181.106 211.082 181.404 211.474 181.628C211.866 181.852 212.277 182.011 212.706 182.104C213.154 182.198 213.593 182.244 214.022 182.244ZM214.05 173.648C214.685 173.648 215.235 173.546 215.702 173.34C216.187 173.116 216.57 172.808 216.85 172.416C217.149 172.024 217.298 171.548 217.298 170.988C217.317 170.354 217.177 169.831 216.878 169.42C216.579 168.991 216.178 168.683 215.674 168.496C215.189 168.291 214.638 168.188 214.022 168.188C213.387 168.188 212.818 168.291 212.314 168.496C211.829 168.683 211.455 168.982 211.194 169.392C210.933 169.784 210.802 170.279 210.802 170.876C210.802 171.474 210.942 171.987 211.222 172.416C211.521 172.827 211.913 173.135 212.398 173.34C212.902 173.546 213.453 173.648 214.05 173.648Z" fill="#030E09"/>
<rect x="24" y="279.5" width="4" height="15" rx="1" fill="#053B25"/>
<path d="M36.098 292L39.836 282.102H41.754L45.478 292H43.882L43.154 290.012H38.422L37.694 292H36.098ZM38.912 288.682H42.664L40.788 283.516L38.912 288.682ZM46.4803 292V284.622H47.8383L47.9223 285.49C48.0903 285.247 48.277 285.061 48.4823 284.93C48.697 284.79 48.9256 284.687 49.1683 284.622C49.411 284.557 49.6583 284.524 49.9103 284.524C50.405 284.524 50.811 284.627 51.1283 284.832C51.455 285.037 51.707 285.317 51.8843 285.672C52.0616 285.42 52.2623 285.21 52.4863 285.042C52.7103 284.865 52.9576 284.734 53.2283 284.65C53.499 284.566 53.7883 284.524 54.0963 284.524C54.647 284.524 55.0903 284.645 55.4263 284.888C55.7716 285.121 56.019 285.439 56.1683 285.84C56.327 286.241 56.4063 286.703 56.4063 287.226V292H54.9503V287.8C54.9503 287.576 54.941 287.352 54.9223 287.128C54.9036 286.904 54.8476 286.694 54.7543 286.498C54.6703 286.293 54.5443 286.129 54.3763 286.008C54.2176 285.877 53.989 285.812 53.6903 285.812C53.401 285.812 53.1583 285.877 52.9623 286.008C52.7756 286.139 52.6216 286.316 52.5003 286.54C52.3883 286.755 52.3043 286.988 52.2483 287.24C52.2016 287.492 52.1783 287.744 52.1783 287.996V292H50.7223V287.786C50.7223 287.571 50.713 287.352 50.6943 287.128C50.6756 286.904 50.629 286.694 50.5543 286.498C50.4796 286.293 50.3536 286.129 50.1763 286.008C50.0083 285.877 49.7796 285.812 49.4903 285.812C49.0703 285.812 48.7436 285.933 48.5103 286.176C48.2863 286.409 48.1323 286.699 48.0483 287.044C47.9643 287.38 47.9223 287.702 47.9223 288.01V292H46.4803ZM61.3774 292.084C60.6027 292.084 59.9541 291.925 59.4314 291.608C58.9087 291.291 58.5121 290.852 58.2414 290.292C57.9801 289.723 57.8494 289.069 57.8494 288.332C57.8494 287.585 57.9847 286.927 58.2554 286.358C58.5354 285.789 58.9367 285.341 59.4594 285.014C59.9914 284.687 60.6307 284.524 61.3774 284.524C61.9467 284.524 62.4414 284.631 62.8614 284.846C63.2814 285.051 63.6267 285.331 63.8974 285.686C64.1774 286.041 64.3827 286.437 64.5134 286.876C64.6441 287.305 64.7001 287.753 64.6814 288.22C64.6814 288.323 64.6767 288.421 64.6674 288.514C64.6581 288.607 64.6487 288.705 64.6394 288.808H59.3054C59.3334 289.181 59.4267 289.522 59.5854 289.83C59.7534 290.138 59.9867 290.385 60.2854 290.572C60.5841 290.749 60.9527 290.838 61.3914 290.838C61.6341 290.838 61.8674 290.81 62.0914 290.754C62.3247 290.689 62.5301 290.591 62.7074 290.46C62.8941 290.32 63.0247 290.143 63.0994 289.928H64.5554C64.4341 290.423 64.2147 290.833 63.8974 291.16C63.5894 291.477 63.2114 291.711 62.7634 291.86C62.3247 292.009 61.8627 292.084 61.3774 292.084ZM59.3334 287.66H63.2534C63.2441 287.296 63.1601 286.974 63.0014 286.694C62.8427 286.405 62.6234 286.181 62.3434 286.022C62.0634 285.854 61.7274 285.77 61.3354 285.77C60.9061 285.77 60.5467 285.859 60.2574 286.036C59.9774 286.213 59.7581 286.447 59.5994 286.736C59.4501 287.016 59.3614 287.324 59.3334 287.66ZM66.1965 292V284.622H67.5545L67.6245 285.686C67.8111 285.397 68.0258 285.168 68.2685 285C68.5111 284.832 68.7771 284.711 69.0665 284.636C69.3558 284.561 69.6591 284.524 69.9765 284.524C70.0605 284.524 70.1398 284.524 70.2145 284.524C70.2891 284.524 70.3591 284.524 70.4245 284.524V285.91H69.9765C69.4445 285.91 69.0011 286.017 68.6465 286.232C68.3011 286.447 68.0445 286.745 67.8765 287.128C67.7178 287.511 67.6385 287.949 67.6385 288.444V292H66.1965ZM71.5428 292V284.622H72.9848V292H71.5428ZM72.2568 283.642C71.9768 283.642 71.7482 283.558 71.5708 283.39C71.4028 283.213 71.3188 282.989 71.3188 282.718C71.3188 282.447 71.4075 282.228 71.5848 282.06C71.7622 281.883 71.9862 281.794 72.2568 281.794C72.5088 281.794 72.7282 281.883 72.9148 282.06C73.1108 282.228 73.2088 282.447 73.2088 282.718C73.2088 282.989 73.1155 283.213 72.9288 283.39C72.7515 283.558 72.5275 283.642 72.2568 283.642ZM78.0034 292.084C77.2287 292.084 76.5801 291.925 76.0574 291.608C75.5441 291.291 75.1567 290.852 74.8954 290.292C74.6434 289.723 74.5174 289.069 74.5174 288.332C74.5174 287.604 74.6481 286.955 74.9094 286.386C75.1801 285.807 75.5814 285.355 76.1134 285.028C76.6547 284.692 77.3221 284.524 78.1154 284.524C78.6567 284.524 79.1374 284.617 79.5574 284.804C79.9774 284.981 80.3181 285.247 80.5794 285.602C80.8501 285.947 81.0274 286.381 81.1114 286.904H79.6694C79.5481 286.521 79.3427 286.246 79.0534 286.078C78.7734 285.91 78.4421 285.826 78.0594 285.826C77.5461 285.826 77.1354 285.947 76.8274 286.19C76.5287 286.433 76.3094 286.745 76.1694 287.128C76.0294 287.511 75.9594 287.912 75.9594 288.332C75.9594 288.771 76.0294 289.177 76.1694 289.55C76.3187 289.923 76.5427 290.227 76.8414 290.46C77.1494 290.684 77.5507 290.796 78.0454 290.796C78.4187 290.796 78.7641 290.717 79.0814 290.558C79.3987 290.39 79.6041 290.11 79.6974 289.718H81.1814C81.0974 290.259 80.9014 290.707 80.5934 291.062C80.2854 291.407 79.9027 291.664 79.4454 291.832C78.9974 292 78.5167 292.084 78.0034 292.084ZM84.9567 292.084C84.6207 292.084 84.294 292.042 83.9767 291.958C83.6687 291.865 83.3934 291.729 83.1507 291.552C82.908 291.365 82.712 291.137 82.5627 290.866C82.4227 290.586 82.3527 290.259 82.3527 289.886C82.3527 289.438 82.4367 289.069 82.6047 288.78C82.782 288.481 83.0154 288.253 83.3047 288.094C83.594 287.926 83.9254 287.809 84.2987 287.744C84.6814 287.669 85.078 287.632 85.4887 287.632H87.2947C87.2947 287.268 87.2387 286.951 87.1267 286.68C87.0147 286.4 86.8374 286.185 86.5947 286.036C86.3614 285.877 86.0487 285.798 85.6567 285.798C85.4234 285.798 85.1994 285.826 84.9847 285.882C84.7794 285.929 84.602 286.008 84.4527 286.12C84.3034 286.232 84.2007 286.381 84.1447 286.568H82.6327C82.6887 286.213 82.8147 285.91 83.0107 285.658C83.2067 285.397 83.4494 285.182 83.7387 285.014C84.028 284.846 84.336 284.725 84.6627 284.65C84.9987 284.566 85.3394 284.524 85.6847 284.524C86.7487 284.524 87.514 284.837 87.9807 285.462C88.4567 286.078 88.6947 286.927 88.6947 288.01V292H87.4487L87.3927 291.062C87.178 291.351 86.9214 291.571 86.6227 291.72C86.3334 291.869 86.044 291.967 85.7547 292.014C85.4654 292.061 85.1994 292.084 84.9567 292.084ZM85.1807 290.866C85.6007 290.866 85.9694 290.796 86.2867 290.656C86.604 290.507 86.8514 290.297 87.0287 290.026C87.206 289.746 87.2947 289.419 87.2947 289.046V288.738H85.9787C85.708 288.738 85.442 288.747 85.1807 288.766C84.9287 288.775 84.6954 288.813 84.4807 288.878C84.2754 288.934 84.1074 289.032 83.9767 289.172C83.8554 289.312 83.7947 289.513 83.7947 289.774C83.7947 290.026 83.86 290.231 83.9907 290.39C84.1214 290.549 84.294 290.67 84.5087 290.754C84.7234 290.829 84.9474 290.866 85.1807 290.866Z" fill="#030E09"/>
<path d="M258.282 292V284.286H256.294V283.236C256.667 283.208 257.003 283.166 257.302 283.11C257.601 283.045 257.867 282.937 258.1 282.788C258.333 282.629 258.539 282.401 258.716 282.102H259.766V292H258.282ZM262.525 293.848L262.119 293.246C262.25 293.162 262.38 293.05 262.511 292.91C262.651 292.779 262.772 292.635 262.875 292.476C262.978 292.327 263.052 292.182 263.099 292.042C262.838 292.023 262.623 291.935 262.455 291.776C262.287 291.617 262.203 291.403 262.203 291.132C262.212 290.843 262.31 290.619 262.497 290.46C262.693 290.292 262.912 290.208 263.155 290.208C263.472 290.208 263.724 290.325 263.911 290.558C264.098 290.782 264.191 291.09 264.191 291.482C264.191 291.818 264.112 292.149 263.953 292.476C263.794 292.803 263.589 293.087 263.337 293.33C263.085 293.573 262.814 293.745 262.525 293.848ZM269.685 292.112C269.003 292.112 268.42 291.986 267.935 291.734C267.449 291.473 267.053 291.118 266.745 290.67C266.437 290.222 266.213 289.713 266.073 289.144C265.933 288.565 265.863 287.963 265.863 287.338C265.863 286.61 265.937 285.924 266.087 285.28C266.236 284.636 266.469 284.067 266.787 283.572C267.113 283.077 267.529 282.69 268.033 282.41C268.546 282.13 269.157 281.99 269.867 281.99C270.371 281.99 270.837 282.079 271.267 282.256C271.705 282.424 272.079 282.681 272.387 283.026C272.695 283.371 272.914 283.805 273.045 284.328H271.561C271.411 284.001 271.178 283.754 270.861 283.586C270.543 283.418 270.203 283.334 269.839 283.334C269.437 283.334 269.092 283.409 268.803 283.558C268.523 283.698 268.285 283.894 268.089 284.146C267.893 284.389 267.734 284.669 267.613 284.986C267.491 285.303 267.403 285.635 267.347 285.98C267.291 286.316 267.263 286.647 267.263 286.974C267.487 286.647 267.739 286.386 268.019 286.19C268.308 285.994 268.616 285.854 268.943 285.77C269.269 285.677 269.591 285.63 269.909 285.63C270.571 285.63 271.141 285.765 271.617 286.036C272.093 286.297 272.461 286.666 272.723 287.142C272.993 287.609 273.129 288.155 273.129 288.78C273.129 289.443 272.979 290.026 272.681 290.53C272.391 291.034 271.985 291.426 271.463 291.706C270.949 291.977 270.357 292.112 269.685 292.112ZM269.671 290.768C270.063 290.768 270.403 290.684 270.693 290.516C270.991 290.348 271.22 290.124 271.379 289.844C271.547 289.555 271.631 289.237 271.631 288.892C271.631 288.528 271.551 288.201 271.393 287.912C271.234 287.623 271.01 287.394 270.721 287.226C270.441 287.049 270.109 286.96 269.727 286.96C269.363 286.96 269.022 287.044 268.705 287.212C268.397 287.371 268.149 287.595 267.963 287.884C267.776 288.164 267.683 288.495 267.683 288.878C267.683 289.223 267.767 289.541 267.935 289.83C268.103 290.11 268.336 290.339 268.635 290.516C268.943 290.684 269.288 290.768 269.671 290.768ZM278.155 292.126C277.726 292.126 277.32 292.075 276.937 291.972C276.555 291.869 276.205 291.715 275.887 291.51C275.579 291.295 275.318 291.029 275.103 290.712C274.898 290.385 274.753 289.998 274.669 289.55H276.153C276.237 289.793 276.377 290.003 276.573 290.18C276.779 290.357 277.012 290.497 277.273 290.6C277.544 290.703 277.819 290.754 278.099 290.754C278.519 290.754 278.888 290.684 279.205 290.544C279.532 290.395 279.789 290.18 279.975 289.9C280.162 289.62 280.255 289.261 280.255 288.822C280.255 288.215 280.069 287.744 279.695 287.408C279.322 287.072 278.832 286.904 278.225 286.904C277.861 286.904 277.521 286.969 277.203 287.1C276.895 287.221 276.611 287.394 276.349 287.618H274.949L275.299 282.102H281.431V283.46H276.657L276.433 286.204C276.695 285.999 277.007 285.84 277.371 285.728C277.745 285.616 278.169 285.565 278.645 285.574C279.28 285.574 279.831 285.705 280.297 285.966C280.773 286.227 281.137 286.596 281.389 287.072C281.651 287.539 281.781 288.089 281.781 288.724C281.781 289.443 281.618 290.054 281.291 290.558C280.974 291.062 280.54 291.449 279.989 291.72C279.448 291.991 278.837 292.126 278.155 292.126ZM287.16 292.112C286.451 292.112 285.849 291.986 285.354 291.734C284.86 291.473 284.458 291.113 284.15 290.656C283.842 290.189 283.614 289.653 283.464 289.046C283.324 288.43 283.254 287.767 283.254 287.058C283.254 286.349 283.324 285.691 283.464 285.084C283.604 284.468 283.828 283.931 284.136 283.474C284.454 283.007 284.86 282.643 285.354 282.382C285.858 282.121 286.46 281.99 287.16 281.99C287.907 281.99 288.528 282.13 289.022 282.41C289.526 282.69 289.928 283.073 290.226 283.558C290.534 284.034 290.749 284.575 290.87 285.182C291.001 285.789 291.066 286.414 291.066 287.058C291.066 287.702 291.001 288.327 290.87 288.934C290.74 289.541 290.525 290.082 290.226 290.558C289.928 291.034 289.526 291.412 289.022 291.692C288.518 291.972 287.898 292.112 287.16 292.112ZM287.16 290.754C287.674 290.754 288.089 290.642 288.406 290.418C288.724 290.185 288.966 289.881 289.134 289.508C289.302 289.135 289.414 288.733 289.47 288.304C289.536 287.875 289.568 287.459 289.568 287.058C289.568 286.666 289.536 286.255 289.47 285.826C289.414 285.387 289.302 284.981 289.134 284.608C288.966 284.235 288.724 283.931 288.406 283.698C288.098 283.465 287.688 283.348 287.174 283.348C286.652 283.348 286.227 283.465 285.9 283.698C285.583 283.931 285.34 284.235 285.172 284.608C285.004 284.981 284.892 285.383 284.836 285.812C284.78 286.241 284.752 286.657 284.752 287.058C284.752 287.459 284.78 287.875 284.836 288.304C284.892 288.733 285 289.135 285.158 289.508C285.326 289.881 285.569 290.185 285.886 290.418C286.213 290.642 286.638 290.754 287.16 290.754Z" fill="#030E09"/>
<rect x="298" y="277" width="50" height="20" rx="10" fill="#93D973" fill-opacity="0.15"/>
<path d="M308.82 288.688V286.804H307.02V285.676H308.82V283.792H309.948V285.676H311.76V286.804H309.948V288.688H308.82ZM317.765 290.5V288.856H313.253V287.896L317.333 282.016H319.025V287.704H320.009V288.856H319.025V290.5H317.765ZM314.753 287.704H317.765V283.276L314.753 287.704ZM322.198 290.62C321.958 290.62 321.758 290.544 321.598 290.392C321.446 290.24 321.37 290.04 321.37 289.792C321.37 289.544 321.45 289.344 321.61 289.192C321.77 289.032 321.966 288.952 322.198 288.952C322.43 288.952 322.622 289.032 322.774 289.192C322.934 289.344 323.014 289.544 323.014 289.792C323.014 290.04 322.934 290.24 322.774 290.392C322.622 290.544 322.43 290.62 322.198 290.62ZM324.859 290.5L328.231 283.18H323.887V282.016H329.647V283.012L326.263 290.5H324.859ZM331.565 290.5L336.893 282.016H338.165L332.861 290.5H331.565ZM337.385 290.572C336.993 290.572 336.657 290.488 336.377 290.32C336.105 290.152 335.893 289.924 335.741 289.636C335.597 289.34 335.525 289.004 335.525 288.628C335.525 288.236 335.597 287.896 335.741 287.608C335.893 287.32 336.109 287.096 336.389 286.936C336.669 286.768 337.001 286.684 337.385 286.684C337.769 286.684 338.097 286.764 338.369 286.924C338.641 287.084 338.849 287.312 338.993 287.608C339.137 287.896 339.209 288.232 339.209 288.616C339.209 288.992 339.133 289.328 338.981 289.624C338.837 289.92 338.629 290.152 338.357 290.32C338.085 290.488 337.761 290.572 337.385 290.572ZM337.373 289.588C337.573 289.588 337.733 289.544 337.853 289.456C337.973 289.368 338.057 289.248 338.105 289.096C338.161 288.944 338.189 288.788 338.189 288.628C338.189 288.468 338.161 288.316 338.105 288.172C338.057 288.02 337.973 287.9 337.853 287.812C337.733 287.724 337.573 287.68 337.373 287.68C337.069 287.68 336.853 287.78 336.725 287.98C336.597 288.172 336.533 288.388 336.533 288.628C336.533 288.884 336.597 289.108 336.725 289.3C336.861 289.492 337.077 289.588 337.373 289.588ZM332.405 285.808C332.013 285.808 331.677 285.724 331.397 285.556C331.125 285.388 330.917 285.16 330.773 284.872C330.629 284.576 330.557 284.24 330.557 283.864C330.557 283.472 330.629 283.132 330.773 282.844C330.917 282.556 331.129 282.332 331.409 282.172C331.689 282.004 332.025 281.92 332.417 281.92C332.801 281.92 333.129 282 333.401 282.16C333.673 282.32 333.881 282.548 334.025 282.844C334.169 283.132 334.241 283.468 334.241 283.852C334.241 284.228 334.169 284.564 334.025 284.86C333.881 285.156 333.669 285.388 333.389 285.556C333.117 285.724 332.789 285.808 332.405 285.808ZM332.405 284.824C332.605 284.824 332.761 284.78 332.873 284.692C332.993 284.596 333.081 284.476 333.137 284.332C333.193 284.18 333.221 284.024 333.221 283.864C333.221 283.696 333.193 283.54 333.137 283.396C333.081 283.252 332.993 283.136 332.873 283.048C332.761 282.952 332.605 282.904 332.405 282.904C332.101 282.904 331.881 283.004 331.745 283.204C331.617 283.396 331.553 283.616 331.553 283.864C331.553 284.12 331.617 284.344 331.745 284.536C331.881 284.728 332.101 284.824 332.405 284.824Z" fill="#70C748"/>
<rect x="24" y="311.5" width="4" height="15" rx="1" fill="#F6B51E"/>
<path d="M36.098 324L39.836 314.102H41.754L45.478 324H43.882L43.154 322.012H38.422L37.694 324H36.098ZM38.912 320.682H42.664L40.788 315.516L38.912 320.682ZM49.2383 324.084C48.893 324.084 48.5476 324.051 48.2023 323.986C47.857 323.921 47.535 323.804 47.2363 323.636C46.9376 323.468 46.6856 323.244 46.4803 322.964C46.275 322.675 46.1443 322.32 46.0883 321.9H47.5583C47.633 322.124 47.7636 322.306 47.9503 322.446C48.1463 322.586 48.361 322.689 48.5943 322.754C48.837 322.819 49.075 322.852 49.3083 322.852C49.4483 322.852 49.6023 322.843 49.7703 322.824C49.9476 322.805 50.1156 322.763 50.2743 322.698C50.433 322.633 50.5636 322.539 50.6663 322.418C50.769 322.287 50.8203 322.115 50.8203 321.9C50.8203 321.732 50.7736 321.592 50.6803 321.48C50.5963 321.368 50.475 321.279 50.3163 321.214C50.167 321.139 49.985 321.083 49.7703 321.046C49.3503 320.953 48.8976 320.864 48.4123 320.78C47.9363 320.687 47.5163 320.528 47.1523 320.304C47.0216 320.22 46.905 320.127 46.8023 320.024C46.6996 319.912 46.611 319.786 46.5363 319.646C46.4616 319.506 46.4056 319.357 46.3683 319.198C46.331 319.039 46.3123 318.867 46.3123 318.68C46.3123 318.297 46.387 317.971 46.5363 317.7C46.695 317.429 46.9096 317.21 47.1803 317.042C47.451 316.865 47.759 316.734 48.1043 316.65C48.4496 316.566 48.8136 316.524 49.1963 316.524C49.691 316.524 50.139 316.603 50.5403 316.762C50.9416 316.921 51.273 317.154 51.5343 317.462C51.7956 317.77 51.9496 318.157 51.9963 318.624H50.6383C50.5823 318.372 50.419 318.171 50.1483 318.022C49.887 317.863 49.5556 317.784 49.1543 317.784C49.0143 317.784 48.8603 317.793 48.6923 317.812C48.5336 317.831 48.3796 317.873 48.2303 317.938C48.081 318.003 47.9596 318.097 47.8663 318.218C47.773 318.33 47.7263 318.479 47.7263 318.666C47.7263 318.843 47.7683 318.993 47.8523 319.114C47.9456 319.235 48.0763 319.333 48.2443 319.408C48.4216 319.483 48.6223 319.543 48.8463 319.59C49.1636 319.665 49.5043 319.735 49.8683 319.8C50.2416 319.865 50.545 319.935 50.7783 320.01C51.0863 320.094 51.3476 320.215 51.5623 320.374C51.7863 320.533 51.9543 320.733 52.0663 320.976C52.1876 321.219 52.2483 321.513 52.2483 321.858C52.2483 322.306 52.1596 322.675 51.9823 322.964C51.805 323.244 51.567 323.468 51.2683 323.636C50.979 323.804 50.6523 323.921 50.2883 323.986C49.9336 324.051 49.5836 324.084 49.2383 324.084ZM53.645 324V316.622H55.087V324H53.645ZM54.359 315.642C54.079 315.642 53.8504 315.558 53.673 315.39C53.505 315.213 53.421 314.989 53.421 314.718C53.421 314.447 53.5097 314.228 53.687 314.06C53.8644 313.883 54.0884 313.794 54.359 313.794C54.611 313.794 54.8304 313.883 55.017 314.06C55.213 314.228 55.311 314.447 55.311 314.718C55.311 314.989 55.2177 315.213 55.031 315.39C54.8537 315.558 54.6297 315.642 54.359 315.642ZM59.2516 324.084C58.9156 324.084 58.5889 324.042 58.2716 323.958C57.9636 323.865 57.6883 323.729 57.4456 323.552C57.2029 323.365 57.0069 323.137 56.8576 322.866C56.7176 322.586 56.6476 322.259 56.6476 321.886C56.6476 321.438 56.7316 321.069 56.8996 320.78C57.0769 320.481 57.3103 320.253 57.5996 320.094C57.8889 319.926 58.2203 319.809 58.5936 319.744C58.9763 319.669 59.3729 319.632 59.7836 319.632H61.5896C61.5896 319.268 61.5336 318.951 61.4216 318.68C61.3096 318.4 61.1323 318.185 60.8896 318.036C60.6563 317.877 60.3436 317.798 59.9516 317.798C59.7183 317.798 59.4943 317.826 59.2796 317.882C59.0743 317.929 58.8969 318.008 58.7476 318.12C58.5983 318.232 58.4956 318.381 58.4396 318.568H56.9276C56.9836 318.213 57.1096 317.91 57.3056 317.658C57.5016 317.397 57.7443 317.182 58.0336 317.014C58.3229 316.846 58.6309 316.725 58.9576 316.65C59.2936 316.566 59.6343 316.524 59.9796 316.524C61.0436 316.524 61.8089 316.837 62.2756 317.462C62.7516 318.078 62.9896 318.927 62.9896 320.01V324H61.7436L61.6876 323.062C61.4729 323.351 61.2163 323.571 60.9176 323.72C60.6283 323.869 60.3389 323.967 60.0496 324.014C59.7603 324.061 59.4943 324.084 59.2516 324.084ZM59.4756 322.866C59.8956 322.866 60.2643 322.796 60.5816 322.656C60.8989 322.507 61.1463 322.297 61.3236 322.026C61.5009 321.746 61.5896 321.419 61.5896 321.046V320.738H60.2736C60.0029 320.738 59.7369 320.747 59.4756 320.766C59.2236 320.775 58.9903 320.813 58.7756 320.878C58.5703 320.934 58.4023 321.032 58.2716 321.172C58.1503 321.312 58.0896 321.513 58.0896 321.774C58.0896 322.026 58.1549 322.231 58.2856 322.39C58.4163 322.549 58.5889 322.67 58.8036 322.754C59.0183 322.829 59.2423 322.866 59.4756 322.866Z" fill="#030E09"/>
<path d="M271.13 324.112C270.71 324.112 270.295 324.065 269.884 323.972C269.473 323.879 269.091 323.734 268.736 323.538C268.391 323.342 268.097 323.081 267.854 322.754C267.621 322.427 267.471 322.031 267.406 321.564H268.904C269.007 321.863 269.175 322.101 269.408 322.278C269.651 322.446 269.921 322.567 270.22 322.642C270.528 322.717 270.836 322.754 271.144 322.754C271.349 322.754 271.569 322.735 271.802 322.698C272.045 322.661 272.269 322.586 272.474 322.474C272.689 322.362 272.861 322.199 272.992 321.984C273.123 321.769 273.188 321.494 273.188 321.158C273.188 320.831 273.127 320.57 273.006 320.374C272.885 320.169 272.721 320.01 272.516 319.898C272.32 319.786 272.096 319.711 271.844 319.674C271.592 319.637 271.331 319.618 271.06 319.618H270.052V318.33H270.682C270.981 318.33 271.261 318.302 271.522 318.246C271.783 318.181 272.007 318.092 272.194 317.98C272.39 317.859 272.544 317.705 272.656 317.518C272.768 317.322 272.824 317.084 272.824 316.804C272.824 316.412 272.74 316.113 272.572 315.908C272.404 315.693 272.185 315.544 271.914 315.46C271.643 315.376 271.349 315.334 271.032 315.334C270.771 315.334 270.509 315.376 270.248 315.46C269.996 315.535 269.772 315.656 269.576 315.824C269.38 315.992 269.249 316.207 269.184 316.468H267.728C267.784 316.029 267.915 315.656 268.12 315.348C268.335 315.031 268.596 314.769 268.904 314.564C269.221 314.359 269.571 314.214 269.954 314.13C270.337 314.037 270.733 313.99 271.144 313.99C271.564 313.99 271.961 314.037 272.334 314.13C272.717 314.214 273.053 314.359 273.342 314.564C273.631 314.769 273.86 315.04 274.028 315.376C274.205 315.703 274.294 316.104 274.294 316.58C274.294 316.907 274.238 317.21 274.126 317.49C274.023 317.77 273.865 318.017 273.65 318.232C273.445 318.437 273.193 318.61 272.894 318.75C273.295 318.834 273.631 318.988 273.902 319.212C274.173 319.436 274.373 319.711 274.504 320.038C274.644 320.355 274.714 320.71 274.714 321.102C274.714 321.718 274.602 322.222 274.378 322.614C274.154 323.006 273.86 323.309 273.496 323.524C273.141 323.739 272.754 323.893 272.334 323.986C271.914 324.07 271.513 324.112 271.13 324.112ZM279.775 324.126C279.346 324.126 278.94 324.075 278.557 323.972C278.175 323.869 277.825 323.715 277.507 323.51C277.199 323.295 276.938 323.029 276.723 322.712C276.518 322.385 276.373 321.998 276.289 321.55H277.773C277.857 321.793 277.997 322.003 278.193 322.18C278.399 322.357 278.632 322.497 278.893 322.6C279.164 322.703 279.439 322.754 279.719 322.754C280.139 322.754 280.508 322.684 280.825 322.544C281.152 322.395 281.409 322.18 281.595 321.9C281.782 321.62 281.875 321.261 281.875 320.822C281.875 320.215 281.689 319.744 281.315 319.408C280.942 319.072 280.452 318.904 279.845 318.904C279.481 318.904 279.141 318.969 278.823 319.1C278.515 319.221 278.231 319.394 277.969 319.618H276.569L276.919 314.102H283.051V315.46H278.277L278.053 318.204C278.315 317.999 278.627 317.84 278.991 317.728C279.365 317.616 279.789 317.565 280.265 317.574C280.9 317.574 281.451 317.705 281.917 317.966C282.393 318.227 282.757 318.596 283.009 319.072C283.271 319.539 283.401 320.089 283.401 320.724C283.401 321.443 283.238 322.054 282.911 322.558C282.594 323.062 282.16 323.449 281.609 323.72C281.068 323.991 280.457 324.126 279.775 324.126ZM288.78 324.112C288.071 324.112 287.469 323.986 286.974 323.734C286.48 323.473 286.078 323.113 285.77 322.656C285.462 322.189 285.234 321.653 285.084 321.046C284.944 320.43 284.874 319.767 284.874 319.058C284.874 318.349 284.944 317.691 285.084 317.084C285.224 316.468 285.448 315.931 285.756 315.474C286.074 315.007 286.48 314.643 286.974 314.382C287.478 314.121 288.08 313.99 288.78 313.99C289.527 313.99 290.148 314.13 290.642 314.41C291.146 314.69 291.548 315.073 291.846 315.558C292.154 316.034 292.369 316.575 292.49 317.182C292.621 317.789 292.686 318.414 292.686 319.058C292.686 319.702 292.621 320.327 292.49 320.934C292.36 321.541 292.145 322.082 291.846 322.558C291.548 323.034 291.146 323.412 290.642 323.692C290.138 323.972 289.518 324.112 288.78 324.112ZM288.78 322.754C289.294 322.754 289.709 322.642 290.026 322.418C290.344 322.185 290.586 321.881 290.754 321.508C290.922 321.135 291.034 320.733 291.09 320.304C291.156 319.875 291.188 319.459 291.188 319.058C291.188 318.666 291.156 318.255 291.09 317.826C291.034 317.387 290.922 316.981 290.754 316.608C290.586 316.235 290.344 315.931 290.026 315.698C289.718 315.465 289.308 315.348 288.794 315.348C288.272 315.348 287.847 315.465 287.52 315.698C287.203 315.931 286.96 316.235 286.792 316.608C286.624 316.981 286.512 317.383 286.456 317.812C286.4 318.241 286.372 318.657 286.372 319.058C286.372 319.459 286.4 319.875 286.456 320.304C286.512 320.733 286.62 321.135 286.778 321.508C286.946 321.881 287.189 322.185 287.506 322.418C287.833 322.642 288.258 322.754 288.78 322.754Z" fill="#030E09"/>
<rect x="300" y="309" width="48" height="20" rx="10" fill="#93D973" fill-opacity="0.15"/>
<path d="M310.82 320.688V318.804H309.02V317.676H310.82V315.792H311.948V317.676H313.76V318.804H311.948V320.688H310.82ZM315.121 322.5V321.444L317.509 319.404C317.709 319.236 317.929 319.048 318.169 318.84C318.417 318.632 318.653 318.408 318.877 318.168C319.109 317.928 319.297 317.672 319.441 317.4C319.593 317.128 319.669 316.844 319.669 316.548C319.669 316.092 319.529 315.736 319.249 315.48C318.977 315.224 318.605 315.096 318.133 315.096C317.733 315.096 317.393 315.18 317.113 315.348C316.841 315.516 316.661 315.752 316.573 316.056H315.277C315.349 315.568 315.529 315.168 315.817 314.856C316.105 314.544 316.457 314.312 316.873 314.16C317.289 314 317.725 313.92 318.181 313.92C318.709 313.92 319.181 314.016 319.597 314.208C320.013 314.4 320.341 314.684 320.581 315.06C320.821 315.428 320.941 315.88 320.941 316.416C320.941 316.92 320.845 317.368 320.653 317.76C320.461 318.152 320.205 318.508 319.885 318.828C319.573 319.148 319.233 319.46 318.865 319.764L316.981 321.336H321.001V322.5H315.121ZM323.366 322.62C323.126 322.62 322.926 322.544 322.766 322.392C322.614 322.24 322.538 322.04 322.538 321.792C322.538 321.544 322.618 321.344 322.778 321.192C322.938 321.032 323.134 320.952 323.366 320.952C323.598 320.952 323.79 321.032 323.942 321.192C324.102 321.344 324.182 321.544 324.182 321.792C324.182 322.04 324.102 322.24 323.942 322.392C323.79 322.544 323.598 322.62 323.366 322.62ZM326.727 322.5V315.888H325.023V314.988C325.343 314.964 325.631 314.928 325.887 314.88C326.143 314.824 326.371 314.732 326.571 314.604C326.771 314.468 326.947 314.272 327.099 314.016H327.999V322.5H326.727ZM330.928 322.5L336.256 314.016H337.528L332.224 322.5H330.928ZM336.748 322.572C336.356 322.572 336.02 322.488 335.74 322.32C335.468 322.152 335.256 321.924 335.104 321.636C334.96 321.34 334.888 321.004 334.888 320.628C334.888 320.236 334.96 319.896 335.104 319.608C335.256 319.32 335.472 319.096 335.752 318.936C336.032 318.768 336.364 318.684 336.748 318.684C337.132 318.684 337.46 318.764 337.732 318.924C338.004 319.084 338.212 319.312 338.356 319.608C338.5 319.896 338.572 320.232 338.572 320.616C338.572 320.992 338.496 321.328 338.344 321.624C338.2 321.92 337.992 322.152 337.72 322.32C337.448 322.488 337.124 322.572 336.748 322.572ZM336.736 321.588C336.936 321.588 337.096 321.544 337.216 321.456C337.336 321.368 337.42 321.248 337.468 321.096C337.524 320.944 337.552 320.788 337.552 320.628C337.552 320.468 337.524 320.316 337.468 320.172C337.42 320.02 337.336 319.9 337.216 319.812C337.096 319.724 336.936 319.68 336.736 319.68C336.432 319.68 336.216 319.78 336.088 319.98C335.96 320.172 335.896 320.388 335.896 320.628C335.896 320.884 335.96 321.108 336.088 321.3C336.224 321.492 336.44 321.588 336.736 321.588ZM331.768 317.808C331.376 317.808 331.04 317.724 330.76 317.556C330.488 317.388 330.28 317.16 330.136 316.872C329.992 316.576 329.92 316.24 329.92 315.864C329.92 315.472 329.992 315.132 330.136 314.844C330.28 314.556 330.492 314.332 330.772 314.172C331.052 314.004 331.388 313.92 331.78 313.92C332.164 313.92 332.492 314 332.764 314.16C333.036 314.32 333.244 314.548 333.388 314.844C333.532 315.132 333.604 315.468 333.604 315.852C333.604 316.228 333.532 316.564 333.388 316.86C333.244 317.156 333.032 317.388 332.752 317.556C332.48 317.724 332.152 317.808 331.768 317.808ZM331.768 316.824C331.968 316.824 332.124 316.78 332.236 316.692C332.356 316.596 332.444 316.476 332.5 316.332C332.556 316.18 332.584 316.024 332.584 315.864C332.584 315.696 332.556 315.54 332.5 315.396C332.444 315.252 332.356 315.136 332.236 315.048C332.124 314.952 331.968 314.904 331.768 314.904C331.464 314.904 331.244 315.004 331.108 315.204C330.98 315.396 330.916 315.616 330.916 315.864C330.916 316.12 330.98 316.344 331.108 316.536C331.244 316.728 331.464 316.824 331.768 316.824Z" fill="#70C748"/>
<rect x="24" y="343.5" width="4" height="15" rx="1" fill="#C2FD75"/>
<path d="M37.162 356V346.102H43.98V347.46H38.646V350.428H43.364V351.772H38.646V354.642H43.98V356H37.162ZM48.6736 356.084C47.6376 356.084 46.8443 355.813 46.2936 355.272C45.7523 354.721 45.4816 353.886 45.4816 352.766V348.622H46.9236V352.682C46.9236 353.121 46.9843 353.499 47.1056 353.816C47.2363 354.133 47.4323 354.376 47.6936 354.544C47.9549 354.712 48.2863 354.796 48.6876 354.796C49.1076 354.796 49.4436 354.712 49.6956 354.544C49.9569 354.367 50.1436 354.119 50.2556 353.802C50.3769 353.485 50.4376 353.111 50.4376 352.682V348.622H51.8796V352.766C51.8796 353.905 51.5996 354.745 51.0396 355.286C50.4889 355.818 49.7003 356.084 48.6736 356.084ZM53.645 356V348.622H55.003L55.073 349.686C55.2597 349.397 55.4744 349.168 55.717 349C55.9597 348.832 56.2257 348.711 56.515 348.636C56.8044 348.561 57.1077 348.524 57.425 348.524C57.509 348.524 57.5884 348.524 57.663 348.524C57.7377 348.524 57.8077 348.524 57.873 348.524V349.91H57.425C56.893 349.91 56.4497 350.017 56.095 350.232C55.7497 350.447 55.493 350.745 55.325 351.128C55.1664 351.511 55.087 351.949 55.087 352.444V356H53.645ZM62.1447 356.084C61.3793 356.084 60.7307 355.93 60.1987 355.622C59.6667 355.305 59.2607 354.861 58.9807 354.292C58.71 353.723 58.5747 353.065 58.5747 352.318C58.5747 351.562 58.7147 350.904 58.9947 350.344C59.2747 349.775 59.6807 349.331 60.2127 349.014C60.7447 348.687 61.3933 348.524 62.1587 348.524C62.924 348.524 63.5727 348.687 64.1047 349.014C64.6367 349.331 65.038 349.775 65.3087 350.344C65.5793 350.913 65.7147 351.576 65.7147 352.332C65.7147 353.069 65.5747 353.723 65.2947 354.292C65.024 354.861 64.6227 355.305 64.0907 355.622C63.568 355.93 62.9193 356.084 62.1447 356.084ZM62.1447 354.796C62.6487 354.796 63.0547 354.684 63.3627 354.46C63.68 354.236 63.9133 353.937 64.0627 353.564C64.212 353.181 64.2867 352.766 64.2867 352.318C64.2867 351.87 64.212 351.459 64.0627 351.086C63.9133 350.713 63.68 350.414 63.3627 350.19C63.0547 349.957 62.6487 349.84 62.1447 349.84C61.65 349.84 61.244 349.957 60.9267 350.19C60.6093 350.414 60.376 350.713 60.2267 351.086C60.0867 351.459 60.0167 351.87 60.0167 352.318C60.0167 352.775 60.0867 353.191 60.2267 353.564C60.376 353.937 60.6093 354.236 60.9267 354.46C61.244 354.684 61.65 354.796 62.1447 354.796ZM67.2225 358.688V348.622H68.5945L68.6645 349.672C68.9258 349.289 69.2665 349.005 69.6865 348.818C70.1065 348.622 70.5638 348.524 71.0585 348.524C71.7958 348.524 72.4025 348.692 72.8785 349.028C73.3545 349.355 73.7092 349.807 73.9425 350.386C74.1758 350.955 74.2925 351.595 74.2925 352.304C74.2925 353.032 74.1712 353.681 73.9285 354.25C73.6952 354.819 73.3312 355.267 72.8365 355.594C72.3512 355.921 71.7352 356.084 70.9885 356.084C70.6338 356.084 70.3072 356.047 70.0085 355.972C69.7192 355.897 69.4625 355.79 69.2385 355.65C69.0238 355.501 68.8325 355.328 68.6645 355.132V358.688H67.2225ZM70.8065 354.796C71.3105 354.796 71.7118 354.684 72.0105 354.46C72.3092 354.227 72.5238 353.923 72.6545 353.55C72.7852 353.177 72.8505 352.771 72.8505 352.332C72.8505 351.875 72.7805 351.459 72.6405 351.086C72.5098 350.703 72.2905 350.4 71.9825 350.176C71.6838 349.943 71.2825 349.826 70.7785 349.826C70.3212 349.826 69.9338 349.943 69.6165 350.176C69.2992 350.4 69.0565 350.703 68.8885 351.086C68.7298 351.469 68.6505 351.884 68.6505 352.332C68.6505 352.789 68.7252 353.209 68.8745 353.592C69.0332 353.965 69.2712 354.259 69.5885 354.474C69.9152 354.689 70.3212 354.796 70.8065 354.796ZM79.0571 356.084C78.2824 356.084 77.6338 355.925 77.1111 355.608C76.5884 355.291 76.1918 354.852 75.9211 354.292C75.6598 353.723 75.5291 353.069 75.5291 352.332C75.5291 351.585 75.6644 350.927 75.9351 350.358C76.2151 349.789 76.6164 349.341 77.1391 349.014C77.6711 348.687 78.3104 348.524 79.0571 348.524C79.6264 348.524 80.1211 348.631 80.5411 348.846C80.9611 349.051 81.3064 349.331 81.5771 349.686C81.8571 350.041 82.0624 350.437 82.1931 350.876C82.3238 351.305 82.3798 351.753 82.3611 352.22C82.3611 352.323 82.3564 352.421 82.3471 352.514C82.3378 352.607 82.3284 352.705 82.3191 352.808H76.9851C77.0131 353.181 77.1064 353.522 77.2651 353.83C77.4331 354.138 77.6664 354.385 77.9651 354.572C78.2638 354.749 78.6324 354.838 79.0711 354.838C79.3138 354.838 79.5471 354.81 79.7711 354.754C80.0044 354.689 80.2098 354.591 80.3871 354.46C80.5738 354.32 80.7044 354.143 80.7791 353.928H82.2351C82.1138 354.423 81.8944 354.833 81.5771 355.16C81.2691 355.477 80.8911 355.711 80.4431 355.86C80.0044 356.009 79.5424 356.084 79.0571 356.084ZM77.0131 351.66H80.9331C80.9238 351.296 80.8398 350.974 80.6811 350.694C80.5224 350.405 80.3031 350.181 80.0231 350.022C79.7431 349.854 79.4071 349.77 79.0151 349.77C78.5858 349.77 78.2264 349.859 77.9371 350.036C77.6571 350.213 77.4378 350.447 77.2791 350.736C77.1298 351.016 77.0411 351.324 77.0131 351.66Z" fill="#030E09"/>
<path d="M274.796 356V354.082H269.532V352.962L274.292 346.102H276.266V352.738H277.414V354.082H276.266V356H274.796ZM271.282 352.738H274.796V347.572L271.282 352.738ZM282.199 356.126C281.77 356.126 281.364 356.075 280.981 355.972C280.598 355.869 280.248 355.715 279.931 355.51C279.623 355.295 279.362 355.029 279.147 354.712C278.942 354.385 278.797 353.998 278.713 353.55H280.197C280.281 353.793 280.421 354.003 280.617 354.18C280.822 354.357 281.056 354.497 281.317 354.6C281.588 354.703 281.863 354.754 282.143 354.754C282.563 354.754 282.932 354.684 283.249 354.544C283.576 354.395 283.832 354.18 284.019 353.9C284.206 353.62 284.299 353.261 284.299 352.822C284.299 352.215 284.112 351.744 283.739 351.408C283.366 351.072 282.876 350.904 282.269 350.904C281.905 350.904 281.564 350.969 281.247 351.1C280.939 351.221 280.654 351.394 280.393 351.618H278.993L279.343 346.102H285.475V347.46H280.701L280.477 350.204C280.738 349.999 281.051 349.84 281.415 349.728C281.788 349.616 282.213 349.565 282.689 349.574C283.324 349.574 283.874 349.705 284.341 349.966C284.817 350.227 285.181 350.596 285.433 351.072C285.694 351.539 285.825 352.089 285.825 352.724C285.825 353.443 285.662 354.054 285.335 354.558C285.018 355.062 284.584 355.449 284.033 355.72C283.492 355.991 282.88 356.126 282.199 356.126ZM290.91 356.112C290.453 356.112 290.009 356.061 289.58 355.958C289.151 355.855 288.763 355.692 288.418 355.468C288.082 355.235 287.811 354.931 287.606 354.558C287.401 354.185 287.298 353.727 287.298 353.186C287.298 352.813 287.359 352.477 287.48 352.178C287.601 351.87 287.779 351.604 288.012 351.38C288.255 351.156 288.535 350.979 288.852 350.848C288.525 350.671 288.269 350.461 288.082 350.218C287.895 349.966 287.769 349.7 287.704 349.42C287.639 349.14 287.606 348.874 287.606 348.622C287.606 348.146 287.699 347.745 287.886 347.418C288.073 347.082 288.325 346.811 288.642 346.606C288.959 346.391 289.314 346.237 289.706 346.144C290.098 346.041 290.504 345.99 290.924 345.99C291.335 345.99 291.736 346.041 292.128 346.144C292.52 346.237 292.875 346.391 293.192 346.606C293.509 346.821 293.761 347.096 293.948 347.432C294.135 347.768 294.228 348.174 294.228 348.65C294.228 348.893 294.191 349.149 294.116 349.42C294.051 349.691 293.925 349.947 293.738 350.19C293.551 350.433 293.29 350.638 292.954 350.806C293.29 350.937 293.575 351.119 293.808 351.352C294.051 351.585 294.233 351.856 294.354 352.164C294.475 352.472 294.536 352.817 294.536 353.2C294.536 353.732 294.433 354.185 294.228 354.558C294.023 354.931 293.743 355.235 293.388 355.468C293.043 355.692 292.655 355.855 292.226 355.958C291.806 356.061 291.367 356.112 290.91 356.112ZM290.91 354.768C291.134 354.768 291.367 354.745 291.61 354.698C291.853 354.651 292.081 354.572 292.296 354.46C292.511 354.339 292.683 354.175 292.814 353.97C292.954 353.755 293.024 353.489 293.024 353.172C293.024 352.78 292.926 352.472 292.73 352.248C292.534 352.015 292.273 351.847 291.946 351.744C291.629 351.632 291.283 351.576 290.91 351.576C290.546 351.576 290.201 351.632 289.874 351.744C289.557 351.847 289.295 352.015 289.09 352.248C288.894 352.472 288.796 352.78 288.796 353.172C288.796 353.489 288.861 353.755 288.992 353.97C289.132 354.175 289.309 354.339 289.524 354.46C289.748 354.572 289.981 354.651 290.224 354.698C290.467 354.745 290.695 354.768 290.91 354.768ZM290.924 350.344C291.26 350.344 291.559 350.288 291.82 350.176C292.091 350.064 292.31 349.901 292.478 349.686C292.646 349.462 292.73 349.191 292.73 348.874C292.739 348.501 292.66 348.202 292.492 347.978C292.324 347.745 292.1 347.577 291.82 347.474C291.549 347.362 291.246 347.306 290.91 347.306C290.565 347.306 290.252 347.362 289.972 347.474C289.701 347.577 289.487 347.74 289.328 347.964C289.179 348.188 289.104 348.473 289.104 348.818C289.104 349.163 289.188 349.453 289.356 349.686C289.524 349.91 289.743 350.078 290.014 350.19C290.294 350.293 290.597 350.344 290.924 350.344Z" fill="#030E09"/>
<rect x="302" y="341" width="46" height="20" rx="10" fill="#EF4444" fill-opacity="0.15"/>
<path d="M310.84 351.644V350.516H314.68V351.644H310.84ZM317.5 354.5V347.888H315.796V346.988C316.116 346.964 316.404 346.928 316.66 346.88C316.916 346.824 317.144 346.732 317.344 346.604C317.544 346.468 317.72 346.272 317.872 346.016H318.772V354.5H317.5ZM321.616 354.62C321.376 354.62 321.176 354.544 321.016 354.392C320.864 354.24 320.788 354.04 320.788 353.792C320.788 353.544 320.868 353.344 321.028 353.192C321.188 353.032 321.384 352.952 321.616 352.952C321.848 352.952 322.04 353.032 322.192 353.192C322.352 353.344 322.432 353.544 322.432 353.792C322.432 354.04 322.352 354.24 322.192 354.392C322.04 354.544 321.848 354.62 321.616 354.62ZM324.277 354.5L327.649 347.18H323.305V346.016H329.065V347.012L325.681 354.5H324.277ZM330.983 354.5L336.311 346.016H337.583L332.279 354.5H330.983ZM336.803 354.572C336.411 354.572 336.075 354.488 335.795 354.32C335.523 354.152 335.311 353.924 335.159 353.636C335.015 353.34 334.943 353.004 334.943 352.628C334.943 352.236 335.015 351.896 335.159 351.608C335.311 351.32 335.527 351.096 335.807 350.936C336.087 350.768 336.419 350.684 336.803 350.684C337.187 350.684 337.515 350.764 337.787 350.924C338.059 351.084 338.267 351.312 338.411 351.608C338.555 351.896 338.627 352.232 338.627 352.616C338.627 352.992 338.551 353.328 338.399 353.624C338.255 353.92 338.047 354.152 337.775 354.32C337.503 354.488 337.179 354.572 336.803 354.572ZM336.791 353.588C336.991 353.588 337.151 353.544 337.271 353.456C337.391 353.368 337.475 353.248 337.523 353.096C337.579 352.944 337.607 352.788 337.607 352.628C337.607 352.468 337.579 352.316 337.523 352.172C337.475 352.02 337.391 351.9 337.271 351.812C337.151 351.724 336.991 351.68 336.791 351.68C336.487 351.68 336.271 351.78 336.143 351.98C336.015 352.172 335.951 352.388 335.951 352.628C335.951 352.884 336.015 353.108 336.143 353.3C336.279 353.492 336.495 353.588 336.791 353.588ZM331.823 349.808C331.431 349.808 331.095 349.724 330.815 349.556C330.543 349.388 330.335 349.16 330.191 348.872C330.047 348.576 329.975 348.24 329.975 347.864C329.975 347.472 330.047 347.132 330.191 346.844C330.335 346.556 330.547 346.332 330.827 346.172C331.107 346.004 331.443 345.92 331.835 345.92C332.219 345.92 332.547 346 332.819 346.16C333.091 346.32 333.299 346.548 333.443 346.844C333.587 347.132 333.659 347.468 333.659 347.852C333.659 348.228 333.587 348.564 333.443 348.86C333.299 349.156 333.087 349.388 332.807 349.556C332.535 349.724 332.207 349.808 331.823 349.808ZM331.823 348.824C332.023 348.824 332.179 348.78 332.291 348.692C332.411 348.596 332.499 348.476 332.555 348.332C332.611 348.18 332.639 348.024 332.639 347.864C332.639 347.696 332.611 347.54 332.555 347.396C332.499 347.252 332.411 347.136 332.291 347.048C332.179 346.952 332.023 346.904 331.823 346.904C331.519 346.904 331.299 347.004 331.163 347.204C331.035 347.396 330.971 347.616 330.971 347.864C330.971 348.12 331.035 348.344 331.163 348.536C331.299 348.728 331.519 348.824 331.823 348.824Z" fill="#EF4444"/>
</svg>
