<svg width="273" height="380" viewBox="0 0 273 380" fill="none" xmlns="http://www.w3.org/2000/svg">
<rect width="273" height="380" rx="16" fill="white"/>
<rect x="0.5" y="0.5" width="272" height="379" rx="15.5" stroke="#030E09" stroke-opacity="0.05"/>
<path d="M30.768 42.144C29.448 42.144 28.338 41.874 27.438 41.334C26.538 40.782 25.86 40.02 25.404 39.048C24.948 38.076 24.72 36.948 24.72 35.664C24.72 34.38 24.954 33.246 25.422 32.262C25.89 31.278 26.574 30.51 27.474 29.958C28.374 29.394 29.472 29.112 30.768 29.112C31.728 29.112 32.574 29.274 33.306 29.598C34.038 29.922 34.632 30.384 35.088 30.984C35.556 31.572 35.856 32.298 35.988 33.162H33.81C33.642 32.55 33.3 32.07 32.784 31.722C32.268 31.374 31.596 31.2 30.768 31.2C29.868 31.2 29.142 31.41 28.59 31.83C28.038 32.25 27.636 32.79 27.384 33.45C27.144 34.11 27.024 34.818 27.024 35.574C27.024 36.354 27.15 37.086 27.402 37.77C27.666 38.454 28.08 39.006 28.644 39.426C29.208 39.846 29.934 40.056 30.822 40.056C31.374 40.056 31.854 39.978 32.262 39.822C32.682 39.666 33.03 39.444 33.306 39.156C33.594 38.856 33.792 38.508 33.9 38.112H36.186C36.042 38.964 35.718 39.69 35.214 40.29C34.722 40.89 34.092 41.352 33.324 41.676C32.568 41.988 31.716 42.144 30.768 42.144ZM42.0889 42.126C40.7209 42.126 39.6709 41.772 38.9389 41.064C38.2189 40.356 37.8589 39.276 37.8589 37.824V32.514H40.0549V37.68C40.0549 38.184 40.1209 38.622 40.2529 38.994C40.3969 39.366 40.6189 39.654 40.9189 39.858C41.2309 40.05 41.6209 40.146 42.0889 40.146C42.5929 40.146 42.9889 40.044 43.2769 39.84C43.5769 39.624 43.7869 39.33 43.9069 38.958C44.0269 38.586 44.0869 38.16 44.0869 37.68V32.514H46.2829V37.824C46.2829 39.312 45.9109 40.404 45.1669 41.1C44.4349 41.784 43.4089 42.126 42.0889 42.126ZM52.0434 42.126C51.5874 42.126 51.1314 42.078 50.6754 41.982C50.2314 41.886 49.8114 41.73 49.4154 41.514C49.0194 41.286 48.6894 40.98 48.4254 40.596C48.1614 40.212 47.9874 39.732 47.9034 39.156H50.1174C50.2134 39.42 50.3634 39.636 50.5674 39.804C50.7834 39.96 51.0294 40.08 51.3054 40.164C51.5934 40.236 51.8754 40.272 52.1514 40.272C52.3194 40.272 52.4994 40.26 52.6914 40.236C52.8954 40.212 53.0814 40.164 53.2494 40.092C53.4294 40.02 53.5734 39.918 53.6814 39.786C53.7894 39.642 53.8434 39.456 53.8434 39.228C53.8434 39.012 53.7834 38.844 53.6634 38.724C53.5434 38.592 53.3814 38.49 53.1774 38.418C52.9734 38.334 52.7274 38.268 52.4394 38.22C51.9234 38.112 51.3714 37.998 50.7834 37.878C50.1954 37.746 49.6854 37.542 49.2534 37.266C49.0734 37.158 48.9174 37.032 48.7854 36.888C48.6534 36.744 48.5394 36.588 48.4434 36.42C48.3594 36.24 48.2934 36.048 48.2454 35.844C48.2094 35.64 48.1914 35.418 48.1914 35.178C48.1914 34.674 48.2934 34.248 48.4974 33.9C48.7134 33.54 48.9954 33.252 49.3434 33.036C49.7034 32.808 50.1114 32.64 50.5674 32.532C51.0234 32.424 51.4914 32.37 51.9714 32.37C52.6194 32.37 53.2074 32.472 53.7354 32.676C54.2634 32.88 54.7014 33.192 55.0494 33.612C55.4094 34.032 55.6254 34.566 55.6974 35.214H53.6094C53.5494 34.914 53.3634 34.674 53.0514 34.494C52.7514 34.314 52.3674 34.224 51.8994 34.224C51.7314 34.224 51.5574 34.242 51.3774 34.278C51.1974 34.302 51.0234 34.35 50.8554 34.422C50.6994 34.482 50.5674 34.578 50.4594 34.71C50.3634 34.842 50.3154 35.004 50.3154 35.196C50.3154 35.376 50.3574 35.532 50.4414 35.664C50.5374 35.796 50.6754 35.91 50.8554 36.006C51.0474 36.09 51.2694 36.162 51.5214 36.222C51.9294 36.306 52.3554 36.39 52.7994 36.474C53.2434 36.558 53.6274 36.642 53.9514 36.726C54.3354 36.834 54.6834 36.99 54.9954 37.194C55.3074 37.386 55.5474 37.644 55.7154 37.968C55.8954 38.28 55.9854 38.682 55.9854 39.174C55.9854 39.75 55.8654 40.23 55.6254 40.614C55.3974 40.998 55.0914 41.298 54.7074 41.514C54.3234 41.73 53.8974 41.886 53.4294 41.982C52.9614 42.078 52.4994 42.126 52.0434 42.126ZM61.4168 42.108C60.3728 42.108 59.6108 41.82 59.1308 41.244C58.6508 40.668 58.4108 39.87 58.4108 38.85V34.458H56.9528V32.514H58.4108V29.85H60.6068V32.514H63.4868V34.458H60.6068V38.436C60.6068 38.748 60.6428 39.03 60.7148 39.282C60.7868 39.534 60.9188 39.732 61.1108 39.876C61.3028 40.02 61.5668 40.098 61.9028 40.11C62.1908 40.11 62.4368 40.062 62.6408 39.966C62.8448 39.87 63.0128 39.762 63.1448 39.642L63.8828 41.316C63.6548 41.508 63.3968 41.664 63.1088 41.784C62.8328 41.904 62.5508 41.988 62.2628 42.036C61.9748 42.084 61.6928 42.108 61.4168 42.108ZM69.4463 42.126C68.4743 42.126 67.6343 41.928 66.9263 41.532C66.2303 41.136 65.6903 40.572 65.3063 39.84C64.9343 39.108 64.7483 38.25 64.7483 37.266C64.7483 36.27 64.9403 35.412 65.3243 34.692C65.7083 33.96 66.2483 33.39 66.9443 32.982C67.6403 32.574 68.4743 32.37 69.4463 32.37C70.4063 32.37 71.2343 32.574 71.9303 32.982C72.6263 33.39 73.1603 33.966 73.5323 34.71C73.9043 35.442 74.0903 36.306 74.0903 37.302C74.0903 38.274 73.9043 39.126 73.5323 39.858C73.1723 40.578 72.6443 41.136 71.9483 41.532C71.2523 41.928 70.4183 42.126 69.4463 42.126ZM69.4283 40.128C70.0283 40.128 70.5083 39.996 70.8683 39.732C71.2403 39.468 71.5103 39.12 71.6783 38.688C71.8463 38.256 71.9303 37.788 71.9303 37.284C71.9303 36.78 71.8463 36.306 71.6783 35.862C71.5103 35.418 71.2403 35.064 70.8683 34.8C70.5083 34.524 70.0283 34.386 69.4283 34.386C68.8283 34.386 68.3423 34.524 67.9703 34.8C67.5983 35.064 67.3283 35.418 67.1603 35.862C66.9923 36.294 66.9083 36.768 66.9083 37.284C66.9083 37.788 66.9923 38.262 67.1603 38.706C67.3403 39.138 67.6103 39.486 67.9703 39.75C68.3423 40.002 68.8283 40.128 69.4283 40.128ZM75.8846 42V32.514H77.9006L78.0446 33.594C78.2846 33.27 78.5426 33.024 78.8186 32.856C79.1066 32.676 79.4006 32.55 79.7006 32.478C80.0126 32.406 80.3066 32.37 80.5826 32.37C81.1826 32.37 81.6926 32.49 82.1126 32.73C82.5446 32.97 82.8806 33.33 83.1206 33.81C83.3606 33.474 83.6306 33.204 83.9306 33C84.2306 32.784 84.5486 32.628 84.8846 32.532C85.2206 32.424 85.5746 32.37 85.9466 32.37C86.6786 32.37 87.2666 32.526 87.7106 32.838C88.1546 33.138 88.4786 33.558 88.6826 34.098C88.8866 34.626 88.9886 35.232 88.9886 35.916V42H86.7926V36.618C86.7926 36.378 86.7806 36.126 86.7566 35.862C86.7326 35.598 86.6666 35.352 86.5586 35.124C86.4626 34.896 86.3186 34.71 86.1266 34.566C85.9346 34.422 85.6646 34.35 85.3166 34.35C84.9686 34.35 84.6806 34.428 84.4526 34.584C84.2366 34.728 84.0566 34.926 83.9126 35.178C83.7806 35.418 83.6846 35.688 83.6246 35.988C83.5766 36.276 83.5526 36.564 83.5526 36.852V42H81.3566V36.6C81.3566 36.372 81.3386 36.132 81.3026 35.88C81.2786 35.616 81.2186 35.37 81.1226 35.142C81.0386 34.902 80.8946 34.71 80.6906 34.566C80.4986 34.422 80.2286 34.35 79.8806 34.35C79.3766 34.35 78.9926 34.488 78.7286 34.764C78.4766 35.04 78.3026 35.376 78.2066 35.772C78.1226 36.168 78.0806 36.546 78.0806 36.906V42H75.8846ZM95.3033 42.126C94.3193 42.126 93.4793 41.922 92.7833 41.514C92.0993 41.106 91.5773 40.542 91.2173 39.822C90.8693 39.09 90.6953 38.244 90.6953 37.284C90.6953 36.324 90.8753 35.478 91.2353 34.746C91.6073 34.002 92.1353 33.42 92.8193 33C93.5153 32.58 94.3493 32.37 95.3213 32.37C96.0413 32.37 96.6713 32.502 97.2113 32.766C97.7513 33.018 98.2013 33.366 98.5613 33.81C98.9333 34.254 99.2093 34.758 99.3893 35.322C99.5693 35.886 99.6533 36.48 99.6413 37.104C99.6293 37.248 99.6173 37.392 99.6053 37.536C99.5933 37.668 99.5753 37.812 99.5513 37.968H92.8913C92.9273 38.388 93.0353 38.772 93.2153 39.12C93.4073 39.468 93.6713 39.744 94.0073 39.948C94.3553 40.152 94.7873 40.254 95.3033 40.254C95.6033 40.254 95.8913 40.218 96.1673 40.146C96.4433 40.062 96.6833 39.942 96.8873 39.786C97.1033 39.63 97.2473 39.432 97.3193 39.192H99.5153C99.3593 39.876 99.0713 40.434 98.6513 40.866C98.2313 41.298 97.7273 41.616 97.1393 41.82C96.5633 42.024 95.9513 42.126 95.3033 42.126ZM92.9273 36.33H97.4993C97.4993 35.934 97.4093 35.574 97.2293 35.25C97.0493 34.926 96.7913 34.674 96.4553 34.494C96.1313 34.302 95.7353 34.206 95.2673 34.206C94.7633 34.206 94.3433 34.308 94.0073 34.512C93.6713 34.716 93.4133 34.98 93.2333 35.304C93.0533 35.628 92.9513 35.97 92.9273 36.33ZM101.427 42V32.514H103.425L103.551 33.756C103.791 33.396 104.061 33.12 104.361 32.928C104.673 32.724 105.003 32.58 105.351 32.496C105.711 32.412 106.071 32.37 106.431 32.37C106.563 32.37 106.683 32.37 106.791 32.37C106.911 32.37 107.007 32.376 107.079 32.388V34.476H106.503C105.879 34.476 105.351 34.596 104.919 34.836C104.487 35.076 104.163 35.418 103.947 35.862C103.731 36.306 103.623 36.852 103.623 37.5V42H101.427ZM118.546 42.144C117.694 42.144 116.89 42.018 116.134 41.766C115.39 41.502 114.766 41.088 114.262 40.524C113.758 39.948 113.428 39.198 113.272 38.274H115.558C115.702 38.742 115.93 39.108 116.242 39.372C116.566 39.636 116.944 39.822 117.376 39.93C117.808 40.026 118.246 40.074 118.69 40.074C119.086 40.074 119.458 40.026 119.806 39.93C120.166 39.822 120.46 39.648 120.688 39.408C120.928 39.168 121.048 38.85 121.048 38.454C121.048 38.154 120.982 37.914 120.85 37.734C120.73 37.542 120.556 37.386 120.328 37.266C120.112 37.134 119.848 37.032 119.536 36.96C119.236 36.864 118.912 36.78 118.564 36.708C118.216 36.636 117.874 36.558 117.538 36.474C117.202 36.39 116.884 36.282 116.584 36.15C116.2 36.018 115.828 35.868 115.468 35.7C115.12 35.52 114.814 35.304 114.55 35.052C114.298 34.8 114.094 34.488 113.938 34.116C113.782 33.744 113.704 33.3 113.704 32.784C113.704 32.196 113.8 31.692 113.992 31.272C114.196 30.84 114.46 30.486 114.784 30.21C115.12 29.934 115.492 29.718 115.9 29.562C116.32 29.406 116.752 29.292 117.196 29.22C117.652 29.148 118.084 29.112 118.492 29.112C119.284 29.112 120.004 29.244 120.652 29.508C121.312 29.772 121.852 30.18 122.272 30.732C122.692 31.284 122.932 31.992 122.992 32.856H120.814C120.766 32.448 120.622 32.124 120.382 31.884C120.142 31.632 119.842 31.452 119.482 31.344C119.122 31.224 118.732 31.164 118.312 31.164C118.024 31.164 117.736 31.188 117.448 31.236C117.172 31.284 116.92 31.368 116.692 31.488C116.476 31.608 116.296 31.77 116.152 31.974C116.02 32.166 115.954 32.412 115.954 32.712C115.954 32.976 116.02 33.21 116.152 33.414C116.284 33.606 116.464 33.768 116.692 33.9C116.932 34.032 117.214 34.152 117.538 34.26C117.958 34.428 118.414 34.554 118.906 34.638C119.41 34.722 119.884 34.836 120.328 34.98C120.76 35.1 121.156 35.25 121.516 35.43C121.888 35.598 122.206 35.808 122.47 36.06C122.734 36.3 122.938 36.6 123.082 36.96C123.238 37.308 123.316 37.728 123.316 38.22C123.316 38.94 123.184 39.552 122.92 40.056C122.668 40.548 122.314 40.95 121.858 41.262C121.414 41.574 120.904 41.802 120.328 41.946C119.764 42.078 119.17 42.144 118.546 42.144ZM129.566 42.126C128.582 42.126 127.742 41.922 127.046 41.514C126.362 41.106 125.84 40.542 125.48 39.822C125.132 39.09 124.958 38.244 124.958 37.284C124.958 36.324 125.138 35.478 125.498 34.746C125.87 34.002 126.398 33.42 127.082 33C127.778 32.58 128.612 32.37 129.584 32.37C130.304 32.37 130.934 32.502 131.474 32.766C132.014 33.018 132.464 33.366 132.824 33.81C133.196 34.254 133.472 34.758 133.652 35.322C133.832 35.886 133.916 36.48 133.904 37.104C133.892 37.248 133.88 37.392 133.868 37.536C133.856 37.668 133.838 37.812 133.814 37.968H127.154C127.19 38.388 127.298 38.772 127.478 39.12C127.67 39.468 127.934 39.744 128.27 39.948C128.618 40.152 129.05 40.254 129.566 40.254C129.866 40.254 130.154 40.218 130.43 40.146C130.706 40.062 130.946 39.942 131.15 39.786C131.366 39.63 131.51 39.432 131.582 39.192H133.778C133.622 39.876 133.334 40.434 132.914 40.866C132.494 41.298 131.99 41.616 131.402 41.82C130.826 42.024 130.214 42.126 129.566 42.126ZM127.19 36.33H131.762C131.762 35.934 131.672 35.574 131.492 35.25C131.312 34.926 131.054 34.674 130.718 34.494C130.394 34.302 129.998 34.206 129.53 34.206C129.026 34.206 128.606 34.308 128.27 34.512C127.934 34.716 127.676 34.98 127.496 35.304C127.316 35.628 127.214 35.97 127.19 36.33ZM140.1 46.338C139.404 46.338 138.75 46.224 138.138 45.996C137.538 45.78 137.028 45.432 136.608 44.952C136.2 44.484 135.924 43.878 135.78 43.134H138.03C138.102 43.422 138.246 43.656 138.462 43.836C138.678 44.016 138.93 44.142 139.218 44.214C139.518 44.298 139.824 44.34 140.136 44.34C140.724 44.34 141.186 44.22 141.522 43.98C141.87 43.74 142.116 43.41 142.26 42.99C142.404 42.582 142.476 42.132 142.476 41.64V40.74C142.26 41.088 141.984 41.364 141.648 41.568C141.324 41.772 140.976 41.916 140.604 42C140.244 42.072 139.884 42.108 139.524 42.108C138.54 42.108 137.736 41.892 137.112 41.46C136.5 41.028 136.05 40.452 135.762 39.732C135.474 39 135.33 38.196 135.33 37.32C135.33 36.408 135.486 35.58 135.798 34.836C136.122 34.08 136.602 33.48 137.238 33.036C137.886 32.592 138.696 32.37 139.668 32.37C140.232 32.37 140.76 32.472 141.252 32.676C141.756 32.868 142.176 33.162 142.512 33.558L142.656 32.514H144.69V41.172C144.69 42.24 144.534 43.158 144.222 43.926C143.922 44.706 143.436 45.3 142.764 45.708C142.092 46.128 141.204 46.338 140.1 46.338ZM139.974 40.164C140.538 40.164 141.006 40.032 141.378 39.768C141.75 39.492 142.032 39.132 142.224 38.688C142.416 38.232 142.512 37.74 142.512 37.212C142.512 36.672 142.416 36.186 142.224 35.754C142.044 35.322 141.768 34.98 141.396 34.728C141.036 34.476 140.568 34.35 139.992 34.35C139.38 34.35 138.894 34.488 138.534 34.764C138.174 35.04 137.91 35.406 137.742 35.862C137.586 36.306 137.508 36.78 137.508 37.284C137.508 37.812 137.592 38.298 137.76 38.742C137.928 39.174 138.192 39.522 138.552 39.786C138.912 40.038 139.386 40.164 139.974 40.164ZM146.853 42V32.514H148.869L149.013 33.594C149.253 33.27 149.511 33.024 149.787 32.856C150.075 32.676 150.369 32.55 150.669 32.478C150.981 32.406 151.275 32.37 151.551 32.37C152.151 32.37 152.661 32.49 153.081 32.73C153.513 32.97 153.849 33.33 154.089 33.81C154.329 33.474 154.599 33.204 154.899 33C155.199 32.784 155.517 32.628 155.853 32.532C156.189 32.424 156.543 32.37 156.915 32.37C157.647 32.37 158.235 32.526 158.679 32.838C159.123 33.138 159.447 33.558 159.651 34.098C159.855 34.626 159.957 35.232 159.957 35.916V42H157.761V36.618C157.761 36.378 157.749 36.126 157.725 35.862C157.701 35.598 157.635 35.352 157.527 35.124C157.431 34.896 157.287 34.71 157.095 34.566C156.903 34.422 156.633 34.35 156.285 34.35C155.937 34.35 155.649 34.428 155.421 34.584C155.205 34.728 155.025 34.926 154.881 35.178C154.749 35.418 154.653 35.688 154.593 35.988C154.545 36.276 154.521 36.564 154.521 36.852V42H152.325V36.6C152.325 36.372 152.307 36.132 152.271 35.88C152.247 35.616 152.187 35.37 152.091 35.142C152.007 34.902 151.863 34.71 151.659 34.566C151.467 34.422 151.197 34.35 150.849 34.35C150.345 34.35 149.961 34.488 149.697 34.764C149.445 35.04 149.271 35.376 149.175 35.772C149.091 36.168 149.049 36.546 149.049 36.906V42H146.853ZM166.272 42.126C165.288 42.126 164.448 41.922 163.752 41.514C163.068 41.106 162.546 40.542 162.186 39.822C161.838 39.09 161.664 38.244 161.664 37.284C161.664 36.324 161.844 35.478 162.204 34.746C162.576 34.002 163.104 33.42 163.788 33C164.484 32.58 165.318 32.37 166.29 32.37C167.01 32.37 167.64 32.502 168.18 32.766C168.72 33.018 169.17 33.366 169.53 33.81C169.902 34.254 170.178 34.758 170.358 35.322C170.538 35.886 170.622 36.48 170.61 37.104C170.598 37.248 170.586 37.392 170.574 37.536C170.562 37.668 170.544 37.812 170.52 37.968H163.86C163.896 38.388 164.004 38.772 164.184 39.12C164.376 39.468 164.64 39.744 164.976 39.948C165.324 40.152 165.756 40.254 166.272 40.254C166.572 40.254 166.86 40.218 167.136 40.146C167.412 40.062 167.652 39.942 167.856 39.786C168.072 39.63 168.216 39.432 168.288 39.192H170.484C170.328 39.876 170.04 40.434 169.62 40.866C169.2 41.298 168.696 41.616 168.108 41.82C167.532 42.024 166.92 42.126 166.272 42.126ZM163.896 36.33H168.468C168.468 35.934 168.378 35.574 168.198 35.25C168.018 34.926 167.76 34.674 167.424 34.494C167.1 34.302 166.704 34.206 166.236 34.206C165.732 34.206 165.312 34.308 164.976 34.512C164.64 34.716 164.382 34.98 164.202 35.304C164.022 35.628 163.92 35.97 163.896 36.33ZM172.396 42V32.514H174.448L174.574 33.72C174.826 33.384 175.12 33.12 175.456 32.928C175.792 32.736 176.146 32.598 176.518 32.514C176.89 32.418 177.238 32.37 177.562 32.37C178.462 32.37 179.17 32.568 179.686 32.964C180.214 33.36 180.586 33.888 180.802 34.548C181.018 35.208 181.126 35.946 181.126 36.762V42H178.93V37.122C178.93 36.774 178.906 36.438 178.858 36.114C178.81 35.778 178.714 35.478 178.57 35.214C178.438 34.95 178.246 34.74 177.994 34.584C177.742 34.428 177.406 34.35 176.986 34.35C176.47 34.35 176.032 34.488 175.672 34.764C175.312 35.04 175.042 35.412 174.862 35.88C174.682 36.336 174.592 36.858 174.592 37.446V42H172.396ZM187.005 42.108C185.961 42.108 185.199 41.82 184.719 41.244C184.239 40.668 183.999 39.87 183.999 38.85V34.458H182.541V32.514H183.999V29.85H186.195V32.514H189.075V34.458H186.195V38.436C186.195 38.748 186.231 39.03 186.303 39.282C186.375 39.534 186.507 39.732 186.699 39.876C186.891 40.02 187.155 40.098 187.491 40.11C187.779 40.11 188.025 40.062 188.229 39.966C188.433 39.87 188.601 39.762 188.733 39.642L189.471 41.316C189.243 41.508 188.985 41.664 188.697 41.784C188.421 41.904 188.139 41.988 187.851 42.036C187.563 42.084 187.281 42.108 187.005 42.108ZM193.721 42.126C193.277 42.126 192.857 42.066 192.461 41.946C192.065 41.826 191.711 41.652 191.399 41.424C191.087 41.184 190.835 40.89 190.643 40.542C190.463 40.182 190.373 39.762 190.373 39.282C190.373 38.67 190.493 38.172 190.733 37.788C190.973 37.392 191.297 37.092 191.705 36.888C192.125 36.684 192.599 36.546 193.127 36.474C193.655 36.39 194.207 36.348 194.783 36.348H196.637C196.637 35.928 196.571 35.568 196.439 35.268C196.307 34.956 196.097 34.71 195.809 34.53C195.533 34.35 195.173 34.26 194.729 34.26C194.441 34.26 194.171 34.296 193.919 34.368C193.679 34.428 193.469 34.53 193.289 34.674C193.121 34.806 193.001 34.98 192.929 35.196H190.679C190.763 34.704 190.931 34.284 191.183 33.936C191.447 33.576 191.765 33.282 192.137 33.054C192.521 32.826 192.941 32.658 193.397 32.55C193.853 32.43 194.315 32.37 194.783 32.37C196.163 32.37 197.165 32.766 197.789 33.558C198.425 34.35 198.743 35.46 198.743 36.888V42H196.799L196.745 40.776C196.469 41.184 196.139 41.484 195.755 41.676C195.371 41.868 194.999 41.988 194.639 42.036C194.279 42.096 193.973 42.126 193.721 42.126ZM194.153 40.344C194.633 40.344 195.059 40.254 195.431 40.074C195.803 39.894 196.097 39.642 196.313 39.318C196.541 38.994 196.655 38.622 196.655 38.202V37.896H194.927C194.639 37.896 194.351 37.908 194.063 37.932C193.787 37.944 193.535 37.992 193.307 38.076C193.079 38.148 192.893 38.262 192.749 38.418C192.617 38.574 192.551 38.796 192.551 39.084C192.551 39.372 192.623 39.606 192.767 39.786C192.923 39.966 193.121 40.104 193.361 40.2C193.613 40.296 193.877 40.344 194.153 40.344ZM205.015 42C204.247 42 203.611 41.898 203.107 41.694C202.615 41.49 202.243 41.16 201.991 40.704C201.751 40.248 201.631 39.636 201.631 38.868V34.458H200.173V32.514H201.631V29.868H203.827V32.514H206.041V34.458H203.827V38.58C203.827 39.06 203.911 39.426 204.079 39.678C204.247 39.93 204.625 40.056 205.213 40.056H205.969V42H205.015ZM207.538 42V32.514H209.734V42H207.538ZM208.636 31.416C208.216 31.416 207.88 31.29 207.628 31.038C207.376 30.786 207.25 30.456 207.25 30.048C207.25 29.652 207.382 29.328 207.646 29.076C207.91 28.812 208.24 28.68 208.636 28.68C209.02 28.68 209.35 28.806 209.626 29.058C209.902 29.31 210.04 29.64 210.04 30.048C210.04 30.456 209.908 30.786 209.644 31.038C209.38 31.29 209.044 31.416 208.636 31.416ZM216.236 42.126C215.264 42.126 214.424 41.928 213.716 41.532C213.02 41.136 212.48 40.572 212.096 39.84C211.724 39.108 211.538 38.25 211.538 37.266C211.538 36.27 211.73 35.412 212.114 34.692C212.498 33.96 213.038 33.39 213.734 32.982C214.43 32.574 215.264 32.37 216.236 32.37C217.196 32.37 218.024 32.574 218.72 32.982C219.416 33.39 219.95 33.966 220.322 34.71C220.694 35.442 220.88 36.306 220.88 37.302C220.88 38.274 220.694 39.126 220.322 39.858C219.962 40.578 219.434 41.136 218.738 41.532C218.042 41.928 217.208 42.126 216.236 42.126ZM216.218 40.128C216.818 40.128 217.298 39.996 217.658 39.732C218.03 39.468 218.3 39.12 218.468 38.688C218.636 38.256 218.72 37.788 218.72 37.284C218.72 36.78 218.636 36.306 218.468 35.862C218.3 35.418 218.03 35.064 217.658 34.8C217.298 34.524 216.818 34.386 216.218 34.386C215.618 34.386 215.132 34.524 214.76 34.8C214.388 35.064 214.118 35.418 213.95 35.862C213.782 36.294 213.698 36.768 213.698 37.284C213.698 37.788 213.782 38.262 213.95 38.706C214.13 39.138 214.4 39.486 214.76 39.75C215.132 40.002 215.618 40.128 216.218 40.128ZM222.675 42V32.514H224.727L224.853 33.72C225.105 33.384 225.399 33.12 225.735 32.928C226.071 32.736 226.425 32.598 226.797 32.514C227.169 32.418 227.517 32.37 227.841 32.37C228.741 32.37 229.449 32.568 229.965 32.964C230.493 33.36 230.865 33.888 231.081 34.548C231.297 35.208 231.405 35.946 231.405 36.762V42H229.209V37.122C229.209 36.774 229.185 36.438 229.137 36.114C229.089 35.778 228.993 35.478 228.849 35.214C228.717 34.95 228.525 34.74 228.273 34.584C228.021 34.428 227.685 34.35 227.265 34.35C226.749 34.35 226.311 34.488 225.951 34.764C225.591 35.04 225.321 35.412 225.141 35.88C224.961 36.336 224.871 36.858 224.871 37.446V42H222.675Z" fill="#030E09"/>
<path d="M136.5 88.6875C136.5 87.4794 137.48 86.4964 138.687 86.5342C149.063 86.8585 159.246 89.4869 168.495 94.2398C178.393 99.3262 186.935 106.699 193.414 115.747C199.893 124.796 204.121 135.258 205.748 146.267C207.375 157.276 206.353 168.514 202.769 179.05C199.184 189.585 193.139 199.114 185.135 206.845C177.131 214.577 167.399 220.29 156.746 223.508C146.093 226.727 134.826 227.359 123.88 225.353C113.652 223.478 103.979 219.35 95.5591 213.279C94.5792 212.572 94.4024 211.196 95.1392 210.238L103.025 199.993C103.762 199.035 105.133 198.861 106.12 199.557C112.354 203.956 119.478 206.954 127 208.333C135.24 209.843 143.722 209.367 151.741 206.944C159.761 204.521 167.087 200.221 173.112 194.4C179.138 188.579 183.688 181.406 186.387 173.475C189.086 165.544 189.855 157.084 188.63 148.797C187.405 140.509 184.222 132.633 179.345 125.822C174.468 119.01 168.037 113.46 160.586 109.63C153.784 106.135 146.31 104.166 138.687 103.849C137.48 103.799 136.5 102.825 136.5 101.617V88.6875Z" fill="#053B25"/>
<path d="M92.7517 208.313C91.9723 209.236 90.5896 209.355 89.6913 208.548C80.7129 200.473 73.9661 190.204 70.1236 178.73C66.281 167.256 65.482 154.995 67.7864 143.142C68.017 141.956 69.1925 141.218 70.3706 141.485L82.9787 144.348C84.1569 144.616 84.8903 145.787 84.672 146.975C83.0624 155.733 83.6965 164.769 86.5318 173.235C89.3671 181.701 94.3029 189.296 100.862 195.318C101.752 196.135 101.872 197.512 101.093 198.435L92.7517 208.313Z" fill="#F6B51E"/>
<path d="M70.9482 139.136C69.7804 138.827 69.0811 137.628 69.4268 136.47C73.4445 123.016 81.4225 111.062 92.3442 102.184C103.266 93.305 116.596 87.9359 130.588 86.7501C131.792 86.6481 132.823 87.5774 132.887 88.7838L133.576 101.694C133.64 102.901 132.714 103.926 131.511 104.041C121.175 105.024 111.341 109.041 103.259 115.611C95.1779 122.181 89.2373 130.987 86.1646 140.904C85.8071 142.058 84.6141 142.756 83.4462 142.447L70.9482 139.136Z" fill="#C2FD75"/>
<path d="M125.374 146V138.68H122.686V137.516H129.322V138.68H126.646V146H125.374ZM132.482 146.072C131.826 146.072 131.27 145.94 130.814 145.676C130.358 145.404 130.01 145.024 129.77 144.536C129.538 144.048 129.422 143.484 129.422 142.844C129.422 142.196 129.542 141.632 129.782 141.152C130.022 140.664 130.37 140.284 130.826 140.012C131.282 139.732 131.838 139.592 132.494 139.592C133.15 139.592 133.706 139.732 134.162 140.012C134.618 140.284 134.962 140.664 135.194 141.152C135.426 141.64 135.542 142.208 135.542 142.856C135.542 143.488 135.422 144.048 135.182 144.536C134.95 145.024 134.606 145.404 134.15 145.676C133.702 145.94 133.146 146.072 132.482 146.072ZM132.482 144.968C132.914 144.968 133.262 144.872 133.526 144.68C133.798 144.488 133.998 144.232 134.126 143.912C134.254 143.584 134.318 143.228 134.318 142.844C134.318 142.46 134.254 142.108 134.126 141.788C133.998 141.468 133.798 141.212 133.526 141.02C133.262 140.82 132.914 140.72 132.482 140.72C132.058 140.72 131.71 140.82 131.438 141.02C131.166 141.212 130.966 141.468 130.838 141.788C130.718 142.108 130.658 142.46 130.658 142.844C130.658 143.236 130.718 143.592 130.838 143.912C130.966 144.232 131.166 144.488 131.438 144.68C131.71 144.872 132.058 144.968 132.482 144.968ZM139.282 146.072C138.602 146.072 138.114 145.888 137.818 145.52C137.53 145.144 137.386 144.62 137.386 143.948V140.78H136.378V139.676H137.386V137.84H138.622V139.676H140.554V140.78H138.622V143.744C138.622 143.968 138.642 144.172 138.682 144.356C138.73 144.54 138.818 144.684 138.946 144.788C139.074 144.892 139.258 144.948 139.498 144.956C139.682 144.956 139.842 144.924 139.978 144.86C140.122 144.796 140.238 144.724 140.326 144.644L140.806 145.568C140.654 145.688 140.494 145.788 140.326 145.868C140.166 145.94 139.998 145.992 139.822 146.024C139.646 146.056 139.466 146.072 139.282 146.072ZM143.737 146.072C143.449 146.072 143.169 146.036 142.897 145.964C142.633 145.884 142.397 145.768 142.189 145.616C141.981 145.456 141.813 145.26 141.685 145.028C141.565 144.788 141.505 144.508 141.505 144.188C141.505 143.804 141.577 143.488 141.721 143.24C141.873 142.984 142.073 142.788 142.321 142.652C142.569 142.508 142.853 142.408 143.173 142.352C143.501 142.288 143.841 142.256 144.193 142.256H145.741C145.741 141.944 145.693 141.672 145.597 141.44C145.501 141.2 145.349 141.016 145.141 140.888C144.941 140.752 144.673 140.684 144.337 140.684C144.137 140.684 143.945 140.708 143.761 140.756C143.585 140.796 143.433 140.864 143.305 140.96C143.177 141.056 143.089 141.184 143.041 141.344H141.745C141.793 141.04 141.901 140.78 142.069 140.564C142.237 140.34 142.445 140.156 142.693 140.012C142.941 139.868 143.205 139.764 143.485 139.7C143.773 139.628 144.065 139.592 144.361 139.592C145.273 139.592 145.929 139.86 146.329 140.396C146.737 140.924 146.941 141.652 146.941 142.58V146H145.873L145.825 145.196C145.641 145.444 145.421 145.632 145.165 145.76C144.917 145.888 144.669 145.972 144.421 146.012C144.173 146.052 143.945 146.072 143.737 146.072ZM143.929 145.028C144.289 145.028 144.605 144.968 144.877 144.848C145.149 144.72 145.361 144.54 145.513 144.308C145.665 144.068 145.741 143.788 145.741 143.468V143.204H144.613C144.381 143.204 144.153 143.212 143.929 143.228C143.713 143.236 143.513 143.268 143.329 143.324C143.153 143.372 143.009 143.456 142.897 143.576C142.793 143.696 142.741 143.868 142.741 144.092C142.741 144.308 142.797 144.484 142.909 144.62C143.021 144.756 143.169 144.86 143.353 144.932C143.537 144.996 143.729 145.028 143.929 145.028ZM148.449 146V137.516H149.685V146H148.449Z" fill="#030E09" fill-opacity="0.6"/>
<path d="M114.46 172.16C113.833 172.16 113.213 172.087 112.6 171.94C111.987 171.793 111.427 171.567 110.92 171.26C110.413 170.94 109.987 170.527 109.64 170.02C109.307 169.513 109.093 168.9 109 168.18H111.48C111.6 168.593 111.813 168.92 112.12 169.16C112.44 169.4 112.807 169.58 113.22 169.7C113.633 169.807 114.053 169.86 114.48 169.86C114.787 169.86 115.093 169.833 115.4 169.78C115.707 169.727 115.993 169.627 116.26 169.48C116.527 169.333 116.74 169.127 116.9 168.86C117.06 168.593 117.14 168.247 117.14 167.82C117.14 167.433 117.067 167.113 116.92 166.86C116.787 166.607 116.593 166.413 116.34 166.28C116.1 166.133 115.82 166.033 115.5 165.98C115.193 165.913 114.867 165.88 114.52 165.88H112.96V163.74H113.98C114.367 163.74 114.72 163.7 115.04 163.62C115.36 163.54 115.64 163.427 115.88 163.28C116.12 163.12 116.3 162.92 116.42 162.68C116.553 162.44 116.62 162.153 116.62 161.82C116.62 161.34 116.513 160.967 116.3 160.7C116.1 160.433 115.827 160.247 115.48 160.14C115.133 160.02 114.753 159.96 114.34 159.96C113.967 159.96 113.607 160.02 113.26 160.14C112.913 160.247 112.613 160.413 112.36 160.64C112.107 160.867 111.947 161.153 111.88 161.5H109.44C109.52 160.833 109.713 160.26 110.02 159.78C110.327 159.3 110.707 158.907 111.16 158.6C111.627 158.28 112.147 158.047 112.72 157.9C113.293 157.753 113.887 157.68 114.5 157.68C115.1 157.68 115.673 157.747 116.22 157.88C116.78 158.013 117.273 158.233 117.7 158.54C118.127 158.833 118.467 159.22 118.72 159.7C118.973 160.18 119.1 160.767 119.1 161.46C119.1 161.9 119.027 162.313 118.88 162.7C118.733 163.087 118.52 163.427 118.24 163.72C117.973 164.013 117.647 164.253 117.26 164.44C117.793 164.587 118.24 164.827 118.6 165.16C118.96 165.48 119.227 165.867 119.4 166.32C119.587 166.773 119.68 167.273 119.68 167.82C119.68 168.673 119.52 169.387 119.2 169.96C118.893 170.52 118.48 170.96 117.96 171.28C117.453 171.6 116.893 171.827 116.28 171.96C115.667 172.093 115.06 172.16 114.46 172.16ZM122.588 174.86L121.888 173.8C122.088 173.693 122.295 173.54 122.508 173.34C122.721 173.153 122.915 172.94 123.088 172.7C123.275 172.473 123.401 172.267 123.468 172.08C123.081 172.04 122.748 171.9 122.468 171.66C122.201 171.407 122.068 171.053 122.068 170.6C122.068 170.133 122.228 169.767 122.548 169.5C122.868 169.233 123.228 169.1 123.628 169.1C124.135 169.1 124.535 169.293 124.828 169.68C125.121 170.053 125.268 170.547 125.268 171.16C125.268 171.707 125.135 172.233 124.868 172.74C124.615 173.247 124.281 173.687 123.868 174.06C123.468 174.433 123.041 174.7 122.588 174.86ZM134.55 172V169.32H127.19V167.44L133.87 157.86H137.01V167.06H138.63V169.32H137.01V172H134.55ZM130.07 167.06H134.55V160.48L130.07 167.06ZM139.725 172V169.94L143.665 166.62C143.985 166.353 144.338 166.06 144.725 165.74C145.112 165.42 145.478 165.073 145.825 164.7C146.185 164.313 146.485 163.913 146.725 163.5C146.965 163.087 147.085 162.653 147.085 162.2C147.085 161.52 146.878 160.987 146.465 160.6C146.065 160.213 145.492 160.02 144.745 160.02C144.092 160.02 143.558 160.16 143.145 160.44C142.732 160.72 142.472 161.1 142.365 161.58H139.905C139.998 160.687 140.285 159.96 140.765 159.4C141.258 158.827 141.865 158.4 142.585 158.12C143.305 157.827 144.058 157.68 144.845 157.68C145.738 157.68 146.538 157.847 147.245 158.18C147.952 158.5 148.512 158.98 148.925 159.62C149.352 160.247 149.565 161.013 149.565 161.92C149.565 162.733 149.405 163.467 149.085 164.12C148.778 164.773 148.358 165.373 147.825 165.92C147.305 166.453 146.732 166.98 146.105 167.5L143.405 169.72H149.605V172H139.725ZM157.135 172.16C156.109 172.16 155.235 171.98 154.515 171.62C153.795 171.247 153.215 170.727 152.775 170.06C152.335 169.393 152.009 168.627 151.795 167.76C151.595 166.893 151.495 165.96 151.495 164.96C151.495 163.947 151.595 163 151.795 162.12C152.009 161.24 152.335 160.473 152.775 159.82C153.229 159.153 153.815 158.633 154.535 158.26C155.255 157.873 156.129 157.68 157.155 157.68C158.209 157.68 159.095 157.88 159.815 158.28C160.549 158.68 161.129 159.22 161.555 159.9C161.995 160.58 162.309 161.353 162.495 162.22C162.695 163.087 162.795 163.993 162.795 164.94C162.795 165.873 162.695 166.773 162.495 167.64C162.309 168.507 161.995 169.28 161.555 169.96C161.115 170.64 160.529 171.18 159.795 171.58C159.075 171.967 158.189 172.16 157.135 172.16ZM157.135 169.88C157.815 169.88 158.362 169.72 158.775 169.4C159.202 169.08 159.522 168.673 159.735 168.18C159.949 167.673 160.089 167.133 160.155 166.56C160.235 165.987 160.275 165.447 160.275 164.94C160.275 164.433 160.242 163.9 160.175 163.34C160.109 162.767 159.969 162.227 159.755 161.72C159.542 161.213 159.229 160.8 158.815 160.48C158.402 160.16 157.849 160 157.155 160C156.462 160 155.902 160.16 155.475 160.48C155.062 160.8 154.749 161.213 154.535 161.72C154.322 162.213 154.175 162.747 154.095 163.32C154.029 163.893 153.995 164.433 153.995 164.94C153.995 165.447 154.029 165.987 154.095 166.56C154.162 167.12 154.295 167.653 154.495 168.16C154.709 168.667 155.022 169.08 155.435 169.4C155.862 169.72 156.429 169.88 157.135 169.88Z" fill="#030E09"/>
<rect x="24" y="266.5" width="4" height="15" rx="1" fill="#053B25"/>
<path d="M40.788 279.112C40.144 279.112 39.5373 279.019 38.968 278.832C38.3987 278.645 37.918 278.342 37.526 277.922C37.134 277.502 36.8727 276.947 36.742 276.256H38.268C38.3893 276.648 38.5853 276.956 38.856 277.18C39.1267 277.395 39.4393 277.544 39.794 277.628C40.158 277.712 40.522 277.754 40.886 277.754C41.2313 277.754 41.5533 277.707 41.852 277.614C42.16 277.521 42.412 277.367 42.608 277.152C42.804 276.937 42.902 276.657 42.902 276.312C42.902 276.051 42.8507 275.836 42.748 275.668C42.6453 275.5 42.5007 275.365 42.314 275.262C42.1367 275.15 41.922 275.061 41.67 274.996C41.3807 274.903 41.068 274.823 40.732 274.758C40.4053 274.693 40.0787 274.618 39.752 274.534C39.4347 274.45 39.136 274.343 38.856 274.212C38.6227 274.119 38.394 274.007 38.17 273.876C37.9553 273.736 37.7687 273.573 37.61 273.386C37.4513 273.19 37.3207 272.961 37.218 272.7C37.1247 272.439 37.078 272.14 37.078 271.804C37.078 271.356 37.148 270.973 37.288 270.656C37.4373 270.339 37.6287 270.073 37.862 269.858C38.1047 269.643 38.38 269.475 38.688 269.354C39.0053 269.223 39.3367 269.13 39.682 269.074C40.0273 269.018 40.3633 268.99 40.69 268.99C41.2873 268.99 41.838 269.083 42.342 269.27C42.846 269.457 43.2613 269.755 43.588 270.166C43.924 270.567 44.106 271.099 44.134 271.762H42.692C42.6547 271.407 42.5333 271.127 42.328 270.922C42.132 270.707 41.8847 270.558 41.586 270.474C41.2873 270.381 40.97 270.334 40.634 270.334C40.3913 270.334 40.1487 270.357 39.906 270.404C39.6633 270.441 39.4393 270.516 39.234 270.628C39.038 270.731 38.8793 270.871 38.758 271.048C38.646 271.225 38.59 271.445 38.59 271.706C38.59 271.93 38.6367 272.131 38.73 272.308C38.8233 272.476 38.954 272.621 39.122 272.742C39.2993 272.854 39.4953 272.952 39.71 273.036C40.102 273.185 40.5313 273.302 40.998 273.386C41.4647 273.461 41.9033 273.568 42.314 273.708C42.6127 273.801 42.8927 273.918 43.154 274.058C43.4153 274.189 43.6393 274.352 43.826 274.548C44.0127 274.735 44.1573 274.959 44.26 275.22C44.3627 275.472 44.414 275.766 44.414 276.102C44.414 276.653 44.316 277.124 44.12 277.516C43.924 277.899 43.658 278.207 43.322 278.44C42.986 278.673 42.5987 278.846 42.16 278.958C41.7213 279.061 41.264 279.112 40.788 279.112ZM46.0838 279V271.622H47.4418L47.5258 272.49C47.6938 272.247 47.8805 272.061 48.0858 271.93C48.3005 271.79 48.5292 271.687 48.7718 271.622C49.0145 271.557 49.2618 271.524 49.5138 271.524C50.0085 271.524 50.4145 271.627 50.7318 271.832C51.0585 272.037 51.3105 272.317 51.4878 272.672C51.6652 272.42 51.8658 272.21 52.0898 272.042C52.3138 271.865 52.5612 271.734 52.8318 271.65C53.1025 271.566 53.3918 271.524 53.6998 271.524C54.2505 271.524 54.6938 271.645 55.0298 271.888C55.3752 272.121 55.6225 272.439 55.7718 272.84C55.9305 273.241 56.0098 273.703 56.0098 274.226V279H54.5538V274.8C54.5538 274.576 54.5445 274.352 54.5258 274.128C54.5072 273.904 54.4512 273.694 54.3578 273.498C54.2738 273.293 54.1478 273.129 53.9798 273.008C53.8212 272.877 53.5925 272.812 53.2938 272.812C53.0045 272.812 52.7618 272.877 52.5658 273.008C52.3792 273.139 52.2252 273.316 52.1038 273.54C51.9918 273.755 51.9078 273.988 51.8518 274.24C51.8052 274.492 51.7818 274.744 51.7818 274.996V279H50.3258V274.786C50.3258 274.571 50.3165 274.352 50.2978 274.128C50.2792 273.904 50.2325 273.694 50.1578 273.498C50.0832 273.293 49.9572 273.129 49.7798 273.008C49.6118 272.877 49.3832 272.812 49.0938 272.812C48.6738 272.812 48.3472 272.933 48.1138 273.176C47.8898 273.409 47.7358 273.699 47.6518 274.044C47.5678 274.38 47.5258 274.702 47.5258 275.01V279H46.0838ZM60.0849 279.084C59.7489 279.084 59.4223 279.042 59.1049 278.958C58.7969 278.865 58.5216 278.729 58.2789 278.552C58.0363 278.365 57.8403 278.137 57.6909 277.866C57.5509 277.586 57.4809 277.259 57.4809 276.886C57.4809 276.438 57.5649 276.069 57.7329 275.78C57.9103 275.481 58.1436 275.253 58.4329 275.094C58.7223 274.926 59.0536 274.809 59.4269 274.744C59.8096 274.669 60.2063 274.632 60.6169 274.632H62.4229C62.4229 274.268 62.3669 273.951 62.2549 273.68C62.1429 273.4 61.9656 273.185 61.7229 273.036C61.4896 272.877 61.1769 272.798 60.7849 272.798C60.5516 272.798 60.3276 272.826 60.1129 272.882C59.9076 272.929 59.7303 273.008 59.5809 273.12C59.4316 273.232 59.3289 273.381 59.2729 273.568H57.7609C57.8169 273.213 57.9429 272.91 58.1389 272.658C58.3349 272.397 58.5776 272.182 58.8669 272.014C59.1563 271.846 59.4643 271.725 59.7909 271.65C60.1269 271.566 60.4676 271.524 60.8129 271.524C61.8769 271.524 62.6423 271.837 63.1089 272.462C63.5849 273.078 63.8229 273.927 63.8229 275.01V279H62.5769L62.5209 278.062C62.3063 278.351 62.0496 278.571 61.7509 278.72C61.4616 278.869 61.1723 278.967 60.8829 279.014C60.5936 279.061 60.3276 279.084 60.0849 279.084ZM60.3089 277.866C60.7289 277.866 61.0976 277.796 61.4149 277.656C61.7323 277.507 61.9796 277.297 62.1569 277.026C62.3343 276.746 62.4229 276.419 62.4229 276.046V275.738H61.1069C60.8363 275.738 60.5703 275.747 60.3089 275.766C60.0569 275.775 59.8236 275.813 59.6089 275.878C59.4036 275.934 59.2356 276.032 59.1049 276.172C58.9836 276.312 58.9229 276.513 58.9229 276.774C58.9229 277.026 58.9883 277.231 59.1189 277.39C59.2496 277.549 59.4223 277.67 59.6369 277.754C59.8516 277.829 60.0756 277.866 60.3089 277.866ZM65.5812 279V269.102H67.0232V279H65.5812ZM68.8358 279V269.102H70.2778V279H68.8358ZM76.2262 279V269.102H79.9922C80.4682 269.102 80.9022 269.144 81.2942 269.228C81.6955 269.303 82.0408 269.438 82.3302 269.634C82.6195 269.821 82.8388 270.077 82.9882 270.404C83.1468 270.721 83.2262 271.123 83.2262 271.608C83.2262 272.084 83.1188 272.513 82.9042 272.896C82.6895 273.269 82.3628 273.549 81.9242 273.736C82.5122 273.867 82.9555 274.133 83.2542 274.534C83.5622 274.935 83.7162 275.463 83.7162 276.116C83.7162 276.676 83.6135 277.143 83.4082 277.516C83.2028 277.889 82.9182 278.183 82.5542 278.398C82.1902 278.613 81.7702 278.767 81.2942 278.86C80.8182 278.953 80.3095 279 79.7682 279H76.2262ZM77.7102 277.642H79.8242C80.1042 277.642 80.3842 277.628 80.6642 277.6C80.9442 277.563 81.2008 277.493 81.4342 277.39C81.6768 277.287 81.8682 277.133 82.0082 276.928C82.1575 276.723 82.2322 276.447 82.2322 276.102C82.2322 275.813 82.1762 275.575 82.0642 275.388C81.9522 275.192 81.8028 275.038 81.6162 274.926C81.4295 274.814 81.2102 274.735 80.9582 274.688C80.7155 274.641 80.4635 274.618 80.2022 274.618H77.7102V277.642ZM77.7102 273.344H79.5862C79.9035 273.344 80.1928 273.316 80.4542 273.26C80.7248 273.204 80.9582 273.111 81.1542 272.98C81.3502 272.849 81.4995 272.686 81.6022 272.49C81.7142 272.285 81.7702 272.037 81.7702 271.748C81.7795 271.365 81.6955 271.085 81.5182 270.908C81.3502 270.721 81.1215 270.6 80.8322 270.544C80.5428 270.479 80.2255 270.446 79.8802 270.446H77.7102V273.344ZM88.4217 279.084C87.3857 279.084 86.5924 278.813 86.0417 278.272C85.5004 277.721 85.2297 276.886 85.2297 275.766V271.622H86.6717V275.682C86.6717 276.121 86.7324 276.499 86.8537 276.816C86.9844 277.133 87.1804 277.376 87.4417 277.544C87.703 277.712 88.0344 277.796 88.4357 277.796C88.8557 277.796 89.1917 277.712 89.4437 277.544C89.705 277.367 89.8917 277.119 90.0037 276.802C90.125 276.485 90.1857 276.111 90.1857 275.682V271.622H91.6277V275.766C91.6277 276.905 91.3477 277.745 90.7877 278.286C90.237 278.818 89.4484 279.084 88.4217 279.084ZM96.1511 279.084C95.8058 279.084 95.4604 279.051 95.1151 278.986C94.7698 278.921 94.4478 278.804 94.1491 278.636C93.8504 278.468 93.5984 278.244 93.3931 277.964C93.1878 277.675 93.0571 277.32 93.0011 276.9H94.4711C94.5458 277.124 94.6764 277.306 94.8631 277.446C95.0591 277.586 95.2738 277.689 95.5071 277.754C95.7498 277.819 95.9878 277.852 96.2211 277.852C96.3611 277.852 96.5151 277.843 96.6831 277.824C96.8604 277.805 97.0284 277.763 97.1871 277.698C97.3458 277.633 97.4764 277.539 97.5791 277.418C97.6818 277.287 97.7331 277.115 97.7331 276.9C97.7331 276.732 97.6864 276.592 97.5931 276.48C97.5091 276.368 97.3878 276.279 97.2291 276.214C97.0798 276.139 96.8978 276.083 96.6831 276.046C96.2631 275.953 95.8104 275.864 95.3251 275.78C94.8491 275.687 94.4291 275.528 94.0651 275.304C93.9344 275.22 93.8178 275.127 93.7151 275.024C93.6124 274.912 93.5238 274.786 93.4491 274.646C93.3744 274.506 93.3184 274.357 93.2811 274.198C93.2438 274.039 93.2251 273.867 93.2251 273.68C93.2251 273.297 93.2998 272.971 93.4491 272.7C93.6078 272.429 93.8224 272.21 94.0931 272.042C94.3638 271.865 94.6718 271.734 95.0171 271.65C95.3624 271.566 95.7264 271.524 96.1091 271.524C96.6038 271.524 97.0518 271.603 97.4531 271.762C97.8544 271.921 98.1858 272.154 98.4471 272.462C98.7084 272.77 98.8624 273.157 98.9091 273.624H97.5511C97.4951 273.372 97.3318 273.171 97.0611 273.022C96.7998 272.863 96.4684 272.784 96.0671 272.784C95.9271 272.784 95.7731 272.793 95.6051 272.812C95.4464 272.831 95.2924 272.873 95.1431 272.938C94.9938 273.003 94.8724 273.097 94.7791 273.218C94.6858 273.33 94.6391 273.479 94.6391 273.666C94.6391 273.843 94.6811 273.993 94.7651 274.114C94.8584 274.235 94.9891 274.333 95.1571 274.408C95.3344 274.483 95.5351 274.543 95.7591 274.59C96.0764 274.665 96.4171 274.735 96.7811 274.8C97.1544 274.865 97.4578 274.935 97.6911 275.01C97.9991 275.094 98.2604 275.215 98.4751 275.374C98.6991 275.533 98.8671 275.733 98.9791 275.976C99.1004 276.219 99.1611 276.513 99.1611 276.858C99.1611 277.306 99.0724 277.675 98.8951 277.964C98.7178 278.244 98.4798 278.468 98.1811 278.636C97.8918 278.804 97.5651 278.921 97.2011 278.986C96.8464 279.051 96.4964 279.084 96.1511 279.084ZM100.558 279V271.622H102V279H100.558ZM101.272 270.642C100.992 270.642 100.763 270.558 100.586 270.39C100.418 270.213 100.334 269.989 100.334 269.718C100.334 269.447 100.422 269.228 100.6 269.06C100.777 268.883 101.001 268.794 101.272 268.794C101.524 268.794 101.743 268.883 101.93 269.06C102.126 269.228 102.224 269.447 102.224 269.718C102.224 269.989 102.13 270.213 101.944 270.39C101.766 270.558 101.542 270.642 101.272 270.642ZM103.812 279V271.622H105.184L105.254 272.658C105.441 272.387 105.665 272.173 105.926 272.014C106.188 271.846 106.468 271.725 106.766 271.65C107.065 271.566 107.354 271.524 107.634 271.524C108.344 271.524 108.899 271.678 109.3 271.986C109.711 272.285 110 272.691 110.168 273.204C110.346 273.708 110.434 274.282 110.434 274.926V279H108.978V275.22C108.978 274.921 108.96 274.627 108.922 274.338C108.885 274.049 108.806 273.792 108.684 273.568C108.572 273.335 108.409 273.153 108.194 273.022C107.98 272.882 107.69 272.812 107.326 272.812C106.878 272.812 106.5 272.933 106.192 273.176C105.884 273.419 105.651 273.745 105.492 274.156C105.334 274.567 105.254 275.029 105.254 275.542V279H103.812ZM115.428 279.084C114.654 279.084 114.005 278.925 113.482 278.608C112.96 278.291 112.563 277.852 112.292 277.292C112.031 276.723 111.9 276.069 111.9 275.332C111.9 274.585 112.036 273.927 112.306 273.358C112.586 272.789 112.988 272.341 113.51 272.014C114.042 271.687 114.682 271.524 115.428 271.524C115.998 271.524 116.492 271.631 116.912 271.846C117.332 272.051 117.678 272.331 117.948 272.686C118.228 273.041 118.434 273.437 118.564 273.876C118.695 274.305 118.751 274.753 118.732 275.22C118.732 275.323 118.728 275.421 118.718 275.514C118.709 275.607 118.7 275.705 118.69 275.808H113.356C113.384 276.181 113.478 276.522 113.636 276.83C113.804 277.138 114.038 277.385 114.336 277.572C114.635 277.749 115.004 277.838 115.442 277.838C115.685 277.838 115.918 277.81 116.142 277.754C116.376 277.689 116.581 277.591 116.758 277.46C116.945 277.32 117.076 277.143 117.15 276.928H118.606C118.485 277.423 118.266 277.833 117.948 278.16C117.64 278.477 117.262 278.711 116.814 278.86C116.376 279.009 115.914 279.084 115.428 279.084ZM113.384 274.66H117.304C117.295 274.296 117.211 273.974 117.052 273.694C116.894 273.405 116.674 273.181 116.394 273.022C116.114 272.854 115.778 272.77 115.386 272.77C114.957 272.77 114.598 272.859 114.308 273.036C114.028 273.213 113.809 273.447 113.65 273.736C113.501 274.016 113.412 274.324 113.384 274.66ZM123.005 279.084C122.66 279.084 122.315 279.051 121.969 278.986C121.624 278.921 121.302 278.804 121.003 278.636C120.705 278.468 120.453 278.244 120.247 277.964C120.042 277.675 119.911 277.32 119.855 276.9H121.325C121.4 277.124 121.531 277.306 121.717 277.446C121.913 277.586 122.128 277.689 122.361 277.754C122.604 277.819 122.842 277.852 123.075 277.852C123.215 277.852 123.369 277.843 123.537 277.824C123.715 277.805 123.883 277.763 124.041 277.698C124.2 277.633 124.331 277.539 124.433 277.418C124.536 277.287 124.587 277.115 124.587 276.9C124.587 276.732 124.541 276.592 124.447 276.48C124.363 276.368 124.242 276.279 124.083 276.214C123.934 276.139 123.752 276.083 123.537 276.046C123.117 275.953 122.665 275.864 122.179 275.78C121.703 275.687 121.283 275.528 120.919 275.304C120.789 275.22 120.672 275.127 120.569 275.024C120.467 274.912 120.378 274.786 120.303 274.646C120.229 274.506 120.173 274.357 120.135 274.198C120.098 274.039 120.079 273.867 120.079 273.68C120.079 273.297 120.154 272.971 120.303 272.7C120.462 272.429 120.677 272.21 120.947 272.042C121.218 271.865 121.526 271.734 121.871 271.65C122.217 271.566 122.581 271.524 122.963 271.524C123.458 271.524 123.906 271.603 124.307 271.762C124.709 271.921 125.04 272.154 125.301 272.462C125.563 272.77 125.717 273.157 125.763 273.624H124.405C124.349 273.372 124.186 273.171 123.915 273.022C123.654 272.863 123.323 272.784 122.921 272.784C122.781 272.784 122.627 272.793 122.459 272.812C122.301 272.831 122.147 272.873 121.997 272.938C121.848 273.003 121.727 273.097 121.633 273.218C121.54 273.33 121.493 273.479 121.493 273.666C121.493 273.843 121.535 273.993 121.619 274.114C121.713 274.235 121.843 274.333 122.011 274.408C122.189 274.483 122.389 274.543 122.613 274.59C122.931 274.665 123.271 274.735 123.635 274.8C124.009 274.865 124.312 274.935 124.545 275.01C124.853 275.094 125.115 275.215 125.329 275.374C125.553 275.533 125.721 275.733 125.833 275.976C125.955 276.219 126.015 276.513 126.015 276.858C126.015 277.306 125.927 277.675 125.749 277.964C125.572 278.244 125.334 278.468 125.035 278.636C124.746 278.804 124.419 278.921 124.055 278.986C123.701 279.051 123.351 279.084 123.005 279.084ZM130.17 279.084C129.825 279.084 129.479 279.051 129.134 278.986C128.789 278.921 128.467 278.804 128.168 278.636C127.869 278.468 127.617 278.244 127.412 277.964C127.207 277.675 127.076 277.32 127.02 276.9H128.49C128.565 277.124 128.695 277.306 128.882 277.446C129.078 277.586 129.293 277.689 129.526 277.754C129.769 277.819 130.007 277.852 130.24 277.852C130.38 277.852 130.534 277.843 130.702 277.824C130.879 277.805 131.047 277.763 131.206 277.698C131.365 277.633 131.495 277.539 131.598 277.418C131.701 277.287 131.752 277.115 131.752 276.9C131.752 276.732 131.705 276.592 131.612 276.48C131.528 276.368 131.407 276.279 131.248 276.214C131.099 276.139 130.917 276.083 130.702 276.046C130.282 275.953 129.829 275.864 129.344 275.78C128.868 275.687 128.448 275.528 128.084 275.304C127.953 275.22 127.837 275.127 127.734 275.024C127.631 274.912 127.543 274.786 127.468 274.646C127.393 274.506 127.337 274.357 127.3 274.198C127.263 274.039 127.244 273.867 127.244 273.68C127.244 273.297 127.319 272.971 127.468 272.7C127.627 272.429 127.841 272.21 128.112 272.042C128.383 271.865 128.691 271.734 129.036 271.65C129.381 271.566 129.745 271.524 130.128 271.524C130.623 271.524 131.071 271.603 131.472 271.762C131.873 271.921 132.205 272.154 132.466 272.462C132.727 272.77 132.881 273.157 132.928 273.624H131.57C131.514 273.372 131.351 273.171 131.08 273.022C130.819 272.863 130.487 272.784 130.086 272.784C129.946 272.784 129.792 272.793 129.624 272.812C129.465 272.831 129.311 272.873 129.162 272.938C129.013 273.003 128.891 273.097 128.798 273.218C128.705 273.33 128.658 273.479 128.658 273.666C128.658 273.843 128.7 273.993 128.784 274.114C128.877 274.235 129.008 274.333 129.176 274.408C129.353 274.483 129.554 274.543 129.778 274.59C130.095 274.665 130.436 274.735 130.8 274.8C131.173 274.865 131.477 274.935 131.71 275.01C132.018 275.094 132.279 275.215 132.494 275.374C132.718 275.533 132.886 275.733 132.998 275.976C133.119 276.219 133.18 276.513 133.18 276.858C133.18 277.306 133.091 277.675 132.914 277.964C132.737 278.244 132.499 278.468 132.2 278.636C131.911 278.804 131.584 278.921 131.22 278.986C130.865 279.051 130.515 279.084 130.17 279.084Z" fill="#030E09"/>
<path d="M157.378 279V277.768L160.164 275.388C160.397 275.192 160.654 274.973 160.934 274.73C161.223 274.487 161.499 274.226 161.76 273.946C162.031 273.666 162.25 273.367 162.418 273.05C162.595 272.733 162.684 272.401 162.684 272.056C162.684 271.524 162.521 271.109 162.194 270.81C161.877 270.511 161.443 270.362 160.892 270.362C160.425 270.362 160.029 270.46 159.702 270.656C159.385 270.852 159.175 271.127 159.072 271.482H157.56C157.644 270.913 157.854 270.446 158.19 270.082C158.526 269.718 158.937 269.447 159.422 269.27C159.907 269.083 160.416 268.99 160.948 268.99C161.564 268.99 162.115 269.102 162.6 269.326C163.085 269.55 163.468 269.881 163.748 270.32C164.028 270.749 164.168 271.277 164.168 271.902C164.168 272.49 164.056 273.013 163.832 273.47C163.608 273.927 163.309 274.343 162.936 274.716C162.572 275.089 162.175 275.453 161.746 275.808L159.548 277.642H164.238V279H157.378ZM166.437 280.848L166.031 280.246C166.162 280.162 166.292 280.05 166.423 279.91C166.563 279.779 166.684 279.635 166.787 279.476C166.89 279.327 166.964 279.182 167.011 279.042C166.75 279.023 166.535 278.935 166.367 278.776C166.199 278.617 166.115 278.403 166.115 278.132C166.124 277.843 166.222 277.619 166.409 277.46C166.605 277.292 166.824 277.208 167.067 277.208C167.384 277.208 167.636 277.325 167.823 277.558C168.01 277.782 168.103 278.09 168.103 278.482C168.103 278.818 168.024 279.149 167.865 279.476C167.706 279.803 167.501 280.087 167.249 280.33C166.997 280.573 166.726 280.745 166.437 280.848ZM173.149 279.112C172.729 279.112 172.314 279.065 171.903 278.972C171.492 278.879 171.11 278.734 170.755 278.538C170.41 278.342 170.116 278.081 169.873 277.754C169.64 277.427 169.49 277.031 169.425 276.564H170.923C171.026 276.863 171.194 277.101 171.427 277.278C171.67 277.446 171.94 277.567 172.239 277.642C172.547 277.717 172.855 277.754 173.163 277.754C173.368 277.754 173.588 277.735 173.821 277.698C174.064 277.661 174.288 277.586 174.493 277.474C174.708 277.362 174.88 277.199 175.011 276.984C175.142 276.769 175.207 276.494 175.207 276.158C175.207 275.831 175.146 275.57 175.025 275.374C174.904 275.169 174.74 275.01 174.535 274.898C174.339 274.786 174.115 274.711 173.863 274.674C173.611 274.637 173.35 274.618 173.079 274.618H172.071V273.33H172.701C173 273.33 173.28 273.302 173.541 273.246C173.802 273.181 174.026 273.092 174.213 272.98C174.409 272.859 174.563 272.705 174.675 272.518C174.787 272.322 174.843 272.084 174.843 271.804C174.843 271.412 174.759 271.113 174.591 270.908C174.423 270.693 174.204 270.544 173.933 270.46C173.662 270.376 173.368 270.334 173.051 270.334C172.79 270.334 172.528 270.376 172.267 270.46C172.015 270.535 171.791 270.656 171.595 270.824C171.399 270.992 171.268 271.207 171.203 271.468H169.747C169.803 271.029 169.934 270.656 170.139 270.348C170.354 270.031 170.615 269.769 170.923 269.564C171.24 269.359 171.59 269.214 171.973 269.13C172.356 269.037 172.752 268.99 173.163 268.99C173.583 268.99 173.98 269.037 174.353 269.13C174.736 269.214 175.072 269.359 175.361 269.564C175.65 269.769 175.879 270.04 176.047 270.376C176.224 270.703 176.313 271.104 176.313 271.58C176.313 271.907 176.257 272.21 176.145 272.49C176.042 272.77 175.884 273.017 175.669 273.232C175.464 273.437 175.212 273.61 174.913 273.75C175.314 273.834 175.65 273.988 175.921 274.212C176.192 274.436 176.392 274.711 176.523 275.038C176.663 275.355 176.733 275.71 176.733 276.102C176.733 276.718 176.621 277.222 176.397 277.614C176.173 278.006 175.879 278.309 175.515 278.524C175.16 278.739 174.773 278.893 174.353 278.986C173.933 279.07 173.532 279.112 173.149 279.112ZM179.778 279V271.286H177.79V270.236C178.163 270.208 178.499 270.166 178.798 270.11C179.097 270.045 179.363 269.937 179.596 269.788C179.829 269.629 180.035 269.401 180.212 269.102H181.262V279H179.778ZM187.381 279.112C186.672 279.112 186.07 278.986 185.575 278.734C185.08 278.473 184.679 278.113 184.371 277.656C184.063 277.189 183.834 276.653 183.685 276.046C183.545 275.43 183.475 274.767 183.475 274.058C183.475 273.349 183.545 272.691 183.685 272.084C183.825 271.468 184.049 270.931 184.357 270.474C184.674 270.007 185.08 269.643 185.575 269.382C186.079 269.121 186.681 268.99 187.381 268.99C188.128 268.99 188.748 269.13 189.243 269.41C189.747 269.69 190.148 270.073 190.447 270.558C190.755 271.034 190.97 271.575 191.091 272.182C191.222 272.789 191.287 273.414 191.287 274.058C191.287 274.702 191.222 275.327 191.091 275.934C190.96 276.541 190.746 277.082 190.447 277.558C190.148 278.034 189.747 278.412 189.243 278.692C188.739 278.972 188.118 279.112 187.381 279.112ZM187.381 277.754C187.894 277.754 188.31 277.642 188.627 277.418C188.944 277.185 189.187 276.881 189.355 276.508C189.523 276.135 189.635 275.733 189.691 275.304C189.756 274.875 189.789 274.459 189.789 274.058C189.789 273.666 189.756 273.255 189.691 272.826C189.635 272.387 189.523 271.981 189.355 271.608C189.187 271.235 188.944 270.931 188.627 270.698C188.319 270.465 187.908 270.348 187.395 270.348C186.872 270.348 186.448 270.465 186.121 270.698C185.804 270.931 185.561 271.235 185.393 271.608C185.225 271.981 185.113 272.383 185.057 272.812C185.001 273.241 184.973 273.657 184.973 274.058C184.973 274.459 185.001 274.875 185.057 275.304C185.113 275.733 185.22 276.135 185.379 276.508C185.547 276.881 185.79 277.185 186.107 277.418C186.434 277.642 186.858 277.754 187.381 277.754Z" fill="#030E09"/>
<rect x="199" y="264" width="50" height="20" rx="10" fill="#93D973" fill-opacity="0.15"/>
<path d="M209.82 275.688V273.804H208.02V272.676H209.82V270.792H210.948V272.676H212.76V273.804H210.948V275.688H209.82ZM217.721 277.596C217.137 277.596 216.637 277.488 216.221 277.272C215.805 277.048 215.465 276.744 215.201 276.36C214.937 275.976 214.745 275.54 214.625 275.052C214.505 274.556 214.445 274.04 214.445 273.504C214.445 272.88 214.509 272.292 214.637 271.74C214.765 271.188 214.965 270.7 215.237 270.276C215.517 269.852 215.873 269.52 216.305 269.28C216.745 269.04 217.269 268.92 217.877 268.92C218.309 268.92 218.709 268.996 219.077 269.148C219.453 269.292 219.773 269.512 220.037 269.808C220.301 270.104 220.489 270.476 220.601 270.924H219.329C219.201 270.644 219.001 270.432 218.729 270.288C218.457 270.144 218.165 270.072 217.853 270.072C217.509 270.072 217.213 270.136 216.965 270.264C216.725 270.384 216.521 270.552 216.353 270.768C216.185 270.976 216.049 271.216 215.945 271.488C215.841 271.76 215.765 272.044 215.717 272.34C215.669 272.628 215.645 272.912 215.645 273.192C215.837 272.912 216.053 272.688 216.293 272.52C216.541 272.352 216.805 272.232 217.085 272.16C217.365 272.08 217.641 272.04 217.913 272.04C218.481 272.04 218.969 272.156 219.377 272.388C219.785 272.612 220.101 272.928 220.325 273.336C220.557 273.736 220.673 274.204 220.673 274.74C220.673 275.308 220.545 275.808 220.289 276.24C220.041 276.672 219.693 277.008 219.245 277.248C218.805 277.48 218.297 277.596 217.721 277.596ZM217.709 276.444C218.045 276.444 218.337 276.372 218.585 276.228C218.841 276.084 219.037 275.892 219.173 275.652C219.317 275.404 219.389 275.132 219.389 274.836C219.389 274.524 219.321 274.244 219.185 273.996C219.049 273.748 218.857 273.552 218.609 273.408C218.369 273.256 218.085 273.18 217.757 273.18C217.445 273.18 217.153 273.252 216.881 273.396C216.617 273.532 216.405 273.724 216.245 273.972C216.085 274.212 216.005 274.496 216.005 274.824C216.005 275.12 216.077 275.392 216.221 275.64C216.365 275.88 216.565 276.076 216.821 276.228C217.085 276.372 217.381 276.444 217.709 276.444ZM222.882 277.62C222.642 277.62 222.442 277.544 222.282 277.392C222.13 277.24 222.054 277.04 222.054 276.792C222.054 276.544 222.134 276.344 222.294 276.192C222.454 276.032 222.65 275.952 222.882 275.952C223.114 275.952 223.306 276.032 223.458 276.192C223.618 276.344 223.698 276.544 223.698 276.792C223.698 277.04 223.618 277.24 223.458 277.392C223.306 277.544 223.114 277.62 222.882 277.62ZM225.542 277.5L228.914 270.18H224.57V269.016H230.33V270.012L226.946 277.5H225.542ZM232.248 277.5L237.576 269.016H238.848L233.544 277.5H232.248ZM238.068 277.572C237.676 277.572 237.34 277.488 237.06 277.32C236.788 277.152 236.576 276.924 236.424 276.636C236.28 276.34 236.208 276.004 236.208 275.628C236.208 275.236 236.28 274.896 236.424 274.608C236.576 274.32 236.792 274.096 237.072 273.936C237.352 273.768 237.684 273.684 238.068 273.684C238.452 273.684 238.78 273.764 239.052 273.924C239.324 274.084 239.532 274.312 239.676 274.608C239.82 274.896 239.892 275.232 239.892 275.616C239.892 275.992 239.816 276.328 239.664 276.624C239.52 276.92 239.312 277.152 239.04 277.32C238.768 277.488 238.444 277.572 238.068 277.572ZM238.056 276.588C238.256 276.588 238.416 276.544 238.536 276.456C238.656 276.368 238.74 276.248 238.788 276.096C238.844 275.944 238.872 275.788 238.872 275.628C238.872 275.468 238.844 275.316 238.788 275.172C238.74 275.02 238.656 274.9 238.536 274.812C238.416 274.724 238.256 274.68 238.056 274.68C237.752 274.68 237.536 274.78 237.408 274.98C237.28 275.172 237.216 275.388 237.216 275.628C237.216 275.884 237.28 276.108 237.408 276.3C237.544 276.492 237.76 276.588 238.056 276.588ZM233.088 272.808C232.696 272.808 232.36 272.724 232.08 272.556C231.808 272.388 231.6 272.16 231.456 271.872C231.312 271.576 231.24 271.24 231.24 270.864C231.24 270.472 231.312 270.132 231.456 269.844C231.6 269.556 231.812 269.332 232.092 269.172C232.372 269.004 232.708 268.92 233.1 268.92C233.484 268.92 233.812 269 234.084 269.16C234.356 269.32 234.564 269.548 234.708 269.844C234.852 270.132 234.924 270.468 234.924 270.852C234.924 271.228 234.852 271.564 234.708 271.86C234.564 272.156 234.352 272.388 234.072 272.556C233.8 272.724 233.472 272.808 233.088 272.808ZM233.088 271.824C233.288 271.824 233.444 271.78 233.556 271.692C233.676 271.596 233.764 271.476 233.82 271.332C233.876 271.18 233.904 271.024 233.904 270.864C233.904 270.696 233.876 270.54 233.82 270.396C233.764 270.252 233.676 270.136 233.556 270.048C233.444 269.952 233.288 269.904 233.088 269.904C232.784 269.904 232.564 270.004 232.428 270.204C232.3 270.396 232.236 270.616 232.236 270.864C232.236 271.12 232.3 271.344 232.428 271.536C232.564 271.728 232.784 271.824 233.088 271.824Z" fill="#70C748"/>
<rect x="24" y="302.5" width="4" height="15" rx="1" fill="#F6B51E"/>
<path d="M37.162 315V305.102H43.98V306.46H38.646V309.428H43.364V310.772H38.646V313.642H43.98V315H37.162ZM45.5096 315V307.622H46.8816L46.9516 308.658C47.1383 308.387 47.3623 308.173 47.6236 308.014C47.8849 307.846 48.1649 307.725 48.4636 307.65C48.7623 307.566 49.0516 307.524 49.3316 307.524C50.0409 307.524 50.5963 307.678 50.9976 307.986C51.4083 308.285 51.6976 308.691 51.8656 309.204C52.0429 309.708 52.1316 310.282 52.1316 310.926V315H50.6756V311.22C50.6756 310.921 50.6569 310.627 50.6196 310.338C50.5823 310.049 50.5029 309.792 50.3816 309.568C50.2696 309.335 50.1063 309.153 49.8916 309.022C49.6769 308.882 49.3876 308.812 49.0236 308.812C48.5756 308.812 48.1976 308.933 47.8896 309.176C47.5816 309.419 47.3483 309.745 47.1896 310.156C47.0309 310.567 46.9516 311.029 46.9516 311.542V315H45.5096ZM56.7335 315.084C55.9401 315.084 55.3708 314.869 55.0255 314.44C54.6895 314.001 54.5215 313.39 54.5215 312.606V308.91H53.3455V307.622H54.5215V305.48H55.9635V307.622H58.2175V308.91H55.9635V312.368C55.9635 312.629 55.9868 312.867 56.0335 313.082C56.0895 313.297 56.1921 313.465 56.3415 313.586C56.4908 313.707 56.7055 313.773 56.9855 313.782C57.2001 313.782 57.3868 313.745 57.5455 313.67C57.7135 313.595 57.8488 313.511 57.9515 313.418L58.5115 314.496C58.3341 314.636 58.1475 314.753 57.9515 314.846C57.7648 314.93 57.5688 314.991 57.3635 315.028C57.1581 315.065 56.9481 315.084 56.7335 315.084ZM62.8273 315.084C62.0526 315.084 61.4039 314.925 60.8813 314.608C60.3586 314.291 59.9619 313.852 59.6913 313.292C59.4299 312.723 59.2993 312.069 59.2993 311.332C59.2993 310.585 59.4346 309.927 59.7053 309.358C59.9853 308.789 60.3866 308.341 60.9093 308.014C61.4413 307.687 62.0806 307.524 62.8273 307.524C63.3966 307.524 63.8913 307.631 64.3113 307.846C64.7313 308.051 65.0766 308.331 65.3473 308.686C65.6273 309.041 65.8326 309.437 65.9633 309.876C66.0939 310.305 66.1499 310.753 66.1313 311.22C66.1313 311.323 66.1266 311.421 66.1173 311.514C66.1079 311.607 66.0986 311.705 66.0893 311.808H60.7553C60.7833 312.181 60.8766 312.522 61.0353 312.83C61.2033 313.138 61.4366 313.385 61.7353 313.572C62.0339 313.749 62.4026 313.838 62.8413 313.838C63.0839 313.838 63.3173 313.81 63.5413 313.754C63.7746 313.689 63.9799 313.591 64.1573 313.46C64.3439 313.32 64.4746 313.143 64.5493 312.928H66.0053C65.8839 313.423 65.6646 313.833 65.3473 314.16C65.0393 314.477 64.6613 314.711 64.2133 314.86C63.7746 315.009 63.3126 315.084 62.8273 315.084ZM60.7833 310.66H64.7033C64.6939 310.296 64.6099 309.974 64.4513 309.694C64.2926 309.405 64.0733 309.181 63.7933 309.022C63.5133 308.854 63.1773 308.77 62.7853 308.77C62.3559 308.77 61.9966 308.859 61.7073 309.036C61.4273 309.213 61.2079 309.447 61.0493 309.736C60.8999 310.016 60.8113 310.324 60.7833 310.66ZM67.6463 315V307.622H69.0043L69.0743 308.686C69.261 308.397 69.4757 308.168 69.7183 308C69.961 307.832 70.227 307.711 70.5163 307.636C70.8057 307.561 71.109 307.524 71.4263 307.524C71.5103 307.524 71.5897 307.524 71.6643 307.524C71.739 307.524 71.809 307.524 71.8743 307.524V308.91H71.4263C70.8943 308.91 70.451 309.017 70.0963 309.232C69.751 309.447 69.4943 309.745 69.3263 310.128C69.1677 310.511 69.0883 310.949 69.0883 311.444V315H67.6463ZM72.9927 317.688V307.622H74.3647L74.4347 308.672C74.696 308.289 75.0367 308.005 75.4567 307.818C75.8767 307.622 76.334 307.524 76.8287 307.524C77.566 307.524 78.1727 307.692 78.6487 308.028C79.1247 308.355 79.4794 308.807 79.7127 309.386C79.946 309.955 80.0627 310.595 80.0627 311.304C80.0627 312.032 79.9414 312.681 79.6987 313.25C79.4654 313.819 79.1014 314.267 78.6067 314.594C78.1214 314.921 77.5054 315.084 76.7587 315.084C76.404 315.084 76.0774 315.047 75.7787 314.972C75.4894 314.897 75.2327 314.79 75.0087 314.65C74.794 314.501 74.6027 314.328 74.4347 314.132V317.688H72.9927ZM76.5767 313.796C77.0807 313.796 77.482 313.684 77.7807 313.46C78.0794 313.227 78.294 312.923 78.4247 312.55C78.5554 312.177 78.6207 311.771 78.6207 311.332C78.6207 310.875 78.5507 310.459 78.4107 310.086C78.28 309.703 78.0607 309.4 77.7527 309.176C77.454 308.943 77.0527 308.826 76.5487 308.826C76.0914 308.826 75.704 308.943 75.3867 309.176C75.0694 309.4 74.8267 309.703 74.6587 310.086C74.5 310.469 74.4207 310.884 74.4207 311.332C74.4207 311.789 74.4954 312.209 74.6447 312.592C74.8034 312.965 75.0414 313.259 75.3587 313.474C75.6854 313.689 76.0914 313.796 76.5767 313.796ZM81.5793 315V307.622H82.9373L83.0073 308.686C83.194 308.397 83.4086 308.168 83.6513 308C83.894 307.832 84.16 307.711 84.4493 307.636C84.7386 307.561 85.042 307.524 85.3593 307.524C85.4433 307.524 85.5226 307.524 85.5973 307.524C85.672 307.524 85.742 307.524 85.8073 307.524V308.91H85.3593C84.8273 308.91 84.384 309.017 84.0293 309.232C83.684 309.447 83.4273 309.745 83.2593 310.128C83.1006 310.511 83.0213 310.949 83.0213 311.444V315H81.5793ZM86.9257 315V307.622H88.3677V315H86.9257ZM87.6397 306.642C87.3597 306.642 87.131 306.558 86.9537 306.39C86.7857 306.213 86.7017 305.989 86.7017 305.718C86.7017 305.447 86.7903 305.228 86.9677 305.06C87.145 304.883 87.369 304.794 87.6397 304.794C87.8917 304.794 88.111 304.883 88.2977 305.06C88.4937 305.228 88.5917 305.447 88.5917 305.718C88.5917 305.989 88.4983 306.213 88.3117 306.39C88.1343 306.558 87.9103 306.642 87.6397 306.642ZM92.9382 315.084C92.5929 315.084 92.2476 315.051 91.9022 314.986C91.5569 314.921 91.2349 314.804 90.9362 314.636C90.6376 314.468 90.3856 314.244 90.1802 313.964C89.9749 313.675 89.8442 313.32 89.7882 312.9H91.2582C91.3329 313.124 91.4636 313.306 91.6502 313.446C91.8462 313.586 92.0609 313.689 92.2942 313.754C92.5369 313.819 92.7749 313.852 93.0082 313.852C93.1482 313.852 93.3022 313.843 93.4702 313.824C93.6476 313.805 93.8156 313.763 93.9742 313.698C94.1329 313.633 94.2636 313.539 94.3662 313.418C94.4689 313.287 94.5202 313.115 94.5202 312.9C94.5202 312.732 94.4736 312.592 94.3802 312.48C94.2962 312.368 94.1749 312.279 94.0162 312.214C93.8669 312.139 93.6849 312.083 93.4702 312.046C93.0502 311.953 92.5976 311.864 92.1122 311.78C91.6362 311.687 91.2162 311.528 90.8522 311.304C90.7216 311.22 90.6049 311.127 90.5022 311.024C90.3996 310.912 90.3109 310.786 90.2362 310.646C90.1616 310.506 90.1056 310.357 90.0682 310.198C90.0309 310.039 90.0122 309.867 90.0122 309.68C90.0122 309.297 90.0869 308.971 90.2362 308.7C90.3949 308.429 90.6096 308.21 90.8802 308.042C91.1509 307.865 91.4589 307.734 91.8042 307.65C92.1496 307.566 92.5136 307.524 92.8962 307.524C93.3909 307.524 93.8389 307.603 94.2402 307.762C94.6416 307.921 94.9729 308.154 95.2342 308.462C95.4956 308.77 95.6496 309.157 95.6962 309.624H94.3382C94.2822 309.372 94.1189 309.171 93.8482 309.022C93.5869 308.863 93.2556 308.784 92.8542 308.784C92.7142 308.784 92.5602 308.793 92.3922 308.812C92.2336 308.831 92.0796 308.873 91.9302 308.938C91.7809 309.003 91.6596 309.097 91.5662 309.218C91.4729 309.33 91.4262 309.479 91.4262 309.666C91.4262 309.843 91.4682 309.993 91.5522 310.114C91.6456 310.235 91.7762 310.333 91.9442 310.408C92.1216 310.483 92.3222 310.543 92.5462 310.59C92.8636 310.665 93.2042 310.735 93.5682 310.8C93.9416 310.865 94.2449 310.935 94.4782 311.01C94.7862 311.094 95.0476 311.215 95.2622 311.374C95.4862 311.533 95.6542 311.733 95.7662 311.976C95.8876 312.219 95.9482 312.513 95.9482 312.858C95.9482 313.306 95.8596 313.675 95.6822 313.964C95.5049 314.244 95.2669 314.468 94.9682 314.636C94.6789 314.804 94.3522 314.921 93.9882 314.986C93.6336 315.051 93.2836 315.084 92.9382 315.084ZM100.593 315.084C99.8183 315.084 99.1696 314.925 98.6469 314.608C98.1243 314.291 97.7276 313.852 97.4569 313.292C97.1956 312.723 97.0649 312.069 97.0649 311.332C97.0649 310.585 97.2003 309.927 97.4709 309.358C97.7509 308.789 98.1523 308.341 98.6749 308.014C99.2069 307.687 99.8463 307.524 100.593 307.524C101.162 307.524 101.657 307.631 102.077 307.846C102.497 308.051 102.842 308.331 103.113 308.686C103.393 309.041 103.598 309.437 103.729 309.876C103.86 310.305 103.916 310.753 103.897 311.22C103.897 311.323 103.892 311.421 103.883 311.514C103.874 311.607 103.864 311.705 103.855 311.808H98.5209C98.5489 312.181 98.6423 312.522 98.8009 312.83C98.9689 313.138 99.2023 313.385 99.5009 313.572C99.7996 313.749 100.168 313.838 100.607 313.838C100.85 313.838 101.083 313.81 101.307 313.754C101.54 313.689 101.746 313.591 101.923 313.46C102.11 313.32 102.24 313.143 102.315 312.928H103.771C103.65 313.423 103.43 313.833 103.113 314.16C102.805 314.477 102.427 314.711 101.979 314.86C101.54 315.009 101.078 315.084 100.593 315.084ZM98.5489 310.66H102.469C102.46 310.296 102.376 309.974 102.217 309.694C102.058 309.405 101.839 309.181 101.559 309.022C101.279 308.854 100.943 308.77 100.551 308.77C100.122 308.77 99.7623 308.859 99.4729 309.036C99.1929 309.213 98.9736 309.447 98.8149 309.736C98.6656 310.016 98.5769 310.324 98.5489 310.66Z" fill="#030E09"/>
<path d="M168.354 315.112C167.897 315.112 167.453 315.061 167.024 314.958C166.595 314.855 166.207 314.692 165.862 314.468C165.526 314.235 165.255 313.931 165.05 313.558C164.845 313.185 164.742 312.727 164.742 312.186C164.742 311.813 164.803 311.477 164.924 311.178C165.045 310.87 165.223 310.604 165.456 310.38C165.699 310.156 165.979 309.979 166.296 309.848C165.969 309.671 165.713 309.461 165.526 309.218C165.339 308.966 165.213 308.7 165.148 308.42C165.083 308.14 165.05 307.874 165.05 307.622C165.05 307.146 165.143 306.745 165.33 306.418C165.517 306.082 165.769 305.811 166.086 305.606C166.403 305.391 166.758 305.237 167.15 305.144C167.542 305.041 167.948 304.99 168.368 304.99C168.779 304.99 169.18 305.041 169.572 305.144C169.964 305.237 170.319 305.391 170.636 305.606C170.953 305.821 171.205 306.096 171.392 306.432C171.579 306.768 171.672 307.174 171.672 307.65C171.672 307.893 171.635 308.149 171.56 308.42C171.495 308.691 171.369 308.947 171.182 309.19C170.995 309.433 170.734 309.638 170.398 309.806C170.734 309.937 171.019 310.119 171.252 310.352C171.495 310.585 171.677 310.856 171.798 311.164C171.919 311.472 171.98 311.817 171.98 312.2C171.98 312.732 171.877 313.185 171.672 313.558C171.467 313.931 171.187 314.235 170.832 314.468C170.487 314.692 170.099 314.855 169.67 314.958C169.25 315.061 168.811 315.112 168.354 315.112ZM168.354 313.768C168.578 313.768 168.811 313.745 169.054 313.698C169.297 313.651 169.525 313.572 169.74 313.46C169.955 313.339 170.127 313.175 170.258 312.97C170.398 312.755 170.468 312.489 170.468 312.172C170.468 311.78 170.37 311.472 170.174 311.248C169.978 311.015 169.717 310.847 169.39 310.744C169.073 310.632 168.727 310.576 168.354 310.576C167.99 310.576 167.645 310.632 167.318 310.744C167.001 310.847 166.739 311.015 166.534 311.248C166.338 311.472 166.24 311.78 166.24 312.172C166.24 312.489 166.305 312.755 166.436 312.97C166.576 313.175 166.753 313.339 166.968 313.46C167.192 313.572 167.425 313.651 167.668 313.698C167.911 313.745 168.139 313.768 168.354 313.768ZM168.368 309.344C168.704 309.344 169.003 309.288 169.264 309.176C169.535 309.064 169.754 308.901 169.922 308.686C170.09 308.462 170.174 308.191 170.174 307.874C170.183 307.501 170.104 307.202 169.936 306.978C169.768 306.745 169.544 306.577 169.264 306.474C168.993 306.362 168.69 306.306 168.354 306.306C168.009 306.306 167.696 306.362 167.416 306.474C167.145 306.577 166.931 306.74 166.772 306.964C166.623 307.188 166.548 307.473 166.548 307.818C166.548 308.163 166.632 308.453 166.8 308.686C166.968 308.91 167.187 309.078 167.458 309.19C167.738 309.293 168.041 309.344 168.368 309.344ZM177.399 315.112C176.689 315.112 176.087 314.986 175.593 314.734C175.098 314.473 174.697 314.113 174.389 313.656C174.081 313.189 173.852 312.653 173.703 312.046C173.563 311.43 173.493 310.767 173.493 310.058C173.493 309.349 173.563 308.691 173.703 308.084C173.843 307.468 174.067 306.931 174.375 306.474C174.692 306.007 175.098 305.643 175.593 305.382C176.097 305.121 176.699 304.99 177.399 304.99C178.145 304.99 178.766 305.13 179.261 305.41C179.765 305.69 180.166 306.073 180.465 306.558C180.773 307.034 180.987 307.575 181.109 308.182C181.239 308.789 181.305 309.414 181.305 310.058C181.305 310.702 181.239 311.327 181.109 311.934C180.978 312.541 180.763 313.082 180.465 313.558C180.166 314.034 179.765 314.412 179.261 314.692C178.757 314.972 178.136 315.112 177.399 315.112ZM177.399 313.754C177.912 313.754 178.327 313.642 178.645 313.418C178.962 313.185 179.205 312.881 179.373 312.508C179.541 312.135 179.653 311.733 179.709 311.304C179.774 310.875 179.807 310.459 179.807 310.058C179.807 309.666 179.774 309.255 179.709 308.826C179.653 308.387 179.541 307.981 179.373 307.608C179.205 307.235 178.962 306.931 178.645 306.698C178.337 306.465 177.926 306.348 177.413 306.348C176.89 306.348 176.465 306.465 176.139 306.698C175.821 306.931 175.579 307.235 175.411 307.608C175.243 307.981 175.131 308.383 175.075 308.812C175.019 309.241 174.991 309.657 174.991 310.058C174.991 310.459 175.019 310.875 175.075 311.304C175.131 311.733 175.238 312.135 175.397 312.508C175.565 312.881 175.807 313.185 176.125 313.418C176.451 313.642 176.876 313.754 177.399 313.754ZM186.71 315.112C186.001 315.112 185.399 314.986 184.904 314.734C184.409 314.473 184.008 314.113 183.7 313.656C183.392 313.189 183.163 312.653 183.014 312.046C182.874 311.43 182.804 310.767 182.804 310.058C182.804 309.349 182.874 308.691 183.014 308.084C183.154 307.468 183.378 306.931 183.686 306.474C184.003 306.007 184.409 305.643 184.904 305.382C185.408 305.121 186.01 304.99 186.71 304.99C187.457 304.99 188.077 305.13 188.572 305.41C189.076 305.69 189.477 306.073 189.776 306.558C190.084 307.034 190.299 307.575 190.42 308.182C190.551 308.789 190.616 309.414 190.616 310.058C190.616 310.702 190.551 311.327 190.42 311.934C190.289 312.541 190.075 313.082 189.776 313.558C189.477 314.034 189.076 314.412 188.572 314.692C188.068 314.972 187.447 315.112 186.71 315.112ZM186.71 313.754C187.223 313.754 187.639 313.642 187.956 313.418C188.273 313.185 188.516 312.881 188.684 312.508C188.852 312.135 188.964 311.733 189.02 311.304C189.085 310.875 189.118 310.459 189.118 310.058C189.118 309.666 189.085 309.255 189.02 308.826C188.964 308.387 188.852 307.981 188.684 307.608C188.516 307.235 188.273 306.931 187.956 306.698C187.648 306.465 187.237 306.348 186.724 306.348C186.201 306.348 185.777 306.465 185.45 306.698C185.133 306.931 184.89 307.235 184.722 307.608C184.554 307.981 184.442 308.383 184.386 308.812C184.33 309.241 184.302 309.657 184.302 310.058C184.302 310.459 184.33 310.875 184.386 311.304C184.442 311.733 184.549 312.135 184.708 312.508C184.876 312.881 185.119 313.185 185.436 313.418C185.763 313.642 186.187 313.754 186.71 313.754Z" fill="#030E09"/>
<rect x="198" y="300" width="51" height="20" rx="10" fill="#93D973" fill-opacity="0.15"/>
<path d="M208.82 311.688V309.804H207.02V308.676H208.82V306.792H209.948V308.676H211.76V309.804H209.948V311.688H208.82ZM217.765 313.5V311.856H213.253V310.896L217.333 305.016H219.025V310.704H220.009V311.856H219.025V313.5H217.765ZM214.753 310.704H217.765V306.276L214.753 310.704ZM222.198 313.62C221.958 313.62 221.758 313.544 221.598 313.392C221.446 313.24 221.37 313.04 221.37 312.792C221.37 312.544 221.45 312.344 221.61 312.192C221.77 312.032 221.966 311.952 222.198 311.952C222.43 311.952 222.622 312.032 222.774 312.192C222.934 312.344 223.014 312.544 223.014 312.792C223.014 313.04 222.934 313.24 222.774 313.392C222.622 313.544 222.43 313.62 222.198 313.62ZM224.548 313.5V312.444L226.936 310.404C227.136 310.236 227.356 310.048 227.596 309.84C227.844 309.632 228.08 309.408 228.304 309.168C228.536 308.928 228.724 308.672 228.868 308.4C229.02 308.128 229.096 307.844 229.096 307.548C229.096 307.092 228.956 306.736 228.676 306.48C228.404 306.224 228.032 306.096 227.56 306.096C227.16 306.096 226.82 306.18 226.54 306.348C226.268 306.516 226.088 306.752 226 307.056H224.704C224.776 306.568 224.956 306.168 225.244 305.856C225.532 305.544 225.884 305.312 226.3 305.16C226.716 305 227.152 304.92 227.608 304.92C228.136 304.92 228.608 305.016 229.024 305.208C229.44 305.4 229.768 305.684 230.008 306.06C230.248 306.428 230.368 306.88 230.368 307.416C230.368 307.92 230.272 308.368 230.08 308.76C229.888 309.152 229.632 309.508 229.312 309.828C229 310.148 228.66 310.46 228.292 310.764L226.408 312.336H230.428V313.5H224.548ZM232.69 313.5L238.018 305.016H239.29L233.986 313.5H232.69ZM238.51 313.572C238.118 313.572 237.782 313.488 237.502 313.32C237.23 313.152 237.018 312.924 236.866 312.636C236.722 312.34 236.65 312.004 236.65 311.628C236.65 311.236 236.722 310.896 236.866 310.608C237.018 310.32 237.234 310.096 237.514 309.936C237.794 309.768 238.126 309.684 238.51 309.684C238.894 309.684 239.222 309.764 239.494 309.924C239.766 310.084 239.974 310.312 240.118 310.608C240.262 310.896 240.334 311.232 240.334 311.616C240.334 311.992 240.258 312.328 240.106 312.624C239.962 312.92 239.754 313.152 239.482 313.32C239.21 313.488 238.886 313.572 238.51 313.572ZM238.498 312.588C238.698 312.588 238.858 312.544 238.978 312.456C239.098 312.368 239.182 312.248 239.23 312.096C239.286 311.944 239.314 311.788 239.314 311.628C239.314 311.468 239.286 311.316 239.23 311.172C239.182 311.02 239.098 310.9 238.978 310.812C238.858 310.724 238.698 310.68 238.498 310.68C238.194 310.68 237.978 310.78 237.85 310.98C237.722 311.172 237.658 311.388 237.658 311.628C237.658 311.884 237.722 312.108 237.85 312.3C237.986 312.492 238.202 312.588 238.498 312.588ZM233.53 308.808C233.138 308.808 232.802 308.724 232.522 308.556C232.25 308.388 232.042 308.16 231.898 307.872C231.754 307.576 231.682 307.24 231.682 306.864C231.682 306.472 231.754 306.132 231.898 305.844C232.042 305.556 232.254 305.332 232.534 305.172C232.814 305.004 233.15 304.92 233.542 304.92C233.926 304.92 234.254 305 234.526 305.16C234.798 305.32 235.006 305.548 235.15 305.844C235.294 306.132 235.366 306.468 235.366 306.852C235.366 307.228 235.294 307.564 235.15 307.86C235.006 308.156 234.794 308.388 234.514 308.556C234.242 308.724 233.914 308.808 233.53 308.808ZM233.53 307.824C233.73 307.824 233.886 307.78 233.998 307.692C234.118 307.596 234.206 307.476 234.262 307.332C234.318 307.18 234.346 307.024 234.346 306.864C234.346 306.696 234.318 306.54 234.262 306.396C234.206 306.252 234.118 306.136 233.998 306.048C233.886 305.952 233.73 305.904 233.53 305.904C233.226 305.904 233.006 306.004 232.87 306.204C232.742 306.396 232.678 306.616 232.678 306.864C232.678 307.12 232.742 307.344 232.87 307.536C233.006 307.728 233.226 307.824 233.53 307.824Z" fill="#70C748"/>
<rect x="24" y="338.5" width="4" height="15" rx="1" fill="#C2FD75"/>
<path d="M37.162 351V341.102H38.646V351H37.162ZM40.7245 351V343.622H42.0965L42.1665 344.658C42.3531 344.387 42.5771 344.173 42.8385 344.014C43.0998 343.846 43.3798 343.725 43.6785 343.65C43.9771 343.566 44.2665 343.524 44.5465 343.524C45.2558 343.524 45.8111 343.678 46.2125 343.986C46.6231 344.285 46.9125 344.691 47.0805 345.204C47.2578 345.708 47.3465 346.282 47.3465 346.926V351H45.8905V347.22C45.8905 346.921 45.8718 346.627 45.8345 346.338C45.7971 346.049 45.7178 345.792 45.5965 345.568C45.4845 345.335 45.3211 345.153 45.1065 345.022C44.8918 344.882 44.6025 344.812 44.2385 344.812C43.7905 344.812 43.4125 344.933 43.1045 345.176C42.7965 345.419 42.5631 345.745 42.4045 346.156C42.2458 346.567 42.1665 347.029 42.1665 347.542V351H40.7245ZM52.0743 351.084C51.337 351.084 50.7256 350.921 50.2403 350.594C49.7643 350.258 49.405 349.805 49.1623 349.236C48.929 348.667 48.8123 348.027 48.8123 347.318C48.8123 346.599 48.9336 345.955 49.1763 345.386C49.419 344.807 49.7876 344.355 50.2823 344.028C50.777 343.692 51.4023 343.524 52.1583 343.524C52.4383 343.524 52.7183 343.557 52.9983 343.622C53.2876 343.687 53.5536 343.79 53.7963 343.93C54.0483 344.061 54.263 344.238 54.4403 344.462V341.102H55.8823V351H54.4963L54.4403 349.992C54.2723 350.244 54.0623 350.454 53.8103 350.622C53.5676 350.781 53.297 350.897 52.9983 350.972C52.6996 351.047 52.3916 351.084 52.0743 351.084ZM52.3123 349.796C52.7883 349.796 53.1803 349.679 53.4883 349.446C53.8056 349.213 54.0436 348.905 54.2023 348.522C54.361 348.139 54.4403 347.724 54.4403 347.276C54.4403 346.819 54.361 346.408 54.2023 346.044C54.053 345.671 53.8196 345.377 53.5023 345.162C53.1943 344.938 52.7976 344.826 52.3123 344.826C51.8083 344.826 51.407 344.943 51.1083 345.176C50.8096 345.4 50.5903 345.703 50.4503 346.086C50.3196 346.469 50.2543 346.889 50.2543 347.346C50.2543 347.682 50.2916 347.999 50.3663 348.298C50.441 348.587 50.5576 348.849 50.7163 349.082C50.8843 349.306 51.099 349.483 51.3603 349.614C51.6216 349.735 51.939 349.796 52.3123 349.796ZM57.6789 351V343.622H59.1209V351H57.6789ZM58.3929 342.642C58.1129 342.642 57.8842 342.558 57.7069 342.39C57.5389 342.213 57.4549 341.989 57.4549 341.718C57.4549 341.447 57.5436 341.228 57.7209 341.06C57.8982 340.883 58.1222 340.794 58.3929 340.794C58.6449 340.794 58.8642 340.883 59.0509 341.06C59.2469 341.228 59.3449 341.447 59.3449 341.718C59.3449 341.989 59.2516 342.213 59.0649 342.39C58.8876 342.558 58.6636 342.642 58.3929 342.642ZM62.8795 351L60.1215 343.622H61.7315L63.8595 349.698L65.9735 343.622H67.5975L64.8395 351H62.8795ZM68.563 351V343.622H70.005V351H68.563ZM69.277 342.642C68.997 342.642 68.7683 342.558 68.591 342.39C68.423 342.213 68.339 341.989 68.339 341.718C68.339 341.447 68.4277 341.228 68.605 341.06C68.7823 340.883 69.0063 340.794 69.277 340.794C69.529 340.794 69.7483 340.883 69.935 341.06C70.131 341.228 70.229 341.447 70.229 341.718C70.229 341.989 70.1357 342.213 69.949 342.39C69.7717 342.558 69.5477 342.642 69.277 342.642ZM74.7996 351.084C74.0622 351.084 73.4509 350.921 72.9656 350.594C72.4896 350.258 72.1302 349.805 71.8876 349.236C71.6542 348.667 71.5376 348.027 71.5376 347.318C71.5376 346.599 71.6589 345.955 71.9016 345.386C72.1442 344.807 72.5129 344.355 73.0076 344.028C73.5022 343.692 74.1276 343.524 74.8836 343.524C75.1636 343.524 75.4436 343.557 75.7236 343.622C76.0129 343.687 76.2789 343.79 76.5216 343.93C76.7736 344.061 76.9882 344.238 77.1656 344.462V341.102H78.6076V351H77.2216L77.1656 349.992C76.9976 350.244 76.7876 350.454 76.5356 350.622C76.2929 350.781 76.0222 350.897 75.7236 350.972C75.4249 351.047 75.1169 351.084 74.7996 351.084ZM75.0376 349.796C75.5136 349.796 75.9056 349.679 76.2136 349.446C76.5309 349.213 76.7689 348.905 76.9276 348.522C77.0862 348.139 77.1656 347.724 77.1656 347.276C77.1656 346.819 77.0862 346.408 76.9276 346.044C76.7782 345.671 76.5449 345.377 76.2276 345.162C75.9196 344.938 75.5229 344.826 75.0376 344.826C74.5336 344.826 74.1322 344.943 73.8336 345.176C73.5349 345.4 73.3156 345.703 73.1756 346.086C73.0449 346.469 72.9796 346.889 72.9796 347.346C72.9796 347.682 73.0169 347.999 73.0916 348.298C73.1662 348.587 73.2829 348.849 73.4416 349.082C73.6096 349.306 73.8242 349.483 74.0856 349.614C74.3469 349.735 74.6642 349.796 75.0376 349.796ZM83.5682 351.084C82.5322 351.084 81.7388 350.813 81.1882 350.272C80.6468 349.721 80.3762 348.886 80.3762 347.766V343.622H81.8182V347.682C81.8182 348.121 81.8788 348.499 82.0002 348.816C82.1308 349.133 82.3268 349.376 82.5882 349.544C82.8495 349.712 83.1808 349.796 83.5822 349.796C84.0022 349.796 84.3382 349.712 84.5902 349.544C84.8515 349.367 85.0382 349.119 85.1502 348.802C85.2715 348.485 85.3322 348.111 85.3322 347.682V343.622H86.7742V347.766C86.7742 348.905 86.4942 349.745 85.9342 350.286C85.3835 350.818 84.5948 351.084 83.5682 351.084ZM90.8916 351.084C90.5556 351.084 90.2289 351.042 89.9116 350.958C89.6036 350.865 89.3283 350.729 89.0856 350.552C88.8429 350.365 88.6469 350.137 88.4976 349.866C88.3576 349.586 88.2876 349.259 88.2876 348.886C88.2876 348.438 88.3716 348.069 88.5396 347.78C88.7169 347.481 88.9503 347.253 89.2396 347.094C89.5289 346.926 89.8603 346.809 90.2336 346.744C90.6163 346.669 91.0129 346.632 91.4236 346.632H93.2296C93.2296 346.268 93.1736 345.951 93.0616 345.68C92.9496 345.4 92.7723 345.185 92.5296 345.036C92.2963 344.877 91.9836 344.798 91.5916 344.798C91.3583 344.798 91.1343 344.826 90.9196 344.882C90.7143 344.929 90.5369 345.008 90.3876 345.12C90.2383 345.232 90.1356 345.381 90.0796 345.568H88.5676C88.6236 345.213 88.7496 344.91 88.9456 344.658C89.1416 344.397 89.3843 344.182 89.6736 344.014C89.9629 343.846 90.2709 343.725 90.5976 343.65C90.9336 343.566 91.2743 343.524 91.6196 343.524C92.6836 343.524 93.4489 343.837 93.9156 344.462C94.3916 345.078 94.6296 345.927 94.6296 347.01V351H93.3836L93.3276 350.062C93.1129 350.351 92.8563 350.571 92.5576 350.72C92.2683 350.869 91.9789 350.967 91.6896 351.014C91.4003 351.061 91.1343 351.084 90.8916 351.084ZM91.1156 349.866C91.5356 349.866 91.9043 349.796 92.2216 349.656C92.5389 349.507 92.7863 349.297 92.9636 349.026C93.1409 348.746 93.2296 348.419 93.2296 348.046V347.738H91.9136C91.6429 347.738 91.3769 347.747 91.1156 347.766C90.8636 347.775 90.6303 347.813 90.4156 347.878C90.2103 347.934 90.0423 348.032 89.9116 348.172C89.7903 348.312 89.7296 348.513 89.7296 348.774C89.7296 349.026 89.7949 349.231 89.9256 349.39C90.0563 349.549 90.2289 349.67 90.4436 349.754C90.6583 349.829 90.8823 349.866 91.1156 349.866ZM96.3879 351V341.102H97.8299V351H96.3879ZM102.4 351.084C102.055 351.084 101.71 351.051 101.364 350.986C101.019 350.921 100.697 350.804 100.398 350.636C100.1 350.468 99.8478 350.244 99.6425 349.964C99.4371 349.675 99.3065 349.32 99.2505 348.9H100.72C100.795 349.124 100.926 349.306 101.112 349.446C101.308 349.586 101.523 349.689 101.756 349.754C101.999 349.819 102.237 349.852 102.47 349.852C102.61 349.852 102.764 349.843 102.932 349.824C103.11 349.805 103.278 349.763 103.436 349.698C103.595 349.633 103.726 349.539 103.828 349.418C103.931 349.287 103.982 349.115 103.982 348.9C103.982 348.732 103.936 348.592 103.842 348.48C103.758 348.368 103.637 348.279 103.478 348.214C103.329 348.139 103.147 348.083 102.932 348.046C102.512 347.953 102.06 347.864 101.574 347.78C101.098 347.687 100.678 347.528 100.314 347.304C100.184 347.22 100.067 347.127 99.9645 347.024C99.8618 346.912 99.7731 346.786 99.6985 346.646C99.6238 346.506 99.5678 346.357 99.5305 346.198C99.4931 346.039 99.4745 345.867 99.4745 345.68C99.4745 345.297 99.5491 344.971 99.6985 344.7C99.8571 344.429 100.072 344.21 100.342 344.042C100.613 343.865 100.921 343.734 101.266 343.65C101.612 343.566 101.976 343.524 102.358 343.524C102.853 343.524 103.301 343.603 103.702 343.762C104.104 343.921 104.435 344.154 104.696 344.462C104.958 344.77 105.112 345.157 105.158 345.624H103.8C103.744 345.372 103.581 345.171 103.31 345.022C103.049 344.863 102.718 344.784 102.316 344.784C102.176 344.784 102.022 344.793 101.854 344.812C101.696 344.831 101.542 344.873 101.392 344.938C101.243 345.003 101.122 345.097 101.028 345.218C100.935 345.33 100.888 345.479 100.888 345.666C100.888 345.843 100.93 345.993 101.014 346.114C101.108 346.235 101.238 346.333 101.406 346.408C101.584 346.483 101.784 346.543 102.008 346.59C102.326 346.665 102.666 346.735 103.03 346.8C103.404 346.865 103.707 346.935 103.94 347.01C104.248 347.094 104.51 347.215 104.724 347.374C104.948 347.533 105.116 347.733 105.228 347.976C105.35 348.219 105.41 348.513 105.41 348.858C105.41 349.306 105.322 349.675 105.144 349.964C104.967 350.244 104.729 350.468 104.43 350.636C104.141 350.804 103.814 350.921 103.45 350.986C103.096 351.051 102.746 351.084 102.4 351.084Z" fill="#030E09"/>
<path d="M177.13 351.112C176.71 351.112 176.295 351.065 175.884 350.972C175.473 350.879 175.091 350.734 174.736 350.538C174.391 350.342 174.097 350.081 173.854 349.754C173.621 349.427 173.471 349.031 173.406 348.564H174.904C175.007 348.863 175.175 349.101 175.408 349.278C175.651 349.446 175.921 349.567 176.22 349.642C176.528 349.717 176.836 349.754 177.144 349.754C177.349 349.754 177.569 349.735 177.802 349.698C178.045 349.661 178.269 349.586 178.474 349.474C178.689 349.362 178.861 349.199 178.992 348.984C179.123 348.769 179.188 348.494 179.188 348.158C179.188 347.831 179.127 347.57 179.006 347.374C178.885 347.169 178.721 347.01 178.516 346.898C178.32 346.786 178.096 346.711 177.844 346.674C177.592 346.637 177.331 346.618 177.06 346.618H176.052V345.33H176.682C176.981 345.33 177.261 345.302 177.522 345.246C177.783 345.181 178.007 345.092 178.194 344.98C178.39 344.859 178.544 344.705 178.656 344.518C178.768 344.322 178.824 344.084 178.824 343.804C178.824 343.412 178.74 343.113 178.572 342.908C178.404 342.693 178.185 342.544 177.914 342.46C177.643 342.376 177.349 342.334 177.032 342.334C176.771 342.334 176.509 342.376 176.248 342.46C175.996 342.535 175.772 342.656 175.576 342.824C175.38 342.992 175.249 343.207 175.184 343.468H173.728C173.784 343.029 173.915 342.656 174.12 342.348C174.335 342.031 174.596 341.769 174.904 341.564C175.221 341.359 175.571 341.214 175.954 341.13C176.337 341.037 176.733 340.99 177.144 340.99C177.564 340.99 177.961 341.037 178.334 341.13C178.717 341.214 179.053 341.359 179.342 341.564C179.631 341.769 179.86 342.04 180.028 342.376C180.205 342.703 180.294 343.104 180.294 343.58C180.294 343.907 180.238 344.21 180.126 344.49C180.023 344.77 179.865 345.017 179.65 345.232C179.445 345.437 179.193 345.61 178.894 345.75C179.295 345.834 179.631 345.988 179.902 346.212C180.173 346.436 180.373 346.711 180.504 347.038C180.644 347.355 180.714 347.71 180.714 348.102C180.714 348.718 180.602 349.222 180.378 349.614C180.154 350.006 179.86 350.309 179.496 350.524C179.141 350.739 178.754 350.893 178.334 350.986C177.914 351.07 177.513 351.112 177.13 351.112ZM183.759 351V343.286H181.771V342.236C182.145 342.208 182.481 342.166 182.779 342.11C183.078 342.045 183.344 341.937 183.577 341.788C183.811 341.629 184.016 341.401 184.193 341.102H185.243V351H183.759ZM191.362 351.112C190.653 351.112 190.051 350.986 189.556 350.734C189.062 350.473 188.66 350.113 188.352 349.656C188.044 349.189 187.816 348.653 187.666 348.046C187.526 347.43 187.456 346.767 187.456 346.058C187.456 345.349 187.526 344.691 187.666 344.084C187.806 343.468 188.03 342.931 188.338 342.474C188.656 342.007 189.062 341.643 189.556 341.382C190.06 341.121 190.662 340.99 191.362 340.99C192.109 340.99 192.73 341.13 193.224 341.41C193.728 341.69 194.13 342.073 194.428 342.558C194.736 343.034 194.951 343.575 195.072 344.182C195.203 344.789 195.268 345.414 195.268 346.058C195.268 346.702 195.203 347.327 195.072 347.934C194.942 348.541 194.727 349.082 194.428 349.558C194.13 350.034 193.728 350.412 193.224 350.692C192.72 350.972 192.1 351.112 191.362 351.112ZM191.362 349.754C191.876 349.754 192.291 349.642 192.608 349.418C192.926 349.185 193.168 348.881 193.336 348.508C193.504 348.135 193.616 347.733 193.672 347.304C193.738 346.875 193.77 346.459 193.77 346.058C193.77 345.666 193.738 345.255 193.672 344.826C193.616 344.387 193.504 343.981 193.336 343.608C193.168 343.235 192.926 342.931 192.608 342.698C192.3 342.465 191.89 342.348 191.376 342.348C190.854 342.348 190.429 342.465 190.102 342.698C189.785 342.931 189.542 343.235 189.374 343.608C189.206 343.981 189.094 344.383 189.038 344.812C188.982 345.241 188.954 345.657 188.954 346.058C188.954 346.459 188.982 346.875 189.038 347.304C189.094 347.733 189.202 348.135 189.36 348.508C189.528 348.881 189.771 349.185 190.088 349.418C190.415 349.642 190.84 349.754 191.362 349.754Z" fill="#030E09"/>
<rect x="202" y="336" width="47" height="20" rx="10" fill="#EF4444" fill-opacity="0.15"/>
<path d="M210.84 346.644V345.516H214.68V346.644H210.84ZM217.5 349.5V342.888H215.796V341.988C216.116 341.964 216.404 341.928 216.66 341.88C216.916 341.824 217.144 341.732 217.344 341.604C217.544 341.468 217.72 341.272 217.872 341.016H218.772V349.5H217.5ZM221.616 349.62C221.376 349.62 221.176 349.544 221.016 349.392C220.864 349.24 220.788 349.04 220.788 348.792C220.788 348.544 220.868 348.344 221.028 348.192C221.188 348.032 221.384 347.952 221.616 347.952C221.848 347.952 222.04 348.032 222.192 348.192C222.352 348.344 222.432 348.544 222.432 348.792C222.432 349.04 222.352 349.24 222.192 349.392C222.04 349.544 221.848 349.62 221.616 349.62ZM226.941 349.596C226.549 349.596 226.169 349.552 225.801 349.464C225.433 349.376 225.101 349.236 224.805 349.044C224.517 348.844 224.285 348.584 224.109 348.264C223.933 347.944 223.845 347.552 223.845 347.088C223.845 346.768 223.897 346.48 224.001 346.224C224.105 345.96 224.257 345.732 224.457 345.54C224.665 345.348 224.905 345.196 225.177 345.084C224.897 344.932 224.677 344.752 224.517 344.544C224.357 344.328 224.249 344.1 224.193 343.86C224.137 343.62 224.109 343.392 224.109 343.176C224.109 342.768 224.189 342.424 224.349 342.144C224.509 341.856 224.725 341.624 224.997 341.448C225.269 341.264 225.573 341.132 225.909 341.052C226.245 340.964 226.593 340.92 226.953 340.92C227.305 340.92 227.649 340.964 227.985 341.052C228.321 341.132 228.625 341.264 228.897 341.448C229.169 341.632 229.385 341.868 229.545 342.156C229.705 342.444 229.785 342.792 229.785 343.2C229.785 343.408 229.753 343.628 229.689 343.86C229.633 344.092 229.525 344.312 229.365 344.52C229.205 344.728 228.981 344.904 228.693 345.048C228.981 345.16 229.225 345.316 229.425 345.516C229.633 345.716 229.789 345.948 229.893 346.212C229.997 346.476 230.049 346.772 230.049 347.1C230.049 347.556 229.961 347.944 229.785 348.264C229.609 348.584 229.369 348.844 229.065 349.044C228.769 349.236 228.437 349.376 228.069 349.464C227.709 349.552 227.333 349.596 226.941 349.596ZM226.941 348.444C227.133 348.444 227.333 348.424 227.541 348.384C227.749 348.344 227.945 348.276 228.129 348.18C228.313 348.076 228.461 347.936 228.573 347.76C228.693 347.576 228.753 347.348 228.753 347.076C228.753 346.74 228.669 346.476 228.501 346.284C228.333 346.084 228.109 345.94 227.829 345.852C227.557 345.756 227.261 345.708 226.941 345.708C226.629 345.708 226.333 345.756 226.053 345.852C225.781 345.94 225.557 346.084 225.381 346.284C225.213 346.476 225.129 346.74 225.129 347.076C225.129 347.348 225.185 347.576 225.297 347.76C225.417 347.936 225.569 348.076 225.753 348.18C225.945 348.276 226.145 348.344 226.353 348.384C226.561 348.424 226.757 348.444 226.941 348.444ZM226.953 344.652C227.241 344.652 227.497 344.604 227.721 344.508C227.953 344.412 228.141 344.272 228.285 344.088C228.429 343.896 228.501 343.664 228.501 343.392C228.509 343.072 228.441 342.816 228.297 342.624C228.153 342.424 227.961 342.28 227.721 342.192C227.489 342.096 227.229 342.048 226.941 342.048C226.645 342.048 226.377 342.096 226.137 342.192C225.905 342.28 225.721 342.42 225.585 342.612C225.457 342.804 225.393 343.048 225.393 343.344C225.393 343.64 225.465 343.888 225.609 344.088C225.753 344.28 225.941 344.424 226.173 344.52C226.413 344.608 226.673 344.652 226.953 344.652ZM232.377 349.5L237.705 341.016H238.977L233.673 349.5H232.377ZM238.197 349.572C237.805 349.572 237.469 349.488 237.189 349.32C236.917 349.152 236.705 348.924 236.553 348.636C236.409 348.34 236.337 348.004 236.337 347.628C236.337 347.236 236.409 346.896 236.553 346.608C236.705 346.32 236.921 346.096 237.201 345.936C237.481 345.768 237.813 345.684 238.197 345.684C238.581 345.684 238.909 345.764 239.181 345.924C239.453 346.084 239.661 346.312 239.805 346.608C239.949 346.896 240.021 347.232 240.021 347.616C240.021 347.992 239.945 348.328 239.793 348.624C239.649 348.92 239.441 349.152 239.169 349.32C238.897 349.488 238.573 349.572 238.197 349.572ZM238.185 348.588C238.385 348.588 238.545 348.544 238.665 348.456C238.785 348.368 238.869 348.248 238.917 348.096C238.973 347.944 239.001 347.788 239.001 347.628C239.001 347.468 238.973 347.316 238.917 347.172C238.869 347.02 238.785 346.9 238.665 346.812C238.545 346.724 238.385 346.68 238.185 346.68C237.881 346.68 237.665 346.78 237.537 346.98C237.409 347.172 237.345 347.388 237.345 347.628C237.345 347.884 237.409 348.108 237.537 348.3C237.673 348.492 237.889 348.588 238.185 348.588ZM233.217 344.808C232.825 344.808 232.489 344.724 232.209 344.556C231.937 344.388 231.729 344.16 231.585 343.872C231.441 343.576 231.369 343.24 231.369 342.864C231.369 342.472 231.441 342.132 231.585 341.844C231.729 341.556 231.941 341.332 232.221 341.172C232.501 341.004 232.837 340.92 233.229 340.92C233.613 340.92 233.941 341 234.213 341.16C234.485 341.32 234.693 341.548 234.837 341.844C234.981 342.132 235.053 342.468 235.053 342.852C235.053 343.228 234.981 343.564 234.837 343.86C234.693 344.156 234.481 344.388 234.201 344.556C233.929 344.724 233.601 344.808 233.217 344.808ZM233.217 343.824C233.417 343.824 233.573 343.78 233.685 343.692C233.805 343.596 233.893 343.476 233.949 343.332C234.005 343.18 234.033 343.024 234.033 342.864C234.033 342.696 234.005 342.54 233.949 342.396C233.893 342.252 233.805 342.136 233.685 342.048C233.573 341.952 233.417 341.904 233.217 341.904C232.913 341.904 232.693 342.004 232.557 342.204C232.429 342.396 232.365 342.616 232.365 342.864C232.365 343.12 232.429 343.344 232.557 343.536C232.693 343.728 232.913 343.824 233.217 343.824Z" fill="#EF4444"/>
</svg>
