<svg width="291" height="146" viewBox="0 0 291 146" fill="none" xmlns="http://www.w3.org/2000/svg">
<g clip-path="url(#clip0_123_10096)">
<rect width="291" height="146" rx="16" fill="white"/>
<path d="M27.776 40V30.24H24.192V28.688H33.04V30.24H29.472V40H27.776ZM37.2531 40.096C36.3785 40.096 35.6371 39.92 35.0291 39.568C34.4211 39.2053 33.9571 38.6987 33.6371 38.048C33.3278 37.3973 33.1731 36.6453 33.1731 35.792C33.1731 34.928 33.3331 34.176 33.6531 33.536C33.9731 32.8853 34.4371 32.3787 35.0451 32.016C35.6531 31.6427 36.3945 31.456 37.2691 31.456C38.1438 31.456 38.8851 31.6427 39.4931 32.016C40.1011 32.3787 40.5598 32.8853 40.8691 33.536C41.1785 34.1867 41.3331 34.944 41.3331 35.808C41.3331 36.6507 41.1731 37.3973 40.8531 38.048C40.5438 38.6987 40.0851 39.2053 39.4771 39.568C38.8798 39.92 38.1385 40.096 37.2531 40.096ZM37.2531 38.624C37.8291 38.624 38.2931 38.496 38.6451 38.24C39.0078 37.984 39.2745 37.6427 39.4451 37.216C39.6158 36.7787 39.7011 36.304 39.7011 35.792C39.7011 35.28 39.6158 34.8107 39.4451 34.384C39.2745 33.9573 39.0078 33.616 38.6451 33.36C38.2931 33.0933 37.8291 32.96 37.2531 32.96C36.6878 32.96 36.2238 33.0933 35.8611 33.36C35.4985 33.616 35.2318 33.9573 35.0611 34.384C34.9011 34.8107 34.8211 35.28 34.8211 35.792C34.8211 36.3147 34.9011 36.7893 35.0611 37.216C35.2318 37.6427 35.4985 37.984 35.8611 38.24C36.2238 38.496 36.6878 38.624 37.2531 38.624ZM46.3204 40.096C45.4137 40.096 44.763 39.8507 44.3684 39.36C43.9844 38.8587 43.7924 38.16 43.7924 37.264V33.04H42.4484V31.568H43.7924V29.12H45.4404V31.568H48.0164V33.04H45.4404V36.992C45.4404 37.2907 45.467 37.5627 45.5204 37.808C45.5844 38.0533 45.7017 38.2453 45.8724 38.384C46.043 38.5227 46.2884 38.5973 46.6084 38.608C46.8537 38.608 47.067 38.5653 47.2484 38.48C47.4404 38.3947 47.595 38.2987 47.7124 38.192L48.3524 39.424C48.1497 39.584 47.9364 39.7173 47.7124 39.824C47.499 39.92 47.275 39.9893 47.0404 40.032C46.8057 40.0747 46.5657 40.096 46.3204 40.096ZM52.2608 40.096C51.8768 40.096 51.5034 40.048 51.1408 39.952C50.7888 39.8453 50.4741 39.6907 50.1968 39.488C49.9194 39.2747 49.6954 39.0133 49.5248 38.704C49.3648 38.384 49.2848 38.0107 49.2848 37.584C49.2848 37.072 49.3808 36.6507 49.5728 36.32C49.7754 35.9787 50.0421 35.7173 50.3728 35.536C50.7034 35.344 51.0821 35.2107 51.5088 35.136C51.9461 35.0507 52.3994 35.008 52.8688 35.008H54.9328C54.9328 34.592 54.8688 34.2293 54.7408 33.92C54.6128 33.6 54.4101 33.3547 54.1328 33.184C53.8661 33.0027 53.5088 32.912 53.0608 32.912C52.7941 32.912 52.5381 32.944 52.2928 33.008C52.0581 33.0613 51.8554 33.152 51.6848 33.28C51.5141 33.408 51.3968 33.5787 51.3328 33.792H49.6048C49.6688 33.3867 49.8128 33.04 50.0368 32.752C50.2608 32.4533 50.5381 32.208 50.8688 32.016C51.1994 31.824 51.5514 31.6853 51.9248 31.6C52.3088 31.504 52.6981 31.456 53.0928 31.456C54.3088 31.456 55.1834 31.8133 55.7168 32.528C56.2608 33.232 56.5328 34.2027 56.5328 35.44V40H55.1088L55.0448 38.928C54.7994 39.2587 54.5061 39.5093 54.1648 39.68C53.8341 39.8507 53.5034 39.9627 53.1728 40.016C52.8421 40.0693 52.5381 40.096 52.2608 40.096ZM52.5168 38.704C52.9968 38.704 53.4181 38.624 53.7808 38.464C54.1434 38.2933 54.4261 38.0533 54.6288 37.744C54.8314 37.424 54.9328 37.0507 54.9328 36.624V36.272H53.4288C53.1194 36.272 52.8154 36.2827 52.5168 36.304C52.2288 36.3147 51.9621 36.3573 51.7168 36.432C51.4821 36.496 51.2901 36.608 51.1408 36.768C51.0021 36.928 50.9328 37.1573 50.9328 37.456C50.9328 37.744 51.0074 37.9787 51.1568 38.16C51.3061 38.3413 51.5034 38.48 51.7488 38.576C51.9941 38.6613 52.2501 38.704 52.5168 38.704ZM58.5422 40V28.688H60.1902V40H58.5422ZM71.7884 40.128C70.6257 40.128 69.639 39.8827 68.8284 39.392C68.0284 38.8907 67.4204 38.2027 67.0044 37.328C66.5884 36.4533 66.3804 35.4613 66.3804 34.352C66.3804 33.232 66.5884 32.2347 67.0044 31.36C67.4204 30.4853 68.0337 29.8027 68.8444 29.312C69.655 28.8107 70.6417 28.56 71.8044 28.56C72.9777 28.56 73.9644 28.8053 74.7644 29.296C75.5644 29.7867 76.1724 30.4693 76.5884 31.344C77.0044 32.2187 77.2124 33.216 77.2124 34.336C77.2124 35.4453 77.0044 36.4373 76.5884 37.312C76.1724 38.1867 75.559 38.8747 74.7484 39.376C73.9484 39.8773 72.9617 40.128 71.7884 40.128ZM71.8044 38.576C72.6577 38.576 73.3564 38.3787 73.9004 37.984C74.4444 37.5893 74.8444 37.072 75.1004 36.432C75.3564 35.792 75.4844 35.0987 75.4844 34.352C75.4844 33.7867 75.4097 33.248 75.2604 32.736C75.1217 32.224 74.903 31.7707 74.6044 31.376C74.3057 30.9813 73.9217 30.672 73.4524 30.448C72.983 30.224 72.4337 30.112 71.8044 30.112C70.9617 30.112 70.263 30.3093 69.7084 30.704C69.1644 31.0987 68.759 31.616 68.4924 32.256C68.2257 32.896 68.0924 33.5947 68.0924 34.352C68.0924 35.0987 68.2204 35.792 68.4764 36.432C68.743 37.072 69.1484 37.5893 69.6924 37.984C70.247 38.3787 70.951 38.576 71.8044 38.576ZM78.9507 40V31.568H80.5027L80.5827 32.784C80.7961 32.4533 81.0414 32.192 81.3187 32C81.5961 31.808 81.9001 31.6693 82.2307 31.584C82.5614 31.4987 82.9081 31.456 83.2707 31.456C83.3667 31.456 83.4574 31.456 83.5427 31.456C83.6281 31.456 83.7081 31.456 83.7827 31.456V33.04H83.2707C82.6627 33.04 82.1561 33.1627 81.7507 33.408C81.3561 33.6533 81.0627 33.9947 80.8707 34.432C80.6894 34.8693 80.5987 35.3707 80.5987 35.936V40H78.9507ZM88.3126 40.096C87.47 40.096 86.7713 39.9093 86.2166 39.536C85.6726 39.152 85.262 38.6347 84.9846 37.984C84.718 37.3333 84.5846 36.6027 84.5846 35.792C84.5846 34.9707 84.7233 34.2347 85.0006 33.584C85.278 32.9227 85.6993 32.4053 86.2646 32.032C86.83 31.648 87.5446 31.456 88.4086 31.456C88.7286 31.456 89.0486 31.4933 89.3686 31.568C89.6993 31.6427 90.0033 31.76 90.2806 31.92C90.5686 32.0693 90.814 32.272 91.0166 32.528V28.688H92.6646V40H91.0806L91.0166 38.848C90.8246 39.136 90.5846 39.376 90.2966 39.568C90.0193 39.7493 89.71 39.8827 89.3686 39.968C89.0273 40.0533 88.6753 40.096 88.3126 40.096ZM88.5846 38.624C89.1286 38.624 89.5766 38.4907 89.9286 38.224C90.2913 37.9573 90.5633 37.6053 90.7446 37.168C90.926 36.7307 91.0166 36.256 91.0166 35.744C91.0166 35.2213 90.926 34.752 90.7446 34.336C90.574 33.9093 90.3073 33.5733 89.9446 33.328C89.5926 33.072 89.1393 32.944 88.5846 32.944C88.0086 32.944 87.55 33.0773 87.2086 33.344C86.8673 33.6 86.6166 33.9467 86.4566 34.384C86.3073 34.8213 86.2326 35.3013 86.2326 35.824C86.2326 36.208 86.2753 36.5707 86.3606 36.912C86.446 37.2427 86.5793 37.5413 86.7606 37.808C86.9526 38.064 87.198 38.2667 87.4966 38.416C87.7953 38.5547 88.158 38.624 88.5846 38.624ZM98.4299 40.096C97.5445 40.096 96.8032 39.9147 96.2059 39.552C95.6085 39.1893 95.1552 38.688 94.8459 38.048C94.5472 37.3973 94.3979 36.6507 94.3979 35.808C94.3979 34.9547 94.5525 34.2027 94.8619 33.552C95.1819 32.9013 95.6405 32.3893 96.2379 32.016C96.8459 31.6427 97.5765 31.456 98.4299 31.456C99.0805 31.456 99.6459 31.5787 100.126 31.824C100.606 32.0587 101.001 32.3787 101.31 32.784C101.63 33.1893 101.865 33.6427 102.014 34.144C102.163 34.6347 102.227 35.1467 102.206 35.68C102.206 35.7973 102.201 35.9093 102.19 36.016C102.179 36.1227 102.169 36.2347 102.158 36.352H96.0619C96.0939 36.7787 96.2005 37.168 96.3819 37.52C96.5739 37.872 96.8405 38.1547 97.1819 38.368C97.5232 38.5707 97.9445 38.672 98.4459 38.672C98.7232 38.672 98.9899 38.64 99.2459 38.576C99.5125 38.5013 99.7472 38.3893 99.9499 38.24C100.163 38.08 100.313 37.8773 100.398 37.632H102.062C101.923 38.1973 101.673 38.6667 101.31 39.04C100.958 39.4027 100.526 39.6693 100.014 39.84C99.5125 40.0107 98.9845 40.096 98.4299 40.096ZM96.0939 35.04H100.574C100.563 34.624 100.467 34.256 100.286 33.936C100.105 33.6053 99.8539 33.3493 99.5339 33.168C99.2139 32.976 98.8299 32.88 98.3819 32.88C97.8912 32.88 97.4805 32.9813 97.1499 33.184C96.8299 33.3867 96.5792 33.6533 96.3979 33.984C96.2272 34.304 96.1259 34.656 96.0939 35.04ZM103.937 40V31.568H105.489L105.569 32.784C105.783 32.4533 106.028 32.192 106.305 32C106.583 31.808 106.887 31.6693 107.217 31.584C107.548 31.4987 107.895 31.456 108.257 31.456C108.353 31.456 108.444 31.456 108.529 31.456C108.615 31.456 108.695 31.456 108.769 31.456V33.04H108.257C107.649 33.04 107.143 33.1627 106.737 33.408C106.343 33.6533 106.049 33.9947 105.857 34.432C105.676 34.8693 105.585 35.3707 105.585 35.936V40H103.937ZM113.043 40.096C112.649 40.096 112.254 40.0587 111.859 39.984C111.465 39.9093 111.097 39.776 110.755 39.584C110.414 39.392 110.126 39.136 109.891 38.816C109.657 38.4853 109.507 38.08 109.443 37.6H111.123C111.209 37.856 111.358 38.064 111.571 38.224C111.795 38.384 112.041 38.5013 112.307 38.576C112.585 38.6507 112.857 38.688 113.123 38.688C113.283 38.688 113.459 38.6773 113.651 38.656C113.854 38.6347 114.046 38.5867 114.227 38.512C114.409 38.4373 114.558 38.3307 114.675 38.192C114.793 38.0427 114.851 37.8453 114.851 37.6C114.851 37.408 114.798 37.248 114.691 37.12C114.595 36.992 114.457 36.8907 114.275 36.816C114.105 36.7307 113.897 36.6667 113.651 36.624C113.171 36.5173 112.654 36.416 112.099 36.32C111.555 36.2133 111.075 36.032 110.659 35.776C110.51 35.68 110.377 35.5733 110.259 35.456C110.142 35.328 110.041 35.184 109.955 35.024C109.87 34.864 109.806 34.6933 109.763 34.512C109.721 34.3307 109.699 34.1333 109.699 33.92C109.699 33.4827 109.785 33.1093 109.955 32.8C110.137 32.4907 110.382 32.24 110.691 32.048C111.001 31.8453 111.353 31.696 111.747 31.6C112.142 31.504 112.558 31.456 112.995 31.456C113.561 31.456 114.073 31.5467 114.531 31.728C114.99 31.9093 115.369 32.176 115.667 32.528C115.966 32.88 116.142 33.3227 116.195 33.856H114.643C114.579 33.568 114.393 33.3387 114.083 33.168C113.785 32.9867 113.406 32.896 112.947 32.896C112.787 32.896 112.611 32.9067 112.419 32.928C112.238 32.9493 112.062 32.9973 111.891 33.072C111.721 33.1467 111.582 33.2533 111.475 33.392C111.369 33.52 111.315 33.6907 111.315 33.904C111.315 34.1067 111.363 34.2773 111.459 34.416C111.566 34.5547 111.715 34.6667 111.907 34.752C112.11 34.8373 112.339 34.9067 112.595 34.96C112.958 35.0453 113.347 35.1253 113.763 35.2C114.19 35.2747 114.537 35.3547 114.803 35.44C115.155 35.536 115.454 35.6747 115.699 35.856C115.955 36.0373 116.147 36.2667 116.275 36.544C116.414 36.8213 116.483 37.1573 116.483 37.552C116.483 38.064 116.382 38.4853 116.179 38.816C115.977 39.136 115.705 39.392 115.363 39.584C115.033 39.776 114.659 39.9093 114.243 39.984C113.838 40.0587 113.438 40.096 113.043 40.096Z" fill="#030E09"/>
<path d="M27.768 91V78.16H24.408V75.976C25.064 75.944 25.648 75.872 26.16 75.76C26.672 75.648 27.128 75.456 27.528 75.184C27.944 74.912 28.312 74.528 28.632 74.032H30.768V91H27.768ZM40.1486 91.192C39.2366 91.192 38.3726 91.04 37.5566 90.736C36.7566 90.416 36.0766 89.936 35.5166 89.296C34.9566 88.656 34.5886 87.856 34.4126 86.896H37.4126C37.6366 87.408 38.0206 87.8 38.5646 88.072C39.1246 88.328 39.7086 88.456 40.3166 88.456C41.0526 88.456 41.6606 88.312 42.1406 88.024C42.6366 87.72 43.0286 87.32 43.3166 86.824C43.6206 86.312 43.8366 85.752 43.9646 85.144C44.0926 84.52 44.1566 83.888 44.1566 83.248C44.1566 83.168 44.1566 83.088 44.1566 83.008C44.1566 82.928 44.1566 82.856 44.1566 82.792C43.8206 83.352 43.4046 83.792 42.9086 84.112C42.4126 84.416 41.8846 84.64 41.3246 84.784C40.7646 84.912 40.2206 84.976 39.6926 84.976C38.6846 84.976 37.7726 84.768 36.9566 84.352C36.1406 83.936 35.4926 83.328 35.0126 82.528C34.5326 81.712 34.2926 80.736 34.2926 79.6C34.2926 78.384 34.5646 77.344 35.1086 76.48C35.6526 75.616 36.3886 74.96 37.3166 74.512C38.2606 74.048 39.3086 73.816 40.4606 73.816C41.7086 73.816 42.7486 74.072 43.5806 74.584C44.4126 75.096 45.0766 75.784 45.5726 76.648C46.0686 77.496 46.4206 78.44 46.6286 79.48C46.8366 80.52 46.9406 81.576 46.9406 82.648C46.9406 83.832 46.8126 84.944 46.5566 85.984C46.3166 87.008 45.9246 87.912 45.3806 88.696C44.8526 89.48 44.1566 90.096 43.2926 90.544C42.4286 90.976 41.3806 91.192 40.1486 91.192ZM40.3166 82.408C40.9406 82.408 41.4846 82.28 41.9486 82.024C42.4286 81.752 42.7966 81.4 43.0526 80.968C43.3086 80.52 43.4286 80.04 43.4126 79.528C43.4126 78.92 43.2766 78.4 43.0046 77.968C42.7486 77.52 42.3886 77.168 41.9246 76.912C41.4606 76.656 40.9406 76.528 40.3646 76.528C39.7406 76.528 39.1966 76.664 38.7326 76.936C38.2846 77.208 37.9326 77.568 37.6766 78.016C37.4206 78.464 37.2926 78.944 37.2926 79.456C37.2926 80.336 37.5566 81.048 38.0846 81.592C38.6126 82.136 39.3566 82.408 40.3166 82.408ZM48.7189 91V88.528L53.4469 84.544C53.8309 84.224 54.2549 83.872 54.7189 83.488C55.1829 83.104 55.6229 82.688 56.0389 82.24C56.4709 81.776 56.8309 81.296 57.1189 80.8C57.4069 80.304 57.5509 79.784 57.5509 79.24C57.5509 78.424 57.3029 77.784 56.8069 77.32C56.3269 76.856 55.6389 76.624 54.7429 76.624C53.9589 76.624 53.3189 76.792 52.8229 77.128C52.3269 77.464 52.0149 77.92 51.8869 78.496H48.9349C49.0469 77.424 49.3909 76.552 49.9669 75.88C50.5589 75.192 51.2869 74.68 52.1509 74.344C53.0149 73.992 53.9189 73.816 54.8629 73.816C55.9349 73.816 56.8949 74.016 57.7429 74.416C58.5909 74.8 59.2629 75.376 59.7589 76.144C60.2709 76.896 60.5269 77.816 60.5269 78.904C60.5269 79.88 60.3349 80.76 59.9509 81.544C59.5829 82.328 59.0789 83.048 58.4389 83.704C57.8149 84.344 57.1269 84.976 56.3749 85.6L53.1349 88.264H60.5749V91H48.7189ZM69.6114 91.192C68.3794 91.192 67.3314 90.976 66.4674 90.544C65.6034 90.096 64.9074 89.472 64.3794 88.672C63.8514 87.872 63.4594 86.952 63.2034 85.912C62.9634 84.872 62.8434 83.752 62.8434 82.552C62.8434 81.336 62.9634 80.2 63.2034 79.144C63.4594 78.088 63.8514 77.168 64.3794 76.384C64.9234 75.584 65.6274 74.96 66.4914 74.512C67.3554 74.048 68.4034 73.816 69.6354 73.816C70.8994 73.816 71.9634 74.056 72.8274 74.536C73.7074 75.016 74.4034 75.664 74.9154 76.48C75.4434 77.296 75.8194 78.224 76.0434 79.264C76.2834 80.304 76.4034 81.392 76.4034 82.528C76.4034 83.648 76.2834 84.728 76.0434 85.768C75.8194 86.808 75.4434 87.736 74.9154 88.552C74.3874 89.368 73.6834 90.016 72.8034 90.496C71.9394 90.96 70.8754 91.192 69.6114 91.192ZM69.6114 88.456C70.4274 88.456 71.0834 88.264 71.5794 87.88C72.0914 87.496 72.4754 87.008 72.7314 86.416C72.9874 85.808 73.1554 85.16 73.2354 84.472C73.3314 83.784 73.3794 83.136 73.3794 82.528C73.3794 81.92 73.3394 81.28 73.2594 80.608C73.1794 79.92 73.0114 79.272 72.7554 78.664C72.4994 78.056 72.1234 77.56 71.6274 77.176C71.1314 76.792 70.4674 76.6 69.6354 76.6C68.8034 76.6 68.1314 76.792 67.6194 77.176C67.1234 77.56 66.7474 78.056 66.4914 78.664C66.2354 79.256 66.0594 79.896 65.9634 80.584C65.8834 81.272 65.8434 81.92 65.8434 82.528C65.8434 83.136 65.8834 83.784 65.9634 84.472C66.0434 85.144 66.2034 85.784 66.4434 86.392C66.6994 87 67.0754 87.496 67.5714 87.88C68.0834 88.264 68.7634 88.456 69.6114 88.456Z" fill="#030E09"/>
<path d="M25.044 113.5V105.016H26.088V112.552H30.744V113.5H25.044ZM33.8638 113.572C33.5758 113.572 33.2958 113.536 33.0238 113.464C32.7598 113.384 32.5198 113.268 32.3038 113.116C32.0958 112.956 31.9278 112.76 31.7998 112.528C31.6798 112.288 31.6198 112.012 31.6198 111.7C31.6198 111.34 31.6838 111.036 31.8118 110.788C31.9478 110.54 32.1278 110.344 32.3518 110.2C32.5758 110.056 32.8358 109.952 33.1318 109.888C33.4278 109.824 33.7358 109.792 34.0558 109.792H35.9158C35.9158 109.432 35.8638 109.12 35.7598 108.856C35.6638 108.592 35.5038 108.388 35.2798 108.244C35.0558 108.092 34.7598 108.016 34.3918 108.016C34.1678 108.016 33.9598 108.04 33.7678 108.088C33.5758 108.136 33.4118 108.212 33.2758 108.316C33.1398 108.42 33.0398 108.56 32.9758 108.736H31.8838C31.9398 108.448 32.0478 108.204 32.2078 108.004C32.3758 107.796 32.5758 107.628 32.8078 107.5C33.0478 107.364 33.3038 107.264 33.5758 107.2C33.8478 107.136 34.1198 107.104 34.3918 107.104C35.3038 107.104 35.9518 107.372 36.3358 107.908C36.7198 108.444 36.9118 109.168 36.9118 110.08V113.5H36.0598L35.9998 112.696C35.8238 112.936 35.6118 113.12 35.3638 113.248C35.1158 113.376 34.8598 113.46 34.5958 113.5C34.3398 113.548 34.0958 113.572 33.8638 113.572ZM33.9598 112.672C34.3598 112.672 34.7038 112.608 34.9918 112.48C35.2878 112.344 35.5158 112.148 35.6758 111.892C35.8358 111.636 35.9158 111.324 35.9158 110.956V110.644H34.7998C34.5358 110.644 34.2758 110.648 34.0198 110.656C33.7638 110.664 33.5318 110.696 33.3238 110.752C33.1158 110.808 32.9478 110.904 32.8198 111.04C32.6998 111.176 32.6398 111.372 32.6398 111.628C32.6398 111.868 32.6998 112.064 32.8198 112.216C32.9478 112.368 33.1118 112.484 33.3118 112.564C33.5198 112.636 33.7358 112.672 33.9598 112.672ZM40.8201 113.572C40.5321 113.572 40.2401 113.544 39.9441 113.488C39.6561 113.432 39.3841 113.336 39.1281 113.2C38.8801 113.064 38.6721 112.88 38.5041 112.648C38.3361 112.416 38.2281 112.128 38.1801 111.784H39.2121C39.2921 112 39.4201 112.176 39.5961 112.312C39.7801 112.44 39.9841 112.532 40.2081 112.588C40.4401 112.644 40.6601 112.672 40.8681 112.672C40.9961 112.672 41.1441 112.664 41.3121 112.648C41.4801 112.632 41.6401 112.596 41.7921 112.54C41.9521 112.476 42.0801 112.384 42.1761 112.264C42.2801 112.144 42.3321 111.976 42.3321 111.76C42.3321 111.6 42.2961 111.468 42.2241 111.364C42.1521 111.26 42.0521 111.176 41.9241 111.112C41.7961 111.04 41.6401 110.988 41.4561 110.956C41.0801 110.876 40.6761 110.8 40.2441 110.728C39.8201 110.656 39.4441 110.52 39.1161 110.32C39.0041 110.248 38.9001 110.168 38.8041 110.08C38.7161 109.984 38.6401 109.88 38.5761 109.768C38.5121 109.648 38.4601 109.52 38.4201 109.384C38.3881 109.24 38.3721 109.084 38.3721 108.916C38.3721 108.604 38.4321 108.336 38.5521 108.112C38.6801 107.88 38.8561 107.692 39.0801 107.548C39.3041 107.396 39.5601 107.284 39.8481 107.212C40.1441 107.14 40.4601 107.104 40.7961 107.104C41.2121 107.104 41.5841 107.172 41.9121 107.308C42.2481 107.436 42.5241 107.628 42.7401 107.884C42.9561 108.132 43.0841 108.44 43.1241 108.808H42.1761C42.1201 108.576 41.9681 108.388 41.7201 108.244C41.4721 108.092 41.1561 108.016 40.7721 108.016C40.6441 108.016 40.5001 108.028 40.3401 108.052C40.1801 108.068 40.0281 108.108 39.8841 108.172C39.7401 108.228 39.6201 108.316 39.5241 108.436C39.4281 108.548 39.3801 108.7 39.3801 108.892C39.3801 109.068 39.4241 109.216 39.5121 109.336C39.6081 109.456 39.7401 109.552 39.9081 109.624C40.0761 109.696 40.2681 109.756 40.4841 109.804C40.7641 109.86 41.0721 109.92 41.4081 109.984C41.7441 110.04 42.0081 110.1 42.2001 110.164C42.4561 110.244 42.6681 110.356 42.8361 110.5C43.0121 110.644 43.1401 110.816 43.2201 111.016C43.3081 111.216 43.3521 111.448 43.3521 111.712C43.3521 112.088 43.2761 112.396 43.1241 112.636C42.9801 112.876 42.7841 113.064 42.5361 113.2C42.2881 113.336 42.0121 113.432 41.7081 113.488C41.4121 113.544 41.1161 113.572 40.8201 113.572ZM47.0215 113.572C46.3575 113.572 45.8895 113.392 45.6175 113.032C45.3535 112.672 45.2215 112.16 45.2215 111.496V108.076H44.1895V107.176H45.2215V105.28H46.2415V107.176H48.1855V108.076H46.2415V111.364C46.2415 111.604 46.2615 111.824 46.3015 112.024C46.3415 112.216 46.4255 112.372 46.5535 112.492C46.6815 112.604 46.8735 112.664 47.1295 112.672C47.3135 112.672 47.4735 112.64 47.6095 112.576C47.7535 112.512 47.8735 112.436 47.9695 112.348L48.4135 113.092C48.2775 113.204 48.1335 113.296 47.9815 113.368C47.8375 113.44 47.6855 113.492 47.5255 113.524C47.3735 113.556 47.2055 113.572 47.0215 113.572ZM53.0817 113.5L56.5137 105.976H52.0257V105.016H57.6657V105.88L54.2337 113.5H53.0817ZM64.5587 113.572C63.9267 113.572 63.4067 113.432 62.9987 113.152C62.5907 112.864 62.2867 112.48 62.0867 112C61.8867 111.512 61.7867 110.964 61.7867 110.356C61.7867 109.748 61.8867 109.2 62.0867 108.712C62.2867 108.216 62.5947 107.824 63.0107 107.536C63.4267 107.248 63.9587 107.104 64.6067 107.104C64.8547 107.104 65.1027 107.136 65.3507 107.2C65.6067 107.256 65.8467 107.348 66.0707 107.476C66.2947 107.596 66.4867 107.76 66.6467 107.968V105.016H67.6667V113.5H66.6947L66.6467 112.552C66.5027 112.792 66.3187 112.988 66.0947 113.14C65.8787 113.284 65.6387 113.392 65.3747 113.464C65.1107 113.536 64.8387 113.572 64.5587 113.572ZM64.7027 112.672C65.1267 112.672 65.4827 112.564 65.7707 112.348C66.0587 112.132 66.2787 111.844 66.4307 111.484C66.5827 111.124 66.6587 110.732 66.6587 110.308C66.6587 109.868 66.5827 109.476 66.4307 109.132C66.2867 108.788 66.0707 108.516 65.7827 108.316C65.4947 108.116 65.1307 108.016 64.6907 108.016C64.2347 108.016 63.8667 108.12 63.5867 108.328C63.3147 108.536 63.1147 108.82 62.9867 109.18C62.8667 109.532 62.8067 109.928 62.8067 110.368C62.8067 110.688 62.8387 110.988 62.9027 111.268C62.9747 111.54 63.0827 111.784 63.2267 112C63.3787 112.208 63.5747 112.372 63.8147 112.492C64.0547 112.612 64.3507 112.672 64.7027 112.672ZM71.3209 113.572C71.0329 113.572 70.7529 113.536 70.4809 113.464C70.2169 113.384 69.9769 113.268 69.7609 113.116C69.5529 112.956 69.3849 112.76 69.2569 112.528C69.1369 112.288 69.0769 112.012 69.0769 111.7C69.0769 111.34 69.1409 111.036 69.2689 110.788C69.4049 110.54 69.5849 110.344 69.8089 110.2C70.0329 110.056 70.2929 109.952 70.5889 109.888C70.8849 109.824 71.1929 109.792 71.5129 109.792H73.3729C73.3729 109.432 73.3209 109.12 73.2169 108.856C73.1209 108.592 72.9609 108.388 72.7369 108.244C72.5129 108.092 72.2169 108.016 71.8489 108.016C71.6249 108.016 71.4169 108.04 71.2249 108.088C71.0329 108.136 70.8689 108.212 70.7329 108.316C70.5969 108.42 70.4969 108.56 70.4329 108.736H69.3409C69.3969 108.448 69.5049 108.204 69.6649 108.004C69.8329 107.796 70.0329 107.628 70.2649 107.5C70.5049 107.364 70.7609 107.264 71.0329 107.2C71.3049 107.136 71.5769 107.104 71.8489 107.104C72.7609 107.104 73.4089 107.372 73.7929 107.908C74.1769 108.444 74.3689 109.168 74.3689 110.08V113.5H73.5169L73.4569 112.696C73.2809 112.936 73.0689 113.12 72.8209 113.248C72.5729 113.376 72.3169 113.46 72.0529 113.5C71.7969 113.548 71.5529 113.572 71.3209 113.572ZM71.4169 112.672C71.8169 112.672 72.1609 112.608 72.4489 112.48C72.7449 112.344 72.9729 112.148 73.1329 111.892C73.2929 111.636 73.3729 111.324 73.3729 110.956V110.644H72.2569C71.9929 110.644 71.7329 110.648 71.4769 110.656C71.2209 110.664 70.9889 110.696 70.7809 110.752C70.5729 110.808 70.4049 110.904 70.2769 111.04C70.1569 111.176 70.0969 111.372 70.0969 111.628C70.0969 111.868 70.1569 112.064 70.2769 112.216C70.4049 112.368 70.5689 112.484 70.7689 112.564C70.9769 112.636 71.1929 112.672 71.4169 112.672ZM78.7571 116.332C78.2691 116.332 77.7971 116.264 77.3411 116.128C76.8931 115.992 76.4891 115.756 76.1291 115.42L76.5731 114.616C76.8851 114.864 77.2171 115.06 77.5691 115.204C77.9291 115.348 78.3051 115.42 78.6971 115.42C79.3531 115.42 79.8211 115.228 80.1011 114.844C80.3891 114.468 80.5331 113.988 80.5331 113.404V112.648C80.3891 112.864 80.2051 113.044 79.9811 113.188C79.7651 113.324 79.5251 113.428 79.2611 113.5C78.9971 113.564 78.7251 113.596 78.4451 113.596C77.8211 113.596 77.3291 113.472 76.9691 113.224C76.6091 112.976 76.3531 112.632 76.2011 112.192C76.0491 111.752 75.9731 111.244 75.9731 110.668V107.176H76.9931V110.38C76.9931 110.668 77.0091 110.952 77.0411 111.232C77.0811 111.504 77.1571 111.752 77.2691 111.976C77.3811 112.192 77.5451 112.368 77.7611 112.504C77.9771 112.632 78.2651 112.696 78.6251 112.696C79.0811 112.696 79.4451 112.584 79.7171 112.36C79.9971 112.136 80.1971 111.836 80.3171 111.46C80.4451 111.084 80.5091 110.668 80.5091 110.212V107.176H81.5291V113.5C81.5291 113.956 81.4691 114.36 81.3491 114.712C81.2291 115.064 81.0491 115.36 80.8091 115.6C80.5691 115.84 80.2771 116.02 79.9331 116.14C79.5971 116.268 79.2051 116.332 78.7571 116.332ZM85.4613 113.572C85.1733 113.572 84.8813 113.544 84.5853 113.488C84.2973 113.432 84.0253 113.336 83.7693 113.2C83.5213 113.064 83.3133 112.88 83.1453 112.648C82.9773 112.416 82.8693 112.128 82.8213 111.784H83.8533C83.9333 112 84.0613 112.176 84.2373 112.312C84.4213 112.44 84.6253 112.532 84.8493 112.588C85.0813 112.644 85.3013 112.672 85.5093 112.672C85.6373 112.672 85.7853 112.664 85.9533 112.648C86.1213 112.632 86.2813 112.596 86.4333 112.54C86.5933 112.476 86.7213 112.384 86.8173 112.264C86.9213 112.144 86.9733 111.976 86.9733 111.76C86.9733 111.6 86.9373 111.468 86.8653 111.364C86.7933 111.26 86.6933 111.176 86.5653 111.112C86.4373 111.04 86.2813 110.988 86.0973 110.956C85.7213 110.876 85.3173 110.8 84.8853 110.728C84.4613 110.656 84.0853 110.52 83.7573 110.32C83.6453 110.248 83.5413 110.168 83.4453 110.08C83.3573 109.984 83.2813 109.88 83.2173 109.768C83.1533 109.648 83.1013 109.52 83.0613 109.384C83.0293 109.24 83.0133 109.084 83.0133 108.916C83.0133 108.604 83.0733 108.336 83.1933 108.112C83.3213 107.88 83.4973 107.692 83.7213 107.548C83.9453 107.396 84.2013 107.284 84.4893 107.212C84.7853 107.14 85.1013 107.104 85.4373 107.104C85.8533 107.104 86.2253 107.172 86.5533 107.308C86.8893 107.436 87.1653 107.628 87.3813 107.884C87.5973 108.132 87.7253 108.44 87.7653 108.808H86.8173C86.7613 108.576 86.6093 108.388 86.3613 108.244C86.1133 108.092 85.7973 108.016 85.4133 108.016C85.2853 108.016 85.1413 108.028 84.9813 108.052C84.8213 108.068 84.6693 108.108 84.5253 108.172C84.3813 108.228 84.2613 108.316 84.1653 108.436C84.0693 108.548 84.0213 108.7 84.0213 108.892C84.0213 109.068 84.0653 109.216 84.1533 109.336C84.2493 109.456 84.3813 109.552 84.5493 109.624C84.7173 109.696 84.9093 109.756 85.1253 109.804C85.4053 109.86 85.7133 109.92 86.0493 109.984C86.3853 110.04 86.6493 110.1 86.8413 110.164C87.0973 110.244 87.3093 110.356 87.4773 110.5C87.6533 110.644 87.7813 110.816 87.8613 111.016C87.9493 111.216 87.9933 111.448 87.9933 111.712C87.9933 112.088 87.9173 112.396 87.7653 112.636C87.6213 112.876 87.4253 113.064 87.1773 113.2C86.9293 113.336 86.6533 113.432 86.3493 113.488C86.0533 113.544 85.7573 113.572 85.4613 113.572Z" fill="#030E09" fill-opacity="0.6"/>
<rect x="97" y="100" width="64" height="20" rx="10" fill="#93D973" fill-opacity="0.15"/>
<path d="M107.82 111.688V109.804H106.02V108.676H107.82V106.792H108.948V108.676H110.76V109.804H108.948V111.688H107.82ZM115.721 113.596C115.137 113.596 114.637 113.488 114.221 113.272C113.805 113.048 113.465 112.744 113.201 112.36C112.937 111.976 112.745 111.54 112.625 111.052C112.505 110.556 112.445 110.04 112.445 109.504C112.445 108.88 112.509 108.292 112.637 107.74C112.765 107.188 112.965 106.7 113.237 106.276C113.517 105.852 113.873 105.52 114.305 105.28C114.745 105.04 115.269 104.92 115.877 104.92C116.309 104.92 116.709 104.996 117.077 105.148C117.453 105.292 117.773 105.512 118.037 105.808C118.301 106.104 118.489 106.476 118.601 106.924H117.329C117.201 106.644 117.001 106.432 116.729 106.288C116.457 106.144 116.165 106.072 115.853 106.072C115.509 106.072 115.213 106.136 114.965 106.264C114.725 106.384 114.521 106.552 114.353 106.768C114.185 106.976 114.049 107.216 113.945 107.488C113.841 107.76 113.765 108.044 113.717 108.34C113.669 108.628 113.645 108.912 113.645 109.192C113.837 108.912 114.053 108.688 114.293 108.52C114.541 108.352 114.805 108.232 115.085 108.16C115.365 108.08 115.641 108.04 115.913 108.04C116.481 108.04 116.969 108.156 117.377 108.388C117.785 108.612 118.101 108.928 118.325 109.336C118.557 109.736 118.673 110.204 118.673 110.74C118.673 111.308 118.545 111.808 118.289 112.24C118.041 112.672 117.693 113.008 117.245 113.248C116.805 113.48 116.297 113.596 115.721 113.596ZM115.709 112.444C116.045 112.444 116.337 112.372 116.585 112.228C116.841 112.084 117.037 111.892 117.173 111.652C117.317 111.404 117.389 111.132 117.389 110.836C117.389 110.524 117.321 110.244 117.185 109.996C117.049 109.748 116.857 109.552 116.609 109.408C116.369 109.256 116.085 109.18 115.757 109.18C115.445 109.18 115.153 109.252 114.881 109.396C114.617 109.532 114.405 109.724 114.245 109.972C114.085 110.212 114.005 110.496 114.005 110.824C114.005 111.12 114.077 111.392 114.221 111.64C114.365 111.88 114.565 112.076 114.821 112.228C115.085 112.372 115.381 112.444 115.709 112.444ZM120.882 113.62C120.642 113.62 120.442 113.544 120.282 113.392C120.13 113.24 120.054 113.04 120.054 112.792C120.054 112.544 120.134 112.344 120.294 112.192C120.454 112.032 120.65 111.952 120.882 111.952C121.114 111.952 121.306 112.032 121.458 112.192C121.618 112.344 121.698 112.544 121.698 112.792C121.698 113.04 121.618 113.24 121.458 113.392C121.306 113.544 121.114 113.62 120.882 113.62ZM124.243 113.5V106.888H122.539V105.988C122.859 105.964 123.147 105.928 123.403 105.88C123.659 105.824 123.887 105.732 124.087 105.604C124.287 105.468 124.463 105.272 124.615 105.016H125.515V113.5H124.243ZM128.444 113.5L133.772 105.016H135.044L129.74 113.5H128.444ZM134.264 113.572C133.872 113.572 133.536 113.488 133.256 113.32C132.984 113.152 132.772 112.924 132.62 112.636C132.476 112.34 132.404 112.004 132.404 111.628C132.404 111.236 132.476 110.896 132.62 110.608C132.772 110.32 132.988 110.096 133.268 109.936C133.548 109.768 133.88 109.684 134.264 109.684C134.648 109.684 134.976 109.764 135.248 109.924C135.52 110.084 135.728 110.312 135.872 110.608C136.016 110.896 136.088 111.232 136.088 111.616C136.088 111.992 136.012 112.328 135.86 112.624C135.716 112.92 135.508 113.152 135.236 113.32C134.964 113.488 134.64 113.572 134.264 113.572ZM134.252 112.588C134.452 112.588 134.612 112.544 134.732 112.456C134.852 112.368 134.936 112.248 134.984 112.096C135.04 111.944 135.068 111.788 135.068 111.628C135.068 111.468 135.04 111.316 134.984 111.172C134.936 111.02 134.852 110.9 134.732 110.812C134.612 110.724 134.452 110.68 134.252 110.68C133.948 110.68 133.732 110.78 133.604 110.98C133.476 111.172 133.412 111.388 133.412 111.628C133.412 111.884 133.476 112.108 133.604 112.3C133.74 112.492 133.956 112.588 134.252 112.588ZM129.284 108.808C128.892 108.808 128.556 108.724 128.276 108.556C128.004 108.388 127.796 108.16 127.652 107.872C127.508 107.576 127.436 107.24 127.436 106.864C127.436 106.472 127.508 106.132 127.652 105.844C127.796 105.556 128.008 105.332 128.288 105.172C128.568 105.004 128.904 104.92 129.296 104.92C129.68 104.92 130.008 105 130.28 105.16C130.552 105.32 130.76 105.548 130.904 105.844C131.048 106.132 131.12 106.468 131.12 106.852C131.12 107.228 131.048 107.564 130.904 107.86C130.76 108.156 130.548 108.388 130.268 108.556C129.996 108.724 129.668 108.808 129.284 108.808ZM129.284 107.824C129.484 107.824 129.64 107.78 129.752 107.692C129.872 107.596 129.96 107.476 130.016 107.332C130.072 107.18 130.1 107.024 130.1 106.864C130.1 106.696 130.072 106.54 130.016 106.396C129.96 106.252 129.872 106.136 129.752 106.048C129.64 105.952 129.484 105.904 129.284 105.904C128.98 105.904 128.76 106.004 128.624 106.204C128.496 106.396 128.432 106.616 128.432 106.864C128.432 107.12 128.496 107.344 128.624 107.536C128.76 107.728 128.98 107.824 129.284 107.824Z" fill="#70C748"/>
<path opacity="0.5" d="M152 107.5L148.31 111.168C147.811 111.663 147.562 111.911 147.253 111.911C146.943 111.911 146.694 111.663 146.195 111.167L146.075 111.048C145.576 110.552 145.327 110.304 145.017 110.304C144.708 110.304 144.458 110.552 143.96 111.049L142 113" stroke="#70C748" stroke-width="1.1" stroke-linecap="round" stroke-linejoin="round"/>
<path d="M152.002 110.273V107.5H149.211" stroke="#70C748" stroke-width="1.1" stroke-linecap="round" stroke-linejoin="round"/>
<rect x="223" y="24" width="44" height="44" rx="22" fill="#053B25" fill-opacity="0.15"/>
<path d="M236.796 48.97C237.333 51.657 237.602 53 238.489 53.865C238.653 54.025 238.83 54.1697 239.019 54.299C240.042 55 241.412 55 244.152 55H245.855C248.594 55 249.963 55 250.985 54.3C251.175 54.1693 251.351 54.0243 251.515 53.865C252.403 53 252.672 51.657 253.209 48.971C253.98 45.115 254.366 43.187 253.478 41.821C253.317 41.5734 253.129 41.3443 252.918 41.138C251.752 40 249.787 40 245.855 40H244.152C240.218 40 238.252 40 237.086 41.138C236.875 41.3443 236.687 41.5734 236.527 41.821C235.639 43.187 236.025 45.115 236.797 48.971L236.796 48.97Z" stroke="#053B25" stroke-width="1.5"/>
<path opacity="0.5" d="M248 43.5C248.276 43.5 248.5 43.7239 248.5 44C248.5 44.2761 248.276 44.5 248 44.5C247.724 44.5 247.5 44.2761 247.5 44C247.5 43.7239 247.724 43.5 248 43.5Z" fill="#053B25" stroke="#053B25"/>
<path opacity="0.5" d="M242 45C242.552 45 243 44.5523 243 44C243 43.4477 242.552 43 242 43C241.448 43 241 43.4477 241 44C241 44.5523 241.448 45 242 45Z" fill="#053B25"/>
<path opacity="0.5" d="M242 40V39C242 38.2044 242.316 37.4413 242.879 36.8787C243.441 36.3161 244.204 36 245 36C245.796 36 246.559 36.3161 247.121 36.8787C247.684 37.4413 248 38.2044 248 39V40" stroke="#053B25" stroke-width="1.5" stroke-linecap="round"/>
</g>
<defs>
<clipPath id="clip0_123_10096">
<rect width="291" height="146" rx="16" fill="white"/>
</clipPath>
</defs>
</svg>
