<svg width="372" height="209" viewBox="0 0 372 209" fill="none" xmlns="http://www.w3.org/2000/svg">
<rect width="372" height="209" rx="16" fill="white"/>
<rect x="0.5" y="0.5" width="371" height="208" rx="15.5" stroke="#030E09" stroke-opacity="0.05"/>
<path d="M25.264 41V29.688H27.264V34.552H28.88L32.08 29.688H34.352L30.576 35.224L34.352 41H32.032L28.976 36.376H27.264V41H25.264ZM39.2676 41.112C38.393 41.112 37.6463 40.9307 37.0276 40.568C36.4196 40.2053 35.9556 39.704 35.6356 39.064C35.3263 38.4133 35.1716 37.6613 35.1716 36.808C35.1716 35.9547 35.3316 35.2027 35.6516 34.552C35.9823 33.8907 36.4516 33.3733 37.0596 33C37.6783 32.6267 38.4196 32.44 39.2836 32.44C39.9236 32.44 40.4836 32.5573 40.9636 32.792C41.4436 33.016 41.8436 33.3253 42.1636 33.72C42.4943 34.1147 42.7396 34.5627 42.8996 35.064C43.0596 35.5653 43.1343 36.0933 43.1236 36.648C43.113 36.776 43.1023 36.904 43.0916 37.032C43.081 37.1493 43.065 37.2773 43.0436 37.416H37.1236C37.1556 37.7893 37.2516 38.1307 37.4116 38.44C37.5823 38.7493 37.817 38.9947 38.1156 39.176C38.425 39.3573 38.809 39.448 39.2676 39.448C39.5343 39.448 39.7903 39.416 40.0356 39.352C40.281 39.2773 40.4943 39.1707 40.6756 39.032C40.8676 38.8933 40.9956 38.7173 41.0596 38.504H43.0116C42.873 39.112 42.617 39.608 42.2436 39.992C41.8703 40.376 41.4223 40.6587 40.8996 40.84C40.3876 41.0213 39.8436 41.112 39.2676 41.112ZM37.1556 35.96H41.2196C41.2196 35.608 41.1396 35.288 40.9796 35C40.8196 34.712 40.5903 34.488 40.2916 34.328C40.0036 34.1573 39.6516 34.072 39.2356 34.072C38.7876 34.072 38.4143 34.1627 38.1156 34.344C37.817 34.5253 37.5876 34.76 37.4276 35.048C37.2676 35.336 37.177 35.64 37.1556 35.96ZM48.4391 44.856C47.7885 44.856 47.1538 44.7653 46.5351 44.584C45.9271 44.4133 45.3618 44.12 44.8391 43.704L45.5431 42.136C45.9058 42.424 46.3111 42.648 46.7591 42.808C47.2071 42.9787 47.6978 43.064 48.2311 43.064C49.0738 43.064 49.6871 42.8507 50.0711 42.424C50.4658 41.9973 50.6631 41.416 50.6631 40.68V40.056C50.4711 40.3013 50.2365 40.504 49.9591 40.664C49.6818 40.824 49.3831 40.9413 49.0631 41.016C48.7431 41.0907 48.4178 41.128 48.0871 41.128C47.2658 41.128 46.6098 40.9627 46.1191 40.632C45.6391 40.2907 45.2925 39.8267 45.0791 39.24C44.8658 38.6427 44.7591 37.9653 44.7591 37.208V32.568H46.6951V36.776C46.6951 37.0747 46.7165 37.3787 46.7591 37.688C46.8018 37.9973 46.8871 38.28 47.0151 38.536C47.1431 38.792 47.3298 39 47.5751 39.16C47.8311 39.3093 48.1671 39.384 48.5831 39.384C49.1271 39.384 49.5485 39.2507 49.8471 38.984C50.1458 38.7173 50.3485 38.3707 50.4551 37.944C50.5725 37.5173 50.6311 37.064 50.6311 36.584V32.568H52.5831V40.2C52.5831 40.9147 52.5085 41.5547 52.3591 42.12C52.2098 42.696 51.9698 43.1867 51.6391 43.592C51.3085 43.9973 50.8818 44.3067 50.3591 44.52C49.8365 44.744 49.1965 44.856 48.4391 44.856ZM59.3139 41V29.688H61.3139V41H59.3139ZM63.5571 41V32.568H65.3811L65.4931 33.64C65.7171 33.3413 65.9785 33.1067 66.2771 32.936C66.5758 32.7653 66.8905 32.6427 67.2211 32.568C67.5518 32.4827 67.8611 32.44 68.1491 32.44C68.9491 32.44 69.5785 32.616 70.0371 32.968C70.5065 33.32 70.8371 33.7893 71.0291 34.376C71.2211 34.9627 71.3171 35.6187 71.3171 36.344V41H69.3651V36.664C69.3651 36.3547 69.3438 36.056 69.3011 35.768C69.2585 35.4693 69.1731 35.2027 69.0451 34.968C68.9278 34.7333 68.7571 34.5467 68.5331 34.408C68.3091 34.2693 68.0105 34.2 67.6371 34.2C67.1785 34.2 66.7891 34.3227 66.4691 34.568C66.1491 34.8133 65.9091 35.144 65.7491 35.56C65.5891 35.9653 65.5091 36.4293 65.5091 36.952V41H63.5571ZM76.4149 41.112C76.0095 41.112 75.6042 41.0693 75.1989 40.984C74.8042 40.8987 74.4309 40.76 74.0789 40.568C73.7269 40.3653 73.4335 40.0933 73.1989 39.752C72.9642 39.4107 72.8095 38.984 72.7349 38.472H74.7029C74.7882 38.7067 74.9215 38.8987 75.1029 39.048C75.2949 39.1867 75.5135 39.2933 75.7589 39.368C76.0149 39.432 76.2655 39.464 76.5109 39.464C76.6602 39.464 76.8202 39.4533 76.9909 39.432C77.1722 39.4107 77.3375 39.368 77.4869 39.304C77.6469 39.24 77.7749 39.1493 77.8709 39.032C77.9669 38.904 78.0149 38.7387 78.0149 38.536C78.0149 38.344 77.9615 38.1947 77.8549 38.088C77.7482 37.9707 77.6042 37.88 77.4229 37.816C77.2415 37.7413 77.0229 37.6827 76.7669 37.64C76.3082 37.544 75.8175 37.4427 75.2949 37.336C74.7722 37.2187 74.3189 37.0373 73.9349 36.792C73.7749 36.696 73.6362 36.584 73.5189 36.456C73.4015 36.328 73.3002 36.1893 73.2149 36.04C73.1402 35.88 73.0815 35.7093 73.0389 35.528C73.0069 35.3467 72.9909 35.1493 72.9909 34.936C72.9909 34.488 73.0815 34.1093 73.2629 33.8C73.4549 33.48 73.7055 33.224 74.0149 33.032C74.3349 32.8293 74.6975 32.68 75.1029 32.584C75.5082 32.488 75.9242 32.44 76.3509 32.44C76.9269 32.44 77.4495 32.5307 77.9189 32.712C78.3882 32.8933 78.7775 33.1707 79.0869 33.544C79.4069 33.9173 79.5989 34.392 79.6629 34.968H77.8069C77.7535 34.7013 77.5882 34.488 77.3109 34.328C77.0442 34.168 76.7029 34.088 76.2869 34.088C76.1375 34.088 75.9829 34.104 75.8229 34.136C75.6629 34.1573 75.5082 34.2 75.3589 34.264C75.2202 34.3173 75.1029 34.4027 75.0069 34.52C74.9215 34.6373 74.8789 34.7813 74.8789 34.952C74.8789 35.112 74.9162 35.2507 74.9909 35.368C75.0762 35.4853 75.1989 35.5867 75.3589 35.672C75.5295 35.7467 75.7269 35.8107 75.9509 35.864C76.3135 35.9387 76.6922 36.0133 77.0869 36.088C77.4815 36.1627 77.8229 36.2373 78.1109 36.312C78.4522 36.408 78.7615 36.5467 79.0389 36.728C79.3162 36.8987 79.5295 37.128 79.6789 37.416C79.8389 37.6933 79.9189 38.0507 79.9189 38.488C79.9189 39 79.8122 39.4267 79.5989 39.768C79.3962 40.1093 79.1242 40.376 78.7829 40.568C78.4415 40.76 78.0629 40.8987 77.6469 40.984C77.2309 41.0693 76.8202 41.112 76.4149 41.112ZM81.3867 41V32.568H83.3387V41H81.3867ZM82.3627 31.592C81.9894 31.592 81.6907 31.48 81.4667 31.256C81.2427 31.032 81.1307 30.7387 81.1307 30.376C81.1307 30.024 81.2481 29.736 81.4827 29.512C81.7174 29.2773 82.0107 29.16 82.3627 29.16C82.7041 29.16 82.9974 29.272 83.2427 29.496C83.4881 29.72 83.6107 30.0133 83.6107 30.376C83.6107 30.7387 83.4934 31.032 83.2587 31.256C83.0241 31.48 82.7254 31.592 82.3627 31.592ZM89.1825 44.856C88.5638 44.856 87.9825 44.7547 87.4385 44.552C86.9052 44.36 86.4518 44.0507 86.0785 43.624C85.7158 43.208 85.4705 42.6693 85.3425 42.008H87.3425C87.4065 42.264 87.5345 42.472 87.7265 42.632C87.9185 42.792 88.1425 42.904 88.3985 42.968C88.6652 43.0427 88.9372 43.08 89.2145 43.08C89.7372 43.08 90.1478 42.9733 90.4465 42.76C90.7558 42.5467 90.9745 42.2533 91.1025 41.88C91.2305 41.5173 91.2945 41.1173 91.2945 40.68V39.88C91.1025 40.1893 90.8572 40.4347 90.5585 40.616C90.2705 40.7973 89.9612 40.9253 89.6305 41C89.3105 41.064 88.9905 41.096 88.6705 41.096C87.7958 41.096 87.0812 40.904 86.5265 40.52C85.9825 40.136 85.5825 39.624 85.3265 38.984C85.0705 38.3333 84.9425 37.6187 84.9425 36.84C84.9425 36.0293 85.0812 35.2933 85.3585 34.632C85.6465 33.96 86.0732 33.4267 86.6385 33.032C87.2145 32.6373 87.9345 32.44 88.7985 32.44C89.2998 32.44 89.7692 32.5307 90.2065 32.712C90.6545 32.8827 91.0278 33.144 91.3265 33.496L91.4545 32.568H93.2625V40.264C93.2625 41.2133 93.1238 42.0293 92.8465 42.712C92.5798 43.4053 92.1478 43.9333 91.5505 44.296C90.9532 44.6693 90.1638 44.856 89.1825 44.856ZM89.0705 39.368C89.5718 39.368 89.9878 39.2507 90.3185 39.016C90.6492 38.7707 90.8998 38.4507 91.0705 38.056C91.2412 37.6507 91.3265 37.2133 91.3265 36.744C91.3265 36.264 91.2412 35.832 91.0705 35.448C90.9105 35.064 90.6652 34.76 90.3345 34.536C90.0145 34.312 89.5985 34.2 89.0865 34.2C88.5425 34.2 88.1105 34.3227 87.7905 34.568C87.4705 34.8133 87.2358 35.1387 87.0865 35.544C86.9478 35.9387 86.8785 36.36 86.8785 36.808C86.8785 37.2773 86.9532 37.7093 87.1025 38.104C87.2518 38.488 87.4865 38.7973 87.8065 39.032C88.1265 39.256 88.5478 39.368 89.0705 39.368ZM95.1851 41V29.688H97.1371V33.656C97.3611 33.368 97.6225 33.1333 97.9211 32.952C98.2198 32.7707 98.5345 32.6427 98.8651 32.568C99.1958 32.4827 99.5105 32.44 99.8091 32.44C100.609 32.44 101.238 32.616 101.697 32.968C102.156 33.32 102.476 33.7893 102.657 34.376C102.849 34.9627 102.945 35.624 102.945 36.36V41H100.993V36.696C100.993 36.408 100.972 36.1147 100.929 35.816C100.886 35.5173 100.801 35.2507 100.673 35.016C100.556 34.7707 100.374 34.5733 100.129 34.424C99.8945 34.2747 99.5798 34.2 99.1851 34.2C98.8118 34.2 98.4918 34.28 98.2251 34.44C97.9585 34.5893 97.7451 34.7973 97.5851 35.064C97.4358 35.3307 97.3238 35.624 97.2491 35.944C97.1745 36.264 97.1371 36.584 97.1371 36.904V41H95.1851ZM108.171 41.096C107.243 41.096 106.566 40.84 106.139 40.328C105.712 39.816 105.499 39.1067 105.499 38.2V34.296H104.203V32.568H105.499V30.2H107.451V32.568H110.011V34.296H107.451V37.832C107.451 38.1093 107.483 38.36 107.547 38.584C107.611 38.808 107.728 38.984 107.899 39.112C108.07 39.24 108.304 39.3093 108.603 39.32C108.859 39.32 109.078 39.2773 109.259 39.192C109.44 39.1067 109.59 39.0107 109.707 38.904L110.363 40.392C110.16 40.5627 109.931 40.7013 109.675 40.808C109.43 40.9147 109.179 40.9893 108.923 41.032C108.667 41.0747 108.416 41.096 108.171 41.096ZM114.684 41.112C114.279 41.112 113.874 41.0693 113.468 40.984C113.074 40.8987 112.7 40.76 112.348 40.568C111.996 40.3653 111.703 40.0933 111.468 39.752C111.234 39.4107 111.079 38.984 111.004 38.472H112.972C113.058 38.7067 113.191 38.8987 113.372 39.048C113.564 39.1867 113.783 39.2933 114.028 39.368C114.284 39.432 114.535 39.464 114.78 39.464C114.93 39.464 115.09 39.4533 115.26 39.432C115.442 39.4107 115.607 39.368 115.756 39.304C115.916 39.24 116.044 39.1493 116.14 39.032C116.236 38.904 116.284 38.7387 116.284 38.536C116.284 38.344 116.231 38.1947 116.124 38.088C116.018 37.9707 115.874 37.88 115.692 37.816C115.511 37.7413 115.292 37.6827 115.036 37.64C114.578 37.544 114.087 37.4427 113.564 37.336C113.042 37.2187 112.588 37.0373 112.204 36.792C112.044 36.696 111.906 36.584 111.788 36.456C111.671 36.328 111.57 36.1893 111.484 36.04C111.41 35.88 111.351 35.7093 111.308 35.528C111.276 35.3467 111.26 35.1493 111.26 34.936C111.26 34.488 111.351 34.1093 111.532 33.8C111.724 33.48 111.975 33.224 112.284 33.032C112.604 32.8293 112.967 32.68 113.372 32.584C113.778 32.488 114.194 32.44 114.62 32.44C115.196 32.44 115.719 32.5307 116.188 32.712C116.658 32.8933 117.047 33.1707 117.356 33.544C117.676 33.9173 117.868 34.392 117.932 34.968H116.076C116.023 34.7013 115.858 34.488 115.58 34.328C115.314 34.168 114.972 34.088 114.556 34.088C114.407 34.088 114.252 34.104 114.092 34.136C113.932 34.1573 113.778 34.2 113.628 34.264C113.49 34.3173 113.372 34.4027 113.276 34.52C113.191 34.6373 113.148 34.7813 113.148 34.952C113.148 35.112 113.186 35.2507 113.26 35.368C113.346 35.4853 113.468 35.5867 113.628 35.672C113.799 35.7467 113.996 35.8107 114.22 35.864C114.583 35.9387 114.962 36.0133 115.356 36.088C115.751 36.1627 116.092 36.2373 116.38 36.312C116.722 36.408 117.031 36.5467 117.308 36.728C117.586 36.8987 117.799 37.128 117.948 37.416C118.108 37.6933 118.188 38.0507 118.188 38.488C118.188 39 118.082 39.4267 117.868 39.768C117.666 40.1093 117.394 40.376 117.052 40.568C116.711 40.76 116.332 40.8987 115.916 40.984C115.5 41.0693 115.09 41.112 114.684 41.112Z" fill="#030E09"/>
<path d="M329 38C330.105 38 331 37.1046 331 36C331 34.8954 330.105 34 329 34C327.895 34 327 34.8954 327 36C327 37.1046 327.895 38 329 38Z" stroke="#030E09" stroke-opacity="0.6" stroke-width="1.5"/>
<path opacity="0.5" d="M336 38C337.105 38 338 37.1046 338 36C338 34.8954 337.105 34 336 34C334.895 34 334 34.8954 334 36C334 37.1046 334.895 38 336 38Z" stroke="#030E09" stroke-opacity="0.6" stroke-width="1.5"/>
<path d="M343 38C344.105 38 345 37.1046 345 36C345 34.8954 344.105 34 343 34C341.895 34 341 34.8954 341 36C341 37.1046 341.895 38 343 38Z" stroke="#030E09" stroke-opacity="0.6" stroke-width="1.5"/>
<path d="M24.16 88L28.368 76.688H30.368L34.56 88H33.056L32.16 85.568H26.56L25.664 88H24.16ZM27.024 84.304H31.696L29.36 77.904L27.024 84.304ZM35.8227 88V76.688H37.1827V88H35.8227ZM39.3548 88V76.688H40.7148V88H39.3548ZM42.9988 84.112V82.864H47.9588V84.112H42.9988ZM53.6709 88C53.0309 88 52.5135 87.904 52.1189 87.712C51.7349 87.52 51.4522 87.2213 51.2709 86.816C51.1002 86.4107 51.0149 85.8987 51.0149 85.28V80.768H49.6389V79.568H51.0149V77.056H52.3749V79.568H54.6309V80.768H52.3749V85.136C52.3749 85.712 52.4762 86.1387 52.6789 86.416C52.8922 86.6827 53.3189 86.816 53.9589 86.816H54.5829V88H53.6709ZM56.2007 88V79.568H57.5608V88H56.2007ZM56.8727 78.32C56.5954 78.32 56.3714 78.2347 56.2007 78.064C56.0407 77.8933 55.9607 77.6747 55.9607 77.408C55.9607 77.1413 56.0461 76.928 56.2167 76.768C56.3874 76.5973 56.6061 76.512 56.8727 76.512C57.1181 76.512 57.3314 76.5973 57.5127 76.768C57.7047 76.9387 57.8008 77.152 57.8008 77.408C57.8008 77.6747 57.7101 77.8933 57.5287 78.064C57.3474 78.2347 57.1287 78.32 56.8727 78.32ZM59.7328 88V79.568H61.0448L61.1088 80.576C61.2901 80.32 61.4928 80.112 61.7168 79.952C61.9514 79.792 62.2074 79.6747 62.4848 79.6C62.7728 79.5147 63.0768 79.472 63.3968 79.472C63.9834 79.472 64.4581 79.6 64.8208 79.856C65.1834 80.1013 65.4554 80.4267 65.6368 80.832C65.8288 80.544 66.0474 80.2987 66.2928 80.096C66.5488 79.8933 66.8314 79.7387 67.1408 79.632C67.4608 79.5253 67.8128 79.472 68.1968 79.472C68.8154 79.472 69.3114 79.6053 69.6848 79.872C70.0688 80.1387 70.3461 80.5013 70.5168 80.96C70.6874 81.408 70.7728 81.9147 70.7728 82.48V88H69.4128V83.168C69.4128 82.8907 69.3968 82.608 69.3648 82.32C69.3434 82.032 69.2794 81.7653 69.1728 81.52C69.0661 81.264 68.9061 81.0613 68.6928 80.912C68.4901 80.752 68.2021 80.672 67.8288 80.672C67.4768 80.672 67.1781 80.7573 66.9328 80.928C66.6981 81.088 66.5061 81.3067 66.3568 81.584C66.2074 81.8613 66.1008 82.16 66.0368 82.48C65.9728 82.7893 65.9408 83.0987 65.9408 83.408V88H64.5808V83.152C64.5808 82.8853 64.5648 82.608 64.5328 82.32C64.5114 82.032 64.4528 81.7653 64.3568 81.52C64.2714 81.264 64.1221 81.0613 63.9088 80.912C63.7061 80.752 63.4234 80.672 63.0608 80.672C62.5488 80.672 62.1488 80.8213 61.8608 81.12C61.5728 81.408 61.3701 81.7653 61.2528 82.192C61.1461 82.608 61.0928 83.0187 61.0928 83.424V88H59.7328ZM76.5221 88.096C75.6261 88.096 74.8848 87.9147 74.2981 87.552C73.7115 87.1787 73.2741 86.6667 72.9861 86.016C72.6981 85.3653 72.5541 84.624 72.5541 83.792C72.5541 82.9493 72.7035 82.208 73.0021 81.568C73.3115 80.9173 73.7595 80.4053 74.3461 80.032C74.9328 79.6587 75.6528 79.472 76.5061 79.472C77.1675 79.472 77.7328 79.6 78.2021 79.856C78.6821 80.1013 79.0768 80.432 79.3861 80.848C79.6955 81.264 79.9195 81.7227 80.0581 82.224C80.1968 82.7147 80.2555 83.2107 80.2341 83.712C80.2235 83.808 80.2128 83.904 80.2021 84C80.2021 84.096 80.1968 84.192 80.1861 84.288H73.9301C73.9728 84.7787 74.0955 85.2213 74.2981 85.616C74.5008 86.0107 74.7888 86.3253 75.1621 86.56C75.5355 86.784 75.9995 86.896 76.5541 86.896C76.8315 86.896 77.1088 86.864 77.3861 86.8C77.6741 86.7253 77.9301 86.6027 78.1541 86.432C78.3888 86.2613 78.5541 86.032 78.6501 85.744H80.0421C79.9141 86.288 79.6741 86.736 79.3221 87.088C78.9701 87.4293 78.5488 87.6853 78.0581 87.856C77.5675 88.016 77.0555 88.096 76.5221 88.096ZM73.9621 83.104H78.8421C78.8315 82.624 78.7248 82.2027 78.5221 81.84C78.3195 81.4773 78.0421 81.1947 77.6901 80.992C77.3488 80.7893 76.9381 80.688 76.4581 80.688C75.9355 80.688 75.4928 80.8 75.1301 81.024C74.7781 81.248 74.5061 81.5413 74.3141 81.904C74.1221 82.2667 74.0048 82.6667 73.9621 83.104ZM86.7425 88V76.688H90.9825C91.6118 76.688 92.1718 76.752 92.6625 76.88C93.1638 77.008 93.5905 77.2107 93.9425 77.488C94.2945 77.7653 94.5612 78.1333 94.7425 78.592C94.9345 79.04 95.0305 79.584 95.0305 80.224C95.0305 80.8533 94.9132 81.392 94.6785 81.84C94.4438 82.2773 94.1345 82.6347 93.7505 82.912C93.3665 83.1893 92.9505 83.392 92.5025 83.52L94.8705 88H93.3505L91.0945 83.76H88.1345V88H86.7425ZM88.1345 82.496H90.5345C90.9505 82.496 91.3398 82.464 91.7025 82.4C92.0758 82.336 92.4012 82.224 92.6785 82.064C92.9665 81.8933 93.1905 81.6587 93.3505 81.36C93.5105 81.0507 93.5958 80.656 93.6065 80.176C93.6172 79.632 93.5158 79.2 93.3025 78.88C93.0892 78.5493 92.7745 78.3147 92.3585 78.176C91.9425 78.0267 91.4358 77.952 90.8385 77.952H88.1345V82.496ZM100.477 88.096C99.5815 88.096 98.8402 87.9147 98.2535 87.552C97.6668 87.1787 97.2295 86.6667 96.9415 86.016C96.6535 85.3653 96.5095 84.624 96.5095 83.792C96.5095 82.9493 96.6588 82.208 96.9575 81.568C97.2668 80.9173 97.7148 80.4053 98.3015 80.032C98.8882 79.6587 99.6082 79.472 100.461 79.472C101.123 79.472 101.688 79.6 102.157 79.856C102.637 80.1013 103.032 80.432 103.342 80.848C103.651 81.264 103.875 81.7227 104.014 82.224C104.152 82.7147 104.211 83.2107 104.189 83.712C104.179 83.808 104.168 83.904 104.158 84C104.158 84.096 104.152 84.192 104.142 84.288H97.8855C97.9282 84.7787 98.0508 85.2213 98.2535 85.616C98.4562 86.0107 98.7442 86.3253 99.1175 86.56C99.4908 86.784 99.9548 86.896 100.51 86.896C100.787 86.896 101.064 86.864 101.341 86.8C101.629 86.7253 101.885 86.6027 102.109 86.432C102.344 86.2613 102.51 86.032 102.606 85.744H103.998C103.87 86.288 103.63 86.736 103.278 87.088C102.925 87.4293 102.504 87.6853 102.014 87.856C101.523 88.016 101.011 88.096 100.477 88.096ZM97.9175 83.104H102.798C102.787 82.624 102.68 82.2027 102.477 81.84C102.275 81.4773 101.998 81.1947 101.646 80.992C101.304 80.7893 100.894 80.688 100.413 80.688C99.8908 80.688 99.4482 80.8 99.0855 81.024C98.7335 81.248 98.4615 81.5413 98.2695 81.904C98.0775 82.2667 97.9602 82.6667 97.9175 83.104ZM108.321 88L105.073 79.568H106.609L109.265 86.688L111.873 79.568H113.425L110.177 88H108.321ZM118.292 88.096C117.396 88.096 116.654 87.9147 116.068 87.552C115.481 87.1787 115.044 86.6667 114.756 86.016C114.468 85.3653 114.324 84.624 114.324 83.792C114.324 82.9493 114.473 82.208 114.772 81.568C115.081 80.9173 115.529 80.4053 116.116 80.032C116.702 79.6587 117.422 79.472 118.276 79.472C118.937 79.472 119.502 79.6 119.972 79.856C120.452 80.1013 120.846 80.432 121.156 80.848C121.465 81.264 121.689 81.7227 121.828 82.224C121.966 82.7147 122.025 83.2107 122.004 83.712C121.993 83.808 121.982 83.904 121.972 84C121.972 84.096 121.966 84.192 121.956 84.288H115.7C115.742 84.7787 115.865 85.2213 116.068 85.616C116.27 86.0107 116.558 86.3253 116.932 86.56C117.305 86.784 117.769 86.896 118.324 86.896C118.601 86.896 118.878 86.864 119.156 86.8C119.444 86.7253 119.7 86.6027 119.924 86.432C120.158 86.2613 120.324 86.032 120.42 85.744H121.812C121.684 86.288 121.444 86.736 121.092 87.088C120.74 87.4293 120.318 87.6853 119.828 87.856C119.337 88.016 118.825 88.096 118.292 88.096ZM115.732 83.104H120.612C120.601 82.624 120.494 82.2027 120.292 81.84C120.089 81.4773 119.812 81.1947 119.46 80.992C119.118 80.7893 118.708 80.688 118.228 80.688C117.705 80.688 117.262 80.8 116.9 81.024C116.548 81.248 116.276 81.5413 116.084 81.904C115.892 82.2667 115.774 82.6667 115.732 83.104ZM123.847 88V79.568H125.159L125.223 80.848C125.415 80.5387 125.661 80.2827 125.959 80.08C126.258 79.8773 126.583 79.728 126.935 79.632C127.298 79.5253 127.65 79.472 127.991 79.472C128.813 79.472 129.453 79.6427 129.911 79.984C130.381 80.3253 130.711 80.7893 130.903 81.376C131.106 81.952 131.207 82.608 131.207 83.344V88H129.847V83.712C129.847 83.3173 129.821 82.9387 129.767 82.576C129.725 82.2133 129.629 81.888 129.479 81.6C129.341 81.312 129.138 81.088 128.871 80.928C128.605 80.7573 128.247 80.672 127.799 80.672C127.245 80.672 126.77 80.8267 126.375 81.136C125.991 81.4453 125.698 81.8613 125.495 82.384C125.303 82.9067 125.207 83.4933 125.207 84.144V88H123.847ZM136.852 88.096C135.69 88.096 134.804 87.7867 134.196 87.168C133.599 86.5493 133.3 85.6 133.3 84.32V79.568H134.66V84.256C134.66 84.8107 134.74 85.2853 134.9 85.68C135.06 86.0747 135.3 86.3787 135.62 86.592C135.951 86.7947 136.362 86.896 136.852 86.896C137.364 86.896 137.786 86.7947 138.116 86.592C138.447 86.3787 138.687 86.0747 138.836 85.68C138.996 85.2853 139.076 84.8107 139.076 84.256V79.568H140.436V84.32C140.436 85.6 140.127 86.5493 139.508 87.168C138.9 87.7867 138.015 88.096 136.852 88.096ZM146.231 88.096C145.335 88.096 144.594 87.9147 144.007 87.552C143.421 87.1787 142.983 86.6667 142.695 86.016C142.407 85.3653 142.263 84.624 142.263 83.792C142.263 82.9493 142.413 82.208 142.711 81.568C143.021 80.9173 143.469 80.4053 144.055 80.032C144.642 79.6587 145.362 79.472 146.215 79.472C146.877 79.472 147.442 79.6 147.911 79.856C148.391 80.1013 148.786 80.432 149.095 80.848C149.405 81.264 149.629 81.7227 149.767 82.224C149.906 82.7147 149.965 83.2107 149.943 83.712C149.933 83.808 149.922 83.904 149.911 84C149.911 84.096 149.906 84.192 149.895 84.288H143.639C143.682 84.7787 143.805 85.2213 144.007 85.616C144.21 86.0107 144.498 86.3253 144.871 86.56C145.245 86.784 145.709 86.896 146.263 86.896C146.541 86.896 146.818 86.864 147.095 86.8C147.383 86.7253 147.639 86.6027 147.863 86.432C148.098 86.2613 148.263 86.032 148.359 85.744H149.751C149.623 86.288 149.383 86.736 149.031 87.088C148.679 87.4293 148.258 87.6853 147.767 87.856C147.277 88.016 146.765 88.096 146.231 88.096ZM143.671 83.104H148.551C148.541 82.624 148.434 82.2027 148.231 81.84C148.029 81.4773 147.751 81.1947 147.399 80.992C147.058 80.7893 146.647 80.688 146.167 80.688C145.645 80.688 145.202 80.8 144.839 81.024C144.487 81.248 144.215 81.5413 144.023 81.904C143.831 82.2667 143.714 82.6667 143.671 83.104Z" fill="#030E09" fill-opacity="0.6"/>
<path d="M30.624 122.36V119.024C29.728 118.896 28.896 118.64 28.128 118.256C27.36 117.872 26.72 117.336 26.208 116.648C25.712 115.944 25.384 115.072 25.224 114.032H28.272C28.464 114.656 28.768 115.144 29.184 115.496C29.616 115.848 30.112 116.096 30.672 116.24C31.248 116.384 31.84 116.456 32.448 116.456C33.008 116.456 33.52 116.384 33.984 116.24C34.464 116.096 34.848 115.864 35.136 115.544C35.44 115.224 35.592 114.816 35.592 114.32C35.592 113.904 35.496 113.568 35.304 113.312C35.128 113.056 34.88 112.848 34.56 112.688C34.256 112.528 33.896 112.392 33.48 112.28C32.84 112.088 32.216 111.936 31.608 111.824C31.016 111.696 30.448 111.56 29.904 111.416C29.376 111.272 28.872 111.088 28.392 110.864C27.608 110.48 26.976 109.968 26.496 109.328C26.032 108.688 25.8 107.808 25.8 106.688C25.8 105.68 26.032 104.84 26.496 104.168C26.96 103.48 27.568 102.952 28.32 102.584C29.072 102.2 29.88 101.976 30.744 101.912V98.624H33.552V101.96C34.416 102.056 35.192 102.304 35.88 102.704C36.568 103.104 37.12 103.648 37.536 104.336C37.952 105.008 38.168 105.824 38.184 106.784H35.256C35.208 106.256 35.024 105.824 34.704 105.488C34.4 105.152 34.008 104.912 33.528 104.768C33.048 104.608 32.52 104.528 31.944 104.528C31.448 104.528 30.952 104.592 30.456 104.72C29.976 104.832 29.576 105.04 29.256 105.344C28.952 105.632 28.8 106.048 28.8 106.592C28.8 106.928 28.88 107.232 29.04 107.504C29.2 107.76 29.416 107.976 29.688 108.152C29.96 108.328 30.272 108.472 30.624 108.584C31.216 108.808 31.872 108.992 32.592 109.136C33.312 109.28 33.984 109.448 34.608 109.64C35.424 109.864 36.128 110.144 36.72 110.48C37.328 110.8 37.792 111.24 38.112 111.8C38.448 112.344 38.616 113.056 38.616 113.936C38.616 115.056 38.384 115.976 37.92 116.696C37.456 117.416 36.832 117.976 36.048 118.376C35.264 118.776 34.392 119.016 33.432 119.096V122.36H30.624ZM47.0672 119.192C46.3152 119.192 45.5712 119.104 44.8352 118.928C44.0992 118.752 43.4272 118.48 42.8192 118.112C42.2112 117.728 41.6992 117.232 41.2832 116.624C40.8832 116.016 40.6272 115.28 40.5152 114.416H43.4912C43.6352 114.912 43.8912 115.304 44.2592 115.592C44.6432 115.88 45.0832 116.096 45.5792 116.24C46.0752 116.368 46.5792 116.432 47.0912 116.432C47.4592 116.432 47.8272 116.4 48.1952 116.336C48.5632 116.272 48.9072 116.152 49.2272 115.976C49.5472 115.8 49.8032 115.552 49.9952 115.232C50.1872 114.912 50.2832 114.496 50.2832 113.984C50.2832 113.52 50.1952 113.136 50.0192 112.832C49.8592 112.528 49.6272 112.296 49.3232 112.136C49.0352 111.96 48.6992 111.84 48.3152 111.776C47.9472 111.696 47.5552 111.656 47.1392 111.656H45.2672V109.088H46.4912C46.9552 109.088 47.3792 109.04 47.7632 108.944C48.1472 108.848 48.4832 108.712 48.7712 108.536C49.0592 108.344 49.2752 108.104 49.4192 107.816C49.5792 107.528 49.6592 107.184 49.6592 106.784C49.6592 106.208 49.5312 105.76 49.2752 105.44C49.0352 105.12 48.7072 104.896 48.2912 104.768C47.8752 104.624 47.4192 104.552 46.9232 104.552C46.4752 104.552 46.0432 104.624 45.6272 104.768C45.2112 104.896 44.8512 105.096 44.5472 105.368C44.2432 105.64 44.0512 105.984 43.9712 106.4H41.0432C41.1392 105.6 41.3712 104.912 41.7392 104.336C42.1072 103.76 42.5632 103.288 43.1072 102.92C43.6672 102.536 44.2912 102.256 44.9792 102.08C45.6672 101.904 46.3792 101.816 47.1152 101.816C47.8352 101.816 48.5232 101.896 49.1792 102.056C49.8512 102.216 50.4432 102.48 50.9552 102.848C51.4672 103.2 51.8752 103.664 52.1792 104.24C52.4832 104.816 52.6352 105.52 52.6352 106.352C52.6352 106.88 52.5472 107.376 52.3712 107.84C52.1952 108.304 51.9392 108.712 51.6032 109.064C51.2832 109.416 50.8912 109.704 50.4272 109.928C51.0672 110.104 51.6032 110.392 52.0352 110.792C52.4672 111.176 52.7872 111.64 52.9952 112.184C53.2192 112.728 53.3312 113.328 53.3312 113.984C53.3312 115.008 53.1392 115.864 52.7552 116.552C52.3872 117.224 51.8912 117.752 51.2672 118.136C50.6592 118.52 49.9872 118.792 49.2512 118.952C48.5152 119.112 47.7872 119.192 47.0672 119.192ZM61.5248 119.192C60.6128 119.192 59.7488 119.04 58.9328 118.736C58.1328 118.416 57.4528 117.936 56.8928 117.296C56.3328 116.656 55.9648 115.856 55.7888 114.896H58.7888C59.0128 115.408 59.3968 115.8 59.9408 116.072C60.5008 116.328 61.0848 116.456 61.6928 116.456C62.4288 116.456 63.0368 116.312 63.5168 116.024C64.0128 115.72 64.4048 115.32 64.6928 114.824C64.9968 114.312 65.2128 113.752 65.3408 113.144C65.4688 112.52 65.5328 111.888 65.5328 111.248C65.5328 111.168 65.5328 111.088 65.5328 111.008C65.5328 110.928 65.5328 110.856 65.5328 110.792C65.1968 111.352 64.7808 111.792 64.2848 112.112C63.7888 112.416 63.2608 112.64 62.7008 112.784C62.1408 112.912 61.5968 112.976 61.0688 112.976C60.0608 112.976 59.1488 112.768 58.3328 112.352C57.5168 111.936 56.8688 111.328 56.3888 110.528C55.9088 109.712 55.6688 108.736 55.6688 107.6C55.6688 106.384 55.9408 105.344 56.4848 104.48C57.0288 103.616 57.7648 102.96 58.6928 102.512C59.6368 102.048 60.6848 101.816 61.8368 101.816C63.0848 101.816 64.1248 102.072 64.9568 102.584C65.7888 103.096 66.4528 103.784 66.9488 104.648C67.4448 105.496 67.7968 106.44 68.0048 107.48C68.2128 108.52 68.3168 109.576 68.3168 110.648C68.3168 111.832 68.1888 112.944 67.9328 113.984C67.6928 115.008 67.3008 115.912 66.7568 116.696C66.2288 117.48 65.5328 118.096 64.6688 118.544C63.8048 118.976 62.7568 119.192 61.5248 119.192ZM61.6928 110.408C62.3168 110.408 62.8608 110.28 63.3248 110.024C63.8048 109.752 64.1728 109.4 64.4288 108.968C64.6848 108.52 64.8048 108.04 64.7888 107.528C64.7888 106.92 64.6528 106.4 64.3808 105.968C64.1248 105.52 63.7648 105.168 63.3008 104.912C62.8368 104.656 62.3168 104.528 61.7408 104.528C61.1168 104.528 60.5728 104.664 60.1088 104.936C59.6608 105.208 59.3088 105.568 59.0528 106.016C58.7968 106.464 58.6688 106.944 58.6688 107.456C58.6688 108.336 58.9328 109.048 59.4608 109.592C59.9888 110.136 60.7328 110.408 61.6928 110.408ZM76.863 119.192C76.111 119.192 75.399 119.104 74.727 118.928C74.055 118.736 73.447 118.448 72.903 118.064C72.359 117.68 71.903 117.192 71.535 116.6C71.183 115.992 70.943 115.28 70.815 114.464H73.767C73.895 114.816 74.103 115.144 74.391 115.448C74.695 115.752 75.055 115.992 75.471 116.168C75.903 116.344 76.367 116.432 76.863 116.432C77.535 116.432 78.111 116.32 78.591 116.096C79.071 115.856 79.447 115.52 79.719 115.088C79.991 114.64 80.127 114.104 80.127 113.48C80.127 112.552 79.839 111.824 79.263 111.296C78.703 110.768 77.935 110.504 76.959 110.504C76.383 110.504 75.847 110.608 75.351 110.816C74.855 111.008 74.391 111.28 73.959 111.632H71.295L71.751 102.032H82.575V104.768H74.511L74.223 108.824C74.703 108.488 75.255 108.24 75.879 108.08C76.503 107.904 77.183 107.824 77.919 107.84C79.007 107.856 79.943 108.096 80.727 108.56C81.527 109.008 82.135 109.632 82.551 110.432C82.967 111.232 83.175 112.176 83.175 113.264C83.175 114.528 82.895 115.6 82.335 116.48C81.791 117.36 81.039 118.032 80.079 118.496C79.135 118.96 78.063 119.192 76.863 119.192ZM87.5966 119.288C87.0846 119.288 86.6446 119.12 86.2766 118.784C85.9246 118.448 85.7486 117.992 85.7486 117.416C85.7486 116.84 85.9326 116.384 86.3006 116.048C86.6686 115.696 87.1086 115.52 87.6206 115.52C88.1326 115.52 88.5646 115.696 88.9166 116.048C89.2686 116.384 89.4446 116.84 89.4446 117.416C89.4446 117.992 89.2686 118.448 88.9166 118.784C88.5646 119.12 88.1246 119.288 87.5966 119.288ZM92.7917 119L99.4157 104.792H91.0157V102.032H102.776V104.288L96.1277 119H92.7917ZM104.595 119V102.032H107.523V111.416H109.347L112.683 106.352H115.971L111.867 112.376L116.307 119H112.899L109.515 113.984H107.523V119H104.595Z" fill="#030E09"/>
<rect x="125" y="101" width="50" height="20" rx="10" fill="#93D973" fill-opacity="0.15"/>
<path d="M135.82 112.688V110.804H134.02V109.676H135.82V107.792H136.948V109.676H138.76V110.804H136.948V112.688H135.82ZM140.121 114.5V113.444L142.509 111.404C142.709 111.236 142.929 111.048 143.169 110.84C143.417 110.632 143.653 110.408 143.877 110.168C144.109 109.928 144.297 109.672 144.441 109.4C144.593 109.128 144.669 108.844 144.669 108.548C144.669 108.092 144.529 107.736 144.249 107.48C143.977 107.224 143.605 107.096 143.133 107.096C142.733 107.096 142.393 107.18 142.113 107.348C141.841 107.516 141.661 107.752 141.573 108.056H140.277C140.349 107.568 140.529 107.168 140.817 106.856C141.105 106.544 141.457 106.312 141.873 106.16C142.289 106 142.725 105.92 143.181 105.92C143.709 105.92 144.181 106.016 144.597 106.208C145.013 106.4 145.341 106.684 145.581 107.06C145.821 107.428 145.941 107.88 145.941 108.416C145.941 108.92 145.845 109.368 145.653 109.76C145.461 110.152 145.205 110.508 144.885 110.828C144.573 111.148 144.233 111.46 143.865 111.764L141.981 113.336H146.001V114.5H140.121ZM148.366 114.62C148.126 114.62 147.926 114.544 147.766 114.392C147.614 114.24 147.538 114.04 147.538 113.792C147.538 113.544 147.618 113.344 147.778 113.192C147.938 113.032 148.134 112.952 148.366 112.952C148.598 112.952 148.79 113.032 148.942 113.192C149.102 113.344 149.182 113.544 149.182 113.792C149.182 114.04 149.102 114.24 148.942 114.392C148.79 114.544 148.598 114.62 148.366 114.62ZM151.027 114.5L154.399 107.18H150.055V106.016H155.815V107.012L152.431 114.5H151.027ZM157.733 114.5L163.061 106.016H164.333L159.029 114.5H157.733ZM163.553 114.572C163.161 114.572 162.825 114.488 162.545 114.32C162.273 114.152 162.061 113.924 161.909 113.636C161.765 113.34 161.693 113.004 161.693 112.628C161.693 112.236 161.765 111.896 161.909 111.608C162.061 111.32 162.277 111.096 162.557 110.936C162.837 110.768 163.169 110.684 163.553 110.684C163.937 110.684 164.265 110.764 164.537 110.924C164.809 111.084 165.017 111.312 165.161 111.608C165.305 111.896 165.377 112.232 165.377 112.616C165.377 112.992 165.301 113.328 165.149 113.624C165.005 113.92 164.797 114.152 164.525 114.32C164.253 114.488 163.929 114.572 163.553 114.572ZM163.541 113.588C163.741 113.588 163.901 113.544 164.021 113.456C164.141 113.368 164.225 113.248 164.273 113.096C164.329 112.944 164.357 112.788 164.357 112.628C164.357 112.468 164.329 112.316 164.273 112.172C164.225 112.02 164.141 111.9 164.021 111.812C163.901 111.724 163.741 111.68 163.541 111.68C163.237 111.68 163.021 111.78 162.893 111.98C162.765 112.172 162.701 112.388 162.701 112.628C162.701 112.884 162.765 113.108 162.893 113.3C163.029 113.492 163.245 113.588 163.541 113.588ZM158.573 109.808C158.181 109.808 157.845 109.724 157.565 109.556C157.293 109.388 157.085 109.16 156.941 108.872C156.797 108.576 156.725 108.24 156.725 107.864C156.725 107.472 156.797 107.132 156.941 106.844C157.085 106.556 157.297 106.332 157.577 106.172C157.857 106.004 158.193 105.92 158.585 105.92C158.969 105.92 159.297 106 159.569 106.16C159.841 106.32 160.049 106.548 160.193 106.844C160.337 107.132 160.409 107.468 160.409 107.852C160.409 108.228 160.337 108.564 160.193 108.86C160.049 109.156 159.837 109.388 159.557 109.556C159.285 109.724 158.957 109.808 158.573 109.808ZM158.573 108.824C158.773 108.824 158.929 108.78 159.041 108.692C159.161 108.596 159.249 108.476 159.305 108.332C159.361 108.18 159.389 108.024 159.389 107.864C159.389 107.696 159.361 107.54 159.305 107.396C159.249 107.252 159.161 107.136 159.041 107.048C158.929 106.952 158.773 106.904 158.573 106.904C158.269 106.904 158.049 107.004 157.913 107.204C157.785 107.396 157.721 107.616 157.721 107.864C157.721 108.12 157.785 108.344 157.913 108.536C158.049 108.728 158.269 108.824 158.573 108.824Z" fill="#70C748"/>
<rect x="24" y="144" width="203" height="8" rx="2" fill="#053B25"/>
<rect x="231" y="144" width="73" height="8" rx="2" fill="#F6B51E"/>
<rect x="308" y="144" width="40" height="8" rx="2" fill="#C2FD75"/>
<circle cx="29" cy="176.5" r="5" fill="#053B25"/>
<path d="M42.12 180L45.276 171.516H46.776L49.92 180H48.792L48.12 178.176H43.92L43.248 180H42.12ZM44.268 177.228H47.772L46.02 172.428L44.268 177.228ZM53.1711 180.072C52.8831 180.072 52.5911 180.044 52.2951 179.988C52.0071 179.932 51.7351 179.836 51.4791 179.7C51.2311 179.564 51.0231 179.38 50.8551 179.148C50.6871 178.916 50.5791 178.628 50.5311 178.284H51.5631C51.6431 178.5 51.7711 178.676 51.9471 178.812C52.1311 178.94 52.3351 179.032 52.5591 179.088C52.7911 179.144 53.0111 179.172 53.2191 179.172C53.3471 179.172 53.4951 179.164 53.6631 179.148C53.8311 179.132 53.9911 179.096 54.1431 179.04C54.3031 178.976 54.4311 178.884 54.5271 178.764C54.6311 178.644 54.6831 178.476 54.6831 178.26C54.6831 178.1 54.6471 177.968 54.5751 177.864C54.5031 177.76 54.4031 177.676 54.2751 177.612C54.1471 177.54 53.9911 177.488 53.8071 177.456C53.4311 177.376 53.0271 177.3 52.5951 177.228C52.1711 177.156 51.7951 177.02 51.4671 176.82C51.3551 176.748 51.2511 176.668 51.1551 176.58C51.0671 176.484 50.9911 176.38 50.9271 176.268C50.8631 176.148 50.8111 176.02 50.7711 175.884C50.7391 175.74 50.7231 175.584 50.7231 175.416C50.7231 175.104 50.7831 174.836 50.9031 174.612C51.0311 174.38 51.2071 174.192 51.4311 174.048C51.6551 173.896 51.9111 173.784 52.1991 173.712C52.4951 173.64 52.8111 173.604 53.1471 173.604C53.5631 173.604 53.9351 173.672 54.2631 173.808C54.5991 173.936 54.8751 174.128 55.0911 174.384C55.3071 174.632 55.4351 174.94 55.4751 175.308H54.5271C54.4711 175.076 54.3191 174.888 54.0711 174.744C53.8231 174.592 53.5071 174.516 53.1231 174.516C52.9951 174.516 52.8511 174.528 52.6911 174.552C52.5311 174.568 52.3791 174.608 52.2351 174.672C52.0911 174.728 51.9711 174.816 51.8751 174.936C51.7791 175.048 51.7311 175.2 51.7311 175.392C51.7311 175.568 51.7751 175.716 51.8631 175.836C51.9591 175.956 52.0911 176.052 52.2591 176.124C52.4271 176.196 52.6191 176.256 52.8351 176.304C53.1151 176.36 53.4231 176.42 53.7591 176.484C54.0951 176.54 54.3591 176.6 54.5511 176.664C54.8071 176.744 55.0191 176.856 55.1871 177C55.3631 177.144 55.4911 177.316 55.5711 177.516C55.6591 177.716 55.7031 177.948 55.7031 178.212C55.7031 178.588 55.6271 178.896 55.4751 179.136C55.3311 179.376 55.1351 179.564 54.8871 179.7C54.6391 179.836 54.3631 179.932 54.0591 179.988C53.7631 180.044 53.4671 180.072 53.1711 180.072ZM56.9965 180V173.676H58.0165V180H56.9965ZM57.5005 172.74C57.2925 172.74 57.1245 172.676 56.9965 172.548C56.8765 172.42 56.8165 172.256 56.8165 172.056C56.8165 171.856 56.8805 171.696 57.0085 171.576C57.1365 171.448 57.3005 171.384 57.5005 171.384C57.6845 171.384 57.8445 171.448 57.9805 171.576C58.1245 171.704 58.1965 171.864 58.1965 172.056C58.1965 172.256 58.1285 172.42 57.9925 172.548C57.8565 172.676 57.6925 172.74 57.5005 172.74ZM61.6735 180.072C61.3855 180.072 61.1055 180.036 60.8335 179.964C60.5695 179.884 60.3295 179.768 60.1135 179.616C59.9055 179.456 59.7375 179.26 59.6095 179.028C59.4895 178.788 59.4295 178.512 59.4295 178.2C59.4295 177.84 59.4935 177.536 59.6215 177.288C59.7575 177.04 59.9375 176.844 60.1615 176.7C60.3855 176.556 60.6455 176.452 60.9415 176.388C61.2375 176.324 61.5455 176.292 61.8655 176.292H63.7255C63.7255 175.932 63.6735 175.62 63.5695 175.356C63.4735 175.092 63.3135 174.888 63.0895 174.744C62.8655 174.592 62.5695 174.516 62.2015 174.516C61.9775 174.516 61.7695 174.54 61.5775 174.588C61.3855 174.636 61.2215 174.712 61.0855 174.816C60.9495 174.92 60.8495 175.06 60.7855 175.236H59.6935C59.7495 174.948 59.8575 174.704 60.0175 174.504C60.1855 174.296 60.3855 174.128 60.6175 174C60.8575 173.864 61.1135 173.764 61.3855 173.7C61.6575 173.636 61.9295 173.604 62.2015 173.604C63.1135 173.604 63.7615 173.872 64.1455 174.408C64.5295 174.944 64.7215 175.668 64.7215 176.58V180H63.8695L63.8095 179.196C63.6335 179.436 63.4215 179.62 63.1735 179.748C62.9255 179.876 62.6695 179.96 62.4055 180C62.1495 180.048 61.9055 180.072 61.6735 180.072ZM61.7695 179.172C62.1695 179.172 62.5135 179.108 62.8015 178.98C63.0975 178.844 63.3255 178.648 63.4855 178.392C63.6455 178.136 63.7255 177.824 63.7255 177.456V177.144H62.6095C62.3455 177.144 62.0855 177.148 61.8295 177.156C61.5735 177.164 61.3415 177.196 61.1335 177.252C60.9255 177.308 60.7575 177.404 60.6295 177.54C60.5095 177.676 60.4495 177.872 60.4495 178.128C60.4495 178.368 60.5095 178.564 60.6295 178.716C60.7575 178.868 60.9215 178.984 61.1215 179.064C61.3295 179.136 61.5455 179.172 61.7695 179.172Z" fill="#030E09"/>
<circle cx="87" cy="176.5" r="5" fill="#F6B51E"/>
<path d="M104.356 180.096C103.564 180.096 102.92 179.932 102.424 179.604C101.928 179.276 101.564 178.832 101.332 178.272C101.1 177.704 100.984 177.06 100.984 176.34V171.516H102.028V176.328C102.028 176.84 102.1 177.312 102.244 177.744C102.396 178.168 102.644 178.508 102.988 178.764C103.332 179.02 103.792 179.148 104.368 179.148C104.952 179.148 105.408 179.02 105.736 178.764C106.072 178.508 106.312 178.168 106.456 177.744C106.6 177.312 106.672 176.84 106.672 176.328V171.516H107.728V176.34C107.728 177.052 107.612 177.692 107.38 178.26C107.148 178.828 106.784 179.276 106.288 179.604C105.792 179.932 105.148 180.096 104.356 180.096ZM112.835 180.096C112.299 180.096 111.791 180.024 111.311 179.88C110.839 179.728 110.435 179.484 110.099 179.148C109.763 178.804 109.535 178.348 109.415 177.78H110.507C110.619 178.14 110.799 178.42 111.047 178.62C111.303 178.82 111.595 178.96 111.923 179.04C112.251 179.112 112.579 179.148 112.907 179.148C113.235 179.148 113.539 179.104 113.819 179.016C114.107 178.92 114.339 178.768 114.515 178.56C114.699 178.352 114.791 178.084 114.791 177.756C114.791 177.5 114.743 177.292 114.647 177.132C114.559 176.972 114.431 176.844 114.263 176.748C114.103 176.644 113.911 176.56 113.687 176.496C113.391 176.4 113.075 176.32 112.739 176.256C112.403 176.192 112.071 176.116 111.743 176.028C111.423 175.94 111.123 175.828 110.843 175.692C110.691 175.612 110.543 175.516 110.399 175.404C110.263 175.284 110.143 175.148 110.039 174.996C109.943 174.836 109.863 174.656 109.799 174.456C109.743 174.256 109.715 174.036 109.715 173.796C109.715 173.436 109.771 173.124 109.883 172.86C109.995 172.596 110.147 172.372 110.339 172.188C110.531 172.004 110.755 171.856 111.011 171.744C111.267 171.632 111.539 171.552 111.827 171.504C112.123 171.448 112.419 171.42 112.715 171.42C113.203 171.42 113.659 171.496 114.083 171.648C114.515 171.792 114.871 172.028 115.151 172.356C115.439 172.684 115.595 173.128 115.619 173.688H114.599C114.559 173.352 114.447 173.088 114.263 172.896C114.079 172.704 113.851 172.568 113.579 172.488C113.307 172.408 113.019 172.368 112.715 172.368C112.491 172.368 112.263 172.388 112.031 172.428C111.807 172.468 111.599 172.54 111.407 172.644C111.223 172.74 111.075 172.876 110.963 173.052C110.851 173.22 110.795 173.436 110.795 173.7C110.795 173.908 110.831 174.092 110.903 174.252C110.983 174.412 111.087 174.548 111.215 174.66C111.351 174.764 111.499 174.852 111.659 174.924C112.043 175.084 112.467 175.204 112.931 175.284C113.403 175.356 113.843 175.464 114.251 175.608C114.491 175.688 114.711 175.788 114.911 175.908C115.111 176.028 115.279 176.168 115.415 176.328C115.559 176.488 115.667 176.672 115.739 176.88C115.819 177.08 115.859 177.308 115.859 177.564C115.859 178.028 115.779 178.424 115.619 178.752C115.459 179.072 115.239 179.332 114.959 179.532C114.679 179.732 114.355 179.876 113.987 179.964C113.627 180.052 113.243 180.096 112.835 180.096ZM116.527 180L119.683 171.516H121.183L124.327 180H123.199L122.527 178.176H118.327L117.655 180H116.527ZM118.675 177.228H122.179L120.427 172.428L118.675 177.228Z" fill="#030E09"/>
<circle cx="146" cy="176.5" r="5" fill="#C2FD75"/>
<path d="M160.044 180V171.516H165.744V172.464H161.088V175.32H165.276V176.28H161.088V179.052H165.744V180H160.044ZM169.792 180.072C168.92 180.072 168.256 179.84 167.8 179.376C167.352 178.912 167.128 178.2 167.128 177.24V173.676H168.148V177.192C168.148 177.608 168.208 177.964 168.328 178.26C168.448 178.556 168.628 178.784 168.868 178.944C169.116 179.096 169.424 179.172 169.792 179.172C170.176 179.172 170.492 179.096 170.74 178.944C170.988 178.784 171.168 178.556 171.28 178.26C171.4 177.964 171.46 177.608 171.46 177.192V173.676H172.48V177.24C172.48 178.2 172.248 178.912 171.784 179.376C171.328 179.84 170.664 180.072 169.792 180.072ZM174.09 180V173.676H175.074L175.122 174.66C175.282 174.412 175.466 174.212 175.674 174.06C175.89 173.908 176.126 173.796 176.382 173.724C176.646 173.644 176.93 173.604 177.234 173.604C177.29 173.604 177.342 173.604 177.39 173.604C177.446 173.604 177.502 173.604 177.558 173.604V174.564H177.186C176.69 174.564 176.286 174.672 175.974 174.888C175.67 175.096 175.45 175.38 175.314 175.74C175.178 176.092 175.11 176.484 175.11 176.916V180H174.09ZM181.234 180.072C180.57 180.072 180.014 179.936 179.566 179.664C179.118 179.384 178.782 179 178.558 178.512C178.342 178.024 178.234 177.468 178.234 176.844C178.234 176.212 178.346 175.656 178.57 175.176C178.794 174.688 179.13 174.304 179.578 174.024C180.026 173.744 180.586 173.604 181.258 173.604C181.922 173.604 182.474 173.744 182.914 174.024C183.362 174.304 183.694 174.688 183.91 175.176C184.134 175.656 184.246 176.212 184.246 176.844C184.246 177.468 184.134 178.024 183.91 178.512C183.686 179 183.35 179.384 182.902 179.664C182.462 179.936 181.906 180.072 181.234 180.072ZM181.234 179.172C181.698 179.172 182.074 179.068 182.362 178.86C182.658 178.652 182.874 178.372 183.01 178.02C183.154 177.668 183.226 177.276 183.226 176.844C183.226 176.412 183.154 176.02 183.01 175.668C182.874 175.316 182.658 175.036 182.362 174.828C182.074 174.62 181.698 174.516 181.234 174.516C180.778 174.516 180.402 174.62 180.106 174.828C179.818 175.036 179.602 175.316 179.458 175.668C179.322 176.02 179.254 176.412 179.254 176.844C179.254 177.276 179.322 177.668 179.458 178.02C179.602 178.372 179.818 178.652 180.106 178.86C180.402 179.068 180.778 179.172 181.234 179.172ZM185.634 182.28V173.676H186.606L186.654 174.624C186.87 174.296 187.162 174.044 187.53 173.868C187.906 173.692 188.31 173.604 188.742 173.604C189.382 173.604 189.906 173.748 190.314 174.036C190.722 174.316 191.022 174.7 191.214 175.188C191.414 175.676 191.514 176.228 191.514 176.844C191.514 177.46 191.414 178.012 191.214 178.5C191.014 178.988 190.706 179.372 190.29 179.652C189.874 179.932 189.342 180.072 188.694 180.072C188.374 180.072 188.086 180.04 187.83 179.976C187.574 179.904 187.35 179.804 187.158 179.676C186.966 179.54 186.798 179.384 186.654 179.208V182.28H185.634ZM188.61 179.172C189.074 179.172 189.442 179.068 189.714 178.86C189.986 178.644 190.182 178.36 190.302 178.008C190.43 177.656 190.494 177.268 190.494 176.844C190.494 176.412 190.43 176.02 190.302 175.668C190.182 175.316 189.982 175.036 189.702 174.828C189.422 174.62 189.05 174.516 188.586 174.516C188.17 174.516 187.814 174.624 187.518 174.84C187.23 175.048 187.01 175.332 186.858 175.692C186.706 176.044 186.63 176.432 186.63 176.856C186.63 177.296 186.702 177.692 186.846 178.044C186.99 178.396 187.21 178.672 187.506 178.872C187.802 179.072 188.17 179.172 188.61 179.172ZM195.637 180.072C194.965 180.072 194.409 179.936 193.969 179.664C193.529 179.384 193.201 179 192.985 178.512C192.769 178.024 192.661 177.468 192.661 176.844C192.661 176.212 192.773 175.656 192.997 175.176C193.229 174.688 193.565 174.304 194.005 174.024C194.445 173.744 194.985 173.604 195.625 173.604C196.121 173.604 196.545 173.7 196.897 173.892C197.257 174.076 197.553 174.324 197.785 174.636C198.017 174.948 198.185 175.292 198.289 175.668C198.393 176.036 198.437 176.408 198.421 176.784C198.413 176.856 198.405 176.928 198.397 177C198.397 177.072 198.393 177.144 198.385 177.216H193.693C193.725 177.584 193.817 177.916 193.969 178.212C194.121 178.508 194.337 178.744 194.617 178.92C194.897 179.088 195.245 179.172 195.661 179.172C195.869 179.172 196.077 179.148 196.285 179.1C196.501 179.044 196.693 178.952 196.861 178.824C197.037 178.696 197.161 178.524 197.233 178.308H198.277C198.181 178.716 198.001 179.052 197.737 179.316C197.473 179.572 197.157 179.764 196.789 179.892C196.421 180.012 196.037 180.072 195.637 180.072ZM193.717 176.328H197.377C197.369 175.968 197.289 175.652 197.137 175.38C196.985 175.108 196.777 174.896 196.513 174.744C196.257 174.592 195.949 174.516 195.589 174.516C195.197 174.516 194.865 174.6 194.593 174.768C194.329 174.936 194.125 175.156 193.981 175.428C193.837 175.7 193.749 176 193.717 176.328Z" fill="#030E09"/>
</svg>
