<svg width="372" height="200" viewBox="0 0 372 200" fill="none" xmlns="http://www.w3.org/2000/svg">
<path d="M0 12C0 5.37258 5.37258 0 12 0H360C366.627 0 372 5.37258 372 12V188C372 194.627 366.627 200 360 200H12C5.37259 200 0 194.627 0 188V12Z" fill="#053B25"/>
<path d="M25.422 42V29.274H28.5L32.028 35.7L35.52 29.274H38.508V42H36.258V32.118L32.46 38.994H31.506L27.672 32.118V42H25.422ZM45.3618 42.126C44.3898 42.126 43.5498 41.928 42.8418 41.532C42.1458 41.136 41.6058 40.572 41.2218 39.84C40.8498 39.108 40.6638 38.25 40.6638 37.266C40.6638 36.27 40.8558 35.412 41.2398 34.692C41.6238 33.96 42.1638 33.39 42.8598 32.982C43.5558 32.574 44.3898 32.37 45.3618 32.37C46.3218 32.37 47.1498 32.574 47.8458 32.982C48.5418 33.39 49.0758 33.966 49.4478 34.71C49.8198 35.442 50.0058 36.306 50.0058 37.302C50.0058 38.274 49.8198 39.126 49.4478 39.858C49.0878 40.578 48.5598 41.136 47.8638 41.532C47.1678 41.928 46.3338 42.126 45.3618 42.126ZM45.3438 40.128C45.9438 40.128 46.4238 39.996 46.7838 39.732C47.1558 39.468 47.4258 39.12 47.5938 38.688C47.7618 38.256 47.8458 37.788 47.8458 37.284C47.8458 36.78 47.7618 36.306 47.5938 35.862C47.4258 35.418 47.1558 35.064 46.7838 34.8C46.4238 34.524 45.9438 34.386 45.3438 34.386C44.7438 34.386 44.2578 34.524 43.8858 34.8C43.5138 35.064 43.2438 35.418 43.0758 35.862C42.9078 36.294 42.8238 36.768 42.8238 37.284C42.8238 37.788 42.9078 38.262 43.0758 38.706C43.2558 39.138 43.5258 39.486 43.8858 39.75C44.2578 40.002 44.7438 40.128 45.3438 40.128ZM51.8 42V32.514H53.852L53.978 33.72C54.23 33.384 54.524 33.12 54.86 32.928C55.196 32.736 55.55 32.598 55.922 32.514C56.294 32.418 56.642 32.37 56.966 32.37C57.866 32.37 58.574 32.568 59.09 32.964C59.618 33.36 59.99 33.888 60.206 34.548C60.422 35.208 60.53 35.946 60.53 36.762V42H58.334V37.122C58.334 36.774 58.31 36.438 58.262 36.114C58.214 35.778 58.118 35.478 57.974 35.214C57.842 34.95 57.65 34.74 57.398 34.584C57.146 34.428 56.81 34.35 56.39 34.35C55.874 34.35 55.436 34.488 55.076 34.764C54.716 35.04 54.446 35.412 54.266 35.88C54.086 36.336 53.996 36.858 53.996 37.446V42H51.8ZM66.769 42C66.001 42 65.365 41.898 64.861 41.694C64.369 41.49 63.997 41.16 63.745 40.704C63.505 40.248 63.385 39.636 63.385 38.868V34.458H61.927V32.514H63.385V29.868H65.581V32.514H67.795V34.458H65.581V38.58C65.581 39.06 65.665 39.426 65.833 39.678C66.001 39.93 66.379 40.056 66.967 40.056H67.723V42H66.769ZM69.2919 42V29.274H71.4879V33.738C71.7399 33.414 72.0339 33.15 72.3699 32.946C72.7059 32.742 73.0599 32.598 73.4319 32.514C73.8039 32.418 74.1579 32.37 74.4939 32.37C75.3939 32.37 76.1019 32.568 76.6179 32.964C77.1339 33.36 77.4939 33.888 77.6979 34.548C77.9139 35.208 78.0219 35.952 78.0219 36.78V42H75.8259V37.158C75.8259 36.834 75.8019 36.504 75.7539 36.168C75.7059 35.832 75.6099 35.532 75.4659 35.268C75.3339 34.992 75.1299 34.77 74.8539 34.602C74.5899 34.434 74.2359 34.35 73.7919 34.35C73.3719 34.35 73.0119 34.44 72.7119 34.62C72.4119 34.788 72.1719 35.022 71.9919 35.322C71.8239 35.622 71.6979 35.952 71.6139 36.312C71.5299 36.672 71.4879 37.032 71.4879 37.392V42H69.2919ZM80.1209 42V29.274H82.3169V42H80.1209ZM88.6751 46.338C87.9431 46.338 87.2291 46.236 86.5331 46.032C85.8491 45.84 85.2131 45.51 84.6251 45.042L85.4171 43.278C85.8251 43.602 86.2811 43.854 86.7851 44.034C87.2891 44.226 87.8411 44.322 88.4411 44.322C89.3891 44.322 90.0791 44.082 90.5111 43.602C90.9551 43.122 91.1771 42.468 91.1771 41.64V40.938C90.9611 41.214 90.6971 41.442 90.3851 41.622C90.0731 41.802 89.7371 41.934 89.3771 42.018C89.0171 42.102 88.6511 42.144 88.2791 42.144C87.3551 42.144 86.6171 41.958 86.0651 41.586C85.5251 41.202 85.1351 40.68 84.8951 40.02C84.6551 39.348 84.5351 38.586 84.5351 37.734V32.514H86.7131V37.248C86.7131 37.584 86.7371 37.926 86.7851 38.274C86.8331 38.622 86.9291 38.94 87.0731 39.228C87.2171 39.516 87.4271 39.75 87.7031 39.93C87.9911 40.098 88.3691 40.182 88.8371 40.182C89.4491 40.182 89.9231 40.032 90.2591 39.732C90.5951 39.432 90.8231 39.042 90.9431 38.562C91.0751 38.082 91.1411 37.572 91.1411 37.032V32.514H93.3371V41.1C93.3371 41.904 93.2531 42.624 93.0851 43.26C92.9171 43.908 92.6471 44.46 92.2751 44.916C91.9031 45.372 91.4231 45.72 90.8351 45.96C90.2471 46.212 89.5271 46.338 88.6751 46.338ZM30.156 67.144C29.304 67.144 28.5 67.018 27.744 66.766C27 66.502 26.376 66.088 25.872 65.524C25.368 64.948 25.038 64.198 24.882 63.274H27.168C27.312 63.742 27.54 64.108 27.852 64.372C28.176 64.636 28.554 64.822 28.986 64.93C29.418 65.026 29.856 65.074 30.3 65.074C30.696 65.074 31.068 65.026 31.416 64.93C31.776 64.822 32.07 64.648 32.298 64.408C32.538 64.168 32.658 63.85 32.658 63.454C32.658 63.154 32.592 62.914 32.46 62.734C32.34 62.542 32.166 62.386 31.938 62.266C31.722 62.134 31.458 62.032 31.146 61.96C30.846 61.864 30.522 61.78 30.174 61.708C29.826 61.636 29.484 61.558 29.148 61.474C28.812 61.39 28.494 61.282 28.194 61.15C27.81 61.018 27.438 60.868 27.078 60.7C26.73 60.52 26.424 60.304 26.16 60.052C25.908 59.8 25.704 59.488 25.548 59.116C25.392 58.744 25.314 58.3 25.314 57.784C25.314 57.196 25.41 56.692 25.602 56.272C25.806 55.84 26.07 55.486 26.394 55.21C26.73 54.934 27.102 54.718 27.51 54.562C27.93 54.406 28.362 54.292 28.806 54.22C29.262 54.148 29.694 54.112 30.102 54.112C30.894 54.112 31.614 54.244 32.262 54.508C32.922 54.772 33.462 55.18 33.882 55.732C34.302 56.284 34.542 56.992 34.602 57.856H32.424C32.376 57.448 32.232 57.124 31.992 56.884C31.752 56.632 31.452 56.452 31.092 56.344C30.732 56.224 30.342 56.164 29.922 56.164C29.634 56.164 29.346 56.188 29.058 56.236C28.782 56.284 28.53 56.368 28.302 56.488C28.086 56.608 27.906 56.77 27.762 56.974C27.63 57.166 27.564 57.412 27.564 57.712C27.564 57.976 27.63 58.21 27.762 58.414C27.894 58.606 28.074 58.768 28.302 58.9C28.542 59.032 28.824 59.152 29.148 59.26C29.568 59.428 30.024 59.554 30.516 59.638C31.02 59.722 31.494 59.836 31.938 59.98C32.37 60.1 32.766 60.25 33.126 60.43C33.498 60.598 33.816 60.808 34.08 61.06C34.344 61.3 34.548 61.6 34.692 61.96C34.848 62.308 34.926 62.728 34.926 63.22C34.926 63.94 34.794 64.552 34.53 65.056C34.278 65.548 33.924 65.95 33.468 66.262C33.024 66.574 32.514 66.802 31.938 66.946C31.374 67.078 30.78 67.144 30.156 67.144ZM39.9521 67.126C39.5081 67.126 39.0881 67.066 38.6921 66.946C38.2961 66.826 37.9421 66.652 37.6301 66.424C37.3181 66.184 37.0661 65.89 36.8741 65.542C36.6941 65.182 36.6041 64.762 36.6041 64.282C36.6041 63.67 36.7241 63.172 36.9641 62.788C37.2041 62.392 37.5281 62.092 37.9361 61.888C38.3561 61.684 38.8301 61.546 39.3581 61.474C39.8861 61.39 40.4381 61.348 41.0141 61.348H42.8681C42.8681 60.928 42.8021 60.568 42.6701 60.268C42.5381 59.956 42.3281 59.71 42.0401 59.53C41.7641 59.35 41.4041 59.26 40.9601 59.26C40.6721 59.26 40.4021 59.296 40.1501 59.368C39.9101 59.428 39.7001 59.53 39.5201 59.674C39.3521 59.806 39.2321 59.98 39.1601 60.196H36.9101C36.9941 59.704 37.1621 59.284 37.4141 58.936C37.6781 58.576 37.9961 58.282 38.3681 58.054C38.7521 57.826 39.1721 57.658 39.6281 57.55C40.0841 57.43 40.5461 57.37 41.0141 57.37C42.3941 57.37 43.3961 57.766 44.0201 58.558C44.6561 59.35 44.9741 60.46 44.9741 61.888V67H43.0301L42.9761 65.776C42.7001 66.184 42.3701 66.484 41.9861 66.676C41.6021 66.868 41.2301 66.988 40.8701 67.036C40.5101 67.096 40.2041 67.126 39.9521 67.126ZM40.3841 65.344C40.8641 65.344 41.2901 65.254 41.6621 65.074C42.0341 64.894 42.3281 64.642 42.5441 64.318C42.7721 63.994 42.8861 63.622 42.8861 63.202V62.896H41.1581C40.8701 62.896 40.5821 62.908 40.2941 62.932C40.0181 62.944 39.7661 62.992 39.5381 63.076C39.3101 63.148 39.1241 63.262 38.9801 63.418C38.8481 63.574 38.7821 63.796 38.7821 64.084C38.7821 64.372 38.8541 64.606 38.9981 64.786C39.1541 64.966 39.3521 65.104 39.5921 65.2C39.8441 65.296 40.1081 65.344 40.3841 65.344ZM47.1067 67V54.274H49.3027V67H47.1067ZM55.7149 67.126C54.7309 67.126 53.8909 66.922 53.1949 66.514C52.5109 66.106 51.9889 65.542 51.6289 64.822C51.2809 64.09 51.1069 63.244 51.1069 62.284C51.1069 61.324 51.2869 60.478 51.6469 59.746C52.0189 59.002 52.5469 58.42 53.2309 58C53.9269 57.58 54.7609 57.37 55.7329 57.37C56.4529 57.37 57.0829 57.502 57.6229 57.766C58.1629 58.018 58.6129 58.366 58.9729 58.81C59.3449 59.254 59.6209 59.758 59.8009 60.322C59.9809 60.886 60.0649 61.48 60.0529 62.104C60.0409 62.248 60.0289 62.392 60.0169 62.536C60.0049 62.668 59.9869 62.812 59.9629 62.968H53.3029C53.3389 63.388 53.4469 63.772 53.6269 64.12C53.8189 64.468 54.0829 64.744 54.4189 64.948C54.7669 65.152 55.1989 65.254 55.7149 65.254C56.0149 65.254 56.3029 65.218 56.5789 65.146C56.8549 65.062 57.0949 64.942 57.2989 64.786C57.5149 64.63 57.6589 64.432 57.7309 64.192H59.9269C59.7709 64.876 59.4829 65.434 59.0629 65.866C58.6429 66.298 58.1389 66.616 57.5509 66.82C56.9749 67.024 56.3629 67.126 55.7149 67.126ZM53.3389 61.33H57.9109C57.9109 60.934 57.8209 60.574 57.6409 60.25C57.4609 59.926 57.2029 59.674 56.8669 59.494C56.5429 59.302 56.1469 59.206 55.6789 59.206C55.1749 59.206 54.7549 59.308 54.4189 59.512C54.0829 59.716 53.8249 59.98 53.6449 60.304C53.4649 60.628 53.3629 60.97 53.3389 61.33ZM65.4748 67.126C65.0188 67.126 64.5628 67.078 64.1068 66.982C63.6628 66.886 63.2428 66.73 62.8468 66.514C62.4508 66.286 62.1208 65.98 61.8568 65.596C61.5928 65.212 61.4188 64.732 61.3348 64.156H63.5488C63.6448 64.42 63.7948 64.636 63.9988 64.804C64.2148 64.96 64.4608 65.08 64.7368 65.164C65.0248 65.236 65.3068 65.272 65.5828 65.272C65.7508 65.272 65.9308 65.26 66.1228 65.236C66.3268 65.212 66.5128 65.164 66.6808 65.092C66.8608 65.02 67.0048 64.918 67.1128 64.786C67.2208 64.642 67.2748 64.456 67.2748 64.228C67.2748 64.012 67.2148 63.844 67.0948 63.724C66.9748 63.592 66.8128 63.49 66.6088 63.418C66.4048 63.334 66.1588 63.268 65.8708 63.22C65.3548 63.112 64.8028 62.998 64.2148 62.878C63.6268 62.746 63.1168 62.542 62.6848 62.266C62.5048 62.158 62.3488 62.032 62.2168 61.888C62.0848 61.744 61.9708 61.588 61.8748 61.42C61.7908 61.24 61.7248 61.048 61.6768 60.844C61.6408 60.64 61.6228 60.418 61.6228 60.178C61.6228 59.674 61.7248 59.248 61.9288 58.9C62.1448 58.54 62.4268 58.252 62.7748 58.036C63.1348 57.808 63.5428 57.64 63.9988 57.532C64.4548 57.424 64.9228 57.37 65.4028 57.37C66.0508 57.37 66.6388 57.472 67.1668 57.676C67.6948 57.88 68.1328 58.192 68.4808 58.612C68.8408 59.032 69.0568 59.566 69.1288 60.214H67.0408C66.9808 59.914 66.7948 59.674 66.4828 59.494C66.1828 59.314 65.7988 59.224 65.3308 59.224C65.1628 59.224 64.9888 59.242 64.8088 59.278C64.6288 59.302 64.4548 59.35 64.2868 59.422C64.1308 59.482 63.9988 59.578 63.8908 59.71C63.7948 59.842 63.7468 60.004 63.7468 60.196C63.7468 60.376 63.7888 60.532 63.8728 60.664C63.9688 60.796 64.1068 60.91 64.2868 61.006C64.4788 61.09 64.7008 61.162 64.9528 61.222C65.3608 61.306 65.7868 61.39 66.2308 61.474C66.6748 61.558 67.0588 61.642 67.3828 61.726C67.7668 61.834 68.1148 61.99 68.4268 62.194C68.7388 62.386 68.9788 62.644 69.1468 62.968C69.3268 63.28 69.4168 63.682 69.4168 64.174C69.4168 64.75 69.2968 65.23 69.0568 65.614C68.8288 65.998 68.5228 66.298 68.1388 66.514C67.7548 66.73 67.3288 66.886 66.8608 66.982C66.3928 67.078 65.9308 67.126 65.4748 67.126Z" fill="white"/>
<path d="M31.728 143.92V140.028C30.6827 139.879 29.712 139.58 28.816 139.132C27.92 138.684 27.1733 138.059 26.576 137.256C25.9973 136.435 25.6147 135.417 25.428 134.204H28.984C29.208 134.932 29.5627 135.501 30.048 135.912C30.552 136.323 31.1307 136.612 31.784 136.78C32.456 136.948 33.1467 137.032 33.856 137.032C34.5093 137.032 35.1067 136.948 35.648 136.78C36.208 136.612 36.656 136.341 36.992 135.968C37.3467 135.595 37.524 135.119 37.524 134.54C37.524 134.055 37.412 133.663 37.188 133.364C36.9827 133.065 36.6933 132.823 36.32 132.636C35.9653 132.449 35.5453 132.291 35.06 132.16C34.3133 131.936 33.5853 131.759 32.876 131.628C32.1853 131.479 31.5227 131.32 30.888 131.152C30.272 130.984 29.684 130.769 29.124 130.508C28.2093 130.06 27.472 129.463 26.912 128.716C26.3707 127.969 26.1 126.943 26.1 125.636C26.1 124.46 26.3707 123.48 26.912 122.696C27.4533 121.893 28.1627 121.277 29.04 120.848C29.9173 120.4 30.86 120.139 31.868 120.064V116.228H35.144V120.12C36.152 120.232 37.0573 120.521 37.86 120.988C38.6627 121.455 39.3067 122.089 39.792 122.892C40.2773 123.676 40.5293 124.628 40.548 125.748H37.132C37.076 125.132 36.8613 124.628 36.488 124.236C36.1333 123.844 35.676 123.564 35.116 123.396C34.556 123.209 33.94 123.116 33.268 123.116C32.6893 123.116 32.1107 123.191 31.532 123.34C30.972 123.471 30.5053 123.713 30.132 124.068C29.7773 124.404 29.6 124.889 29.6 125.524C29.6 125.916 29.6933 126.271 29.88 126.588C30.0667 126.887 30.3187 127.139 30.636 127.344C30.9533 127.549 31.3173 127.717 31.728 127.848C32.4187 128.109 33.184 128.324 34.024 128.492C34.864 128.66 35.648 128.856 36.376 129.08C37.328 129.341 38.1493 129.668 38.84 130.06C39.5493 130.433 40.0907 130.947 40.464 131.6C40.856 132.235 41.052 133.065 41.052 134.092C41.052 135.399 40.7813 136.472 40.24 137.312C39.6987 138.152 38.9707 138.805 38.056 139.272C37.1413 139.739 36.124 140.019 35.004 140.112V143.92H31.728ZM50.9117 140.224C50.0344 140.224 49.1664 140.121 48.3077 139.916C47.4491 139.711 46.6651 139.393 45.9557 138.964C45.2464 138.516 44.6491 137.937 44.1637 137.228C43.6971 136.519 43.3984 135.66 43.2677 134.652H46.7397C46.9077 135.231 47.2064 135.688 47.6357 136.024C48.0837 136.36 48.5971 136.612 49.1757 136.78C49.7544 136.929 50.3424 137.004 50.9397 137.004C51.3691 137.004 51.7984 136.967 52.2277 136.892C52.6571 136.817 53.0584 136.677 53.4317 136.472C53.8051 136.267 54.1037 135.977 54.3277 135.604C54.5517 135.231 54.6637 134.745 54.6637 134.148C54.6637 133.607 54.5611 133.159 54.3557 132.804C54.1691 132.449 53.8984 132.179 53.5437 131.992C53.2077 131.787 52.8157 131.647 52.3677 131.572C51.9384 131.479 51.4811 131.432 50.9957 131.432H48.8117V128.436H50.2397C50.7811 128.436 51.2757 128.38 51.7237 128.268C52.1717 128.156 52.5637 127.997 52.8997 127.792C53.2357 127.568 53.4877 127.288 53.6557 126.952C53.8424 126.616 53.9357 126.215 53.9357 125.748C53.9357 125.076 53.7864 124.553 53.4877 124.18C53.2077 123.807 52.8251 123.545 52.3397 123.396C51.8544 123.228 51.3224 123.144 50.7437 123.144C50.2211 123.144 49.7171 123.228 49.2317 123.396C48.7464 123.545 48.3264 123.779 47.9717 124.096C47.6171 124.413 47.3931 124.815 47.2997 125.3H43.8837C43.9957 124.367 44.2664 123.564 44.6957 122.892C45.1251 122.22 45.6571 121.669 46.2917 121.24C46.9451 120.792 47.6731 120.465 48.4757 120.26C49.2784 120.055 50.1091 119.952 50.9677 119.952C51.8077 119.952 52.6104 120.045 53.3757 120.232C54.1597 120.419 54.8504 120.727 55.4477 121.156C56.0451 121.567 56.5211 122.108 56.8757 122.78C57.2304 123.452 57.4077 124.273 57.4077 125.244C57.4077 125.86 57.3051 126.439 57.0997 126.98C56.8944 127.521 56.5957 127.997 56.2037 128.408C55.8304 128.819 55.3731 129.155 54.8317 129.416C55.5784 129.621 56.2037 129.957 56.7077 130.424C57.2117 130.872 57.5851 131.413 57.8277 132.048C58.0891 132.683 58.2197 133.383 58.2197 134.148C58.2197 135.343 57.9957 136.341 57.5477 137.144C57.1184 137.928 56.5397 138.544 55.8117 138.992C55.1024 139.44 54.3184 139.757 53.4597 139.944C52.6011 140.131 51.7517 140.224 50.9117 140.224ZM68.8149 140.224C67.4335 140.224 66.2482 139.963 65.2589 139.44C64.2695 138.917 63.4669 138.208 62.8509 137.312C62.2349 136.416 61.7775 135.389 61.4789 134.232C61.1989 133.075 61.0589 131.861 61.0589 130.592C61.0589 129.155 61.2082 127.801 61.5069 126.532C61.8242 125.244 62.3095 124.115 62.9629 123.144C63.6162 122.155 64.4562 121.38 65.4829 120.82C66.5282 120.241 67.7602 119.952 69.1789 119.952C70.2429 119.952 71.2229 120.139 72.1189 120.512C73.0335 120.885 73.7989 121.445 74.4149 122.192C75.0309 122.939 75.4509 123.872 75.6749 124.992H72.3149C72.0535 124.395 71.6242 123.937 71.0269 123.62C70.4482 123.284 69.8042 123.116 69.0949 123.116C68.3669 123.116 67.7322 123.256 67.1909 123.536C66.6682 123.797 66.2202 124.152 65.8469 124.6C65.4735 125.029 65.1749 125.533 64.9509 126.112C64.7269 126.691 64.5589 127.288 64.4469 127.904C64.3349 128.52 64.2789 129.127 64.2789 129.724C64.7269 129.071 65.2402 128.567 65.8189 128.212C66.3975 127.839 67.0042 127.577 67.6389 127.428C68.2735 127.26 68.8709 127.176 69.4309 127.176C70.7562 127.176 71.8855 127.437 72.8189 127.96C73.7709 128.483 74.5082 129.22 75.0309 130.172C75.5535 131.105 75.8149 132.207 75.8149 133.476C75.8149 134.839 75.5162 136.024 74.9189 137.032C74.3215 138.04 73.4909 138.824 72.4269 139.384C71.3815 139.944 70.1775 140.224 68.8149 140.224ZM68.7869 137.06C69.5149 137.041 70.1402 136.883 70.6629 136.584C71.1855 136.285 71.5869 135.884 71.8669 135.38C72.1655 134.857 72.3149 134.288 72.3149 133.672C72.3149 133.019 72.1749 132.44 71.8949 131.936C71.6149 131.413 71.2135 131.003 70.6909 130.704C70.1869 130.387 69.5802 130.228 68.8709 130.228C68.1989 130.228 67.5829 130.377 67.0229 130.676C66.4629 130.956 66.0149 131.357 65.6789 131.88C65.3429 132.384 65.1749 132.972 65.1749 133.644C65.1749 134.26 65.3242 134.829 65.6229 135.352C65.9402 135.856 66.3695 136.267 66.9109 136.584C67.4522 136.901 68.0775 137.06 68.7869 137.06ZM79.7922 144.004L78.8122 142.52C79.0922 142.371 79.3815 142.156 79.6802 141.876C79.9789 141.615 80.2495 141.316 80.4922 140.98C80.7535 140.663 80.9309 140.373 81.0242 140.112C80.4829 140.056 80.0162 139.86 79.6242 139.524C79.2509 139.169 79.0642 138.675 79.0642 138.04C79.0642 137.387 79.2882 136.873 79.7362 136.5C80.1842 136.127 80.6882 135.94 81.2482 135.94C81.9575 135.94 82.5175 136.211 82.9282 136.752C83.3389 137.275 83.5442 137.965 83.5442 138.824C83.5442 139.589 83.3575 140.327 82.9842 141.036C82.6295 141.745 82.1629 142.361 81.5842 142.884C81.0242 143.407 80.4269 143.78 79.7922 144.004ZM93.9906 140.224C93.0759 140.224 92.1799 140.121 91.3026 139.916C90.4253 139.711 89.6413 139.375 88.9506 138.908C88.2599 138.423 87.6999 137.807 87.2706 137.06C86.8599 136.295 86.6546 135.361 86.6546 134.26C86.6546 133.532 86.7666 132.869 86.9906 132.272C87.2333 131.656 87.5786 131.124 88.0266 130.676C88.4746 130.228 88.9973 129.864 89.5946 129.584C89.0159 129.248 88.5493 128.847 88.1946 128.38C87.8586 127.913 87.6253 127.409 87.4946 126.868C87.3639 126.327 87.2986 125.795 87.2986 125.272C87.2986 124.32 87.4853 123.508 87.8586 122.836C88.2319 122.164 88.7453 121.613 89.3986 121.184C90.0519 120.755 90.7706 120.447 91.5546 120.26C92.3573 120.055 93.1786 119.952 94.0186 119.952C94.8586 119.952 95.6799 120.055 96.4826 120.26C97.2853 120.447 98.0039 120.764 98.6386 121.212C99.2919 121.641 99.8053 122.201 100.179 122.892C100.552 123.564 100.739 124.395 100.739 125.384C100.739 125.869 100.664 126.373 100.515 126.896C100.365 127.419 100.113 127.913 99.7586 128.38C99.4226 128.828 98.9653 129.211 98.3866 129.528C99.0213 129.808 99.5626 130.181 100.011 130.648C100.459 131.096 100.795 131.628 101.019 132.244C101.261 132.841 101.383 133.523 101.383 134.288C101.383 135.371 101.168 136.295 100.739 137.06C100.328 137.825 99.7679 138.441 99.0586 138.908C98.3493 139.356 97.5559 139.692 96.6786 139.916C95.8013 140.121 94.9053 140.224 93.9906 140.224ZM93.9906 137.088C94.4386 137.088 94.8773 137.041 95.3066 136.948C95.7546 136.855 96.1653 136.696 96.5386 136.472C96.9306 136.248 97.2479 135.949 97.4906 135.576C97.7333 135.184 97.8546 134.708 97.8546 134.148C97.8546 133.476 97.6773 132.925 97.3226 132.496C96.9679 132.067 96.5013 131.749 95.9226 131.544C95.3439 131.339 94.7093 131.236 94.0186 131.236C93.3279 131.236 92.6839 131.339 92.0866 131.544C91.5079 131.749 91.0413 132.067 90.6866 132.496C90.3319 132.925 90.1546 133.476 90.1546 134.148C90.1546 134.708 90.2666 135.184 90.4906 135.576C90.7333 135.949 91.0506 136.248 91.4426 136.472C91.8346 136.696 92.2453 136.855 92.6746 136.948C93.1226 137.041 93.5613 137.088 93.9906 137.088ZM94.0186 128.492C94.6533 128.492 95.2039 128.389 95.6706 128.184C96.1559 127.96 96.5386 127.652 96.8186 127.26C97.1173 126.868 97.2666 126.392 97.2666 125.832C97.2853 125.197 97.1453 124.675 96.8466 124.264C96.5479 123.835 96.1466 123.527 95.6426 123.34C95.1573 123.135 94.6066 123.032 93.9906 123.032C93.3559 123.032 92.7866 123.135 92.2826 123.34C91.7973 123.527 91.4239 123.825 91.1626 124.236C90.9013 124.628 90.7706 125.123 90.7706 125.72C90.7706 126.317 90.9106 126.831 91.1906 127.26C91.4893 127.671 91.8813 127.979 92.3666 128.184C92.8706 128.389 93.4213 128.492 94.0186 128.492ZM110.931 140.224C109.867 140.224 108.859 140.047 107.907 139.692C106.974 139.319 106.181 138.759 105.527 138.012C104.874 137.265 104.445 136.332 104.239 135.212H107.739C108.001 135.809 108.449 136.267 109.083 136.584C109.737 136.883 110.418 137.032 111.127 137.032C111.986 137.032 112.695 136.864 113.255 136.528C113.834 136.173 114.291 135.707 114.627 135.128C114.982 134.531 115.234 133.877 115.383 133.168C115.533 132.44 115.607 131.703 115.607 130.956C115.607 130.863 115.607 130.769 115.607 130.676C115.607 130.583 115.607 130.499 115.607 130.424C115.215 131.077 114.73 131.591 114.151 131.964C113.573 132.319 112.957 132.58 112.303 132.748C111.65 132.897 111.015 132.972 110.399 132.972C109.223 132.972 108.159 132.729 107.207 132.244C106.255 131.759 105.499 131.049 104.939 130.116C104.379 129.164 104.099 128.025 104.099 126.7C104.099 125.281 104.417 124.068 105.051 123.06C105.686 122.052 106.545 121.287 107.627 120.764C108.729 120.223 109.951 119.952 111.295 119.952C112.751 119.952 113.965 120.251 114.935 120.848C115.906 121.445 116.681 122.248 117.259 123.256C117.838 124.245 118.249 125.347 118.491 126.56C118.734 127.773 118.855 129.005 118.855 130.256C118.855 131.637 118.706 132.935 118.407 134.148C118.127 135.343 117.67 136.397 117.035 137.312C116.419 138.227 115.607 138.945 114.599 139.468C113.591 139.972 112.369 140.224 110.931 140.224ZM111.127 129.976C111.855 129.976 112.49 129.827 113.031 129.528C113.591 129.211 114.021 128.8 114.319 128.296C114.618 127.773 114.758 127.213 114.739 126.616C114.739 125.907 114.581 125.3 114.263 124.796C113.965 124.273 113.545 123.863 113.003 123.564C112.462 123.265 111.855 123.116 111.183 123.116C110.455 123.116 109.821 123.275 109.279 123.592C108.757 123.909 108.346 124.329 108.047 124.852C107.749 125.375 107.599 125.935 107.599 126.532C107.599 127.559 107.907 128.389 108.523 129.024C109.139 129.659 110.007 129.976 111.127 129.976ZM129.526 140.224C128.089 140.224 126.866 139.972 125.858 139.468C124.85 138.945 124.038 138.217 123.422 137.284C122.806 136.351 122.349 135.277 122.05 134.064C121.77 132.851 121.63 131.544 121.63 130.144C121.63 128.725 121.77 127.4 122.05 126.168C122.349 124.936 122.806 123.863 123.422 122.948C124.057 122.015 124.878 121.287 125.886 120.764C126.894 120.223 128.117 119.952 129.554 119.952C131.029 119.952 132.27 120.232 133.278 120.792C134.305 121.352 135.117 122.108 135.714 123.06C136.33 124.012 136.769 125.095 137.03 126.308C137.31 127.521 137.45 128.791 137.45 130.116C137.45 131.423 137.31 132.683 137.03 133.896C136.769 135.109 136.33 136.192 135.714 137.144C135.098 138.096 134.277 138.852 133.25 139.412C132.242 139.953 131.001 140.224 129.526 140.224ZM129.526 137.032C130.478 137.032 131.243 136.808 131.822 136.36C132.419 135.912 132.867 135.343 133.166 134.652C133.465 133.943 133.661 133.187 133.754 132.384C133.866 131.581 133.922 130.825 133.922 130.116C133.922 129.407 133.875 128.66 133.782 127.876C133.689 127.073 133.493 126.317 133.194 125.608C132.895 124.899 132.457 124.32 131.878 123.872C131.299 123.424 130.525 123.2 129.554 123.2C128.583 123.2 127.799 123.424 127.202 123.872C126.623 124.32 126.185 124.899 125.886 125.608C125.587 126.299 125.382 127.045 125.27 127.848C125.177 128.651 125.13 129.407 125.13 130.116C125.13 130.825 125.177 131.581 125.27 132.384C125.363 133.168 125.55 133.915 125.83 134.624C126.129 135.333 126.567 135.912 127.146 136.36C127.743 136.808 128.537 137.032 129.526 137.032Z" fill="white"/>
<path d="M26.94 169L24.098 161.622H25.442L27.766 167.852L30.048 161.622H31.406L28.564 169H26.94ZM35.1599 169.084C34.8239 169.084 34.4832 169.051 34.1379 168.986C33.8019 168.921 33.4845 168.809 33.1859 168.65C32.8965 168.491 32.6539 168.277 32.4579 168.006C32.2619 167.735 32.1359 167.399 32.0799 166.998H33.2839C33.3772 167.25 33.5265 167.455 33.7319 167.614C33.9465 167.763 34.1845 167.871 34.4459 167.936C34.7165 168.001 34.9732 168.034 35.2159 168.034C35.3652 168.034 35.5379 168.025 35.7339 168.006C35.9299 167.987 36.1165 167.945 36.2939 167.88C36.4805 167.805 36.6299 167.698 36.7419 167.558C36.8632 167.418 36.9239 167.222 36.9239 166.97C36.9239 166.783 36.8819 166.629 36.7979 166.508C36.7139 166.387 36.5972 166.289 36.4479 166.214C36.2985 166.13 36.1165 166.069 35.9019 166.032C35.4632 165.939 34.9919 165.85 34.4879 165.766C33.9932 165.682 33.5545 165.523 33.1719 165.29C33.0412 165.206 32.9199 165.113 32.8079 165.01C32.7052 164.898 32.6165 164.777 32.5419 164.646C32.4672 164.506 32.4065 164.357 32.3599 164.198C32.3225 164.03 32.3039 163.848 32.3039 163.652C32.3039 163.288 32.3739 162.975 32.5139 162.714C32.6632 162.443 32.8685 162.224 33.1299 162.056C33.3912 161.879 33.6899 161.748 34.0259 161.664C34.3712 161.58 34.7399 161.538 35.1319 161.538C35.6172 161.538 36.0512 161.617 36.4339 161.776C36.8259 161.925 37.1479 162.149 37.3999 162.448C37.6519 162.737 37.8012 163.097 37.8479 163.526H36.7419C36.6765 163.255 36.4992 163.036 36.2099 162.868C35.9205 162.691 35.5519 162.602 35.1039 162.602C34.9545 162.602 34.7865 162.616 34.5999 162.644C34.4132 162.663 34.2359 162.709 34.0679 162.784C33.8999 162.849 33.7599 162.952 33.6479 163.092C33.5359 163.223 33.4799 163.4 33.4799 163.624C33.4799 163.829 33.5312 164.002 33.6339 164.142C33.7459 164.282 33.8999 164.394 34.0959 164.478C34.2919 164.562 34.5159 164.632 34.7679 164.688C35.0945 164.753 35.4539 164.823 35.8459 164.898C36.2379 164.963 36.5459 165.033 36.7699 165.108C37.0685 165.201 37.3159 165.332 37.5119 165.5C37.7172 165.668 37.8665 165.869 37.9599 166.102C38.0625 166.335 38.1139 166.606 38.1139 166.914C38.1139 167.353 38.0252 167.712 37.8479 167.992C37.6799 168.272 37.4512 168.491 37.1619 168.65C36.8725 168.809 36.5505 168.921 36.1959 168.986C35.8505 169.051 35.5052 169.084 35.1599 169.084ZM43.4243 169V159.102H44.6143V169H43.4243ZM48.8808 169.084C48.5448 169.084 48.2182 169.042 47.9008 168.958C47.5928 168.865 47.3128 168.729 47.0608 168.552C46.8182 168.365 46.6222 168.137 46.4728 167.866C46.3328 167.586 46.2628 167.264 46.2628 166.9C46.2628 166.48 46.3375 166.125 46.4868 165.836C46.6455 165.547 46.8555 165.318 47.1168 165.15C47.3782 164.982 47.6815 164.861 48.0268 164.786C48.3722 164.711 48.7315 164.674 49.1048 164.674H51.2748C51.2748 164.254 51.2142 163.89 51.0928 163.582C50.9808 163.274 50.7942 163.036 50.5328 162.868C50.2715 162.691 49.9262 162.602 49.4968 162.602C49.2355 162.602 48.9928 162.63 48.7688 162.686C48.5448 162.742 48.3535 162.831 48.1948 162.952C48.0362 163.073 47.9195 163.237 47.8448 163.442H46.5708C46.6362 163.106 46.7622 162.821 46.9488 162.588C47.1448 162.345 47.3782 162.149 47.6488 162C47.9288 161.841 48.2275 161.725 48.5448 161.65C48.8622 161.575 49.1795 161.538 49.4968 161.538C50.5608 161.538 51.3168 161.851 51.7648 162.476C52.2128 163.101 52.4368 163.946 52.4368 165.01V169H51.4428L51.3728 168.062C51.1675 168.342 50.9202 168.557 50.6308 168.706C50.3415 168.855 50.0428 168.953 49.7348 169C49.4362 169.056 49.1515 169.084 48.8808 169.084ZM48.9928 168.034C49.4595 168.034 49.8608 167.959 50.1968 167.81C50.5422 167.651 50.8082 167.423 50.9948 167.124C51.1815 166.825 51.2748 166.461 51.2748 166.032V165.668H49.9728C49.6648 165.668 49.3615 165.673 49.0628 165.682C48.7642 165.691 48.4935 165.729 48.2508 165.794C48.0082 165.859 47.8122 165.971 47.6628 166.13C47.5228 166.289 47.4528 166.517 47.4528 166.816C47.4528 167.096 47.5228 167.325 47.6628 167.502C47.8122 167.679 48.0035 167.815 48.2368 167.908C48.4795 167.992 48.7315 168.034 48.9928 168.034ZM56.9965 169.084C56.6605 169.084 56.3198 169.051 55.9745 168.986C55.6385 168.921 55.3211 168.809 55.0225 168.65C54.7331 168.491 54.4905 168.277 54.2945 168.006C54.0985 167.735 53.9725 167.399 53.9165 166.998H55.1205C55.2138 167.25 55.3631 167.455 55.5685 167.614C55.7831 167.763 56.0211 167.871 56.2825 167.936C56.5531 168.001 56.8098 168.034 57.0525 168.034C57.2018 168.034 57.3745 168.025 57.5705 168.006C57.7665 167.987 57.9531 167.945 58.1305 167.88C58.3171 167.805 58.4665 167.698 58.5785 167.558C58.6998 167.418 58.7605 167.222 58.7605 166.97C58.7605 166.783 58.7185 166.629 58.6345 166.508C58.5505 166.387 58.4338 166.289 58.2845 166.214C58.1351 166.13 57.9531 166.069 57.7385 166.032C57.2998 165.939 56.8285 165.85 56.3245 165.766C55.8298 165.682 55.3911 165.523 55.0085 165.29C54.8778 165.206 54.7565 165.113 54.6445 165.01C54.5418 164.898 54.4531 164.777 54.3785 164.646C54.3038 164.506 54.2431 164.357 54.1965 164.198C54.1591 164.03 54.1405 163.848 54.1405 163.652C54.1405 163.288 54.2105 162.975 54.3505 162.714C54.4998 162.443 54.7051 162.224 54.9665 162.056C55.2278 161.879 55.5265 161.748 55.8625 161.664C56.2078 161.58 56.5765 161.538 56.9685 161.538C57.4538 161.538 57.8878 161.617 58.2705 161.776C58.6625 161.925 58.9845 162.149 59.2365 162.448C59.4885 162.737 59.6378 163.097 59.6845 163.526H58.5785C58.5131 163.255 58.3358 163.036 58.0465 162.868C57.7571 162.691 57.3885 162.602 56.9405 162.602C56.7911 162.602 56.6231 162.616 56.4365 162.644C56.2498 162.663 56.0725 162.709 55.9045 162.784C55.7365 162.849 55.5965 162.952 55.4845 163.092C55.3725 163.223 55.3165 163.4 55.3165 163.624C55.3165 163.829 55.3678 164.002 55.4705 164.142C55.5825 164.282 55.7365 164.394 55.9325 164.478C56.1285 164.562 56.3525 164.632 56.6045 164.688C56.9311 164.753 57.2905 164.823 57.6825 164.898C58.0745 164.963 58.3825 165.033 58.6065 165.108C58.9051 165.201 59.1525 165.332 59.3485 165.5C59.5538 165.668 59.7031 165.869 59.7965 166.102C59.8991 166.335 59.9505 166.606 59.9505 166.914C59.9505 167.353 59.8618 167.712 59.6845 167.992C59.5165 168.272 59.2878 168.491 58.9985 168.65C58.7091 168.809 58.3871 168.921 58.0325 168.986C57.6871 169.051 57.3418 169.084 56.9965 169.084ZM64.2315 169.084C63.4568 169.084 62.9108 168.874 62.5935 168.454C62.2855 168.034 62.1315 167.437 62.1315 166.662V162.672H60.9275V161.622H62.1315V159.41H63.3215V161.622H65.5895V162.672H63.3215V166.508C63.3215 166.788 63.3448 167.045 63.3915 167.278C63.4382 167.502 63.5362 167.684 63.6855 167.824C63.8348 167.955 64.0588 168.025 64.3575 168.034C64.5722 168.034 64.7588 167.997 64.9175 167.922C65.0855 167.847 65.2255 167.759 65.3375 167.656L65.8555 168.524C65.6968 168.655 65.5288 168.762 65.3515 168.846C65.1835 168.93 65.0062 168.991 64.8195 169.028C64.6422 169.065 64.4462 169.084 64.2315 169.084ZM70.8397 169V161.622H71.9877L72.0437 162.504C72.2024 162.28 72.3797 162.098 72.5757 161.958C72.7811 161.818 73.0051 161.715 73.2477 161.65C73.4997 161.575 73.7657 161.538 74.0457 161.538C74.5591 161.538 74.9744 161.65 75.2917 161.874C75.6091 162.089 75.8471 162.373 76.0057 162.728C76.1737 162.476 76.3651 162.261 76.5797 162.084C76.8037 161.907 77.0511 161.771 77.3217 161.678C77.6017 161.585 77.9097 161.538 78.2457 161.538C78.7871 161.538 79.2211 161.655 79.5477 161.888C79.8837 162.121 80.1264 162.439 80.2757 162.84C80.4251 163.232 80.4997 163.675 80.4997 164.17V169H79.3097V164.772C79.3097 164.529 79.2957 164.282 79.2677 164.03C79.2491 163.778 79.1931 163.545 79.0997 163.33C79.0064 163.106 78.8664 162.929 78.6797 162.798C78.5024 162.658 78.2504 162.588 77.9237 162.588C77.6157 162.588 77.3544 162.663 77.1397 162.812C76.9344 162.952 76.7664 163.143 76.6357 163.386C76.5051 163.629 76.4117 163.89 76.3557 164.17C76.2997 164.441 76.2717 164.711 76.2717 164.982V169H75.0817V164.758C75.0817 164.525 75.0677 164.282 75.0397 164.03C75.0211 163.778 74.9697 163.545 74.8857 163.33C74.8111 163.106 74.6804 162.929 74.4937 162.798C74.3164 162.658 74.0691 162.588 73.7517 162.588C73.3037 162.588 72.9537 162.719 72.7017 162.98C72.4497 163.232 72.2724 163.545 72.1697 163.918C72.0764 164.282 72.0297 164.641 72.0297 164.996V169H70.8397ZM85.5584 169.084C84.7838 169.084 84.1351 168.925 83.6124 168.608C83.0898 168.281 82.6978 167.833 82.4364 167.264C82.1844 166.695 82.0584 166.046 82.0584 165.318C82.0584 164.581 82.1891 163.932 82.4504 163.372C82.7118 162.803 83.1038 162.355 83.6264 162.028C84.1491 161.701 84.8024 161.538 85.5864 161.538C86.3611 161.538 87.0051 161.701 87.5184 162.028C88.0411 162.355 88.4284 162.803 88.6804 163.372C88.9418 163.932 89.0724 164.581 89.0724 165.318C89.0724 166.046 88.9418 166.695 88.6804 167.264C88.4191 167.833 88.0271 168.281 87.5044 168.608C86.9911 168.925 86.3424 169.084 85.5584 169.084ZM85.5584 168.034C86.0998 168.034 86.5384 167.913 86.8744 167.67C87.2198 167.427 87.4718 167.101 87.6304 166.69C87.7984 166.279 87.8824 165.822 87.8824 165.318C87.8824 164.814 87.7984 164.357 87.6304 163.946C87.4718 163.535 87.2198 163.209 86.8744 162.966C86.5384 162.723 86.0998 162.602 85.5584 162.602C85.0264 162.602 84.5878 162.723 84.2424 162.966C83.9064 163.209 83.6544 163.535 83.4864 163.946C83.3278 164.357 83.2484 164.814 83.2484 165.318C83.2484 165.822 83.3278 166.279 83.4864 166.69C83.6544 167.101 83.9064 167.427 84.2424 167.67C84.5878 167.913 85.0264 168.034 85.5584 168.034ZM90.6926 169V161.622H91.8406L91.8966 162.742C92.0646 162.471 92.2793 162.247 92.5406 162.07C92.8019 161.893 93.0866 161.762 93.3946 161.678C93.7119 161.585 94.0199 161.538 94.3186 161.538C95.0373 161.538 95.5973 161.687 95.9986 161.986C96.4093 162.285 96.6986 162.691 96.8666 163.204C97.0439 163.708 97.1326 164.282 97.1326 164.926V169H95.9426V165.248C95.9426 164.903 95.9193 164.571 95.8726 164.254C95.8353 163.937 95.7513 163.652 95.6206 163.4C95.4993 163.148 95.3219 162.952 95.0886 162.812C94.8553 162.663 94.5426 162.588 94.1506 162.588C93.6653 162.588 93.2499 162.723 92.9046 162.994C92.5686 163.265 92.3119 163.629 92.1346 164.086C91.9666 164.543 91.8826 165.057 91.8826 165.626V169H90.6926ZM101.988 169C101.428 169 100.975 168.916 100.63 168.748C100.294 168.58 100.047 168.319 99.8881 167.964C99.7388 167.609 99.6641 167.161 99.6641 166.62V162.672H98.4601V161.622H99.6641V159.424H100.854V161.622H102.828V162.672H100.854V166.494C100.854 166.998 100.943 167.371 101.12 167.614C101.307 167.847 101.68 167.964 102.24 167.964H102.786V169H101.988ZM104.202 169V159.102H105.392V162.756C105.569 162.495 105.784 162.275 106.036 162.098C106.297 161.911 106.582 161.771 106.89 161.678C107.198 161.585 107.515 161.538 107.842 161.538C108.56 161.538 109.12 161.687 109.522 161.986C109.932 162.285 110.222 162.691 110.39 163.204C110.558 163.708 110.642 164.287 110.642 164.94V169H109.452V165.304C109.452 164.977 109.428 164.655 109.382 164.338C109.344 164.011 109.265 163.717 109.144 163.456C109.022 163.195 108.836 162.985 108.584 162.826C108.341 162.667 108.01 162.588 107.59 162.588C107.188 162.588 106.843 162.677 106.554 162.854C106.274 163.031 106.05 163.269 105.882 163.568C105.714 163.857 105.588 164.179 105.504 164.534C105.429 164.879 105.392 165.22 105.392 165.556V169H104.202Z" fill="white" fill-opacity="0.6"/>
<rect x="118" y="152" width="72" height="24" rx="12" fill="#93D973" fill-opacity="0.15"/>
<path opacity="0.5" d="M131.625 168C131.625 168.099 131.665 168.195 131.735 168.265C131.805 168.335 131.901 168.375 132 168.375C132.099 168.375 132.195 168.335 132.265 168.265C132.335 168.195 132.375 168.099 132.375 168H131.625ZM132.375 168V160H131.625V168H132.375Z" fill="#70C748"/>
<path d="M135 163L132 160L129 163" stroke="#70C748" stroke-width="0.75" stroke-linecap="round" stroke-linejoin="round"/>
<path d="M144.82 165.688V163.804H143.02V162.676H144.82V160.792H145.948V162.676H147.76V163.804H145.948V165.688H144.82ZM150.753 167.5V160.888H149.049V159.988C149.369 159.964 149.657 159.928 149.913 159.88C150.169 159.824 150.397 159.732 150.597 159.604C150.797 159.468 150.973 159.272 151.125 159.016H152.025V167.5H150.753ZM157.018 167.596C156.626 167.596 156.246 167.552 155.878 167.464C155.51 167.376 155.178 167.236 154.882 167.044C154.594 166.844 154.362 166.584 154.186 166.264C154.01 165.944 153.922 165.552 153.922 165.088C153.922 164.768 153.974 164.48 154.078 164.224C154.182 163.96 154.334 163.732 154.534 163.54C154.742 163.348 154.982 163.196 155.254 163.084C154.974 162.932 154.754 162.752 154.594 162.544C154.434 162.328 154.326 162.1 154.27 161.86C154.214 161.62 154.186 161.392 154.186 161.176C154.186 160.768 154.266 160.424 154.426 160.144C154.586 159.856 154.802 159.624 155.074 159.448C155.346 159.264 155.65 159.132 155.986 159.052C156.322 158.964 156.67 158.92 157.03 158.92C157.382 158.92 157.726 158.964 158.062 159.052C158.398 159.132 158.702 159.264 158.974 159.448C159.246 159.632 159.462 159.868 159.622 160.156C159.782 160.444 159.862 160.792 159.862 161.2C159.862 161.408 159.83 161.628 159.766 161.86C159.71 162.092 159.602 162.312 159.442 162.52C159.282 162.728 159.058 162.904 158.77 163.048C159.058 163.16 159.302 163.316 159.502 163.516C159.71 163.716 159.866 163.948 159.97 164.212C160.074 164.476 160.126 164.772 160.126 165.1C160.126 165.556 160.038 165.944 159.862 166.264C159.686 166.584 159.446 166.844 159.142 167.044C158.846 167.236 158.514 167.376 158.146 167.464C157.786 167.552 157.41 167.596 157.018 167.596ZM157.018 166.444C157.21 166.444 157.41 166.424 157.618 166.384C157.826 166.344 158.022 166.276 158.206 166.18C158.39 166.076 158.538 165.936 158.65 165.76C158.77 165.576 158.83 165.348 158.83 165.076C158.83 164.74 158.746 164.476 158.578 164.284C158.41 164.084 158.186 163.94 157.906 163.852C157.634 163.756 157.338 163.708 157.018 163.708C156.706 163.708 156.41 163.756 156.13 163.852C155.858 163.94 155.634 164.084 155.458 164.284C155.29 164.476 155.206 164.74 155.206 165.076C155.206 165.348 155.262 165.576 155.374 165.76C155.494 165.936 155.646 166.076 155.83 166.18C156.022 166.276 156.222 166.344 156.43 166.384C156.638 166.424 156.834 166.444 157.018 166.444ZM157.03 162.652C157.318 162.652 157.574 162.604 157.798 162.508C158.03 162.412 158.218 162.272 158.362 162.088C158.506 161.896 158.578 161.664 158.578 161.392C158.586 161.072 158.518 160.816 158.374 160.624C158.23 160.424 158.038 160.28 157.798 160.192C157.566 160.096 157.306 160.048 157.018 160.048C156.722 160.048 156.454 160.096 156.214 160.192C155.982 160.28 155.798 160.42 155.662 160.612C155.534 160.804 155.47 161.048 155.47 161.344C155.47 161.64 155.542 161.888 155.686 162.088C155.83 162.28 156.018 162.424 156.25 162.52C156.49 162.608 156.75 162.652 157.03 162.652ZM162.371 167.62C162.131 167.62 161.931 167.544 161.771 167.392C161.619 167.24 161.543 167.04 161.543 166.792C161.543 166.544 161.623 166.344 161.783 166.192C161.943 166.032 162.139 165.952 162.371 165.952C162.603 165.952 162.795 166.032 162.947 166.192C163.107 166.344 163.187 166.544 163.187 166.792C163.187 167.04 163.107 167.24 162.947 167.392C162.795 167.544 162.603 167.62 162.371 167.62ZM168.931 167.5V165.856H164.419V164.896L168.499 159.016H170.191V164.704H171.175V165.856H170.191V167.5H168.931ZM165.919 164.704H168.931V160.276L165.919 164.704ZM173.261 167.5L178.589 159.016H179.861L174.557 167.5H173.261ZM179.081 167.572C178.689 167.572 178.353 167.488 178.073 167.32C177.801 167.152 177.589 166.924 177.437 166.636C177.293 166.34 177.221 166.004 177.221 165.628C177.221 165.236 177.293 164.896 177.437 164.608C177.589 164.32 177.805 164.096 178.085 163.936C178.365 163.768 178.697 163.684 179.081 163.684C179.465 163.684 179.793 163.764 180.065 163.924C180.337 164.084 180.545 164.312 180.689 164.608C180.833 164.896 180.905 165.232 180.905 165.616C180.905 165.992 180.829 166.328 180.677 166.624C180.533 166.92 180.325 167.152 180.053 167.32C179.781 167.488 179.457 167.572 179.081 167.572ZM179.069 166.588C179.269 166.588 179.429 166.544 179.549 166.456C179.669 166.368 179.753 166.248 179.801 166.096C179.857 165.944 179.885 165.788 179.885 165.628C179.885 165.468 179.857 165.316 179.801 165.172C179.753 165.02 179.669 164.9 179.549 164.812C179.429 164.724 179.269 164.68 179.069 164.68C178.765 164.68 178.549 164.78 178.421 164.98C178.293 165.172 178.229 165.388 178.229 165.628C178.229 165.884 178.293 166.108 178.421 166.3C178.557 166.492 178.773 166.588 179.069 166.588ZM174.101 162.808C173.709 162.808 173.373 162.724 173.093 162.556C172.821 162.388 172.613 162.16 172.469 161.872C172.325 161.576 172.253 161.24 172.253 160.864C172.253 160.472 172.325 160.132 172.469 159.844C172.613 159.556 172.825 159.332 173.105 159.172C173.385 159.004 173.721 158.92 174.113 158.92C174.497 158.92 174.825 159 175.097 159.16C175.369 159.32 175.577 159.548 175.721 159.844C175.865 160.132 175.937 160.468 175.937 160.852C175.937 161.228 175.865 161.564 175.721 161.86C175.577 162.156 175.365 162.388 175.085 162.556C174.813 162.724 174.485 162.808 174.101 162.808ZM174.101 161.824C174.301 161.824 174.457 161.78 174.569 161.692C174.689 161.596 174.777 161.476 174.833 161.332C174.889 161.18 174.917 161.024 174.917 160.864C174.917 160.696 174.889 160.54 174.833 160.396C174.777 160.252 174.689 160.136 174.569 160.048C174.457 159.952 174.301 159.904 174.101 159.904C173.797 159.904 173.577 160.004 173.441 160.204C173.313 160.396 173.249 160.616 173.249 160.864C173.249 161.12 173.313 161.344 173.441 161.536C173.577 161.728 173.797 161.824 174.101 161.824Z" fill="#70C748"/>
<path d="M272 126C274.209 126 276 127.791 276 130V140C275.088 138.786 273.636 138 272 138C270.364 138 268.912 138.786 268 140V130C268 127.791 269.791 126 272 126Z" fill="white" fill-opacity="0.2"/>
<path d="M268 144C268 141.791 269.791 140 272 140V140C274.209 140 276 141.791 276 144V172C276 174.209 274.209 176 272 176V176C269.791 176 268 174.209 268 172V144Z" fill="#C2FD75"/>
<path d="M296 111C298.209 111 300 112.791 300 115V125C299.088 123.786 297.636 123 296 123C294.364 123 292.912 123.786 292 125V115C292 112.791 293.791 111 296 111Z" fill="white" fill-opacity="0.2"/>
<path d="M292 129C292 126.791 293.791 125 296 125V125C298.209 125 300 126.791 300 129V172C300 174.209 298.209 176 296 176V176C293.791 176 292 174.209 292 172V129Z" fill="#C2FD75"/>
<path d="M320 126C322.209 126 324 127.791 324 130V144C323.088 142.786 321.636 142 320 142C318.364 142 316.912 142.786 316 144V130C316 127.791 317.791 126 320 126Z" fill="white" fill-opacity="0.2"/>
<path d="M316 148C316 145.791 317.791 144 320 144V144C322.209 144 324 145.791 324 148V172C324 174.209 322.209 176 320 176V176C317.791 176 316 174.209 316 172V148Z" fill="#C2FD75"/>
<path d="M344 136C346.209 136 348 137.791 348 140V155C347.088 153.786 345.636 153 344 153C342.364 153 340.912 153.786 340 155V140C340 137.791 341.791 136 344 136Z" fill="white" fill-opacity="0.2"/>
<path d="M340 159C340 156.791 341.791 155 344 155V155C346.209 155 348 156.791 348 159V172C348 174.209 346.209 176 344 176V176C341.791 176 340 174.209 340 172V159Z" fill="#C2FD75"/>
</svg>
