<svg width="372" height="164" viewBox="0 0 372 164" fill="none" xmlns="http://www.w3.org/2000/svg">
<g clip-path="url(#clip0_117_5502)">
<rect width="372" height="164" rx="16" fill="white"/>
<path d="M27.152 40L24.176 28.688H26.08L28.448 38.368L30.768 28.688H33.184L35.488 38.368L37.856 28.688H39.664L36.704 40H34.24L31.936 30.48L29.632 40H27.152ZM44.5957 40.096C43.7104 40.096 42.9691 39.9147 42.3717 39.552C41.7744 39.1893 41.3211 38.688 41.0117 38.048C40.7131 37.3973 40.5637 36.6507 40.5637 35.808C40.5637 34.9547 40.7184 34.2027 41.0277 33.552C41.3477 32.9013 41.8064 32.3893 42.4037 32.016C43.0117 31.6427 43.7424 31.456 44.5957 31.456C45.2464 31.456 45.8117 31.5787 46.2917 31.824C46.7717 32.0587 47.1664 32.3787 47.4757 32.784C47.7957 33.1893 48.0304 33.6427 48.1798 34.144C48.3291 34.6347 48.3931 35.1467 48.3717 35.68C48.3717 35.7973 48.3664 35.9093 48.3558 36.016C48.3451 36.1227 48.3344 36.2347 48.3237 36.352H42.2277C42.2597 36.7787 42.3664 37.168 42.5477 37.52C42.7397 37.872 43.0064 38.1547 43.3477 38.368C43.6891 38.5707 44.1104 38.672 44.6117 38.672C44.8891 38.672 45.1557 38.64 45.4117 38.576C45.6784 38.5013 45.9131 38.3893 46.1157 38.24C46.3291 38.08 46.4784 37.8773 46.5637 37.632H48.2277C48.0891 38.1973 47.8384 38.6667 47.4757 39.04C47.1238 39.4027 46.6918 39.6693 46.1797 39.84C45.6784 40.0107 45.1504 40.096 44.5957 40.096ZM42.2597 35.04H46.7397C46.7291 34.624 46.6331 34.256 46.4517 33.936C46.2704 33.6053 46.0197 33.3493 45.6997 33.168C45.3797 32.976 44.9957 32.88 44.5477 32.88C44.0571 32.88 43.6464 32.9813 43.3157 33.184C42.9957 33.3867 42.7451 33.6533 42.5637 33.984C42.3931 34.304 42.2917 34.656 42.2597 35.04ZM53.8152 40.096C52.9299 40.096 52.1886 39.9147 51.5912 39.552C50.9939 39.1893 50.5406 38.688 50.2312 38.048C49.9326 37.3973 49.7832 36.6507 49.7832 35.808C49.7832 34.9547 49.9379 34.2027 50.2472 33.552C50.5672 32.9013 51.0259 32.3893 51.6232 32.016C52.2312 31.6427 52.9619 31.456 53.8152 31.456C54.4659 31.456 55.0312 31.5787 55.5112 31.824C55.9912 32.0587 56.3859 32.3787 56.6952 32.784C57.0152 33.1893 57.2499 33.6427 57.3993 34.144C57.5486 34.6347 57.6126 35.1467 57.5912 35.68C57.5912 35.7973 57.5859 35.9093 57.5752 36.016C57.5646 36.1227 57.5539 36.2347 57.5432 36.352H51.4472C51.4792 36.7787 51.5859 37.168 51.7672 37.52C51.9592 37.872 52.2259 38.1547 52.5672 38.368C52.9086 38.5707 53.3299 38.672 53.8312 38.672C54.1086 38.672 54.3752 38.64 54.6312 38.576C54.8979 38.5013 55.1326 38.3893 55.3352 38.24C55.5486 38.08 55.6979 37.8773 55.7832 37.632H57.4472C57.3086 38.1973 57.0579 38.6667 56.6952 39.04C56.3432 39.4027 55.9112 39.6693 55.3992 39.84C54.8979 40.0107 54.3699 40.096 53.8152 40.096ZM51.4792 35.04H55.9592C55.9486 34.624 55.8526 34.256 55.6712 33.936C55.4899 33.6053 55.2392 33.3493 54.9192 33.168C54.5992 32.976 54.2152 32.88 53.7672 32.88C53.2766 32.88 52.8659 32.9813 52.5352 33.184C52.2152 33.3867 51.9646 33.6533 51.7832 33.984C51.6126 34.304 51.5112 34.656 51.4792 35.04ZM59.3228 40V28.688H60.9708V35.072H62.3308L64.6988 31.568H66.5548L63.7868 35.584L66.7948 40H64.8588L62.4588 36.528H60.9708V40H59.3228ZM67.886 40V28.688H69.534V40H67.886ZM75.3175 43.808C74.6668 43.808 74.0375 43.7173 73.4295 43.536C72.8215 43.3653 72.2668 43.0613 71.7655 42.624L72.4215 41.312C72.8055 41.6213 73.2268 41.8667 73.6855 42.048C74.1548 42.2293 74.6508 42.32 75.1735 42.32C76.0375 42.32 76.6615 42.0853 77.0455 41.616C77.4295 41.1467 77.6215 40.5333 77.6215 39.776V38.96C77.4295 39.2267 77.1895 39.4507 76.9015 39.632C76.6242 39.8027 76.3148 39.9253 75.9735 40C75.6322 40.0853 75.2855 40.128 74.9335 40.128C74.1122 40.128 73.4562 39.9627 72.9655 39.632C72.4855 39.2907 72.1388 38.8267 71.9255 38.24C71.7228 37.6533 71.6215 36.976 71.6215 36.208V31.568H73.2855V35.808C73.2855 36.1493 73.3068 36.4907 73.3495 36.832C73.3922 37.1733 73.4828 37.4827 73.6215 37.76C73.7602 38.0267 73.9628 38.2453 74.2295 38.416C74.4962 38.576 74.8588 38.656 75.3175 38.656C75.8935 38.656 76.3468 38.5173 76.6775 38.24C77.0082 37.952 77.2428 37.5787 77.3815 37.12C77.5202 36.6507 77.5895 36.144 77.5895 35.6V31.568H79.2375V39.6C79.2375 40.2613 79.1575 40.8533 78.9975 41.376C78.8482 41.8987 78.6082 42.3413 78.2775 42.704C77.9575 43.0667 77.5522 43.3387 77.0615 43.52C76.5815 43.712 76.0002 43.808 75.3175 43.808ZM88.8527 40.096C88.4581 40.096 88.0634 40.0587 87.6687 39.984C87.2741 39.9093 86.9061 39.776 86.5647 39.584C86.2234 39.392 85.9354 39.136 85.7007 38.816C85.4661 38.4853 85.3167 38.08 85.2527 37.6H86.9327C87.0181 37.856 87.1674 38.064 87.3807 38.224C87.6047 38.384 87.8501 38.5013 88.1167 38.576C88.3941 38.6507 88.6661 38.688 88.9327 38.688C89.0927 38.688 89.2687 38.6773 89.4607 38.656C89.6634 38.6347 89.8554 38.5867 90.0367 38.512C90.2181 38.4373 90.3674 38.3307 90.4847 38.192C90.6021 38.0427 90.6607 37.8453 90.6607 37.6C90.6607 37.408 90.6074 37.248 90.5007 37.12C90.4047 36.992 90.2661 36.8907 90.0847 36.816C89.9141 36.7307 89.7061 36.6667 89.4607 36.624C88.9807 36.5173 88.4634 36.416 87.9087 36.32C87.3647 36.2133 86.8847 36.032 86.4687 35.776C86.3194 35.68 86.1861 35.5733 86.0687 35.456C85.9514 35.328 85.8501 35.184 85.7647 35.024C85.6794 34.864 85.6154 34.6933 85.5727 34.512C85.5301 34.3307 85.5087 34.1333 85.5087 33.92C85.5087 33.4827 85.5941 33.1093 85.7647 32.8C85.9461 32.4907 86.1914 32.24 86.5007 32.048C86.8101 31.8453 87.1621 31.696 87.5567 31.6C87.9514 31.504 88.3674 31.456 88.8047 31.456C89.3701 31.456 89.8821 31.5467 90.3407 31.728C90.7994 31.9093 91.1781 32.176 91.4767 32.528C91.7754 32.88 91.9514 33.3227 92.0047 33.856H90.4527C90.3887 33.568 90.2021 33.3387 89.8927 33.168C89.5941 32.9867 89.2154 32.896 88.7567 32.896C88.5967 32.896 88.4207 32.9067 88.2287 32.928C88.0474 32.9493 87.8714 32.9973 87.7007 33.072C87.5301 33.1467 87.3914 33.2533 87.2847 33.392C87.1781 33.52 87.1247 33.6907 87.1247 33.904C87.1247 34.1067 87.1727 34.2773 87.2687 34.416C87.3754 34.5547 87.5247 34.6667 87.7167 34.752C87.9194 34.8373 88.1487 34.9067 88.4047 34.96C88.7674 35.0453 89.1567 35.1253 89.5727 35.2C89.9994 35.2747 90.3461 35.3547 90.6127 35.44C90.9647 35.536 91.2634 35.6747 91.5087 35.856C91.7647 36.0373 91.9567 36.2667 92.0847 36.544C92.2234 36.8213 92.2927 37.1573 92.2927 37.552C92.2927 38.064 92.1914 38.4853 91.9887 38.816C91.7861 39.136 91.5141 39.392 91.1727 39.584C90.8421 39.776 90.4687 39.9093 90.0527 39.984C89.6474 40.0587 89.2474 40.096 88.8527 40.096ZM96.577 40.096C96.193 40.096 95.8197 40.048 95.457 39.952C95.105 39.8453 94.7903 39.6907 94.513 39.488C94.2357 39.2747 94.0117 39.0133 93.841 38.704C93.681 38.384 93.601 38.0107 93.601 37.584C93.601 37.072 93.697 36.6507 93.889 36.32C94.0917 35.9787 94.3583 35.7173 94.689 35.536C95.0197 35.344 95.3983 35.2107 95.825 35.136C96.2623 35.0507 96.7157 35.008 97.185 35.008H99.249C99.249 34.592 99.185 34.2293 99.057 33.92C98.929 33.6 98.7263 33.3547 98.449 33.184C98.1823 33.0027 97.825 32.912 97.377 32.912C97.1103 32.912 96.8543 32.944 96.609 33.008C96.3743 33.0613 96.1717 33.152 96.001 33.28C95.8303 33.408 95.713 33.5787 95.649 33.792H93.921C93.985 33.3867 94.129 33.04 94.353 32.752C94.577 32.4533 94.8543 32.208 95.185 32.016C95.5157 31.824 95.8677 31.6853 96.241 31.6C96.625 31.504 97.0143 31.456 97.409 31.456C98.625 31.456 99.4997 31.8133 100.033 32.528C100.577 33.232 100.849 34.2027 100.849 35.44V40H99.425L99.361 38.928C99.1157 39.2587 98.8223 39.5093 98.481 39.68C98.1503 39.8507 97.8197 39.9627 97.489 40.016C97.1583 40.0693 96.8543 40.096 96.577 40.096ZM96.833 38.704C97.313 38.704 97.7343 38.624 98.097 38.464C98.4597 38.2933 98.7423 38.0533 98.945 37.744C99.1477 37.424 99.249 37.0507 99.249 36.624V36.272H97.745C97.4357 36.272 97.1317 36.2827 96.833 36.304C96.545 36.3147 96.2783 36.3573 96.033 36.432C95.7983 36.496 95.6063 36.608 95.457 36.768C95.3183 36.928 95.249 37.1573 95.249 37.456C95.249 37.744 95.3237 37.9787 95.473 38.16C95.6223 38.3413 95.8197 38.48 96.065 38.576C96.3103 38.6613 96.5663 38.704 96.833 38.704ZM102.859 40V28.688H104.507V40H102.859ZM110.29 40.096C109.405 40.096 108.663 39.9147 108.066 39.552C107.469 39.1893 107.015 38.688 106.706 38.048C106.407 37.3973 106.258 36.6507 106.258 35.808C106.258 34.9547 106.413 34.2027 106.722 33.552C107.042 32.9013 107.501 32.3893 108.098 32.016C108.706 31.6427 109.437 31.456 110.29 31.456C110.941 31.456 111.506 31.5787 111.986 31.824C112.466 32.0587 112.861 32.3787 113.17 32.784C113.49 33.1893 113.725 33.6427 113.874 34.144C114.023 34.6347 114.087 35.1467 114.066 35.68C114.066 35.7973 114.061 35.9093 114.05 36.016C114.039 36.1227 114.029 36.2347 114.018 36.352H107.922C107.954 36.7787 108.061 37.168 108.242 37.52C108.434 37.872 108.701 38.1547 109.042 38.368C109.383 38.5707 109.805 38.672 110.306 38.672C110.583 38.672 110.85 38.64 111.106 38.576C111.373 38.5013 111.607 38.3893 111.81 38.24C112.023 38.08 112.173 37.8773 112.258 37.632H113.922C113.783 38.1973 113.533 38.6667 113.17 39.04C112.818 39.4027 112.386 39.6693 111.874 39.84C111.373 40.0107 110.845 40.096 110.29 40.096ZM107.954 35.04H112.434C112.423 34.624 112.327 34.256 112.146 33.936C111.965 33.6053 111.714 33.3493 111.394 33.168C111.074 32.976 110.69 32.88 110.242 32.88C109.751 32.88 109.341 32.9813 109.01 33.184C108.69 33.3867 108.439 33.6533 108.258 33.984C108.087 34.304 107.986 34.656 107.954 35.04ZM118.949 40.096C118.555 40.096 118.16 40.0587 117.765 39.984C117.371 39.9093 117.003 39.776 116.661 39.584C116.32 39.392 116.032 39.136 115.797 38.816C115.563 38.4853 115.413 38.08 115.349 37.6H117.029C117.115 37.856 117.264 38.064 117.477 38.224C117.701 38.384 117.947 38.5013 118.213 38.576C118.491 38.6507 118.763 38.688 119.029 38.688C119.189 38.688 119.365 38.6773 119.557 38.656C119.76 38.6347 119.952 38.5867 120.133 38.512C120.315 38.4373 120.464 38.3307 120.581 38.192C120.699 38.0427 120.757 37.8453 120.757 37.6C120.757 37.408 120.704 37.248 120.597 37.12C120.501 36.992 120.363 36.8907 120.181 36.816C120.011 36.7307 119.803 36.6667 119.557 36.624C119.077 36.5173 118.56 36.416 118.005 36.32C117.461 36.2133 116.981 36.032 116.565 35.776C116.416 35.68 116.283 35.5733 116.165 35.456C116.048 35.328 115.947 35.184 115.861 35.024C115.776 34.864 115.712 34.6933 115.669 34.512C115.627 34.3307 115.605 34.1333 115.605 33.92C115.605 33.4827 115.691 33.1093 115.861 32.8C116.043 32.4907 116.288 32.24 116.597 32.048C116.907 31.8453 117.259 31.696 117.653 31.6C118.048 31.504 118.464 31.456 118.901 31.456C119.467 31.456 119.979 31.5467 120.437 31.728C120.896 31.9093 121.275 32.176 121.573 32.528C121.872 32.88 122.048 33.3227 122.101 33.856H120.549C120.485 33.568 120.299 33.3387 119.989 33.168C119.691 32.9867 119.312 32.896 118.853 32.896C118.693 32.896 118.517 32.9067 118.325 32.928C118.144 32.9493 117.968 32.9973 117.797 33.072C117.627 33.1467 117.488 33.2533 117.381 33.392C117.275 33.52 117.221 33.6907 117.221 33.904C117.221 34.1067 117.269 34.2773 117.365 34.416C117.472 34.5547 117.621 34.6667 117.813 34.752C118.016 34.8373 118.245 34.9067 118.501 34.96C118.864 35.0453 119.253 35.1253 119.669 35.2C120.096 35.2747 120.443 35.3547 120.709 35.44C121.061 35.536 121.36 35.6747 121.605 35.856C121.861 36.0373 122.053 36.2667 122.181 36.544C122.32 36.8213 122.389 37.1573 122.389 37.552C122.389 38.064 122.288 38.4853 122.085 38.816C121.883 39.136 121.611 39.392 121.269 39.584C120.939 39.776 120.565 39.9093 120.149 39.984C119.744 40.0587 119.344 40.096 118.949 40.096Z" fill="#030E09"/>
<path d="M25.872 75L32.496 60.792H24.096V58.032H35.856V60.288L29.208 75H25.872ZM40.4957 75V62.16H37.1357V59.976C37.7917 59.944 38.3757 59.872 38.8877 59.76C39.3997 59.648 39.8557 59.456 40.2557 59.184C40.6717 58.912 41.0397 58.528 41.3597 58.032H43.4957V75H40.4957ZM55.5643 75V71.784H46.7323V69.528L54.7483 58.032H58.5163V69.072H60.4603V71.784H58.5163V75H55.5643ZM50.1883 69.072H55.5643V61.176L50.1883 69.072ZM62.6147 75V58.032H65.5427V67.416H67.3667L70.7027 62.352H73.9907L69.8867 68.376L74.3267 75H70.9187L67.5347 69.984H65.5427V75H62.6147Z" fill="#030E09"/>
<rect x="83" y="58" width="42" height="20" rx="10" fill="#93D973" fill-opacity="0.15"/>
<path d="M95.968 71.5V69.856H91.456V68.896L95.536 63.016H97.228V68.704H98.212V69.856H97.228V71.5H95.968ZM92.956 68.704H95.968V64.276L92.956 68.704ZM102.613 71.596C102.005 71.596 101.489 71.488 101.065 71.272C100.641 71.048 100.297 70.74 100.033 70.348C99.7695 69.948 99.5735 69.488 99.4455 68.968C99.3255 68.44 99.2655 67.872 99.2655 67.264C99.2655 66.656 99.3255 66.092 99.4455 65.572C99.5655 65.044 99.7575 64.584 100.021 64.192C100.293 63.792 100.641 63.48 101.065 63.256C101.497 63.032 102.013 62.92 102.613 62.92C103.253 62.92 103.785 63.04 104.209 63.28C104.641 63.52 104.985 63.848 105.241 64.264C105.505 64.672 105.689 65.136 105.793 65.656C105.905 66.176 105.961 66.712 105.961 67.264C105.961 67.816 105.905 68.352 105.793 68.872C105.681 69.392 105.497 69.856 105.241 70.264C104.985 70.672 104.641 70.996 104.209 71.236C103.777 71.476 103.245 71.596 102.613 71.596ZM102.613 70.432C103.053 70.432 103.409 70.336 103.681 70.144C103.953 69.944 104.161 69.684 104.305 69.364C104.449 69.044 104.545 68.7 104.593 68.332C104.649 67.964 104.677 67.608 104.677 67.264C104.677 66.928 104.649 66.576 104.593 66.208C104.545 65.832 104.449 65.484 104.305 65.164C104.161 64.844 103.953 64.584 103.681 64.384C103.417 64.184 103.065 64.084 102.625 64.084C102.177 64.084 101.813 64.184 101.533 64.384C101.261 64.584 101.053 64.844 100.909 65.164C100.765 65.484 100.669 65.828 100.621 66.196C100.573 66.564 100.549 66.92 100.549 67.264C100.549 67.608 100.573 67.964 100.621 68.332C100.669 68.7 100.761 69.044 100.897 69.364C101.041 69.684 101.249 69.944 101.521 70.144C101.801 70.336 102.165 70.432 102.613 70.432ZM108.279 71.5L113.607 63.016H114.879L109.575 71.5H108.279ZM114.099 71.572C113.707 71.572 113.371 71.488 113.091 71.32C112.819 71.152 112.607 70.924 112.455 70.636C112.311 70.34 112.239 70.004 112.239 69.628C112.239 69.236 112.311 68.896 112.455 68.608C112.607 68.32 112.823 68.096 113.103 67.936C113.383 67.768 113.715 67.684 114.099 67.684C114.483 67.684 114.811 67.764 115.083 67.924C115.355 68.084 115.563 68.312 115.707 68.608C115.851 68.896 115.923 69.232 115.923 69.616C115.923 69.992 115.847 70.328 115.695 70.624C115.551 70.92 115.343 71.152 115.071 71.32C114.799 71.488 114.475 71.572 114.099 71.572ZM114.087 70.588C114.287 70.588 114.447 70.544 114.567 70.456C114.687 70.368 114.771 70.248 114.819 70.096C114.875 69.944 114.903 69.788 114.903 69.628C114.903 69.468 114.875 69.316 114.819 69.172C114.771 69.02 114.687 68.9 114.567 68.812C114.447 68.724 114.287 68.68 114.087 68.68C113.783 68.68 113.567 68.78 113.439 68.98C113.311 69.172 113.247 69.388 113.247 69.628C113.247 69.884 113.311 70.108 113.439 70.3C113.575 70.492 113.791 70.588 114.087 70.588ZM109.119 66.808C108.727 66.808 108.391 66.724 108.111 66.556C107.839 66.388 107.631 66.16 107.487 65.872C107.343 65.576 107.271 65.24 107.271 64.864C107.271 64.472 107.343 64.132 107.487 63.844C107.631 63.556 107.843 63.332 108.123 63.172C108.403 63.004 108.739 62.92 109.131 62.92C109.515 62.92 109.843 63 110.115 63.16C110.387 63.32 110.595 63.548 110.739 63.844C110.883 64.132 110.955 64.468 110.955 64.852C110.955 65.228 110.883 65.564 110.739 65.86C110.595 66.156 110.383 66.388 110.103 66.556C109.831 66.724 109.503 66.808 109.119 66.808ZM109.119 65.824C109.319 65.824 109.475 65.78 109.587 65.692C109.707 65.596 109.795 65.476 109.851 65.332C109.907 65.18 109.935 65.024 109.935 64.864C109.935 64.696 109.907 64.54 109.851 64.396C109.795 64.252 109.707 64.136 109.587 64.048C109.475 63.952 109.319 63.904 109.119 63.904C108.815 63.904 108.595 64.004 108.459 64.204C108.331 64.396 108.267 64.616 108.267 64.864C108.267 65.12 108.331 65.344 108.459 65.536C108.595 65.728 108.815 65.824 109.119 65.824Z" fill="#70C748"/>
<rect x="24" y="104" width="131" height="36" rx="10" fill="white"/>
<rect x="24.5" y="104.5" width="130" height="35" rx="9.5" stroke="#030E09" stroke-opacity="0.2"/>
<path d="M44.788 127.112C44.144 127.112 43.5373 127.019 42.968 126.832C42.3987 126.645 41.918 126.342 41.526 125.922C41.134 125.502 40.8727 124.947 40.742 124.256H42.268C42.3893 124.648 42.5853 124.956 42.856 125.18C43.1267 125.395 43.4393 125.544 43.794 125.628C44.158 125.712 44.522 125.754 44.886 125.754C45.2313 125.754 45.5533 125.707 45.852 125.614C46.16 125.521 46.412 125.367 46.608 125.152C46.804 124.937 46.902 124.657 46.902 124.312C46.902 124.051 46.8507 123.836 46.748 123.668C46.6453 123.5 46.5007 123.365 46.314 123.262C46.1367 123.15 45.922 123.061 45.67 122.996C45.3807 122.903 45.068 122.823 44.732 122.758C44.4053 122.693 44.0787 122.618 43.752 122.534C43.4347 122.45 43.136 122.343 42.856 122.212C42.6227 122.119 42.394 122.007 42.17 121.876C41.9553 121.736 41.7687 121.573 41.61 121.386C41.4513 121.19 41.3207 120.961 41.218 120.7C41.1247 120.439 41.078 120.14 41.078 119.804C41.078 119.356 41.148 118.973 41.288 118.656C41.4373 118.339 41.6287 118.073 41.862 117.858C42.1047 117.643 42.38 117.475 42.688 117.354C43.0053 117.223 43.3367 117.13 43.682 117.074C44.0273 117.018 44.3633 116.99 44.69 116.99C45.2873 116.99 45.838 117.083 46.342 117.27C46.846 117.457 47.2613 117.755 47.588 118.166C47.924 118.567 48.106 119.099 48.134 119.762H46.692C46.6547 119.407 46.5333 119.127 46.328 118.922C46.132 118.707 45.8847 118.558 45.586 118.474C45.2873 118.381 44.97 118.334 44.634 118.334C44.3913 118.334 44.1487 118.357 43.906 118.404C43.6633 118.441 43.4393 118.516 43.234 118.628C43.038 118.731 42.8793 118.871 42.758 119.048C42.646 119.225 42.59 119.445 42.59 119.706C42.59 119.93 42.6367 120.131 42.73 120.308C42.8233 120.476 42.954 120.621 43.122 120.742C43.2993 120.854 43.4953 120.952 43.71 121.036C44.102 121.185 44.5313 121.302 44.998 121.386C45.4647 121.461 45.9033 121.568 46.314 121.708C46.6127 121.801 46.8927 121.918 47.154 122.058C47.4153 122.189 47.6393 122.352 47.826 122.548C48.0127 122.735 48.1573 122.959 48.26 123.22C48.3627 123.472 48.414 123.766 48.414 124.102C48.414 124.653 48.316 125.124 48.12 125.516C47.924 125.899 47.658 126.207 47.322 126.44C46.986 126.673 46.5987 126.846 46.16 126.958C45.7213 127.061 45.264 127.112 44.788 127.112ZM53.3318 127.084C52.5572 127.084 51.9085 126.925 51.3858 126.608C50.8632 126.291 50.4665 125.852 50.1958 125.292C49.9345 124.723 49.8038 124.069 49.8038 123.332C49.8038 122.585 49.9392 121.927 50.2098 121.358C50.4898 120.789 50.8912 120.341 51.4138 120.014C51.9458 119.687 52.5852 119.524 53.3318 119.524C53.9012 119.524 54.3958 119.631 54.8158 119.846C55.2358 120.051 55.5812 120.331 55.8518 120.686C56.1318 121.041 56.3372 121.437 56.4678 121.876C56.5985 122.305 56.6545 122.753 56.6358 123.22C56.6358 123.323 56.6312 123.421 56.6218 123.514C56.6125 123.607 56.6032 123.705 56.5938 123.808H51.2598C51.2878 124.181 51.3812 124.522 51.5398 124.83C51.7078 125.138 51.9412 125.385 52.2398 125.572C52.5385 125.749 52.9072 125.838 53.3458 125.838C53.5885 125.838 53.8218 125.81 54.0458 125.754C54.2792 125.689 54.4845 125.591 54.6618 125.46C54.8485 125.32 54.9792 125.143 55.0538 124.928H56.5098C56.3885 125.423 56.1692 125.833 55.8518 126.16C55.5438 126.477 55.1658 126.711 54.7178 126.86C54.2792 127.009 53.8172 127.084 53.3318 127.084ZM51.2878 122.66H55.2078C55.1985 122.296 55.1145 121.974 54.9558 121.694C54.7972 121.405 54.5778 121.181 54.2978 121.022C54.0178 120.854 53.6818 120.77 53.2898 120.77C52.8605 120.77 52.5012 120.859 52.2118 121.036C51.9318 121.213 51.7125 121.447 51.5538 121.736C51.4045 122.016 51.3158 122.324 51.2878 122.66ZM61.3989 127.084C60.6242 127.084 59.9756 126.925 59.4529 126.608C58.9302 126.291 58.5336 125.852 58.2629 125.292C58.0016 124.723 57.8709 124.069 57.8709 123.332C57.8709 122.585 58.0062 121.927 58.2769 121.358C58.5569 120.789 58.9582 120.341 59.4809 120.014C60.0129 119.687 60.6522 119.524 61.3989 119.524C61.9682 119.524 62.4629 119.631 62.8829 119.846C63.3029 120.051 63.6482 120.331 63.9189 120.686C64.1989 121.041 64.4042 121.437 64.5349 121.876C64.6656 122.305 64.7216 122.753 64.7029 123.22C64.7029 123.323 64.6982 123.421 64.6889 123.514C64.6796 123.607 64.6702 123.705 64.6609 123.808H59.3269C59.3549 124.181 59.4482 124.522 59.6069 124.83C59.7749 125.138 60.0082 125.385 60.3069 125.572C60.6056 125.749 60.9742 125.838 61.4129 125.838C61.6556 125.838 61.8889 125.81 62.1129 125.754C62.3462 125.689 62.5516 125.591 62.7289 125.46C62.9156 125.32 63.0462 125.143 63.1209 124.928H64.5769C64.4556 125.423 64.2362 125.833 63.9189 126.16C63.6109 126.477 63.2329 126.711 62.7849 126.86C62.3462 127.009 61.8842 127.084 61.3989 127.084ZM59.3549 122.66H63.2749C63.2656 122.296 63.1816 121.974 63.0229 121.694C62.8642 121.405 62.6449 121.181 62.3649 121.022C62.0849 120.854 61.7489 120.77 61.3569 120.77C60.9276 120.77 60.5682 120.859 60.2789 121.036C59.9989 121.213 59.7796 121.447 59.6209 121.736C59.4716 122.016 59.3829 122.324 59.3549 122.66ZM70.3677 127V117.102H74.1757C74.7077 117.102 75.1931 117.158 75.6317 117.27C76.0704 117.373 76.4531 117.545 76.7797 117.788C77.1064 118.021 77.3584 118.339 77.5357 118.74C77.7131 119.141 77.8017 119.636 77.8017 120.224C77.8017 120.756 77.7084 121.213 77.5218 121.596C77.3351 121.979 77.0784 122.296 76.7517 122.548C76.4251 122.8 76.0564 122.991 75.6457 123.122L77.7597 127H76.1217L74.1617 123.36H71.8517V127H70.3677ZM71.8517 122.03H73.8677C74.2037 122.03 74.5164 122.007 74.8057 121.96C75.1044 121.904 75.3657 121.811 75.5897 121.68C75.8137 121.54 75.9864 121.353 76.1077 121.12C76.2384 120.877 76.3037 120.569 76.3037 120.196C76.3131 119.767 76.2291 119.426 76.0517 119.174C75.8837 118.913 75.6317 118.731 75.2957 118.628C74.9597 118.516 74.5537 118.46 74.0777 118.46H71.8517V122.03ZM82.5786 127.084C81.8039 127.084 81.1553 126.925 80.6326 126.608C80.1099 126.291 79.7133 125.852 79.4426 125.292C79.1813 124.723 79.0506 124.069 79.0506 123.332C79.0506 122.585 79.1859 121.927 79.4566 121.358C79.7366 120.789 80.1379 120.341 80.6606 120.014C81.1926 119.687 81.8319 119.524 82.5786 119.524C83.1479 119.524 83.6426 119.631 84.0626 119.846C84.4826 120.051 84.8279 120.331 85.0986 120.686C85.3786 121.041 85.5839 121.437 85.7146 121.876C85.8453 122.305 85.9013 122.753 85.8826 123.22C85.8826 123.323 85.8779 123.421 85.8686 123.514C85.8593 123.607 85.8499 123.705 85.8406 123.808H80.5066C80.5346 124.181 80.6279 124.522 80.7866 124.83C80.9546 125.138 81.1879 125.385 81.4866 125.572C81.7853 125.749 82.1539 125.838 82.5926 125.838C82.8353 125.838 83.0686 125.81 83.2926 125.754C83.5259 125.689 83.7313 125.591 83.9086 125.46C84.0953 125.32 84.2259 125.143 84.3006 124.928H85.7566C85.6353 125.423 85.4159 125.833 85.0986 126.16C84.7906 126.477 84.4126 126.711 83.9646 126.86C83.5259 127.009 83.0639 127.084 82.5786 127.084ZM80.5346 122.66H84.4546C84.4453 122.296 84.3613 121.974 84.2026 121.694C84.0439 121.405 83.8246 121.181 83.5446 121.022C83.2646 120.854 82.9286 120.77 82.5366 120.77C82.1073 120.77 81.7479 120.859 81.4586 121.036C81.1786 121.213 80.9593 121.447 80.8006 121.736C80.6513 122.016 80.5626 122.324 80.5346 122.66ZM87.3977 129.688V119.622H88.7697L88.8397 120.672C89.101 120.289 89.4417 120.005 89.8617 119.818C90.2817 119.622 90.739 119.524 91.2337 119.524C91.971 119.524 92.5777 119.692 93.0537 120.028C93.5297 120.355 93.8843 120.807 94.1177 121.386C94.351 121.955 94.4677 122.595 94.4677 123.304C94.4677 124.032 94.3463 124.681 94.1037 125.25C93.8703 125.819 93.5063 126.267 93.0117 126.594C92.5263 126.921 91.9103 127.084 91.1637 127.084C90.809 127.084 90.4823 127.047 90.1837 126.972C89.8943 126.897 89.6377 126.79 89.4137 126.65C89.199 126.501 89.0077 126.328 88.8397 126.132V129.688H87.3977ZM90.9817 125.796C91.4857 125.796 91.887 125.684 92.1857 125.46C92.4843 125.227 92.699 124.923 92.8297 124.55C92.9603 124.177 93.0257 123.771 93.0257 123.332C93.0257 122.875 92.9557 122.459 92.8157 122.086C92.685 121.703 92.4657 121.4 92.1577 121.176C91.859 120.943 91.4577 120.826 90.9537 120.826C90.4963 120.826 90.109 120.943 89.7917 121.176C89.4743 121.4 89.2317 121.703 89.0637 122.086C88.905 122.469 88.8257 122.884 88.8257 123.332C88.8257 123.789 88.9003 124.209 89.0497 124.592C89.2083 124.965 89.4463 125.259 89.7637 125.474C90.0903 125.689 90.4963 125.796 90.9817 125.796ZM99.2742 127.084C98.5089 127.084 97.8602 126.93 97.3282 126.622C96.7962 126.305 96.3902 125.861 96.1102 125.292C95.8396 124.723 95.7042 124.065 95.7042 123.318C95.7042 122.562 95.8442 121.904 96.1242 121.344C96.4042 120.775 96.8102 120.331 97.3422 120.014C97.8742 119.687 98.5229 119.524 99.2882 119.524C100.054 119.524 100.702 119.687 101.234 120.014C101.766 120.331 102.168 120.775 102.438 121.344C102.709 121.913 102.844 122.576 102.844 123.332C102.844 124.069 102.704 124.723 102.424 125.292C102.154 125.861 101.752 126.305 101.22 126.622C100.698 126.93 100.049 127.084 99.2742 127.084ZM99.2742 125.796C99.7782 125.796 100.184 125.684 100.492 125.46C100.81 125.236 101.043 124.937 101.192 124.564C101.342 124.181 101.416 123.766 101.416 123.318C101.416 122.87 101.342 122.459 101.192 122.086C101.043 121.713 100.81 121.414 100.492 121.19C100.184 120.957 99.7782 120.84 99.2742 120.84C98.7796 120.84 98.3736 120.957 98.0562 121.19C97.7389 121.414 97.5056 121.713 97.3562 122.086C97.2162 122.459 97.1462 122.87 97.1462 123.318C97.1462 123.775 97.2162 124.191 97.3562 124.564C97.5056 124.937 97.7389 125.236 98.0562 125.46C98.3736 125.684 98.7796 125.796 99.2742 125.796ZM104.352 127V119.622H105.71L105.78 120.686C105.967 120.397 106.181 120.168 106.424 120C106.667 119.832 106.933 119.711 107.222 119.636C107.511 119.561 107.815 119.524 108.132 119.524C108.216 119.524 108.295 119.524 108.37 119.524C108.445 119.524 108.515 119.524 108.58 119.524V120.91H108.132C107.6 120.91 107.157 121.017 106.802 121.232C106.457 121.447 106.2 121.745 106.032 122.128C105.873 122.511 105.794 122.949 105.794 123.444V127H104.352ZM113.23 127C112.652 127 112.18 126.921 111.816 126.762C111.452 126.594 111.182 126.333 111.004 125.978C110.836 125.623 110.752 125.161 110.752 124.592V120.91H109.59V119.622H110.752V117.494H112.194V119.622H114.056V120.91H112.194V124.41C112.194 124.849 112.274 125.18 112.432 125.404C112.591 125.619 112.922 125.726 113.426 125.726H114V127H113.23Z" fill="#030E09"/>
<path opacity="0.5" d="M125.668 121.5C125.535 121.5 125.408 121.553 125.314 121.646C125.221 121.74 125.168 121.867 125.168 122C125.168 122.133 125.221 122.26 125.314 122.354C125.408 122.447 125.535 122.5 125.668 122.5V121.5ZM125.668 122.5H136.335V121.5H125.668V122.5Z" fill="#030E09"/>
<path d="M132.336 118L136.336 122L132.336 126" stroke="#030E09" stroke-linecap="round" stroke-linejoin="round"/>
<rect x="300" y="24" width="48" height="48" rx="8" fill="#93D973" fill-opacity="0.15"/>
<path d="M315.796 50.97C316.333 53.657 316.602 55 317.489 55.865C317.653 56.025 317.83 56.1697 318.019 56.299C319.042 57 320.412 57 323.152 57H324.855C327.594 57 328.963 57 329.985 56.3C330.175 56.1693 330.351 56.0243 330.515 55.865C331.403 55 331.672 53.657 332.209 50.971C332.98 47.115 333.366 45.187 332.478 43.821C332.317 43.5734 332.129 43.3443 331.918 43.138C330.752 42 328.787 42 324.855 42H323.152C319.218 42 317.252 42 316.086 43.138C315.875 43.3443 315.687 43.5734 315.527 43.821C314.639 45.187 315.025 47.115 315.797 50.971L315.796 50.97Z" stroke="#70C748" stroke-width="1.5"/>
<path opacity="0.5" d="M327 45.5C327.276 45.5 327.5 45.7239 327.5 46C327.5 46.2761 327.276 46.5 327 46.5C326.724 46.5 326.5 46.2761 326.5 46C326.5 45.7239 326.724 45.5 327 45.5Z" fill="#70C748" stroke="#70C748"/>
<path opacity="0.5" d="M321 47C321.552 47 322 46.5523 322 46C322 45.4477 321.552 45 321 45C320.448 45 320 45.4477 320 46C320 46.5523 320.448 47 321 47Z" fill="#70C748"/>
<path opacity="0.5" d="M321 42V41C321 40.2044 321.316 39.4413 321.879 38.8787C322.441 38.3161 323.204 38 324 38C324.796 38 325.559 38.3161 326.121 38.8787C326.684 39.4413 327 40.2044 327 41V42" stroke="#70C748" stroke-width="1.5" stroke-linecap="round"/>
</g>
<rect x="0.5" y="0.5" width="371" height="163" rx="15.5" stroke="#030E09" stroke-opacity="0.05"/>
<defs>
<clipPath id="clip0_117_5502">
<rect width="372" height="164" rx="16" fill="white"/>
</clipPath>
</defs>
</svg>
