<svg width="273" height="200" viewBox="0 0 273 200" fill="none" xmlns="http://www.w3.org/2000/svg">
<rect width="273" height="200" rx="12" fill="#C2FD75"/>
<path d="M25.422 42V29.274H30.444C31.092 29.274 31.704 29.34 32.28 29.472C32.856 29.592 33.366 29.808 33.81 30.12C34.254 30.42 34.602 30.834 34.854 31.362C35.106 31.89 35.232 32.544 35.232 33.324C35.232 33.972 35.118 34.542 34.89 35.034C34.662 35.526 34.344 35.94 33.936 36.276C33.54 36.612 33.066 36.87 32.514 37.05L35.304 42H32.784L30.282 37.41H27.672V42H25.422ZM27.672 35.412H30.138C30.546 35.412 30.918 35.382 31.254 35.322C31.602 35.25 31.902 35.136 32.154 34.98C32.418 34.824 32.616 34.614 32.748 34.35C32.892 34.074 32.97 33.726 32.982 33.306C32.982 32.802 32.874 32.406 32.658 32.118C32.454 31.83 32.154 31.626 31.758 31.506C31.374 31.386 30.912 31.326 30.372 31.326H27.672V35.412ZM41.387 42.126C40.403 42.126 39.563 41.922 38.867 41.514C38.183 41.106 37.661 40.542 37.301 39.822C36.953 39.09 36.779 38.244 36.779 37.284C36.779 36.324 36.959 35.478 37.319 34.746C37.691 34.002 38.219 33.42 38.903 33C39.599 32.58 40.433 32.37 41.405 32.37C42.125 32.37 42.755 32.502 43.295 32.766C43.835 33.018 44.285 33.366 44.645 33.81C45.017 34.254 45.293 34.758 45.473 35.322C45.653 35.886 45.737 36.48 45.725 37.104C45.713 37.248 45.701 37.392 45.689 37.536C45.677 37.668 45.659 37.812 45.635 37.968H38.975C39.011 38.388 39.119 38.772 39.299 39.12C39.491 39.468 39.755 39.744 40.091 39.948C40.439 40.152 40.871 40.254 41.387 40.254C41.687 40.254 41.975 40.218 42.251 40.146C42.527 40.062 42.767 39.942 42.971 39.786C43.187 39.63 43.331 39.432 43.403 39.192H45.599C45.443 39.876 45.155 40.434 44.735 40.866C44.315 41.298 43.811 41.616 43.223 41.82C42.647 42.024 42.035 42.126 41.387 42.126ZM39.011 36.33H43.583C43.583 35.934 43.493 35.574 43.313 35.25C43.133 34.926 42.875 34.674 42.539 34.494C42.215 34.302 41.819 34.206 41.351 34.206C40.847 34.206 40.427 34.308 40.091 34.512C39.755 34.716 39.497 34.98 39.317 35.304C39.137 35.628 39.035 35.97 39.011 36.33ZM49.923 42L46.485 32.514H48.915L51.417 40.128L53.901 32.514H56.313L52.875 42H49.923ZM61.6914 42.126C60.7074 42.126 59.8674 41.922 59.1714 41.514C58.4874 41.106 57.9654 40.542 57.6054 39.822C57.2574 39.09 57.0834 38.244 57.0834 37.284C57.0834 36.324 57.2634 35.478 57.6234 34.746C57.9954 34.002 58.5234 33.42 59.2074 33C59.9034 32.58 60.7374 32.37 61.7094 32.37C62.4294 32.37 63.0594 32.502 63.5994 32.766C64.1394 33.018 64.5894 33.366 64.9494 33.81C65.3214 34.254 65.5974 34.758 65.7774 35.322C65.9574 35.886 66.0414 36.48 66.0294 37.104C66.0174 37.248 66.0054 37.392 65.9934 37.536C65.9814 37.668 65.9634 37.812 65.9394 37.968H59.2794C59.3154 38.388 59.4234 38.772 59.6034 39.12C59.7954 39.468 60.0594 39.744 60.3954 39.948C60.7434 40.152 61.1754 40.254 61.6914 40.254C61.9914 40.254 62.2794 40.218 62.5554 40.146C62.8314 40.062 63.0714 39.942 63.2754 39.786C63.4914 39.63 63.6354 39.432 63.7074 39.192H65.9034C65.7474 39.876 65.4594 40.434 65.0394 40.866C64.6194 41.298 64.1154 41.616 63.5274 41.82C62.9514 42.024 62.3394 42.126 61.6914 42.126ZM59.3154 36.33H63.8874C63.8874 35.934 63.7974 35.574 63.6174 35.25C63.4374 34.926 63.1794 34.674 62.8434 34.494C62.5194 34.302 62.1234 34.206 61.6554 34.206C61.1514 34.206 60.7314 34.308 60.3954 34.512C60.0594 34.716 59.8014 34.98 59.6214 35.304C59.4414 35.628 59.3394 35.97 59.3154 36.33ZM67.8154 42V32.514H69.8674L69.9934 33.72C70.2454 33.384 70.5394 33.12 70.8754 32.928C71.2114 32.736 71.5654 32.598 71.9374 32.514C72.3094 32.418 72.6574 32.37 72.9814 32.37C73.8814 32.37 74.5894 32.568 75.1054 32.964C75.6334 33.36 76.0054 33.888 76.2214 34.548C76.4374 35.208 76.5454 35.946 76.5454 36.762V42H74.3494V37.122C74.3494 36.774 74.3254 36.438 74.2774 36.114C74.2294 35.778 74.1334 35.478 73.9894 35.214C73.8574 34.95 73.6654 34.74 73.4134 34.584C73.1614 34.428 72.8254 34.35 72.4054 34.35C71.8894 34.35 71.4514 34.488 71.0914 34.764C70.7314 35.04 70.4614 35.412 70.2814 35.88C70.1014 36.336 70.0114 36.858 70.0114 37.446V42H67.8154ZM82.8383 42.126C81.4703 42.126 80.4203 41.772 79.6883 41.064C78.9683 40.356 78.6083 39.276 78.6083 37.824V32.514H80.8043V37.68C80.8043 38.184 80.8703 38.622 81.0023 38.994C81.1463 39.366 81.3683 39.654 81.6683 39.858C81.9803 40.05 82.3703 40.146 82.8383 40.146C83.3423 40.146 83.7383 40.044 84.0263 39.84C84.3263 39.624 84.5363 39.33 84.6563 38.958C84.7763 38.586 84.8363 38.16 84.8363 37.68V32.514H87.0323V37.824C87.0323 39.312 86.6603 40.404 85.9163 41.1C85.1843 41.784 84.1583 42.126 82.8383 42.126ZM93.4049 42.126C92.4209 42.126 91.5809 41.922 90.8849 41.514C90.2009 41.106 89.6789 40.542 89.3189 39.822C88.9709 39.09 88.7969 38.244 88.7969 37.284C88.7969 36.324 88.9769 35.478 89.3369 34.746C89.7089 34.002 90.2369 33.42 90.9209 33C91.6169 32.58 92.4509 32.37 93.4229 32.37C94.1429 32.37 94.7729 32.502 95.3129 32.766C95.8529 33.018 96.3029 33.366 96.6629 33.81C97.0349 34.254 97.3109 34.758 97.4909 35.322C97.6709 35.886 97.7549 36.48 97.7429 37.104C97.7309 37.248 97.7189 37.392 97.7069 37.536C97.6949 37.668 97.6769 37.812 97.6529 37.968H90.9929C91.0289 38.388 91.1369 38.772 91.3169 39.12C91.5089 39.468 91.7729 39.744 92.1089 39.948C92.4569 40.152 92.8889 40.254 93.4049 40.254C93.7049 40.254 93.9929 40.218 94.2689 40.146C94.5449 40.062 94.7849 39.942 94.9889 39.786C95.2049 39.63 95.3489 39.432 95.4209 39.192H97.6169C97.4609 39.876 97.1729 40.434 96.7529 40.866C96.3329 41.298 95.8289 41.616 95.2409 41.82C94.6649 42.024 94.0529 42.126 93.4049 42.126ZM91.0289 36.33H95.6009C95.6009 35.934 95.5109 35.574 95.3309 35.25C95.1509 34.926 94.8929 34.674 94.5569 34.494C94.2329 34.302 93.8369 34.206 93.3689 34.206C92.8649 34.206 92.4449 34.308 92.1089 34.512C91.7729 34.716 91.5149 34.98 91.3349 35.304C91.1549 35.628 91.0529 35.97 91.0289 36.33ZM30.75 67.144C29.454 67.144 28.356 66.874 27.456 66.334C26.556 65.782 25.872 65.02 25.404 64.048C24.948 63.064 24.72 61.93 24.72 60.646C24.72 59.674 24.846 58.792 25.098 58C25.362 57.208 25.746 56.524 26.25 55.948C26.766 55.36 27.396 54.91 28.14 54.598C28.884 54.274 29.742 54.112 30.714 54.112C31.662 54.112 32.508 54.268 33.252 54.58C34.008 54.88 34.626 55.324 35.106 55.912C35.598 56.5 35.928 57.22 36.096 58.072H33.774C33.678 57.664 33.492 57.322 33.216 57.046C32.952 56.77 32.616 56.56 32.208 56.416C31.8 56.272 31.332 56.2 30.804 56.2C30.12 56.2 29.538 56.32 29.058 56.56C28.578 56.8 28.188 57.13 27.888 57.55C27.588 57.958 27.366 58.432 27.222 58.972C27.09 59.5 27.024 60.064 27.024 60.664C27.024 61.444 27.15 62.17 27.402 62.842C27.666 63.514 28.074 64.054 28.626 64.462C29.19 64.858 29.922 65.056 30.822 65.056C31.458 65.056 32.016 64.948 32.496 64.732C32.988 64.516 33.372 64.204 33.648 63.796C33.936 63.376 34.092 62.86 34.116 62.248H30.408V60.304H36.384V61.132C36.384 62.368 36.168 63.436 35.736 64.336C35.304 65.236 34.668 65.932 33.828 66.424C33 66.904 31.974 67.144 30.75 67.144ZM38.1937 67V57.514H40.1917L40.3177 58.756C40.5577 58.396 40.8277 58.12 41.1277 57.928C41.4397 57.724 41.7697 57.58 42.1177 57.496C42.4777 57.412 42.8377 57.37 43.1977 57.37C43.3297 57.37 43.4497 57.37 43.5577 57.37C43.6777 57.37 43.7737 57.376 43.8457 57.388V59.476H43.2697C42.6457 59.476 42.1177 59.596 41.6857 59.836C41.2537 60.076 40.9297 60.418 40.7137 60.862C40.4977 61.306 40.3897 61.852 40.3897 62.5V67H38.1937ZM49.3353 67.126C48.3633 67.126 47.5233 66.928 46.8153 66.532C46.1193 66.136 45.5793 65.572 45.1953 64.84C44.8233 64.108 44.6373 63.25 44.6373 62.266C44.6373 61.27 44.8293 60.412 45.2133 59.692C45.5973 58.96 46.1373 58.39 46.8333 57.982C47.5293 57.574 48.3633 57.37 49.3353 57.37C50.2953 57.37 51.1233 57.574 51.8193 57.982C52.5153 58.39 53.0493 58.966 53.4213 59.71C53.7933 60.442 53.9793 61.306 53.9793 62.302C53.9793 63.274 53.7933 64.126 53.4213 64.858C53.0613 65.578 52.5333 66.136 51.8373 66.532C51.1413 66.928 50.3073 67.126 49.3353 67.126ZM49.3173 65.128C49.9173 65.128 50.3973 64.996 50.7573 64.732C51.1293 64.468 51.3993 64.12 51.5673 63.688C51.7353 63.256 51.8193 62.788 51.8193 62.284C51.8193 61.78 51.7353 61.306 51.5673 60.862C51.3993 60.418 51.1293 60.064 50.7573 59.8C50.3973 59.524 49.9173 59.386 49.3173 59.386C48.7173 59.386 48.2313 59.524 47.8593 59.8C47.4873 60.064 47.2173 60.418 47.0493 60.862C46.8813 61.294 46.7973 61.768 46.7973 62.284C46.7973 62.788 46.8813 63.262 47.0493 63.706C47.2293 64.138 47.4993 64.486 47.8593 64.75C48.2313 65.002 48.7173 65.128 49.3173 65.128ZM57.7715 67L54.8015 57.514H57.2315L59.1395 64.588L61.1735 57.514H63.7655L65.7995 64.588L67.6895 57.514H70.0835L67.1135 67H64.4855L62.4335 60.16L60.3995 67H57.7715ZM75.4183 67C74.6503 67 74.0143 66.898 73.5103 66.694C73.0183 66.49 72.6463 66.16 72.3943 65.704C72.1543 65.248 72.0343 64.636 72.0343 63.868V59.458H70.5763V57.514H72.0343V54.868H74.2303V57.514H76.4443V59.458H74.2303V63.58C74.2303 64.06 74.3143 64.426 74.4823 64.678C74.6503 64.93 75.0283 65.056 75.6163 65.056H76.3723V67H75.4183ZM77.9412 67V54.274H80.1372V58.738C80.3892 58.414 80.6832 58.15 81.0192 57.946C81.3552 57.742 81.7092 57.598 82.0812 57.514C82.4532 57.418 82.8072 57.37 83.1432 57.37C84.0432 57.37 84.7512 57.568 85.2672 57.964C85.7832 58.36 86.1432 58.888 86.3472 59.548C86.5632 60.208 86.6712 60.952 86.6712 61.78V67H84.4752V62.158C84.4752 61.834 84.4512 61.504 84.4032 61.168C84.3552 60.832 84.2592 60.532 84.1152 60.268C83.9832 59.992 83.7792 59.77 83.5032 59.602C83.2392 59.434 82.8852 59.35 82.4412 59.35C82.0212 59.35 81.6612 59.44 81.3612 59.62C81.0612 59.788 80.8212 60.022 80.6412 60.322C80.4732 60.622 80.3472 60.952 80.2632 61.312C80.1792 61.672 80.1372 62.032 80.1372 62.392V67H77.9412Z" fill="#030E09"/>
<rect x="209" y="24" width="40" height="40" rx="20" fill="#053B25"/>
<path opacity="0.5" d="M237.335 52.3327H229.001C225.073 52.3327 223.109 52.3327 221.888 51.1118C220.668 49.8927 220.668 47.9277 220.668 43.9993V35.666" stroke="#C2FD75" stroke-width="1.25" stroke-linecap="round"/>
<path d="M234.833 39.832L232.235 43.1037C231.837 43.6054 231.638 43.8562 231.41 43.9787C231.237 44.0713 231.044 44.1218 230.847 44.126C230.651 44.1302 230.456 44.088 230.279 44.0029C230.046 43.8904 229.837 43.6487 229.417 43.1654C228.997 42.682 228.788 42.4404 228.554 42.3279C228.377 42.243 228.183 42.201 227.986 42.2053C227.79 42.2097 227.597 42.2602 227.424 42.3529C227.196 42.4745 226.997 42.7254 226.599 43.2262L224 46.4987" stroke="#C2FD75" stroke-width="1.25" stroke-linecap="round"/>
<path d="M31.488 139.488V134.336H26.592V130.848H31.488V125.728H35.008V130.848H39.936V134.336H35.008V139.488H31.488ZM43.332 144V140.704L49.636 135.392C50.148 134.965 50.7133 134.496 51.332 133.984C51.9507 133.472 52.5373 132.917 53.092 132.32C53.668 131.701 54.148 131.061 54.532 130.4C54.916 129.739 55.108 129.045 55.108 128.32C55.108 127.232 54.7773 126.379 54.116 125.76C53.476 125.141 52.5587 124.832 51.364 124.832C50.3187 124.832 49.4653 125.056 48.804 125.504C48.1427 125.952 47.7267 126.56 47.556 127.328H43.62C43.7693 125.899 44.228 124.736 44.996 123.84C45.7853 122.923 46.756 122.24 47.908 121.792C49.06 121.323 50.2653 121.088 51.524 121.088C52.9533 121.088 54.2333 121.355 55.364 121.888C56.4947 122.4 57.3907 123.168 58.052 124.192C58.7347 125.195 59.076 126.421 59.076 127.872C59.076 129.173 58.82 130.347 58.308 131.392C57.8173 132.437 57.1453 133.397 56.292 134.272C55.46 135.125 54.5427 135.968 53.54 136.8L49.22 140.352H59.14V144H43.332ZM72.8357 144V139.712H61.0597V136.704L71.7477 121.376H76.7717V136.096H79.3637V139.712H76.7717V144H72.8357ZM65.6677 136.096H72.8357V125.568L65.6677 136.096ZM84.7963 144L99.2923 121.376H103.292L88.8923 144H84.7963ZM101.052 144.224C99.9856 144.224 99.0576 144 98.2683 143.552C97.5003 143.083 96.8923 142.443 96.4443 141.632C96.0176 140.821 95.8043 139.893 95.8043 138.848C95.8043 137.76 96.0176 136.811 96.4443 136C96.8923 135.189 97.5109 134.56 98.3003 134.112C99.0896 133.664 100.018 133.44 101.084 133.44C102.13 133.44 103.026 133.664 103.772 134.112C104.54 134.539 105.138 135.157 105.564 135.968C105.991 136.757 106.204 137.696 106.204 138.784C106.204 139.872 105.98 140.821 105.532 141.632C105.106 142.443 104.508 143.083 103.74 143.552C102.972 144 102.076 144.224 101.052 144.224ZM101.02 141.216C101.532 141.216 101.938 141.109 102.236 140.896C102.556 140.661 102.78 140.363 102.908 140C103.036 139.637 103.1 139.253 103.1 138.848C103.1 138.443 103.026 138.059 102.876 137.696C102.748 137.333 102.535 137.045 102.236 136.832C101.938 136.597 101.532 136.48 101.02 136.48C100.252 136.48 99.6976 136.725 99.3563 137.216C99.0149 137.707 98.8549 138.261 98.8763 138.88C98.8763 139.499 99.0469 140.043 99.3883 140.512C99.7296 140.981 100.274 141.216 101.02 141.216ZM87.1643 131.872C86.0976 131.872 85.1696 131.648 84.3803 131.2C83.6123 130.731 83.0149 130.091 82.5883 129.28C82.1829 128.469 81.9803 127.541 81.9803 126.496C81.9803 125.408 82.1936 124.459 82.6203 123.648C83.0469 122.837 83.6549 122.208 84.4443 121.76C85.2336 121.312 86.1616 121.088 87.2283 121.088C88.2736 121.088 89.1803 121.312 89.9483 121.76C90.7163 122.187 91.3029 122.805 91.7083 123.616C92.1349 124.405 92.3483 125.344 92.3483 126.432C92.3483 127.499 92.1349 128.448 91.7083 129.28C91.2816 130.091 90.6843 130.731 89.9163 131.2C89.1483 131.648 88.2309 131.872 87.1643 131.872ZM87.1643 128.864C87.6763 128.864 88.0816 128.757 88.3803 128.544C88.6789 128.309 88.9029 128.011 89.0523 127.648C89.2016 127.264 89.2763 126.88 89.2763 126.496C89.2763 126.091 89.2016 125.707 89.0523 125.344C88.9029 124.981 88.6789 124.693 88.3803 124.48C88.0816 124.245 87.6763 124.128 87.1643 124.128C86.3963 124.128 85.8416 124.373 85.5003 124.864C85.1589 125.355 84.9883 125.899 84.9883 126.496C85.0096 127.115 85.1803 127.669 85.5003 128.16C85.8416 128.629 86.3963 128.864 87.1643 128.864Z" fill="#030E09"/>
<path d="M29.222 171.112C28.2047 171.112 27.3553 170.897 26.674 170.468C26.002 170.029 25.498 169.432 25.162 168.676C24.8353 167.911 24.672 167.038 24.672 166.058C24.672 165.087 24.84 164.224 25.176 163.468C25.512 162.703 26.016 162.101 26.688 161.662C27.3693 161.214 28.2233 160.99 29.25 160.99C29.978 160.99 30.6033 161.107 31.126 161.34C31.658 161.564 32.0873 161.877 32.414 162.278C32.7407 162.679 32.9647 163.151 33.086 163.692H31.854C31.714 163.207 31.4107 162.819 30.944 162.53C30.4867 162.241 29.908 162.096 29.208 162.096C28.424 162.096 27.7893 162.283 27.304 162.656C26.828 163.02 26.478 163.501 26.254 164.098C26.03 164.686 25.918 165.325 25.918 166.016C25.918 166.744 26.0347 167.411 26.268 168.018C26.5013 168.625 26.8653 169.11 27.36 169.474C27.8547 169.829 28.4847 170.006 29.25 170.006C29.7167 170.006 30.132 169.941 30.496 169.81C30.8693 169.679 31.1773 169.493 31.42 169.25C31.672 169.007 31.8447 168.727 31.938 168.41H33.268C33.128 168.951 32.876 169.427 32.512 169.838C32.1573 170.239 31.7047 170.552 31.154 170.776C30.6033 171 29.9593 171.112 29.222 171.112ZM38.0434 171.084C37.2688 171.084 36.6201 170.925 36.0974 170.608C35.5748 170.281 35.1828 169.833 34.9214 169.264C34.6694 168.695 34.5434 168.046 34.5434 167.318C34.5434 166.581 34.6741 165.932 34.9354 165.372C35.1968 164.803 35.5888 164.355 36.1114 164.028C36.6341 163.701 37.2874 163.538 38.0714 163.538C38.8461 163.538 39.4901 163.701 40.0034 164.028C40.5261 164.355 40.9134 164.803 41.1654 165.372C41.4268 165.932 41.5574 166.581 41.5574 167.318C41.5574 168.046 41.4268 168.695 41.1654 169.264C40.9041 169.833 40.5121 170.281 39.9894 170.608C39.4761 170.925 38.8274 171.084 38.0434 171.084ZM38.0434 170.034C38.5848 170.034 39.0234 169.913 39.3594 169.67C39.7048 169.427 39.9568 169.101 40.1154 168.69C40.2834 168.279 40.3674 167.822 40.3674 167.318C40.3674 166.814 40.2834 166.357 40.1154 165.946C39.9568 165.535 39.7048 165.209 39.3594 164.966C39.0234 164.723 38.5848 164.602 38.0434 164.602C37.5114 164.602 37.0728 164.723 36.7274 164.966C36.3914 165.209 36.1394 165.535 35.9714 165.946C35.8128 166.357 35.7334 166.814 35.7334 167.318C35.7334 167.822 35.8128 168.279 35.9714 168.69C36.1394 169.101 36.3914 169.427 36.7274 169.67C37.0728 169.913 37.5114 170.034 38.0434 170.034ZM43.1776 171V163.622H44.3256L44.3816 164.504C44.5403 164.28 44.7176 164.098 44.9136 163.958C45.1189 163.818 45.3429 163.715 45.5856 163.65C45.8376 163.575 46.1036 163.538 46.3836 163.538C46.8969 163.538 47.3123 163.65 47.6296 163.874C47.9469 164.089 48.1849 164.373 48.3436 164.728C48.5116 164.476 48.7029 164.261 48.9176 164.084C49.1416 163.907 49.3889 163.771 49.6596 163.678C49.9396 163.585 50.2476 163.538 50.5836 163.538C51.1249 163.538 51.5589 163.655 51.8856 163.888C52.2216 164.121 52.4643 164.439 52.6136 164.84C52.7629 165.232 52.8376 165.675 52.8376 166.17V171H51.6476V166.772C51.6476 166.529 51.6336 166.282 51.6056 166.03C51.5869 165.778 51.5309 165.545 51.4376 165.33C51.3443 165.106 51.2043 164.929 51.0176 164.798C50.8403 164.658 50.5883 164.588 50.2616 164.588C49.9536 164.588 49.6923 164.663 49.4776 164.812C49.2723 164.952 49.1043 165.143 48.9736 165.386C48.8429 165.629 48.7496 165.89 48.6936 166.17C48.6376 166.441 48.6096 166.711 48.6096 166.982V171H47.4196V166.758C47.4196 166.525 47.4056 166.282 47.3776 166.03C47.3589 165.778 47.3076 165.545 47.2236 165.33C47.1489 165.106 47.0183 164.929 46.8316 164.798C46.6543 164.658 46.4069 164.588 46.0896 164.588C45.6416 164.588 45.2916 164.719 45.0396 164.98C44.7876 165.232 44.6103 165.545 44.5076 165.918C44.4143 166.282 44.3676 166.641 44.3676 166.996V171H43.1776ZM54.6763 173.66V163.622H55.8103L55.8663 164.728C56.1183 164.345 56.459 164.051 56.8883 163.846C57.327 163.641 57.7983 163.538 58.3023 163.538C59.049 163.538 59.6603 163.706 60.1363 164.042C60.6123 164.369 60.9623 164.817 61.1863 165.386C61.4196 165.955 61.5363 166.599 61.5363 167.318C61.5363 168.037 61.4196 168.681 61.1863 169.25C60.953 169.819 60.5936 170.267 60.1083 170.594C59.623 170.921 59.0023 171.084 58.2463 171.084C57.873 171.084 57.537 171.047 57.2383 170.972C56.9396 170.888 56.6783 170.771 56.4543 170.622C56.2303 170.463 56.0343 170.281 55.8663 170.076V173.66H54.6763ZM58.1483 170.034C58.6896 170.034 59.119 169.913 59.4363 169.67C59.7536 169.418 59.9823 169.087 60.1223 168.676C60.2716 168.265 60.3463 167.813 60.3463 167.318C60.3463 166.814 60.2716 166.357 60.1223 165.946C59.9823 165.535 59.749 165.209 59.4223 164.966C59.0956 164.723 58.6616 164.602 58.1203 164.602C57.635 164.602 57.2196 164.728 56.8743 164.98C56.5383 165.223 56.2816 165.554 56.1043 165.974C55.927 166.385 55.8383 166.837 55.8383 167.332C55.8383 167.845 55.9223 168.307 56.0903 168.718C56.2583 169.129 56.515 169.451 56.8603 169.684C57.2056 169.917 57.635 170.034 58.1483 170.034ZM65.5195 171.084C65.1835 171.084 64.8568 171.042 64.5395 170.958C64.2315 170.865 63.9515 170.729 63.6995 170.552C63.4568 170.365 63.2608 170.137 63.1115 169.866C62.9715 169.586 62.9015 169.264 62.9015 168.9C62.9015 168.48 62.9762 168.125 63.1255 167.836C63.2842 167.547 63.4942 167.318 63.7555 167.15C64.0168 166.982 64.3202 166.861 64.6655 166.786C65.0108 166.711 65.3702 166.674 65.7435 166.674H67.9135C67.9135 166.254 67.8528 165.89 67.7315 165.582C67.6195 165.274 67.4328 165.036 67.1715 164.868C66.9102 164.691 66.5648 164.602 66.1355 164.602C65.8742 164.602 65.6315 164.63 65.4075 164.686C65.1835 164.742 64.9922 164.831 64.8335 164.952C64.6748 165.073 64.5582 165.237 64.4835 165.442H63.2095C63.2748 165.106 63.4008 164.821 63.5875 164.588C63.7835 164.345 64.0168 164.149 64.2875 164C64.5675 163.841 64.8662 163.725 65.1835 163.65C65.5008 163.575 65.8182 163.538 66.1355 163.538C67.1995 163.538 67.9555 163.851 68.4035 164.476C68.8515 165.101 69.0755 165.946 69.0755 167.01V171H68.0815L68.0115 170.062C67.8062 170.342 67.5588 170.557 67.2695 170.706C66.9802 170.855 66.6815 170.953 66.3735 171C66.0748 171.056 65.7902 171.084 65.5195 171.084ZM65.6315 170.034C66.0982 170.034 66.4995 169.959 66.8355 169.81C67.1808 169.651 67.4468 169.423 67.6335 169.124C67.8202 168.825 67.9135 168.461 67.9135 168.032V167.668H66.6115C66.3035 167.668 66.0002 167.673 65.7015 167.682C65.4028 167.691 65.1322 167.729 64.8895 167.794C64.6468 167.859 64.4508 167.971 64.3015 168.13C64.1615 168.289 64.0915 168.517 64.0915 168.816C64.0915 169.096 64.1615 169.325 64.3015 169.502C64.4508 169.679 64.6422 169.815 64.8755 169.908C65.1182 169.992 65.3702 170.034 65.6315 170.034ZM70.9471 171V163.622H72.0951L72.1511 164.77C72.3378 164.481 72.5525 164.247 72.7951 164.07C73.0471 163.893 73.3225 163.762 73.6211 163.678C73.9291 163.585 74.2605 163.538 74.6151 163.538C74.6805 163.538 74.7411 163.538 74.7971 163.538C74.8625 163.538 74.9278 163.538 74.9931 163.538V164.658H74.5591C73.9805 164.658 73.5091 164.784 73.1451 165.036C72.7905 165.279 72.5338 165.61 72.3751 166.03C72.2165 166.441 72.1371 166.898 72.1371 167.402V171H70.9471ZM79.2531 171.084C78.4691 171.084 77.8204 170.925 77.3071 170.608C76.7937 170.281 76.4111 169.833 76.1591 169.264C75.9071 168.695 75.7811 168.046 75.7811 167.318C75.7811 166.581 75.9117 165.932 76.1731 165.372C76.4437 164.803 76.8357 164.355 77.3491 164.028C77.8624 163.701 78.4924 163.538 79.2391 163.538C79.8177 163.538 80.3124 163.65 80.7231 163.874C81.1431 164.089 81.4884 164.378 81.7591 164.742C82.0297 165.106 82.2257 165.507 82.3471 165.946C82.4684 166.375 82.5197 166.809 82.5011 167.248C82.4917 167.332 82.4824 167.416 82.4731 167.5C82.4731 167.584 82.4684 167.668 82.4591 167.752H76.9851C77.0224 168.181 77.1297 168.569 77.3071 168.914C77.4844 169.259 77.7364 169.535 78.0631 169.74C78.3897 169.936 78.7957 170.034 79.2811 170.034C79.5237 170.034 79.7664 170.006 80.0091 169.95C80.2611 169.885 80.4851 169.777 80.6811 169.628C80.8864 169.479 81.0311 169.278 81.1151 169.026H82.3331C82.2211 169.502 82.0111 169.894 81.7031 170.202C81.3951 170.501 81.0264 170.725 80.5971 170.874C80.1677 171.014 79.7197 171.084 79.2531 171.084ZM77.0131 166.716H81.2831C81.2737 166.296 81.1804 165.927 81.0031 165.61C80.8257 165.293 80.5831 165.045 80.2751 164.868C79.9764 164.691 79.6171 164.602 79.1971 164.602C78.7397 164.602 78.3524 164.7 78.0351 164.896C77.7271 165.092 77.4891 165.349 77.3211 165.666C77.1531 165.983 77.0504 166.333 77.0131 166.716ZM87.0685 171.084C86.3311 171.084 85.7245 170.921 85.2485 170.594C84.7725 170.258 84.4178 169.81 84.1845 169.25C83.9511 168.681 83.8345 168.041 83.8345 167.332C83.8345 166.623 83.9511 165.983 84.1845 165.414C84.4178 164.835 84.7771 164.378 85.2625 164.042C85.7478 163.706 86.3685 163.538 87.1245 163.538C87.4138 163.538 87.7031 163.575 87.9925 163.65C88.2911 163.715 88.5711 163.823 88.8325 163.972C89.0938 164.112 89.3178 164.303 89.5045 164.546V161.102H90.6945V171H89.5605L89.5045 169.894C89.3365 170.174 89.1218 170.403 88.8605 170.58C88.6085 170.748 88.3285 170.874 88.0205 170.958C87.7125 171.042 87.3951 171.084 87.0685 171.084ZM87.2365 170.034C87.7311 170.034 88.1465 169.908 88.4825 169.656C88.8185 169.404 89.0751 169.068 89.2525 168.648C89.4298 168.228 89.5185 167.771 89.5185 167.276C89.5185 166.763 89.4298 166.305 89.2525 165.904C89.0845 165.503 88.8325 165.185 88.4965 164.952C88.1605 164.719 87.7358 164.602 87.2225 164.602C86.6905 164.602 86.2611 164.723 85.9345 164.966C85.6171 165.209 85.3838 165.54 85.2345 165.96C85.0945 166.371 85.0245 166.833 85.0245 167.346C85.0245 167.719 85.0618 168.069 85.1365 168.396C85.2205 168.713 85.3465 168.998 85.5145 169.25C85.6918 169.493 85.9205 169.684 86.2005 169.824C86.4805 169.964 86.8258 170.034 87.2365 170.034ZM99.1651 171.084C98.3905 171.084 97.8445 170.874 97.5271 170.454C97.2191 170.034 97.0651 169.437 97.0651 168.662V164.672H95.8611V163.622H97.0651V161.41H98.2551V163.622H100.523V164.672H98.2551V168.508C98.2551 168.788 98.2785 169.045 98.3251 169.278C98.3718 169.502 98.4698 169.684 98.6191 169.824C98.7685 169.955 98.9925 170.025 99.2911 170.034C99.5058 170.034 99.6925 169.997 99.8511 169.922C100.019 169.847 100.159 169.759 100.271 169.656L100.789 170.524C100.63 170.655 100.462 170.762 100.285 170.846C100.117 170.93 99.9398 170.991 99.7531 171.028C99.5758 171.065 99.3798 171.084 99.1651 171.084ZM105.192 171.084C104.417 171.084 103.769 170.925 103.246 170.608C102.723 170.281 102.331 169.833 102.07 169.264C101.818 168.695 101.692 168.046 101.692 167.318C101.692 166.581 101.823 165.932 102.084 165.372C102.345 164.803 102.737 164.355 103.26 164.028C103.783 163.701 104.436 163.538 105.22 163.538C105.995 163.538 106.639 163.701 107.152 164.028C107.675 164.355 108.062 164.803 108.314 165.372C108.575 165.932 108.706 166.581 108.706 167.318C108.706 168.046 108.575 168.695 108.314 169.264C108.053 169.833 107.661 170.281 107.138 170.608C106.625 170.925 105.976 171.084 105.192 171.084ZM105.192 170.034C105.733 170.034 106.172 169.913 106.508 169.67C106.853 169.427 107.105 169.101 107.264 168.69C107.432 168.279 107.516 167.822 107.516 167.318C107.516 166.814 107.432 166.357 107.264 165.946C107.105 165.535 106.853 165.209 106.508 164.966C106.172 164.723 105.733 164.602 105.192 164.602C104.66 164.602 104.221 164.723 103.876 164.966C103.54 165.209 103.288 165.535 103.12 165.946C102.961 166.357 102.882 166.814 102.882 167.318C102.882 167.822 102.961 168.279 103.12 168.69C103.288 169.101 103.54 169.427 103.876 169.67C104.221 169.913 104.66 170.034 105.192 170.034ZM114.408 171V161.102H115.626V169.894H121.058V171H114.408ZM124.697 171.084C124.361 171.084 124.035 171.042 123.717 170.958C123.409 170.865 123.129 170.729 122.877 170.552C122.635 170.365 122.439 170.137 122.289 169.866C122.149 169.586 122.079 169.264 122.079 168.9C122.079 168.48 122.154 168.125 122.303 167.836C122.462 167.547 122.672 167.318 122.933 167.15C123.195 166.982 123.498 166.861 123.843 166.786C124.189 166.711 124.548 166.674 124.921 166.674H127.091C127.091 166.254 127.031 165.89 126.909 165.582C126.797 165.274 126.611 165.036 126.349 164.868C126.088 164.691 125.743 164.602 125.313 164.602C125.052 164.602 124.809 164.63 124.585 164.686C124.361 164.742 124.17 164.831 124.011 164.952C123.853 165.073 123.736 165.237 123.661 165.442H122.387C122.453 165.106 122.579 164.821 122.765 164.588C122.961 164.345 123.195 164.149 123.465 164C123.745 163.841 124.044 163.725 124.361 163.65C124.679 163.575 124.996 163.538 125.313 163.538C126.377 163.538 127.133 163.851 127.581 164.476C128.029 165.101 128.253 165.946 128.253 167.01V171H127.259L127.189 170.062C126.984 170.342 126.737 170.557 126.447 170.706C126.158 170.855 125.859 170.953 125.551 171C125.253 171.056 124.968 171.084 124.697 171.084ZM124.809 170.034C125.276 170.034 125.677 169.959 126.013 169.81C126.359 169.651 126.625 169.423 126.811 169.124C126.998 168.825 127.091 168.461 127.091 168.032V167.668H125.789C125.481 167.668 125.178 167.673 124.879 167.682C124.581 167.691 124.31 167.729 124.067 167.794C123.825 167.859 123.629 167.971 123.479 168.13C123.339 168.289 123.269 168.517 123.269 168.816C123.269 169.096 123.339 169.325 123.479 169.502C123.629 169.679 123.82 169.815 124.053 169.908C124.296 169.992 124.548 170.034 124.809 170.034ZM132.813 171.084C132.477 171.084 132.136 171.051 131.791 170.986C131.455 170.921 131.138 170.809 130.839 170.65C130.55 170.491 130.307 170.277 130.111 170.006C129.915 169.735 129.789 169.399 129.733 168.998H130.937C131.03 169.25 131.18 169.455 131.385 169.614C131.6 169.763 131.838 169.871 132.099 169.936C132.37 170.001 132.626 170.034 132.869 170.034C133.018 170.034 133.191 170.025 133.387 170.006C133.583 169.987 133.77 169.945 133.947 169.88C134.134 169.805 134.283 169.698 134.395 169.558C134.516 169.418 134.577 169.222 134.577 168.97C134.577 168.783 134.535 168.629 134.451 168.508C134.367 168.387 134.25 168.289 134.101 168.214C133.952 168.13 133.77 168.069 133.555 168.032C133.116 167.939 132.645 167.85 132.141 167.766C131.646 167.682 131.208 167.523 130.825 167.29C130.694 167.206 130.573 167.113 130.461 167.01C130.358 166.898 130.27 166.777 130.195 166.646C130.12 166.506 130.06 166.357 130.013 166.198C129.976 166.03 129.957 165.848 129.957 165.652C129.957 165.288 130.027 164.975 130.167 164.714C130.316 164.443 130.522 164.224 130.783 164.056C131.044 163.879 131.343 163.748 131.679 163.664C132.024 163.58 132.393 163.538 132.785 163.538C133.27 163.538 133.704 163.617 134.087 163.776C134.479 163.925 134.801 164.149 135.053 164.448C135.305 164.737 135.454 165.097 135.501 165.526H134.395C134.33 165.255 134.152 165.036 133.863 164.868C133.574 164.691 133.205 164.602 132.757 164.602C132.608 164.602 132.44 164.616 132.253 164.644C132.066 164.663 131.889 164.709 131.721 164.784C131.553 164.849 131.413 164.952 131.301 165.092C131.189 165.223 131.133 165.4 131.133 165.624C131.133 165.829 131.184 166.002 131.287 166.142C131.399 166.282 131.553 166.394 131.749 166.478C131.945 166.562 132.169 166.632 132.421 166.688C132.748 166.753 133.107 166.823 133.499 166.898C133.891 166.963 134.199 167.033 134.423 167.108C134.722 167.201 134.969 167.332 135.165 167.5C135.37 167.668 135.52 167.869 135.613 168.102C135.716 168.335 135.767 168.606 135.767 168.914C135.767 169.353 135.678 169.712 135.501 169.992C135.333 170.272 135.104 170.491 134.815 170.65C134.526 170.809 134.204 170.921 133.849 170.986C133.504 171.051 133.158 171.084 132.813 171.084ZM140.048 171.084C139.273 171.084 138.727 170.874 138.41 170.454C138.102 170.034 137.948 169.437 137.948 168.662V164.672H136.744V163.622H137.948V161.41H139.138V163.622H141.406V164.672H139.138V168.508C139.138 168.788 139.161 169.045 139.208 169.278C139.255 169.502 139.353 169.684 139.502 169.824C139.651 169.955 139.875 170.025 140.174 170.034C140.389 170.034 140.575 169.997 140.734 169.922C140.902 169.847 141.042 169.759 141.154 169.656L141.672 170.524C141.513 170.655 141.345 170.762 141.168 170.846C141 170.93 140.823 170.991 140.636 171.028C140.459 171.065 140.263 171.084 140.048 171.084ZM146.936 171V161.102H148.784L151.752 166.548L154.678 161.102H156.484V171H155.266V162.39L152.004 168.41H151.444L148.154 162.39V171H146.936ZM161.894 171.084C161.12 171.084 160.471 170.925 159.948 170.608C159.426 170.281 159.034 169.833 158.772 169.264C158.52 168.695 158.394 168.046 158.394 167.318C158.394 166.581 158.525 165.932 158.786 165.372C159.048 164.803 159.44 164.355 159.962 164.028C160.485 163.701 161.138 163.538 161.922 163.538C162.697 163.538 163.341 163.701 163.854 164.028C164.377 164.355 164.764 164.803 165.016 165.372C165.278 165.932 165.408 166.581 165.408 167.318C165.408 168.046 165.278 168.695 165.016 169.264C164.755 169.833 164.363 170.281 163.84 170.608C163.327 170.925 162.678 171.084 161.894 171.084ZM161.894 170.034C162.436 170.034 162.874 169.913 163.21 169.67C163.556 169.427 163.808 169.101 163.966 168.69C164.134 168.279 164.218 167.822 164.218 167.318C164.218 166.814 164.134 166.357 163.966 165.946C163.808 165.535 163.556 165.209 163.21 164.966C162.874 164.723 162.436 164.602 161.894 164.602C161.362 164.602 160.924 164.723 160.578 164.966C160.242 165.209 159.99 165.535 159.822 165.946C159.664 166.357 159.584 166.814 159.584 167.318C159.584 167.822 159.664 168.279 159.822 168.69C159.99 169.101 160.242 169.427 160.578 169.67C160.924 169.913 161.362 170.034 161.894 170.034ZM167.029 171V163.622H168.177L168.233 164.742C168.401 164.471 168.615 164.247 168.877 164.07C169.138 163.893 169.423 163.762 169.731 163.678C170.048 163.585 170.356 163.538 170.655 163.538C171.373 163.538 171.933 163.687 172.335 163.986C172.745 164.285 173.035 164.691 173.203 165.204C173.38 165.708 173.469 166.282 173.469 166.926V171H172.279V167.248C172.279 166.903 172.255 166.571 172.209 166.254C172.171 165.937 172.087 165.652 171.957 165.4C171.835 165.148 171.658 164.952 171.425 164.812C171.191 164.663 170.879 164.588 170.487 164.588C170.001 164.588 169.586 164.723 169.241 164.994C168.905 165.265 168.648 165.629 168.471 166.086C168.303 166.543 168.219 167.057 168.219 167.626V171H167.029ZM178.324 171C177.764 171 177.311 170.916 176.966 170.748C176.63 170.58 176.383 170.319 176.224 169.964C176.075 169.609 176 169.161 176 168.62V164.672H174.796V163.622H176V161.424H177.19V163.622H179.164V164.672H177.19V168.494C177.19 168.998 177.279 169.371 177.456 169.614C177.643 169.847 178.016 169.964 178.576 169.964H179.122V171H178.324ZM180.538 171V161.102H181.728V164.756C181.905 164.495 182.12 164.275 182.372 164.098C182.633 163.911 182.918 163.771 183.226 163.678C183.534 163.585 183.851 163.538 184.178 163.538C184.896 163.538 185.456 163.687 185.858 163.986C186.268 164.285 186.558 164.691 186.726 165.204C186.894 165.708 186.978 166.287 186.978 166.94V171H185.788V167.304C185.788 166.977 185.764 166.655 185.718 166.338C185.68 166.011 185.601 165.717 185.48 165.456C185.358 165.195 185.172 164.985 184.92 164.826C184.677 164.667 184.346 164.588 183.926 164.588C183.524 164.588 183.179 164.677 182.89 164.854C182.61 165.031 182.386 165.269 182.218 165.568C182.05 165.857 181.924 166.179 181.84 166.534C181.765 166.879 181.728 167.22 181.728 167.556V171H180.538Z" fill="#030E09" fill-opacity="0.6"/>
</svg>
