<svg version="1.2" xmlns="http://www.w3.org/2000/svg" viewBox="0 0 669 397" width="669" height="397">
	<title>Total Sales Chart</title>
	<style>
		.s0 { fill: #ffffff } 
		.s1 { opacity: .05;fill: none;stroke: #030e09 } 
		.s2 { opacity: .6;fill: #030e09 } 
		.s3 { fill: #030e09 } 
		.s4 { opacity: .15;fill: #93d973 } 
		.s5 { fill: #70c748 } 
		.s6 { opacity: .4;fill: #030e09 } 
		.s7 { opacity: .2;fill: none;stroke: #030e09 } 
		.s8 { fill: none;stroke: #030e09;stroke-linecap: round;stroke-linejoin: round;stroke-width: 1.3 } 
		.s9 { opacity: .1;fill: none;stroke: #030e09 } 
		.s10 { opacity: .5;fill: none;stroke: #030e09;stroke-linecap: round;stroke-width: 1.3 } 
		.s11 { fill: none;stroke: #030e09;stroke-width: 1.3 } 
		.s12 { opacity: .8;fill: #030e09 } 
		.s13 { opacity: .5;fill: none;stroke: #030e09;stroke-width: 1.3 } 
		.s14 { fill: none;stroke: #030e09;stroke-linecap: round;stroke-width: 1.3 } 
		.s15 { fill: #ef4444 } 
		.s16 { fill: none;stroke: #70c748;stroke-linecap: round;stroke-width: 2 } 
	</style>
	<path fill-rule="evenodd" class="s0" d="m16 0h637c8.8 0 16 7.2 16 16v365c0 8.8-7.2 16-16 16h-637c-8.8 0-16-7.2-16-16v-365c0-8.8 7.2-16 16-16z"/>
	<path fill-rule="evenodd" class="s1" d="m16 0.5h637c8.6 0 15.5 6.9 15.5 15.5v365c0 8.6-6.9 15.5-15.5 15.5h-637c-8.6 0-15.5-6.9-15.5-15.5v-365c0-8.6 6.9-15.5 15.5-15.5z"/>
	<path class="s2" d="m27.9 40v-10h-3.7v-1.3h8.7v1.3h-3.7v10zm9.3 0.1q-1.3 0-2.2-0.5-0.9-0.6-1.4-1.6-0.4-1-0.4-2.2 0-1.3 0.4-2.2 0.5-1 1.4-1.6 0.9-0.5 2.2-0.5 1.3 0 2.2 0.5 0.9 0.6 1.4 1.6 0.4 0.9 0.4 2.2 0 1.2-0.4 2.2-0.5 1-1.4 1.6-0.9 0.5-2.2 0.5zm0-1.2q0.9 0 1.5-0.4 0.6-0.4 0.9-1.1 0.2-0.7 0.2-1.6 0-0.9-0.2-1.6-0.3-0.7-0.9-1.1-0.6-0.4-1.5-0.4-0.9 0-1.5 0.4-0.6 0.4-0.9 1.1-0.3 0.7-0.3 1.6 0 0.9 0.3 1.6 0.3 0.7 0.9 1.1 0.6 0.4 1.5 0.4zm9 1.2q-1.3 0-1.8-0.7-0.6-0.7-0.6-2.1v-4.5h-1.4v-1.2h1.4v-2.6h1.4v2.6h2.6v1.2h-2.6v4.4q0 0.4 0.1 0.8 0 0.4 0.3 0.7 0.3 0.2 0.8 0.2 0.3 0 0.6-0.1 0.3-0.2 0.5-0.3l0.6 1q-0.3 0.2-0.6 0.3-0.3 0.2-0.6 0.2-0.3 0.1-0.7 0.1zm5.9 0q-0.5 0-1.1-0.1-0.5-0.2-0.9-0.5-0.5-0.3-0.7-0.8-0.3-0.5-0.3-1.1 0-0.7 0.3-1.2 0.3-0.5 0.7-0.8 0.5-0.3 1.1-0.4 0.6-0.1 1.2-0.1h2.5q0-0.8-0.2-1.3-0.2-0.5-0.7-0.8-0.4-0.3-1.2-0.3-0.4 0-0.8 0.1-0.4 0.1-0.6 0.3-0.3 0.2-0.4 0.5h-1.5q0.1-0.5 0.4-0.9 0.4-0.4 0.8-0.7 0.5-0.3 1.1-0.4 0.5-0.1 1-0.1 1.9 0 2.6 1 0.8 1.1 0.8 2.9v4.6h-1.1l-0.1-1.1q-0.4 0.5-0.9 0.8-0.5 0.2-1 0.3-0.5 0.1-1 0.1zm0.2-1.2q0.8 0 1.3-0.3 0.6-0.2 1-0.7 0.3-0.6 0.3-1.3v-0.4h-1.5q-0.5 0-1.1 0-0.5 0-0.9 0.1-0.4 0.1-0.7 0.4-0.2 0.3-0.2 0.8 0 0.5 0.2 0.8 0.3 0.3 0.7 0.5 0.4 0.1 0.9 0.1zm6 1.1v-11.3h1.4v11.3zm12.3 0.1q-1.1 0-2.1-0.3-0.9-0.3-1.6-0.9-0.6-0.7-0.9-1.9h1.5q0.2 0.8 0.7 1.2 0.5 0.4 1.2 0.5 0.6 0.2 1.3 0.2 0.6 0 1.2-0.2 0.6-0.2 0.9-0.6 0.4-0.4 0.4-1.1 0-0.5-0.2-0.8-0.2-0.3-0.5-0.5-0.3-0.2-0.8-0.4-0.6-0.2-1.3-0.3-0.6-0.1-1.3-0.3-0.6-0.2-1.2-0.4-0.3-0.2-0.6-0.4-0.2-0.3-0.5-0.6-0.1-0.3-0.3-0.7-0.1-0.4-0.1-0.9 0-0.7 0.2-1.2 0.3-0.5 0.6-0.9 0.4-0.4 0.9-0.6 0.6-0.2 1.1-0.3 0.6-0.1 1.2-0.1 1 0 1.8 0.3 0.9 0.3 1.5 0.9 0.5 0.7 0.6 1.8h-1.4q-0.1-0.7-0.4-1.1-0.4-0.4-0.9-0.5-0.6-0.2-1.2-0.2-0.4 0-0.9 0.1-0.4 0.1-0.8 0.3-0.4 0.2-0.6 0.5-0.2 0.4-0.2 0.9 0 0.4 0.1 0.7 0.2 0.4 0.4 0.6 0.3 0.2 0.6 0.3 0.8 0.4 1.7 0.5 0.9 0.2 1.8 0.4 0.4 0.2 0.8 0.4 0.4 0.3 0.7 0.6 0.3 0.3 0.4 0.7 0.2 0.4 0.2 1 0 0.9-0.3 1.5-0.3 0.7-0.9 1.1-0.6 0.4-1.3 0.6-0.7 0.1-1.5 0.1zm8.7 0q-0.5 0-1.1-0.1-0.5-0.2-0.9-0.5-0.4-0.3-0.7-0.8-0.2-0.5-0.2-1.1 0-0.7 0.2-1.2 0.3-0.5 0.7-0.8 0.5-0.3 1.1-0.4 0.6-0.1 1.2-0.1h2.5q0-0.8-0.2-1.3-0.2-0.5-0.7-0.8-0.4-0.3-1.1-0.3-0.5 0-0.9 0.1-0.4 0.1-0.6 0.3-0.3 0.2-0.4 0.5h-1.5q0.1-0.5 0.4-0.9 0.4-0.4 0.8-0.7 0.5-0.3 1.1-0.4 0.5-0.1 1.1-0.1 1.8 0 2.5 1 0.8 1.1 0.8 2.9v4.6h-1.1l-0.1-1.1q-0.4 0.5-0.9 0.8-0.4 0.2-1 0.3-0.5 0.1-1 0.1zm0.2-1.2q0.8 0 1.4-0.3 0.5-0.2 0.9-0.7 0.3-0.6 0.3-1.3v-0.4h-1.5q-0.5 0-1 0-0.6 0-1 0.1-0.4 0.1-0.6 0.4-0.3 0.3-0.3 0.8 0 0.5 0.3 0.8 0.2 0.3 0.6 0.5 0.4 0.1 0.9 0.1zm6.1 1.1v-11.3h1.3v11.3zm7.2 0.1q-1.4 0-2.2-0.5-0.9-0.6-1.3-1.6-0.5-1-0.5-2.2 0-1.3 0.5-2.2 0.4-1 1.3-1.6 0.9-0.5 2.2-0.5 1 0 1.7 0.4 0.7 0.3 1.2 0.9 0.4 0.7 0.6 1.4 0.2 0.8 0.2 1.5 0 0.2 0 0.3 0 0.1 0 0.3h-6.3q0.1 0.7 0.4 1.3 0.3 0.6 0.8 1 0.6 0.3 1.4 0.3 0.4 0 0.9-0.1 0.4-0.1 0.7-0.4 0.4-0.2 0.5-0.7h1.4q-0.2 0.9-0.7 1.4-0.5 0.5-1.3 0.8-0.7 0.2-1.5 0.2zm-2.6-5h4.9q0-0.7-0.3-1.3-0.3-0.5-0.8-0.8-0.6-0.3-1.3-0.3-0.8 0-1.3 0.3-0.5 0.4-0.8 0.9-0.3 0.5-0.4 1.2zm11.2 5q-0.6 0-1.1-0.1-0.6-0.1-1.1-0.4-0.5-0.3-0.9-0.7-0.3-0.5-0.4-1.2h1.4q0.1 0.4 0.5 0.7 0.4 0.3 0.8 0.4 0.5 0.1 0.9 0.1 0.2 0 0.6 0 0.3-0.1 0.6-0.2 0.3-0.1 0.5-0.3 0.2-0.3 0.2-0.7 0-0.3-0.1-0.5-0.2-0.3-0.4-0.4-0.3-0.1-0.6-0.2-0.8-0.2-1.6-0.3-0.9-0.1-1.6-0.5-0.2-0.2-0.4-0.4-0.1-0.2-0.3-0.4-0.1-0.2-0.2-0.5 0-0.3 0-0.6 0-0.6 0.2-1.1 0.3-0.4 0.7-0.7 0.4-0.3 1-0.5 0.6-0.1 1.3-0.1 0.8 0 1.5 0.2 0.6 0.3 1.1 0.8 0.4 0.5 0.5 1.2h-1.3q-0.1-0.4-0.6-0.7-0.5-0.3-1.2-0.3-0.3 0-0.6 0-0.3 0.1-0.6 0.2-0.3 0.1-0.5 0.3-0.2 0.3-0.2 0.7 0 0.3 0.2 0.5 0.2 0.3 0.5 0.4 0.3 0.2 0.8 0.3 0.5 0.1 1.2 0.2 0.7 0.1 1.1 0.3 0.5 0.1 0.8 0.4 0.4 0.3 0.5 0.7 0.2 0.4 0.2 0.9 0 0.8-0.3 1.2-0.3 0.5-0.8 0.8-0.5 0.3-1.1 0.4-0.6 0.1-1.2 0.1z"/>
	<path class="s3" d="m30.6 80.4v-3.4q-1.3-0.2-2.5-0.7-1.1-0.6-1.9-1.7-0.7-1-1-2.6h3.1q0.3 1 0.9 1.5 0.6 0.5 1.5 0.7 0.8 0.3 1.7 0.3 0.9 0 1.6-0.3 0.7-0.2 1.1-0.7 0.5-0.4 0.5-1.2 0-0.6-0.3-1-0.3-0.4-0.7-0.6-0.5-0.3-1.1-0.4-1-0.3-1.9-0.5-0.9-0.2-1.7-0.4-0.8-0.2-1.5-0.5-1.2-0.6-1.9-1.6-0.7-0.9-0.7-2.6 0-1.5 0.7-2.5 0.7-1.1 1.8-1.6 1.1-0.6 2.4-0.7v-3.3h2.9v3.4q1.2 0.1 2.3 0.7 1 0.6 1.6 1.6 0.7 1 0.7 2.5h-2.9q-0.1-0.8-0.6-1.3-0.5-0.5-1.2-0.7-0.7-0.3-1.6-0.3-0.7 0-1.4 0.2-0.8 0.2-1.2 0.6-0.5 0.5-0.5 1.3 0 0.5 0.2 0.9 0.3 0.4 0.7 0.7 0.4 0.2 0.9 0.4 0.9 0.3 2 0.5 1.1 0.3 2 0.5 1.2 0.4 2.1 0.9 0.9 0.5 1.4 1.3 0.5 0.8 0.5 2.1 0 1.7-0.7 2.8-0.7 1.1-1.9 1.7-1.1 0.6-2.6 0.7v3.3zm13.1-3.4v-12.8h-3.4v-2.2q1-0.1 1.8-0.2 0.8-0.2 1.4-0.6 0.6-0.4 1.1-1.2h2.1v17zm6 0v-2.5l4.7-4q0.6-0.4 1.3-1 0.7-0.6 1.3-1.3 0.7-0.7 1.1-1.4 0.4-0.7 0.4-1.6 0-1.2-0.7-1.9-0.7-0.7-2.1-0.7-1.2 0-1.9 0.5-0.8 0.5-0.9 1.4h-3q0.2-1.6 1-2.6 0.9-1.1 2.2-1.6 1.3-0.5 2.7-0.5 1.6 0 2.9 0.6 1.3 0.6 2 1.7 0.8 1.2 0.8 2.8 0 1.5-0.6 2.6-0.5 1.2-1.5 2.2-0.9 1-2.1 1.9l-3.2 2.7h7.4v2.7zm15.5 3.4l-0.8-1.2q0.3-0.2 0.7-0.6 0.4-0.3 0.7-0.8 0.4-0.4 0.5-0.7-0.7-0.1-1.2-0.5-0.5-0.5-0.5-1.3 0-0.8 0.6-1.3 0.6-0.5 1.3-0.5 0.9 0 1.4 0.7 0.5 0.7 0.5 1.8 0 1-0.4 1.9-0.5 0.9-1.2 1.6-0.8 0.6-1.6 0.9zm14.4-3.4v-3.2h-8.8v-2.3l8-11.5h3.7v11.1h2v2.7h-2v3.2zm-5.3-5.9h5.3v-7.9zm18.4 6.1q-1.1 0-2.1-0.3-1.1-0.3-1.9-0.8-0.8-0.6-1.3-1.5-0.6-0.9-0.8-2.1h3q0.2 0.5 0.6 1 0.5 0.4 1.1 0.7 0.6 0.2 1.4 0.2 1 0 1.7-0.3 0.7-0.4 1.1-1 0.5-0.7 0.5-1.6 0-1.4-0.9-2.2-0.8-0.8-2.3-0.8-0.9 0-1.6 0.3-0.8 0.3-1.4 0.8h-2.7l0.5-9.6h10.8v2.8h-8.1l-0.2 4q0.7-0.5 1.6-0.7 0.9-0.3 2-0.3 1.7 0.1 2.9 0.8 1.2 0.6 1.8 1.8 0.6 1.2 0.6 2.9 0 1.9-0.8 3.2-0.9 1.3-2.3 2-1.4 0.7-3.2 0.7zm15.4 0q-1.8 0-3.1-0.7-1.3-0.6-2.1-1.8-0.8-1.2-1.2-2.8-0.4-1.5-0.4-3.3 0-1.9 0.4-3.5 0.4-1.5 1.2-2.7 0.8-1.2 2.1-1.9 1.3-0.7 3.1-0.7 1.9 0 3.2 0.7 1.3 0.8 2.1 2 0.8 1.2 1.1 2.8 0.4 1.5 0.4 3.2 0 1.7-0.4 3.3-0.3 1.5-1.1 2.8-0.8 1.2-2.1 1.9-1.3 0.7-3.2 0.7zm0-2.7q1.2 0 2-0.6 0.7-0.6 1.1-1.5 0.4-0.9 0.5-1.9 0.2-1.1 0.2-2 0-0.9-0.1-1.9-0.2-1-0.6-1.9-0.3-0.9-1.1-1.5-0.7-0.6-2-0.6-1.2 0-2 0.6-0.7 0.6-1.1 1.5-0.4 0.9-0.5 1.9-0.2 1-0.2 1.9 0 0.9 0.2 2 0.1 1 0.4 1.9 0.4 0.9 1.2 1.5 0.7 0.6 2 0.6zm11 2.8q-0.8 0-1.3-0.5-0.6-0.5-0.6-1.4 0-0.8 0.6-1.3 0.5-0.6 1.3-0.6 0.8 0 1.3 0.6 0.5 0.5 0.5 1.3 0 0.9-0.5 1.4-0.5 0.5-1.3 0.5zm11-0.1q-1.9 0-3.2-0.7-1.3-0.6-2.1-1.8-0.8-1.2-1.1-2.8-0.4-1.5-0.4-3.3 0-1.9 0.4-3.5 0.3-1.5 1.1-2.7 0.9-1.2 2.1-1.9 1.3-0.7 3.2-0.7 1.9 0 3.2 0.7 1.3 0.8 2.1 2 0.8 1.2 1.1 2.8 0.4 1.5 0.4 3.2 0 1.7-0.4 3.3-0.3 1.5-1.1 2.8-0.8 1.2-2.1 1.9-1.3 0.7-3.2 0.7zm0-2.7q1.2 0 1.9-0.6 0.8-0.6 1.2-1.5 0.4-0.9 0.5-1.9 0.1-1.1 0.1-2 0-0.9-0.1-1.9-0.1-1-0.5-1.9-0.4-0.9-1.1-1.5-0.8-0.6-2-0.6-1.3 0-2 0.6-0.8 0.6-1.2 1.5-0.3 0.9-0.5 1.9-0.1 1-0.1 1.9 0 0.9 0.1 2 0.1 1 0.5 1.9 0.4 0.9 1.1 1.5 0.8 0.6 2.1 0.6zm15.9 2.7q-1.8 0-3.1-0.7-1.3-0.6-2.1-1.8-0.8-1.2-1.2-2.8-0.4-1.5-0.4-3.3 0-1.9 0.4-3.5 0.4-1.5 1.2-2.7 0.8-1.2 2.1-1.9 1.3-0.7 3.1-0.7 1.9 0 3.2 0.7 1.3 0.8 2.1 2 0.8 1.2 1.1 2.8 0.4 1.5 0.4 3.2 0 1.7-0.4 3.3-0.3 1.5-1.1 2.8-0.8 1.2-2.1 1.9-1.3 0.7-3.2 0.7zm0-2.7q1.2 0 2-0.6 0.7-0.6 1.1-1.5 0.4-0.9 0.5-1.9 0.2-1.1 0.2-2 0-0.9-0.1-1.9-0.2-1-0.6-1.9-0.3-0.9-1.1-1.5-0.7-0.6-2-0.6-1.2 0-2 0.6-0.7 0.6-1.1 1.5-0.4 0.9-0.5 1.9-0.2 1-0.2 1.9 0 0.9 0.2 2 0.1 1 0.4 1.9 0.4 0.9 1.2 1.5 0.7 0.6 2 0.6z"/>
	<path fill-rule="evenodd" class="s4" d="m174 57h23c6.6 0 12 5.4 12 12 0 6.6-5.4 12-12 12h-23c-6.6 0-12-5.4-12-12 0-6.6 5.4-12 12-12z"/>
	<path class="s5" d="m172.8 70.7v-1.9h-1.8v-1.1h1.8v-1.9h1.1v1.9h1.9v1.1h-1.9v1.9zm4.3 1.8v-1.1l2.4-2q0.3-0.2 0.7-0.6 0.4-0.3 0.7-0.6 0.4-0.4 0.6-0.8 0.2-0.4 0.2-0.9 0-0.6-0.4-1-0.4-0.4-1.1-0.4-0.6 0-1.1 0.2-0.4 0.3-0.5 0.8h-1.3q0.1-0.8 0.5-1.2 0.5-0.5 1.1-0.7 0.6-0.3 1.3-0.3 0.8 0 1.4 0.3 0.6 0.3 1 0.9 0.4 0.5 0.4 1.3 0 0.8-0.3 1.4-0.3 0.5-0.8 1-0.5 0.5-1 1l-1.9 1.5h4v1.2zm7 0v-1.1l2.4-2q0.3-0.2 0.7-0.6 0.3-0.3 0.7-0.6 0.3-0.4 0.5-0.8 0.3-0.4 0.3-0.9 0-0.6-0.5-1-0.4-0.4-1.1-0.4-0.6 0-1 0.2-0.4 0.3-0.5 0.8h-1.3q0.1-0.8 0.5-1.2 0.4-0.5 1.1-0.7 0.6-0.3 1.3-0.3 0.8 0 1.4 0.3 0.6 0.3 1 0.9 0.3 0.5 0.3 1.3 0 0.8-0.3 1.4-0.3 0.5-0.7 1-0.5 0.5-1.1 1l-1.8 1.5h4v1.2zm8.1 0l5.4-8.5h1.2l-5.3 8.5zm5.8 0.1q-0.5 0-1-0.3-0.4-0.2-0.6-0.7-0.2-0.4-0.2-1 0-0.6 0.2-1 0.2-0.4 0.6-0.7 0.5-0.2 1-0.2 0.6 0 1 0.2 0.4 0.3 0.6 0.7 0.3 0.4 0.3 1 0 0.6-0.3 1-0.2 0.5-0.6 0.7-0.4 0.3-1 0.3zm0-1q0.3 0 0.5-0.1 0.2-0.2 0.3-0.4 0-0.2 0-0.5 0-0.2 0-0.4-0.1-0.3-0.3-0.4-0.2-0.1-0.5-0.1-0.4 0-0.6 0.3-0.2 0.3-0.2 0.6 0 0.4 0.2 0.7 0.2 0.3 0.6 0.3zm-4.9-3.8q-0.6 0-1-0.2-0.5-0.3-0.7-0.7-0.2-0.5-0.2-1 0-0.6 0.2-1.1 0.2-0.4 0.7-0.6 0.4-0.3 1-0.3 0.5 0 1 0.3 0.4 0.2 0.6 0.6 0.2 0.5 0.2 1.1 0 0.5-0.2 1-0.2 0.4-0.7 0.7-0.4 0.2-0.9 0.2zm0-1q0.3 0 0.4-0.1 0.2-0.2 0.3-0.4 0.1-0.2 0.1-0.4 0-0.3-0.1-0.5-0.1-0.2-0.3-0.4-0.1-0.1-0.4-0.1-0.5 0-0.7 0.3-0.2 0.3-0.2 0.7 0 0.3 0.2 0.6 0.2 0.3 0.7 0.3z"/>
	<path class="s6" d="m220.5 72.6q-1 0-1.7-0.4-0.6-0.5-0.9-1.2-0.3-0.7-0.3-1.6 0-0.9 0.3-1.7 0.3-0.7 1-1.2 0.7-0.4 1.7-0.4 0.7 0 1.2 0.2 0.5 0.2 0.8 0.7 0.4 0.4 0.5 1h-1q-0.2-0.5-0.6-0.8-0.4-0.2-0.9-0.2-0.8 0-1.2 0.4-0.4 0.3-0.6 0.8-0.2 0.6-0.2 1.2 0 0.6 0.2 1.1 0.2 0.5 0.6 0.9 0.5 0.3 1.1 0.3 0.5 0 1-0.2 0.4-0.3 0.6-0.8h1q-0.1 0.6-0.5 1.1-0.4 0.4-0.9 0.6-0.6 0.2-1.2 0.2zm6.7 0q-1 0-1.6-0.4-0.7-0.5-1.1-1.2-0.3-0.7-0.3-1.7 0-0.9 0.4-1.6 0.3-0.8 1-1.2 0.6-0.4 1.6-0.4 1 0 1.7 0.4 0.7 0.4 1 1.2 0.3 0.7 0.3 1.6 0 1-0.3 1.7-0.3 0.7-1 1.2-0.7 0.4-1.7 0.4zm0-0.9q0.7 0 1.1-0.3 0.5-0.4 0.7-0.9 0.2-0.5 0.2-1.2 0-0.6-0.2-1.1-0.2-0.6-0.7-0.9-0.4-0.3-1.1-0.3-0.7 0-1.1 0.3-0.4 0.3-0.7 0.9-0.2 0.5-0.2 1.1 0 0.7 0.2 1.2 0.3 0.5 0.7 0.9 0.4 0.3 1.1 0.3zm4.4 0.8v-6.3h1l0.1 0.7q0.2-0.3 0.4-0.4 0.3-0.2 0.6-0.3 0.3-0.1 0.7-0.1 0.6 0 1 0.3 0.4 0.3 0.7 0.7 0.2-0.3 0.4-0.5 0.3-0.3 0.7-0.4 0.3-0.1 0.8-0.1 0.7 0 1.1 0.3 0.4 0.3 0.6 0.8 0.2 0.5 0.2 1.2v4.1h-1v-3.6q0-0.3-0.1-0.7 0-0.3-0.1-0.6-0.1-0.2-0.4-0.4-0.2-0.2-0.6-0.2-0.4 0-0.7 0.2-0.2 0.2-0.4 0.5-0.2 0.3-0.3 0.7 0 0.3 0 0.7v3.4h-1v-3.6q0-0.3-0.1-0.7 0-0.3-0.1-0.6-0.1-0.2-0.3-0.4-0.3-0.2-0.7-0.2-0.6 0-0.9 0.3-0.3 0.4-0.4 0.8-0.2 0.5-0.2 1v3.4zm9.9 2.3v-8.6h1v0.9q0.3-0.5 0.9-0.7 0.6-0.3 1.2-0.3 1 0 1.6 0.4 0.6 0.5 0.9 1.2 0.3 0.7 0.3 1.6 0 1-0.3 1.7-0.3 0.7-0.9 1.2-0.7 0.4-1.6 0.4-0.5 0-0.9-0.1-0.4-0.1-0.7-0.3-0.3-0.2-0.5-0.5v3.1zm3-3.1q0.7 0 1.1-0.3 0.4-0.4 0.6-0.9 0.2-0.5 0.2-1.2 0-0.6-0.2-1.1-0.2-0.6-0.6-0.9-0.4-0.3-1.1-0.3-0.7 0-1.1 0.3-0.4 0.4-0.7 0.9-0.2 0.5-0.2 1.2 0 0.6 0.2 1.1 0.2 0.6 0.7 0.9 0.4 0.3 1.1 0.3zm6.3 0.9q-0.4 0-0.8-0.1-0.4-0.2-0.7-0.4-0.4-0.2-0.6-0.6-0.1-0.3-0.1-0.8 0-0.5 0.2-0.9 0.2-0.4 0.5-0.6 0.3-0.2 0.8-0.3 0.4-0.1 0.9-0.1h1.9q0-0.5-0.2-0.9-0.1-0.4-0.5-0.7-0.3-0.2-0.9-0.2-0.3 0-0.6 0.1-0.3 0.1-0.5 0.2-0.2 0.2-0.3 0.4h-1.1q0.1-0.4 0.4-0.7 0.2-0.3 0.6-0.5 0.3-0.2 0.7-0.3 0.4-0.1 0.8-0.1 1.4 0 2 0.8 0.6 0.8 0.6 2.2v3.4h-0.9l-0.1-0.8q-0.2 0.4-0.6 0.5-0.4 0.2-0.8 0.3-0.3 0.1-0.7 0.1zm0.1-0.9q0.6 0 1-0.2 0.5-0.2 0.7-0.6 0.3-0.4 0.3-0.9v-0.4h-1.2q-0.3 0-0.7 0.1-0.4 0-0.7 0.1-0.3 0-0.5 0.2-0.2 0.2-0.2 0.6 0 0.4 0.2 0.6 0.2 0.2 0.5 0.4 0.3 0.1 0.6 0.1zm4.6 0.8v-6.3h0.9l0.1 1q0.2-0.4 0.5-0.6 0.4-0.3 0.8-0.4 0.4-0.1 0.8-0.1 0.1 0 0.2 0 0 0 0.1 0v1h-0.3q-0.8 0-1.3 0.3-0.4 0.3-0.6 0.8-0.2 0.6-0.2 1.2v3.1zm7.1 0.1q-1 0-1.7-0.4-0.6-0.5-0.9-1.2-0.4-0.7-0.4-1.7 0-0.9 0.4-1.6 0.3-0.8 1-1.2 0.6-0.4 1.6-0.4 0.7 0 1.3 0.3 0.5 0.3 0.9 0.7 0.3 0.5 0.5 1.1 0.1 0.5 0.1 1.1 0 0.1 0 0.2 0 0.1 0 0.2h-4.7q0 0.6 0.2 1 0.3 0.5 0.7 0.7 0.4 0.3 1 0.3 0.3 0 0.7-0.1 0.3-0.1 0.5-0.3 0.3-0.2 0.4-0.5h1q-0.1 0.6-0.5 1-0.4 0.4-0.9 0.6-0.6 0.2-1.2 0.2zm-1.9-3.8h3.6q0-0.5-0.2-0.9-0.2-0.4-0.6-0.7-0.4-0.2-0.9-0.2-0.6 0-1 0.3-0.4 0.2-0.7 0.6-0.2 0.4-0.2 0.9zm8.6 3.8q-0.9 0-1.6-0.4-0.6-0.5-0.9-1.2-0.3-0.7-0.3-1.6 0-1 0.3-1.7 0.3-0.7 1-1.2 0.6-0.4 1.5-0.4 0.4 0 0.8 0.1 0.4 0.1 0.7 0.3 0.4 0.2 0.6 0.5v-3h1v8.5h-1v-0.9q-0.2 0.3-0.6 0.5-0.3 0.3-0.7 0.4-0.4 0.1-0.8 0.1zm0.1-0.9q0.7 0 1.1-0.4 0.4-0.3 0.7-0.8 0.2-0.6 0.2-1.2 0-0.7-0.2-1.2-0.2-0.5-0.7-0.8-0.4-0.3-1.1-0.3-0.6 0-1.1 0.3-0.4 0.3-0.6 0.9-0.2 0.5-0.2 1.2 0 0.4 0.1 0.9 0.2 0.4 0.4 0.7 0.2 0.3 0.6 0.5 0.3 0.2 0.8 0.2zm10.3 0.9q-1 0-1.4-0.6-0.4-0.5-0.4-1.5v-3.4h-1.1v-0.9h1.1v-1.9h1v1.9h1.9v0.9h-1.9v3.3q0 0.3 0.1 0.6 0 0.3 0.2 0.5 0.2 0.2 0.6 0.2 0.3 0 0.5-0.1 0.2-0.1 0.3-0.3l0.5 0.8q-0.2 0.2-0.5 0.3-0.2 0.1-0.4 0.1-0.3 0.1-0.5 0.1zm5.1 0q-1 0-1.6-0.4-0.7-0.5-1-1.2-0.4-0.7-0.4-1.7 0-0.9 0.4-1.6 0.3-0.8 1-1.2 0.7-0.4 1.7-0.4 1 0 1.6 0.4 0.7 0.4 1 1.2 0.3 0.7 0.3 1.6 0 1-0.3 1.7-0.3 0.7-1 1.2-0.7 0.4-1.7 0.4zm0-0.9q0.7 0 1.2-0.3 0.4-0.4 0.6-0.9 0.2-0.5 0.2-1.2 0-0.6-0.2-1.1-0.2-0.6-0.6-0.9-0.5-0.3-1.2-0.3-0.6 0-1.1 0.3-0.4 0.3-0.6 0.9-0.2 0.5-0.2 1.1 0 0.7 0.2 1.2 0.2 0.5 0.6 0.9 0.5 0.3 1.1 0.3zm7.7 0.8v-8.5h1v8.5zm4.7 0.1q-0.4 0-0.8-0.1-0.4-0.2-0.8-0.4-0.3-0.2-0.5-0.6-0.2-0.3-0.2-0.8 0-0.5 0.2-0.9 0.2-0.4 0.6-0.6 0.3-0.2 0.8-0.3 0.4-0.1 0.9-0.1h1.8q0-0.5-0.1-0.9-0.2-0.4-0.5-0.7-0.3-0.2-0.9-0.2-0.3 0-0.6 0.1-0.3 0.1-0.5 0.2-0.2 0.2-0.3 0.4h-1.1q0.1-0.4 0.3-0.7 0.3-0.3 0.6-0.5 0.4-0.2 0.8-0.3 0.4-0.1 0.8-0.1 1.4 0 2 0.8 0.5 0.8 0.5 2.2v3.4h-0.8l-0.1-0.8q-0.2 0.4-0.6 0.5-0.4 0.2-0.8 0.3-0.4 0.1-0.7 0.1zm0.1-0.9q0.6 0 1-0.2 0.5-0.2 0.7-0.6 0.2-0.4 0.2-0.9v-0.4h-1.1q-0.4 0-0.8 0.1-0.3 0-0.6 0.1-0.4 0-0.6 0.2-0.1 0.2-0.1 0.6 0 0.4 0.1 0.6 0.2 0.2 0.5 0.4 0.4 0.1 0.7 0.1zm6.8 0.9q-0.4 0-0.8-0.1-0.5-0.1-0.8-0.3-0.4-0.2-0.7-0.6-0.2-0.3-0.3-0.8h1q0.2 0.3 0.4 0.5 0.3 0.2 0.6 0.3 0.4 0.1 0.7 0.1 0.2 0 0.4-0.1 0.3 0 0.5-0.1 0.3-0.1 0.4-0.2 0.2-0.2 0.2-0.5 0-0.3-0.1-0.4-0.2-0.2-0.3-0.3-0.2-0.1-0.5-0.1-0.6-0.2-1.2-0.3-0.7-0.1-1.2-0.4-0.1-0.1-0.3-0.2-0.1-0.2-0.2-0.3-0.1-0.2-0.2-0.4 0-0.2 0-0.5 0-0.5 0.2-0.8 0.2-0.3 0.5-0.6 0.3-0.2 0.8-0.3 0.4-0.1 0.9-0.1 0.6 0 1.1 0.2 0.5 0.2 0.9 0.6 0.3 0.4 0.4 0.9h-1q-0.1-0.3-0.5-0.6-0.3-0.2-0.9-0.2-0.2 0-0.4 0.1-0.3 0-0.5 0.1-0.2 0.1-0.3 0.2-0.2 0.2-0.2 0.5 0 0.3 0.1 0.4 0.2 0.2 0.4 0.3 0.3 0.1 0.6 0.2 0.4 0.1 0.9 0.2 0.5 0.1 0.8 0.2 0.4 0.1 0.7 0.3 0.2 0.2 0.3 0.5 0.2 0.3 0.2 0.7 0 0.6-0.2 0.9-0.3 0.4-0.6 0.6-0.4 0.2-0.9 0.3-0.4 0.1-0.9 0.1zm6.2 0q-0.9 0-1.4-0.6-0.3-0.5-0.3-1.5v-3.4h-1.1v-0.9h1.1v-1.9h1v1.9h1.9v0.9h-1.9v3.3q0 0.3 0 0.6 0.1 0.3 0.3 0.5 0.2 0.2 0.6 0.2 0.2 0 0.4-0.1 0.3-0.1 0.4-0.3l0.4 0.8q-0.2 0.2-0.4 0.3-0.2 0.1-0.4 0.1-0.3 0.1-0.6 0.1zm8.5 2.7q-0.7 0-1.4-0.2-0.7-0.2-1.2-0.7l0.4-0.8q0.5 0.4 1 0.6 0.6 0.2 1.1 0.2 1 0 1.4-0.6 0.5-0.5 0.5-1.4v-0.8q-0.2 0.4-0.6 0.6-0.3 0.2-0.7 0.3-0.4 0.1-0.8 0.1-0.9 0-1.5-0.4-0.5-0.3-0.8-1-0.2-0.7-0.2-1.5v-3.5h1v3.2q0 0.4 0.1 0.8 0 0.4 0.2 0.8 0.2 0.3 0.5 0.5 0.3 0.2 0.9 0.2 0.7 0 1.1-0.3 0.4-0.4 0.6-0.9 0.2-0.6 0.2-1.3v-3h1v6.3q0 0.7-0.2 1.2-0.2 0.5-0.5 0.9-0.4 0.4-0.9 0.5-0.5 0.2-1.2 0.2zm7.1-2.7q-1 0-1.6-0.4-0.7-0.5-1-1.2-0.3-0.7-0.3-1.7 0-0.9 0.3-1.6 0.3-0.8 1-1.2 0.7-0.4 1.6-0.4 0.8 0 1.3 0.3 0.5 0.3 0.9 0.7 0.3 0.5 0.5 1.1 0.1 0.5 0.1 1.1 0 0.1 0 0.2 0 0.1 0 0.2h-4.7q0 0.6 0.3 1 0.2 0.5 0.6 0.7 0.4 0.3 1.1 0.3 0.3 0 0.6-0.1 0.3-0.1 0.6-0.3 0.2-0.2 0.3-0.5h1.1q-0.2 0.6-0.6 1-0.4 0.4-0.9 0.6-0.6 0.2-1.2 0.2zm-1.9-3.8h3.7q0-0.5-0.3-0.9-0.2-0.4-0.6-0.7-0.4-0.2-0.9-0.2-0.6 0-1 0.3-0.4 0.2-0.6 0.6-0.2 0.4-0.3 0.9zm8.1 3.8q-0.4 0-0.8-0.1-0.4-0.2-0.7-0.4-0.3-0.2-0.5-0.6-0.2-0.3-0.2-0.8 0-0.5 0.2-0.9 0.2-0.4 0.5-0.6 0.4-0.2 0.8-0.3 0.4-0.1 0.9-0.1h1.9q0-0.5-0.2-0.9-0.1-0.4-0.5-0.7-0.3-0.2-0.8-0.2-0.4 0-0.7 0.1-0.3 0.1-0.5 0.2-0.2 0.2-0.3 0.4h-1q0-0.4 0.3-0.7 0.2-0.3 0.6-0.5 0.3-0.2 0.7-0.3 0.4-0.1 0.9-0.1 1.3 0 1.9 0.8 0.6 0.8 0.6 2.2v3.4h-0.9v-0.8q-0.3 0.4-0.7 0.5-0.3 0.2-0.7 0.3-0.4 0.1-0.8 0.1zm0.1-0.9q0.6 0 1.1-0.2 0.4-0.2 0.6-0.6 0.3-0.4 0.3-0.9v-0.4h-1.1q-0.4 0-0.8 0.1-0.4 0-0.7 0.1-0.3 0-0.5 0.2-0.2 0.2-0.2 0.6 0 0.4 0.2 0.6 0.2 0.2 0.5 0.4 0.3 0.1 0.6 0.1zm4.6 0.8v-6.3h1v1q0.3-0.4 0.6-0.6 0.3-0.3 0.7-0.4 0.4-0.1 0.8-0.1 0.1 0 0.2 0 0.1 0 0.2 0v1h-0.4q-0.8 0-1.2 0.3-0.5 0.3-0.7 0.8-0.2 0.6-0.2 1.2v3.1z"/>
	<path fill-rule="evenodd" class="s0" d="m557 37h78c5.5 0 10 4.5 10 10v16c0 5.5-4.5 10-10 10h-78c-5.5 0-10-4.5-10-10v-16c0-5.5 4.5-10 10-10z"/>
	<path fill-rule="evenodd" class="s7" d="m557 37.5h78c5.2 0 9.5 4.3 9.5 9.5v16c0 5.2-4.3 9.5-9.5 9.5h-78c-5.2 0-9.5-4.3-9.5-9.5v-16c0-5.2 4.3-9.5 9.5-9.5z"/>
	<path class="s3" d="m563.4 60v-1.2l2.8-2.4q0.3-0.3 0.7-0.7 0.5-0.3 0.9-0.8 0.4-0.4 0.6-0.9 0.3-0.4 0.3-0.9 0-0.8-0.5-1.3-0.5-0.4-1.3-0.4-0.7 0-1.2 0.3-0.5 0.2-0.6 0.8h-1.5q0.1-0.9 0.6-1.4 0.5-0.6 1.2-0.8 0.7-0.3 1.5-0.3 1 0 1.7 0.3 0.7 0.4 1.1 1 0.5 0.7 0.5 1.6 0 0.9-0.4 1.6-0.3 0.7-0.9 1.2-0.5 0.6-1.2 1.1l-2.2 1.8h4.7v1.4zm12.2 0.1q-1 0-1.8-0.4-0.7-0.4-1.2-1-0.4-0.7-0.7-1.7-0.2-0.9-0.2-1.9 0-1.1 0.2-2 0.3-0.9 0.7-1.6 0.5-0.7 1.2-1.1 0.8-0.4 1.8-0.4 1.2 0 1.9 0.4 0.8 0.4 1.2 1.2 0.5 0.7 0.6 1.6 0.2 0.9 0.2 1.9 0 0.9-0.2 1.8-0.1 0.9-0.6 1.7-0.4 0.7-1.2 1.1-0.8 0.4-1.9 0.4zm0-1.3q0.8 0 1.3-0.4 0.5-0.3 0.7-0.9 0.3-0.6 0.3-1.2 0.1-0.6 0.1-1.2 0-0.6-0.1-1.3 0-0.6-0.3-1.2-0.2-0.6-0.7-0.9-0.5-0.4-1.2-0.4-0.8 0-1.3 0.4-0.5 0.3-0.7 0.9-0.3 0.6-0.4 1.2-0.1 0.7-0.1 1.3 0 0.6 0.1 1.2 0.1 0.6 0.3 1.2 0.3 0.6 0.8 0.9 0.5 0.4 1.2 0.4zm4.9 1.2v-1.2l2.8-2.4q0.3-0.3 0.7-0.7 0.5-0.3 0.9-0.8 0.4-0.4 0.6-0.9 0.3-0.4 0.3-0.9 0-0.8-0.5-1.3-0.5-0.4-1.3-0.4-0.7 0-1.2 0.3-0.5 0.2-0.6 0.8h-1.5q0.1-0.9 0.6-1.4 0.5-0.6 1.2-0.8 0.7-0.3 1.5-0.3 1 0 1.7 0.3 0.7 0.4 1.1 1 0.5 0.7 0.5 1.6 0 0.9-0.4 1.6-0.3 0.7-0.9 1.2-0.5 0.6-1.2 1.1l-2.2 1.8h4.7v1.4zm11.9 0.1q-0.7 0-1.2-0.1-0.6-0.2-1.1-0.5-0.4-0.3-0.8-0.8-0.3-0.5-0.4-1.2h1.5q0.1 0.4 0.4 0.7 0.3 0.2 0.7 0.4 0.4 0.2 0.8 0.2 0.7 0 1.1-0.3 0.5-0.2 0.8-0.6 0.3-0.4 0.3-1.1 0-0.9-0.6-1.4-0.5-0.5-1.4-0.5-0.6 0-1.1 0.2-0.4 0.2-0.8 0.5h-1.4l0.3-5.5h6.2v1.4h-4.8l-0.2 2.7q0.4-0.3 0.9-0.5 0.6-0.1 1.3-0.1 0.9 0 1.6 0.4 0.7 0.4 1.1 1.1 0.4 0.7 0.4 1.6 0 1.1-0.5 1.9-0.5 0.7-1.3 1.1-0.8 0.4-1.8 0.4z"/>
	<path class="s8" d="m624.8 52.5l-5.8 5-5.8-5"/>
	<path fill-rule="evenodd" class="s9" d="m24 105.5h621"/>
	<path class="s10" d="m25.7 136h16.6m-5 0q0 1.7-0.2 3.2-0.3 1.5-0.7 2.7-0.5 1.2-1.1 1.8-0.6 0.6-1.3 0.6-0.7 0-1.3-0.6-0.6-0.6-1.1-1.8-0.4-1.2-0.7-2.7-0.2-1.6-0.2-3.2 0-1.7 0.2-3.2 0.3-1.5 0.7-2.7 0.5-1.2 1.1-1.8 0.6-0.6 1.3-0.6 0.7 0 1.3 0.6 0.6 0.6 1.1 1.8 0.4 1.2 0.7 2.7 0.2 1.5 0.2 3.2z"/>
	<path class="s11" d="m42.3 136c0 1.1-0.2 2.2-0.6 3.2-0.4 1-1 1.9-1.8 2.7-0.8 0.8-1.7 1.4-2.7 1.8-1 0.4-2.1 0.6-3.2 0.6-1.1 0-2.2-0.2-3.2-0.6-1-0.4-1.9-1-2.7-1.8-0.8-0.8-1.4-1.7-1.8-2.7-0.4-1-0.6-2.1-0.6-3.2 0-2.2 0.8-4.3 2.4-5.9 1.6-1.6 3.7-2.4 5.9-2.4 2.2 0 4.3 0.8 5.9 2.4 1.6 1.6 2.4 3.7 2.4 5.9z"/>
	<path class="s12" d="m61.3 141.1q-1.5 0-2.5-0.6-1.1-0.7-1.6-1.8-0.6-1.2-0.6-2.6 0-1.5 0.6-2.7 0.5-1.1 1.6-1.8 1-0.6 2.6-0.6 1.5 0 2.6 0.6 1 0.7 1.5 1.8 0.6 1.2 0.6 2.6 0 1.5-0.6 2.6-0.5 1.2-1.6 1.9-1 0.6-2.6 0.6zm0.1-1.3q1.1 0 1.8-0.6 0.7-0.5 1-1.3 0.4-0.9 0.4-1.8 0-0.8-0.2-1.5-0.2-0.6-0.6-1.1-0.4-0.6-1-0.9-0.6-0.3-1.4-0.3-1.1 0-1.9 0.6-0.7 0.5-1 1.3-0.4 0.9-0.4 1.9 0 0.9 0.4 1.8 0.3 0.8 1 1.3 0.7 0.6 1.9 0.6zm6.2 1.2v-7.4h1.4l0.1 1.1q0.2-0.4 0.6-0.7 0.4-0.2 0.9-0.3 0.4-0.2 0.8-0.2 1.1 0 1.7 0.5 0.6 0.4 0.9 1.2 0.2 0.8 0.2 1.7v4.1h-1.4v-3.8q0-0.4-0.1-0.9 0-0.4-0.2-0.7-0.2-0.4-0.5-0.6-0.3-0.2-0.9-0.2-0.6 0-1.1 0.4-0.5 0.3-0.7 1-0.2 0.6-0.2 1.3v3.5zm8.3 0v-9.9h1.5v9.9zm3.2 0v-7.4h1.5v7.4zm0.7-8.4q-0.4 0-0.7-0.2-0.3-0.3-0.3-0.7 0-0.4 0.3-0.6 0.3-0.3 0.7-0.3 0.4 0 0.6 0.3 0.3 0.2 0.3 0.6 0 0.4-0.3 0.7-0.2 0.2-0.6 0.2zm2.5 8.4v-7.4h1.4l0.1 1.1q0.2-0.4 0.6-0.7 0.4-0.2 0.9-0.3 0.4-0.2 0.8-0.2 1.1 0 1.7 0.5 0.6 0.4 0.9 1.2 0.2 0.8 0.2 1.7v4.1h-1.4v-3.8q0-0.4-0.1-0.9 0-0.4-0.2-0.7-0.2-0.4-0.5-0.6-0.3-0.2-0.9-0.2-0.6 0-1.1 0.4-0.5 0.3-0.7 1-0.2 0.6-0.2 1.3v3.5zm11.6 0.1q-1.2 0-2-0.5-0.8-0.5-1.2-1.3-0.4-0.9-0.4-2 0-1.1 0.5-1.9 0.4-0.9 1.2-1.4 0.8-0.5 1.9-0.5 0.8 0 1.5 0.3 0.6 0.4 1 0.9 0.4 0.5 0.6 1.2 0.2 0.6 0.2 1.3 0 0.2 0 0.3 0 0.2-0.1 0.3h-5.3q0 0.6 0.3 1 0.2 0.5 0.7 0.8 0.4 0.2 1.1 0.2 0.4 0 0.7 0 0.3-0.1 0.6-0.3 0.3-0.2 0.4-0.6h1.5q-0.2 0.8-0.7 1.3-0.5 0.4-1.1 0.7-0.7 0.2-1.4 0.2zm-2.1-4.4h4q-0.1-0.6-0.3-1-0.2-0.4-0.7-0.7-0.4-0.2-1-0.2-0.6 0-1 0.2-0.5 0.3-0.7 0.7-0.2 0.5-0.3 1zm13.5 4.4q-0.5 0-1-0.1-0.5-0.1-1-0.4-0.4-0.2-0.7-0.6-0.3-0.5-0.4-1.1h1.4q0.2 0.3 0.4 0.5 0.3 0.3 0.7 0.4 0.3 0.1 0.7 0.1 0.2 0 0.5-0.1 0.2 0 0.5-0.1 0.2-0.1 0.4-0.3 0.1-0.2 0.1-0.5 0-0.3-0.1-0.4-0.2-0.2-0.4-0.3-0.2-0.1-0.5-0.2-0.7-0.1-1.4-0.2-0.7-0.2-1.3-0.5-0.2-0.1-0.3-0.3-0.2-0.1-0.3-0.4-0.1-0.2-0.1-0.4-0.1-0.2-0.1-0.5 0-0.6 0.2-1 0.3-0.4 0.7-0.7 0.4-0.2 0.9-0.3 0.5-0.2 1.1-0.2 0.7 0 1.3 0.3 0.6 0.2 1 0.7 0.4 0.4 0.5 1.1h-1.4q-0.1-0.4-0.5-0.6-0.4-0.2-1-0.2-0.2 0-0.4 0-0.3 0-0.5 0.1-0.2 0.1-0.3 0.3-0.2 0.2-0.2 0.5 0 0.2 0.1 0.4 0.2 0.2 0.4 0.3 0.3 0.1 0.6 0.2 0.5 0.1 1.1 0.2 0.5 0.1 0.9 0.2 0.4 0.1 0.7 0.4 0.4 0.2 0.6 0.6 0.1 0.3 0.1 0.9 0 0.6-0.2 1.1-0.3 0.4-0.7 0.6-0.5 0.3-1 0.4-0.6 0.1-1.1 0.1zm7.3 0q-1.2 0-1.7-0.7-0.5-0.6-0.5-1.8v-3.7h-1.2v-1.3h1.2v-2.1h1.4v2.1h2.3v1.3h-2.3v3.5q0 0.4 0.1 0.7 0.1 0.3 0.3 0.5 0.2 0.2 0.6 0.2 0.4 0 0.6-0.1 0.2-0.1 0.4-0.3l0.6 1.1q-0.3 0.2-0.6 0.3-0.3 0.2-0.6 0.2-0.3 0.1-0.6 0.1zm6.1 0q-1.1 0-1.9-0.5-0.8-0.5-1.2-1.3-0.4-0.9-0.4-2 0-1.1 0.4-2 0.4-0.8 1.2-1.3 0.8-0.5 1.9-0.5 1.2 0 2 0.5 0.8 0.5 1.2 1.3 0.4 0.9 0.4 2 0 1.1-0.4 2-0.4 0.8-1.2 1.3-0.8 0.5-2 0.5zm0-1.3q0.8 0 1.2-0.3 0.5-0.4 0.7-0.9 0.3-0.6 0.3-1.3 0-0.7-0.3-1.2-0.2-0.6-0.7-0.9-0.4-0.4-1.2-0.4-0.7 0-1.2 0.4-0.5 0.3-0.7 0.9-0.2 0.5-0.2 1.2 0 0.7 0.2 1.3 0.2 0.5 0.7 0.9 0.5 0.3 1.2 0.3zm5.1 1.2v-7.4h1.4v1.1q0.3-0.4 0.7-0.7 0.3-0.3 0.8-0.4 0.4-0.1 0.9-0.1 0.1 0 0.2 0 0.1 0 0.2 0v1.4h-0.4q-0.8 0-1.4 0.3-0.5 0.4-0.7 0.9-0.3 0.6-0.3 1.3v3.6zm8.5 0.1q-1.2 0-1.9-0.5-0.8-0.5-1.2-1.3-0.4-0.9-0.4-2 0-1.1 0.4-1.9 0.4-0.9 1.2-1.4 0.8-0.5 1.9-0.5 0.9 0 1.5 0.3 0.6 0.4 1 0.9 0.4 0.5 0.6 1.2 0.2 0.6 0.2 1.3 0 0.2 0 0.3 0 0.2 0 0.3h-5.4q0.1 0.6 0.3 1 0.3 0.5 0.7 0.8 0.5 0.2 1.1 0.2 0.4 0 0.7 0 0.4-0.1 0.6-0.3 0.3-0.2 0.4-0.6h1.5q-0.2 0.8-0.7 1.3-0.4 0.4-1.1 0.7-0.7 0.2-1.4 0.2zm-2-4.4h3.9q0-0.6-0.3-1-0.2-0.4-0.6-0.7-0.5-0.2-1-0.2-0.7 0-1.1 0.2-0.4 0.3-0.7 0.7-0.2 0.5-0.2 1z"/>
	<path class="s3" d="m544 142.9v-1.9q-0.8-0.1-1.5-0.4-0.7-0.3-1.1-0.9-0.5-0.6-0.6-1.4h1.5q0.2 0.5 0.6 0.9 0.4 0.3 0.9 0.4 0.6 0.2 1.1 0.2 0.5 0 1-0.2 0.5-0.1 0.7-0.4 0.3-0.4 0.3-0.9 0-0.4-0.1-0.6-0.2-0.3-0.5-0.4-0.3-0.2-0.6-0.3-0.6-0.2-1.1-0.3-0.6-0.1-1.1-0.2-0.5-0.1-1-0.4-0.6-0.3-1-0.9-0.4-0.5-0.4-1.4 0-0.9 0.4-1.5 0.4-0.6 1.1-0.9 0.7-0.3 1.4-0.4v-1.8h1.5v1.8q0.7 0.1 1.3 0.5 0.6 0.3 1 0.9 0.3 0.5 0.4 1.4h-1.5q0-0.6-0.3-0.9-0.3-0.3-0.8-0.4-0.4-0.2-0.9-0.2-0.5 0-1 0.1-0.5 0.2-0.8 0.5-0.3 0.3-0.3 0.8 0 0.3 0.2 0.6 0.1 0.2 0.3 0.4 0.3 0.2 0.5 0.3 0.6 0.2 1.4 0.4 0.7 0.1 1.3 0.3 0.7 0.2 1.1 0.5 0.5 0.3 0.8 0.8 0.2 0.4 0.2 1.1 0 1-0.4 1.6-0.4 0.6-1.1 1-0.7 0.3-1.5 0.4v1.8zm9.6-1.8q-0.7 0-1.3-0.1-0.7-0.2-1.2-0.5-0.5-0.4-0.8-0.9-0.3-0.6-0.3-1.4 0-0.6 0.2-1 0.2-0.5 0.5-0.8 0.4-0.4 0.9-0.6-0.5-0.2-0.8-0.6-0.3-0.4-0.4-0.8-0.1-0.4-0.1-0.8 0-0.7 0.3-1.2 0.3-0.5 0.7-0.8 0.5-0.3 1.1-0.5 0.6-0.1 1.2-0.1 0.6 0 1.2 0.1 0.6 0.2 1.1 0.5 0.5 0.3 0.7 0.8 0.3 0.5 0.3 1.2 0 0.4-0.1 0.8-0.1 0.4-0.4 0.8-0.2 0.4-0.7 0.6 0.5 0.2 0.8 0.6 0.4 0.3 0.6 0.8 0.1 0.4 0.1 1 0 0.8-0.3 1.4-0.3 0.5-0.8 0.9-0.5 0.3-1.2 0.5-0.6 0.1-1.3 0.1zm0-1.3q0.3 0 0.7-0.1 0.4-0.1 0.7-0.2 0.3-0.2 0.5-0.5 0.2-0.4 0.2-0.8 0-0.6-0.3-1-0.3-0.3-0.8-0.5-0.4-0.1-1-0.1-0.5 0-1 0.1-0.5 0.2-0.8 0.5-0.3 0.4-0.3 1 0 0.4 0.2 0.8 0.2 0.3 0.5 0.5 0.4 0.1 0.7 0.2 0.4 0.1 0.7 0.1zm0-4.5q0.5 0 0.9-0.1 0.4-0.2 0.7-0.5 0.2-0.4 0.2-0.8 0-0.6-0.2-0.9-0.3-0.4-0.7-0.5-0.4-0.2-0.9-0.2-0.5 0-0.9 0.2-0.4 0.1-0.7 0.5-0.2 0.3-0.2 0.8 0 0.5 0.3 0.9 0.2 0.3 0.6 0.5 0.4 0.1 0.9 0.1zm5.7 7.5l-0.4-0.6q0.2-0.1 0.4-0.3 0.2-0.2 0.3-0.4 0.2-0.2 0.3-0.5-0.4 0-0.7-0.2-0.2-0.3-0.2-0.7 0-0.4 0.3-0.6 0.3-0.3 0.6-0.3 0.5 0 0.8 0.4 0.3 0.3 0.3 0.9 0 0.5-0.3 1-0.2 0.5-0.6 0.8-0.4 0.4-0.8 0.5zm3.8-1.8l4-8.5h-5.1v-1.4h6.7v1.2l-3.9 8.7zm10.1 0.1q-0.6 0-1.2-0.1-0.6-0.2-1-0.5-0.5-0.3-0.8-0.8-0.3-0.5-0.4-1.1h1.4q0.2 0.3 0.5 0.6 0.3 0.2 0.7 0.4 0.4 0.2 0.8 0.2 0.6 0 1.1-0.3 0.5-0.2 0.8-0.6 0.2-0.4 0.2-1.1 0-0.9-0.5-1.4-0.6-0.5-1.5-0.5-0.5 0-1 0.2-0.5 0.2-0.9 0.5h-1.4l0.4-5.5h6.1v1.4h-4.8l-0.2 2.7q0.4-0.3 1-0.5 0.5-0.1 1.2-0.1 1 0 1.7 0.4 0.7 0.4 1.1 1.1 0.4 0.7 0.4 1.6 0 1.1-0.5 1.9-0.5 0.7-1.3 1.1-0.8 0.4-1.9 0.4zm9 0q-1 0-1.8-0.4-0.7-0.4-1.2-1-0.4-0.7-0.7-1.7-0.2-0.9-0.2-1.9 0-1.1 0.2-2 0.3-0.9 0.7-1.6 0.5-0.7 1.2-1.1 0.8-0.4 1.8-0.4 1.2 0 1.9 0.4 0.8 0.4 1.2 1.2 0.5 0.7 0.7 1.6 0.1 0.9 0.1 1.9 0 0.9-0.1 1.8-0.2 0.9-0.7 1.7-0.4 0.7-1.2 1.1-0.8 0.4-1.9 0.4zm0-1.3q0.8 0 1.3-0.4 0.5-0.3 0.7-0.9 0.3-0.6 0.4-1.2 0-0.6 0-1.2 0-0.6 0-1.3-0.1-0.6-0.4-1.2-0.2-0.6-0.7-0.9-0.5-0.4-1.2-0.4-0.8 0-1.3 0.4-0.5 0.3-0.7 0.9-0.3 0.6-0.4 1.2-0.1 0.7-0.1 1.3 0 0.6 0.1 1.2 0.1 0.6 0.3 1.2 0.3 0.6 0.8 0.9 0.5 0.4 1.2 0.4zm6.3 1.3q-0.4 0-0.7-0.2-0.2-0.3-0.2-0.7 0-0.5 0.2-0.7 0.3-0.3 0.7-0.3 0.4 0 0.7 0.3 0.3 0.2 0.3 0.7 0 0.4-0.3 0.7-0.3 0.2-0.7 0.2zm6.3 0q-1 0-1.8-0.4-0.7-0.4-1.2-1-0.5-0.7-0.7-1.7-0.2-0.9-0.2-1.9 0-1.1 0.2-2 0.2-0.9 0.7-1.6 0.5-0.7 1.2-1.1 0.8-0.4 1.8-0.4 1.1 0 1.9 0.4 0.7 0.4 1.2 1.2 0.4 0.7 0.6 1.6 0.2 0.9 0.2 1.9 0 0.9-0.2 1.8-0.2 0.9-0.6 1.7-0.5 0.7-1.2 1.1-0.8 0.4-1.9 0.4zm0-1.3q0.8 0 1.3-0.4 0.4-0.3 0.7-0.9 0.2-0.6 0.3-1.2 0.1-0.6 0.1-1.2 0-0.6-0.1-1.3-0.1-0.6-0.3-1.2-0.3-0.6-0.7-0.9-0.5-0.4-1.3-0.4-0.7 0-1.2 0.4-0.5 0.3-0.8 0.9-0.2 0.6-0.3 1.2-0.1 0.7-0.1 1.3 0 0.6 0.1 1.2 0.1 0.6 0.3 1.2 0.3 0.6 0.7 0.9 0.5 0.4 1.3 0.4zm9.3 1.3q-1 0-1.8-0.4-0.7-0.4-1.2-1-0.4-0.7-0.7-1.7-0.2-0.9-0.2-1.9 0-1.1 0.2-2 0.2-0.9 0.7-1.6 0.5-0.7 1.2-1.1 0.8-0.4 1.8-0.4 1.2 0 1.9 0.4 0.8 0.4 1.2 1.2 0.5 0.7 0.6 1.6 0.2 0.9 0.2 1.9 0 0.9-0.2 1.8-0.2 0.9-0.6 1.7-0.4 0.7-1.2 1.1-0.8 0.4-1.9 0.4zm0-1.3q0.8 0 1.3-0.4 0.5-0.3 0.7-0.9 0.3-0.6 0.3-1.2 0.1-0.6 0.1-1.2 0-0.6-0.1-1.3 0-0.6-0.3-1.2-0.2-0.6-0.7-0.9-0.5-0.4-1.3-0.4-0.7 0-1.2 0.4-0.5 0.3-0.8 0.9-0.2 0.6-0.3 1.2-0.1 0.7-0.1 1.3 0 0.6 0.1 1.2 0.1 0.6 0.3 1.2 0.3 0.6 0.8 0.9 0.4 0.4 1.2 0.4z"/>
	<path class="s5" d="m617.8 137.7v-1.9h-1.8v-1.1h1.8v-1.9h1.1v1.9h1.9v1.1h-1.9v1.9zm6 1.8v-6.6h-1.7v-0.9q0.5 0 0.8-0.1 0.4-0.1 0.7-0.3 0.3-0.2 0.6-0.6h0.9v8.5zm6.5 0.1q-0.9 0-1.6-0.3-0.6-0.4-1-1-0.4-0.6-0.6-1.3-0.2-0.8-0.2-1.7 0-0.9 0.2-1.7 0.2-0.8 0.6-1.4 0.4-0.6 1-0.9 0.7-0.4 1.6-0.4 0.9 0 1.6 0.4 0.6 0.3 1 1 0.4 0.6 0.5 1.4 0.2 0.7 0.2 1.6 0 0.8-0.2 1.6-0.1 0.8-0.5 1.4-0.4 0.6-1 0.9-0.7 0.4-1.6 0.4zm0-1.2q0.6 0 1-0.3 0.4-0.3 0.7-0.7 0.2-0.5 0.2-1.1 0.1-0.5 0.1-1 0-0.5-0.1-1.1 0-0.6-0.2-1-0.3-0.5-0.7-0.8-0.4-0.3-1-0.3-0.7 0-1.1 0.3-0.4 0.3-0.6 0.8-0.3 0.4-0.3 1-0.1 0.5-0.1 1.1 0 0.5 0.1 1 0 0.6 0.3 1.1 0.2 0.4 0.6 0.7 0.4 0.3 1.1 0.3zm5.6 1.1l5.4-8.5h1.2l-5.3 8.5zm5.9 0.1q-0.6 0-1.1-0.3-0.4-0.2-0.6-0.7-0.2-0.4-0.2-1 0-0.6 0.2-1 0.2-0.4 0.7-0.7 0.4-0.2 1-0.2 0.5 0 0.9 0.2 0.4 0.3 0.7 0.7 0.2 0.4 0.2 1 0 0.6-0.3 1-0.2 0.5-0.6 0.7-0.4 0.3-0.9 0.3zm-0.1-1q0.3 0 0.5-0.1 0.2-0.2 0.3-0.4 0.1-0.2 0.1-0.5 0-0.2-0.1-0.4-0.1-0.3-0.3-0.4-0.2-0.1-0.5-0.1-0.4 0-0.6 0.3-0.2 0.3-0.2 0.6 0 0.4 0.2 0.7 0.2 0.3 0.6 0.3zm-4.9-3.8q-0.6 0-1-0.2-0.4-0.3-0.7-0.7-0.2-0.5-0.2-1 0-0.6 0.2-1.1 0.3-0.4 0.7-0.6 0.4-0.3 1-0.3 0.6 0 1 0.3 0.4 0.2 0.6 0.6 0.2 0.5 0.2 1.1 0 0.5-0.2 1-0.2 0.4-0.6 0.7-0.5 0.2-1 0.2zm0-1q0.3 0 0.4-0.1 0.2-0.2 0.3-0.4 0.1-0.2 0.1-0.4 0-0.3-0.1-0.5-0.1-0.2-0.3-0.4-0.1-0.1-0.4-0.1-0.5 0-0.7 0.3-0.2 0.3-0.2 0.7 0 0.3 0.2 0.6 0.2 0.3 0.7 0.3z"/>
	<path class="s13" d="m26 168.8c-0.3-2.2-0.5-3.3-0.1-4.2 0.5-1 1.5-1.5 3.4-2.7l1.1-0.7c1.8-1 2.6-1.5 3.6-1.5 1 0 1.8 0.5 3.6 1.5l1.1 0.7c1.9 1.2 2.9 1.7 3.4 2.7 0.4 0.9 0.2 2-0.1 4.2l-0.2 1.6c-0.4 2.8-0.6 4.2-1.6 5.1-1 0.8-2.4 0.8-5.3 0.8h-1.8c-2.9 0-4.3 0-5.3-0.8-1-0.9-1.2-2.3-1.6-5.1z"/>
	<path class="s14" d="m36.5 173h-5"/>
	<path class="s12" d="m61.3 173.1q-1.5 0-2.5-0.6-1.1-0.7-1.6-1.8-0.6-1.2-0.6-2.6 0-1.5 0.6-2.7 0.5-1.1 1.6-1.8 1-0.6 2.6-0.6 1.5 0 2.6 0.6 1 0.7 1.5 1.8 0.6 1.2 0.6 2.6 0 1.5-0.6 2.6-0.5 1.2-1.6 1.9-1 0.6-2.6 0.6zm0.1-1.3q1.1 0 1.8-0.6 0.7-0.5 1-1.3 0.4-0.9 0.4-1.8 0-0.8-0.2-1.5-0.2-0.6-0.6-1.1-0.4-0.6-1-0.9-0.6-0.3-1.4-0.3-1.1 0-1.9 0.6-0.7 0.5-1 1.3-0.4 0.9-0.4 1.9 0 0.9 0.4 1.8 0.3 0.8 1 1.3 0.7 0.6 1.9 0.6zm6.9 1.2v-6.1h-1.2v-1.3h1.2v-0.7q0-0.9 0.2-1.4 0.3-0.5 0.8-0.8 0.5-0.2 1.4-0.2h1v1.3h-0.8q-0.5 0-0.7 0.1-0.3 0.2-0.4 0.4-0.1 0.3-0.1 0.7v0.6h2v1.3h-2v6.1zm5.3 0v-6.1h-1.2v-1.3h1.2v-0.7q0-0.9 0.2-1.4 0.3-0.5 0.8-0.8 0.5-0.2 1.4-0.2h0.9v1.3h-0.8q-0.4 0-0.6 0.1-0.3 0.2-0.4 0.4-0.1 0.3-0.1 0.7v0.6h1.9v1.3h-1.9v6.1zm4.6 0v-9.9h1.4v9.9zm3.3 0v-7.4h1.4v7.4zm0.7-8.4q-0.4 0-0.7-0.2-0.2-0.3-0.2-0.7 0-0.4 0.3-0.6 0.2-0.3 0.6-0.3 0.4 0 0.7 0.3 0.3 0.2 0.3 0.6 0 0.4-0.3 0.7-0.3 0.2-0.7 0.2zm2.6 8.4v-7.4h1.3l0.1 1.1q0.3-0.4 0.7-0.7 0.4-0.2 0.8-0.3 0.5-0.2 0.9-0.2 1.1 0 1.7 0.5 0.6 0.4 0.8 1.2 0.3 0.8 0.3 1.7v4.1h-1.5v-3.8q0-0.4 0-0.9-0.1-0.4-0.3-0.7-0.1-0.4-0.5-0.6-0.3-0.2-0.8-0.2-0.7 0-1.2 0.4-0.4 0.3-0.7 1-0.2 0.6-0.2 1.3v3.5zm11.6 0.1q-1.1 0-1.9-0.5-0.8-0.5-1.2-1.3-0.4-0.9-0.4-2 0-1.1 0.4-1.9 0.4-0.9 1.2-1.4 0.8-0.5 1.9-0.5 0.9 0 1.5 0.3 0.6 0.4 1 0.9 0.5 0.5 0.7 1.2 0.2 0.6 0.1 1.3 0 0.2 0 0.3 0 0.2 0 0.3h-5.3q0 0.6 0.2 1 0.3 0.5 0.7 0.8 0.5 0.2 1.1 0.2 0.4 0 0.7 0 0.4-0.1 0.7-0.3 0.2-0.2 0.3-0.6h1.5q-0.2 0.8-0.7 1.3-0.4 0.4-1.1 0.7-0.6 0.2-1.4 0.2zm-2-4.4h3.9q0-0.6-0.3-1-0.2-0.4-0.6-0.7-0.4-0.2-1-0.2-0.7 0-1.1 0.2-0.4 0.3-0.7 0.7-0.2 0.5-0.2 1zm13.5 4.4q-0.5 0-1.1-0.1-0.5-0.1-0.9-0.4-0.5-0.2-0.8-0.6-0.3-0.5-0.4-1.1h1.5q0.1 0.3 0.4 0.5 0.3 0.3 0.6 0.4 0.4 0.1 0.7 0.1 0.3 0 0.5-0.1 0.3 0 0.5-0.1 0.2-0.1 0.4-0.3 0.2-0.2 0.2-0.5 0-0.3-0.2-0.4-0.1-0.2-0.4-0.3-0.2-0.1-0.5-0.2-0.6-0.1-1.4-0.2-0.7-0.2-1.2-0.5-0.2-0.1-0.4-0.3-0.1-0.1-0.2-0.4-0.1-0.2-0.2-0.4-0.1-0.2-0.1-0.5 0-0.6 0.3-1 0.2-0.4 0.6-0.7 0.4-0.2 0.9-0.3 0.6-0.2 1.1-0.2 0.8 0 1.4 0.3 0.6 0.2 1 0.7 0.4 0.4 0.4 1.1h-1.3q-0.1-0.4-0.5-0.6-0.4-0.2-1-0.2-0.2 0-0.5 0-0.2 0-0.4 0.1-0.3 0.1-0.4 0.3-0.1 0.2-0.1 0.5 0 0.2 0.1 0.4 0.1 0.2 0.4 0.3 0.2 0.1 0.6 0.2 0.5 0.1 1 0.2 0.6 0.1 0.9 0.2 0.5 0.1 0.8 0.4 0.3 0.2 0.5 0.6 0.2 0.3 0.2 0.9 0 0.6-0.3 1.1-0.3 0.4-0.7 0.6-0.4 0.3-1 0.4-0.5 0.1-1 0.1zm7.2 0q-1.2 0-1.7-0.7-0.5-0.6-0.5-1.8v-3.7h-1.2v-1.3h1.2v-2.1h1.5v2.1h2.2v1.3h-2.2v3.5q0 0.4 0 0.7 0.1 0.3 0.3 0.5 0.3 0.2 0.7 0.2 0.3 0 0.5-0.1 0.3-0.1 0.5-0.3l0.5 1.1q-0.3 0.2-0.5 0.3-0.3 0.2-0.6 0.2-0.3 0.1-0.7 0.1zm6.2 0q-1.2 0-2-0.5-0.8-0.5-1.2-1.3-0.4-0.9-0.4-2 0-1.1 0.4-2 0.4-0.8 1.2-1.3 0.8-0.5 2-0.5 1.1 0 1.9 0.5 0.8 0.5 1.2 1.3 0.4 0.9 0.4 2 0 1.1-0.4 2-0.4 0.8-1.2 1.3-0.8 0.5-1.9 0.5zm0-1.3q0.7 0 1.2-0.3 0.5-0.4 0.7-0.9 0.2-0.6 0.2-1.3 0-0.7-0.2-1.2-0.2-0.6-0.7-0.9-0.5-0.4-1.2-0.4-0.8 0-1.2 0.4-0.5 0.3-0.7 0.9-0.3 0.5-0.3 1.2 0 0.7 0.3 1.3 0.2 0.5 0.7 0.9 0.4 0.3 1.2 0.3zm5 1.2v-7.4h1.4l0.1 1.1q0.3-0.4 0.6-0.7 0.4-0.3 0.8-0.4 0.5-0.1 0.9-0.1 0.2 0 0.3 0 0.1 0 0.2 0v1.4h-0.5q-0.8 0-1.3 0.3-0.5 0.4-0.8 0.9-0.2 0.6-0.2 1.3v3.6zm8.4 0.1q-1.1 0-1.9-0.5-0.8-0.5-1.2-1.3-0.4-0.9-0.4-2 0-1.1 0.4-1.9 0.4-0.9 1.2-1.4 0.8-0.5 1.9-0.5 0.9 0 1.5 0.3 0.7 0.4 1.1 0.9 0.4 0.5 0.6 1.2 0.2 0.6 0.2 1.3 0 0.2-0.1 0.3 0 0.2 0 0.3h-5.3q0 0.6 0.3 1 0.2 0.5 0.7 0.8 0.4 0.2 1.1 0.2 0.3 0 0.7 0 0.3-0.1 0.6-0.3 0.3-0.2 0.4-0.6h1.4q-0.2 0.8-0.6 1.3-0.5 0.4-1.2 0.7-0.6 0.2-1.4 0.2zm-2-4.4h3.9q0-0.6-0.2-1-0.3-0.4-0.7-0.7-0.4-0.2-1-0.2-0.6 0-1.1 0.2-0.4 0.3-0.6 0.7-0.3 0.5-0.3 1z"/>
	<path class="s3" d="m550 174.9v-1.9q-0.8-0.1-1.5-0.4-0.7-0.3-1.1-0.9-0.5-0.6-0.6-1.4h1.5q0.2 0.5 0.6 0.9 0.4 0.3 0.9 0.4 0.6 0.2 1.1 0.2 0.5 0 1-0.2 0.5-0.1 0.7-0.4 0.3-0.4 0.3-0.9 0-0.4-0.1-0.6-0.2-0.3-0.5-0.4-0.3-0.2-0.6-0.3-0.6-0.2-1.1-0.3-0.6-0.1-1.1-0.2-0.5-0.1-1-0.4-0.6-0.3-1-0.9-0.4-0.5-0.4-1.4 0-0.9 0.4-1.5 0.4-0.6 1.1-0.9 0.7-0.3 1.4-0.4v-1.8h1.5v1.8q0.7 0.1 1.3 0.5 0.6 0.3 1 0.9 0.3 0.5 0.4 1.4h-1.5q0-0.6-0.3-0.9-0.3-0.3-0.8-0.4-0.4-0.2-0.9-0.2-0.5 0-1 0.1-0.5 0.2-0.8 0.5-0.3 0.3-0.3 0.8 0 0.3 0.2 0.6 0.1 0.2 0.3 0.4 0.3 0.2 0.5 0.3 0.6 0.2 1.4 0.4 0.7 0.1 1.3 0.3 0.7 0.2 1.1 0.5 0.5 0.3 0.8 0.8 0.2 0.4 0.2 1.1 0 1-0.4 1.6-0.4 0.6-1.1 1-0.7 0.3-1.5 0.4v1.8zm9.4-1.8q-0.6 0-1.3-0.1-0.6-0.2-1.1-0.5-0.5-0.3-0.9-0.7-0.3-0.5-0.4-1.2h1.5q0.1 0.4 0.5 0.7 0.3 0.2 0.8 0.3 0.4 0.2 0.9 0.2 0.3 0 0.7-0.1 0.3-0.1 0.6-0.2 0.4-0.2 0.5-0.5 0.2-0.3 0.2-0.8 0-0.5-0.1-0.8-0.2-0.3-0.5-0.5-0.3-0.2-0.7-0.2-0.4-0.1-0.8-0.1h-1v-1.3h0.6q0.5 0 0.9-0.1 0.4-0.1 0.7-0.2 0.2-0.2 0.4-0.5 0.2-0.3 0.2-0.7 0-0.6-0.3-0.9-0.2-0.3-0.6-0.4-0.4-0.2-0.9-0.2-0.4 0-0.8 0.2-0.4 0.1-0.7 0.3-0.3 0.3-0.4 0.7h-1.4q0.1-0.7 0.4-1.2 0.3-0.4 0.8-0.7 0.4-0.3 1-0.5 0.6-0.1 1.2-0.1 0.6 0 1.2 0.1 0.6 0.2 1 0.5 0.4 0.3 0.7 0.8 0.3 0.5 0.3 1.2 0 0.5-0.2 0.9-0.2 0.4-0.5 0.7-0.3 0.3-0.7 0.5 0.6 0.2 1 0.5 0.4 0.3 0.6 0.8 0.2 0.5 0.2 1.1 0 0.9-0.4 1.5-0.3 0.6-0.8 0.9-0.6 0.3-1.2 0.5-0.6 0.1-1.2 0.1zm5.6 1.7l-0.4-0.6q0.2-0.1 0.4-0.3 0.2-0.2 0.4-0.4 0.1-0.2 0.2-0.5-0.4 0-0.6-0.2-0.3-0.3-0.3-0.7 0-0.4 0.3-0.6 0.3-0.3 0.7-0.3 0.4 0 0.7 0.4 0.3 0.3 0.3 0.9 0 0.5-0.2 1-0.3 0.5-0.7 0.8-0.3 0.4-0.8 0.5zm3.9-1.8l3.9-8.5h-5.1v-1.4h6.7v1.2l-3.9 8.7zm10.5 0.1q-1.1 0-1.8-0.4-0.7-0.4-1.2-1-0.5-0.7-0.7-1.7-0.2-0.9-0.2-1.9 0-1.1 0.2-2 0.2-0.9 0.7-1.6 0.5-0.7 1.2-1.1 0.8-0.4 1.8-0.4 1.1 0 1.9 0.4 0.7 0.4 1.2 1.2 0.4 0.7 0.6 1.6 0.2 0.9 0.2 1.9 0 0.9-0.2 1.8-0.2 0.9-0.6 1.7-0.5 0.7-1.2 1.1-0.8 0.4-1.9 0.4zm0-1.3q0.8 0 1.3-0.4 0.4-0.3 0.7-0.9 0.2-0.6 0.3-1.2 0.1-0.6 0.1-1.2 0-0.6-0.1-1.3-0.1-0.6-0.3-1.2-0.3-0.6-0.7-0.9-0.5-0.4-1.3-0.4-0.8 0-1.2 0.4-0.5 0.3-0.8 0.9-0.2 0.6-0.3 1.2-0.1 0.7-0.1 1.3 0 0.6 0.1 1.2 0.1 0.6 0.3 1.2 0.3 0.6 0.7 0.9 0.5 0.4 1.3 0.4zm9.3 1.3q-1 0-1.8-0.4-0.7-0.4-1.2-1-0.4-0.7-0.7-1.7-0.2-0.9-0.2-1.9 0-1.1 0.2-2 0.2-0.9 0.7-1.6 0.5-0.7 1.2-1.1 0.8-0.4 1.8-0.4 1.1 0 1.9 0.4 0.7 0.4 1.2 1.2 0.5 0.7 0.6 1.6 0.2 0.9 0.2 1.9 0 0.9-0.2 1.8-0.2 0.9-0.6 1.7-0.5 0.7-1.2 1.1-0.8 0.4-1.9 0.4zm0-1.3q0.8 0 1.3-0.4 0.4-0.3 0.7-0.9 0.3-0.6 0.3-1.2 0.1-0.6 0.1-1.2 0-0.6-0.1-1.3 0-0.6-0.3-1.2-0.3-0.6-0.7-0.9-0.5-0.4-1.3-0.4-0.7 0-1.2 0.4-0.5 0.3-0.8 0.9-0.2 0.6-0.3 1.2-0.1 0.7-0.1 1.3 0 0.6 0.1 1.2 0.1 0.6 0.3 1.2 0.3 0.6 0.8 0.9 0.4 0.4 1.2 0.4zm6.3 1.3q-0.4 0-0.7-0.2-0.2-0.3-0.2-0.7 0-0.5 0.2-0.7 0.3-0.3 0.7-0.3 0.4 0 0.7 0.3 0.3 0.2 0.3 0.7 0 0.4-0.3 0.7-0.3 0.2-0.7 0.2zm6.3 0q-1.1 0-1.8-0.4-0.7-0.4-1.2-1-0.5-0.7-0.7-1.7-0.2-0.9-0.2-1.9 0-1.1 0.2-2 0.2-0.9 0.7-1.6 0.5-0.7 1.2-1.1 0.8-0.4 1.8-0.4 1.1 0 1.9 0.4 0.7 0.4 1.2 1.2 0.4 0.7 0.6 1.6 0.2 0.9 0.2 1.9 0 0.9-0.2 1.8-0.2 0.9-0.6 1.7-0.5 0.7-1.2 1.1-0.8 0.4-1.9 0.4zm0-1.3q0.8 0 1.3-0.4 0.4-0.3 0.7-0.9 0.2-0.6 0.3-1.2 0.1-0.6 0.1-1.2 0-0.6-0.1-1.3-0.1-0.6-0.3-1.2-0.3-0.6-0.7-0.9-0.5-0.4-1.3-0.4-0.8 0-1.3 0.4-0.4 0.3-0.7 0.9-0.2 0.6-0.3 1.2-0.1 0.7-0.1 1.3 0 0.6 0.1 1.2 0.1 0.6 0.3 1.2 0.3 0.6 0.7 0.9 0.5 0.4 1.3 0.4zm9.3 1.3q-1 0-1.8-0.4-0.7-0.4-1.2-1-0.5-0.7-0.7-1.7-0.2-0.9-0.2-1.9 0-1.1 0.2-2 0.2-0.9 0.7-1.6 0.5-0.7 1.2-1.1 0.8-0.4 1.8-0.4 1.1 0 1.9 0.4 0.7 0.4 1.2 1.2 0.4 0.7 0.6 1.6 0.2 0.9 0.2 1.9 0 0.9-0.2 1.8-0.2 0.9-0.6 1.7-0.5 0.7-1.2 1.1-0.8 0.4-1.9 0.4zm0-1.3q0.8 0 1.3-0.4 0.4-0.3 0.7-0.9 0.2-0.6 0.3-1.2 0.1-0.6 0.1-1.2 0-0.6-0.1-1.3-0.1-0.6-0.3-1.2-0.3-0.6-0.7-0.9-0.5-0.4-1.3-0.4-0.8 0-1.2 0.4-0.5 0.3-0.8 0.9-0.2 0.6-0.3 1.2-0.1 0.7-0.1 1.3 0 0.6 0.1 1.2 0.1 0.6 0.3 1.2 0.3 0.6 0.7 0.9 0.5 0.4 1.3 0.4z"/>
	<path class="s15" d="m622.8 168.6v-1.1h3.9v1.1zm8.4 3q-0.6 0-1.1-0.1-0.5-0.2-0.9-0.4-0.4-0.3-0.6-0.7-0.3-0.4-0.4-1h1.3q0.1 0.3 0.3 0.5 0.3 0.3 0.6 0.4 0.4 0.1 0.7 0.1 0.6 0 1-0.1 0.4-0.2 0.6-0.6 0.3-0.4 0.3-0.9 0-0.8-0.5-1.2-0.5-0.5-1.3-0.5-0.4 0-0.8 0.2-0.4 0.2-0.8 0.4h-1.2l0.3-4.7h5.3v1.2h-4.1l-0.2 2.3q0.3-0.2 0.8-0.4 0.5-0.1 1.1-0.1 0.8 0 1.4 0.3 0.6 0.4 0.9 1 0.4 0.6 0.4 1.4 0 0.9-0.4 1.6-0.5 0.6-1.2 1-0.7 0.3-1.5 0.3zm5.4-0.1l5.3-8.5h1.3l-5.3 8.5zm5.8 0.1q-0.6 0-1-0.3-0.4-0.2-0.7-0.7-0.2-0.4-0.2-1 0-0.6 0.2-1 0.3-0.4 0.7-0.7 0.4-0.2 1-0.2 0.6 0 1 0.2 0.4 0.3 0.6 0.7 0.2 0.4 0.2 1 0 0.6-0.2 1-0.2 0.5-0.6 0.7-0.5 0.3-1 0.3zm0-1q0.3 0 0.5-0.1 0.1-0.2 0.2-0.4 0.1-0.2 0.1-0.5 0-0.2-0.1-0.4-0.1-0.3-0.2-0.4-0.2-0.1-0.5-0.1-0.5 0-0.7 0.3-0.2 0.3-0.2 0.6 0 0.4 0.2 0.7 0.2 0.3 0.7 0.3zm-5-3.8q-0.6 0-1-0.2-0.4-0.3-0.6-0.7-0.2-0.5-0.2-1 0-0.6 0.2-1.1 0.2-0.4 0.6-0.6 0.4-0.3 1-0.3 0.6 0 1 0.3 0.4 0.2 0.6 0.6 0.2 0.5 0.2 1.1 0 0.5-0.2 1-0.2 0.4-0.6 0.7-0.4 0.2-1 0.2zm0-1q0.3 0 0.5-0.1 0.2-0.2 0.2-0.4 0.1-0.2 0.1-0.4 0-0.3-0.1-0.5 0-0.2-0.2-0.4-0.2-0.1-0.5-0.1-0.4 0-0.7 0.3-0.1 0.3-0.1 0.7 0 0.3 0.1 0.6 0.3 0.3 0.7 0.3z"/>
	<path class="s16" d="m24 275h26.5l22.1 28.4h25.5l19.6-28.4h40l28.1-37.6h33.5l24.6-35.4h21.5l23 35.4h27.1l21.5 28.5h65.6l13 15h28.6l28.5-37.6h34.1l21.5-35.9h24.6l23 35.9h27.5l21.1 27.9h20.5"/>
	<path fill-rule="evenodd" class="s4" d="m24 277.1h21v70.9h-21z"/>
	<path fill-rule="evenodd" class="s4" d="m75.1 305.1h21v42.9h-21z"/>
	<path fill-rule="evenodd" class="s4" d="m124.2 277.1h21v70.9h-21z"/>
	<path fill-rule="evenodd" class="s4" d="m199.3 239.6h21v108.4h-21z"/>
	<path fill-rule="evenodd" class="s4" d="m350.5 268.6h21.1v79.4h-21.1z"/>
	<path fill-rule="evenodd" class="s4" d="m375.6 268.6h21v79.4h-21z"/>
	<path fill-rule="evenodd" class="s4" d="m425.6 283.6h21.1v64.4h-21.1z"/>
	<path fill-rule="evenodd" class="s4" d="m475.7 246h21.1v102h-21.1z"/>
	<path fill-rule="evenodd" class="s4" d="m575.9 246h21v102h-21z"/>
	<path fill-rule="evenodd" class="s4" d="m624 273.9h21v74.1h-21z"/>
	<path class="s4" d="m600.9 246l21.1 27.4v74.6h-21.1z"/>
	<path class="s4" d="m550.8 210.6l21.1 31.7v105.7h-21.1z"/>
	<path class="s4" d="m525.8 216l3-5.4h18v137.4h-21z"/>
	<path class="s4" d="m500.8 246h5.2l2.8-1.1 2-2.1 11-19.3v124.5h-21z"/>
	<path class="s4" d="m450.7 278.2l21-27.9v97.7h-21z"/>
	<path class="s4" d="m400.6 268.6l12 13.9 9 1.1v64.4h-21z"/>
	<path class="s4" d="m325.5 254.6l10 14h11v79.4h-21z"/>
	<path class="s4" d="m300.4 239.6h14.6l6.5 8.6v99.8h-21.1z"/>
	<path class="s4" d="m274.4 220.3l12.5 19.3h9.5l-1 107.3h-21z"/>
	<path class="s4" d="m249.4 204.1h15l6 9.2v133.6h-21z"/>
	<path class="s4" d="m224.3 233.1l21.1-29.5v144.4h-21.1z"/>
	<path class="s4" d="m174.2 256.1l12.6-16.5h8.5v108.4h-21.1z"/>
	<path class="s4" d="m149.2 277.1h10l11-15v85.9h-21z"/>
	<path class="s4" d="m99.1 305.1l21.1-29v71.9h-21.1z"/>
	<path class="s4" d="m48 277.1l23 29.9v41h-23z"/>
	<path class="s2" d="m43.4 368.1q-0.6 0-1.1-0.1-0.4-0.2-0.8-0.5-0.3-0.3-0.5-0.7-0.2-0.5-0.2-1.1h1q0.1 0.4 0.2 0.8 0.2 0.3 0.6 0.5 0.3 0.1 0.8 0.1 0.6 0 0.9-0.2 0.3-0.2 0.5-0.7 0.1-0.4 0.1-0.9v-5.8h1.1v5.6q0 0.6-0.2 1.2-0.1 0.5-0.4 1-0.3 0.4-0.8 0.6-0.5 0.2-1.2 0.2zm6.4 0q-0.4 0-0.8-0.1-0.4-0.2-0.8-0.4-0.3-0.2-0.5-0.6-0.1-0.3-0.1-0.8 0-0.5 0.2-0.9 0.2-0.4 0.5-0.6 0.3-0.2 0.8-0.3 0.4-0.1 0.9-0.1h1.9q0-0.5-0.2-0.9-0.1-0.4-0.5-0.7-0.3-0.2-0.9-0.2-0.3 0-0.6 0.1-0.3 0.1-0.5 0.2-0.2 0.2-0.3 0.4h-1.1q0.1-0.4 0.3-0.7 0.3-0.3 0.6-0.5 0.4-0.2 0.8-0.3 0.4-0.1 0.8-0.1 1.4 0 2 0.8 0.6 0.8 0.6 2.2v3.4h-0.9l-0.1-0.8q-0.2 0.4-0.6 0.5-0.4 0.2-0.8 0.3-0.3 0.1-0.7 0.1zm0.1-0.9q0.6 0 1-0.2 0.5-0.2 0.7-0.6 0.3-0.4 0.3-0.9v-0.4h-1.2q-0.4 0-0.7 0.1-0.4 0-0.7 0.1-0.3 0-0.5 0.2-0.2 0.2-0.2 0.6 0 0.4 0.2 0.6 0.2 0.2 0.5 0.4 0.3 0.1 0.6 0.1zm4.6 0.8v-6.3h0.9l0.1 0.9q0.2-0.3 0.5-0.5 0.4-0.3 0.8-0.4 0.4-0.1 0.8-0.1 0.9 0 1.4 0.4 0.5 0.4 0.7 1 0.3 0.7 0.3 1.5v3.5h-1v-3.2q0-0.5-0.1-0.9-0.1-0.4-0.2-0.7-0.2-0.3-0.5-0.5-0.3-0.2-0.8-0.2-0.6 0-1 0.4-0.5 0.3-0.7 0.9-0.2 0.6-0.2 1.3v2.9z"/>
	<path class="s2" d="m112 368v-8.5h5.7v1h-4.6v3.1h4v1h-4v3.4zm9.4 0.1q-1 0-1.7-0.4-0.7-0.5-1-1.2-0.3-0.7-0.3-1.7 0-0.9 0.3-1.6 0.4-0.8 1-1.2 0.7-0.4 1.7-0.4 0.7 0 1.2 0.3 0.6 0.3 0.9 0.7 0.4 0.5 0.5 1.1 0.2 0.5 0.1 1.1 0 0.1 0 0.2 0 0.1 0 0.2h-4.7q0.1 0.6 0.3 1 0.2 0.5 0.6 0.7 0.5 0.3 1.1 0.3 0.3 0 0.6-0.1 0.3-0.1 0.6-0.3 0.3-0.2 0.4-0.5h1q-0.1 0.6-0.5 1-0.4 0.4-1 0.6-0.5 0.2-1.1 0.2zm-2-3.8h3.7q0-0.5-0.2-0.9-0.3-0.4-0.7-0.7-0.3-0.2-0.9-0.2-0.6 0-1 0.3-0.4 0.2-0.6 0.6-0.2 0.4-0.3 0.9zm9.1 3.8q-0.4 0-0.8-0.1-0.3-0.1-0.6-0.3-0.3-0.2-0.6-0.5v0.8h-1v-8.5h1v3.1q0.4-0.5 0.9-0.7 0.6-0.3 1.2-0.3 1 0 1.6 0.4 0.6 0.5 0.9 1.2 0.3 0.7 0.3 1.6 0 0.9-0.3 1.7-0.3 0.7-1 1.1-0.6 0.5-1.6 0.5zm0-0.9q0.7 0 1.1-0.3 0.4-0.4 0.6-0.9 0.2-0.5 0.2-1.2 0-0.6-0.2-1.1-0.2-0.6-0.6-0.9-0.4-0.3-1.1-0.3-0.6 0-1.1 0.4-0.4 0.3-0.6 0.9-0.3 0.5-0.3 1.1 0 0.6 0.2 1.1 0.2 0.5 0.7 0.8 0.4 0.4 1.1 0.4z"/>
	<path class="s2" d="m183.3 368v-8.5h1.6l2.5 4.7 2.6-4.7h1.5v8.5h-1v-7.4l-2.8 5.2h-0.5l-2.8-5.2v7.4zm12 0.1q-0.4 0-0.8-0.1-0.4-0.2-0.7-0.4-0.3-0.2-0.5-0.6-0.2-0.3-0.2-0.8 0-0.5 0.2-0.9 0.2-0.4 0.5-0.6 0.4-0.2 0.8-0.3 0.5-0.1 0.9-0.1h1.9q0-0.5-0.2-0.9-0.1-0.4-0.4-0.7-0.4-0.2-0.9-0.2-0.4 0-0.6 0.1-0.3 0.1-0.5 0.2-0.2 0.2-0.3 0.4h-1.1q0.1-0.4 0.3-0.7 0.2-0.3 0.6-0.5 0.4-0.2 0.8-0.3 0.4-0.1 0.8-0.1 1.3 0 1.9 0.8 0.6 0.8 0.6 2.2v3.4h-0.9v-0.8q-0.3 0.4-0.7 0.5-0.3 0.2-0.7 0.3-0.4 0.1-0.8 0.1zm0.1-0.9q0.6 0 1.1-0.2 0.4-0.2 0.7-0.6 0.2-0.4 0.2-0.9v-0.4h-1.1q-0.4 0-0.8 0.1-0.4 0-0.7 0.1-0.3 0-0.5 0.2-0.2 0.2-0.2 0.6 0 0.4 0.2 0.6 0.2 0.2 0.5 0.4 0.3 0.1 0.6 0.1zm4.6 0.8v-6.3h1v1q0.3-0.4 0.6-0.6 0.3-0.3 0.7-0.4 0.4-0.1 0.8-0.1 0.1 0 0.2 0 0.1 0 0.2 0v1h-0.4q-0.7 0-1.2 0.3-0.5 0.3-0.7 0.8-0.2 0.6-0.2 1.2v3.1z"/>
	<path class="s2" d="m253.7 368l3.2-8.5h1.5l3.1 8.5h-1.1l-0.7-1.8h-4.2l-0.7 1.8zm2.2-2.8h3.5l-1.8-4.8zm6.6 5.1v-8.6h1l0.1 0.9q0.3-0.5 0.8-0.7 0.6-0.3 1.3-0.3 0.9 0 1.5 0.4 0.6 0.5 0.9 1.2 0.3 0.7 0.3 1.6 0 1-0.3 1.7-0.3 0.7-0.9 1.2-0.6 0.4-1.6 0.4-0.5 0-0.9-0.1-0.3-0.1-0.6-0.3-0.3-0.2-0.5-0.5v3.1zm2.9-3.1q0.7 0 1.1-0.3 0.5-0.4 0.6-0.9 0.2-0.5 0.2-1.2 0-0.6-0.2-1.1-0.1-0.6-0.6-0.9-0.4-0.3-1.1-0.3-0.6 0-1.1 0.3-0.4 0.4-0.6 0.9-0.2 0.5-0.2 1.2 0 0.6 0.2 1.1 0.2 0.6 0.6 0.9 0.5 0.3 1.1 0.3zm4.3 0.8v-6.3h1l0.1 1q0.2-0.4 0.5-0.6 0.3-0.3 0.7-0.4 0.4-0.1 0.9-0.1 0.1 0 0.1 0 0.1 0 0.2 0v1h-0.4q-0.7 0-1.2 0.3-0.4 0.3-0.6 0.8-0.3 0.6-0.3 1.2v3.1z"/>
	<path class="s2" d="m324.5 368v-8.5h1.6l2.5 4.7 2.5-4.7h1.6v8.5h-1.1v-7.4l-2.8 5.2h-0.5l-2.8-5.2v7.4zm12.1 0.1q-0.4 0-0.8-0.1-0.4-0.2-0.8-0.4-0.3-0.2-0.5-0.6-0.1-0.3-0.1-0.8 0-0.5 0.2-0.9 0.2-0.4 0.5-0.6 0.3-0.2 0.8-0.3 0.4-0.1 0.9-0.1h1.9q0-0.5-0.2-0.9-0.1-0.4-0.5-0.7-0.3-0.2-0.9-0.2-0.3 0-0.6 0.1-0.3 0.1-0.5 0.2-0.2 0.2-0.3 0.4h-1.1q0.1-0.4 0.3-0.7 0.3-0.3 0.6-0.5 0.4-0.2 0.8-0.3 0.4-0.1 0.8-0.1 1.4 0 2 0.8 0.6 0.8 0.6 2.2v3.4h-0.9l-0.1-0.8q-0.2 0.4-0.6 0.5-0.4 0.2-0.8 0.3-0.3 0.1-0.7 0.1zm0.1-0.9q0.6 0 1-0.2 0.5-0.2 0.7-0.6 0.3-0.4 0.3-0.9v-0.4h-1.2q-0.4 0-0.7 0.1-0.4 0-0.7 0.1-0.3 0-0.5 0.2-0.2 0.2-0.2 0.6 0 0.4 0.2 0.6 0.2 0.2 0.5 0.4 0.3 0.1 0.6 0.1zm7.3 3.6q-0.7 0-1.4-0.2-0.6-0.2-1.2-0.7l0.5-0.8q0.4 0.4 1 0.6 0.5 0.2 1.1 0.2 1 0 1.4-0.6 0.4-0.5 0.4-1.4v-0.8q-0.2 0.4-0.5 0.6-0.4 0.2-0.8 0.3-0.3 0.1-0.8 0.1-0.9 0-1.4-0.4-0.6-0.3-0.8-1-0.2-0.7-0.2-1.5v-3.5h1v3.2q0 0.4 0 0.8 0.1 0.4 0.3 0.8 0.1 0.3 0.4 0.5 0.4 0.2 0.9 0.2 0.7 0 1.1-0.3 0.4-0.4 0.6-0.9 0.2-0.6 0.2-1.3v-3h1v6.3q0 0.7-0.2 1.2-0.1 0.5-0.5 0.9-0.4 0.4-0.9 0.5-0.5 0.2-1.2 0.2z"/>
	<path class="s2" d="m400.8 368.1q-0.6 0-1.1-0.1-0.5-0.2-0.8-0.5-0.3-0.3-0.5-0.7-0.2-0.5-0.3-1.1h1.1q0 0.4 0.2 0.8 0.2 0.3 0.5 0.5 0.4 0.1 0.9 0.1 0.6 0 0.9-0.2 0.3-0.2 0.5-0.7 0.1-0.4 0.1-0.9v-5.8h1v5.6q0 0.6-0.1 1.2-0.1 0.5-0.4 1-0.3 0.4-0.8 0.6-0.5 0.2-1.2 0.2zm7 0q-1.3 0-2-0.7-0.7-0.7-0.7-2.2v-3.5h1v3.5q0 0.6 0.2 1.1 0.2 0.4 0.6 0.6 0.3 0.3 0.9 0.3 0.6 0 0.9-0.3 0.4-0.2 0.6-0.6 0.2-0.5 0.2-1.1v-3.5h1v3.5q0 1.5-0.7 2.2-0.7 0.7-2 0.7zm4.3-0.1v-6.3h1v0.9q0.2-0.3 0.6-0.5 0.3-0.3 0.7-0.4 0.4-0.1 0.8-0.1 0.9 0 1.4 0.4 0.6 0.4 0.8 1 0.2 0.7 0.2 1.5v3.5h-1v-3.2q0-0.5-0.1-0.9 0-0.4-0.2-0.7-0.1-0.3-0.4-0.5-0.3-0.2-0.8-0.2-0.7 0-1.1 0.4-0.4 0.3-0.7 0.9-0.2 0.6-0.2 1.3v2.9z"/>
	<path class="s2" d="m471.6 368.1q-0.7 0-1.2-0.1-0.4-0.2-0.8-0.5-0.3-0.3-0.5-0.7-0.2-0.5-0.2-1.1h1q0.1 0.4 0.2 0.8 0.2 0.3 0.6 0.5 0.3 0.1 0.9 0.1 0.5 0 0.8-0.2 0.4-0.2 0.5-0.7 0.1-0.4 0.1-0.9v-5.8h1.1v5.6q0 0.6-0.2 1.2-0.1 0.5-0.4 1-0.3 0.4-0.8 0.6-0.5 0.2-1.1 0.2zm6.9 0q-1.3 0-2-0.7-0.6-0.7-0.6-2.2v-3.5h1v3.5q0 0.6 0.2 1.1 0.1 0.4 0.5 0.6 0.4 0.3 0.9 0.3 0.6 0 1-0.3 0.3-0.2 0.5-0.6 0.2-0.5 0.2-1.1v-3.5h1v3.5q0 1.5-0.7 2.2-0.7 0.7-2 0.7zm4.3-0.1v-8.5h1v8.5z"/>
	<path class="s2" d="m535 368l3.2-8.5h1.5l3.1 8.5h-1.1l-0.7-1.8h-4.2l-0.7 1.8zm2.2-2.8h3.5l-1.8-4.8zm9.3 2.9q-1.3 0-2-0.7-0.7-0.7-0.7-2.2v-3.5h1v3.5q0 0.6 0.2 1.1 0.2 0.4 0.5 0.6 0.4 0.3 1 0.3 0.5 0 0.9-0.3 0.4-0.2 0.6-0.6 0.1-0.5 0.1-1.1v-3.5h1.1v3.5q0 1.5-0.7 2.2-0.7 0.7-2 0.7zm7 2.7q-0.6 0-1.2-0.2-0.5-0.2-0.9-0.6-0.4-0.4-0.5-1.1h1q0.1 0.4 0.4 0.6 0.2 0.2 0.6 0.3 0.3 0.1 0.7 0.1 0.6 0 1-0.2 0.4-0.3 0.6-0.8 0.2-0.4 0.2-1v-0.8q-0.2 0.3-0.6 0.5-0.3 0.3-0.7 0.4-0.4 0.1-0.8 0.1-1 0-1.6-0.4-0.6-0.5-0.9-1.2-0.3-0.7-0.3-1.6 0-1 0.3-1.7 0.3-0.7 0.9-1.2 0.7-0.4 1.6-0.4 0.6 0 1.2 0.2 0.5 0.2 0.9 0.7v-0.8h1v6.3q0 0.8-0.3 1.5-0.3 0.6-1 1-0.6 0.3-1.6 0.3zm-0.1-3.6q0.7 0 1.1-0.4 0.4-0.3 0.7-0.8 0.2-0.6 0.2-1.2 0-0.7-0.2-1.2-0.2-0.5-0.7-0.8-0.4-0.3-1.1-0.3-0.7 0-1.1 0.3-0.4 0.3-0.6 0.9-0.2 0.5-0.2 1.1 0 0.7 0.2 1.2 0.2 0.6 0.6 0.9 0.5 0.3 1.1 0.3z"/>
	<path class="s2" d="m611.1 368.1q-0.8 0-1.5-0.2-0.7-0.2-1.2-0.8-0.5-0.5-0.7-1.3h1.1q0.1 0.5 0.5 0.8 0.4 0.3 0.9 0.4 0.5 0.1 1 0.1 0.5 0 0.9-0.1 0.4-0.1 0.7-0.4 0.3-0.4 0.3-0.8 0-0.4-0.2-0.7-0.1-0.2-0.4-0.4-0.2-0.1-0.5-0.2-0.5-0.1-1-0.2-0.5-0.1-1-0.3-0.5-0.1-0.9-0.3-0.2-0.1-0.4-0.3-0.2-0.2-0.4-0.4-0.1-0.2-0.2-0.5-0.1-0.3-0.1-0.7 0-0.5 0.2-0.9 0.1-0.4 0.4-0.7 0.3-0.3 0.7-0.5 0.4-0.1 0.8-0.2 0.4-0.1 0.9-0.1 0.7 0 1.4 0.2 0.6 0.3 1 0.8 0.5 0.4 0.5 1.3h-1q-0.1-0.5-0.4-0.8-0.2-0.3-0.7-0.4-0.4-0.1-0.8-0.1-0.4 0-0.7 0-0.3 0.1-0.6 0.2-0.3 0.2-0.5 0.5-0.1 0.2-0.1 0.6 0 0.3 0.1 0.6 0.1 0.2 0.3 0.4 0.2 0.1 0.4 0.2 0.6 0.3 1.3 0.4 0.7 0.1 1.3 0.3 0.4 0.1 0.7 0.3 0.3 0.2 0.5 0.4 0.2 0.3 0.3 0.6 0.1 0.3 0.1 0.7 0 0.7-0.2 1.2-0.3 0.4-0.7 0.7-0.4 0.3-0.9 0.5-0.6 0.1-1.2 0.1zm7.3 0q-1 0-1.7-0.4-0.6-0.5-1-1.2-0.3-0.7-0.3-1.7 0-0.9 0.4-1.6 0.3-0.8 1-1.2 0.6-0.4 1.6-0.4 0.7 0 1.3 0.3 0.5 0.3 0.8 0.7 0.4 0.5 0.5 1.1 0.2 0.5 0.2 1.1 0 0.1 0 0.2 0 0.1-0.1 0.2h-4.6q0 0.6 0.2 1 0.3 0.5 0.7 0.7 0.4 0.3 1 0.3 0.3 0 0.6-0.1 0.4-0.1 0.6-0.3 0.3-0.2 0.4-0.5h1q-0.1 0.6-0.5 1-0.4 0.4-1 0.6-0.5 0.2-1.1 0.2zm-1.9-3.8h3.6q0-0.5-0.2-0.9-0.2-0.4-0.6-0.7-0.4-0.2-1-0.2-0.5 0-1 0.3-0.3 0.2-0.6 0.6-0.2 0.4-0.2 0.9zm6.1 6v-8.6h0.9l0.1 0.9q0.3-0.5 0.9-0.7 0.5-0.3 1.2-0.3 0.9 0 1.5 0.4 0.7 0.5 0.9 1.2 0.3 0.7 0.3 1.6 0 1-0.3 1.7-0.3 0.7-0.9 1.2-0.6 0.4-1.6 0.4-0.5 0-0.8-0.1-0.4-0.1-0.7-0.3-0.3-0.2-0.5-0.5v3.1zm3-3.1q0.7 0 1.1-0.3 0.4-0.4 0.5-0.9 0.2-0.5 0.2-1.2 0-0.6-0.2-1.1-0.1-0.6-0.6-0.9-0.4-0.3-1.1-0.3-0.6 0-1 0.3-0.5 0.4-0.7 0.9-0.2 0.5-0.2 1.2 0 0.6 0.2 1.1 0.2 0.6 0.7 0.9 0.4 0.3 1.1 0.3z"/>
</svg>