<svg width="471" height="200" viewBox="0 0 471 200" fill="none" xmlns="http://www.w3.org/2000/svg">
<rect width="471" height="200" rx="16" fill="white"/>
<rect x="0.5" y="0.5" width="470" height="199" rx="15.5" stroke="#030E09" stroke-opacity="0.05"/>
<path d="M23.374 35V26.208H20.196V25.102H27.77V26.208H24.592V35H23.374ZM31.4594 35.084C30.6848 35.084 30.0361 34.9253 29.5134 34.608C28.9908 34.2813 28.5988 33.8333 28.3374 33.264C28.0854 32.6947 27.9594 32.046 27.9594 31.318C27.9594 30.5807 28.0901 29.932 28.3514 29.372C28.6128 28.8027 29.0048 28.3547 29.5274 28.028C30.0501 27.7013 30.7034 27.538 31.4874 27.538C32.2621 27.538 32.9061 27.7013 33.4194 28.028C33.9421 28.3547 34.3294 28.8027 34.5814 29.372C34.8428 29.932 34.9734 30.5807 34.9734 31.318C34.9734 32.046 34.8428 32.6947 34.5814 33.264C34.3201 33.8333 33.9281 34.2813 33.4054 34.608C32.8921 34.9253 32.2434 35.084 31.4594 35.084ZM31.4594 34.034C32.0008 34.034 32.4394 33.9127 32.7754 33.67C33.1208 33.4273 33.3728 33.1007 33.5314 32.69C33.6994 32.2793 33.7834 31.822 33.7834 31.318C33.7834 30.814 33.6994 30.3567 33.5314 29.946C33.3728 29.5353 33.1208 29.2087 32.7754 28.966C32.4394 28.7233 32.0008 28.602 31.4594 28.602C30.9274 28.602 30.4888 28.7233 30.1434 28.966C29.8074 29.2087 29.5554 29.5353 29.3874 29.946C29.2288 30.3567 29.1494 30.814 29.1494 31.318C29.1494 31.822 29.2288 32.2793 29.3874 32.69C29.5554 33.1007 29.8074 33.4273 30.1434 33.67C30.4888 33.9127 30.9274 34.034 31.4594 34.034ZM39.3656 35.084C38.5909 35.084 38.0449 34.874 37.7276 34.454C37.4196 34.034 37.2656 33.4367 37.2656 32.662V28.672H36.0616V27.622H37.2656V25.41H38.4556V27.622H40.7236V28.672H38.4556V32.508C38.4556 32.788 38.4789 33.0447 38.5256 33.278C38.5723 33.502 38.6703 33.684 38.8196 33.824C38.9689 33.9547 39.1929 34.0247 39.4916 34.034C39.7063 34.034 39.8929 33.9967 40.0516 33.922C40.2196 33.8473 40.3596 33.7587 40.4716 33.656L40.9896 34.524C40.8309 34.6547 40.6629 34.762 40.4856 34.846C40.3176 34.93 40.1403 34.9907 39.9536 35.028C39.7763 35.0653 39.5803 35.084 39.3656 35.084ZM44.5384 35.084C44.2024 35.084 43.8757 35.042 43.5584 34.958C43.2504 34.8647 42.9704 34.7293 42.7184 34.552C42.4757 34.3653 42.2797 34.1367 42.1304 33.866C41.9904 33.586 41.9204 33.264 41.9204 32.9C41.9204 32.48 41.9951 32.1253 42.1444 31.836C42.3031 31.5467 42.5131 31.318 42.7744 31.15C43.0357 30.982 43.3391 30.8607 43.6844 30.786C44.0297 30.7113 44.3891 30.674 44.7624 30.674H46.9324C46.9324 30.254 46.8717 29.89 46.7504 29.582C46.6384 29.274 46.4517 29.036 46.1904 28.868C45.9291 28.6907 45.5837 28.602 45.1544 28.602C44.8931 28.602 44.6504 28.63 44.4264 28.686C44.2024 28.742 44.0111 28.8307 43.8524 28.952C43.6937 29.0733 43.5771 29.2367 43.5024 29.442H42.2284C42.2937 29.106 42.4197 28.8213 42.6064 28.588C42.8024 28.3453 43.0357 28.1493 43.3064 28C43.5864 27.8413 43.8851 27.7247 44.2024 27.65C44.5197 27.5753 44.8371 27.538 45.1544 27.538C46.2184 27.538 46.9744 27.8507 47.4224 28.476C47.8704 29.1013 48.0944 29.946 48.0944 31.01V35H47.1004L47.0304 34.062C46.8251 34.342 46.5777 34.5567 46.2884 34.706C45.9991 34.8553 45.7004 34.9533 45.3924 35C45.0937 35.056 44.8091 35.084 44.5384 35.084ZM44.6504 34.034C45.1171 34.034 45.5184 33.9593 45.8544 33.81C46.1997 33.6513 46.4657 33.4227 46.6524 33.124C46.8391 32.8253 46.9324 32.4613 46.9324 32.032V31.668H45.6304C45.3224 31.668 45.0191 31.6727 44.7204 31.682C44.4217 31.6913 44.1511 31.7287 43.9084 31.794C43.6657 31.8593 43.4697 31.9713 43.3204 32.13C43.1804 32.2887 43.1104 32.5173 43.1104 32.816C43.1104 33.096 43.1804 33.3247 43.3204 33.502C43.4697 33.6793 43.6611 33.8147 43.8944 33.908C44.1371 33.992 44.3891 34.034 44.6504 34.034ZM49.966 35V25.102H51.156V35H49.966ZM60.708 35.112C60.0826 35.112 59.49 35.028 58.93 34.86C58.3793 34.6827 57.908 34.398 57.516 34.006C57.124 33.6047 56.858 33.0727 56.718 32.41H57.992C58.1226 32.83 58.3326 33.1567 58.622 33.39C58.9206 33.6233 59.2613 33.7867 59.644 33.88C60.0266 33.964 60.4093 34.006 60.792 34.006C61.1746 34.006 61.5293 33.9547 61.856 33.852C62.192 33.74 62.4626 33.5627 62.668 33.32C62.8826 33.0773 62.99 32.7647 62.99 32.382C62.99 32.0833 62.934 31.8407 62.822 31.654C62.7193 31.4673 62.57 31.318 62.374 31.206C62.1873 31.0847 61.9633 30.9867 61.702 30.912C61.3566 30.8 60.988 30.7067 60.596 30.632C60.204 30.5573 59.8166 30.4687 59.434 30.366C59.0606 30.2633 58.7106 30.1327 58.384 29.974C58.2066 29.8807 58.034 29.7687 57.866 29.638C57.7073 29.498 57.5673 29.3393 57.446 29.162C57.334 28.9753 57.2406 28.7653 57.166 28.532C57.1006 28.2987 57.068 28.042 57.068 27.762C57.068 27.342 57.1333 26.978 57.264 26.67C57.3946 26.362 57.572 26.1007 57.796 25.886C58.02 25.6713 58.2813 25.4987 58.58 25.368C58.8786 25.2373 59.196 25.144 59.532 25.088C59.8773 25.0227 60.2226 24.99 60.568 24.99C61.1373 24.99 61.6693 25.0787 62.164 25.256C62.668 25.424 63.0833 25.6993 63.41 26.082C63.746 26.4647 63.928 26.9827 63.956 27.636H62.766C62.7193 27.244 62.5886 26.936 62.374 26.712C62.1593 26.488 61.8933 26.3293 61.576 26.236C61.2586 26.1427 60.9226 26.096 60.568 26.096C60.3066 26.096 60.0406 26.1193 59.77 26.166C59.5086 26.2127 59.266 26.2967 59.042 26.418C58.8273 26.53 58.6546 26.6887 58.524 26.894C58.3933 27.09 58.328 27.342 58.328 27.65C58.328 27.8927 58.37 28.1073 58.454 28.294C58.5473 28.4807 58.6686 28.6393 58.818 28.77C58.9766 28.8913 59.1493 28.994 59.336 29.078C59.784 29.2647 60.2786 29.4047 60.82 29.498C61.3706 29.582 61.884 29.708 62.36 29.876C62.64 29.9693 62.8966 30.086 63.13 30.226C63.3633 30.366 63.5593 30.5293 63.718 30.716C63.886 30.9027 64.012 31.1173 64.096 31.36C64.1893 31.5933 64.236 31.8593 64.236 32.158C64.236 32.6993 64.1426 33.1613 63.956 33.544C63.7693 33.9173 63.5126 34.2207 63.186 34.454C62.8593 34.6873 62.4813 34.8553 62.052 34.958C61.632 35.0607 61.184 35.112 60.708 35.112ZM68.3848 35.084C68.0488 35.084 67.7221 35.042 67.4048 34.958C67.0968 34.8647 66.8168 34.7293 66.5648 34.552C66.3221 34.3653 66.1261 34.1367 65.9768 33.866C65.8368 33.586 65.7668 33.264 65.7668 32.9C65.7668 32.48 65.8414 32.1253 65.9908 31.836C66.1494 31.5467 66.3594 31.318 66.6208 31.15C66.8821 30.982 67.1854 30.8607 67.5308 30.786C67.8761 30.7113 68.2354 30.674 68.6088 30.674H70.7788C70.7788 30.254 70.7181 29.89 70.5968 29.582C70.4848 29.274 70.2981 29.036 70.0368 28.868C69.7754 28.6907 69.4301 28.602 69.0008 28.602C68.7394 28.602 68.4968 28.63 68.2728 28.686C68.0488 28.742 67.8574 28.8307 67.6988 28.952C67.5401 29.0733 67.4234 29.2367 67.3488 29.442H66.0748C66.1401 29.106 66.2661 28.8213 66.4528 28.588C66.6488 28.3453 66.8821 28.1493 67.1528 28C67.4328 27.8413 67.7314 27.7247 68.0488 27.65C68.3661 27.5753 68.6834 27.538 69.0008 27.538C70.0648 27.538 70.8208 27.8507 71.2688 28.476C71.7168 29.1013 71.9408 29.946 71.9408 31.01V35H70.9468L70.8768 34.062C70.6714 34.342 70.4241 34.5567 70.1348 34.706C69.8454 34.8553 69.5468 34.9533 69.2388 35C68.9401 35.056 68.6554 35.084 68.3848 35.084ZM68.4968 34.034C68.9634 34.034 69.3648 33.9593 69.7008 33.81C70.0461 33.6513 70.3121 33.4227 70.4988 33.124C70.6854 32.8253 70.7788 32.4613 70.7788 32.032V31.668H69.4768C69.1688 31.668 68.8654 31.6727 68.5668 31.682C68.2681 31.6913 67.9974 31.7287 67.7548 31.794C67.5121 31.8593 67.3161 31.9713 67.1668 32.13C67.0268 32.2887 66.9568 32.5173 66.9568 32.816C66.9568 33.096 67.0268 33.3247 67.1668 33.502C67.3161 33.6793 67.5074 33.8147 67.7408 33.908C67.9834 33.992 68.2354 34.034 68.4968 34.034ZM73.8124 35V25.102H75.0024V35H73.8124ZM80.0949 35.084C79.3109 35.084 78.6622 34.9253 78.1489 34.608C77.6356 34.2813 77.2529 33.8333 77.0009 33.264C76.7489 32.6947 76.6229 32.046 76.6229 31.318C76.6229 30.5807 76.7536 29.932 77.0149 29.372C77.2856 28.8027 77.6776 28.3547 78.1909 28.028C78.7042 27.7013 79.3342 27.538 80.0809 27.538C80.6596 27.538 81.1542 27.65 81.5649 27.874C81.9849 28.0887 82.3302 28.378 82.6009 28.742C82.8716 29.106 83.0676 29.5073 83.1889 29.946C83.3102 30.3753 83.3616 30.8093 83.3429 31.248C83.3336 31.332 83.3242 31.416 83.3149 31.5C83.3149 31.584 83.3102 31.668 83.3009 31.752H77.8269C77.8642 32.1813 77.9716 32.5687 78.1489 32.914C78.3262 33.2593 78.5782 33.5347 78.9049 33.74C79.2316 33.936 79.6376 34.034 80.1229 34.034C80.3656 34.034 80.6082 34.006 80.8509 33.95C81.1029 33.8847 81.3269 33.7773 81.5229 33.628C81.7282 33.4787 81.8729 33.278 81.9569 33.026H83.1749C83.0629 33.502 82.8529 33.894 82.5449 34.202C82.2369 34.5007 81.8682 34.7247 81.4389 34.874C81.0096 35.014 80.5616 35.084 80.0949 35.084ZM77.8549 30.716H82.1249C82.1156 30.296 82.0222 29.9273 81.8449 29.61C81.6676 29.2927 81.4249 29.0453 81.1169 28.868C80.8182 28.6907 80.4589 28.602 80.0389 28.602C79.5816 28.602 79.1942 28.7 78.8769 28.896C78.5689 29.092 78.3309 29.3487 78.1629 29.666C77.9949 29.9833 77.8922 30.3333 77.8549 30.716ZM87.6443 35.084C87.3083 35.084 86.9676 35.0513 86.6223 34.986C86.2863 34.9207 85.9689 34.8087 85.6703 34.65C85.3809 34.4913 85.1383 34.2767 84.9423 34.006C84.7463 33.7353 84.6203 33.3993 84.5643 32.998H85.7683C85.8616 33.25 86.0109 33.4553 86.2163 33.614C86.4309 33.7633 86.6689 33.8707 86.9303 33.936C87.2009 34.0013 87.4576 34.034 87.7003 34.034C87.8496 34.034 88.0223 34.0247 88.2183 34.006C88.4143 33.9873 88.6009 33.9453 88.7783 33.88C88.9649 33.8053 89.1143 33.698 89.2263 33.558C89.3476 33.418 89.4083 33.222 89.4083 32.97C89.4083 32.7833 89.3663 32.6293 89.2823 32.508C89.1983 32.3867 89.0816 32.2887 88.9323 32.214C88.7829 32.13 88.6009 32.0693 88.3863 32.032C87.9476 31.9387 87.4763 31.85 86.9723 31.766C86.4776 31.682 86.0389 31.5233 85.6563 31.29C85.5256 31.206 85.4043 31.1127 85.2923 31.01C85.1896 30.898 85.1009 30.7767 85.0263 30.646C84.9516 30.506 84.8909 30.3567 84.8443 30.198C84.8069 30.03 84.7883 29.848 84.7883 29.652C84.7883 29.288 84.8583 28.9753 84.9983 28.714C85.1476 28.4433 85.3529 28.224 85.6143 28.056C85.8756 27.8787 86.1743 27.748 86.5103 27.664C86.8556 27.58 87.2243 27.538 87.6163 27.538C88.1016 27.538 88.5356 27.6173 88.9183 27.776C89.3103 27.9253 89.6323 28.1493 89.8843 28.448C90.1363 28.7373 90.2856 29.0967 90.3323 29.526H89.2263C89.1609 29.2553 88.9836 29.036 88.6943 28.868C88.4049 28.6907 88.0363 28.602 87.5883 28.602C87.4389 28.602 87.2709 28.616 87.0843 28.644C86.8976 28.6627 86.7203 28.7093 86.5523 28.784C86.3843 28.8493 86.2443 28.952 86.1323 29.092C86.0203 29.2227 85.9643 29.4 85.9643 29.624C85.9643 29.8293 86.0156 30.002 86.1183 30.142C86.2303 30.282 86.3843 30.394 86.5803 30.478C86.7763 30.562 87.0003 30.632 87.2523 30.688C87.5789 30.7533 87.9383 30.8233 88.3303 30.898C88.7223 30.9633 89.0303 31.0333 89.2543 31.108C89.5529 31.2013 89.8003 31.332 89.9963 31.5C90.2016 31.668 90.3509 31.8687 90.4443 32.102C90.5469 32.3353 90.5983 32.606 90.5983 32.914C90.5983 33.3527 90.5096 33.712 90.3323 33.992C90.1643 34.272 89.9356 34.4913 89.6463 34.65C89.3569 34.8087 89.0349 34.9207 88.6803 34.986C88.3349 35.0513 87.9896 35.084 87.6443 35.084Z" fill="#030E09" fill-opacity="0.6"/>
<path d="M23.384 62L20.144 49.274H22.664L25.112 59.66L27.524 49.274H30.584L32.996 59.66L35.408 49.274H37.802L34.58 62H31.412L29.018 51.812L26.606 62H23.384ZM39.0453 62V52.514H41.0433L41.1693 53.756C41.4093 53.396 41.6793 53.12 41.9793 52.928C42.2913 52.724 42.6213 52.58 42.9693 52.496C43.3293 52.412 43.6893 52.37 44.0493 52.37C44.1813 52.37 44.3013 52.37 44.4093 52.37C44.5293 52.37 44.6253 52.376 44.6973 52.388V54.476H44.1213C43.4973 54.476 42.9693 54.596 42.5373 54.836C42.1053 55.076 41.7813 55.418 41.5653 55.862C41.3493 56.306 41.2413 56.852 41.2413 57.5V62H39.0453ZM49.0486 62.126C48.6046 62.126 48.1846 62.066 47.7886 61.946C47.3926 61.826 47.0386 61.652 46.7266 61.424C46.4146 61.184 46.1626 60.89 45.9706 60.542C45.7906 60.182 45.7006 59.762 45.7006 59.282C45.7006 58.67 45.8206 58.172 46.0606 57.788C46.3006 57.392 46.6246 57.092 47.0326 56.888C47.4526 56.684 47.9266 56.546 48.4546 56.474C48.9826 56.39 49.5346 56.348 50.1106 56.348H51.9646C51.9646 55.928 51.8986 55.568 51.7666 55.268C51.6346 54.956 51.4246 54.71 51.1366 54.53C50.8606 54.35 50.5006 54.26 50.0566 54.26C49.7686 54.26 49.4986 54.296 49.2466 54.368C49.0066 54.428 48.7966 54.53 48.6166 54.674C48.4486 54.806 48.3286 54.98 48.2566 55.196H46.0066C46.0906 54.704 46.2586 54.284 46.5106 53.936C46.7746 53.576 47.0926 53.282 47.4646 53.054C47.8486 52.826 48.2686 52.658 48.7246 52.55C49.1806 52.43 49.6426 52.37 50.1106 52.37C51.4906 52.37 52.4926 52.766 53.1166 53.558C53.7526 54.35 54.0706 55.46 54.0706 56.888V62H52.1266L52.0726 60.776C51.7966 61.184 51.4666 61.484 51.0826 61.676C50.6986 61.868 50.3266 61.988 49.9666 62.036C49.6066 62.096 49.3006 62.126 49.0486 62.126ZM49.4806 60.344C49.9606 60.344 50.3866 60.254 50.7586 60.074C51.1306 59.894 51.4246 59.642 51.6406 59.318C51.8686 58.994 51.9826 58.622 51.9826 58.202V57.896H50.2546C49.9666 57.896 49.6786 57.908 49.3906 57.932C49.1146 57.944 48.8626 57.992 48.6346 58.076C48.4066 58.148 48.2206 58.262 48.0766 58.418C47.9446 58.574 47.8786 58.796 47.8786 59.084C47.8786 59.372 47.9506 59.606 48.0946 59.786C48.2506 59.966 48.4486 60.104 48.6886 60.2C48.9406 60.296 49.2046 60.344 49.4806 60.344ZM56.2032 65.492V52.514H58.2552L58.3632 53.792C58.7352 53.3 59.1792 52.94 59.6952 52.712C60.2112 52.484 60.7812 52.37 61.4052 52.37C62.3412 52.37 63.1152 52.586 63.7272 53.018C64.3392 53.45 64.7952 54.032 65.0952 54.764C65.3952 55.496 65.5452 56.324 65.5452 57.248C65.5452 58.172 65.3892 59.006 65.0772 59.75C64.7652 60.482 64.2912 61.064 63.6552 61.496C63.0312 61.916 62.2452 62.126 61.2972 62.126C60.8532 62.126 60.4452 62.078 60.0732 61.982C59.7132 61.886 59.3892 61.748 59.1012 61.568C58.8252 61.388 58.5912 61.184 58.3992 60.956V65.492H56.2032ZM60.9552 60.146C61.5672 60.146 62.0472 60.014 62.3952 59.75C62.7432 59.474 62.9952 59.12 63.1512 58.688C63.3072 58.244 63.3852 57.776 63.3852 57.284C63.3852 56.768 63.3012 56.288 63.1332 55.844C62.9772 55.4 62.7192 55.04 62.3592 54.764C61.9992 54.488 61.5192 54.35 60.9192 54.35C60.3672 54.35 59.8992 54.488 59.5152 54.764C59.1432 55.028 58.8612 55.382 58.6692 55.826C58.4772 56.27 58.3812 56.75 58.3812 57.266C58.3812 57.794 58.4712 58.28 58.6512 58.724C58.8312 59.156 59.1132 59.504 59.4972 59.768C59.8812 60.02 60.3672 60.146 60.9552 60.146ZM67.7086 62V49.274H72.4966C73.4566 49.274 74.2846 49.424 74.9806 49.724C75.6886 50.012 76.2346 50.474 76.6186 51.11C77.0146 51.746 77.2126 52.58 77.2126 53.612C77.2126 54.596 76.9966 55.418 76.5646 56.078C76.1326 56.738 75.5446 57.236 74.8006 57.572C74.0566 57.896 73.2046 58.058 72.2446 58.058H69.9586V62H67.7086ZM69.9586 56.042H72.2086C73.0366 56.042 73.7026 55.844 74.2066 55.448C74.7106 55.052 74.9626 54.428 74.9626 53.576C74.9626 52.832 74.7526 52.274 74.3326 51.902C73.9126 51.518 73.2646 51.326 72.3886 51.326H69.9586V56.042ZM79.0213 62V52.514H81.2173V62H79.0213ZM80.1193 51.416C79.6993 51.416 79.3633 51.29 79.1113 51.038C78.8593 50.786 78.7333 50.456 78.7333 50.048C78.7333 49.652 78.8653 49.328 79.1293 49.076C79.3933 48.812 79.7233 48.68 80.1193 48.68C80.5033 48.68 80.8333 48.806 81.1093 49.058C81.3853 49.31 81.5233 49.64 81.5233 50.048C81.5233 50.456 81.3913 50.786 81.1273 51.038C80.8633 51.29 80.5273 51.416 80.1193 51.416ZM82.4635 62L85.8115 57.158L82.6435 52.514H85.1995L87.2515 55.7L89.2495 52.514H91.7515L88.5835 57.212L91.9855 62H89.4115L87.1615 58.724L84.9115 62H82.4635ZM97.2983 62.126C96.3143 62.126 95.4743 61.922 94.7783 61.514C94.0943 61.106 93.5723 60.542 93.2123 59.822C92.8643 59.09 92.6903 58.244 92.6903 57.284C92.6903 56.324 92.8703 55.478 93.2303 54.746C93.6023 54.002 94.1303 53.42 94.8143 53C95.5103 52.58 96.3443 52.37 97.3163 52.37C98.0363 52.37 98.6663 52.502 99.2063 52.766C99.7463 53.018 100.196 53.366 100.556 53.81C100.928 54.254 101.204 54.758 101.384 55.322C101.564 55.886 101.648 56.48 101.636 57.104C101.624 57.248 101.612 57.392 101.6 57.536C101.588 57.668 101.57 57.812 101.546 57.968H94.8863C94.9223 58.388 95.0303 58.772 95.2103 59.12C95.4023 59.468 95.6663 59.744 96.0023 59.948C96.3503 60.152 96.7823 60.254 97.2983 60.254C97.5983 60.254 97.8863 60.218 98.1623 60.146C98.4383 60.062 98.6783 59.942 98.8823 59.786C99.0983 59.63 99.2423 59.432 99.3143 59.192H101.51C101.354 59.876 101.066 60.434 100.646 60.866C100.226 61.298 99.7223 61.616 99.1343 61.82C98.5583 62.024 97.9463 62.126 97.2983 62.126ZM94.9223 56.33H99.4943C99.4943 55.934 99.4043 55.574 99.2243 55.25C99.0443 54.926 98.7863 54.674 98.4503 54.494C98.1263 54.302 97.7303 54.206 97.2623 54.206C96.7583 54.206 96.3383 54.308 96.0023 54.512C95.6663 54.716 95.4083 54.98 95.2283 55.304C95.0483 55.628 94.9463 55.97 94.9223 56.33ZM103.422 62V49.274H105.618V62H103.422ZM117.922 62.144C117.07 62.144 116.266 62.018 115.51 61.766C114.766 61.502 114.142 61.088 113.638 60.524C113.134 59.948 112.804 59.198 112.648 58.274H114.934C115.078 58.742 115.306 59.108 115.618 59.372C115.942 59.636 116.32 59.822 116.752 59.93C117.184 60.026 117.622 60.074 118.066 60.074C118.462 60.074 118.834 60.026 119.182 59.93C119.542 59.822 119.836 59.648 120.064 59.408C120.304 59.168 120.424 58.85 120.424 58.454C120.424 58.154 120.358 57.914 120.226 57.734C120.106 57.542 119.932 57.386 119.704 57.266C119.488 57.134 119.224 57.032 118.912 56.96C118.612 56.864 118.288 56.78 117.94 56.708C117.592 56.636 117.25 56.558 116.914 56.474C116.578 56.39 116.26 56.282 115.96 56.15C115.576 56.018 115.204 55.868 114.844 55.7C114.496 55.52 114.19 55.304 113.926 55.052C113.674 54.8 113.47 54.488 113.314 54.116C113.158 53.744 113.08 53.3 113.08 52.784C113.08 52.196 113.176 51.692 113.368 51.272C113.572 50.84 113.836 50.486 114.16 50.21C114.496 49.934 114.868 49.718 115.276 49.562C115.696 49.406 116.128 49.292 116.572 49.22C117.028 49.148 117.46 49.112 117.868 49.112C118.66 49.112 119.38 49.244 120.028 49.508C120.688 49.772 121.228 50.18 121.648 50.732C122.068 51.284 122.308 51.992 122.368 52.856H120.19C120.142 52.448 119.998 52.124 119.758 51.884C119.518 51.632 119.218 51.452 118.858 51.344C118.498 51.224 118.108 51.164 117.688 51.164C117.4 51.164 117.112 51.188 116.824 51.236C116.548 51.284 116.296 51.368 116.068 51.488C115.852 51.608 115.672 51.77 115.528 51.974C115.396 52.166 115.33 52.412 115.33 52.712C115.33 52.976 115.396 53.21 115.528 53.414C115.66 53.606 115.84 53.768 116.068 53.9C116.308 54.032 116.59 54.152 116.914 54.26C117.334 54.428 117.79 54.554 118.282 54.638C118.786 54.722 119.26 54.836 119.704 54.98C120.136 55.1 120.532 55.25 120.892 55.43C121.264 55.598 121.582 55.808 121.846 56.06C122.11 56.3 122.314 56.6 122.458 56.96C122.614 57.308 122.692 57.728 122.692 58.22C122.692 58.94 122.56 59.552 122.296 60.056C122.044 60.548 121.69 60.95 121.234 61.262C120.79 61.574 120.28 61.802 119.704 61.946C119.14 62.078 118.546 62.144 117.922 62.144ZM128.474 62.108C127.43 62.108 126.668 61.82 126.188 61.244C125.708 60.668 125.468 59.87 125.468 58.85V54.458H124.01V52.514H125.468V49.85H127.664V52.514H130.544V54.458H127.664V58.436C127.664 58.748 127.7 59.03 127.772 59.282C127.844 59.534 127.976 59.732 128.168 59.876C128.36 60.02 128.624 60.098 128.96 60.11C129.248 60.11 129.494 60.062 129.698 59.966C129.902 59.87 130.07 59.762 130.202 59.642L130.94 61.316C130.712 61.508 130.454 61.664 130.166 61.784C129.89 61.904 129.608 61.988 129.32 62.036C129.032 62.084 128.75 62.108 128.474 62.108ZM136.504 62.126C135.532 62.126 134.692 61.928 133.984 61.532C133.288 61.136 132.748 60.572 132.364 59.84C131.992 59.108 131.806 58.25 131.806 57.266C131.806 56.27 131.998 55.412 132.382 54.692C132.766 53.96 133.306 53.39 134.002 52.982C134.698 52.574 135.532 52.37 136.504 52.37C137.464 52.37 138.292 52.574 138.988 52.982C139.684 53.39 140.218 53.966 140.59 54.71C140.962 55.442 141.148 56.306 141.148 57.302C141.148 58.274 140.962 59.126 140.59 59.858C140.23 60.578 139.702 61.136 139.006 61.532C138.31 61.928 137.476 62.126 136.504 62.126ZM136.486 60.128C137.086 60.128 137.566 59.996 137.926 59.732C138.298 59.468 138.568 59.12 138.736 58.688C138.904 58.256 138.988 57.788 138.988 57.284C138.988 56.78 138.904 56.306 138.736 55.862C138.568 55.418 138.298 55.064 137.926 54.8C137.566 54.524 137.086 54.386 136.486 54.386C135.886 54.386 135.4 54.524 135.028 54.8C134.656 55.064 134.386 55.418 134.218 55.862C134.05 56.294 133.966 56.768 133.966 57.284C133.966 57.788 134.05 58.262 134.218 58.706C134.398 59.138 134.668 59.486 135.028 59.75C135.4 60.002 135.886 60.128 136.486 60.128ZM142.942 62V52.514H144.94L145.066 53.756C145.306 53.396 145.576 53.12 145.876 52.928C146.188 52.724 146.518 52.58 146.866 52.496C147.226 52.412 147.586 52.37 147.946 52.37C148.078 52.37 148.198 52.37 148.306 52.37C148.426 52.37 148.522 52.376 148.594 52.388V54.476H148.018C147.394 54.476 146.866 54.596 146.434 54.836C146.002 55.076 145.678 55.418 145.462 55.862C145.246 56.306 145.138 56.852 145.138 57.5V62H142.942ZM153.994 62.126C153.01 62.126 152.17 61.922 151.474 61.514C150.79 61.106 150.268 60.542 149.908 59.822C149.56 59.09 149.386 58.244 149.386 57.284C149.386 56.324 149.566 55.478 149.926 54.746C150.298 54.002 150.826 53.42 151.51 53C152.206 52.58 153.04 52.37 154.012 52.37C154.732 52.37 155.362 52.502 155.902 52.766C156.442 53.018 156.892 53.366 157.252 53.81C157.624 54.254 157.9 54.758 158.08 55.322C158.26 55.886 158.344 56.48 158.332 57.104C158.32 57.248 158.308 57.392 158.296 57.536C158.284 57.668 158.266 57.812 158.242 57.968H151.582C151.618 58.388 151.726 58.772 151.906 59.12C152.098 59.468 152.362 59.744 152.698 59.948C153.046 60.152 153.478 60.254 153.994 60.254C154.294 60.254 154.582 60.218 154.858 60.146C155.134 60.062 155.374 59.942 155.578 59.786C155.794 59.63 155.938 59.432 156.01 59.192H158.206C158.05 59.876 157.762 60.434 157.342 60.866C156.922 61.298 156.418 61.616 155.83 61.82C155.254 62.024 154.642 62.126 153.994 62.126ZM151.618 56.33H156.19C156.19 55.934 156.1 55.574 155.92 55.25C155.74 54.926 155.482 54.674 155.146 54.494C154.822 54.302 154.426 54.206 153.958 54.206C153.454 54.206 153.034 54.308 152.698 54.512C152.362 54.716 152.104 54.98 151.924 55.304C151.744 55.628 151.642 55.97 151.618 56.33Z" fill="#030E09"/>
<path d="M27.728 151.92V148.028C26.6827 147.879 25.712 147.58 24.816 147.132C23.92 146.684 23.1733 146.059 22.576 145.256C21.9973 144.435 21.6147 143.417 21.428 142.204H24.984C25.208 142.932 25.5627 143.501 26.048 143.912C26.552 144.323 27.1307 144.612 27.784 144.78C28.456 144.948 29.1467 145.032 29.856 145.032C30.5093 145.032 31.1067 144.948 31.648 144.78C32.208 144.612 32.656 144.341 32.992 143.968C33.3467 143.595 33.524 143.119 33.524 142.54C33.524 142.055 33.412 141.663 33.188 141.364C32.9827 141.065 32.6933 140.823 32.32 140.636C31.9653 140.449 31.5453 140.291 31.06 140.16C30.3133 139.936 29.5853 139.759 28.876 139.628C28.1853 139.479 27.5227 139.32 26.888 139.152C26.272 138.984 25.684 138.769 25.124 138.508C24.2093 138.06 23.472 137.463 22.912 136.716C22.3707 135.969 22.1 134.943 22.1 133.636C22.1 132.46 22.3707 131.48 22.912 130.696C23.4533 129.893 24.1627 129.277 25.04 128.848C25.9173 128.4 26.86 128.139 27.868 128.064V124.228H31.144V128.12C32.152 128.232 33.0573 128.521 33.86 128.988C34.6627 129.455 35.3067 130.089 35.792 130.892C36.2773 131.676 36.5293 132.628 36.548 133.748H33.132C33.076 133.132 32.8613 132.628 32.488 132.236C32.1333 131.844 31.676 131.564 31.116 131.396C30.556 131.209 29.94 131.116 29.268 131.116C28.6893 131.116 28.1107 131.191 27.532 131.34C26.972 131.471 26.5053 131.713 26.132 132.068C25.7773 132.404 25.6 132.889 25.6 133.524C25.6 133.916 25.6933 134.271 25.88 134.588C26.0667 134.887 26.3187 135.139 26.636 135.344C26.9533 135.549 27.3173 135.717 27.728 135.848C28.4187 136.109 29.184 136.324 30.024 136.492C30.864 136.66 31.648 136.856 32.376 137.08C33.328 137.341 34.1493 137.668 34.84 138.06C35.5493 138.433 36.0907 138.947 36.464 139.6C36.856 140.235 37.052 141.065 37.052 142.092C37.052 143.399 36.7813 144.472 36.24 145.312C35.6987 146.152 34.9707 146.805 34.056 147.272C33.1413 147.739 32.124 148.019 31.004 148.112V151.92H27.728ZM46.6877 148.224C45.6237 148.224 44.6157 148.047 43.6637 147.692C42.7304 147.319 41.9371 146.759 41.2837 146.012C40.6304 145.265 40.2011 144.332 39.9957 143.212H43.4957C43.7571 143.809 44.2051 144.267 44.8397 144.584C45.4931 144.883 46.1744 145.032 46.8837 145.032C47.7424 145.032 48.4517 144.864 49.0117 144.528C49.5904 144.173 50.0477 143.707 50.3837 143.128C50.7384 142.531 50.9904 141.877 51.1397 141.168C51.2891 140.44 51.3637 139.703 51.3637 138.956C51.3637 138.863 51.3637 138.769 51.3637 138.676C51.3637 138.583 51.3637 138.499 51.3637 138.424C50.9717 139.077 50.4864 139.591 49.9077 139.964C49.3291 140.319 48.7131 140.58 48.0597 140.748C47.4064 140.897 46.7717 140.972 46.1557 140.972C44.9797 140.972 43.9157 140.729 42.9637 140.244C42.0117 139.759 41.2557 139.049 40.6957 138.116C40.1357 137.164 39.8557 136.025 39.8557 134.7C39.8557 133.281 40.1731 132.068 40.8077 131.06C41.4424 130.052 42.3011 129.287 43.3837 128.764C44.4851 128.223 45.7077 127.952 47.0517 127.952C48.5077 127.952 49.7211 128.251 50.6917 128.848C51.6624 129.445 52.4371 130.248 53.0157 131.256C53.5944 132.245 54.0051 133.347 54.2477 134.56C54.4904 135.773 54.6117 137.005 54.6117 138.256C54.6117 139.637 54.4624 140.935 54.1637 142.148C53.8837 143.343 53.4264 144.397 52.7917 145.312C52.1757 146.227 51.3637 146.945 50.3557 147.468C49.3477 147.972 48.1251 148.224 46.6877 148.224ZM46.8837 137.976C47.6117 137.976 48.2464 137.827 48.7877 137.528C49.3477 137.211 49.7771 136.8 50.0757 136.296C50.3744 135.773 50.5144 135.213 50.4957 134.616C50.4957 133.907 50.3371 133.3 50.0197 132.796C49.7211 132.273 49.3011 131.863 48.7597 131.564C48.2184 131.265 47.6117 131.116 46.9397 131.116C46.2117 131.116 45.5771 131.275 45.0357 131.592C44.5131 131.909 44.1024 132.329 43.8037 132.852C43.5051 133.375 43.3557 133.935 43.3557 134.532C43.3557 135.559 43.6637 136.389 44.2797 137.024C44.8957 137.659 45.7637 137.976 46.8837 137.976ZM64.7223 148.224C63.8077 148.224 62.9117 148.121 62.0343 147.916C61.157 147.711 60.373 147.375 59.6823 146.908C58.9917 146.423 58.4317 145.807 58.0023 145.06C57.5917 144.295 57.3863 143.361 57.3863 142.26C57.3863 141.532 57.4983 140.869 57.7223 140.272C57.965 139.656 58.3103 139.124 58.7583 138.676C59.2063 138.228 59.729 137.864 60.3263 137.584C59.7477 137.248 59.281 136.847 58.9263 136.38C58.5903 135.913 58.357 135.409 58.2263 134.868C58.0957 134.327 58.0303 133.795 58.0303 133.272C58.0303 132.32 58.217 131.508 58.5903 130.836C58.9637 130.164 59.477 129.613 60.1303 129.184C60.7837 128.755 61.5023 128.447 62.2863 128.26C63.089 128.055 63.9103 127.952 64.7503 127.952C65.5903 127.952 66.4117 128.055 67.2143 128.26C68.017 128.447 68.7357 128.764 69.3703 129.212C70.0237 129.641 70.537 130.201 70.9103 130.892C71.2837 131.564 71.4703 132.395 71.4703 133.384C71.4703 133.869 71.3957 134.373 71.2463 134.896C71.097 135.419 70.845 135.913 70.4903 136.38C70.1543 136.828 69.697 137.211 69.1183 137.528C69.753 137.808 70.2943 138.181 70.7423 138.648C71.1903 139.096 71.5263 139.628 71.7503 140.244C71.993 140.841 72.1143 141.523 72.1143 142.288C72.1143 143.371 71.8997 144.295 71.4703 145.06C71.0597 145.825 70.4997 146.441 69.7903 146.908C69.081 147.356 68.2877 147.692 67.4103 147.916C66.533 148.121 65.637 148.224 64.7223 148.224ZM64.7223 145.088C65.1703 145.088 65.609 145.041 66.0383 144.948C66.4863 144.855 66.897 144.696 67.2703 144.472C67.6623 144.248 67.9797 143.949 68.2223 143.576C68.465 143.184 68.5863 142.708 68.5863 142.148C68.5863 141.476 68.409 140.925 68.0543 140.496C67.6997 140.067 67.233 139.749 66.6543 139.544C66.0757 139.339 65.441 139.236 64.7503 139.236C64.0597 139.236 63.4157 139.339 62.8183 139.544C62.2397 139.749 61.773 140.067 61.4183 140.496C61.0637 140.925 60.8863 141.476 60.8863 142.148C60.8863 142.708 60.9983 143.184 61.2223 143.576C61.465 143.949 61.7823 144.248 62.1743 144.472C62.5663 144.696 62.977 144.855 63.4063 144.948C63.8543 145.041 64.293 145.088 64.7223 145.088ZM64.7503 136.492C65.385 136.492 65.9357 136.389 66.4023 136.184C66.8877 135.96 67.2703 135.652 67.5503 135.26C67.849 134.868 67.9983 134.392 67.9983 133.832C68.017 133.197 67.877 132.675 67.5783 132.264C67.2797 131.835 66.8783 131.527 66.3743 131.34C65.889 131.135 65.3383 131.032 64.7223 131.032C64.0877 131.032 63.5183 131.135 63.0143 131.34C62.529 131.527 62.1557 131.825 61.8943 132.236C61.633 132.628 61.5023 133.123 61.5023 133.72C61.5023 134.317 61.6423 134.831 61.9223 135.26C62.221 135.671 62.613 135.979 63.0983 136.184C63.6023 136.389 64.153 136.492 64.7503 136.492ZM76.175 152.004L75.195 150.52C75.475 150.371 75.7643 150.156 76.063 149.876C76.3617 149.615 76.6323 149.316 76.875 148.98C77.1363 148.663 77.3137 148.373 77.407 148.112C76.8657 148.056 76.399 147.86 76.007 147.524C75.6337 147.169 75.447 146.675 75.447 146.04C75.447 145.387 75.671 144.873 76.119 144.5C76.567 144.127 77.071 143.94 77.631 143.94C78.3403 143.94 78.9003 144.211 79.311 144.752C79.7217 145.275 79.927 145.965 79.927 146.824C79.927 147.589 79.7403 148.327 79.367 149.036C79.0123 149.745 78.5457 150.361 77.967 150.884C77.407 151.407 76.8097 151.78 76.175 152.004ZM92.9214 148V144.248H82.6174V141.616L91.9694 128.204H96.3654V141.084H98.6334V144.248H96.3654V148H92.9214ZM86.6494 141.084H92.9214V131.872L86.6494 141.084ZM108.063 148.224C107.186 148.224 106.355 148.121 105.571 147.916C104.787 147.692 104.078 147.356 103.443 146.908C102.808 146.46 102.276 145.891 101.847 145.2C101.436 144.491 101.156 143.66 101.007 142.708H104.451C104.6 143.119 104.843 143.501 105.179 143.856C105.534 144.211 105.954 144.491 106.439 144.696C106.943 144.901 107.484 145.004 108.063 145.004C108.847 145.004 109.519 144.873 110.079 144.612C110.639 144.332 111.078 143.94 111.395 143.436C111.712 142.913 111.871 142.288 111.871 141.56C111.871 140.477 111.535 139.628 110.863 139.012C110.21 138.396 109.314 138.088 108.175 138.088C107.503 138.088 106.878 138.209 106.299 138.452C105.72 138.676 105.179 138.993 104.675 139.404H101.567L102.099 128.204H114.727V131.396H105.319L104.983 136.128C105.543 135.736 106.187 135.447 106.915 135.26C107.643 135.055 108.436 134.961 109.295 134.98C110.564 134.999 111.656 135.279 112.571 135.82C113.504 136.343 114.214 137.071 114.699 138.004C115.184 138.937 115.427 140.039 115.427 141.308C115.427 142.783 115.1 144.033 114.447 145.06C113.812 146.087 112.935 146.871 111.815 147.412C110.714 147.953 109.463 148.224 108.063 148.224ZM117.449 148V145.116L122.965 140.468C123.413 140.095 123.908 139.684 124.449 139.236C124.991 138.788 125.504 138.303 125.989 137.78C126.493 137.239 126.913 136.679 127.249 136.1C127.585 135.521 127.753 134.915 127.753 134.28C127.753 133.328 127.464 132.581 126.885 132.04C126.325 131.499 125.523 131.228 124.477 131.228C123.563 131.228 122.816 131.424 122.237 131.816C121.659 132.208 121.295 132.74 121.145 133.412H117.701C117.832 132.161 118.233 131.144 118.905 130.36C119.596 129.557 120.445 128.96 121.453 128.568C122.461 128.157 123.516 127.952 124.617 127.952C125.868 127.952 126.988 128.185 127.977 128.652C128.967 129.1 129.751 129.772 130.329 130.668C130.927 131.545 131.225 132.619 131.225 133.888C131.225 135.027 131.001 136.053 130.553 136.968C130.124 137.883 129.536 138.723 128.789 139.488C128.061 140.235 127.259 140.972 126.381 141.7L122.601 144.808H131.281V148H117.449ZM136.692 148.336C136.095 148.336 135.582 148.14 135.152 147.748C134.742 147.356 134.536 146.824 134.536 146.152C134.536 145.48 134.751 144.948 135.18 144.556C135.61 144.145 136.123 143.94 136.72 143.94C137.318 143.94 137.822 144.145 138.232 144.556C138.643 144.948 138.848 145.48 138.848 146.152C138.848 146.824 138.643 147.356 138.232 147.748C137.822 148.14 137.308 148.336 136.692 148.336ZM142.753 148L150.481 131.424H140.681V128.204H154.401V130.836L146.645 148H142.753ZM164.027 148.224C162.646 148.224 161.461 147.963 160.471 147.44C159.482 146.917 158.679 146.208 158.063 145.312C157.447 144.416 156.99 143.389 156.691 142.232C156.411 141.075 156.271 139.861 156.271 138.592C156.271 137.155 156.421 135.801 156.719 134.532C157.037 133.244 157.522 132.115 158.175 131.144C158.829 130.155 159.669 129.38 160.695 128.82C161.741 128.241 162.973 127.952 164.391 127.952C165.455 127.952 166.435 128.139 167.331 128.512C168.246 128.885 169.011 129.445 169.627 130.192C170.243 130.939 170.663 131.872 170.887 132.992H167.527C167.266 132.395 166.837 131.937 166.239 131.62C165.661 131.284 165.017 131.116 164.307 131.116C163.579 131.116 162.945 131.256 162.403 131.536C161.881 131.797 161.433 132.152 161.059 132.6C160.686 133.029 160.387 133.533 160.163 134.112C159.939 134.691 159.771 135.288 159.659 135.904C159.547 136.52 159.491 137.127 159.491 137.724C159.939 137.071 160.453 136.567 161.031 136.212C161.61 135.839 162.217 135.577 162.851 135.428C163.486 135.26 164.083 135.176 164.643 135.176C165.969 135.176 167.098 135.437 168.031 135.96C168.983 136.483 169.721 137.22 170.243 138.172C170.766 139.105 171.027 140.207 171.027 141.476C171.027 142.839 170.729 144.024 170.131 145.032C169.534 146.04 168.703 146.824 167.639 147.384C166.594 147.944 165.39 148.224 164.027 148.224ZM163.999 145.06C164.727 145.041 165.353 144.883 165.875 144.584C166.398 144.285 166.799 143.884 167.079 143.38C167.378 142.857 167.527 142.288 167.527 141.672C167.527 141.019 167.387 140.44 167.107 139.936C166.827 139.413 166.426 139.003 165.903 138.704C165.399 138.387 164.793 138.228 164.083 138.228C163.411 138.228 162.795 138.377 162.235 138.676C161.675 138.956 161.227 139.357 160.891 139.88C160.555 140.384 160.387 140.972 160.387 141.644C160.387 142.26 160.537 142.829 160.835 143.352C161.153 143.856 161.582 144.267 162.123 144.584C162.665 144.901 163.29 145.06 163.999 145.06Z" fill="#030E09"/>
<rect x="20" y="160" width="20" height="20" rx="10" fill="#93D973" fill-opacity="0.15"/>
<path opacity="0.5" d="M29.5625 174.667C29.5625 174.783 29.6086 174.895 29.6906 174.977C29.7727 175.059 29.884 175.105 30 175.105C30.116 175.105 30.2273 175.059 30.3094 174.977C30.3914 174.895 30.4375 174.783 30.4375 174.667H29.5625ZM30.4375 174.667V165.334H29.5625V174.667H30.4375Z" fill="#70C748"/>
<path d="M33.5 168.834L30 165.334L26.5 168.834" stroke="#70C748" stroke-width="0.875" stroke-linecap="round" stroke-linejoin="round"/>
<path d="M46.82 171.688V169.804H45.02V168.676H46.82V166.792H47.948V168.676H49.76V169.804H47.948V171.688H46.82ZM54.3374 173.596C53.9774 173.596 53.6214 173.556 53.2694 173.476C52.9174 173.396 52.5894 173.272 52.2854 173.104C51.9894 172.936 51.7374 172.712 51.5294 172.432C51.3294 172.152 51.2014 171.812 51.1454 171.412H52.4294C52.5174 171.668 52.6614 171.872 52.8614 172.024C53.0694 172.168 53.3014 172.272 53.5574 172.336C53.8214 172.4 54.0854 172.432 54.3494 172.432C54.5254 172.432 54.7134 172.416 54.9134 172.384C55.1214 172.352 55.3134 172.288 55.4894 172.192C55.6734 172.096 55.8214 171.956 55.9334 171.772C56.0454 171.588 56.1014 171.352 56.1014 171.064C56.1014 170.784 56.0494 170.56 55.9454 170.392C55.8414 170.216 55.7014 170.08 55.5254 169.984C55.3574 169.888 55.1654 169.824 54.9494 169.792C54.7334 169.76 54.5094 169.744 54.2774 169.744H53.4134V168.64H53.9534C54.2094 168.64 54.4494 168.616 54.6734 168.568C54.8974 168.512 55.0894 168.436 55.2494 168.34C55.4174 168.236 55.5494 168.104 55.6454 167.944C55.7414 167.776 55.7894 167.572 55.7894 167.332C55.7894 166.996 55.7174 166.74 55.5734 166.564C55.4294 166.38 55.2414 166.252 55.0094 166.18C54.7774 166.108 54.5254 166.072 54.2534 166.072C54.0294 166.072 53.8054 166.108 53.5814 166.18C53.3654 166.244 53.1734 166.348 53.0054 166.492C52.8374 166.636 52.7254 166.82 52.6694 167.044H51.4214C51.4694 166.668 51.5814 166.348 51.7574 166.084C51.9414 165.812 52.1654 165.588 52.4294 165.412C52.7014 165.236 53.0014 165.112 53.3294 165.04C53.6574 164.96 53.9974 164.92 54.3494 164.92C54.7094 164.92 55.0494 164.96 55.3694 165.04C55.6974 165.112 55.9854 165.236 56.2334 165.412C56.4814 165.588 56.6774 165.82 56.8214 166.108C56.9734 166.388 57.0494 166.732 57.0494 167.14C57.0494 167.42 57.0014 167.68 56.9054 167.92C56.8174 168.16 56.6814 168.372 56.4974 168.556C56.3214 168.732 56.1054 168.88 55.8494 169C56.1934 169.072 56.4814 169.204 56.7134 169.396C56.9454 169.588 57.1174 169.824 57.2294 170.104C57.3494 170.376 57.4094 170.68 57.4094 171.016C57.4094 171.544 57.3134 171.976 57.1214 172.312C56.9294 172.648 56.6774 172.908 56.3654 173.092C56.0614 173.276 55.7294 173.408 55.3694 173.488C55.0094 173.56 54.6654 173.596 54.3374 173.596ZM58.3876 173.5V172.444L60.7756 170.404C60.9756 170.236 61.1956 170.048 61.4356 169.84C61.6836 169.632 61.9196 169.408 62.1436 169.168C62.3756 168.928 62.5636 168.672 62.7076 168.4C62.8596 168.128 62.9356 167.844 62.9356 167.548C62.9356 167.092 62.7956 166.736 62.5156 166.48C62.2436 166.224 61.8716 166.096 61.3996 166.096C60.9996 166.096 60.6596 166.18 60.3796 166.348C60.1076 166.516 59.9276 166.752 59.8396 167.056H58.5436C58.6156 166.568 58.7956 166.168 59.0836 165.856C59.3716 165.544 59.7236 165.312 60.1396 165.16C60.5556 165 60.9916 164.92 61.4476 164.92C61.9756 164.92 62.4476 165.016 62.8636 165.208C63.2796 165.4 63.6076 165.684 63.8476 166.06C64.0876 166.428 64.2076 166.88 64.2076 167.416C64.2076 167.92 64.1116 168.368 63.9196 168.76C63.7276 169.152 63.4716 169.508 63.1516 169.828C62.8396 170.148 62.4996 170.46 62.1316 170.764L60.2476 172.336H64.2676V173.5H58.3876ZM66.6326 173.62C66.3926 173.62 66.1926 173.544 66.0326 173.392C65.8806 173.24 65.8046 173.04 65.8046 172.792C65.8046 172.544 65.8846 172.344 66.0446 172.192C66.2046 172.032 66.4006 171.952 66.6326 171.952C66.8646 171.952 67.0566 172.032 67.2086 172.192C67.3686 172.344 67.4486 172.544 67.4486 172.792C67.4486 173.04 67.3686 173.24 67.2086 173.392C67.0566 173.544 66.8646 173.62 66.6326 173.62ZM71.9569 173.596C71.5649 173.596 71.1849 173.552 70.8169 173.464C70.4489 173.376 70.1169 173.236 69.8209 173.044C69.5329 172.844 69.3009 172.584 69.1249 172.264C68.9489 171.944 68.8609 171.552 68.8609 171.088C68.8609 170.768 68.9129 170.48 69.0169 170.224C69.1209 169.96 69.2729 169.732 69.4729 169.54C69.6809 169.348 69.9209 169.196 70.1929 169.084C69.9129 168.932 69.6929 168.752 69.5329 168.544C69.3729 168.328 69.2649 168.1 69.2089 167.86C69.1529 167.62 69.1249 167.392 69.1249 167.176C69.1249 166.768 69.2049 166.424 69.3649 166.144C69.5249 165.856 69.7409 165.624 70.0129 165.448C70.2849 165.264 70.5889 165.132 70.9249 165.052C71.2609 164.964 71.6089 164.92 71.9689 164.92C72.3209 164.92 72.6649 164.964 73.0009 165.052C73.3369 165.132 73.6409 165.264 73.9129 165.448C74.1849 165.632 74.4009 165.868 74.5609 166.156C74.7209 166.444 74.8009 166.792 74.8009 167.2C74.8009 167.408 74.7689 167.628 74.7049 167.86C74.6489 168.092 74.5409 168.312 74.3809 168.52C74.2209 168.728 73.9969 168.904 73.7089 169.048C73.9969 169.16 74.2409 169.316 74.4409 169.516C74.6489 169.716 74.8049 169.948 74.9089 170.212C75.0129 170.476 75.0649 170.772 75.0649 171.1C75.0649 171.556 74.9769 171.944 74.8009 172.264C74.6249 172.584 74.3849 172.844 74.0809 173.044C73.7849 173.236 73.4529 173.376 73.0849 173.464C72.7249 173.552 72.3489 173.596 71.9569 173.596ZM71.9569 172.444C72.1489 172.444 72.3489 172.424 72.5569 172.384C72.7649 172.344 72.9609 172.276 73.1449 172.18C73.3289 172.076 73.4769 171.936 73.5889 171.76C73.7089 171.576 73.7689 171.348 73.7689 171.076C73.7689 170.74 73.6849 170.476 73.5169 170.284C73.3489 170.084 73.1249 169.94 72.8449 169.852C72.5729 169.756 72.2769 169.708 71.9569 169.708C71.6449 169.708 71.3489 169.756 71.0689 169.852C70.7969 169.94 70.5729 170.084 70.3969 170.284C70.2289 170.476 70.1449 170.74 70.1449 171.076C70.1449 171.348 70.2009 171.576 70.3129 171.76C70.4329 171.936 70.5849 172.076 70.7689 172.18C70.9609 172.276 71.1609 172.344 71.3689 172.384C71.5769 172.424 71.7729 172.444 71.9569 172.444ZM71.9689 168.652C72.2569 168.652 72.5129 168.604 72.7369 168.508C72.9689 168.412 73.1569 168.272 73.3009 168.088C73.4449 167.896 73.5169 167.664 73.5169 167.392C73.5249 167.072 73.4569 166.816 73.3129 166.624C73.1689 166.424 72.9769 166.28 72.7369 166.192C72.5049 166.096 72.2449 166.048 71.9569 166.048C71.6609 166.048 71.3929 166.096 71.1529 166.192C70.9209 166.28 70.7369 166.42 70.6009 166.612C70.4729 166.804 70.4089 167.048 70.4089 167.344C70.4089 167.64 70.4809 167.888 70.6249 168.088C70.7689 168.28 70.9569 168.424 71.1889 168.52C71.4289 168.608 71.6889 168.652 71.9689 168.652ZM77.3935 173.5L82.7215 165.016H83.9935L78.6895 173.5H77.3935ZM83.2135 173.572C82.8215 173.572 82.4855 173.488 82.2055 173.32C81.9335 173.152 81.7215 172.924 81.5695 172.636C81.4255 172.34 81.3535 172.004 81.3535 171.628C81.3535 171.236 81.4255 170.896 81.5695 170.608C81.7215 170.32 81.9375 170.096 82.2175 169.936C82.4975 169.768 82.8295 169.684 83.2135 169.684C83.5975 169.684 83.9255 169.764 84.1975 169.924C84.4695 170.084 84.6775 170.312 84.8215 170.608C84.9655 170.896 85.0375 171.232 85.0375 171.616C85.0375 171.992 84.9615 172.328 84.8095 172.624C84.6655 172.92 84.4575 173.152 84.1855 173.32C83.9135 173.488 83.5895 173.572 83.2135 173.572ZM83.2015 172.588C83.4015 172.588 83.5615 172.544 83.6815 172.456C83.8015 172.368 83.8855 172.248 83.9335 172.096C83.9895 171.944 84.0175 171.788 84.0175 171.628C84.0175 171.468 83.9895 171.316 83.9335 171.172C83.8855 171.02 83.8015 170.9 83.6815 170.812C83.5615 170.724 83.4015 170.68 83.2015 170.68C82.8975 170.68 82.6815 170.78 82.5535 170.98C82.4255 171.172 82.3615 171.388 82.3615 171.628C82.3615 171.884 82.4255 172.108 82.5535 172.3C82.6895 172.492 82.9055 172.588 83.2015 172.588ZM78.2335 168.808C77.8415 168.808 77.5055 168.724 77.2255 168.556C76.9535 168.388 76.7455 168.16 76.6015 167.872C76.4575 167.576 76.3855 167.24 76.3855 166.864C76.3855 166.472 76.4575 166.132 76.6015 165.844C76.7455 165.556 76.9575 165.332 77.2375 165.172C77.5175 165.004 77.8535 164.92 78.2455 164.92C78.6295 164.92 78.9575 165 79.2295 165.16C79.5015 165.32 79.7095 165.548 79.8535 165.844C79.9975 166.132 80.0695 166.468 80.0695 166.852C80.0695 167.228 79.9975 167.564 79.8535 167.86C79.7095 168.156 79.4975 168.388 79.2175 168.556C78.9455 168.724 78.6175 168.808 78.2335 168.808ZM78.2335 167.824C78.4335 167.824 78.5895 167.78 78.7015 167.692C78.8215 167.596 78.9095 167.476 78.9655 167.332C79.0215 167.18 79.0495 167.024 79.0495 166.864C79.0495 166.696 79.0215 166.54 78.9655 166.396C78.9095 166.252 78.8215 166.136 78.7015 166.048C78.5895 165.952 78.4335 165.904 78.2335 165.904C77.9295 165.904 77.7095 166.004 77.5735 166.204C77.4455 166.396 77.3815 166.616 77.3815 166.864C77.3815 167.12 77.4455 167.344 77.5735 167.536C77.7095 167.728 77.9295 167.824 78.2335 167.824Z" fill="#70C748"/>
<path d="M197 168.94C197 168.94 202.333 167.026 205.86 167.133C209.44 167.242 211.161 169.939 214.721 169.542C221.74 168.76 218.897 154.625 225.944 155.087C228.128 155.23 229.088 157.162 231.26 156.894C233.872 156.571 233.973 153.054 236.577 152.677C240.323 152.136 240.581 157.783 244.256 158.701C250.371 160.228 252.141 150.622 258.433 150.87C263.279 151.062 264.808 156.148 269.656 156.291C279.762 156.59 274.422 133.093 284.423 134.608C289.044 135.307 289.826 141.788 294.465 141.233C297.769 140.838 298.228 136.522 301.553 136.415C304.339 136.325 305.282 139.099 308.051 139.426C314.712 140.214 315.274 131.462 321.047 127.982C325.767 125.136 330.225 126.575 334.042 122.561C336.915 119.54 334.896 114.381 338.767 112.924C342.465 111.532 344.277 116.474 348.219 116.538C355.461 116.656 355.986 103.196 362.986 105.094C366.782 106.123 366.76 112.156 370.665 111.719C373.145 111.442 373.499 108.366 375.981 108.105C378.453 107.846 379.409 110.349 381.888 110.515C389.301 111.009 382.811 91.9312 390.158 93.0471C393.9 93.6155 394.055 99.1553 397.837 99.0704C400.416 99.0125 401.166 95.9976 403.744 96.0588C406.881 96.1331 407.18 100.18 410.242 100.877C414.975 101.955 416.653 94.8448 421.465 95.4564C427.829 96.2653 425.258 110.178 431.507 108.708C433.938 108.136 434.331 105.224 436.823 105.094C440.098 104.923 440.05 110.285 443.321 110.515C447.718 110.823 451 102.082 451 102.082" stroke="#053B25" stroke-width="1.5"/>
<path d="M205.86 167.133C202.333 167.026 197 168.94 197 168.94V171.625H451V102.082C451 102.082 447.718 110.823 443.321 110.515C440.05 110.285 440.098 104.923 436.823 105.094C434.331 105.224 433.938 108.136 431.507 108.708C425.258 110.178 427.829 96.2653 421.465 95.4564C416.653 94.8448 414.975 101.955 410.242 100.877C407.18 100.18 406.881 96.1331 403.744 96.0588C401.166 95.9976 400.416 99.0125 397.837 99.0704C394.055 99.1553 393.9 93.6155 390.158 93.0471C382.811 91.9312 389.301 111.009 381.888 110.515C379.409 110.349 378.453 107.846 375.981 108.105C373.499 108.366 373.145 111.442 370.665 111.719C366.76 112.156 366.783 106.123 362.986 105.094C355.986 103.196 355.461 116.656 348.219 116.538C344.277 116.474 342.465 111.532 338.767 112.924C334.896 114.381 336.915 119.54 334.042 122.561C330.225 126.575 325.767 125.136 321.047 127.982C315.274 131.462 314.712 140.214 308.051 139.426C305.282 139.099 304.339 136.325 301.553 136.415C298.228 136.522 297.769 140.838 294.465 141.233C289.826 141.788 289.044 135.307 284.423 134.608C274.422 133.093 279.762 156.59 269.656 156.291C264.808 156.148 263.279 151.062 258.433 150.87C252.141 150.622 250.371 160.228 244.256 158.701C240.581 157.783 240.323 152.136 236.577 152.677C233.973 153.054 233.872 156.571 231.26 156.894C229.088 157.162 228.128 155.23 225.944 155.087C218.897 154.625 221.74 168.76 214.721 169.542C211.161 169.939 209.44 167.242 205.86 167.133Z" fill="url(#paint0_linear_117_5444)" fill-opacity="0.4"/>
<path d="M198.734 169.544C198.734 169.544 208.678 174.685 215.274 173.761C219.179 173.214 220.807 170.588 224.725 170.147C228.422 169.73 230.768 172.871 234.176 171.351C236.125 170.483 236.187 167.841 238.311 167.737C240.169 167.647 240.663 169.606 242.446 170.147C247.987 171.827 249.736 163.87 255.441 162.919C260.496 162.076 263.347 165.309 268.437 164.726C275.306 163.939 277.476 157.126 284.386 156.896C288.637 156.754 290.86 160.217 295.018 159.305C297.844 158.685 298.68 156.259 301.516 155.691C305.744 154.844 307.85 159.013 312.148 158.703C317.714 158.301 318.975 151.354 324.553 151.475C327.183 151.532 328.447 153.658 331.051 153.282C334.769 152.744 334.547 147.771 338.139 146.656C342.747 145.226 345.14 150.468 349.953 150.27C355.219 150.053 357.087 144.86 362.358 144.849C367.029 144.84 369.158 150.598 373.581 149.065C375.765 148.309 376.056 145.966 378.306 145.451C380.873 144.864 382.181 147.46 384.804 147.258C389.223 146.919 389.249 140.404 393.665 140.03C397.777 139.683 399.027 144.281 403.116 144.849C407.828 145.504 410.177 141.68 414.93 141.837C420.327 142.016 422.532 146.933 427.925 146.656C432.978 146.397 434.884 139.784 439.739 141.235C442.574 142.083 442.694 146.171 445.646 146.054C448.274 145.949 450.962 141.837 450.962 141.837" stroke="#030E09" stroke-opacity="0.1" stroke-width="1.5"/>
<defs>
<linearGradient id="paint0_linear_117_5444" x1="324" y1="172" x2="324" y2="93" gradientUnits="userSpaceOnUse">
<stop stop-color="white" stop-opacity="0"/>
<stop offset="1" stop-color="#053B25" stop-opacity="0.4"/>
</linearGradient>
</defs>
</svg>
