<svg width="372" height="134" viewBox="0 0 372 134" fill="none" xmlns="http://www.w3.org/2000/svg">
<rect width="372" height="134" rx="16" fill="white"/>
<rect x="0.5" y="0.5" width="371" height="133" rx="15.5" stroke="#030E09" stroke-opacity="0.05"/>
<path d="M27.374 39V30.208H24.196V29.102H31.77V30.208H28.592V39H27.374ZM35.4594 39.084C34.6848 39.084 34.0361 38.9253 33.5134 38.608C32.9908 38.2813 32.5988 37.8333 32.3374 37.264C32.0854 36.6947 31.9594 36.046 31.9594 35.318C31.9594 34.5807 32.0901 33.932 32.3514 33.372C32.6128 32.8027 33.0048 32.3547 33.5274 32.028C34.0501 31.7013 34.7034 31.538 35.4874 31.538C36.2621 31.538 36.9061 31.7013 37.4194 32.028C37.9421 32.3547 38.3294 32.8027 38.5814 33.372C38.8428 33.932 38.9734 34.5807 38.9734 35.318C38.9734 36.046 38.8428 36.6947 38.5814 37.264C38.3201 37.8333 37.9281 38.2813 37.4054 38.608C36.8921 38.9253 36.2434 39.084 35.4594 39.084ZM35.4594 38.034C36.0008 38.034 36.4394 37.9127 36.7754 37.67C37.1208 37.4273 37.3728 37.1007 37.5314 36.69C37.6994 36.2793 37.7834 35.822 37.7834 35.318C37.7834 34.814 37.6994 34.3567 37.5314 33.946C37.3728 33.5353 37.1208 33.2087 36.7754 32.966C36.4394 32.7233 36.0008 32.602 35.4594 32.602C34.9274 32.602 34.4888 32.7233 34.1434 32.966C33.8074 33.2087 33.5554 33.5353 33.3874 33.946C33.2288 34.3567 33.1494 34.814 33.1494 35.318C33.1494 35.822 33.2288 36.2793 33.3874 36.69C33.5554 37.1007 33.8074 37.4273 34.1434 37.67C34.4888 37.9127 34.9274 38.034 35.4594 38.034ZM43.3656 39.084C42.5909 39.084 42.0449 38.874 41.7276 38.454C41.4196 38.034 41.2656 37.4367 41.2656 36.662V32.672H40.0616V31.622H41.2656V29.41H42.4556V31.622H44.7236V32.672H42.4556V36.508C42.4556 36.788 42.4789 37.0447 42.5256 37.278C42.5723 37.502 42.6703 37.684 42.8196 37.824C42.9689 37.9547 43.1929 38.0247 43.4916 38.034C43.7063 38.034 43.8929 37.9967 44.0516 37.922C44.2196 37.8473 44.3596 37.7587 44.4716 37.656L44.9896 38.524C44.8309 38.6547 44.6629 38.762 44.4856 38.846C44.3176 38.93 44.1403 38.9907 43.9536 39.028C43.7763 39.0653 43.5803 39.084 43.3656 39.084ZM48.5384 39.084C48.2024 39.084 47.8757 39.042 47.5584 38.958C47.2504 38.8647 46.9704 38.7293 46.7184 38.552C46.4757 38.3653 46.2797 38.1367 46.1304 37.866C45.9904 37.586 45.9204 37.264 45.9204 36.9C45.9204 36.48 45.9951 36.1253 46.1444 35.836C46.3031 35.5467 46.5131 35.318 46.7744 35.15C47.0357 34.982 47.3391 34.8607 47.6844 34.786C48.0297 34.7113 48.3891 34.674 48.7624 34.674H50.9324C50.9324 34.254 50.8717 33.89 50.7504 33.582C50.6384 33.274 50.4517 33.036 50.1904 32.868C49.9291 32.6907 49.5837 32.602 49.1544 32.602C48.8931 32.602 48.6504 32.63 48.4264 32.686C48.2024 32.742 48.0111 32.8307 47.8524 32.952C47.6937 33.0733 47.5771 33.2367 47.5024 33.442H46.2284C46.2937 33.106 46.4197 32.8213 46.6064 32.588C46.8024 32.3453 47.0357 32.1493 47.3064 32C47.5864 31.8413 47.8851 31.7247 48.2024 31.65C48.5197 31.5753 48.8371 31.538 49.1544 31.538C50.2184 31.538 50.9744 31.8507 51.4224 32.476C51.8704 33.1013 52.0944 33.946 52.0944 35.01V39H51.1004L51.0304 38.062C50.8251 38.342 50.5777 38.5567 50.2884 38.706C49.9991 38.8553 49.7004 38.9533 49.3924 39C49.0937 39.056 48.8091 39.084 48.5384 39.084ZM48.6504 38.034C49.1171 38.034 49.5184 37.9593 49.8544 37.81C50.1997 37.6513 50.4657 37.4227 50.6524 37.124C50.8391 36.8253 50.9324 36.4613 50.9324 36.032V35.668H49.6304C49.3224 35.668 49.0191 35.6727 48.7204 35.682C48.4217 35.6913 48.1511 35.7287 47.9084 35.794C47.6657 35.8593 47.4697 35.9713 47.3204 36.13C47.1804 36.2887 47.1104 36.5173 47.1104 36.816C47.1104 37.096 47.1804 37.3247 47.3204 37.502C47.4697 37.6793 47.6611 37.8147 47.8944 37.908C48.1371 37.992 48.3891 38.034 48.6504 38.034ZM53.966 39V29.102H55.156V39H53.966ZM60.858 41.66V31.622H61.992L62.048 32.728C62.3 32.3453 62.6406 32.0513 63.07 31.846C63.5086 31.6407 63.98 31.538 64.484 31.538C65.2306 31.538 65.842 31.706 66.318 32.042C66.794 32.3687 67.144 32.8167 67.368 33.386C67.6013 33.9553 67.718 34.5993 67.718 35.318C67.718 36.0367 67.6013 36.6807 67.368 37.25C67.1346 37.8193 66.7753 38.2673 66.29 38.594C65.8046 38.9207 65.184 39.084 64.428 39.084C64.0546 39.084 63.7186 39.0467 63.42 38.972C63.1213 38.888 62.86 38.7713 62.636 38.622C62.412 38.4633 62.216 38.2813 62.048 38.076V41.66H60.858ZM64.33 38.034C64.8713 38.034 65.3006 37.9127 65.618 37.67C65.9353 37.418 66.164 37.0867 66.304 36.676C66.4533 36.2653 66.528 35.8127 66.528 35.318C66.528 34.814 66.4533 34.3567 66.304 33.946C66.164 33.5353 65.9306 33.2087 65.604 32.966C65.2773 32.7233 64.8433 32.602 64.302 32.602C63.8166 32.602 63.4013 32.728 63.056 32.98C62.72 33.2227 62.4633 33.554 62.286 33.974C62.1086 34.3847 62.02 34.8373 62.02 35.332C62.02 35.8453 62.104 36.3073 62.272 36.718C62.44 37.1287 62.6966 37.4507 63.042 37.684C63.3873 37.9173 63.8166 38.034 64.33 38.034ZM69.3352 39V31.622H70.4832L70.5392 32.77C70.7258 32.4807 70.9405 32.2473 71.1832 32.07C71.4352 31.8927 71.7105 31.762 72.0092 31.678C72.3172 31.5847 72.6485 31.538 73.0032 31.538C73.0685 31.538 73.1292 31.538 73.1852 31.538C73.2505 31.538 73.3158 31.538 73.3812 31.538V32.658H72.9472C72.3685 32.658 71.8972 32.784 71.5332 33.036C71.1785 33.2787 70.9218 33.61 70.7632 34.03C70.6045 34.4407 70.5252 34.898 70.5252 35.402V39H69.3352ZM77.6691 39.084C76.8944 39.084 76.2458 38.9253 75.7231 38.608C75.2004 38.2813 74.8084 37.8333 74.5471 37.264C74.2951 36.6947 74.1691 36.046 74.1691 35.318C74.1691 34.5807 74.2998 33.932 74.5611 33.372C74.8224 32.8027 75.2144 32.3547 75.7371 32.028C76.2598 31.7013 76.9131 31.538 77.6971 31.538C78.4718 31.538 79.1158 31.7013 79.6291 32.028C80.1518 32.3547 80.5391 32.8027 80.7911 33.372C81.0524 33.932 81.1831 34.5807 81.1831 35.318C81.1831 36.046 81.0524 36.6947 80.7911 37.264C80.5298 37.8333 80.1378 38.2813 79.6151 38.608C79.1018 38.9253 78.4531 39.084 77.6691 39.084ZM77.6691 38.034C78.2104 38.034 78.6491 37.9127 78.9851 37.67C79.3304 37.4273 79.5824 37.1007 79.7411 36.69C79.9091 36.2793 79.9931 35.822 79.9931 35.318C79.9931 34.814 79.9091 34.3567 79.7411 33.946C79.5824 33.5353 79.3304 33.2087 78.9851 32.966C78.6491 32.7233 78.2104 32.602 77.6691 32.602C77.1371 32.602 76.6984 32.7233 76.3531 32.966C76.0171 33.2087 75.7651 33.5353 75.5971 33.946C75.4384 34.3567 75.3591 34.814 75.3591 35.318C75.3591 35.822 75.4384 36.2793 75.5971 36.69C75.7651 37.1007 76.0171 37.4273 76.3531 37.67C76.6984 37.9127 77.1371 38.034 77.6691 38.034ZM83.3806 39V32.672H82.1766V31.622H83.3806V30.838C83.3806 30.2873 83.4552 29.8393 83.6046 29.494C83.7632 29.1393 84.0106 28.878 84.3466 28.71C84.6919 28.542 85.1446 28.458 85.7046 28.458H86.5446V29.508H85.8306C85.4946 29.508 85.2332 29.564 85.0466 29.676C84.8692 29.788 84.7432 29.956 84.6686 30.18C84.6032 30.3947 84.5706 30.6607 84.5706 30.978V31.622H86.5446V32.672H84.5706V39H83.3806ZM87.8215 39V31.622H89.0115V39H87.8215ZM88.4095 30.53C88.1668 30.53 87.9708 30.4553 87.8215 30.306C87.6815 30.1567 87.6115 29.9653 87.6115 29.732C87.6115 29.4987 87.6862 29.312 87.8355 29.172C87.9848 29.0227 88.1762 28.948 88.4095 28.948C88.6242 28.948 88.8108 29.0227 88.9695 29.172C89.1375 29.3213 89.2215 29.508 89.2215 29.732C89.2215 29.9653 89.1422 30.1567 88.9835 30.306C88.8248 30.4553 88.6335 30.53 88.4095 30.53ZM93.908 39C93.348 39 92.8953 38.916 92.55 38.748C92.214 38.58 91.9667 38.3187 91.808 37.964C91.6587 37.6093 91.584 37.1613 91.584 36.62V32.672H90.38V31.622H91.584V29.424H92.774V31.622H94.748V32.672H92.774V36.494C92.774 36.998 92.8627 37.3713 93.04 37.614C93.2267 37.8473 93.6 37.964 94.16 37.964H94.706V39H93.908Z" fill="#030E09" fill-opacity="0.6"/>
<path d="M30.624 78.36V75.024C29.728 74.896 28.896 74.64 28.128 74.256C27.36 73.872 26.72 73.336 26.208 72.648C25.712 71.944 25.384 71.072 25.224 70.032H28.272C28.464 70.656 28.768 71.144 29.184 71.496C29.616 71.848 30.112 72.096 30.672 72.24C31.248 72.384 31.84 72.456 32.448 72.456C33.008 72.456 33.52 72.384 33.984 72.24C34.464 72.096 34.848 71.864 35.136 71.544C35.44 71.224 35.592 70.816 35.592 70.32C35.592 69.904 35.496 69.568 35.304 69.312C35.128 69.056 34.88 68.848 34.56 68.688C34.256 68.528 33.896 68.392 33.48 68.28C32.84 68.088 32.216 67.936 31.608 67.824C31.016 67.696 30.448 67.56 29.904 67.416C29.376 67.272 28.872 67.088 28.392 66.864C27.608 66.48 26.976 65.968 26.496 65.328C26.032 64.688 25.8 63.808 25.8 62.688C25.8 61.68 26.032 60.84 26.496 60.168C26.96 59.48 27.568 58.952 28.32 58.584C29.072 58.2 29.88 57.976 30.744 57.912V54.624H33.552V57.96C34.416 58.056 35.192 58.304 35.88 58.704C36.568 59.104 37.12 59.648 37.536 60.336C37.952 61.008 38.168 61.824 38.184 62.784H35.256C35.208 62.256 35.024 61.824 34.704 61.488C34.4 61.152 34.008 60.912 33.528 60.768C33.048 60.608 32.52 60.528 31.944 60.528C31.448 60.528 30.952 60.592 30.456 60.72C29.976 60.832 29.576 61.04 29.256 61.344C28.952 61.632 28.8 62.048 28.8 62.592C28.8 62.928 28.88 63.232 29.04 63.504C29.2 63.76 29.416 63.976 29.688 64.152C29.96 64.328 30.272 64.472 30.624 64.584C31.216 64.808 31.872 64.992 32.592 65.136C33.312 65.28 33.984 65.448 34.608 65.64C35.424 65.864 36.128 66.144 36.72 66.48C37.328 66.8 37.792 67.24 38.112 67.8C38.448 68.344 38.616 69.056 38.616 69.936C38.616 71.056 38.384 71.976 37.92 72.696C37.456 73.416 36.832 73.976 36.048 74.376C35.264 74.776 34.392 75.016 33.432 75.096V78.36H30.624ZM43.6832 75V62.16H40.3232V59.976C40.9792 59.944 41.5632 59.872 42.0752 59.76C42.5872 59.648 43.0432 59.456 43.4432 59.184C43.8592 58.912 44.2272 58.528 44.5472 58.032H46.6832V75H43.6832ZM56.5678 75.192C55.7838 75.192 55.0158 75.104 54.2638 74.928C53.5118 74.752 52.8398 74.464 52.2478 74.064C51.6558 73.648 51.1758 73.12 50.8078 72.48C50.4558 71.824 50.2798 71.024 50.2798 70.08C50.2798 69.456 50.3758 68.888 50.5678 68.376C50.7758 67.848 51.0718 67.392 51.4558 67.008C51.8398 66.624 52.2878 66.312 52.7998 66.072C52.3038 65.784 51.9038 65.44 51.5998 65.04C51.3118 64.64 51.1118 64.208 50.9998 63.744C50.8878 63.28 50.8318 62.824 50.8318 62.376C50.8318 61.56 50.9918 60.864 51.3118 60.288C51.6318 59.712 52.0718 59.24 52.6318 58.872C53.1918 58.504 53.8078 58.24 54.4798 58.08C55.1678 57.904 55.8718 57.816 56.5918 57.816C57.3118 57.816 58.0158 57.904 58.7038 58.08C59.3918 58.24 60.0078 58.512 60.5518 58.896C61.1118 59.264 61.5518 59.744 61.8718 60.336C62.1918 60.912 62.3518 61.624 62.3518 62.472C62.3518 62.888 62.2878 63.32 62.1598 63.768C62.0318 64.216 61.8158 64.64 61.5118 65.04C61.2238 65.424 60.8318 65.752 60.3358 66.024C60.8798 66.264 61.3438 66.584 61.7278 66.984C62.1118 67.368 62.3998 67.824 62.5918 68.352C62.7998 68.864 62.9038 69.448 62.9038 70.104C62.9038 71.032 62.7198 71.824 62.3518 72.48C61.9998 73.136 61.5198 73.664 60.9118 74.064C60.3038 74.448 59.6238 74.736 58.8718 74.928C58.1198 75.104 57.3518 75.192 56.5678 75.192ZM56.5678 72.504C56.9518 72.504 57.3278 72.464 57.6958 72.384C58.0798 72.304 58.4318 72.168 58.7518 71.976C59.0878 71.784 59.3598 71.528 59.5678 71.208C59.7758 70.872 59.8798 70.464 59.8798 69.984C59.8798 69.408 59.7278 68.936 59.4238 68.568C59.1198 68.2 58.7198 67.928 58.2238 67.752C57.7278 67.576 57.1838 67.488 56.5918 67.488C55.9998 67.488 55.4478 67.576 54.9358 67.752C54.4398 67.928 54.0398 68.2 53.7358 68.568C53.4318 68.936 53.2798 69.408 53.2798 69.984C53.2798 70.464 53.3758 70.872 53.5678 71.208C53.7758 71.528 54.0478 71.784 54.3838 71.976C54.7198 72.168 55.0718 72.304 55.4398 72.384C55.8238 72.464 56.1998 72.504 56.5678 72.504ZM56.5918 65.136C57.1358 65.136 57.6078 65.048 58.0078 64.872C58.4238 64.68 58.7518 64.416 58.9918 64.08C59.2478 63.744 59.3758 63.336 59.3758 62.856C59.3918 62.312 59.2718 61.864 59.0158 61.512C58.7598 61.144 58.4158 60.88 57.9838 60.72C57.5678 60.544 57.0958 60.456 56.5678 60.456C56.0238 60.456 55.5358 60.544 55.1038 60.72C54.6878 60.88 54.3678 61.136 54.1438 61.488C53.9198 61.824 53.8078 62.248 53.8078 62.76C53.8078 63.272 53.9278 63.712 54.1678 64.08C54.4238 64.432 54.7598 64.696 55.1758 64.872C55.6078 65.048 56.0798 65.136 56.5918 65.136ZM66.3844 78.432L65.5444 77.16C65.7844 77.032 66.0324 76.848 66.2884 76.608C66.5444 76.384 66.7764 76.128 66.9844 75.84C67.2084 75.568 67.3604 75.32 67.4404 75.096C66.9764 75.048 66.5764 74.88 66.2404 74.592C65.9204 74.288 65.7604 73.864 65.7604 73.32C65.7604 72.76 65.9524 72.32 66.3364 72C66.7204 71.68 67.1524 71.52 67.6324 71.52C68.2404 71.52 68.7204 71.752 69.0724 72.216C69.4244 72.664 69.6004 73.256 69.6004 73.992C69.6004 74.648 69.4404 75.28 69.1204 75.888C68.8164 76.496 68.4164 77.024 67.9204 77.472C67.4404 77.92 66.9284 78.24 66.3844 78.432ZM72.4399 75V72.528L77.1679 68.544C77.5519 68.224 77.9759 67.872 78.4399 67.488C78.9039 67.104 79.3439 66.688 79.7599 66.24C80.1919 65.776 80.5519 65.296 80.8399 64.8C81.1279 64.304 81.2719 63.784 81.2719 63.24C81.2719 62.424 81.0239 61.784 80.5279 61.32C80.0479 60.856 79.3599 60.624 78.4639 60.624C77.6799 60.624 77.0399 60.792 76.5439 61.128C76.0479 61.464 75.7359 61.92 75.6079 62.496H72.6559C72.7679 61.424 73.1119 60.552 73.6879 59.88C74.2799 59.192 75.0079 58.68 75.8719 58.344C76.7359 57.992 77.6399 57.816 78.5839 57.816C79.6559 57.816 80.6159 58.016 81.4639 58.416C82.3119 58.8 82.9839 59.376 83.4799 60.144C83.9919 60.896 84.2479 61.816 84.2479 62.904C84.2479 63.88 84.0559 64.76 83.6719 65.544C83.3039 66.328 82.7999 67.048 82.1599 67.704C81.5359 68.344 80.8479 68.976 80.0959 69.6L76.8559 72.264H84.2959V75H72.4399ZM93.2364 75.192C92.0524 75.192 91.0364 74.968 90.1884 74.52C89.3404 74.072 88.6524 73.464 88.1244 72.696C87.5964 71.928 87.2044 71.048 86.9484 70.056C86.7084 69.064 86.5884 68.024 86.5884 66.936C86.5884 65.704 86.7164 64.544 86.9724 63.456C87.2444 62.352 87.6604 61.384 88.2204 60.552C88.7804 59.704 89.5004 59.04 90.3804 58.56C91.2764 58.064 92.3324 57.816 93.5484 57.816C94.4604 57.816 95.3004 57.976 96.0684 58.296C96.8524 58.616 97.5084 59.096 98.0364 59.736C98.5644 60.376 98.9244 61.176 99.1164 62.136H96.2364C96.0124 61.624 95.6444 61.232 95.1324 60.96C94.6364 60.672 94.0844 60.528 93.4764 60.528C92.8524 60.528 92.3084 60.648 91.8444 60.888C91.3964 61.112 91.0124 61.416 90.6924 61.8C90.3724 62.168 90.1164 62.6 89.9244 63.096C89.7324 63.592 89.5884 64.104 89.4924 64.632C89.3964 65.16 89.3484 65.68 89.3484 66.192C89.7324 65.632 90.1724 65.2 90.6684 64.896C91.1644 64.576 91.6844 64.352 92.2284 64.224C92.7724 64.08 93.2844 64.008 93.7644 64.008C94.9004 64.008 95.8684 64.232 96.6684 64.68C97.4844 65.128 98.1164 65.76 98.5644 66.576C99.0124 67.376 99.2364 68.32 99.2364 69.408C99.2364 70.576 98.9804 71.592 98.4684 72.456C97.9564 73.32 97.2444 73.992 96.3324 74.472C95.4364 74.952 94.4044 75.192 93.2364 75.192ZM93.2124 72.48C93.8364 72.464 94.3724 72.328 94.8204 72.072C95.2684 71.816 95.6124 71.472 95.8524 71.04C96.1084 70.592 96.2364 70.104 96.2364 69.576C96.2364 69.016 96.1164 68.52 95.8764 68.088C95.6364 67.64 95.2924 67.288 94.8444 67.032C94.4124 66.76 93.8924 66.624 93.2844 66.624C92.7084 66.624 92.1804 66.752 91.7004 67.008C91.2204 67.248 90.8364 67.592 90.5484 68.04C90.2604 68.472 90.1164 68.976 90.1164 69.552C90.1164 70.08 90.2444 70.568 90.5004 71.016C90.7724 71.448 91.1404 71.8 91.6044 72.072C92.0684 72.344 92.6044 72.48 93.2124 72.48ZM108.334 75.192C107.102 75.192 106.054 74.976 105.19 74.544C104.326 74.096 103.63 73.472 103.102 72.672C102.574 71.872 102.182 70.952 101.926 69.912C101.686 68.872 101.566 67.752 101.566 66.552C101.566 65.336 101.686 64.2 101.926 63.144C102.182 62.088 102.574 61.168 103.102 60.384C103.646 59.584 104.35 58.96 105.214 58.512C106.078 58.048 107.126 57.816 108.358 57.816C109.622 57.816 110.686 58.056 111.55 58.536C112.43 59.016 113.126 59.664 113.638 60.48C114.166 61.296 114.542 62.224 114.766 63.264C115.006 64.304 115.126 65.392 115.126 66.528C115.126 67.648 115.006 68.728 114.766 69.768C114.542 70.808 114.166 71.736 113.638 72.552C113.11 73.368 112.406 74.016 111.526 74.496C110.662 74.96 109.598 75.192 108.334 75.192ZM108.334 72.456C109.15 72.456 109.806 72.264 110.302 71.88C110.814 71.496 111.198 71.008 111.454 70.416C111.71 69.808 111.878 69.16 111.958 68.472C112.054 67.784 112.102 67.136 112.102 66.528C112.102 65.92 112.062 65.28 111.982 64.608C111.902 63.92 111.734 63.272 111.478 62.664C111.222 62.056 110.846 61.56 110.35 61.176C109.854 60.792 109.19 60.6 108.358 60.6C107.526 60.6 106.854 60.792 106.342 61.176C105.846 61.56 105.47 62.056 105.214 62.664C104.958 63.256 104.782 63.896 104.686 64.584C104.606 65.272 104.566 65.92 104.566 66.528C104.566 67.136 104.606 67.784 104.686 68.472C104.766 69.144 104.926 69.784 105.166 70.392C105.422 71 105.798 71.496 106.294 71.88C106.806 72.264 107.486 72.456 108.334 72.456ZM119.311 75.288C118.799 75.288 118.359 75.12 117.991 74.784C117.639 74.448 117.463 73.992 117.463 73.416C117.463 72.84 117.647 72.384 118.015 72.048C118.383 71.696 118.823 71.52 119.335 71.52C119.847 71.52 120.279 71.696 120.631 72.048C120.983 72.384 121.159 72.84 121.159 73.416C121.159 73.992 120.983 74.448 120.631 74.784C120.279 75.12 119.839 75.288 119.311 75.288ZM129.978 75.192C129.226 75.192 128.514 75.104 127.842 74.928C127.17 74.736 126.562 74.448 126.018 74.064C125.474 73.68 125.018 73.192 124.65 72.6C124.298 71.992 124.058 71.28 123.93 70.464H126.882C127.01 70.816 127.218 71.144 127.506 71.448C127.81 71.752 128.17 71.992 128.586 72.168C129.018 72.344 129.482 72.432 129.978 72.432C130.65 72.432 131.226 72.32 131.706 72.096C132.186 71.856 132.562 71.52 132.834 71.088C133.106 70.64 133.242 70.104 133.242 69.48C133.242 68.552 132.954 67.824 132.378 67.296C131.818 66.768 131.05 66.504 130.074 66.504C129.498 66.504 128.962 66.608 128.466 66.816C127.97 67.008 127.506 67.28 127.074 67.632H124.41L124.866 58.032H135.69V60.768H127.626L127.338 64.824C127.818 64.488 128.37 64.24 128.994 64.08C129.618 63.904 130.298 63.824 131.034 63.84C132.122 63.856 133.058 64.096 133.842 64.56C134.642 65.008 135.25 65.632 135.666 66.432C136.082 67.232 136.29 68.176 136.29 69.264C136.29 70.528 136.01 71.6 135.45 72.48C134.906 73.36 134.154 74.032 133.194 74.496C132.25 74.96 131.178 75.192 129.978 75.192ZM145.392 75.192C144.16 75.192 143.112 74.976 142.248 74.544C141.384 74.096 140.688 73.472 140.16 72.672C139.632 71.872 139.24 70.952 138.984 69.912C138.744 68.872 138.624 67.752 138.624 66.552C138.624 65.336 138.744 64.2 138.984 63.144C139.24 62.088 139.632 61.168 140.16 60.384C140.704 59.584 141.408 58.96 142.272 58.512C143.136 58.048 144.184 57.816 145.416 57.816C146.68 57.816 147.744 58.056 148.608 58.536C149.488 59.016 150.184 59.664 150.696 60.48C151.224 61.296 151.6 62.224 151.824 63.264C152.064 64.304 152.184 65.392 152.184 66.528C152.184 67.648 152.064 68.728 151.824 69.768C151.6 70.808 151.224 71.736 150.696 72.552C150.168 73.368 149.464 74.016 148.584 74.496C147.72 74.96 146.656 75.192 145.392 75.192ZM145.392 72.456C146.208 72.456 146.864 72.264 147.36 71.88C147.872 71.496 148.256 71.008 148.512 70.416C148.768 69.808 148.936 69.16 149.016 68.472C149.112 67.784 149.16 67.136 149.16 66.528C149.16 65.92 149.12 65.28 149.04 64.608C148.96 63.92 148.792 63.272 148.536 62.664C148.28 62.056 147.904 61.56 147.408 61.176C146.912 60.792 146.248 60.6 145.416 60.6C144.584 60.6 143.912 60.792 143.4 61.176C142.904 61.56 142.528 62.056 142.272 62.664C142.016 63.256 141.84 63.896 141.744 64.584C141.664 65.272 141.624 65.92 141.624 66.528C141.624 67.136 141.664 67.784 141.744 68.472C141.824 69.144 141.984 69.784 142.224 70.392C142.48 71 142.856 71.496 143.352 71.88C143.864 72.264 144.544 72.456 145.392 72.456Z" fill="#030E09"/>
<path d="M25.036 101.598V100.506H29.376V101.598H25.036ZM34.5141 106.932V105.07C33.9914 105.014 33.5014 104.888 33.0441 104.692C32.5961 104.496 32.2134 104.211 31.8961 103.838C31.5881 103.455 31.3781 102.979 31.2661 102.41H32.5401C32.6708 102.83 32.8808 103.157 33.1701 103.39C33.4688 103.623 33.8094 103.787 34.1921 103.88C34.5748 103.964 34.9574 104.006 35.3401 104.006C35.7228 104.006 36.0774 103.955 36.4041 103.852C36.7401 103.74 37.0108 103.563 37.2161 103.32C37.4308 103.077 37.5381 102.765 37.5381 102.382C37.5381 102.083 37.4821 101.841 37.3701 101.654C37.2674 101.467 37.1181 101.318 36.9221 101.206C36.7354 101.085 36.5114 100.987 36.2501 100.912C35.9048 100.8 35.5361 100.711 35.1441 100.646C34.7521 100.571 34.3648 100.487 33.9821 100.394C33.6088 100.291 33.2588 100.156 32.9321 99.988C32.5401 99.7733 32.2228 99.4887 31.9801 99.134C31.7374 98.7793 31.6161 98.322 31.6161 97.762C31.6161 97.1553 31.7514 96.656 32.0221 96.264C32.3021 95.872 32.6661 95.5733 33.1141 95.368C33.5714 95.1627 34.0614 95.0413 34.5841 95.004V93.184H35.8161V95.032C36.3108 95.0787 36.7541 95.2093 37.1461 95.424C37.5474 95.6293 37.8694 95.914 38.1121 96.278C38.3548 96.642 38.4854 97.0947 38.5041 97.636H37.3141C37.2674 97.244 37.1368 96.936 36.9221 96.712C36.7074 96.488 36.4414 96.3293 36.1241 96.236C35.8068 96.1427 35.4708 96.096 35.1161 96.096C34.7708 96.096 34.4254 96.1427 34.0801 96.236C33.7348 96.32 33.4454 96.474 33.2121 96.698C32.9881 96.922 32.8761 97.2393 32.8761 97.65C32.8761 97.8927 32.9181 98.1073 33.0021 98.294C33.0954 98.4807 33.2168 98.6347 33.3661 98.756C33.5154 98.8773 33.6834 98.98 33.8701 99.064C34.3181 99.2507 34.8128 99.3953 35.3541 99.498C35.9048 99.5913 36.4228 99.7173 36.9081 99.876C37.3001 99.9973 37.6361 100.161 37.9161 100.366C38.1961 100.562 38.4108 100.814 38.5601 101.122C38.7094 101.421 38.7841 101.785 38.7841 102.214C38.7841 102.849 38.6441 103.371 38.3641 103.782C38.0934 104.193 37.7294 104.505 37.2721 104.72C36.8148 104.935 36.3014 105.061 35.7321 105.098V106.932H34.5141ZM44.2476 105.112C43.5756 105.112 42.9969 104.986 42.5116 104.734C42.0356 104.473 41.6436 104.123 41.3356 103.684C41.0369 103.236 40.8176 102.732 40.6776 102.172C40.5376 101.603 40.4676 101.005 40.4676 100.38C40.4676 99.6427 40.5376 98.952 40.6776 98.308C40.8269 97.6547 41.0556 97.0807 41.3636 96.586C41.6809 96.0913 42.0916 95.704 42.5956 95.424C43.0996 95.1347 43.7063 94.99 44.4156 94.99C44.8916 94.99 45.3349 95.074 45.7456 95.242C46.1656 95.4007 46.5296 95.6433 46.8376 95.97C47.1456 96.2873 47.3743 96.6793 47.5236 97.146H46.2496C46.0816 96.8007 45.8249 96.5393 45.4796 96.362C45.1343 96.1847 44.7749 96.096 44.4016 96.096C43.9723 96.096 43.6036 96.18 43.2956 96.348C42.9876 96.5067 42.7263 96.7213 42.5116 96.992C42.3063 97.2627 42.1383 97.5707 42.0076 97.916C41.8863 98.2613 41.7976 98.6207 41.7416 98.994C41.6856 99.3673 41.6576 99.7313 41.6576 100.086C41.8723 99.7593 42.1196 99.4933 42.3996 99.288C42.6889 99.0827 43.0016 98.9333 43.3376 98.84C43.6829 98.7373 44.0329 98.686 44.3876 98.686C45.0409 98.686 45.6056 98.8213 46.0816 99.092C46.5669 99.3533 46.9449 99.722 47.2156 100.198C47.4863 100.665 47.6216 101.206 47.6216 101.822C47.6216 102.475 47.4769 103.049 47.1876 103.544C46.8983 104.039 46.4969 104.426 45.9836 104.706C45.4796 104.977 44.9009 105.112 44.2476 105.112ZM44.2196 104.006C44.6396 104.006 45.0083 103.917 45.3256 103.74C45.6523 103.553 45.9089 103.306 46.0956 102.998C46.2823 102.681 46.3756 102.331 46.3756 101.948C46.3756 101.537 46.2869 101.173 46.1096 100.856C45.9323 100.539 45.6849 100.287 45.3676 100.1C45.0596 99.9133 44.6956 99.82 44.2756 99.82C43.8929 99.82 43.5289 99.9087 43.1836 100.086C42.8383 100.254 42.5583 100.497 42.3436 100.814C42.1383 101.122 42.0356 101.491 42.0356 101.92C42.0356 102.312 42.1289 102.667 42.3156 102.984C42.5116 103.292 42.7729 103.539 43.0996 103.726C43.4356 103.913 43.8089 104.006 44.2196 104.006ZM52.7603 105.112C52.3123 105.112 51.8736 105.065 51.4443 104.972C51.0243 104.869 50.6463 104.706 50.3103 104.482C49.9743 104.258 49.7036 103.964 49.4983 103.6C49.3023 103.227 49.2043 102.774 49.2043 102.242C49.2043 101.869 49.2696 101.528 49.4003 101.22C49.5309 100.912 49.7176 100.646 49.9603 100.422C50.2123 100.198 50.5063 100.021 50.8423 99.89C50.4689 99.7127 50.1843 99.4933 49.9883 99.232C49.7923 98.9613 49.6616 98.6813 49.5963 98.392C49.5309 98.1027 49.4983 97.8413 49.4983 97.608C49.4983 97.1413 49.5869 96.7447 49.7643 96.418C49.9509 96.0913 50.1983 95.8207 50.5063 95.606C50.8236 95.3913 51.1736 95.2373 51.5563 95.144C51.9483 95.0413 52.3496 94.99 52.7603 94.99C53.1709 94.99 53.5676 95.0413 53.9503 95.144C54.3423 95.2373 54.6923 95.3913 55.0003 95.606C55.3176 95.8207 55.5649 96.0913 55.7423 96.418C55.9289 96.7447 56.0223 97.1413 56.0223 97.608C56.0223 97.8507 55.9849 98.112 55.9103 98.392C55.8449 98.672 55.7143 98.9427 55.5183 99.204C55.3223 99.456 55.0376 99.6707 54.6643 99.848C55.0189 99.9787 55.3176 100.161 55.5603 100.394C55.8123 100.627 55.9989 100.903 56.1203 101.22C56.2509 101.528 56.3163 101.869 56.3163 102.242C56.3163 102.774 56.2136 103.227 56.0083 103.6C55.8123 103.964 55.5416 104.258 55.1963 104.482C54.8603 104.706 54.4823 104.869 54.0623 104.972C53.6423 105.065 53.2083 105.112 52.7603 105.112ZM52.7603 104.006C52.9843 104.006 53.2269 103.983 53.4883 103.936C53.7496 103.889 53.9969 103.805 54.2303 103.684C54.4729 103.553 54.6689 103.376 54.8183 103.152C54.9769 102.919 55.0563 102.62 55.0563 102.256C55.0563 101.827 54.9443 101.486 54.7203 101.234C54.5056 100.982 54.2209 100.8 53.8663 100.688C53.5209 100.576 53.1523 100.52 52.7603 100.52C52.3776 100.52 52.0089 100.576 51.6543 100.688C51.2996 100.8 51.0103 100.982 50.7863 101.234C50.5623 101.486 50.4503 101.827 50.4503 102.256C50.4503 102.62 50.5249 102.919 50.6743 103.152C50.8329 103.376 51.0336 103.553 51.2763 103.684C51.5189 103.805 51.7709 103.889 52.0323 103.936C52.2936 103.983 52.5363 104.006 52.7603 104.006ZM52.7603 99.442C53.1149 99.442 53.4416 99.386 53.7403 99.274C54.0389 99.1527 54.2816 98.9753 54.4683 98.742C54.6643 98.4993 54.7623 98.196 54.7623 97.832C54.7716 97.4027 54.6829 97.062 54.4963 96.81C54.3096 96.558 54.0623 96.376 53.7543 96.264C53.4556 96.152 53.1243 96.096 52.7603 96.096C52.3869 96.096 52.0463 96.1567 51.7383 96.278C51.4396 96.39 51.2016 96.572 51.0243 96.824C50.8469 97.0667 50.7583 97.384 50.7583 97.776C50.7583 98.168 50.8516 98.49 51.0383 98.742C51.2343 98.9847 51.4816 99.162 51.7803 99.274C52.0883 99.386 52.4149 99.442 52.7603 99.442ZM61.8052 105.112C61.1146 105.112 60.5219 104.986 60.0272 104.734C59.5419 104.473 59.1452 104.113 58.8372 103.656C58.5292 103.189 58.3006 102.653 58.1512 102.046C58.0112 101.43 57.9412 100.767 57.9412 100.058C57.9412 99.3487 58.0112 98.6907 58.1512 98.084C58.2912 97.468 58.5152 96.9313 58.8232 96.474C59.1312 96.0073 59.5279 95.6433 60.0132 95.382C60.5079 95.1207 61.1052 94.99 61.8052 94.99C62.5426 94.99 63.1586 95.1347 63.6532 95.424C64.1573 95.704 64.5539 96.0867 64.8432 96.572C65.1419 97.0573 65.3519 97.6033 65.4732 98.21C65.6039 98.8073 65.6692 99.4233 65.6692 100.058C65.6692 100.693 65.6039 101.313 65.4732 101.92C65.3519 102.517 65.1419 103.059 64.8432 103.544C64.5539 104.02 64.1573 104.403 63.6532 104.692C63.1586 104.972 62.5426 105.112 61.8052 105.112ZM61.8052 104.006C62.3559 104.006 62.7992 103.889 63.1352 103.656C63.4806 103.413 63.7466 103.096 63.9332 102.704C64.1199 102.312 64.2459 101.887 64.3112 101.43C64.3766 100.963 64.4093 100.506 64.4093 100.058C64.4093 99.6193 64.3766 99.1713 64.3112 98.714C64.2459 98.2473 64.1199 97.818 63.9332 97.426C63.7466 97.0247 63.4806 96.7027 63.1352 96.46C62.7992 96.2173 62.3559 96.096 61.8052 96.096C61.2452 96.096 60.7926 96.2173 60.4472 96.46C60.1019 96.7027 59.8359 97.0247 59.6492 97.426C59.4719 97.818 59.3506 98.2473 59.2852 98.714C59.2199 99.1713 59.1872 99.6193 59.1872 100.058C59.1872 100.506 59.2199 100.963 59.2852 101.43C59.3506 101.887 59.4719 102.312 59.6492 102.704C59.8359 103.096 60.1019 103.413 60.4472 103.656C60.7926 103.889 61.2452 104.006 61.8052 104.006Z" fill="#030E09" fill-opacity="0.6"/>
<rect x="73" y="90" width="45" height="20" rx="10" fill="#EF4444" fill-opacity="0.15"/>
<path d="M83.82 101.688V99.804H82.02V98.676H83.82V96.792H84.948V98.676H86.76V99.804H84.948V101.688H83.82ZM89.7534 103.5V96.888H88.0494V95.988C88.3694 95.964 88.6574 95.928 88.9134 95.88C89.1694 95.824 89.3974 95.732 89.5974 95.604C89.7974 95.468 89.9734 95.272 90.1254 95.016H91.0254V103.5H89.7534ZM97.2543 103.5V101.856H92.7423V100.896L96.8223 95.016H98.5143V100.704H99.4983V101.856H98.5143V103.5H97.2543ZM94.2423 100.704H97.2543V96.276L94.2423 100.704ZM101.584 103.5L106.912 95.016H108.184L102.88 103.5H101.584ZM107.404 103.572C107.012 103.572 106.676 103.488 106.396 103.32C106.124 103.152 105.912 102.924 105.76 102.636C105.616 102.34 105.544 102.004 105.544 101.628C105.544 101.236 105.616 100.896 105.76 100.608C105.912 100.32 106.128 100.096 106.408 99.936C106.688 99.768 107.02 99.684 107.404 99.684C107.788 99.684 108.116 99.764 108.388 99.924C108.66 100.084 108.868 100.312 109.012 100.608C109.156 100.896 109.228 101.232 109.228 101.616C109.228 101.992 109.152 102.328 109 102.624C108.856 102.92 108.648 103.152 108.376 103.32C108.104 103.488 107.78 103.572 107.404 103.572ZM107.392 102.588C107.592 102.588 107.752 102.544 107.872 102.456C107.992 102.368 108.076 102.248 108.124 102.096C108.18 101.944 108.208 101.788 108.208 101.628C108.208 101.468 108.18 101.316 108.124 101.172C108.076 101.02 107.992 100.9 107.872 100.812C107.752 100.724 107.592 100.68 107.392 100.68C107.088 100.68 106.872 100.78 106.744 100.98C106.616 101.172 106.552 101.388 106.552 101.628C106.552 101.884 106.616 102.108 106.744 102.3C106.88 102.492 107.096 102.588 107.392 102.588ZM102.424 98.808C102.032 98.808 101.696 98.724 101.416 98.556C101.144 98.388 100.936 98.16 100.792 97.872C100.648 97.576 100.576 97.24 100.576 96.864C100.576 96.472 100.648 96.132 100.792 95.844C100.936 95.556 101.148 95.332 101.428 95.172C101.708 95.004 102.044 94.92 102.436 94.92C102.82 94.92 103.148 95 103.42 95.16C103.692 95.32 103.9 95.548 104.044 95.844C104.188 96.132 104.26 96.468 104.26 96.852C104.26 97.228 104.188 97.564 104.044 97.86C103.9 98.156 103.688 98.388 103.408 98.556C103.136 98.724 102.808 98.808 102.424 98.808ZM102.424 97.824C102.624 97.824 102.78 97.78 102.892 97.692C103.012 97.596 103.1 97.476 103.156 97.332C103.212 97.18 103.24 97.024 103.24 96.864C103.24 96.696 103.212 96.54 103.156 96.396C103.1 96.252 103.012 96.136 102.892 96.048C102.78 95.952 102.624 95.904 102.424 95.904C102.12 95.904 101.9 96.004 101.764 96.204C101.636 96.396 101.572 96.616 101.572 96.864C101.572 97.12 101.636 97.344 101.764 97.536C101.9 97.728 102.12 97.824 102.424 97.824Z" fill="#EF4444"/>
<path d="M240 59C240 56.7909 241.791 55 244 55H248C250.209 55 252 56.7909 252 59V99H240V59Z" fill="#C2FD75"/>
<path d="M256 72C256 69.7909 257.791 68 260 68H264C266.209 68 268 69.7909 268 72V99H256V72Z" fill="#C2FD75"/>
<path d="M272 58C272 55.7909 273.791 54 276 54H280C282.209 54 284 55.7909 284 58V99H272V58Z" fill="#C2FD75"/>
<path d="M288 44C288 41.7909 289.791 40 292 40H296C298.209 40 300 41.7909 300 44V99H288V44Z" fill="#C2FD75"/>
<path d="M304 52C304 49.7909 305.791 48 308 48H312C314.209 48 316 49.7909 316 52V99H304V52Z" fill="#C2FD75"/>
<path d="M320 61C320 58.7909 321.791 57 324 57H328C330.209 57 332 58.7909 332 61V99H320V61Z" fill="#C2FD75"/>
<path d="M336 73C336 70.7909 337.791 69 340 69H344C346.209 69 348 70.7909 348 73V99H336V73Z" fill="#C2FD75"/>
</svg>
