<svg version="1.2" xmlns="http://www.w3.org/2000/svg" viewBox="0 0 426 349" width="426" height="349">
	<title>total-assets-chart</title>
	<defs>
		<clipPath clipPathUnits="userSpaceOnUse" id="cp1">
			<path d="m24 204h378v40h-378z"/>
		</clipPath>
		<clipPath clipPathUnits="userSpaceOnUse" id="cp2">
			<path d="m24 244h378v40h-378z"/>
		</clipPath>
	</defs>
	<style>
		.s0 { fill: #ffffff } 
		.s1 { opacity: .05;fill: none;stroke: #030e09 } 
		.s2 { fill: #030e09 } 
		.s3 { opacity: .15;fill: #93d973 } 
		.s4 { fill: #70c748 } 
		.s5 { opacity: .8;fill: #030e09 } 
		.s6 { opacity: .4;fill: #030e09 } 
		.s7 { fill: #053b25 } 
		.s8 { fill: #f6b51e } 
		.s9 { fill: #c2fd75 } 
		.s10 { opacity: .1;fill: #030e09 } 
		.s11 { opacity: .6;fill: #030e09 } 
	</style>
	<path fill-rule="evenodd" class="s0" d="m16 0h394c8.8 0 16 7.2 16 16v317c0 8.8-7.2 16-16 16h-394c-8.8 0-16-7.2-16-16v-317c0-8.8 7.2-16 16-16z"/>
	<path fill-rule="evenodd" class="s1" d="m16 0.5h394c8.6 0 15.5 6.9 15.5 15.5v317c0 8.6-6.9 15.5-15.5 15.5h-394c-8.6 0-15.5-6.9-15.5-15.5v-317c0-8.6 6.9-15.5 15.5-15.5z"/>
	<path class="s2" d="m28.2 43v-10.7h-4v-2h10.2v2h-4v10.7zm10.9 0.1q-1.4 0-2.5-0.6-1-0.6-1.6-1.7-0.6-1.1-0.6-2.5 0-1.5 0.6-2.6 0.6-1.1 1.6-1.7 1.1-0.6 2.5-0.6 1.5 0 2.5 0.6 1 0.6 1.6 1.7 0.6 1.1 0.6 2.6 0 1.5-0.6 2.6-0.5 1-1.6 1.6-1 0.6-2.5 0.6zm0-2q0.9 0 1.4-0.4 0.6-0.4 0.9-1 0.2-0.7 0.2-1.4 0-0.8-0.2-1.4-0.3-0.7-0.9-1.1-0.5-0.4-1.4-0.4-0.9 0-1.5 0.4-0.5 0.4-0.8 1.1-0.2 0.6-0.2 1.4 0 0.7 0.2 1.4 0.3 0.7 0.8 1 0.6 0.4 1.5 0.4zm10.2 2q-1.5 0-2.2-0.9-0.8-0.8-0.8-2.3v-4.4h-1.4v-2h1.4v-2.6h2.2v2.6h2.9v2h-2.9v3.9q0 0.5 0.1 0.9 0.1 0.4 0.4 0.6 0.3 0.2 0.8 0.2 0.5 0 0.8-0.1 0.3-0.2 0.5-0.4l0.7 1.7q-0.3 0.3-0.8 0.5-0.4 0.2-0.8 0.2-0.4 0.1-0.9 0.1zm6.8 0q-0.7 0-1.3-0.2-0.6-0.1-1.1-0.5-0.4-0.3-0.7-0.9-0.3-0.5-0.3-1.2 0-0.9 0.4-1.5 0.3-0.6 0.9-0.9 0.7-0.3 1.5-0.4 0.8-0.2 1.6-0.2h1.9q0-0.6-0.2-1-0.2-0.5-0.7-0.8-0.4-0.2-1-0.2-0.5 0-0.8 0.1-0.4 0.1-0.7 0.3-0.2 0.2-0.3 0.5h-2.3q0.1-0.7 0.5-1.3 0.4-0.5 1-0.8 0.5-0.4 1.2-0.6 0.7-0.1 1.4-0.1 2.1 0 3 1.2 1 1.1 1 3.3v5.1h-2v-1.2q-0.4 0.6-1 0.9-0.6 0.3-1.1 0.3-0.6 0.1-0.9 0.1zm0.4-1.8q0.7 0 1.3-0.2 0.5-0.3 0.8-0.8 0.4-0.5 0.4-1.1v-0.3h-1.7q-0.5 0-0.9 0-0.4 0.1-0.8 0.2-0.3 0.1-0.5 0.3-0.2 0.3-0.2 0.7 0 0.4 0.2 0.7 0.2 0.3 0.6 0.4 0.4 0.1 0.8 0.1zm6.7 1.7v-12.7h2.2v12.7zm8.4 0l4.9-12.7h2.7l4.8 12.7h-2.4l-0.8-2.4h-5.9l-0.9 2.4zm4-4.4h4.4l-2.2-6.1zm13.3 4.6q-0.7 0-1.4-0.2-0.7-0.1-1.3-0.5-0.5-0.3-0.9-0.9-0.4-0.5-0.6-1.4h2.2q0.2 0.4 0.5 0.6 0.3 0.3 0.7 0.4 0.5 0.1 0.9 0.1 0.2 0 0.5 0 0.3-0.1 0.6-0.2 0.3-0.1 0.4-0.3 0.2-0.2 0.2-0.5 0-0.4-0.2-0.5-0.2-0.2-0.5-0.3-0.3-0.2-0.7-0.2-0.8-0.2-1.7-0.4-0.9-0.2-1.5-0.6-0.3-0.2-0.5-0.4-0.2-0.2-0.3-0.4-0.2-0.3-0.2-0.6-0.1-0.3-0.1-0.7 0-0.7 0.3-1.3 0.4-0.5 0.9-0.8 0.5-0.4 1.2-0.5 0.7-0.2 1.4-0.2 1 0 1.8 0.3 0.8 0.3 1.3 0.9 0.5 0.7 0.6 1.6h-2.1q0-0.4-0.5-0.7-0.5-0.2-1.2-0.2-0.2 0-0.5 0-0.3 0-0.5 0.2-0.2 0-0.4 0.2-0.2 0.2-0.2 0.5 0 0.3 0.2 0.5 0.1 0.2 0.4 0.3 0.3 0.2 0.7 0.3 0.6 0.1 1.2 0.2 0.7 0.1 1.2 0.3 0.6 0.1 1 0.4 0.5 0.3 0.7 0.8 0.3 0.5 0.3 1.2 0 0.9-0.3 1.4-0.4 0.6-1 0.9-0.5 0.4-1.2 0.5-0.7 0.2-1.4 0.2zm9.2 0q-0.7 0-1.4-0.2-0.6-0.1-1.2-0.5-0.6-0.3-1-0.9-0.4-0.5-0.5-1.4h2.2q0.1 0.4 0.4 0.6 0.4 0.3 0.8 0.4 0.4 0.1 0.8 0.1 0.3 0 0.6 0 0.3-0.1 0.5-0.2 0.3-0.1 0.4-0.3 0.2-0.2 0.2-0.5 0-0.4-0.2-0.5-0.2-0.2-0.5-0.3-0.3-0.2-0.7-0.2-0.8-0.2-1.7-0.4-0.8-0.2-1.5-0.6-0.3-0.2-0.5-0.4-0.2-0.2-0.3-0.4-0.1-0.3-0.2-0.6 0-0.3 0-0.7 0-0.7 0.3-1.3 0.3-0.5 0.8-0.8 0.5-0.4 1.2-0.5 0.7-0.2 1.4-0.2 1 0 1.8 0.3 0.8 0.3 1.3 0.9 0.6 0.7 0.7 1.6h-2.1q-0.1-0.4-0.6-0.7-0.4-0.2-1.1-0.2-0.3 0-0.6 0-0.2 0-0.5 0.2-0.2 0-0.4 0.2-0.1 0.2-0.1 0.5 0 0.3 0.1 0.5 0.1 0.2 0.4 0.3 0.3 0.2 0.7 0.3 0.6 0.1 1.3 0.2 0.6 0.1 1.1 0.3 0.6 0.1 1.1 0.4 0.4 0.3 0.7 0.8 0.2 0.5 0.2 1.2 0 0.9-0.3 1.4-0.4 0.6-0.9 0.9-0.6 0.4-1.3 0.5-0.7 0.2-1.4 0.2zm9.8 0q-1.4 0-2.5-0.7-1-0.6-1.5-1.6-0.6-1.1-0.6-2.6 0-1.4 0.6-2.5 0.5-1.1 1.6-1.8 1-0.6 2.5-0.6 1 0 1.9 0.4 0.8 0.4 1.3 1 0.6 0.7 0.8 1.6 0.3 0.8 0.3 1.7 0 0.3-0.1 0.5 0 0.2 0 0.4h-6.7q0.1 0.6 0.4 1.2 0.2 0.5 0.8 0.8 0.5 0.3 1.2 0.3 0.5 0 0.9-0.1 0.4-0.1 0.7-0.4 0.4-0.2 0.5-0.6h2.2q-0.3 1.1-0.9 1.7-0.6 0.6-1.5 1-0.9 0.3-1.9 0.3zm-2.3-5.8h4.5q0-0.6-0.2-1.1-0.3-0.5-0.8-0.8-0.5-0.3-1.2-0.3-0.7 0-1.2 0.3-0.6 0.4-0.8 0.8-0.3 0.5-0.3 1.1zm12.3 5.7q-1.6 0-2.3-0.8-0.8-0.9-0.8-2.4v-4.4h-1.4v-2h1.4v-2.6h2.2v2.6h2.9v2h-2.9v4q0 0.4 0.1 0.8 0.2 0.4 0.4 0.6 0.3 0.2 0.8 0.2 0.5 0 0.8-0.1 0.3-0.1 0.5-0.3l0.7 1.7q-0.3 0.2-0.8 0.4-0.4 0.2-0.8 0.3-0.4 0-0.8 0zm7.3 0.1q-0.7 0-1.4-0.2-0.7-0.1-1.3-0.5-0.5-0.3-0.9-0.9-0.4-0.5-0.6-1.4h2.3q0.1 0.4 0.4 0.6 0.3 0.3 0.7 0.4 0.5 0.1 0.9 0.1 0.2 0 0.5 0 0.3-0.1 0.6-0.2 0.3-0.1 0.4-0.3 0.2-0.2 0.2-0.5 0-0.4-0.2-0.5-0.2-0.2-0.5-0.3-0.3-0.2-0.7-0.2-0.8-0.2-1.7-0.4-0.9-0.2-1.5-0.6-0.3-0.2-0.5-0.4-0.2-0.2-0.3-0.4-0.1-0.3-0.2-0.6-0.1-0.3-0.1-0.7 0-0.7 0.3-1.3 0.4-0.5 0.9-0.8 0.5-0.4 1.2-0.5 0.7-0.2 1.4-0.2 1 0 1.8 0.3 0.8 0.3 1.3 0.9 0.5 0.7 0.6 1.6h-2.1q0-0.4-0.5-0.7-0.5-0.2-1.2-0.2-0.2 0-0.5 0-0.3 0-0.5 0.2-0.2 0-0.4 0.2-0.2 0.2-0.2 0.5 0 0.3 0.2 0.5 0.1 0.2 0.4 0.3 0.3 0.2 0.7 0.3 0.6 0.1 1.2 0.2 0.7 0.1 1.2 0.3 0.6 0.1 1 0.4 0.5 0.3 0.7 0.8 0.3 0.5 0.3 1.2 0 0.9-0.3 1.4-0.4 0.6-1 0.9-0.5 0.4-1.2 0.5-0.7 0.2-1.4 0.2z"/>
	<path class="s2" d="m30.6 94.4v-3.4q-1.3-0.2-2.5-0.7-1.1-0.6-1.9-1.7-0.7-1-1-2.6h3.1q0.3 1 0.9 1.5 0.6 0.5 1.5 0.7 0.8 0.3 1.7 0.3 0.9 0 1.6-0.3 0.7-0.2 1.1-0.7 0.5-0.4 0.5-1.2 0-0.6-0.3-1-0.3-0.4-0.7-0.6-0.5-0.3-1.1-0.4-1-0.3-1.9-0.5-0.9-0.2-1.7-0.4-0.8-0.2-1.5-0.5-1.2-0.6-1.9-1.6-0.7-0.9-0.7-2.6 0-1.5 0.7-2.5 0.7-1.1 1.8-1.6 1.1-0.6 2.4-0.7v-3.3h2.9v3.4q1.2 0.1 2.3 0.7 1 0.6 1.6 1.6 0.7 1 0.7 2.5h-2.9q-0.1-0.8-0.6-1.3-0.5-0.5-1.2-0.7-0.7-0.3-1.6-0.3-0.7 0-1.4 0.2-0.8 0.2-1.2 0.6-0.5 0.5-0.5 1.3 0 0.5 0.2 0.9 0.3 0.4 0.7 0.7 0.4 0.2 0.9 0.4 0.9 0.3 2 0.5 1.1 0.3 2 0.5 1.2 0.4 2.1 0.9 0.9 0.5 1.4 1.3 0.5 0.8 0.5 2.1 0 1.7-0.7 2.8-0.7 1.1-1.9 1.7-1.1 0.6-2.6 0.7v3.3zm19-3.4v-3.2h-8.9v-2.3l8.1-11.5h3.7v11.1h2v2.7h-2v3.2zm-5.4-5.9h5.4v-7.9zm12.9 5.9l6.6-14.2h-8.4v-2.8h11.8v2.3l-6.7 14.7zm17.9 0.2q-1.2 0-2.3-0.3-1.1-0.2-2-0.8-0.9-0.7-1.5-1.6-0.5-1-0.5-2.4 0-1 0.3-1.7 0.3-0.8 0.9-1.4 0.6-0.6 1.3-0.9-0.7-0.5-1.2-1.1-0.4-0.6-0.6-1.3-0.1-0.6-0.1-1.3 0-1.2 0.4-2.1 0.5-0.9 1.4-1.4 0.8-0.6 1.8-0.8 1-0.3 2.1-0.3 1.1 0 2.1 0.3 1.1 0.2 1.9 0.8 0.8 0.6 1.3 1.4 0.5 0.9 0.5 2.2 0 0.6-0.2 1.3-0.2 0.6-0.7 1.2-0.4 0.6-1.1 1 0.8 0.4 1.4 1 0.5 0.6 0.8 1.4 0.3 0.7 0.3 1.7 0 1.4-0.5 2.4-0.6 1-1.5 1.6-0.9 0.5-2 0.8-1.1 0.3-2.3 0.3zm0-2.7q0.6 0 1.1-0.1 0.6-0.1 1.1-0.4 0.5-0.3 0.8-0.8 0.3-0.5 0.3-1.2 0-0.9-0.5-1.4-0.4-0.6-1.2-0.8-0.7-0.3-1.6-0.3-0.9 0-1.6 0.3-0.8 0.2-1.2 0.8-0.5 0.5-0.5 1.4 0 0.7 0.3 1.2 0.3 0.5 0.8 0.8 0.5 0.3 1.1 0.4 0.5 0.1 1.1 0.1zm0-7.4q0.8 0 1.4-0.2 0.7-0.3 1-0.8 0.4-0.5 0.4-1.2 0-0.9-0.4-1.4-0.3-0.5-1-0.8-0.6-0.2-1.4-0.2-0.8 0-1.5 0.2-0.6 0.3-0.9 0.8-0.4 0.5-0.4 1.3 0 0.7 0.4 1.3 0.4 0.5 1 0.8 0.6 0.2 1.4 0.2zm9.8 13.3l-0.8-1.2q0.3-0.2 0.7-0.6 0.4-0.3 0.7-0.8 0.3-0.4 0.5-0.7-0.7-0.1-1.2-0.5-0.5-0.5-0.5-1.3 0-0.8 0.6-1.3 0.5-0.5 1.3-0.5 0.9 0 1.4 0.7 0.5 0.7 0.5 1.8 0 1-0.5 1.9-0.4 0.9-1.2 1.6-0.7 0.6-1.5 0.9zm6.1-3.4v-2.5l4.7-4q0.6-0.4 1.3-1 0.7-0.6 1.3-1.3 0.6-0.7 1.1-1.4 0.4-0.7 0.4-1.6 0-1.2-0.7-1.9-0.8-0.7-2.1-0.7-1.2 0-1.9 0.5-0.8 0.5-1 1.4h-2.9q0.1-1.6 1-2.6 0.9-1 2.2-1.6 1.3-0.5 2.7-0.5 1.6 0 2.9 0.6 1.3 0.6 2 1.7 0.8 1.2 0.8 2.8 0 1.5-0.6 2.6-0.6 1.2-1.5 2.2-1 1-2.1 1.9l-3.2 2.7h7.4v2.7zm20.1 0.2q-1.1 0-2.2-0.3-1.1-0.2-2-0.8-0.9-0.6-1.6-1.5-0.6-0.9-0.7-2.2h2.9q0.3 0.8 0.8 1.2 0.6 0.4 1.3 0.6 0.8 0.2 1.5 0.2 0.6 0 1.1-0.1 0.6-0.1 1.1-0.3 0.5-0.3 0.7-0.8 0.3-0.4 0.3-1.2 0-0.7-0.2-1.2-0.3-0.4-0.7-0.7-0.5-0.2-1-0.3-0.6-0.1-1.2-0.1h-1.9v-2.6h1.2q0.7 0 1.3-0.2 0.6-0.1 1-0.4 0.5-0.2 0.7-0.7 0.2-0.4 0.2-1 0-0.9-0.4-1.4-0.3-0.4-1-0.6-0.6-0.2-1.3-0.2-0.7 0-1.3 0.2-0.6 0.2-1.1 0.6-0.5 0.4-0.6 1h-2.9q0.1-1.2 0.7-2.1 0.5-0.8 1.4-1.4 0.8-0.6 1.8-0.8 1.1-0.3 2.2-0.3 1 0 2 0.3 1 0.2 1.8 0.8 0.8 0.5 1.2 1.3 0.5 0.9 0.5 2.2 0 0.7-0.3 1.4-0.2 0.7-0.7 1.3-0.5 0.5-1.2 0.8 0.9 0.3 1.6 0.9 0.6 0.6 0.9 1.4 0.4 0.8 0.4 1.8 0 1.5-0.6 2.6-0.5 1-1.5 1.5-0.9 0.6-2 0.9-1.1 0.2-2.2 0.2zm15.5 0q-1.9 0-3.2-0.7-1.3-0.6-2.1-1.8-0.8-1.2-1.1-2.8-0.4-1.5-0.4-3.3 0-1.9 0.4-3.5 0.3-1.5 1.1-2.7 0.8-1.2 2.1-1.9 1.3-0.7 3.2-0.7 1.9 0 3.2 0.7 1.3 0.8 2.1 2 0.8 1.2 1.1 2.8 0.4 1.5 0.4 3.2 0 1.7-0.4 3.3-0.3 1.5-1.1 2.8-0.8 1.2-2.1 1.9-1.3 0.7-3.2 0.7zm0-2.7q1.2 0 1.9-0.6 0.8-0.6 1.2-1.5 0.4-0.9 0.5-1.9 0.1-1.1 0.1-2 0-0.9-0.1-1.9-0.1-1-0.5-1.9-0.4-0.9-1.1-1.5-0.8-0.6-2-0.6-1.3 0-2 0.6-0.8 0.6-1.2 1.5-0.3 0.9-0.5 1.9-0.1 1-0.1 1.9 0 0.9 0.1 2 0.1 1 0.5 1.9 0.4 0.9 1.1 1.5 0.8 0.6 2.1 0.6zm10.9 2.8q-0.7 0-1.3-0.5-0.5-0.5-0.5-1.4 0-0.8 0.5-1.3 0.6-0.6 1.4-0.6 0.7 0 1.3 0.6 0.5 0.5 0.5 1.3 0 0.9-0.5 1.4-0.6 0.5-1.4 0.5zm10.3-0.1q-1.3 0-2.6-0.5-1.2-0.4-2-1.4-0.8-1-1.1-2.4h3q0.3 0.8 1.1 1.2 0.9 0.4 1.8 0.4 1.1 0 1.8-0.5 0.8-0.4 1.2-1.2 0.4-0.7 0.6-1.7 0.2-0.9 0.2-1.8 0-0.2 0-0.3 0-0.1 0-0.2-0.5 0.8-1.2 1.3-0.8 0.5-1.6 0.7-0.8 0.2-1.6 0.2-1.5 0-2.8-0.6-1.2-0.7-1.9-1.9-0.7-1.2-0.7-2.9 0-1.8 0.8-3.1 0.8-1.3 2.2-2 1.4-0.7 3.1-0.7 1.9 0 3.2 0.8 1.2 0.8 1.9 2.1 0.8 1.2 1.1 2.8 0.3 1.5 0.3 3.2 0 1.7-0.4 3.3-0.3 1.5-1.1 2.7-0.8 1.2-2.1 1.8-1.3 0.7-3.2 0.7zm0.2-8.8q0.9 0 1.6-0.4 0.7-0.4 1.1-1 0.4-0.7 0.4-1.5 0-0.9-0.4-1.5-0.4-0.7-1.1-1.1-0.7-0.4-1.6-0.4-0.9 0-1.6 0.4-0.7 0.4-1 1.1-0.4 0.7-0.4 1.5 0 1.3 0.8 2.1 0.8 0.8 2.2 0.8zm15.8 8.8q-1.9 0-3.2-0.7-1.3-0.6-2.1-1.8-0.8-1.2-1.1-2.8-0.4-1.5-0.4-3.3 0-1.9 0.4-3.5 0.3-1.5 1.1-2.7 0.8-1.2 2.1-1.9 1.3-0.7 3.2-0.7 1.9 0 3.2 0.7 1.3 0.8 2.1 2 0.8 1.2 1.1 2.8 0.4 1.5 0.4 3.2 0 1.7-0.4 3.3-0.3 1.5-1.1 2.8-0.8 1.2-2.1 1.9-1.3 0.7-3.2 0.7zm0-2.7q1.2 0 1.9-0.6 0.8-0.6 1.2-1.5 0.4-0.9 0.5-1.9 0.1-1.1 0.1-2 0-0.9-0.1-1.9-0.1-1-0.5-1.9-0.4-0.9-1.1-1.5-0.8-0.6-2-0.6-1.3 0-2 0.6-0.8 0.6-1.2 1.5-0.3 0.9-0.5 1.9-0.1 1-0.1 1.9 0 0.9 0.1 2 0.1 1 0.5 1.9 0.4 0.9 1.1 1.5 0.8 0.6 2.1 0.6z"/>
	<path fill-rule="evenodd" class="s3" d="m34 106h34c5.5 0 10 4.5 10 10 0 5.5-4.5 10-10 10h-34c-5.5 0-10-4.5-10-10 0-5.5 4.5-10 10-10z"/>
	<path class="s4" d="m34.8 117.7v-1.9h-1.8v-1.1h1.8v-1.9h1.1v1.9h1.9v1.1h-1.9v1.9zm6 1.8v-6.6h-1.7v-0.9q0.5 0 0.8-0.1 0.4-0.1 0.7-0.3 0.3-0.2 0.6-0.6h0.9v8.5zm6.2 0.1q-0.6 0-1.1-0.1-0.5-0.2-0.9-0.4-0.4-0.3-0.6-0.7-0.3-0.4-0.4-1h1.3q0.1 0.3 0.3 0.5 0.3 0.3 0.6 0.4 0.4 0.1 0.7 0.1 0.6 0 1-0.1 0.4-0.2 0.6-0.6 0.3-0.4 0.3-0.9 0-0.8-0.5-1.2-0.5-0.5-1.3-0.5-0.4 0-0.8 0.2-0.4 0.2-0.8 0.4h-1.2l0.3-4.7h5.3v1.2h-4.1l-0.2 2.3q0.3-0.2 0.8-0.4 0.5-0.1 1.1-0.1 0.8 0 1.4 0.3 0.6 0.4 0.9 1 0.4 0.6 0.4 1.4 0 0.9-0.4 1.6-0.4 0.6-1.2 1-0.7 0.3-1.5 0.3zm5.3 0q-0.4 0-0.6-0.2-0.2-0.2-0.2-0.6 0-0.4 0.2-0.6 0.2-0.2 0.6-0.2 0.3 0 0.6 0.2 0.2 0.2 0.2 0.6 0 0.4-0.2 0.6-0.3 0.2-0.6 0.2zm2.6-0.1l3.4-7.3h-4.3v-1.2h5.7v1l-3.3 7.5zm6.7 0l5.3-8.5h1.3l-5.3 8.5zm5.8 0.1q-0.6 0-1-0.3-0.4-0.2-0.7-0.7-0.2-0.4-0.2-1 0-0.6 0.2-1 0.3-0.4 0.7-0.7 0.4-0.2 1-0.2 0.6 0 1 0.2 0.4 0.3 0.6 0.7 0.2 0.4 0.2 1 0 0.6-0.2 1-0.2 0.5-0.7 0.7-0.4 0.3-0.9 0.3zm0-1q0.3 0 0.4-0.1 0.2-0.2 0.3-0.4 0.1-0.2 0.1-0.5 0-0.2-0.1-0.4-0.1-0.3-0.3-0.4-0.1-0.1-0.4-0.1-0.5 0-0.7 0.3-0.2 0.3-0.2 0.6 0 0.4 0.2 0.7 0.2 0.3 0.7 0.3zm-5-3.8q-0.6 0-1-0.2-0.4-0.3-0.6-0.7-0.3-0.5-0.3-1 0-0.6 0.3-1.1 0.2-0.4 0.6-0.6 0.4-0.3 1-0.3 0.6 0 1 0.3 0.4 0.2 0.6 0.6 0.2 0.5 0.2 1.1 0 0.5-0.2 1-0.2 0.4-0.6 0.7-0.4 0.2-1 0.2zm0-1q0.3 0 0.5-0.1 0.1-0.2 0.2-0.4 0.1-0.2 0.1-0.4 0-0.3-0.1-0.5-0.1-0.2-0.2-0.4-0.2-0.1-0.5-0.1-0.5 0-0.7 0.3-0.2 0.3-0.2 0.7 0 0.3 0.2 0.6 0.2 0.3 0.7 0.3z"/>
	<path class="s5" d="m85.3 118.9v-2.2h-2.1v-1.3h2.1v-2.2h1.3v2.2h2.1v1.3h-2.1v2.2zm8.6 4v-1.9q-0.8-0.1-1.4-0.4-0.7-0.3-1.2-0.9-0.4-0.6-0.6-1.4h1.5q0.2 0.5 0.6 0.9 0.4 0.3 1 0.4 0.5 0.2 1.1 0.2 0.5 0 0.9-0.2 0.5-0.1 0.8-0.4 0.3-0.4 0.3-0.9 0-0.4-0.2-0.6-0.1-0.3-0.4-0.4-0.3-0.2-0.7-0.3-0.5-0.2-1.1-0.3-0.5-0.1-1.1-0.2-0.5-0.1-0.9-0.4-0.7-0.3-1.1-0.9-0.3-0.5-0.3-1.4 0-0.9 0.4-1.5 0.4-0.6 1.1-0.9 0.6-0.3 1.4-0.4v-1.8h1.4v1.8q0.8 0.1 1.4 0.5 0.6 0.3 0.9 0.9 0.4 0.5 0.4 1.4h-1.4q-0.1-0.6-0.4-0.9-0.3-0.3-0.7-0.4-0.5-0.2-1-0.2-0.5 0-1 0.1-0.4 0.2-0.7 0.5-0.3 0.3-0.3 0.8 0 0.3 0.1 0.6 0.1 0.2 0.4 0.4 0.2 0.2 0.5 0.3 0.6 0.2 1.3 0.4 0.7 0.1 1.4 0.3 0.6 0.2 1.1 0.5 0.5 0.3 0.7 0.8 0.3 0.4 0.3 1.1 0 1-0.4 1.6-0.4 0.6-1.1 1-0.7 0.3-1.6 0.4v1.8zm9.9-1.8q-1 0-1.8-0.4-0.7-0.4-1.2-1-0.4-0.7-0.6-1.6-0.2-0.8-0.2-1.8 0-1.1 0.2-2 0.2-1 0.7-1.7 0.5-0.8 1.2-1.2 0.8-0.4 1.9-0.4 0.7 0 1.4 0.3 0.6 0.2 1.1 0.7 0.4 0.5 0.6 1.3h-1.4q-0.3-0.5-0.7-0.7-0.5-0.3-1.1-0.3-0.6 0-1 0.3-0.4 0.2-0.7 0.5-0.3 0.4-0.5 0.9-0.2 0.5-0.3 1 0 0.5 0 1 0.3-0.5 0.7-0.8 0.5-0.3 0.9-0.4 0.5-0.2 1-0.2 1 0 1.7 0.4 0.7 0.4 1.1 1.1 0.4 0.7 0.4 1.7 0 1-0.4 1.7-0.5 0.8-1.2 1.2-0.8 0.4-1.8 0.4zm0-1.3q0.6 0 1-0.3 0.4-0.2 0.7-0.7 0.2-0.4 0.2-0.9 0-0.6-0.2-1-0.2-0.4-0.7-0.7-0.4-0.2-1-0.2-0.5 0-1 0.2-0.5 0.3-0.7 0.7-0.3 0.4-0.3 1 0 0.5 0.2 0.9 0.3 0.5 0.7 0.7 0.5 0.3 1.1 0.3zm8.5 1.3q-0.7 0-1.3-0.1-0.5-0.2-1-0.5-0.5-0.3-0.8-0.8-0.3-0.5-0.4-1.2h1.4q0.2 0.4 0.5 0.7 0.3 0.2 0.7 0.4 0.4 0.2 0.8 0.2 0.6 0 1.1-0.3 0.5-0.2 0.8-0.6 0.3-0.4 0.3-1.1 0-0.9-0.6-1.4-0.6-0.5-1.5-0.5-0.5 0-1 0.2-0.5 0.2-0.9 0.5h-1.4l0.4-5.5h6.1v1.4h-4.7l-0.3 2.7q0.4-0.3 1-0.5 0.5-0.1 1.2-0.1 1 0 1.7 0.4 0.7 0.4 1.1 1.1 0.4 0.7 0.4 1.6 0 1.1-0.5 1.9-0.5 0.7-1.3 1.1-0.8 0.4-1.8 0.4zm5.6 1.7l-0.4-0.6q0.2-0.1 0.4-0.3 0.2-0.2 0.3-0.4 0.2-0.2 0.3-0.5-0.4 0-0.7-0.2-0.2-0.3-0.2-0.7 0-0.4 0.3-0.6 0.3-0.3 0.6-0.3 0.5 0 0.8 0.4 0.3 0.3 0.3 0.9 0 0.5-0.3 1-0.2 0.5-0.6 0.8-0.4 0.4-0.8 0.5zm7-1.7q-1.1 0-1.8-0.4-0.7-0.4-1.2-1-0.5-0.7-0.7-1.7-0.2-0.9-0.2-1.9 0-1.1 0.2-2 0.2-0.9 0.7-1.6 0.5-0.7 1.2-1.1 0.8-0.4 1.8-0.4 1.1 0 1.9 0.4 0.7 0.4 1.2 1.2 0.4 0.7 0.6 1.6 0.2 0.9 0.2 1.9 0 0.9-0.2 1.8-0.2 0.9-0.6 1.7-0.5 0.7-1.2 1.1-0.8 0.4-1.9 0.4zm0-1.3q0.8 0 1.3-0.4 0.4-0.3 0.7-0.9 0.2-0.6 0.3-1.2 0.1-0.6 0.1-1.2 0-0.6-0.1-1.3-0.1-0.6-0.3-1.2-0.3-0.6-0.7-0.9-0.5-0.4-1.3-0.4-0.8 0-1.3 0.4-0.4 0.3-0.7 0.9-0.2 0.6-0.3 1.2-0.1 0.7-0.1 1.3 0 0.6 0.1 1.2 0.1 0.6 0.3 1.2 0.3 0.6 0.7 0.9 0.5 0.4 1.3 0.4zm9.3 1.3q-1 0-1.8-0.4-0.7-0.4-1.2-1-0.5-0.7-0.7-1.7-0.2-0.9-0.2-1.9 0-1.1 0.2-2 0.2-0.9 0.7-1.6 0.5-0.7 1.2-1.1 0.8-0.4 1.8-0.4 1.1 0 1.9 0.4 0.7 0.4 1.2 1.2 0.4 0.7 0.6 1.6 0.2 0.9 0.2 1.9 0 0.9-0.2 1.8-0.2 0.9-0.6 1.7-0.5 0.7-1.2 1.1-0.8 0.4-1.9 0.4zm0-1.3q0.8 0 1.3-0.4 0.4-0.3 0.7-0.9 0.2-0.6 0.3-1.2 0.1-0.6 0.1-1.2 0-0.6-0.1-1.3-0.1-0.6-0.3-1.2-0.3-0.6-0.7-0.9-0.5-0.4-1.3-0.4-0.8 0-1.2 0.4-0.5 0.3-0.8 0.9-0.2 0.6-0.3 1.2-0.1 0.7-0.1 1.3 0 0.6 0.1 1.2 0.1 0.6 0.3 1.2 0.3 0.6 0.7 0.9 0.5 0.4 1.3 0.4zm9.3 1.3q-1 0-1.8-0.4-0.7-0.4-1.2-1-0.4-0.7-0.7-1.7-0.2-0.9-0.2-1.9 0-1.1 0.2-2 0.2-0.9 0.7-1.6 0.5-0.7 1.2-1.1 0.8-0.4 1.8-0.4 1.2 0 1.9 0.4 0.7 0.4 1.2 1.2 0.5 0.7 0.6 1.6 0.2 0.9 0.2 1.9 0 0.9-0.2 1.8-0.2 0.9-0.6 1.7-0.5 0.7-1.2 1.1-0.8 0.4-1.9 0.4zm0-1.3q0.8 0 1.3-0.4 0.5-0.3 0.7-0.9 0.3-0.6 0.3-1.2 0.1-0.6 0.1-1.2 0-0.6-0.1-1.3 0-0.6-0.3-1.2-0.2-0.6-0.7-0.9-0.5-0.4-1.3-0.4-0.7 0-1.2 0.4-0.5 0.3-0.8 0.9-0.2 0.6-0.3 1.2-0.1 0.7-0.1 1.3 0 0.6 0.1 1.2 0.1 0.6 0.3 1.2 0.3 0.6 0.8 0.9 0.4 0.4 1.2 0.4z"/>
	<path class="s6" d="m156.5 119.6q-1 0-1.7-0.4-0.6-0.5-0.9-1.2-0.3-0.7-0.3-1.6 0-0.9 0.3-1.7 0.3-0.7 1-1.2 0.7-0.4 1.7-0.4 0.7 0 1.2 0.2 0.5 0.2 0.8 0.7 0.4 0.4 0.5 1h-1q-0.2-0.5-0.6-0.8-0.4-0.2-0.9-0.2-0.8 0-1.2 0.4-0.4 0.3-0.6 0.8-0.2 0.6-0.2 1.2 0 0.6 0.2 1.1 0.2 0.5 0.6 0.9 0.5 0.3 1.1 0.3 0.5 0 1-0.2 0.4-0.3 0.6-0.8h1q-0.1 0.6-0.5 1.1-0.4 0.4-0.9 0.6-0.6 0.2-1.2 0.2zm6.7 0q-1 0-1.6-0.4-0.7-0.5-1.1-1.2-0.3-0.7-0.3-1.7 0-0.9 0.4-1.6 0.3-0.8 1-1.2 0.6-0.4 1.6-0.4 1 0 1.7 0.4 0.7 0.4 1 1.2 0.3 0.7 0.3 1.6 0 1-0.3 1.7-0.3 0.7-1 1.2-0.7 0.4-1.7 0.4zm0-0.9q0.7 0 1.1-0.3 0.5-0.4 0.7-0.9 0.2-0.5 0.2-1.2 0-0.6-0.2-1.1-0.2-0.6-0.7-0.9-0.4-0.3-1.1-0.3-0.7 0-1.1 0.3-0.4 0.3-0.7 0.9-0.2 0.5-0.2 1.1 0 0.7 0.2 1.2 0.3 0.5 0.7 0.9 0.4 0.3 1.1 0.3zm4.4 0.8v-6.3h1l0.1 0.7q0.2-0.3 0.4-0.4 0.3-0.2 0.6-0.3 0.3-0.1 0.7-0.1 0.6 0 1 0.3 0.4 0.3 0.7 0.7 0.2-0.3 0.4-0.5 0.3-0.3 0.7-0.4 0.3-0.1 0.8-0.1 0.7 0 1.1 0.3 0.4 0.3 0.6 0.8 0.2 0.5 0.2 1.2v4.1h-1v-3.6q0-0.3-0.1-0.7 0-0.3-0.1-0.6-0.1-0.2-0.4-0.4-0.2-0.2-0.6-0.2-0.4 0-0.7 0.2-0.2 0.2-0.4 0.5-0.2 0.3-0.3 0.7 0 0.3 0 0.7v3.4h-1v-3.6q0-0.3-0.1-0.7 0-0.3-0.1-0.6-0.1-0.2-0.3-0.4-0.3-0.2-0.7-0.2-0.6 0-0.9 0.3-0.3 0.4-0.4 0.8-0.2 0.5-0.2 1v3.4zm9.9 2.3v-8.6h1v0.9q0.3-0.5 0.9-0.7 0.6-0.3 1.2-0.3 1 0 1.6 0.4 0.6 0.5 0.9 1.2 0.3 0.7 0.3 1.6 0 1-0.3 1.7-0.3 0.7-0.9 1.2-0.7 0.4-1.6 0.4-0.5 0-0.9-0.1-0.4-0.1-0.7-0.3-0.3-0.2-0.5-0.5v3.1zm3-3.1q0.7 0 1.1-0.3 0.4-0.4 0.6-0.9 0.2-0.5 0.2-1.2 0-0.6-0.2-1.1-0.2-0.6-0.6-0.9-0.4-0.3-1.1-0.3-0.7 0-1.1 0.3-0.4 0.4-0.7 0.9-0.2 0.5-0.2 1.2 0 0.6 0.2 1.1 0.2 0.6 0.7 0.9 0.4 0.3 1.1 0.3zm6.3 0.9q-0.4 0-0.8-0.1-0.4-0.2-0.7-0.4-0.4-0.2-0.6-0.6-0.1-0.3-0.1-0.8 0-0.5 0.2-0.9 0.2-0.4 0.5-0.6 0.3-0.2 0.8-0.3 0.4-0.1 0.9-0.1h1.9q0-0.5-0.2-0.9-0.1-0.4-0.5-0.7-0.3-0.2-0.9-0.2-0.3 0-0.6 0.1-0.3 0.1-0.5 0.2-0.2 0.2-0.3 0.4h-1.1q0.1-0.4 0.4-0.7 0.2-0.3 0.6-0.5 0.3-0.2 0.7-0.3 0.4-0.1 0.8-0.1 1.4 0 2 0.8 0.6 0.8 0.6 2.2v3.4h-0.9l-0.1-0.8q-0.2 0.4-0.6 0.5-0.4 0.2-0.8 0.3-0.3 0.1-0.7 0.1zm0.1-0.9q0.6 0 1-0.2 0.5-0.2 0.7-0.6 0.3-0.4 0.3-0.9v-0.4h-1.2q-0.3 0-0.7 0.1-0.4 0-0.7 0.1-0.3 0-0.5 0.2-0.2 0.2-0.2 0.6 0 0.4 0.2 0.6 0.2 0.2 0.5 0.4 0.3 0.1 0.6 0.1zm4.6 0.8v-6.3h0.9l0.1 1q0.2-0.4 0.5-0.6 0.4-0.3 0.8-0.4 0.4-0.1 0.8-0.1 0.1 0 0.2 0 0 0 0.1 0v1h-0.3q-0.8 0-1.3 0.3-0.4 0.3-0.6 0.8-0.2 0.6-0.2 1.2v3.1zm7.1 0.1q-1 0-1.7-0.4-0.6-0.5-0.9-1.2-0.4-0.7-0.4-1.7 0-0.9 0.4-1.6 0.3-0.8 1-1.2 0.6-0.4 1.6-0.4 0.7 0 1.3 0.3 0.5 0.3 0.9 0.7 0.3 0.5 0.5 1.1 0.1 0.5 0.1 1.1 0 0.1 0 0.2 0 0.1 0 0.2h-4.7q0 0.6 0.2 1 0.3 0.5 0.7 0.7 0.4 0.3 1 0.3 0.3 0 0.7-0.1 0.3-0.1 0.5-0.3 0.3-0.2 0.4-0.5h1q-0.1 0.6-0.5 1-0.4 0.4-0.9 0.6-0.6 0.2-1.2 0.2zm-1.9-3.8h3.6q0-0.5-0.2-0.9-0.2-0.4-0.6-0.7-0.4-0.2-0.9-0.2-0.6 0-1 0.3-0.4 0.2-0.7 0.6-0.2 0.4-0.2 0.9zm8.6 3.8q-0.9 0-1.6-0.4-0.6-0.5-0.9-1.2-0.3-0.7-0.3-1.6 0-1 0.3-1.7 0.3-0.7 1-1.2 0.6-0.4 1.5-0.4 0.4 0 0.8 0.1 0.4 0.1 0.7 0.3 0.3 0.2 0.6 0.5v-3h1v8.5h-1v-0.9q-0.2 0.3-0.6 0.5-0.3 0.3-0.7 0.4-0.4 0.1-0.8 0.1zm0.1-0.9q0.7 0 1.1-0.4 0.4-0.3 0.7-0.8 0.2-0.6 0.2-1.2 0-0.7-0.2-1.2-0.2-0.5-0.7-0.8-0.4-0.3-1.1-0.3-0.7 0-1.1 0.3-0.4 0.3-0.6 0.9-0.2 0.5-0.2 1.2 0 0.4 0.1 0.9 0.2 0.4 0.4 0.7 0.2 0.3 0.6 0.5 0.3 0.2 0.8 0.2zm10.3 0.9q-1 0-1.4-0.6-0.4-0.5-0.4-1.5v-3.4h-1.1v-0.9h1.1v-1.9h1v1.9h1.9v0.9h-1.9v3.3q0 0.3 0.1 0.6 0 0.3 0.2 0.5 0.2 0.2 0.6 0.2 0.3 0 0.5-0.1 0.2-0.1 0.3-0.3l0.5 0.8q-0.2 0.2-0.5 0.3-0.2 0.1-0.4 0.1-0.3 0.1-0.5 0.1zm5.1 0q-1 0-1.6-0.4-0.7-0.5-1-1.2-0.4-0.7-0.4-1.7 0-0.9 0.4-1.6 0.3-0.8 1-1.2 0.7-0.4 1.7-0.4 1 0 1.6 0.4 0.7 0.4 1 1.2 0.3 0.7 0.3 1.6 0 1-0.3 1.7-0.3 0.7-1 1.2-0.7 0.4-1.7 0.4zm0-0.9q0.7 0 1.2-0.3 0.4-0.4 0.6-0.9 0.2-0.5 0.2-1.2 0-0.6-0.2-1.1-0.2-0.6-0.6-0.9-0.5-0.3-1.2-0.3-0.6 0-1.1 0.3-0.4 0.3-0.6 0.9-0.2 0.5-0.2 1.1 0 0.7 0.2 1.2 0.2 0.5 0.6 0.9 0.5 0.3 1.1 0.3zm7.7 0.8v-8.5h1v8.5zm4.7 0.1q-0.4 0-0.8-0.1-0.4-0.2-0.8-0.4-0.3-0.2-0.5-0.6-0.2-0.3-0.2-0.8 0-0.5 0.2-0.9 0.2-0.4 0.6-0.6 0.3-0.2 0.8-0.3 0.4-0.1 0.9-0.1h1.8q0-0.5-0.1-0.9-0.2-0.4-0.5-0.7-0.3-0.2-0.9-0.2-0.3 0-0.6 0.1-0.3 0.1-0.5 0.2-0.2 0.2-0.3 0.4h-1.1q0.1-0.4 0.3-0.7 0.3-0.3 0.6-0.5 0.4-0.2 0.8-0.3 0.4-0.1 0.8-0.1 1.4 0 2 0.8 0.5 0.8 0.5 2.2v3.4h-0.8l-0.1-0.8q-0.2 0.4-0.6 0.5-0.4 0.2-0.8 0.3-0.4 0.1-0.7 0.1zm0.1-0.9q0.6 0 1-0.2 0.5-0.2 0.7-0.6 0.2-0.4 0.2-0.9v-0.4h-1.1q-0.4 0-0.8 0.1-0.3 0-0.6 0.1-0.4 0-0.6 0.2-0.1 0.2-0.1 0.6 0 0.4 0.1 0.6 0.2 0.2 0.5 0.4 0.4 0.1 0.7 0.1zm6.8 0.9q-0.4 0-0.8-0.1-0.5-0.1-0.8-0.3-0.4-0.2-0.7-0.6-0.2-0.3-0.3-0.8h1q0.2 0.3 0.4 0.5 0.3 0.2 0.6 0.3 0.4 0.1 0.7 0.1 0.2 0 0.4-0.1 0.3 0 0.5-0.1 0.3-0.1 0.4-0.2 0.2-0.2 0.2-0.5 0-0.3-0.1-0.4-0.2-0.2-0.3-0.3-0.2-0.1-0.5-0.1-0.6-0.2-1.2-0.3-0.7-0.1-1.2-0.4-0.1-0.1-0.3-0.2-0.1-0.2-0.2-0.3-0.1-0.2-0.2-0.4 0-0.2 0-0.5 0-0.5 0.2-0.8 0.2-0.3 0.5-0.6 0.3-0.2 0.8-0.3 0.4-0.1 0.9-0.1 0.6 0 1.1 0.2 0.5 0.2 0.9 0.6 0.3 0.4 0.4 0.9h-1q-0.1-0.3-0.5-0.6-0.3-0.2-0.9-0.2-0.2 0-0.4 0.1-0.3 0-0.5 0.1-0.2 0.1-0.3 0.2-0.2 0.2-0.2 0.5 0 0.3 0.1 0.4 0.2 0.2 0.4 0.3 0.3 0.1 0.6 0.2 0.4 0.1 0.9 0.2 0.5 0.1 0.8 0.2 0.4 0.1 0.7 0.3 0.2 0.2 0.3 0.5 0.2 0.3 0.2 0.7 0 0.6-0.2 0.9-0.3 0.4-0.6 0.6-0.4 0.2-0.9 0.3-0.4 0.1-0.9 0.1zm6.2 0q-0.9 0-1.4-0.6-0.4-0.5-0.4-1.5v-3.4h-1v-0.9h1v-1.9h1.1v1.9h1.9v0.9h-1.9v3.3q0 0.3 0 0.6 0.1 0.3 0.3 0.5 0.2 0.2 0.6 0.2 0.2 0 0.4-0.1 0.3-0.1 0.4-0.3l0.4 0.8q-0.2 0.2-0.4 0.3-0.2 0.1-0.4 0.1-0.3 0.1-0.6 0.1zm8.5 2.7q-0.7 0-1.4-0.2-0.7-0.2-1.2-0.7l0.4-0.8q0.5 0.4 1 0.6 0.6 0.2 1.1 0.2 1 0 1.4-0.6 0.5-0.5 0.5-1.4v-0.8q-0.2 0.4-0.6 0.6-0.3 0.2-0.7 0.3-0.4 0.1-0.8 0.1-0.9 0-1.5-0.4-0.5-0.3-0.8-1-0.2-0.7-0.2-1.5v-3.5h1v3.2q0 0.4 0.1 0.8 0 0.4 0.2 0.8 0.2 0.3 0.5 0.5 0.3 0.2 0.9 0.2 0.7 0 1.1-0.3 0.4-0.4 0.6-0.9 0.2-0.6 0.2-1.3v-3h1v6.3q0 0.7-0.2 1.2-0.2 0.5-0.5 0.9-0.4 0.4-0.9 0.5-0.5 0.2-1.2 0.2zm7.1-2.7q-1 0-1.6-0.4-0.7-0.5-1-1.2-0.3-0.7-0.3-1.7 0-0.9 0.3-1.6 0.3-0.8 1-1.2 0.7-0.4 1.6-0.4 0.8 0 1.3 0.3 0.5 0.3 0.9 0.7 0.3 0.5 0.5 1.1 0.1 0.5 0.1 1.1 0 0.1 0 0.2 0 0.1 0 0.2h-4.7q0 0.6 0.3 1 0.2 0.5 0.6 0.7 0.4 0.3 1.1 0.3 0.3 0 0.6-0.1 0.3-0.1 0.6-0.3 0.2-0.2 0.3-0.5h1.1q-0.2 0.6-0.6 1-0.4 0.4-0.9 0.6-0.6 0.2-1.2 0.2zm-1.9-3.8h3.7q0-0.5-0.3-0.9-0.2-0.4-0.6-0.7-0.4-0.2-0.9-0.2-0.6 0-1 0.3-0.4 0.2-0.6 0.6-0.2 0.4-0.3 0.9zm8.1 3.8q-0.4 0-0.8-0.1-0.4-0.2-0.7-0.4-0.3-0.2-0.5-0.6-0.2-0.3-0.2-0.8 0-0.5 0.2-0.9 0.2-0.4 0.5-0.6 0.4-0.2 0.8-0.3 0.4-0.1 0.9-0.1h1.9q0-0.5-0.2-0.9-0.1-0.4-0.5-0.7-0.3-0.2-0.8-0.2-0.4 0-0.7 0.1-0.3 0.1-0.5 0.2-0.2 0.2-0.3 0.4h-1.1q0.1-0.4 0.4-0.7 0.2-0.3 0.6-0.5 0.3-0.2 0.7-0.3 0.4-0.1 0.9-0.1 1.3 0 1.9 0.8 0.6 0.8 0.6 2.2v3.4h-0.9v-0.8q-0.3 0.4-0.7 0.5-0.3 0.2-0.7 0.3-0.4 0.1-0.8 0.1zm0.1-0.9q0.6 0 1.1-0.2 0.4-0.2 0.6-0.6 0.3-0.4 0.3-0.9v-0.4h-1.1q-0.4 0-0.8 0.1-0.4 0-0.7 0.1-0.3 0-0.5 0.2-0.2 0.2-0.2 0.6 0 0.4 0.2 0.6 0.2 0.2 0.5 0.4 0.3 0.1 0.6 0.1zm4.6 0.8v-6.3h1v1q0.3-0.4 0.6-0.6 0.3-0.3 0.7-0.4 0.4-0.1 0.8-0.1 0.1 0 0.2 0 0.1 0 0.1 0v1h-0.3q-0.8 0-1.2 0.3-0.5 0.3-0.7 0.8-0.2 0.6-0.2 1.2v3.1z"/>
	<path class="s2" d="m25.2 161v-9.9h3.5q1.6 0 2.7 0.6 1 0.6 1.5 1.7 0.6 1.1 0.6 2.7 0 1.5-0.5 2.6-0.6 1.1-1.6 1.7-1.1 0.6-2.6 0.6zm1.4-1.4h2.1q1.1 0 1.9-0.4 0.7-0.5 1-1.3 0.4-0.8 0.4-1.8 0-1.1-0.4-1.9-0.3-0.8-1-1.3-0.7-0.4-1.9-0.4h-2.1zm8.4 1.3v-7.4h1.5v7.4zm0.7-8.3q-0.4 0-0.7-0.3-0.3-0.3-0.3-0.7 0-0.4 0.3-0.6 0.3-0.3 0.7-0.3 0.4 0 0.6 0.3 0.3 0.2 0.3 0.6 0 0.4-0.2 0.7-0.3 0.3-0.7 0.3zm5.3 8.4q-0.5 0-1.1-0.1-0.5-0.1-0.9-0.3-0.5-0.3-0.8-0.7-0.3-0.5-0.4-1.1h1.5q0.1 0.4 0.4 0.6 0.3 0.2 0.6 0.3 0.4 0.1 0.7 0.1 0.3 0 0.5-0.1 0.3 0 0.5-0.1 0.3-0.1 0.4-0.3 0.2-0.2 0.2-0.5 0-0.2-0.2-0.4-0.1-0.2-0.3-0.3-0.3-0.1-0.6-0.1-0.6-0.2-1.3-0.3-0.8-0.1-1.3-0.5-0.2-0.1-0.4-0.3-0.1-0.1-0.2-0.3-0.1-0.2-0.2-0.5 0-0.2 0-0.5 0-0.6 0.2-1 0.2-0.4 0.6-0.6 0.4-0.3 0.9-0.4 0.6-0.2 1.1-0.2 0.8 0 1.4 0.3 0.6 0.2 1 0.7 0.4 0.4 0.4 1.1h-1.3q-0.1-0.3-0.5-0.6-0.4-0.2-1-0.2-0.2 0-0.5 0-0.2 0.1-0.4 0.2-0.3 0.1-0.4 0.2-0.1 0.2-0.1 0.5 0 0.3 0.1 0.4 0.1 0.2 0.4 0.3 0.3 0.1 0.6 0.2 0.5 0.1 1 0.2 0.6 0.1 0.9 0.2 0.5 0.2 0.8 0.4 0.3 0.2 0.5 0.6 0.2 0.4 0.2 0.9 0 0.6-0.3 1.1-0.2 0.4-0.7 0.7-0.4 0.2-1 0.3-0.5 0.1-1 0.1zm7.4-0.1q-0.9 0-1.5-0.2-0.5-0.3-0.8-0.8-0.2-0.5-0.2-1.4v-3.7h-1.2v-1.3h1.2v-2.1h1.4v2.1h1.9v1.3h-1.9v3.5q0 0.7 0.3 1 0.2 0.3 1 0.3h0.5v1.3zm2.1 0v-7.4h1.4v1.1q0.3-0.4 0.7-0.7 0.4-0.2 0.8-0.3 0.4-0.2 0.9-0.2 0.1 0 0.2 0 0.1 0 0.2 0v1.4h-0.4q-0.8 0-1.3 0.4-0.6 0.3-0.8 0.8-0.2 0.6-0.2 1.4v3.5zm5.3 0v-7.4h1.4v7.4zm0.8-8.3q-0.5 0-0.7-0.3-0.3-0.3-0.3-0.7 0-0.4 0.3-0.6 0.3-0.3 0.7-0.3 0.3 0 0.6 0.3 0.3 0.2 0.3 0.6 0 0.4-0.3 0.7-0.2 0.3-0.6 0.3zm6.2 8.4q-0.4 0-0.9-0.1-0.4-0.1-0.7-0.3-0.4-0.2-0.7-0.5v0.8h-1.4v-9.9h1.4v3.5q0.4-0.5 1.1-0.8 0.7-0.3 1.4-0.3 1.1 0 1.8 0.5 0.7 0.5 1 1.4 0.4 0.8 0.4 1.9 0 1.1-0.4 1.9-0.4 0.9-1.1 1.4-0.7 0.5-1.9 0.5zm-0.1-1.3q0.7 0 1.2-0.3 0.4-0.4 0.6-0.9 0.2-0.6 0.2-1.3 0-0.7-0.2-1.2-0.2-0.6-0.6-0.9-0.5-0.4-1.2-0.4-0.7 0-1.2 0.4-0.5 0.4-0.7 1-0.3 0.5-0.3 1.2 0 0.6 0.2 1.2 0.3 0.5 0.7 0.9 0.5 0.3 1.3 0.3zm8.2 1.3q-1.6 0-2.4-0.8-0.8-0.8-0.8-2.5v-4.2h1.4v4.1q0 0.7 0.2 1.1 0.2 0.5 0.6 0.8 0.4 0.2 1 0.2 0.6 0 1-0.2 0.4-0.3 0.5-0.8 0.2-0.5 0.2-1.1v-4.1h1.5v4.2q0 1.7-0.9 2.5-0.8 0.8-2.3 0.8zm8-0.1q-0.8 0-1.4-0.2-0.5-0.3-0.8-0.8-0.2-0.5-0.2-1.4v-3.7h-1.2v-1.3h1.2v-2.1h1.4v2.1h1.9v1.3h-1.9v3.5q0 0.7 0.2 1 0.3 0.3 1 0.3h0.6v1.3zm2.1 0v-7.4h1.4v7.4zm0.7-8.3q-0.4 0-0.6-0.3-0.3-0.3-0.3-0.7 0-0.4 0.3-0.6 0.2-0.3 0.6-0.3 0.4 0 0.7 0.3 0.3 0.2 0.3 0.6 0 0.4-0.3 0.7-0.2 0.3-0.7 0.3zm5.9 8.4q-1.2 0-2-0.5-0.8-0.4-1.2-1.3-0.4-0.8-0.4-2 0-1.1 0.4-1.9 0.4-0.9 1.2-1.4 0.8-0.5 2-0.5 1.1 0 1.9 0.5 0.8 0.5 1.2 1.4 0.4 0.8 0.4 2 0 1.1-0.4 1.9-0.4 0.9-1.2 1.3-0.8 0.5-1.9 0.5zm0-1.3q0.7 0 1.2-0.3 0.5-0.4 0.7-0.9 0.2-0.6 0.2-1.3 0-0.6-0.2-1.2-0.2-0.6-0.7-0.9-0.5-0.3-1.2-0.3-0.8 0-1.2 0.3-0.5 0.3-0.7 0.9-0.3 0.6-0.3 1.2 0 0.7 0.3 1.3 0.2 0.5 0.7 0.9 0.4 0.3 1.2 0.3zm5.1 1.2v-7.4h1.3l0.1 1.1q0.3-0.4 0.7-0.7 0.4-0.2 0.8-0.3 0.5-0.2 0.9-0.2 1 0 1.6 0.5 0.7 0.5 0.9 1.2 0.3 0.8 0.3 1.7v4.1h-1.5v-3.8q0-0.4 0-0.8-0.1-0.5-0.3-0.8-0.1-0.4-0.5-0.6-0.3-0.2-0.8-0.2-0.7 0-1.2 0.4-0.4 0.4-0.7 1-0.2 0.6-0.2 1.4v3.4z"/>
	<path fill-rule="evenodd" class="s7" d="m28 172h253c2.2 0 4 1.8 4 4v8c0 2.2-1.8 4-4 4h-253c-2.2 0-4-1.8-4-4v-8c0-2.2 1.8-4 4-4z"/>
	<path fill-rule="evenodd" class="s8" d="m293 172h62c2.2 0 4 1.8 4 4v8c0 2.2-1.8 4-4 4h-62c-2.2 0-4-1.8-4-4v-8c0-2.2 1.8-4 4-4z"/>
	<path fill-rule="evenodd" class="s9" d="m367 172h31c2.2 0 4 1.8 4 4v8c0 2.2-1.8 4-4 4h-31c-2.2 0-4-1.8-4-4v-8c0-2.2 1.8-4 4-4z"/>
	<g id="Clip-Path" clip-path="url(#cp1)">
		<path class="s10" d="m402 244v-1h-378v1 1h378z"/>
	</g>
	<path fill-rule="evenodd" class="s7" d="m28 228c-2.2 0-4-1.8-4-4 0-2.2 1.8-4 4-4 2.2 0 4 1.8 4 4 0 2.2-1.8 4-4 4z"/>
	<path class="s2" d="m45.2 229v-9.9h3.5q1.1 0 1.9 0.4 0.8 0.3 1.3 1 0.4 0.8 0.4 1.9 0 1.2-0.5 1.9-0.5 0.8-1.3 1.2-0.9 0.3-2 0.3h-1.9v3.2zm1.5-4.5h1.9q1 0 1.7-0.5 0.6-0.5 0.6-1.6 0-1-0.5-1.5-0.6-0.4-1.6-0.4h-2.1zm7.2 4.5v-7.4h1.4v1.1q0.3-0.5 0.7-0.7 0.4-0.3 0.8-0.4 0.4-0.1 0.9-0.1 0.1 0 0.2 0 0.2 0 0.2 0v1.4h-0.4q-0.8 0-1.3 0.3-0.5 0.3-0.8 0.9-0.2 0.6-0.2 1.3v3.6zm8.5 0.1q-1.2 0-2-0.5-0.8-0.5-1.2-1.3-0.4-0.9-0.4-2 0-1.1 0.4-2 0.4-0.8 1.2-1.3 0.8-0.5 2-0.5 1.1 0 1.9 0.5 0.8 0.5 1.2 1.3 0.4 0.9 0.4 2 0 1.1-0.4 2-0.4 0.8-1.2 1.3-0.8 0.5-1.9 0.5zm0-1.3q0.7 0 1.2-0.4 0.5-0.3 0.7-0.9 0.2-0.5 0.2-1.2 0-0.7-0.2-1.2-0.2-0.6-0.7-0.9-0.5-0.4-1.2-0.4-0.8 0-1.3 0.4-0.4 0.3-0.7 0.9-0.2 0.5-0.2 1.2 0 0.7 0.2 1.2 0.3 0.6 0.7 0.9 0.5 0.4 1.3 0.4zm8 1.3q-1.1 0-1.8-0.5-0.7-0.5-1.1-1.4-0.3-0.9-0.3-1.9 0-1.1 0.3-1.9 0.4-0.9 1.1-1.4 0.8-0.5 1.9-0.5 0.4 0 0.8 0.1 0.5 0.1 0.8 0.3 0.4 0.2 0.7 0.5v-3.3h1.4v9.9h-1.4v-1q-0.3 0.3-0.6 0.6-0.4 0.2-0.9 0.3-0.4 0.2-0.9 0.2zm0.3-1.3q0.7 0 1.1-0.4 0.5-0.3 0.8-0.9 0.2-0.6 0.2-1.3 0-0.6-0.2-1.2-0.3-0.5-0.7-0.9-0.5-0.3-1.2-0.3-0.8 0-1.2 0.3-0.5 0.4-0.7 1-0.2 0.5-0.2 1.2 0 0.5 0.1 1 0.1 0.4 0.4 0.8 0.2 0.3 0.6 0.5 0.4 0.2 1 0.2zm8.5 1.3q-1.6 0-2.4-0.9-0.8-0.8-0.8-2.5v-4.1h1.4v4.1q0 0.6 0.2 1.1 0.2 0.5 0.6 0.7 0.4 0.3 1 0.3 0.6 0 1-0.3 0.4-0.3 0.6-0.7 0.2-0.5 0.2-1.1v-4.1h1.4v4.1q0 1.7-0.8 2.6-0.9 0.8-2.4 0.8zm8.2 0q-1.2 0-2-0.5-0.7-0.5-1.1-1.3-0.4-0.9-0.4-2 0-1.1 0.4-1.9 0.4-0.9 1.2-1.4 0.8-0.5 2-0.5 0.8 0 1.4 0.3 0.7 0.2 1 0.8 0.5 0.5 0.6 1.3h-1.5q-0.1-0.6-0.6-0.9-0.4-0.2-1-0.2-0.7 0-1.2 0.4-0.5 0.3-0.7 0.9-0.2 0.6-0.2 1.2 0 0.7 0.2 1.2 0.3 0.6 0.7 0.9 0.5 0.4 1.2 0.4 0.6 0 1-0.3 0.5-0.2 0.7-0.8h1.4q-0.1 0.8-0.5 1.3-0.5 0.5-1.2 0.8-0.7 0.3-1.4 0.3zm7.4 0q-1.2 0-1.7-0.7-0.5-0.7-0.5-1.8v-3.7h-1.2v-1.3h1.2v-2.2h1.5v2.2h2.2v1.3h-2.2v3.4q0 0.4 0 0.8 0.1 0.3 0.3 0.5 0.3 0.1 0.7 0.2 0.3 0 0.5-0.2 0.3-0.1 0.4-0.2l0.6 1.1q-0.3 0.2-0.6 0.3-0.2 0.1-0.5 0.2-0.4 0.1-0.7 0.1zm10.6 0q-0.9 0-1.8-0.3-0.8-0.3-1.4-0.9-0.6-0.6-0.8-1.7h1.5q0.2 0.6 0.6 0.9 0.4 0.4 1 0.5 0.5 0.1 1 0.1 0.6 0 1-0.1 0.5-0.2 0.8-0.5 0.3-0.3 0.3-0.8 0-0.4-0.2-0.7-0.1-0.2-0.4-0.4-0.3-0.1-0.7-0.2-0.4-0.2-0.9-0.3-0.5-0.1-1-0.2-0.5-0.1-0.9-0.3-0.3-0.2-0.7-0.4-0.3-0.2-0.5-0.4-0.3-0.3-0.4-0.7-0.2-0.4-0.2-0.9 0-0.7 0.2-1.2 0.3-0.5 0.6-0.8 0.4-0.3 0.8-0.5 0.5-0.2 1-0.3 0.6 0 1 0 0.9 0 1.7 0.2 0.8 0.3 1.2 0.9 0.6 0.6 0.6 1.6h-1.4q-0.1-0.5-0.4-0.8-0.3-0.3-0.8-0.5-0.4-0.1-0.9-0.1-0.4 0-0.7 0.1-0.4 0-0.7 0.2-0.3 0.2-0.5 0.4-0.1 0.3-0.1 0.7 0 0.3 0.1 0.6 0.1 0.2 0.4 0.4 0.2 0.2 0.6 0.3 0.6 0.2 1.3 0.4 0.7 0.1 1.3 0.3 0.4 0.1 0.8 0.3 0.4 0.2 0.7 0.5 0.3 0.3 0.4 0.7 0.2 0.4 0.2 0.9 0 0.8-0.3 1.4-0.3 0.6-0.8 0.9-0.5 0.4-1.2 0.5-0.6 0.2-1.4 0.2zm7.7 0q-0.5 0-1-0.2-0.4-0.1-0.8-0.4-0.4-0.3-0.6-0.7-0.2-0.4-0.2-0.9 0-0.7 0.2-1.2 0.3-0.4 0.7-0.6 0.5-0.3 1-0.4 0.6-0.1 1.2-0.1h1.8q0-0.5-0.1-1-0.2-0.4-0.6-0.6-0.3-0.2-0.9-0.2-0.4 0-0.7 0.1-0.3 0-0.5 0.2-0.2 0.2-0.3 0.4h-1.5q0.1-0.5 0.3-0.9 0.3-0.4 0.8-0.6 0.4-0.3 0.9-0.4 0.5-0.1 1-0.1 1.6 0 2.3 0.9 0.7 1 0.7 2.6v4h-1.2l-0.1-1q-0.3 0.5-0.7 0.7-0.5 0.2-0.9 0.3-0.4 0.1-0.8 0.1zm0.2-1.3q0.7 0 1.1-0.2 0.5-0.2 0.8-0.6 0.2-0.4 0.2-1v-0.3h-1.3q-0.4 0-0.8 0-0.4 0-0.7 0.1-0.3 0.1-0.5 0.3-0.2 0.3-0.2 0.6 0 0.4 0.2 0.7 0.2 0.2 0.5 0.3 0.4 0.1 0.7 0.1zm5.3 1.2v-9.9h1.4v9.9zm6.5 0.1q-1.1 0-1.9-0.5-0.8-0.5-1.2-1.3-0.4-0.9-0.4-2 0-1.1 0.4-2 0.4-0.8 1.2-1.3 0.8-0.5 1.9-0.5 0.9 0 1.5 0.3 0.7 0.3 1.1 0.9 0.4 0.5 0.6 1.1 0.2 0.7 0.1 1.4 0 0.1 0 0.3 0 0.1 0 0.3h-5.3q0 0.5 0.2 1 0.3 0.5 0.7 0.7 0.5 0.3 1.2 0.3 0.3 0 0.7-0.1 0.3-0.1 0.6-0.3 0.2-0.2 0.4-0.5h1.4q-0.2 0.7-0.6 1.2-0.5 0.5-1.2 0.7-0.6 0.3-1.4 0.3zm-2-4.5h3.9q0-0.5-0.2-0.9-0.3-0.5-0.7-0.7-0.4-0.3-1-0.3-0.6 0-1.1 0.3-0.4 0.3-0.6 0.7-0.3 0.4-0.3 0.9zm9.6 4.5q-0.5 0-1-0.1-0.5-0.1-1-0.4-0.4-0.2-0.7-0.7-0.4-0.4-0.4-1h1.4q0.1 0.3 0.4 0.5 0.3 0.2 0.7 0.3 0.3 0.1 0.7 0.1 0.2 0 0.4 0 0.3 0 0.5-0.1 0.3-0.1 0.4-0.3 0.2-0.2 0.2-0.5 0-0.3-0.1-0.5-0.2-0.1-0.4-0.2-0.2-0.1-0.6-0.2-0.6-0.1-1.3-0.3-0.7-0.1-1.3-0.4-0.2-0.2-0.3-0.3-0.2-0.2-0.3-0.4-0.1-0.2-0.2-0.4 0-0.3 0-0.6 0-0.5 0.2-0.9 0.3-0.4 0.7-0.7 0.4-0.3 0.9-0.4 0.5-0.1 1.1-0.1 0.7 0 1.3 0.2 0.6 0.3 1 0.7 0.4 0.5 0.5 1.2h-1.4q-0.1-0.4-0.5-0.6-0.4-0.2-1-0.2-0.2 0-0.4 0-0.3 0-0.5 0.1-0.2 0.1-0.4 0.3-0.1 0.2-0.1 0.4 0 0.3 0.1 0.5 0.2 0.2 0.4 0.3 0.3 0.1 0.6 0.2 0.5 0.1 1 0.2 0.6 0.1 1 0.2 0.4 0.1 0.7 0.3 0.4 0.3 0.5 0.6 0.2 0.4 0.2 0.9 0 0.7-0.2 1.1-0.3 0.5-0.8 0.7-0.4 0.3-0.9 0.4-0.6 0.1-1.1 0.1z"/>
	<path class="s2" d="m287.1 230.9v-1.8q-0.8-0.1-1.5-0.4-0.7-0.3-1.1-0.9-0.5-0.5-0.7-1.4h1.3q0.2 0.6 0.6 1 0.5 0.3 1.1 0.5 0.5 0.1 1.1 0.1 0.6 0 1.1-0.1 0.5-0.2 0.8-0.6 0.3-0.3 0.3-0.9 0-0.5-0.2-0.7-0.1-0.3-0.4-0.5-0.3-0.2-0.7-0.3-0.5-0.2-1.1-0.3-0.6-0.1-1.2-0.2-0.5-0.2-1-0.4-0.6-0.3-1-0.9-0.3-0.5-0.3-1.3 0-0.9 0.4-1.5 0.4-0.6 1.1-0.9 0.7-0.3 1.4-0.4v-1.8h1.3v1.8q0.7 0.1 1.3 0.4 0.6 0.3 1 0.9 0.3 0.5 0.4 1.3h-1.2q-0.1-0.6-0.4-0.9-0.3-0.3-0.8-0.5-0.5-0.1-1-0.1-0.5 0-1.1 0.1-0.5 0.2-0.8 0.5-0.4 0.3-0.4 0.9 0 0.4 0.2 0.7 0.1 0.3 0.3 0.5 0.2 0.1 0.5 0.3 0.7 0.2 1.5 0.4 0.8 0.1 1.6 0.4 0.6 0.2 1 0.5 0.4 0.3 0.6 0.7 0.2 0.5 0.2 1.1 0 1-0.4 1.6-0.4 0.6-1.1 0.9-0.7 0.3-1.5 0.4v1.8zm9.2-1.8q-0.6 0-1.2-0.1-0.6-0.1-1.1-0.4-0.5-0.3-0.9-0.7-0.3-0.5-0.4-1.1h1.3q0.1 0.5 0.5 0.7 0.4 0.3 0.9 0.4 0.5 0.1 0.9 0.1 0.3 0 0.7-0.1 0.4 0 0.7-0.2 0.4-0.2 0.6-0.5 0.3-0.4 0.3-1 0-0.5-0.2-0.9-0.3-0.3-0.6-0.5-0.4-0.2-0.8-0.2-0.4-0.1-0.8-0.1h-1v-1.1h0.6q0.5 0 0.9-0.1 0.4-0.1 0.8-0.2 0.3-0.2 0.5-0.6 0.2-0.3 0.2-0.8 0-0.7-0.3-1-0.3-0.4-0.7-0.5-0.5-0.1-1-0.1-0.4 0-0.8 0.1-0.4 0.1-0.7 0.4-0.3 0.3-0.5 0.7h-1.2q0.1-0.6 0.4-1.1 0.3-0.4 0.8-0.7 0.4-0.3 1-0.4 0.5-0.1 1.1-0.1 0.7 0 1.2 0.1 0.6 0.2 1 0.5 0.4 0.3 0.6 0.7 0.3 0.5 0.3 1.2 0 0.6-0.2 1-0.1 0.4-0.5 0.7-0.3 0.4-0.8 0.6 0.6 0.1 1.1 0.4 0.4 0.4 0.6 0.9 0.2 0.4 0.2 1 0 1-0.3 1.6-0.4 0.5-0.9 0.9-0.5 0.3-1.1 0.4-0.6 0.1-1.2 0.1zm6.7-0.1v-7.9h-2v-0.9q0.6 0 1-0.1 0.4-0.1 0.8-0.3 0.3-0.3 0.6-0.7h0.8v9.9zm3.2 0v-1l2.8-2.4q0.4-0.4 0.8-0.7 0.5-0.4 0.9-0.9 0.4-0.4 0.7-0.9 0.3-0.6 0.3-1.1 0-0.9-0.6-1.4-0.5-0.5-1.4-0.5-0.7 0-1.3 0.3-0.5 0.3-0.7 0.9h-1.3q0.2-0.8 0.7-1.3 0.5-0.5 1.2-0.8 0.7-0.2 1.4-0.2 1 0 1.7 0.3 0.7 0.4 1.1 1 0.4 0.6 0.4 1.6 0 0.9-0.4 1.6-0.3 0.6-0.9 1.2-0.5 0.5-1.1 1.1l-2.5 2.1h5v1.1zm9.1 1.7l-0.4-0.5q0.2-0.1 0.4-0.3 0.2-0.2 0.3-0.4 0.1-0.2 0.2-0.5-0.4 0-0.6-0.2-0.2-0.2-0.2-0.6 0-0.3 0.2-0.5 0.3-0.3 0.6-0.3 0.4 0 0.7 0.3 0.2 0.3 0.2 0.9 0 0.4-0.2 0.8-0.2 0.5-0.5 0.8-0.3 0.4-0.7 0.5zm6.7-1.6q-0.6 0-1.2-0.1-0.6-0.2-1-0.4-0.5-0.3-0.8-0.8-0.3-0.4-0.4-1h1.2q0.1 0.4 0.5 0.6 0.3 0.3 0.7 0.5 0.5 0.1 0.9 0.1 0.7 0 1.2-0.2 0.6-0.2 0.9-0.7 0.3-0.5 0.3-1.2 0-1-0.6-1.6-0.6-0.5-1.6-0.5-0.6 0-1.1 0.2-0.5 0.2-0.9 0.5h-1.3l0.5-5.4h5.9v1.1h-4.8l-0.3 3.1q0.4-0.3 0.9-0.5 0.6-0.2 1.4-0.2 0.9 0 1.6 0.4 0.8 0.4 1.1 1.1 0.5 0.7 0.5 1.7 0 1-0.5 1.8-0.5 0.7-1.3 1.1-0.8 0.4-1.8 0.4zm9 0q-1 0-1.8-0.4-0.7-0.4-1.2-1-0.4-0.7-0.6-1.7-0.3-0.9-0.3-1.9 0-1.1 0.3-2 0.2-0.9 0.6-1.6 0.5-0.7 1.2-1.1 0.8-0.4 1.8-0.4 1.1 0 1.9 0.4 0.7 0.4 1.1 1.2 0.5 0.7 0.7 1.6 0.2 0.9 0.2 1.9 0 0.9-0.2 1.8-0.2 0.9-0.7 1.6-0.4 0.8-1.1 1.2-0.8 0.4-1.9 0.4zm0-1.1q0.8 0 1.3-0.3 0.6-0.4 0.8-1 0.3-0.6 0.4-1.3 0.1-0.7 0.1-1.3 0-0.7-0.1-1.4-0.1-0.7-0.4-1.3-0.2-0.6-0.8-0.9-0.5-0.4-1.3-0.4-0.8 0-1.4 0.4-0.5 0.3-0.8 0.9-0.2 0.6-0.3 1.3-0.1 0.7-0.1 1.4 0 0.6 0.1 1.3 0.1 0.7 0.3 1.3 0.3 0.6 0.8 1 0.6 0.3 1.4 0.3zm9.3 1.1q-1 0-1.7-0.4-0.8-0.4-1.2-1-0.5-0.7-0.7-1.7-0.2-0.9-0.2-1.9 0-1.1 0.2-2 0.2-0.9 0.7-1.6 0.4-0.7 1.2-1.1 0.7-0.4 1.7-0.4 1.1 0 1.9 0.4 0.7 0.4 1.2 1.2 0.4 0.7 0.6 1.6 0.2 0.9 0.2 1.9 0 0.9-0.2 1.8-0.2 0.9-0.6 1.6-0.5 0.8-1.2 1.2-0.8 0.4-1.9 0.4zm0-1.1q0.9 0 1.4-0.3 0.5-0.4 0.8-1 0.3-0.6 0.3-1.3 0.1-0.7 0.1-1.3 0-0.7-0.1-1.4 0-0.7-0.3-1.3-0.3-0.6-0.8-0.9-0.5-0.4-1.4-0.4-0.8 0-1.3 0.4-0.5 0.3-0.8 0.9-0.3 0.6-0.4 1.3-0.1 0.7-0.1 1.4 0 0.6 0.1 1.3 0.1 0.7 0.4 1.3 0.3 0.6 0.8 1 0.5 0.3 1.3 0.3zm6.2 1.1q-0.3 0-0.6-0.2-0.2-0.3-0.2-0.6 0-0.4 0.2-0.6 0.3-0.3 0.6-0.3 0.4 0 0.6 0.3 0.3 0.2 0.3 0.6 0 0.3-0.3 0.6-0.2 0.2-0.6 0.2zm7.8-0.1v-2h-5.4v-0.9l4.9-7h1.7v6.8h1.2v1.1h-1.2v2zm-3.9-3.1h3.9v-5.7zm11.2 3.2q-0.7 0-1.2-0.1-0.6-0.2-1.1-0.4-0.4-0.3-0.7-0.8-0.4-0.4-0.5-1.1h1.2q0.2 0.4 0.5 0.7 0.4 0.3 0.8 0.5 0.4 0.1 0.8 0.1 0.7 0 1.3-0.2 0.5-0.3 0.8-0.7 0.3-0.5 0.3-1.2 0-1.1-0.6-1.6-0.6-0.5-1.6-0.5-0.6 0-1.1 0.2-0.4 0.2-0.9 0.5h-1.2l0.4-5.4h6v1.1h-4.9l-0.3 3.1q0.4-0.3 1-0.5 0.5-0.2 1.3-0.2 1 0 1.7 0.4 0.7 0.4 1.1 1.1 0.4 0.7 0.4 1.7 0 1-0.5 1.8-0.4 0.7-1.2 1.1-0.8 0.4-1.8 0.4z"/>
	<path class="s11" d="m372.9 230q-0.7-0.8-1.2-1.9-0.4-1-0.7-2.1-0.2-1.1-0.2-2.1 0-1 0.2-2.1 0.3-1.1 0.8-2.2 0.4-1.1 1.2-1.9h1.1q-0.9 1.1-1.4 2.1-0.5 1-0.7 2-0.2 1-0.2 2.1 0 1 0.2 2 0.2 1 0.7 2 0.5 1 1.3 2.1zm4.8-2.4q-0.9 0-1.5-0.3-0.6-0.4-1-0.9-0.4-0.6-0.6-1.3-0.2-0.8-0.2-1.6 0-0.9 0.2-1.7 0.2-0.9 0.6-1.5 0.4-0.6 1-1 0.7-0.4 1.6-0.4 0.6 0 1.1 0.2 0.6 0.2 1 0.7 0.4 0.4 0.6 1h-1.1q-0.2-0.5-0.7-0.7-0.4-0.2-0.9-0.2-0.6 0-1 0.2-0.4 0.2-0.6 0.5-0.3 0.4-0.5 0.8-0.1 0.5-0.2 1-0.1 0.4-0.1 0.9 0.3-0.4 0.7-0.7 0.3-0.3 0.8-0.4 0.4-0.1 0.9-0.1 0.8 0 1.4 0.3 0.7 0.4 1 1 0.3 0.6 0.3 1.4 0 0.8-0.3 1.5-0.4 0.6-1.1 0.9-0.6 0.4-1.4 0.4zm-0.1-1q0.6 0 1-0.2 0.4-0.2 0.6-0.6 0.3-0.4 0.3-0.9 0-0.5-0.2-1-0.3-0.4-0.7-0.6-0.4-0.2-0.9-0.2-0.5 0-1 0.2-0.4 0.2-0.7 0.6-0.2 0.4-0.2 1 0 0.5 0.2 0.9 0.3 0.4 0.7 0.6 0.4 0.2 0.9 0.2zm7.3 1q-0.5 0-1-0.1-0.5-0.1-0.9-0.4-0.4-0.2-0.7-0.6-0.2-0.4-0.3-0.9h1q0.2 0.3 0.4 0.6 0.3 0.2 0.7 0.3 0.4 0.1 0.7 0.1 0.6 0 1.1-0.1 0.4-0.2 0.7-0.6 0.3-0.4 0.3-1.1 0-0.9-0.5-1.3-0.6-0.5-1.4-0.5-0.5 0-0.9 0.2-0.5 0.2-0.8 0.5h-1.1l0.4-4.7h5.1v1h-4.2l-0.2 2.6q0.3-0.2 0.8-0.4 0.4-0.1 1.1-0.1 0.8 0 1.5 0.3 0.6 0.3 0.9 0.9 0.4 0.6 0.4 1.5 0 0.9-0.4 1.5-0.4 0.6-1.1 1-0.7 0.3-1.6 0.3zm5.4-0.1l5.2-8.5h1.1l-5.2 8.5zm5.5 0.1q-0.6 0-1-0.3-0.3-0.2-0.5-0.7-0.2-0.4-0.2-0.9 0-0.6 0.2-1 0.2-0.4 0.6-0.6 0.4-0.3 0.9-0.3 0.6 0 1 0.3 0.3 0.2 0.5 0.6 0.2 0.4 0.2 1 0 0.5-0.2 0.9-0.2 0.5-0.5 0.7-0.4 0.3-1 0.3zm0-0.9q0.3 0 0.5-0.1 0.2-0.2 0.3-0.4 0-0.2 0-0.5 0-0.3 0-0.5-0.1-0.2-0.3-0.4-0.2-0.1-0.5-0.1-0.5 0-0.7 0.3-0.2 0.3-0.2 0.7 0 0.4 0.2 0.7 0.2 0.3 0.7 0.3zm-4.7-4q-0.6 0-1-0.3-0.4-0.2-0.6-0.6-0.2-0.5-0.2-1 0-0.6 0.2-1 0.2-0.4 0.6-0.6 0.4-0.3 1-0.3 0.5 0 0.9 0.3 0.4 0.2 0.6 0.6 0.2 0.4 0.2 1 0 0.5-0.2 1-0.2 0.4-0.6 0.6-0.4 0.3-0.9 0.3zm0-0.9q0.3 0 0.5-0.1 0.1-0.2 0.2-0.4 0.1-0.2 0.1-0.5 0-0.3-0.1-0.5-0.1-0.2-0.2-0.4-0.2-0.1-0.5-0.1-0.5 0-0.7 0.3-0.2 0.3-0.2 0.7 0 0.4 0.2 0.7 0.2 0.3 0.7 0.3zm7.9 8.2h-1.1q0.8-1.1 1.3-2.1 0.5-1 0.7-2 0.3-1 0.3-2 0-1.1-0.2-2.1-0.2-1-0.7-2-0.5-1-1.4-2.1h1.1q0.7 0.8 1.2 1.9 0.5 1.1 0.8 2.2 0.2 1.1 0.2 2.1 0 1-0.2 2.1-0.3 1.1-0.8 2.1-0.4 1.1-1.2 1.9z"/>
	<g id="Clip-Path" clip-path="url(#cp2)">
		<path class="s10" d="m402 284v-1h-378v1 1h378z"/>
	</g>
	<path fill-rule="evenodd" class="s8" d="m28 268c-2.2 0-4-1.8-4-4 0-2.2 1.8-4 4-4 2.2 0 4 1.8 4 4 0 2.2-1.8 4-4 4z"/>
	<path class="s2" d="m48.8 269.1q-1 0-1.8-0.3-0.9-0.2-1.5-0.9-0.6-0.6-0.8-1.6h1.6q0.1 0.5 0.6 0.9 0.4 0.3 0.9 0.4 0.5 0.2 1.1 0.2 0.5 0 1-0.2 0.4-0.1 0.7-0.4 0.3-0.4 0.3-0.9 0-0.4-0.2-0.6-0.1-0.3-0.4-0.4-0.3-0.2-0.6-0.3-0.5-0.1-1-0.2-0.5-0.1-0.9-0.3-0.5-0.1-0.9-0.3-0.4-0.1-0.7-0.3-0.4-0.2-0.6-0.5-0.2-0.3-0.4-0.7-0.1-0.4-0.1-0.9 0-0.7 0.2-1.1 0.2-0.5 0.6-0.8 0.3-0.4 0.8-0.5 0.5-0.2 1-0.3 0.5-0.1 1-0.1 0.9 0 1.6 0.3 0.8 0.2 1.3 0.9 0.5 0.6 0.5 1.6h-1.4q-0.1-0.6-0.4-0.9-0.3-0.3-0.7-0.4-0.5-0.2-1-0.2-0.3 0-0.7 0.1-0.4 0.1-0.7 0.2-0.3 0.2-0.4 0.4-0.2 0.3-0.2 0.7 0 0.3 0.1 0.6 0.2 0.3 0.4 0.4 0.3 0.2 0.6 0.3 0.6 0.3 1.3 0.4 0.7 0.1 1.3 0.3 0.5 0.1 0.9 0.4 0.3 0.2 0.6 0.4 0.3 0.3 0.5 0.7 0.1 0.4 0.1 0.9 0 0.8-0.3 1.4-0.3 0.6-0.8 0.9-0.5 0.4-1.1 0.6-0.7 0.1-1.4 0.1zm8.5 0q-1.1 0-1.9-0.5-0.8-0.5-1.2-1.3-0.4-0.9-0.4-2 0-1.1 0.4-1.9 0.4-0.9 1.2-1.4 0.8-0.5 1.9-0.5 0.9 0 1.5 0.3 0.6 0.4 1.1 0.9 0.4 0.5 0.6 1.2 0.2 0.6 0.1 1.3 0 0.2 0 0.3 0 0.2 0 0.3h-5.3q0 0.6 0.2 1 0.3 0.5 0.7 0.8 0.5 0.2 1.1 0.2 0.4 0 0.7 0 0.4-0.1 0.7-0.3 0.2-0.2 0.4-0.6h1.4q-0.2 0.8-0.6 1.3-0.5 0.4-1.2 0.7-0.6 0.2-1.4 0.2zm-2-4.4h3.9q0-0.6-0.2-1-0.3-0.4-0.7-0.7-0.4-0.2-1-0.2-0.7 0-1.1 0.2-0.4 0.3-0.6 0.7-0.3 0.5-0.3 1zm6.9 4.3v-7.4h1.3l0.1 1.1q0.3-0.4 0.6-0.7 0.4-0.3 0.8-0.4 0.5-0.1 0.9-0.1 0.2 0 0.3 0 0.1 0 0.2 0v1.4h-0.5q-0.8 0-1.3 0.3-0.5 0.4-0.8 0.9-0.2 0.6-0.2 1.3v3.6zm7.3 0l-2.8-7.4h1.6l2.2 6.1 2.1-6.1h1.6l-2.8 7.4zm5.7 0v-7.4h1.5v7.4zm0.7-8.4q-0.4 0-0.7-0.2-0.3-0.3-0.3-0.7 0-0.4 0.3-0.6 0.3-0.3 0.7-0.3 0.4 0 0.6 0.3 0.3 0.2 0.3 0.6 0 0.4-0.2 0.7-0.3 0.2-0.7 0.2zm5.7 8.5q-1.1 0-1.9-0.5-0.8-0.5-1.2-1.3-0.4-0.9-0.4-2 0-1.1 0.4-1.9 0.4-0.9 1.2-1.4 0.9-0.5 2-0.5 0.9 0 1.5 0.3 0.6 0.3 1 0.8 0.4 0.5 0.5 1.3h-1.4q-0.2-0.6-0.6-0.8-0.4-0.3-1-0.3-0.8 0-1.2 0.4-0.5 0.4-0.7 0.9-0.2 0.6-0.2 1.2 0 0.7 0.2 1.2 0.2 0.6 0.7 1 0.4 0.3 1.2 0.3 0.5 0 1-0.2 0.5-0.3 0.6-0.9h1.5q-0.1 0.8-0.6 1.4-0.4 0.5-1.1 0.7-0.7 0.3-1.5 0.3zm7.9 0q-1.2 0-2-0.5-0.7-0.5-1.2-1.3-0.3-0.9-0.3-2 0-1.1 0.4-1.9 0.4-0.9 1.2-1.4 0.8-0.5 1.9-0.5 0.8 0 1.5 0.3 0.6 0.4 1 0.9 0.4 0.5 0.6 1.2 0.2 0.6 0.2 1.3 0 0.2 0 0.3 0 0.2-0.1 0.3h-5.3q0.1 0.6 0.3 1 0.2 0.5 0.7 0.8 0.4 0.2 1.1 0.2 0.4 0 0.7 0 0.3-0.1 0.6-0.3 0.3-0.2 0.4-0.6h1.5q-0.2 0.8-0.7 1.3-0.5 0.4-1.1 0.7-0.7 0.2-1.4 0.2zm-2.1-4.4h4q-0.1-0.6-0.3-1-0.2-0.4-0.7-0.7-0.4-0.2-1-0.2-0.6 0-1 0.2-0.5 0.3-0.7 0.7-0.2 0.5-0.3 1zm11 4.3v-9.9h3.9q0.8 0 1.4 0.2 0.7 0.1 1.2 0.5 0.5 0.3 0.7 0.9 0.3 0.6 0.3 1.5 0 0.8-0.3 1.4-0.3 0.6-0.8 0.9-0.5 0.4-1.1 0.6l2.1 3.9h-1.6l-2-3.6h-2.3v3.6zm1.5-5h2q0.5 0 1 0 0.4-0.1 0.8-0.3 0.3-0.2 0.5-0.6 0.2-0.3 0.2-0.9 0-0.6-0.3-1-0.2-0.4-0.7-0.6-0.5-0.1-1.3-0.1h-2.2zm10.7 5q-1.1 0-1.9-0.5-0.8-0.4-1.2-1.3-0.4-0.8-0.4-1.9 0-1.2 0.4-2 0.4-0.9 1.2-1.4 0.8-0.4 1.9-0.4 0.9 0 1.5 0.3 0.7 0.3 1.1 0.8 0.4 0.5 0.6 1.2 0.2 0.6 0.1 1.4 0 0.1 0 0.2 0 0.2 0 0.3h-5.3q0 0.6 0.3 1.1 0.2 0.4 0.7 0.7 0.4 0.3 1.1 0.3 0.3 0 0.7-0.1 0.3-0.1 0.6-0.3 0.3-0.2 0.4-0.5h1.4q-0.2 0.7-0.6 1.2-0.5 0.5-1.2 0.7-0.6 0.2-1.4 0.2zm-2-4.4h3.9q0-0.6-0.2-1-0.3-0.4-0.7-0.6-0.4-0.3-1-0.3-0.6 0-1.1 0.3-0.4 0.2-0.6 0.7-0.3 0.4-0.3 0.9zm8.8 4.3l-2.7-7.3h1.6l2.1 6 2.1-6h1.6l-2.7 7.3zm8.9 0.1q-1.2 0-1.9-0.5-0.8-0.4-1.2-1.3-0.4-0.8-0.4-1.9 0-1.2 0.4-2 0.4-0.9 1.2-1.4 0.8-0.4 1.9-0.4 0.9 0 1.5 0.3 0.6 0.3 1 0.8 0.4 0.5 0.6 1.2 0.2 0.6 0.2 1.4 0 0.1 0 0.2 0 0.2 0 0.3h-5.4q0.1 0.6 0.3 1.1 0.3 0.4 0.7 0.7 0.5 0.3 1.1 0.3 0.4 0 0.7-0.1 0.4-0.1 0.6-0.3 0.3-0.2 0.4-0.5h1.5q-0.2 0.7-0.7 1.2-0.4 0.5-1.1 0.7-0.7 0.2-1.4 0.2zm-2-4.4h3.9q0-0.6-0.3-1-0.2-0.4-0.6-0.6-0.5-0.3-1-0.3-0.7 0-1.1 0.3-0.4 0.2-0.7 0.7-0.2 0.4-0.2 0.9zm6.8 4.3v-7.3h1.4l0.1 1q0.2-0.4 0.6-0.7 0.4-0.2 0.9-0.3 0.4-0.1 0.8-0.1 1.1 0 1.7 0.4 0.6 0.5 0.9 1.2 0.2 0.8 0.2 1.8v4h-1.4v-3.7q0-0.5-0.1-0.9 0-0.5-0.2-0.8-0.2-0.4-0.5-0.5-0.3-0.3-0.9-0.3-0.6 0-1.1 0.4-0.5 0.4-0.7 1-0.2 0.6-0.2 1.4v3.4zm11.5 0.1q-1.6 0-2.4-0.8-0.8-0.8-0.8-2.5v-4.1h1.4v4q0 0.7 0.2 1.1 0.2 0.5 0.6 0.8 0.4 0.2 1 0.2 0.6 0 1-0.2 0.4-0.3 0.6-0.8 0.2-0.4 0.2-1.1v-4h1.4v4.1q0 1.7-0.8 2.5-0.9 0.8-2.4 0.8zm8.2 0q-1.1 0-1.9-0.5-0.8-0.4-1.2-1.3-0.4-0.8-0.4-1.9 0-1.2 0.4-2 0.4-0.9 1.2-1.4 0.8-0.4 1.9-0.4 0.9 0 1.5 0.3 0.6 0.3 1 0.8 0.5 0.5 0.6 1.2 0.2 0.6 0.2 1.4 0 0.1 0 0.2 0 0.2 0 0.3h-5.4q0.1 0.6 0.3 1.1 0.3 0.4 0.7 0.7 0.5 0.3 1.1 0.3 0.4 0 0.7-0.1 0.4-0.1 0.6-0.3 0.3-0.2 0.4-0.5h1.5q-0.2 0.7-0.7 1.2-0.4 0.5-1.1 0.7-0.7 0.2-1.4 0.2zm-2-4.4h3.9q0-0.6-0.3-1-0.2-0.4-0.6-0.6-0.4-0.3-1-0.3-0.7 0-1.1 0.3-0.4 0.2-0.7 0.7-0.2 0.4-0.2 0.9z"/>
	<path class="s2" d="m287.1 270.9v-1.8q-0.8-0.1-1.5-0.4-0.7-0.3-1.1-0.9-0.5-0.5-0.7-1.4h1.3q0.2 0.6 0.6 1 0.5 0.3 1.1 0.5 0.5 0.1 1.1 0.1 0.6 0 1.1-0.1 0.5-0.2 0.8-0.6 0.3-0.3 0.3-0.9 0-0.5-0.2-0.7-0.1-0.3-0.4-0.5-0.3-0.2-0.7-0.3-0.5-0.2-1.1-0.3-0.6-0.1-1.2-0.2-0.5-0.2-1-0.4-0.6-0.3-1-0.9-0.3-0.5-0.3-1.3 0-0.9 0.4-1.5 0.4-0.6 1.1-0.9 0.7-0.3 1.4-0.4v-1.8h1.3v1.8q0.7 0.1 1.3 0.4 0.6 0.3 1 0.9 0.3 0.5 0.4 1.3h-1.2q-0.1-0.6-0.4-0.9-0.3-0.3-0.8-0.5-0.5-0.1-1-0.1-0.5 0-1.1 0.1-0.5 0.2-0.8 0.5-0.4 0.3-0.4 0.9 0 0.4 0.2 0.7 0.1 0.3 0.3 0.5 0.2 0.1 0.5 0.3 0.7 0.2 1.5 0.4 0.8 0.1 1.6 0.4 0.6 0.2 1 0.5 0.4 0.3 0.6 0.7 0.2 0.5 0.2 1.1 0 1-0.4 1.6-0.4 0.6-1.1 0.9-0.7 0.3-1.5 0.4v1.8zm7.5-1.9v-7.9h-2v-0.9q0.5 0 1-0.1 0.4-0.1 0.7-0.3 0.4-0.2 0.7-0.7h0.8v9.9zm3.2 0v-1l2.8-2.4q0.4-0.4 0.8-0.7 0.5-0.4 0.9-0.9 0.4-0.4 0.7-0.9 0.2-0.6 0.2-1.1 0-0.9-0.5-1.4-0.5-0.5-1.4-0.5-0.7 0-1.3 0.3-0.5 0.3-0.7 0.9h-1.3q0.2-0.8 0.7-1.3 0.5-0.5 1.2-0.8 0.7-0.2 1.4-0.2 1 0 1.7 0.3 0.7 0.4 1.1 1 0.4 0.6 0.4 1.6 0 0.9-0.4 1.6-0.3 0.6-0.9 1.2-0.5 0.5-1.1 1.1l-2.6 2.1h5.1v1.1zm11.8 0.1q-0.6 0-1.2-0.1-0.5-0.2-1-0.4-0.4-0.3-0.8-0.8-0.3-0.4-0.4-1h1.2q0.2 0.4 0.5 0.6 0.4 0.3 0.8 0.5 0.4 0.1 0.8 0.1 0.7 0 1.2-0.2 0.6-0.2 0.9-0.7 0.3-0.5 0.3-1.2 0-1-0.6-1.6-0.6-0.5-1.6-0.5-0.6 0-1.1 0.2-0.5 0.2-0.9 0.5h-1.2l0.4-5.4h5.9v1.1h-4.8l-0.3 3.1q0.4-0.3 1-0.5 0.5-0.2 1.3-0.2 1 0 1.7 0.4 0.7 0.4 1.1 1.1 0.4 0.7 0.4 1.7 0 1-0.5 1.8-0.4 0.7-1.3 1.1-0.8 0.4-1.8 0.4zm5.7 1.6l-0.4-0.5q0.2-0.1 0.4-0.3 0.2-0.2 0.3-0.4 0.1-0.2 0.2-0.5-0.4 0-0.6-0.2-0.2-0.2-0.2-0.6 0-0.3 0.2-0.5 0.3-0.3 0.6-0.3 0.4 0 0.6 0.3 0.3 0.3 0.3 0.9 0 0.4-0.2 0.8-0.2 0.5-0.5 0.8-0.4 0.4-0.7 0.5zm6.7-1.6q-1 0-1.7-0.4-0.8-0.4-1.2-1-0.5-0.7-0.7-1.7-0.2-0.9-0.2-1.9 0-1.1 0.2-2 0.2-0.9 0.7-1.6 0.4-0.7 1.2-1.1 0.7-0.4 1.7-0.4 1.2 0 1.9 0.4 0.8 0.4 1.2 1.2 0.4 0.7 0.6 1.6 0.2 0.9 0.2 1.9 0 0.9-0.2 1.8-0.2 0.9-0.6 1.6-0.4 0.8-1.2 1.2-0.7 0.4-1.9 0.4zm0-1.1q0.9 0 1.4-0.3 0.5-0.4 0.8-1 0.3-0.6 0.4-1.3 0.1-0.7 0.1-1.3 0-0.7-0.1-1.4-0.1-0.7-0.4-1.3-0.3-0.6-0.8-0.9-0.5-0.4-1.4-0.4-0.8 0-1.3 0.4-0.5 0.3-0.8 0.9-0.3 0.6-0.4 1.3-0.1 0.7-0.1 1.4 0 0.6 0.1 1.3 0.1 0.7 0.4 1.3 0.3 0.6 0.8 1 0.5 0.3 1.3 0.3zm9.4 1.1q-1 0-1.8-0.4-0.7-0.4-1.2-1-0.4-0.7-0.7-1.7-0.2-0.9-0.2-1.9 0-1.1 0.2-2 0.2-0.9 0.7-1.6 0.5-0.7 1.2-1.1 0.7-0.4 1.8-0.4 1.1 0 1.8 0.4 0.8 0.4 1.2 1.2 0.5 0.7 0.7 1.6 0.2 0.9 0.2 1.9 0 0.9-0.2 1.8-0.2 0.9-0.7 1.6-0.4 0.8-1.2 1.2-0.7 0.4-1.8 0.4zm0-1.1q0.8 0 1.3-0.3 0.5-0.4 0.8-1 0.3-0.6 0.4-1.3 0.1-0.7 0.1-1.3 0-0.7-0.1-1.4-0.1-0.7-0.4-1.3-0.3-0.6-0.8-0.9-0.5-0.4-1.3-0.4-0.9 0-1.4 0.4-0.5 0.3-0.8 0.9-0.2 0.6-0.3 1.3-0.1 0.7-0.1 1.4 0 0.6 0.1 1.3 0.1 0.7 0.3 1.3 0.3 0.6 0.8 1 0.5 0.3 1.4 0.3zm9.3 1.1q-1 0-1.8-0.4-0.7-0.4-1.1-1-0.5-0.7-0.7-1.7-0.2-0.9-0.2-1.9 0-1.1 0.2-2 0.2-0.9 0.6-1.6 0.5-0.7 1.2-1.1 0.8-0.4 1.8-0.4 1.1 0 1.9 0.4 0.7 0.4 1.2 1.2 0.4 0.7 0.6 1.6 0.2 0.9 0.2 1.9 0 0.9-0.2 1.8-0.2 0.9-0.6 1.6-0.5 0.8-1.2 1.2-0.8 0.4-1.9 0.4zm0-1.1q0.9 0 1.4-0.3 0.5-0.4 0.8-1 0.2-0.6 0.3-1.3 0.1-0.7 0.1-1.3 0-0.7-0.1-1.4-0.1-0.7-0.3-1.3-0.3-0.6-0.8-0.9-0.5-0.4-1.4-0.4-0.8 0-1.3 0.4-0.5 0.3-0.8 0.9-0.3 0.6-0.4 1.3-0.1 0.7-0.1 1.4 0 0.6 0.1 1.3 0.1 0.7 0.4 1.3 0.3 0.6 0.8 1 0.5 0.3 1.3 0.3zm6.2 1.1q-0.4 0-0.6-0.2-0.2-0.3-0.2-0.6 0-0.4 0.2-0.6 0.2-0.3 0.6-0.3 0.4 0 0.6 0.3 0.2 0.2 0.2 0.6 0 0.3-0.2 0.6-0.2 0.2-0.6 0.2zm2.8-0.1v-1l2.8-2.4q0.4-0.4 0.8-0.7 0.5-0.4 0.9-0.9 0.4-0.4 0.7-0.9 0.3-0.6 0.3-1.1 0-0.9-0.6-1.4-0.5-0.5-1.4-0.5-0.7 0-1.3 0.3-0.5 0.3-0.7 0.9h-1.3q0.2-0.8 0.7-1.3 0.5-0.5 1.2-0.8 0.7-0.2 1.4-0.2 1 0 1.7 0.3 0.7 0.4 1.1 1 0.4 0.6 0.4 1.6 0 0.9-0.4 1.6-0.3 0.6-0.9 1.2-0.5 0.5-1.1 1.1l-2.5 2.1h5v1.1zm11.8 0.1q-0.6 0-1.1-0.1-0.6-0.2-1.1-0.4-0.4-0.3-0.8-0.8-0.3-0.4-0.4-1h1.2q0.2 0.4 0.5 0.6 0.4 0.3 0.8 0.5 0.4 0.1 0.8 0.1 0.7 0 1.3-0.2 0.5-0.2 0.8-0.7 0.3-0.5 0.3-1.2 0-1-0.6-1.6-0.6-0.5-1.6-0.5-0.6 0-1.1 0.2-0.5 0.2-0.9 0.5h-1.2l0.4-5.4h6v1.1h-4.9l-0.3 3.1q0.4-0.3 1-0.5 0.5-0.2 1.3-0.2 1 0 1.7 0.4 0.7 0.4 1.1 1.1 0.4 0.7 0.4 1.7 0 1-0.5 1.8-0.4 0.7-1.2 1.1-0.8 0.4-1.9 0.4z"/>
	<path class="s11" d="m372.9 270q-0.7-0.8-1.2-1.9-0.4-1-0.7-2.1-0.2-1.1-0.2-2.1 0-1 0.2-2.1 0.3-1.1 0.8-2.2 0.4-1.1 1.2-1.9h1.1q-0.9 1.1-1.4 2.1-0.5 1-0.7 2-0.2 1-0.2 2.1 0 1 0.2 2 0.2 1 0.7 2 0.5 1 1.3 2.1zm1.2-2.5v-0.9l2.4-2.1q0.3-0.2 0.7-0.6 0.4-0.3 0.7-0.7 0.4-0.4 0.6-0.8 0.3-0.4 0.3-0.9 0-0.8-0.5-1.2-0.5-0.4-1.2-0.4-0.6 0-1.1 0.2-0.4 0.3-0.6 0.8h-1.1q0.1-0.7 0.5-1.1 0.5-0.4 1.1-0.7 0.6-0.2 1.2-0.2 0.8 0 1.4 0.3 0.6 0.3 1 0.8 0.3 0.6 0.3 1.4 0 0.8-0.3 1.3-0.3 0.6-0.8 1.1-0.4 0.5-1 0.9l-2.1 1.9h4.3v0.9zm10.4 0.1q-0.9 0-1.5-0.3-0.6-0.4-1-0.9-0.4-0.6-0.6-1.3-0.1-0.8-0.1-1.6 0-0.9 0.1-1.7 0.2-0.9 0.6-1.5 0.4-0.6 1.1-1 0.6-0.4 1.6-0.4 0.6 0 1.1 0.2 0.5 0.2 0.9 0.7 0.4 0.4 0.6 1h-1.1q-0.2-0.5-0.6-0.7-0.5-0.2-1-0.2-0.5 0-0.9 0.2-0.4 0.2-0.7 0.5-0.2 0.4-0.4 0.8-0.2 0.5-0.2 1-0.1 0.4-0.1 0.9 0.3-0.4 0.6-0.7 0.4-0.3 0.8-0.4 0.5-0.1 0.9-0.1 0.9 0 1.5 0.3 0.6 0.4 1 1 0.3 0.6 0.3 1.4 0 0.8-0.4 1.5-0.3 0.6-1 0.9-0.7 0.4-1.5 0.4zm0-1q0.5 0 0.9-0.2 0.5-0.2 0.7-0.6 0.2-0.4 0.2-0.9 0-0.5-0.2-1-0.2-0.4-0.6-0.6-0.4-0.2-1-0.2-0.5 0-0.9 0.2-0.4 0.2-0.7 0.6-0.3 0.4-0.3 1 0 0.5 0.3 0.9 0.2 0.4 0.6 0.6 0.5 0.2 1 0.2zm5.2 0.9l5.3-8.5h1l-5.2 8.5zm5.6 0.1q-0.6 0-1-0.3-0.4-0.2-0.6-0.7-0.2-0.4-0.2-0.9 0-0.6 0.2-1 0.2-0.4 0.6-0.6 0.4-0.3 1-0.3 0.5 0 0.9 0.3 0.4 0.2 0.6 0.6 0.2 0.4 0.2 1 0 0.5-0.2 0.9-0.2 0.5-0.6 0.7-0.4 0.3-0.9 0.3zm-0.1-0.9q0.4 0 0.5-0.1 0.2-0.2 0.3-0.4 0.1-0.2 0.1-0.5 0-0.3-0.1-0.5-0.1-0.2-0.3-0.4-0.1-0.1-0.5-0.1-0.4 0-0.6 0.3-0.2 0.3-0.2 0.7 0 0.4 0.2 0.7 0.2 0.3 0.6 0.3zm-4.7-4q-0.6 0-1-0.3-0.4-0.2-0.6-0.6-0.2-0.5-0.2-1 0-0.6 0.2-1 0.2-0.4 0.6-0.6 0.4-0.3 1-0.3 0.6 0 0.9 0.3 0.4 0.2 0.6 0.6 0.2 0.4 0.2 1 0 0.5-0.2 1-0.2 0.4-0.6 0.6-0.3 0.3-0.9 0.3zm0-0.9q0.3 0 0.5-0.1 0.2-0.2 0.3-0.4 0-0.2 0-0.5 0-0.3 0-0.5-0.1-0.2-0.3-0.4-0.2-0.1-0.5-0.1-0.5 0-0.7 0.3-0.2 0.3-0.2 0.7 0 0.4 0.2 0.7 0.2 0.3 0.7 0.3zm8 8.2h-1.1q0.8-1.1 1.3-2.1 0.5-1 0.7-2 0.2-1 0.2-2 0-1.1-0.2-2.1-0.2-1-0.7-2-0.5-1-1.4-2.1h1.2q0.7 0.8 1.2 1.9 0.4 1.1 0.7 2.2 0.2 1.1 0.2 2.1 0 1-0.2 2.1-0.2 1.1-0.7 2.1-0.5 1.1-1.2 1.9z"/>
	<path fill-rule="evenodd" class="s4" d="m28 308c-2.2 0-4-1.8-4-4 0-2.2 1.8-4 4-4 2.2 0 4 1.8 4 4 0 2.2-1.8 4-4 4z"/>
	<path class="s2" d="m49.3 309.1q-1.5 0-2.5-0.6-1.1-0.7-1.6-1.8-0.6-1.2-0.6-2.6 0-1.5 0.6-2.7 0.5-1.1 1.6-1.8 1-0.6 2.6-0.6 1.5 0 2.6 0.6 1 0.7 1.5 1.8 0.6 1.2 0.6 2.6 0 1.5-0.6 2.6-0.5 1.2-1.6 1.9-1 0.6-2.6 0.6zm0.1-1.3q1.1 0 1.8-0.6 0.7-0.5 1-1.3 0.4-0.9 0.4-1.8 0-0.8-0.2-1.5-0.2-0.6-0.6-1.1-0.4-0.6-1-0.9-0.6-0.3-1.4-0.3-1.1 0-1.9 0.6-0.7 0.5-1 1.3-0.4 0.9-0.4 1.9 0 0.9 0.4 1.8 0.3 0.8 1 1.3 0.7 0.6 1.9 0.6zm9.3 1.2q-0.8 0-1.4-0.2-0.5-0.3-0.8-0.8-0.3-0.6-0.3-1.4v-3.7h-1.1v-1.3h1.1v-2.1h1.5v2.1h1.8v1.3h-1.8v3.5q0 0.7 0.2 1 0.3 0.3 1 0.3h0.6v1.3zm2.1 0v-9.9h1.4v3.6q0.3-0.4 0.7-0.7 0.4-0.2 0.8-0.4 0.5-0.1 0.9-0.1 1.1 0 1.7 0.5 0.6 0.4 0.9 1.2 0.2 0.8 0.2 1.7v4.1h-1.5v-3.7q0-0.5 0-0.9-0.1-0.4-0.2-0.8-0.2-0.4-0.6-0.6-0.3-0.2-0.9-0.2-0.5 0-0.9 0.2-0.4 0.3-0.6 0.7-0.3 0.4-0.4 0.9-0.1 0.4-0.1 0.9v3.5zm11.6 0.1q-1.1 0-1.9-0.5-0.8-0.5-1.2-1.3-0.4-0.9-0.4-2 0-1.1 0.4-1.9 0.4-0.9 1.2-1.4 0.8-0.5 1.9-0.5 0.9 0 1.5 0.3 0.7 0.4 1.1 0.9 0.4 0.5 0.6 1.2 0.2 0.6 0.1 1.3 0 0.2 0 0.3 0 0.2 0 0.3h-5.3q0 0.6 0.2 1 0.3 0.5 0.7 0.8 0.5 0.2 1.2 0.2 0.3 0 0.7 0 0.3-0.1 0.6-0.3 0.2-0.2 0.4-0.6h1.4q-0.2 0.8-0.6 1.3-0.5 0.4-1.2 0.7-0.6 0.2-1.4 0.2zm-2-4.4h3.9q0-0.6-0.2-1-0.3-0.4-0.7-0.7-0.4-0.2-1-0.2-0.6 0-1.1 0.2-0.4 0.3-0.6 0.7-0.3 0.5-0.3 1zm6.9 4.3v-7.4h1.3l0.1 1.1q0.3-0.4 0.6-0.7 0.4-0.3 0.8-0.4 0.5-0.1 0.9-0.1 0.2 0 0.3 0 0.1 0 0.2 0v1.4h-0.5q-0.8 0-1.3 0.3-0.5 0.4-0.8 0.9-0.2 0.6-0.2 1.3v3.6zm9.5 0v-9.9h1.5v9.9zm3.5 0v-7.4h1.4l0.1 1.1q0.3-0.4 0.7-0.7 0.3-0.2 0.8-0.4 0.4-0.1 0.9-0.1 1 0 1.6 0.5 0.6 0.4 0.9 1.2 0.3 0.8 0.3 1.7v4.1h-1.5v-3.8q0-0.4 0-0.9-0.1-0.4-0.3-0.7-0.2-0.4-0.5-0.6-0.3-0.2-0.8-0.2-0.7 0-1.2 0.4-0.4 0.3-0.7 1-0.2 0.6-0.2 1.3v3.5zm11.6 0.1q-1.2 0-2-0.5-0.8-0.5-1.1-1.3-0.4-0.9-0.4-2 0-1.1 0.4-1.9 0.4-0.9 1.2-1.4 0.8-0.5 2-0.5 0.8 0 1.4 0.3 0.6 0.3 1 0.8 0.4 0.5 0.6 1.3h-1.5q-0.2-0.6-0.6-0.8-0.4-0.3-1-0.3-0.8 0-1.2 0.4-0.5 0.4-0.7 0.9-0.2 0.6-0.2 1.2 0 0.7 0.2 1.2 0.2 0.6 0.7 1 0.5 0.3 1.2 0.3 0.6 0 1-0.2 0.5-0.3 0.7-0.9h1.4q-0.1 0.8-0.6 1.4-0.4 0.5-1.1 0.7-0.7 0.3-1.4 0.3zm7.9 0q-1.2 0-2-0.5-0.8-0.5-1.2-1.3-0.4-0.9-0.4-2 0-1.1 0.4-2 0.4-0.8 1.2-1.3 0.8-0.5 2-0.5 1.1 0 1.9 0.5 0.8 0.5 1.2 1.3 0.4 0.9 0.4 2 0 1.1-0.4 2-0.4 0.8-1.2 1.3-0.8 0.5-1.9 0.5zm0-1.3q0.7 0 1.2-0.3 0.4-0.4 0.7-0.9 0.2-0.6 0.2-1.3 0-0.7-0.2-1.2-0.3-0.6-0.7-0.9-0.5-0.4-1.2-0.4-0.8 0-1.3 0.4-0.4 0.3-0.7 0.9-0.2 0.5-0.2 1.2 0 0.7 0.2 1.3 0.3 0.5 0.7 0.9 0.5 0.3 1.3 0.3zm5 1.2v-7.4h1.4l0.1 0.9q0.2-0.4 0.5-0.6 0.4-0.2 0.7-0.3 0.4-0.1 0.8-0.1 0.7 0 1.2 0.3 0.5 0.3 0.7 0.9 0.3-0.4 0.6-0.7 0.4-0.2 0.8-0.4 0.4-0.1 0.8-0.1 0.9 0 1.4 0.4 0.5 0.3 0.7 0.9 0.3 0.6 0.3 1.4v4.8h-1.5v-4.2q0-0.3 0-0.7-0.1-0.3-0.2-0.6-0.1-0.3-0.4-0.5-0.2-0.2-0.7-0.2-0.4 0-0.7 0.2-0.3 0.2-0.5 0.5-0.1 0.4-0.2 0.7-0.1 0.4-0.1 0.8v4h-1.4v-4.2q0-0.3-0.1-0.7 0-0.3-0.1-0.6-0.1-0.3-0.4-0.5-0.2-0.2-0.7-0.2-0.6 0-0.9 0.4-0.4 0.3-0.5 0.8-0.1 0.5-0.1 1v4zm14.9 0.1q-1.2 0-2-0.5-0.8-0.5-1.2-1.3-0.4-0.9-0.4-2 0-1.1 0.4-1.9 0.5-0.9 1.2-1.4 0.8-0.5 2-0.5 0.8 0 1.5 0.3 0.6 0.4 1 0.9 0.4 0.5 0.6 1.2 0.2 0.6 0.2 1.3 0 0.2 0 0.3-0.1 0.2-0.1 0.3h-5.3q0 0.6 0.3 1 0.2 0.5 0.7 0.8 0.4 0.2 1.1 0.2 0.3 0 0.7 0 0.3-0.1 0.6-0.3 0.3-0.2 0.4-0.6h1.4q-0.1 0.8-0.6 1.3-0.5 0.4-1.1 0.7-0.7 0.2-1.4 0.2zm-2.1-4.4h3.9q0-0.6-0.2-1-0.2-0.4-0.7-0.7-0.4-0.2-1-0.2-0.6 0-1.1 0.2-0.4 0.3-0.6 0.7-0.2 0.5-0.3 1z"/>
	<path class="s2" d="m300.1 310.9v-1.8q-0.8-0.1-1.5-0.4-0.7-0.3-1.1-0.9-0.5-0.5-0.7-1.4h1.3q0.2 0.6 0.6 1 0.5 0.3 1.1 0.5 0.5 0.1 1.1 0.1 0.6 0 1.1-0.1 0.5-0.2 0.8-0.6 0.3-0.3 0.3-0.9 0-0.5-0.2-0.7-0.1-0.3-0.4-0.5-0.3-0.2-0.7-0.3-0.5-0.2-1.1-0.3-0.6-0.1-1.2-0.2-0.5-0.2-1-0.4-0.6-0.3-1-0.9-0.3-0.5-0.3-1.3 0-0.9 0.4-1.5 0.4-0.6 1.1-0.9 0.7-0.3 1.4-0.4v-1.8h1.3v1.8q0.7 0.1 1.3 0.4 0.6 0.3 1 0.9 0.3 0.5 0.4 1.3h-1.2q-0.1-0.6-0.4-0.9-0.3-0.3-0.8-0.5-0.5-0.1-1-0.1-0.5 0-1.1 0.1-0.5 0.2-0.8 0.5-0.4 0.3-0.4 0.9 0 0.4 0.2 0.7 0.1 0.3 0.3 0.5 0.2 0.1 0.5 0.3 0.7 0.2 1.5 0.4 0.8 0.1 1.6 0.4 0.6 0.2 1 0.5 0.4 0.3 0.6 0.7 0.2 0.5 0.2 1.1 0 1-0.4 1.6-0.4 0.6-1.1 0.9-0.7 0.3-1.5 0.4v1.8zm11.1-1.9v-2h-5.4v-0.9l4.9-7h1.7v6.8h1.2v1.1h-1.2v2zm-3.9-3.1h3.9v-5.7zm11.5 3.2q-1 0-1.8-0.4-0.7-0.4-1.2-1.1-0.4-0.7-0.6-1.6-0.3-0.9-0.3-2 0-1 0.3-1.9 0.2-1 0.6-1.6 0.5-0.7 1.2-1.1 0.8-0.4 1.8-0.4 1.1 0 1.9 0.4 0.7 0.4 1.1 1.2 0.5 0.7 0.7 1.6 0.2 0.9 0.2 1.8 0 1-0.2 1.9-0.2 0.9-0.7 1.6-0.4 0.7-1.1 1.2-0.8 0.4-1.9 0.4zm0-1.1q0.8 0 1.3-0.4 0.6-0.3 0.8-0.9 0.3-0.6 0.4-1.3 0.1-0.7 0.1-1.4 0-0.6-0.1-1.3-0.1-0.7-0.4-1.3-0.2-0.6-0.8-1-0.5-0.3-1.3-0.3-0.8 0-1.4 0.3-0.5 0.4-0.7 1-0.3 0.6-0.4 1.3-0.1 0.7-0.1 1.3 0 0.7 0.1 1.4 0.1 0.7 0.4 1.3 0.2 0.6 0.7 0.9 0.6 0.4 1.4 0.4zm5.7 2.7l-0.4-0.5q0.2-0.1 0.4-0.3 0.2-0.2 0.3-0.4 0.1-0.3 0.2-0.5-0.4 0-0.6-0.2-0.2-0.2-0.2-0.6 0-0.3 0.2-0.6 0.3-0.2 0.6-0.2 0.4 0 0.7 0.3 0.2 0.3 0.2 0.8 0 0.5-0.2 0.9-0.2 0.5-0.5 0.8-0.3 0.3-0.7 0.5zm3.8-1.7l4-8.8h-5.2v-1.1h6.5v1l-4 8.9zm9.7 0.1q-0.6 0-1.2-0.1-0.6-0.1-1.1-0.4-0.5-0.3-0.9-0.7-0.3-0.5-0.4-1.1h1.2q0.2 0.5 0.6 0.7 0.4 0.3 0.8 0.4 0.5 0.1 1 0.1 0.3 0 0.7-0.1 0.4 0 0.7-0.2 0.4-0.2 0.6-0.5 0.2-0.4 0.2-1 0-0.5-0.2-0.9-0.2-0.3-0.5-0.5-0.4-0.2-0.8-0.2-0.5-0.1-0.9-0.1h-0.9v-1.1h0.5q0.5 0 1-0.1 0.4-0.1 0.7-0.3 0.4-0.2 0.5-0.5 0.2-0.3 0.2-0.8 0-0.7-0.3-1-0.2-0.4-0.7-0.5-0.4-0.1-0.9-0.1-0.4 0-0.8 0.1-0.4 0.1-0.8 0.4-0.3 0.2-0.4 0.7h-1.2q0.1-0.6 0.4-1.1 0.3-0.4 0.7-0.7 0.5-0.3 1-0.4 0.6-0.1 1.2-0.1 0.6 0 1.2 0.1 0.5 0.1 0.9 0.5 0.5 0.2 0.7 0.7 0.2 0.5 0.2 1.2 0 0.5-0.1 1-0.2 0.4-0.5 0.7-0.3 0.4-0.8 0.6 0.6 0.1 1 0.4 0.4 0.3 0.7 0.8 0.2 0.5 0.2 1.1 0 1-0.4 1.5-0.3 0.6-0.8 1-0.6 0.3-1.2 0.4-0.6 0.1-1.1 0.1zm9 0q-1.1 0-1.8-0.4-0.7-0.4-1.2-1.1-0.5-0.7-0.7-1.6-0.2-0.9-0.2-2 0-1 0.2-1.9 0.2-1 0.7-1.6 0.4-0.7 1.2-1.1 0.7-0.4 1.8-0.4 1.1 0 1.8 0.4 0.8 0.4 1.2 1.2 0.5 0.7 0.6 1.6 0.2 0.9 0.2 1.8 0 1-0.2 1.9-0.1 0.9-0.6 1.6-0.4 0.7-1.2 1.2-0.7 0.4-1.8 0.4zm0-1.1q0.8 0 1.3-0.4 0.5-0.3 0.8-0.9 0.3-0.6 0.4-1.3 0.1-0.7 0.1-1.4 0-0.6-0.1-1.3-0.1-0.7-0.4-1.3-0.3-0.6-0.8-1-0.5-0.3-1.3-0.3-0.9 0-1.4 0.3-0.5 0.4-0.8 1-0.3 0.6-0.4 1.3-0.1 0.7-0.1 1.3 0 0.7 0.1 1.4 0.1 0.7 0.4 1.3 0.3 0.6 0.8 0.9 0.5 0.4 1.4 0.4zm6.1 1.1q-0.3 0-0.6-0.2-0.2-0.3-0.2-0.6 0-0.4 0.2-0.6 0.3-0.3 0.6-0.3 0.4 0 0.6 0.3 0.3 0.2 0.3 0.6 0 0.3-0.3 0.6-0.2 0.2-0.6 0.2zm2.8-0.1v-1l2.8-2.5q0.4-0.3 0.9-0.7 0.4-0.3 0.8-0.8 0.4-0.4 0.7-0.9 0.3-0.6 0.3-1.1 0-0.9-0.5-1.4-0.6-0.5-1.5-0.5-0.7 0-1.2 0.3-0.5 0.3-0.7 0.8h-1.3q0.1-0.7 0.6-1.2 0.5-0.5 1.2-0.8 0.7-0.2 1.5-0.2 0.9 0 1.6 0.3 0.7 0.4 1.1 1 0.4 0.6 0.4 1.5 0 1-0.3 1.6-0.4 0.7-0.9 1.3-0.6 0.5-1.2 1.1l-2.5 2.1h5v1.1zm12.2 0.1q-1 0-1.7-0.4-0.8-0.4-1.2-1.1-0.5-0.7-0.7-1.6-0.2-0.9-0.2-2 0-1 0.2-1.9 0.2-1 0.7-1.6 0.4-0.7 1.1-1.1 0.8-0.4 1.8-0.4 1.1 0 1.9 0.4 0.7 0.4 1.2 1.2 0.4 0.7 0.6 1.6 0.2 0.9 0.2 1.8 0 1-0.2 1.9-0.2 0.9-0.6 1.6-0.5 0.7-1.2 1.2-0.8 0.4-1.9 0.4zm0-1.1q0.9 0 1.4-0.4 0.5-0.3 0.8-0.9 0.2-0.6 0.3-1.3 0.1-0.7 0.1-1.4 0-0.6-0.1-1.3-0.1-0.7-0.3-1.3-0.3-0.6-0.8-1-0.5-0.3-1.4-0.3-0.8 0-1.3 0.3-0.5 0.4-0.8 1-0.3 0.6-0.4 1.3-0.1 0.7-0.1 1.3 0 0.7 0.1 1.4 0.1 0.7 0.4 1.3 0.3 0.6 0.8 0.9 0.5 0.4 1.3 0.4z"/>
	<path class="s11" d="m379.9 310q-0.7-0.8-1.2-1.9-0.4-1-0.7-2.1-0.2-1.1-0.2-2.1 0-1 0.2-2.1 0.3-1.1 0.8-2.2 0.4-1.1 1.2-1.9h1.1q-0.9 1.1-1.4 2.1-0.5 1-0.7 2-0.2 1-0.2 2.1 0 1 0.2 2 0.2 1 0.7 2 0.5 1 1.3 2.1zm4.3-2.4q-0.6 0-1.2-0.2-0.6-0.2-1-0.6-0.4-0.4-0.5-1.1h1.1q0.2 0.5 0.7 0.7 0.5 0.2 1 0.2 0.6 0 1.1-0.2 0.4-0.3 0.6-0.8 0.3-0.4 0.4-1 0.1-0.6 0.1-1.2 0-0.1 0-0.1 0-0.1 0-0.2-0.2 0.5-0.6 0.8-0.4 0.3-0.9 0.4-0.4 0.1-0.9 0.1-0.8 0-1.4-0.3-0.6-0.3-1-0.9-0.3-0.6-0.3-1.4 0-0.9 0.3-1.5 0.4-0.7 1.1-1 0.6-0.4 1.5-0.4 1 0 1.6 0.4 0.6 0.4 0.9 1.1 0.4 0.6 0.5 1.4 0.2 0.8 0.2 1.6 0 0.9-0.2 1.7-0.2 0.7-0.6 1.3-0.4 0.6-1 0.9-0.6 0.3-1.5 0.3zm0-4.2q0.6 0 1-0.2 0.4-0.2 0.7-0.6 0.2-0.4 0.2-0.9 0-0.5-0.2-0.9-0.3-0.5-0.7-0.7-0.4-0.2-0.9-0.2-0.6 0-1 0.2-0.4 0.2-0.6 0.7-0.3 0.4-0.3 0.9 0 0.8 0.5 1.3 0.5 0.4 1.3 0.4zm5.7 4.1l5.2-8.5h1l-5.2 8.5zm5.6 0.1q-0.6 0-1-0.3-0.4-0.2-0.6-0.7-0.2-0.4-0.2-0.9 0-0.6 0.2-1 0.2-0.4 0.6-0.6 0.4-0.3 1-0.3 0.5 0 0.9 0.3 0.4 0.2 0.6 0.6 0.2 0.4 0.2 1 0 0.5-0.2 0.9-0.2 0.5-0.6 0.7-0.4 0.3-0.9 0.3zm0-0.9q0.3 0 0.4-0.1 0.2-0.2 0.3-0.4 0.1-0.2 0.1-0.5 0-0.3-0.1-0.5-0.1-0.2-0.3-0.4-0.1-0.1-0.4-0.1-0.5 0-0.7 0.3-0.2 0.3-0.2 0.7 0 0.4 0.2 0.7 0.2 0.3 0.7 0.3zm-4.8-4q-0.6 0-1-0.3-0.3-0.2-0.5-0.6-0.2-0.5-0.2-1 0-0.6 0.2-1 0.2-0.4 0.6-0.6 0.3-0.3 0.9-0.3 0.6 0 1 0.3 0.3 0.2 0.5 0.6 0.2 0.4 0.2 1 0 0.5-0.2 1-0.2 0.4-0.5 0.6-0.4 0.3-1 0.3zm0-0.9q0.3 0 0.5-0.1 0.2-0.2 0.3-0.4 0.1-0.2 0.1-0.5 0-0.3-0.1-0.5-0.1-0.2-0.3-0.4-0.2-0.1-0.5-0.1-0.5 0-0.7 0.3-0.2 0.3-0.2 0.7 0 0.4 0.2 0.7 0.2 0.3 0.7 0.3zm8 8.2h-1.1q0.8-1.1 1.3-2.1 0.5-1 0.7-2 0.2-1 0.2-2 0-1.1-0.2-2.1-0.2-1-0.7-2-0.5-1-1.3-2.1h1.1q0.7 0.8 1.2 1.9 0.5 1.1 0.7 2.2 0.2 1.1 0.2 2.1 0 1-0.2 2.1-0.2 1.1-0.7 2.1-0.5 1.1-1.2 1.9z"/>
</svg>