<svg width="372" height="134" viewBox="0 0 372 134" fill="none" xmlns="http://www.w3.org/2000/svg">
<rect width="372" height="134" rx="16" fill="white"/>
<rect x="0.5" y="0.5" width="371" height="133" rx="15.5" stroke="#030E09" stroke-opacity="0.05"/>
<path d="M27.374 39V30.208H24.196V29.102H31.77V30.208H28.592V39H27.374ZM35.4594 39.084C34.6848 39.084 34.0361 38.9253 33.5134 38.608C32.9908 38.2813 32.5988 37.8333 32.3374 37.264C32.0854 36.6947 31.9594 36.046 31.9594 35.318C31.9594 34.5807 32.0901 33.932 32.3514 33.372C32.6128 32.8027 33.0048 32.3547 33.5274 32.028C34.0501 31.7013 34.7034 31.538 35.4874 31.538C36.2621 31.538 36.9061 31.7013 37.4194 32.028C37.9421 32.3547 38.3294 32.8027 38.5814 33.372C38.8428 33.932 38.9734 34.5807 38.9734 35.318C38.9734 36.046 38.8428 36.6947 38.5814 37.264C38.3201 37.8333 37.9281 38.2813 37.4054 38.608C36.8921 38.9253 36.2434 39.084 35.4594 39.084ZM35.4594 38.034C36.0008 38.034 36.4394 37.9127 36.7754 37.67C37.1208 37.4273 37.3728 37.1007 37.5314 36.69C37.6994 36.2793 37.7834 35.822 37.7834 35.318C37.7834 34.814 37.6994 34.3567 37.5314 33.946C37.3728 33.5353 37.1208 33.2087 36.7754 32.966C36.4394 32.7233 36.0008 32.602 35.4594 32.602C34.9274 32.602 34.4888 32.7233 34.1434 32.966C33.8074 33.2087 33.5554 33.5353 33.3874 33.946C33.2288 34.3567 33.1494 34.814 33.1494 35.318C33.1494 35.822 33.2288 36.2793 33.3874 36.69C33.5554 37.1007 33.8074 37.4273 34.1434 37.67C34.4888 37.9127 34.9274 38.034 35.4594 38.034ZM43.3656 39.084C42.5909 39.084 42.0449 38.874 41.7276 38.454C41.4196 38.034 41.2656 37.4367 41.2656 36.662V32.672H40.0616V31.622H41.2656V29.41H42.4556V31.622H44.7236V32.672H42.4556V36.508C42.4556 36.788 42.4789 37.0447 42.5256 37.278C42.5723 37.502 42.6703 37.684 42.8196 37.824C42.9689 37.9547 43.1929 38.0247 43.4916 38.034C43.7063 38.034 43.8929 37.9967 44.0516 37.922C44.2196 37.8473 44.3596 37.7587 44.4716 37.656L44.9896 38.524C44.8309 38.6547 44.6629 38.762 44.4856 38.846C44.3176 38.93 44.1403 38.9907 43.9536 39.028C43.7763 39.0653 43.5803 39.084 43.3656 39.084ZM48.5384 39.084C48.2024 39.084 47.8757 39.042 47.5584 38.958C47.2504 38.8647 46.9704 38.7293 46.7184 38.552C46.4757 38.3653 46.2797 38.1367 46.1304 37.866C45.9904 37.586 45.9204 37.264 45.9204 36.9C45.9204 36.48 45.9951 36.1253 46.1444 35.836C46.3031 35.5467 46.5131 35.318 46.7744 35.15C47.0357 34.982 47.3391 34.8607 47.6844 34.786C48.0297 34.7113 48.3891 34.674 48.7624 34.674H50.9324C50.9324 34.254 50.8717 33.89 50.7504 33.582C50.6384 33.274 50.4517 33.036 50.1904 32.868C49.9291 32.6907 49.5837 32.602 49.1544 32.602C48.8931 32.602 48.6504 32.63 48.4264 32.686C48.2024 32.742 48.0111 32.8307 47.8524 32.952C47.6937 33.0733 47.5771 33.2367 47.5024 33.442H46.2284C46.2937 33.106 46.4197 32.8213 46.6064 32.588C46.8024 32.3453 47.0357 32.1493 47.3064 32C47.5864 31.8413 47.8851 31.7247 48.2024 31.65C48.5197 31.5753 48.8371 31.538 49.1544 31.538C50.2184 31.538 50.9744 31.8507 51.4224 32.476C51.8704 33.1013 52.0944 33.946 52.0944 35.01V39H51.1004L51.0304 38.062C50.8251 38.342 50.5777 38.5567 50.2884 38.706C49.9991 38.8553 49.7004 38.9533 49.3924 39C49.0937 39.056 48.8091 39.084 48.5384 39.084ZM48.6504 38.034C49.1171 38.034 49.5184 37.9593 49.8544 37.81C50.1997 37.6513 50.4657 37.4227 50.6524 37.124C50.8391 36.8253 50.9324 36.4613 50.9324 36.032V35.668H49.6304C49.3224 35.668 49.0191 35.6727 48.7204 35.682C48.4217 35.6913 48.1511 35.7287 47.9084 35.794C47.6657 35.8593 47.4697 35.9713 47.3204 36.13C47.1804 36.2887 47.1104 36.5173 47.1104 36.816C47.1104 37.096 47.1804 37.3247 47.3204 37.502C47.4697 37.6793 47.6611 37.8147 47.8944 37.908C48.1371 37.992 48.3891 38.034 48.6504 38.034ZM53.966 39V29.102H55.156V39H53.966ZM63.546 39.084C63.21 39.084 62.8693 39.0513 62.524 38.986C62.188 38.9207 61.8706 38.8087 61.572 38.65C61.2826 38.4913 61.04 38.2767 60.844 38.006C60.648 37.7353 60.522 37.3993 60.466 36.998H61.67C61.7633 37.25 61.9126 37.4553 62.118 37.614C62.3326 37.7633 62.5706 37.8707 62.832 37.936C63.1026 38.0013 63.3593 38.034 63.602 38.034C63.7513 38.034 63.924 38.0247 64.12 38.006C64.316 37.9873 64.5026 37.9453 64.68 37.88C64.8666 37.8053 65.016 37.698 65.128 37.558C65.2493 37.418 65.31 37.222 65.31 36.97C65.31 36.7833 65.268 36.6293 65.184 36.508C65.1 36.3867 64.9833 36.2887 64.834 36.214C64.6846 36.13 64.5026 36.0693 64.288 36.032C63.8493 35.9387 63.378 35.85 62.874 35.766C62.3793 35.682 61.9406 35.5233 61.558 35.29C61.4273 35.206 61.306 35.1127 61.194 35.01C61.0913 34.898 61.0026 34.7767 60.928 34.646C60.8533 34.506 60.7926 34.3567 60.746 34.198C60.7086 34.03 60.69 33.848 60.69 33.652C60.69 33.288 60.76 32.9753 60.9 32.714C61.0493 32.4433 61.2546 32.224 61.516 32.056C61.7773 31.8787 62.076 31.748 62.412 31.664C62.7573 31.58 63.126 31.538 63.518 31.538C64.0033 31.538 64.4373 31.6173 64.82 31.776C65.212 31.9253 65.534 32.1493 65.786 32.448C66.038 32.7373 66.1873 33.0967 66.234 33.526H65.128C65.0626 33.2553 64.8853 33.036 64.596 32.868C64.3066 32.6907 63.938 32.602 63.49 32.602C63.3406 32.602 63.1726 32.616 62.986 32.644C62.7993 32.6627 62.622 32.7093 62.454 32.784C62.286 32.8493 62.146 32.952 62.034 33.092C61.922 33.2227 61.866 33.4 61.866 33.624C61.866 33.8293 61.9173 34.002 62.02 34.142C62.132 34.282 62.286 34.394 62.482 34.478C62.678 34.562 62.902 34.632 63.154 34.688C63.4806 34.7533 63.84 34.8233 64.232 34.898C64.624 34.9633 64.932 35.0333 65.156 35.108C65.4546 35.2013 65.702 35.332 65.898 35.5C66.1033 35.668 66.2526 35.8687 66.346 36.102C66.4486 36.3353 66.5 36.606 66.5 36.914C66.5 37.3527 66.4113 37.712 66.234 37.992C66.066 38.272 65.8373 38.4913 65.548 38.65C65.2586 38.8087 64.9366 38.9207 64.582 38.986C64.2366 39.0513 63.8913 39.084 63.546 39.084ZM70.375 39.084C70.039 39.084 69.7123 39.042 69.395 38.958C69.087 38.8647 68.807 38.7293 68.555 38.552C68.3123 38.3653 68.1163 38.1367 67.967 37.866C67.827 37.586 67.757 37.264 67.757 36.9C67.757 36.48 67.8317 36.1253 67.981 35.836C68.1397 35.5467 68.3497 35.318 68.611 35.15C68.8723 34.982 69.1757 34.8607 69.521 34.786C69.8663 34.7113 70.2257 34.674 70.599 34.674H72.769C72.769 34.254 72.7083 33.89 72.587 33.582C72.475 33.274 72.2883 33.036 72.027 32.868C71.7657 32.6907 71.4203 32.602 70.991 32.602C70.7297 32.602 70.487 32.63 70.263 32.686C70.039 32.742 69.8477 32.8307 69.689 32.952C69.5303 33.0733 69.4137 33.2367 69.339 33.442H68.065C68.1303 33.106 68.2563 32.8213 68.443 32.588C68.639 32.3453 68.8723 32.1493 69.143 32C69.423 31.8413 69.7217 31.7247 70.039 31.65C70.3563 31.5753 70.6737 31.538 70.991 31.538C72.055 31.538 72.811 31.8507 73.259 32.476C73.707 33.1013 73.931 33.946 73.931 35.01V39H72.937L72.867 38.062C72.6617 38.342 72.4143 38.5567 72.125 38.706C71.8357 38.8553 71.537 38.9533 71.229 39C70.9303 39.056 70.6457 39.084 70.375 39.084ZM70.487 38.034C70.9537 38.034 71.355 37.9593 71.691 37.81C72.0363 37.6513 72.3023 37.4227 72.489 37.124C72.6757 36.8253 72.769 36.4613 72.769 36.032V35.668H71.467C71.159 35.668 70.8557 35.6727 70.557 35.682C70.2583 35.6913 69.9877 35.7287 69.745 35.794C69.5023 35.8593 69.3063 35.9713 69.157 36.13C69.017 36.2887 68.947 36.5173 68.947 36.816C68.947 37.096 69.017 37.3247 69.157 37.502C69.3063 37.6793 69.4977 37.8147 69.731 37.908C69.9737 37.992 70.2257 38.034 70.487 38.034ZM75.8026 39V29.102H76.9926V39H75.8026ZM82.0851 39.084C81.3011 39.084 80.6525 38.9253 80.1391 38.608C79.6258 38.2813 79.2431 37.8333 78.9911 37.264C78.7391 36.6947 78.6131 36.046 78.6131 35.318C78.6131 34.5807 78.7438 33.932 79.0051 33.372C79.2758 32.8027 79.6678 32.3547 80.1811 32.028C80.6945 31.7013 81.3245 31.538 82.0711 31.538C82.6498 31.538 83.1445 31.65 83.5551 31.874C83.9751 32.0887 84.3205 32.378 84.5911 32.742C84.8618 33.106 85.0578 33.5073 85.1791 33.946C85.3005 34.3753 85.3518 34.8093 85.3331 35.248C85.3238 35.332 85.3145 35.416 85.3051 35.5C85.3051 35.584 85.3005 35.668 85.2911 35.752H79.8171C79.8545 36.1813 79.9618 36.5687 80.1391 36.914C80.3165 37.2593 80.5685 37.5347 80.8951 37.74C81.2218 37.936 81.6278 38.034 82.1131 38.034C82.3558 38.034 82.5985 38.006 82.8411 37.95C83.0931 37.8847 83.3171 37.7773 83.5131 37.628C83.7185 37.4787 83.8631 37.278 83.9471 37.026H85.1651C85.0531 37.502 84.8431 37.894 84.5351 38.202C84.2271 38.5007 83.8585 38.7247 83.4291 38.874C82.9998 39.014 82.5518 39.084 82.0851 39.084ZM79.8451 34.716H84.1151C84.1058 34.296 84.0125 33.9273 83.8351 33.61C83.6578 33.2927 83.4151 33.0453 83.1071 32.868C82.8085 32.6907 82.4491 32.602 82.0291 32.602C81.5718 32.602 81.1845 32.7 80.8671 32.896C80.5591 33.092 80.3211 33.3487 80.1531 33.666C79.9851 33.9833 79.8825 34.3333 79.8451 34.716ZM89.6345 39.084C89.2985 39.084 88.9578 39.0513 88.6125 38.986C88.2765 38.9207 87.9592 38.8087 87.6605 38.65C87.3712 38.4913 87.1285 38.2767 86.9325 38.006C86.7365 37.7353 86.6105 37.3993 86.5545 36.998H87.7585C87.8518 37.25 88.0012 37.4553 88.2065 37.614C88.4212 37.7633 88.6592 37.8707 88.9205 37.936C89.1912 38.0013 89.4478 38.034 89.6905 38.034C89.8398 38.034 90.0125 38.0247 90.2085 38.006C90.4045 37.9873 90.5912 37.9453 90.7685 37.88C90.9552 37.8053 91.1045 37.698 91.2165 37.558C91.3378 37.418 91.3985 37.222 91.3985 36.97C91.3985 36.7833 91.3565 36.6293 91.2725 36.508C91.1885 36.3867 91.0718 36.2887 90.9225 36.214C90.7732 36.13 90.5912 36.0693 90.3765 36.032C89.9378 35.9387 89.4665 35.85 88.9625 35.766C88.4678 35.682 88.0292 35.5233 87.6465 35.29C87.5158 35.206 87.3945 35.1127 87.2825 35.01C87.1798 34.898 87.0912 34.7767 87.0165 34.646C86.9418 34.506 86.8812 34.3567 86.8345 34.198C86.7972 34.03 86.7785 33.848 86.7785 33.652C86.7785 33.288 86.8485 32.9753 86.9885 32.714C87.1378 32.4433 87.3432 32.224 87.6045 32.056C87.8658 31.8787 88.1645 31.748 88.5005 31.664C88.8458 31.58 89.2145 31.538 89.6065 31.538C90.0918 31.538 90.5258 31.6173 90.9085 31.776C91.3005 31.9253 91.6225 32.1493 91.8745 32.448C92.1265 32.7373 92.2758 33.0967 92.3225 33.526H91.2165C91.1512 33.2553 90.9738 33.036 90.6845 32.868C90.3952 32.6907 90.0265 32.602 89.5785 32.602C89.4292 32.602 89.2612 32.616 89.0745 32.644C88.8878 32.6627 88.7105 32.7093 88.5425 32.784C88.3745 32.8493 88.2345 32.952 88.1225 33.092C88.0105 33.2227 87.9545 33.4 87.9545 33.624C87.9545 33.8293 88.0058 34.002 88.1085 34.142C88.2205 34.282 88.3745 34.394 88.5705 34.478C88.7665 34.562 88.9905 34.632 89.2425 34.688C89.5692 34.7533 89.9285 34.8233 90.3205 34.898C90.7125 34.9633 91.0205 35.0333 91.2445 35.108C91.5432 35.2013 91.7905 35.332 91.9865 35.5C92.1918 35.668 92.3412 35.8687 92.4345 36.102C92.5372 36.3353 92.5885 36.606 92.5885 36.914C92.5885 37.3527 92.4998 37.712 92.3225 37.992C92.1545 38.272 91.9258 38.4913 91.6365 38.65C91.3472 38.8087 91.0252 38.9207 90.6705 38.986C90.3252 39.0513 89.9798 39.084 89.6345 39.084Z" fill="#030E09" fill-opacity="0.6"/>
<path d="M30.624 78.36V75.024C29.728 74.896 28.896 74.64 28.128 74.256C27.36 73.872 26.72 73.336 26.208 72.648C25.712 71.944 25.384 71.072 25.224 70.032H28.272C28.464 70.656 28.768 71.144 29.184 71.496C29.616 71.848 30.112 72.096 30.672 72.24C31.248 72.384 31.84 72.456 32.448 72.456C33.008 72.456 33.52 72.384 33.984 72.24C34.464 72.096 34.848 71.864 35.136 71.544C35.44 71.224 35.592 70.816 35.592 70.32C35.592 69.904 35.496 69.568 35.304 69.312C35.128 69.056 34.88 68.848 34.56 68.688C34.256 68.528 33.896 68.392 33.48 68.28C32.84 68.088 32.216 67.936 31.608 67.824C31.016 67.696 30.448 67.56 29.904 67.416C29.376 67.272 28.872 67.088 28.392 66.864C27.608 66.48 26.976 65.968 26.496 65.328C26.032 64.688 25.8 63.808 25.8 62.688C25.8 61.68 26.032 60.84 26.496 60.168C26.96 59.48 27.568 58.952 28.32 58.584C29.072 58.2 29.88 57.976 30.744 57.912V54.624H33.552V57.96C34.416 58.056 35.192 58.304 35.88 58.704C36.568 59.104 37.12 59.648 37.536 60.336C37.952 61.008 38.168 61.824 38.184 62.784H35.256C35.208 62.256 35.024 61.824 34.704 61.488C34.4 61.152 34.008 60.912 33.528 60.768C33.048 60.608 32.52 60.528 31.944 60.528C31.448 60.528 30.952 60.592 30.456 60.72C29.976 60.832 29.576 61.04 29.256 61.344C28.952 61.632 28.8 62.048 28.8 62.592C28.8 62.928 28.88 63.232 29.04 63.504C29.2 63.76 29.416 63.976 29.688 64.152C29.96 64.328 30.272 64.472 30.624 64.584C31.216 64.808 31.872 64.992 32.592 65.136C33.312 65.28 33.984 65.448 34.608 65.64C35.424 65.864 36.128 66.144 36.72 66.48C37.328 66.8 37.792 67.24 38.112 67.8C38.448 68.344 38.616 69.056 38.616 69.936C38.616 71.056 38.384 71.976 37.92 72.696C37.456 73.416 36.832 73.976 36.048 74.376C35.264 74.776 34.392 75.016 33.432 75.096V78.36H30.624ZM49.5632 75V71.784H40.7312V69.528L48.7472 58.032H52.5152V69.072H54.4592V71.784H52.5152V75H49.5632ZM44.1872 69.072H49.5632V61.176L44.1872 69.072ZM62.5416 75.192C61.7896 75.192 61.0776 75.104 60.4056 74.928C59.7336 74.736 59.1256 74.448 58.5816 74.064C58.0376 73.68 57.5816 73.192 57.2136 72.6C56.8616 71.992 56.6216 71.28 56.4936 70.464H59.4456C59.5736 70.816 59.7816 71.144 60.0696 71.448C60.3736 71.752 60.7336 71.992 61.1496 72.168C61.5816 72.344 62.0456 72.432 62.5416 72.432C63.2136 72.432 63.7896 72.32 64.2696 72.096C64.7496 71.856 65.1256 71.52 65.3976 71.088C65.6696 70.64 65.8056 70.104 65.8056 69.48C65.8056 68.552 65.5176 67.824 64.9416 67.296C64.3816 66.768 63.6136 66.504 62.6376 66.504C62.0616 66.504 61.5256 66.608 61.0296 66.816C60.5336 67.008 60.0696 67.28 59.6376 67.632H56.9736L57.4296 58.032H68.2536V60.768H60.1896L59.9016 64.824C60.3816 64.488 60.9336 64.24 61.5576 64.08C62.1816 63.904 62.8616 63.824 63.5976 63.84C64.6856 63.856 65.6216 64.096 66.4056 64.56C67.2056 65.008 67.8136 65.632 68.2296 66.432C68.6456 67.232 68.8536 68.176 68.8536 69.264C68.8536 70.528 68.5736 71.6 68.0136 72.48C67.4696 73.36 66.7176 74.032 65.7576 74.496C64.8136 74.96 63.7416 75.192 62.5416 75.192ZM72.2672 78.432L71.4272 77.16C71.6672 77.032 71.9152 76.848 72.1712 76.608C72.4272 76.384 72.6592 76.128 72.8672 75.84C73.0912 75.568 73.2432 75.32 73.3232 75.096C72.8592 75.048 72.4592 74.88 72.1232 74.592C71.8032 74.288 71.6432 73.864 71.6432 73.32C71.6432 72.76 71.8352 72.32 72.2192 72C72.6032 71.68 73.0352 71.52 73.5152 71.52C74.1232 71.52 74.6032 71.752 74.9552 72.216C75.3072 72.664 75.4832 73.256 75.4832 73.992C75.4832 74.648 75.3232 75.28 75.0032 75.888C74.6992 76.496 74.2992 77.024 73.8032 77.472C73.3232 77.92 72.8112 78.24 72.2672 78.432ZM84.1253 75.192C83.3733 75.192 82.6293 75.104 81.8933 74.928C81.1573 74.752 80.4853 74.48 79.8773 74.112C79.2693 73.728 78.7573 73.232 78.3413 72.624C77.9413 72.016 77.6853 71.28 77.5733 70.416H80.5493C80.6933 70.912 80.9493 71.304 81.3173 71.592C81.7013 71.88 82.1413 72.096 82.6373 72.24C83.1333 72.368 83.6373 72.432 84.1493 72.432C84.5173 72.432 84.8853 72.4 85.2533 72.336C85.6213 72.272 85.9653 72.152 86.2853 71.976C86.6053 71.8 86.8613 71.552 87.0533 71.232C87.2453 70.912 87.3413 70.496 87.3413 69.984C87.3413 69.52 87.2533 69.136 87.0773 68.832C86.9173 68.528 86.6853 68.296 86.3813 68.136C86.0933 67.96 85.7573 67.84 85.3733 67.776C85.0053 67.696 84.6133 67.656 84.1973 67.656H82.3253V65.088H83.5493C84.0133 65.088 84.4373 65.04 84.8213 64.944C85.2053 64.848 85.5413 64.712 85.8293 64.536C86.1173 64.344 86.3333 64.104 86.4773 63.816C86.6373 63.528 86.7173 63.184 86.7173 62.784C86.7173 62.208 86.5893 61.76 86.3333 61.44C86.0933 61.12 85.7653 60.896 85.3493 60.768C84.9333 60.624 84.4773 60.552 83.9813 60.552C83.5333 60.552 83.1013 60.624 82.6853 60.768C82.2693 60.896 81.9093 61.096 81.6053 61.368C81.3013 61.64 81.1093 61.984 81.0293 62.4H78.1013C78.1973 61.6 78.4293 60.912 78.7973 60.336C79.1653 59.76 79.6213 59.288 80.1653 58.92C80.7253 58.536 81.3493 58.256 82.0373 58.08C82.7253 57.904 83.4373 57.816 84.1733 57.816C84.8933 57.816 85.5813 57.896 86.2373 58.056C86.9093 58.216 87.5013 58.48 88.0133 58.848C88.5253 59.2 88.9333 59.664 89.2373 60.24C89.5413 60.816 89.6933 61.52 89.6933 62.352C89.6933 62.88 89.6053 63.376 89.4293 63.84C89.2533 64.304 88.9973 64.712 88.6613 65.064C88.3413 65.416 87.9493 65.704 87.4853 65.928C88.1253 66.104 88.6613 66.392 89.0933 66.792C89.5253 67.176 89.8453 67.64 90.0533 68.184C90.2773 68.728 90.3893 69.328 90.3893 69.984C90.3893 71.008 90.1973 71.864 89.8133 72.552C89.4453 73.224 88.9493 73.752 88.3253 74.136C87.7173 74.52 87.0453 74.792 86.3093 74.952C85.5733 75.112 84.8453 75.192 84.1253 75.192ZM92.1988 75V72.528L96.9268 68.544C97.3108 68.224 97.7348 67.872 98.1988 67.488C98.6628 67.104 99.1028 66.688 99.5188 66.24C99.9508 65.776 100.311 65.296 100.599 64.8C100.887 64.304 101.031 63.784 101.031 63.24C101.031 62.424 100.783 61.784 100.287 61.32C99.8068 60.856 99.1188 60.624 98.2228 60.624C97.4388 60.624 96.7988 60.792 96.3028 61.128C95.8068 61.464 95.4948 61.92 95.3668 62.496H92.4148C92.5268 61.424 92.8708 60.552 93.4468 59.88C94.0388 59.192 94.7668 58.68 95.6308 58.344C96.4948 57.992 97.3988 57.816 98.3428 57.816C99.4148 57.816 100.375 58.016 101.223 58.416C102.071 58.8 102.743 59.376 103.239 60.144C103.751 60.896 104.007 61.816 104.007 62.904C104.007 63.88 103.815 64.76 103.431 65.544C103.063 66.328 102.559 67.048 101.919 67.704C101.295 68.344 100.607 68.976 99.8548 69.6L96.6148 72.264H104.055V75H92.1988ZM113.091 75.192C111.859 75.192 110.811 74.976 109.947 74.544C109.083 74.096 108.387 73.472 107.859 72.672C107.331 71.872 106.939 70.952 106.683 69.912C106.443 68.872 106.323 67.752 106.323 66.552C106.323 65.336 106.443 64.2 106.683 63.144C106.939 62.088 107.331 61.168 107.859 60.384C108.403 59.584 109.107 58.96 109.971 58.512C110.835 58.048 111.883 57.816 113.115 57.816C114.379 57.816 115.443 58.056 116.307 58.536C117.187 59.016 117.883 59.664 118.395 60.48C118.923 61.296 119.299 62.224 119.523 63.264C119.763 64.304 119.883 65.392 119.883 66.528C119.883 67.648 119.763 68.728 119.523 69.768C119.299 70.808 118.923 71.736 118.395 72.552C117.867 73.368 117.163 74.016 116.283 74.496C115.419 74.96 114.355 75.192 113.091 75.192ZM113.091 72.456C113.907 72.456 114.563 72.264 115.059 71.88C115.571 71.496 115.955 71.008 116.211 70.416C116.467 69.808 116.635 69.16 116.715 68.472C116.811 67.784 116.859 67.136 116.859 66.528C116.859 65.92 116.819 65.28 116.739 64.608C116.659 63.92 116.491 63.272 116.235 62.664C115.979 62.056 115.603 61.56 115.107 61.176C114.611 60.792 113.947 60.6 113.115 60.6C112.283 60.6 111.611 60.792 111.099 61.176C110.603 61.56 110.227 62.056 109.971 62.664C109.715 63.256 109.539 63.896 109.443 64.584C109.363 65.272 109.323 65.92 109.323 66.528C109.323 67.136 109.363 67.784 109.443 68.472C109.523 69.144 109.683 69.784 109.923 70.392C110.179 71 110.555 71.496 111.051 71.88C111.563 72.264 112.243 72.456 113.091 72.456ZM124.069 75.288C123.557 75.288 123.117 75.12 122.749 74.784C122.397 74.448 122.221 73.992 122.221 73.416C122.221 72.84 122.405 72.384 122.773 72.048C123.141 71.696 123.581 71.52 124.093 71.52C124.605 71.52 125.037 71.696 125.389 72.048C125.741 72.384 125.917 72.84 125.917 73.416C125.917 73.992 125.741 74.448 125.389 74.784C125.037 75.12 124.597 75.288 124.069 75.288ZM129.264 75L135.888 60.792H127.488V58.032H139.248V60.288L132.6 75H129.264ZM146.995 75.192C146.243 75.192 145.531 75.104 144.859 74.928C144.187 74.736 143.579 74.448 143.035 74.064C142.491 73.68 142.035 73.192 141.667 72.6C141.315 71.992 141.075 71.28 140.947 70.464H143.899C144.027 70.816 144.235 71.144 144.523 71.448C144.827 71.752 145.187 71.992 145.603 72.168C146.035 72.344 146.499 72.432 146.995 72.432C147.667 72.432 148.243 72.32 148.723 72.096C149.203 71.856 149.579 71.52 149.851 71.088C150.123 70.64 150.259 70.104 150.259 69.48C150.259 68.552 149.971 67.824 149.395 67.296C148.835 66.768 148.067 66.504 147.091 66.504C146.515 66.504 145.979 66.608 145.483 66.816C144.987 67.008 144.523 67.28 144.091 67.632H141.427L141.883 58.032H152.707V60.768H144.643L144.355 64.824C144.835 64.488 145.387 64.24 146.011 64.08C146.635 63.904 147.315 63.824 148.051 63.84C149.139 63.856 150.075 64.096 150.859 64.56C151.659 65.008 152.267 65.632 152.683 66.432C153.099 67.232 153.307 68.176 153.307 69.264C153.307 70.528 153.027 71.6 152.467 72.48C151.923 73.36 151.171 74.032 150.211 74.496C149.267 74.96 148.195 75.192 146.995 75.192Z" fill="#030E09"/>
<path d="M27.304 102.76V100.59H25.246V99.512H27.304V97.342H28.396V99.512H30.468V100.59H28.396V102.76H27.304ZM35.7993 106.932V105.07C35.2766 105.014 34.7866 104.888 34.3293 104.692C33.8813 104.496 33.4986 104.211 33.1813 103.838C32.8733 103.455 32.6633 102.979 32.5513 102.41H33.8253C33.9559 102.83 34.1659 103.157 34.4553 103.39C34.7539 103.623 35.0946 103.787 35.4773 103.88C35.8599 103.964 36.2426 104.006 36.6253 104.006C37.0079 104.006 37.3626 103.955 37.6893 103.852C38.0253 103.74 38.2959 103.563 38.5013 103.32C38.7159 103.077 38.8233 102.765 38.8233 102.382C38.8233 102.083 38.7673 101.841 38.6553 101.654C38.5526 101.467 38.4033 101.318 38.2073 101.206C38.0206 101.085 37.7966 100.987 37.5353 100.912C37.1899 100.8 36.8213 100.711 36.4293 100.646C36.0373 100.571 35.6499 100.487 35.2673 100.394C34.8939 100.291 34.5439 100.156 34.2173 99.988C33.8253 99.7733 33.5079 99.4887 33.2653 99.134C33.0226 98.7793 32.9013 98.322 32.9013 97.762C32.9013 97.1553 33.0366 96.656 33.3073 96.264C33.5873 95.872 33.9513 95.5733 34.3993 95.368C34.8566 95.1627 35.3466 95.0413 35.8693 95.004V93.184H37.1013V95.032C37.5959 95.0787 38.0393 95.2093 38.4313 95.424C38.8326 95.6293 39.1546 95.914 39.3973 96.278C39.6399 96.642 39.7706 97.0947 39.7893 97.636H38.5993C38.5526 97.244 38.4219 96.936 38.2073 96.712C37.9926 96.488 37.7266 96.3293 37.4093 96.236C37.0919 96.1427 36.7559 96.096 36.4013 96.096C36.0559 96.096 35.7106 96.1427 35.3653 96.236C35.0199 96.32 34.7306 96.474 34.4973 96.698C34.2733 96.922 34.1613 97.2393 34.1613 97.65C34.1613 97.8927 34.2033 98.1073 34.2873 98.294C34.3806 98.4807 34.5019 98.6347 34.6513 98.756C34.8006 98.8773 34.9686 98.98 35.1553 99.064C35.6033 99.2507 36.0979 99.3953 36.6393 99.498C37.1899 99.5913 37.7079 99.7173 38.1933 99.876C38.5853 99.9973 38.9213 100.161 39.2013 100.366C39.4813 100.562 39.6959 100.814 39.8453 101.122C39.9946 101.421 40.0693 101.785 40.0693 102.214C40.0693 102.849 39.9293 103.371 39.6493 103.782C39.3786 104.193 39.0146 104.505 38.5573 104.72C38.0999 104.935 37.5866 105.061 37.0173 105.098V106.932H35.7993ZM43.3068 105V97.062H41.2908V96.236C41.6641 96.208 41.9954 96.166 42.2848 96.11C42.5741 96.0447 42.8308 95.9373 43.0548 95.788C43.2881 95.6293 43.4934 95.4007 43.6708 95.102H44.5248V105H43.3068ZM47.3287 106.694L46.9927 106.232C47.1234 106.139 47.2447 106.027 47.3567 105.896C47.4687 105.765 47.5667 105.625 47.6507 105.476C47.744 105.327 47.8094 105.177 47.8467 105.028C47.604 105.009 47.408 104.93 47.2587 104.79C47.1094 104.65 47.0347 104.463 47.0347 104.23C47.044 103.987 47.128 103.796 47.2867 103.656C47.4547 103.507 47.646 103.432 47.8607 103.432C48.1314 103.432 48.346 103.53 48.5047 103.726C48.6727 103.922 48.7567 104.197 48.7567 104.552C48.7567 104.832 48.6867 105.121 48.5467 105.42C48.416 105.719 48.2434 105.98 48.0287 106.204C47.814 106.437 47.5807 106.601 47.3287 106.694ZM55.6971 105V103.026H50.3211V102.116L55.1651 95.102H56.9151V101.92H58.0771V103.026H56.9151V105H55.6971ZM51.7911 101.92H55.6971V96.208L51.7911 101.92ZM60.0205 105L64.0245 96.222H58.7885V95.102H65.3685V96.11L61.3645 105H60.0205ZM70.3788 105.112C69.6882 105.112 69.0955 104.986 68.6008 104.734C68.1155 104.473 67.7188 104.113 67.4108 103.656C67.1028 103.189 66.8742 102.653 66.7248 102.046C66.5848 101.43 66.5148 100.767 66.5148 100.058C66.5148 99.3487 66.5848 98.6907 66.7248 98.084C66.8648 97.468 67.0888 96.9313 67.3968 96.474C67.7048 96.0073 68.1015 95.6433 68.5868 95.382C69.0815 95.1207 69.6788 94.99 70.3788 94.99C71.1162 94.99 71.7322 95.1347 72.2268 95.424C72.7308 95.704 73.1275 96.0867 73.4168 96.572C73.7155 97.0573 73.9255 97.6033 74.0468 98.21C74.1775 98.8073 74.2428 99.4233 74.2428 100.058C74.2428 100.693 74.1775 101.313 74.0468 101.92C73.9255 102.517 73.7155 103.059 73.4168 103.544C73.1275 104.02 72.7308 104.403 72.2268 104.692C71.7322 104.972 71.1162 105.112 70.3788 105.112ZM70.3788 104.006C70.9295 104.006 71.3728 103.889 71.7088 103.656C72.0542 103.413 72.3202 103.096 72.5068 102.704C72.6935 102.312 72.8195 101.887 72.8848 101.43C72.9502 100.963 72.9828 100.506 72.9828 100.058C72.9828 99.6193 72.9502 99.1713 72.8848 98.714C72.8195 98.2473 72.6935 97.818 72.5068 97.426C72.3202 97.0247 72.0542 96.7027 71.7088 96.46C71.3728 96.2173 70.9295 96.096 70.3788 96.096C69.8188 96.096 69.3662 96.2173 69.0208 96.46C68.6755 96.7027 68.4095 97.0247 68.2228 97.426C68.0455 97.818 67.9242 98.2473 67.8588 98.714C67.7935 99.1713 67.7608 99.6193 67.7608 100.058C67.7608 100.506 67.7935 100.963 67.8588 101.43C67.9242 101.887 68.0455 102.312 68.2228 102.704C68.4095 103.096 68.6755 103.413 69.0208 103.656C69.3662 103.889 69.8188 104.006 70.3788 104.006Z" fill="#030E09" fill-opacity="0.6"/>
<rect x="84" y="90" width="45" height="20" rx="10" fill="#93D973" fill-opacity="0.15"/>
<path d="M94.82 101.688V99.804H93.02V98.676H94.82V96.792H95.948V98.676H97.76V99.804H95.948V101.688H94.82ZM100.753 103.5V96.888H99.0494V95.988C99.3694 95.964 99.6574 95.928 99.9134 95.88C100.169 95.824 100.397 95.732 100.597 95.604C100.797 95.468 100.973 95.272 101.125 95.016H102.025V103.5H100.753ZM107.018 103.596C106.626 103.596 106.246 103.552 105.878 103.464C105.51 103.376 105.178 103.236 104.882 103.044C104.594 102.844 104.362 102.584 104.186 102.264C104.01 101.944 103.922 101.552 103.922 101.088C103.922 100.768 103.974 100.48 104.078 100.224C104.182 99.96 104.334 99.732 104.534 99.54C104.742 99.348 104.982 99.196 105.254 99.084C104.974 98.932 104.754 98.752 104.594 98.544C104.434 98.328 104.326 98.1 104.27 97.86C104.214 97.62 104.186 97.392 104.186 97.176C104.186 96.768 104.266 96.424 104.426 96.144C104.586 95.856 104.802 95.624 105.074 95.448C105.346 95.264 105.65 95.132 105.986 95.052C106.322 94.964 106.67 94.92 107.03 94.92C107.382 94.92 107.726 94.964 108.062 95.052C108.398 95.132 108.702 95.264 108.974 95.448C109.246 95.632 109.462 95.868 109.622 96.156C109.782 96.444 109.862 96.792 109.862 97.2C109.862 97.408 109.83 97.628 109.766 97.86C109.71 98.092 109.602 98.312 109.442 98.52C109.282 98.728 109.058 98.904 108.77 99.048C109.058 99.16 109.302 99.316 109.502 99.516C109.71 99.716 109.866 99.948 109.97 100.212C110.074 100.476 110.126 100.772 110.126 101.1C110.126 101.556 110.038 101.944 109.862 102.264C109.686 102.584 109.446 102.844 109.142 103.044C108.846 103.236 108.514 103.376 108.146 103.464C107.786 103.552 107.41 103.596 107.018 103.596ZM107.018 102.444C107.21 102.444 107.41 102.424 107.618 102.384C107.826 102.344 108.022 102.276 108.206 102.18C108.39 102.076 108.538 101.936 108.65 101.76C108.77 101.576 108.83 101.348 108.83 101.076C108.83 100.74 108.746 100.476 108.578 100.284C108.41 100.084 108.186 99.94 107.906 99.852C107.634 99.756 107.338 99.708 107.018 99.708C106.706 99.708 106.41 99.756 106.13 99.852C105.858 99.94 105.634 100.084 105.458 100.284C105.29 100.476 105.206 100.74 105.206 101.076C105.206 101.348 105.262 101.576 105.374 101.76C105.494 101.936 105.646 102.076 105.83 102.18C106.022 102.276 106.222 102.344 106.43 102.384C106.638 102.424 106.834 102.444 107.018 102.444ZM107.03 98.652C107.318 98.652 107.574 98.604 107.798 98.508C108.03 98.412 108.218 98.272 108.362 98.088C108.506 97.896 108.578 97.664 108.578 97.392C108.586 97.072 108.518 96.816 108.374 96.624C108.23 96.424 108.038 96.28 107.798 96.192C107.566 96.096 107.306 96.048 107.018 96.048C106.722 96.048 106.454 96.096 106.214 96.192C105.982 96.28 105.798 96.42 105.662 96.612C105.534 96.804 105.47 97.048 105.47 97.344C105.47 97.64 105.542 97.888 105.686 98.088C105.83 98.28 106.018 98.424 106.25 98.52C106.49 98.608 106.75 98.652 107.03 98.652ZM112.455 103.5L117.783 95.016H119.055L113.751 103.5H112.455ZM118.275 103.572C117.883 103.572 117.547 103.488 117.267 103.32C116.995 103.152 116.783 102.924 116.631 102.636C116.487 102.34 116.415 102.004 116.415 101.628C116.415 101.236 116.487 100.896 116.631 100.608C116.783 100.32 116.999 100.096 117.279 99.936C117.559 99.768 117.891 99.684 118.275 99.684C118.659 99.684 118.987 99.764 119.259 99.924C119.531 100.084 119.739 100.312 119.883 100.608C120.027 100.896 120.099 101.232 120.099 101.616C120.099 101.992 120.023 102.328 119.871 102.624C119.727 102.92 119.519 103.152 119.247 103.32C118.975 103.488 118.651 103.572 118.275 103.572ZM118.263 102.588C118.463 102.588 118.623 102.544 118.743 102.456C118.863 102.368 118.947 102.248 118.995 102.096C119.051 101.944 119.079 101.788 119.079 101.628C119.079 101.468 119.051 101.316 118.995 101.172C118.947 101.02 118.863 100.9 118.743 100.812C118.623 100.724 118.463 100.68 118.263 100.68C117.959 100.68 117.743 100.78 117.615 100.98C117.487 101.172 117.423 101.388 117.423 101.628C117.423 101.884 117.487 102.108 117.615 102.3C117.751 102.492 117.967 102.588 118.263 102.588ZM113.295 98.808C112.903 98.808 112.567 98.724 112.287 98.556C112.015 98.388 111.807 98.16 111.663 97.872C111.519 97.576 111.447 97.24 111.447 96.864C111.447 96.472 111.519 96.132 111.663 95.844C111.807 95.556 112.019 95.332 112.299 95.172C112.579 95.004 112.915 94.92 113.307 94.92C113.691 94.92 114.019 95 114.291 95.16C114.563 95.32 114.771 95.548 114.915 95.844C115.059 96.132 115.131 96.468 115.131 96.852C115.131 97.228 115.059 97.564 114.915 97.86C114.771 98.156 114.559 98.388 114.279 98.556C114.007 98.724 113.679 98.808 113.295 98.808ZM113.295 97.824C113.495 97.824 113.651 97.78 113.763 97.692C113.883 97.596 113.971 97.476 114.027 97.332C114.083 97.18 114.111 97.024 114.111 96.864C114.111 96.696 114.083 96.54 114.027 96.396C113.971 96.252 113.883 96.136 113.763 96.048C113.651 95.952 113.495 95.904 113.295 95.904C112.991 95.904 112.771 96.004 112.635 96.204C112.507 96.396 112.443 96.616 112.443 96.864C112.443 97.12 112.507 97.344 112.635 97.536C112.771 97.728 112.991 97.824 113.295 97.824Z" fill="#70C748"/>
<rect x="234" y="71" width="6" height="32" rx="3" fill="#053B25" fill-opacity="0.2"/>
<rect x="234" y="81" width="6" height="22" rx="3" fill="#053B25"/>
<rect x="246" y="60" width="6" height="43" rx="3" fill="#053B25" fill-opacity="0.2"/>
<rect x="246" y="71" width="6" height="32" rx="3" fill="#053B25"/>
<rect x="258" y="60" width="6" height="43" rx="3" fill="#053B25" fill-opacity="0.2"/>
<rect x="258" y="66" width="6" height="37" rx="3" fill="#053B25"/>
<rect x="270" y="60" width="6" height="43" rx="3" fill="#053B25" fill-opacity="0.2"/>
<rect x="270" y="71" width="6" height="32" rx="3" fill="#053B25"/>
<rect x="282" y="60" width="6" height="43" rx="3" fill="#053B25" fill-opacity="0.2"/>
<rect x="282" y="83" width="6" height="20" rx="3" fill="#053B25"/>
<rect x="294" y="46" width="6" height="57" rx="3" fill="#053B25" fill-opacity="0.2"/>
<rect x="294" y="52.5" width="6" height="51" rx="3" fill="#053B25"/>
<rect x="306" y="36" width="6" height="67" rx="3" fill="#053B25" fill-opacity="0.2"/>
<rect x="306" y="45" width="6" height="58" rx="3" fill="#053B25"/>
<rect x="318" y="48" width="6" height="55" rx="3" fill="#053B25" fill-opacity="0.2"/>
<rect x="318" y="54" width="6" height="49" rx="3" fill="#053B25"/>
<rect x="330" y="48" width="6" height="55" rx="3" fill="#053B25" fill-opacity="0.2"/>
<rect x="330" y="63.5" width="6" height="40" rx="3" fill="#053B25"/>
<rect x="342" y="48" width="6" height="55" rx="3" fill="#053B25" fill-opacity="0.2"/>
<rect x="342" y="68.5" width="6" height="35" rx="3" fill="#053B25"/>
</svg>
