<svg width="471" height="397" viewBox="0 0 471 397" fill="none" xmlns="http://www.w3.org/2000/svg">
<rect width="471" height="397" rx="16" fill="white"/>
<rect x="0.5" y="0.5" width="470" height="396" rx="15.5" stroke="#030E09" stroke-opacity="0.05"/>
<path d="M28.158 42V31.326H24.18V29.274H34.368V31.326H30.39V42H28.158ZM39.0864 42.126C38.1144 42.126 37.2744 41.928 36.5664 41.532C35.8704 41.136 35.3304 40.572 34.9464 39.84C34.5744 39.108 34.3884 38.25 34.3884 37.266C34.3884 36.27 34.5804 35.412 34.9644 34.692C35.3484 33.96 35.8884 33.39 36.5844 32.982C37.2804 32.574 38.1144 32.37 39.0864 32.37C40.0464 32.37 40.8744 32.574 41.5704 32.982C42.2664 33.39 42.8004 33.966 43.1724 34.71C43.5444 35.442 43.7304 36.306 43.7304 37.302C43.7304 38.274 43.5444 39.126 43.1724 39.858C42.8124 40.578 42.2844 41.136 41.5884 41.532C40.8924 41.928 40.0584 42.126 39.0864 42.126ZM39.0684 40.128C39.6684 40.128 40.1484 39.996 40.5084 39.732C40.8804 39.468 41.1504 39.12 41.3184 38.688C41.4864 38.256 41.5704 37.788 41.5704 37.284C41.5704 36.78 41.4864 36.306 41.3184 35.862C41.1504 35.418 40.8804 35.064 40.5084 34.8C40.1484 34.524 39.6684 34.386 39.0684 34.386C38.4684 34.386 37.9824 34.524 37.6104 34.8C37.2384 35.064 36.9684 35.418 36.8004 35.862C36.6324 36.294 36.5484 36.768 36.5484 37.284C36.5484 37.788 36.6324 38.262 36.8004 38.706C36.9804 39.138 37.2504 39.486 37.6104 39.75C37.9824 40.002 38.4684 40.128 39.0684 40.128ZM49.3046 42.108C48.2606 42.108 47.4986 41.82 47.0186 41.244C46.5386 40.668 46.2986 39.87 46.2986 38.85V34.458H44.8406V32.514H46.2986V29.85H48.4946V32.514H51.3746V34.458H48.4946V38.436C48.4946 38.748 48.5306 39.03 48.6026 39.282C48.6746 39.534 48.8066 39.732 48.9986 39.876C49.1906 40.02 49.4546 40.098 49.7906 40.11C50.0786 40.11 50.3246 40.062 50.5286 39.966C50.7326 39.87 50.9006 39.762 51.0326 39.642L51.7706 41.316C51.5426 41.508 51.2846 41.664 50.9966 41.784C50.7206 41.904 50.4386 41.988 50.1506 42.036C49.8626 42.084 49.5806 42.108 49.3046 42.108ZM56.0202 42.126C55.5762 42.126 55.1562 42.066 54.7602 41.946C54.3642 41.826 54.0102 41.652 53.6982 41.424C53.3862 41.184 53.1342 40.89 52.9422 40.542C52.7622 40.182 52.6722 39.762 52.6722 39.282C52.6722 38.67 52.7922 38.172 53.0322 37.788C53.2722 37.392 53.5962 37.092 54.0042 36.888C54.4242 36.684 54.8982 36.546 55.4262 36.474C55.9542 36.39 56.5062 36.348 57.0822 36.348H58.9362C58.9362 35.928 58.8702 35.568 58.7382 35.268C58.6062 34.956 58.3962 34.71 58.1082 34.53C57.8322 34.35 57.4722 34.26 57.0282 34.26C56.7402 34.26 56.4702 34.296 56.2182 34.368C55.9782 34.428 55.7682 34.53 55.5882 34.674C55.4202 34.806 55.3002 34.98 55.2282 35.196H52.9782C53.0622 34.704 53.2302 34.284 53.4822 33.936C53.7462 33.576 54.0642 33.282 54.4362 33.054C54.8202 32.826 55.2402 32.658 55.6962 32.55C56.1522 32.43 56.6142 32.37 57.0822 32.37C58.4622 32.37 59.4642 32.766 60.0882 33.558C60.7242 34.35 61.0422 35.46 61.0422 36.888V42H59.0982L59.0442 40.776C58.7682 41.184 58.4382 41.484 58.0542 41.676C57.6702 41.868 57.2982 41.988 56.9382 42.036C56.5782 42.096 56.2722 42.126 56.0202 42.126ZM56.4522 40.344C56.9322 40.344 57.3582 40.254 57.7302 40.074C58.1022 39.894 58.3962 39.642 58.6122 39.318C58.8402 38.994 58.9542 38.622 58.9542 38.202V37.896H57.2262C56.9382 37.896 56.6502 37.908 56.3622 37.932C56.0862 37.944 55.8342 37.992 55.6062 38.076C55.3782 38.148 55.1922 38.262 55.0482 38.418C54.9162 38.574 54.8502 38.796 54.8502 39.084C54.8502 39.372 54.9222 39.606 55.0662 39.786C55.2222 39.966 55.4202 40.104 55.6602 40.2C55.9122 40.296 56.1762 40.344 56.4522 40.344ZM63.1748 42V29.274H65.3708V42H63.1748ZM71.5907 42L76.4687 29.274H79.1507L84.0107 42H81.5807L80.7347 39.642H74.8667L74.0027 42H71.5907ZM75.5867 37.608H79.9967L77.8007 31.542L75.5867 37.608ZM88.8211 42.126C88.3651 42.126 87.9091 42.078 87.4531 41.982C87.0091 41.886 86.5891 41.73 86.1931 41.514C85.7971 41.286 85.4671 40.98 85.2031 40.596C84.9391 40.212 84.7651 39.732 84.6811 39.156H86.8951C86.9911 39.42 87.1411 39.636 87.3451 39.804C87.5611 39.96 87.8071 40.08 88.0831 40.164C88.3711 40.236 88.6531 40.272 88.9291 40.272C89.0971 40.272 89.2771 40.26 89.4691 40.236C89.6731 40.212 89.8591 40.164 90.0271 40.092C90.2071 40.02 90.3511 39.918 90.4591 39.786C90.5671 39.642 90.6211 39.456 90.6211 39.228C90.6211 39.012 90.5611 38.844 90.4411 38.724C90.3211 38.592 90.1591 38.49 89.9551 38.418C89.7511 38.334 89.5051 38.268 89.2171 38.22C88.7011 38.112 88.1491 37.998 87.5611 37.878C86.9731 37.746 86.4631 37.542 86.0311 37.266C85.8511 37.158 85.6951 37.032 85.5631 36.888C85.4311 36.744 85.3171 36.588 85.2211 36.42C85.1371 36.24 85.0711 36.048 85.0231 35.844C84.9871 35.64 84.9691 35.418 84.9691 35.178C84.9691 34.674 85.0711 34.248 85.2751 33.9C85.4911 33.54 85.7731 33.252 86.1211 33.036C86.4811 32.808 86.8891 32.64 87.3451 32.532C87.8011 32.424 88.2691 32.37 88.7491 32.37C89.3971 32.37 89.9851 32.472 90.5131 32.676C91.0411 32.88 91.4791 33.192 91.8271 33.612C92.1871 34.032 92.4031 34.566 92.4751 35.214H90.3871C90.3271 34.914 90.1411 34.674 89.8291 34.494C89.5291 34.314 89.1451 34.224 88.6771 34.224C88.5091 34.224 88.3351 34.242 88.1551 34.278C87.9751 34.302 87.8011 34.35 87.6331 34.422C87.4771 34.482 87.3451 34.578 87.2371 34.71C87.1411 34.842 87.0931 35.004 87.0931 35.196C87.0931 35.376 87.1351 35.532 87.2191 35.664C87.3151 35.796 87.4531 35.91 87.6331 36.006C87.8251 36.09 88.0471 36.162 88.2991 36.222C88.7071 36.306 89.1331 36.39 89.5771 36.474C90.0211 36.558 90.4051 36.642 90.7291 36.726C91.1131 36.834 91.4611 36.99 91.7731 37.194C92.0851 37.386 92.3251 37.644 92.4931 37.968C92.6731 38.28 92.7631 38.682 92.7631 39.174C92.7631 39.75 92.6431 40.23 92.4031 40.614C92.1751 40.998 91.8691 41.298 91.4851 41.514C91.1011 41.73 90.6751 41.886 90.2071 41.982C89.7391 42.078 89.2771 42.126 88.8211 42.126ZM98.0505 42.126C97.5945 42.126 97.1385 42.078 96.6825 41.982C96.2385 41.886 95.8185 41.73 95.4225 41.514C95.0265 41.286 94.6965 40.98 94.4325 40.596C94.1685 40.212 93.9945 39.732 93.9105 39.156H96.1245C96.2205 39.42 96.3705 39.636 96.5745 39.804C96.7905 39.96 97.0365 40.08 97.3125 40.164C97.6005 40.236 97.8825 40.272 98.1585 40.272C98.3265 40.272 98.5065 40.26 98.6985 40.236C98.9025 40.212 99.0885 40.164 99.2565 40.092C99.4365 40.02 99.5805 39.918 99.6885 39.786C99.7965 39.642 99.8505 39.456 99.8505 39.228C99.8505 39.012 99.7905 38.844 99.6705 38.724C99.5505 38.592 99.3885 38.49 99.1845 38.418C98.9805 38.334 98.7345 38.268 98.4465 38.22C97.9305 38.112 97.3785 37.998 96.7905 37.878C96.2025 37.746 95.6925 37.542 95.2605 37.266C95.0805 37.158 94.9245 37.032 94.7925 36.888C94.6605 36.744 94.5465 36.588 94.4505 36.42C94.3665 36.24 94.3005 36.048 94.2525 35.844C94.2165 35.64 94.1985 35.418 94.1985 35.178C94.1985 34.674 94.3005 34.248 94.5045 33.9C94.7205 33.54 95.0025 33.252 95.3505 33.036C95.7105 32.808 96.1185 32.64 96.5745 32.532C97.0305 32.424 97.4985 32.37 97.9785 32.37C98.6265 32.37 99.2145 32.472 99.7425 32.676C100.27 32.88 100.708 33.192 101.056 33.612C101.416 34.032 101.632 34.566 101.704 35.214H99.6165C99.5565 34.914 99.3705 34.674 99.0585 34.494C98.7585 34.314 98.3745 34.224 97.9065 34.224C97.7385 34.224 97.5645 34.242 97.3845 34.278C97.2045 34.302 97.0305 34.35 96.8625 34.422C96.7065 34.482 96.5745 34.578 96.4665 34.71C96.3705 34.842 96.3225 35.004 96.3225 35.196C96.3225 35.376 96.3645 35.532 96.4485 35.664C96.5445 35.796 96.6825 35.91 96.8625 36.006C97.0545 36.09 97.2765 36.162 97.5285 36.222C97.9365 36.306 98.3625 36.39 98.8065 36.474C99.2505 36.558 99.6345 36.642 99.9585 36.726C100.342 36.834 100.69 36.99 101.002 37.194C101.314 37.386 101.554 37.644 101.722 37.968C101.902 38.28 101.992 38.682 101.992 39.174C101.992 39.75 101.872 40.23 101.632 40.614C101.404 40.998 101.098 41.298 100.714 41.514C100.33 41.73 99.9045 41.886 99.4365 41.982C98.9685 42.078 98.5065 42.126 98.0505 42.126ZM107.892 42.126C106.908 42.126 106.068 41.922 105.372 41.514C104.688 41.106 104.166 40.542 103.806 39.822C103.458 39.09 103.284 38.244 103.284 37.284C103.284 36.324 103.464 35.478 103.824 34.746C104.196 34.002 104.724 33.42 105.408 33C106.104 32.58 106.938 32.37 107.91 32.37C108.63 32.37 109.26 32.502 109.8 32.766C110.34 33.018 110.79 33.366 111.15 33.81C111.522 34.254 111.798 34.758 111.978 35.322C112.158 35.886 112.242 36.48 112.23 37.104C112.218 37.248 112.206 37.392 112.194 37.536C112.182 37.668 112.164 37.812 112.14 37.968H105.48C105.516 38.388 105.624 38.772 105.804 39.12C105.996 39.468 106.26 39.744 106.596 39.948C106.944 40.152 107.376 40.254 107.892 40.254C108.192 40.254 108.48 40.218 108.756 40.146C109.032 40.062 109.272 39.942 109.476 39.786C109.692 39.63 109.836 39.432 109.908 39.192H112.104C111.948 39.876 111.66 40.434 111.24 40.866C110.82 41.298 110.316 41.616 109.728 41.82C109.152 42.024 108.54 42.126 107.892 42.126ZM105.516 36.33H110.088C110.088 35.934 109.998 35.574 109.818 35.25C109.638 34.926 109.38 34.674 109.044 34.494C108.72 34.302 108.324 34.206 107.856 34.206C107.352 34.206 106.932 34.308 106.596 34.512C106.26 34.716 106.002 34.98 105.822 35.304C105.642 35.628 105.54 35.97 105.516 36.33ZM117.796 42.108C116.752 42.108 115.99 41.82 115.51 41.244C115.03 40.668 114.79 39.87 114.79 38.85V34.458H113.332V32.514H114.79V29.85H116.986V32.514H119.866V34.458H116.986V38.436C116.986 38.748 117.022 39.03 117.094 39.282C117.166 39.534 117.298 39.732 117.49 39.876C117.682 40.02 117.946 40.098 118.282 40.11C118.57 40.11 118.816 40.062 119.02 39.966C119.224 39.87 119.392 39.762 119.524 39.642L120.262 41.316C120.034 41.508 119.776 41.664 119.488 41.784C119.212 41.904 118.93 41.988 118.642 42.036C118.354 42.084 118.072 42.108 117.796 42.108ZM125.123 42.126C124.667 42.126 124.211 42.078 123.755 41.982C123.311 41.886 122.891 41.73 122.495 41.514C122.099 41.286 121.769 40.98 121.505 40.596C121.241 40.212 121.067 39.732 120.983 39.156H123.197C123.293 39.42 123.443 39.636 123.647 39.804C123.863 39.96 124.109 40.08 124.385 40.164C124.673 40.236 124.955 40.272 125.231 40.272C125.399 40.272 125.579 40.26 125.771 40.236C125.975 40.212 126.161 40.164 126.329 40.092C126.509 40.02 126.653 39.918 126.761 39.786C126.869 39.642 126.923 39.456 126.923 39.228C126.923 39.012 126.863 38.844 126.743 38.724C126.623 38.592 126.461 38.49 126.257 38.418C126.053 38.334 125.807 38.268 125.519 38.22C125.003 38.112 124.451 37.998 123.863 37.878C123.275 37.746 122.765 37.542 122.333 37.266C122.153 37.158 121.997 37.032 121.865 36.888C121.733 36.744 121.619 36.588 121.523 36.42C121.439 36.24 121.373 36.048 121.325 35.844C121.289 35.64 121.271 35.418 121.271 35.178C121.271 34.674 121.373 34.248 121.577 33.9C121.793 33.54 122.075 33.252 122.423 33.036C122.783 32.808 123.191 32.64 123.647 32.532C124.103 32.424 124.571 32.37 125.051 32.37C125.699 32.37 126.287 32.472 126.815 32.676C127.343 32.88 127.781 33.192 128.129 33.612C128.489 34.032 128.705 34.566 128.777 35.214H126.689C126.629 34.914 126.443 34.674 126.131 34.494C125.831 34.314 125.447 34.224 124.979 34.224C124.811 34.224 124.637 34.242 124.457 34.278C124.277 34.302 124.103 34.35 123.935 34.422C123.779 34.482 123.647 34.578 123.539 34.71C123.443 34.842 123.395 35.004 123.395 35.196C123.395 35.376 123.437 35.532 123.521 35.664C123.617 35.796 123.755 35.91 123.935 36.006C124.127 36.09 124.349 36.162 124.601 36.222C125.009 36.306 125.435 36.39 125.879 36.474C126.323 36.558 126.707 36.642 127.031 36.726C127.415 36.834 127.763 36.99 128.075 37.194C128.387 37.386 128.627 37.644 128.795 37.968C128.975 38.28 129.065 38.682 129.065 39.174C129.065 39.75 128.945 40.23 128.705 40.614C128.477 40.998 128.171 41.298 127.787 41.514C127.403 41.73 126.977 41.886 126.509 41.982C126.041 42.078 125.579 42.126 125.123 42.126Z" fill="#030E09"/>
<rect x="24" y="69" width="203.5" height="144" rx="16" fill="#93D973" fill-opacity="0.15"/>
<path d="M41.218 102V92.102H47.868V93.208H42.436V96.54H47.322V97.66H42.436V100.894H47.868V102H41.218ZM49.5109 102V94.622H50.6589L50.7149 95.504C50.8736 95.28 51.0509 95.098 51.2469 94.958C51.4523 94.818 51.6763 94.7153 51.9189 94.65C52.1709 94.5753 52.4369 94.538 52.7169 94.538C53.2303 94.538 53.6456 94.65 53.9629 94.874C54.2803 95.0887 54.5183 95.3733 54.6769 95.728C54.8449 95.476 55.0363 95.2613 55.2509 95.084C55.4749 94.9067 55.7223 94.7713 55.9929 94.678C56.2729 94.5847 56.5809 94.538 56.9169 94.538C57.4583 94.538 57.8923 94.6547 58.2189 94.888C58.5549 95.1213 58.7976 95.4387 58.9469 95.84C59.0963 96.232 59.1709 96.6753 59.1709 97.17V102H57.9809V97.772C57.9809 97.5293 57.9669 97.282 57.9389 97.03C57.9203 96.778 57.8643 96.5447 57.7709 96.33C57.6776 96.106 57.5376 95.9287 57.3509 95.798C57.1736 95.658 56.9216 95.588 56.5949 95.588C56.2869 95.588 56.0256 95.6627 55.8109 95.812C55.6056 95.952 55.4376 96.1433 55.3069 96.386C55.1763 96.6287 55.0829 96.89 55.0269 97.17C54.9709 97.4407 54.9429 97.7113 54.9429 97.982V102H53.7529V97.758C53.7529 97.5247 53.7389 97.282 53.7109 97.03C53.6923 96.778 53.6409 96.5447 53.5569 96.33C53.4823 96.106 53.3516 95.9287 53.1649 95.798C52.9876 95.658 52.7403 95.588 52.4229 95.588C51.9749 95.588 51.6249 95.7187 51.3729 95.98C51.1209 96.232 50.9436 96.5447 50.8409 96.918C50.7476 97.282 50.7009 97.6413 50.7009 97.996V102H49.5109ZM61.0096 104.66V94.622H62.1436L62.1996 95.728C62.4516 95.3453 62.7923 95.0513 63.2216 94.846C63.6603 94.6407 64.1316 94.538 64.6356 94.538C65.3823 94.538 65.9936 94.706 66.4696 95.042C66.9456 95.3687 67.2956 95.8167 67.5196 96.386C67.753 96.9553 67.8696 97.5993 67.8696 98.318C67.8696 99.0367 67.753 99.6807 67.5196 100.25C67.2863 100.819 66.927 101.267 66.4416 101.594C65.9563 101.921 65.3356 102.084 64.5796 102.084C64.2063 102.084 63.8703 102.047 63.5716 101.972C63.273 101.888 63.0116 101.771 62.7876 101.622C62.5636 101.463 62.3676 101.281 62.1996 101.076V104.66H61.0096ZM64.4816 101.034C65.023 101.034 65.4523 100.913 65.7696 100.67C66.087 100.418 66.3156 100.087 66.4556 99.676C66.605 99.2653 66.6796 98.8127 66.6796 98.318C66.6796 97.814 66.605 97.3567 66.4556 96.946C66.3156 96.5353 66.0823 96.2087 65.7556 95.966C65.429 95.7233 64.995 95.602 64.4536 95.602C63.9683 95.602 63.553 95.728 63.2076 95.98C62.8716 96.2227 62.615 96.554 62.4376 96.974C62.2603 97.3847 62.1716 97.8373 62.1716 98.332C62.1716 98.8453 62.2556 99.3073 62.4236 99.718C62.5916 100.129 62.8483 100.451 63.1936 100.684C63.539 100.917 63.9683 101.034 64.4816 101.034ZM69.4868 102V92.102H70.6768V102H69.4868ZM75.7973 102.084C75.0227 102.084 74.374 101.925 73.8513 101.608C73.3287 101.281 72.9367 100.833 72.6753 100.264C72.4233 99.6947 72.2973 99.046 72.2973 98.318C72.2973 97.5807 72.428 96.932 72.6893 96.372C72.9507 95.8027 73.3427 95.3547 73.8653 95.028C74.388 94.7013 75.0413 94.538 75.8253 94.538C76.6 94.538 77.244 94.7013 77.7573 95.028C78.28 95.3547 78.6673 95.8027 78.9193 96.372C79.1807 96.932 79.3113 97.5807 79.3113 98.318C79.3113 99.046 79.1807 99.6947 78.9193 100.264C78.658 100.833 78.266 101.281 77.7433 101.608C77.23 101.925 76.5813 102.084 75.7973 102.084ZM75.7973 101.034C76.3387 101.034 76.7773 100.913 77.1133 100.67C77.4587 100.427 77.7107 100.101 77.8693 99.69C78.0373 99.2793 78.1213 98.822 78.1213 98.318C78.1213 97.814 78.0373 97.3567 77.8693 96.946C77.7107 96.5353 77.4587 96.2087 77.1133 95.966C76.7773 95.7233 76.3387 95.602 75.7973 95.602C75.2653 95.602 74.8267 95.7233 74.4813 95.966C74.1453 96.2087 73.8933 96.5353 73.7253 96.946C73.5667 97.3567 73.4873 97.814 73.4873 98.318C73.4873 98.822 73.5667 99.2793 73.7253 99.69C73.8933 100.101 74.1453 100.427 74.4813 100.67C74.8267 100.913 75.2653 101.034 75.7973 101.034ZM84.1795 105.304C83.6102 105.304 83.0595 105.225 82.5275 105.066C82.0048 104.907 81.5335 104.632 81.1135 104.24L81.6315 103.302C81.9955 103.591 82.3828 103.82 82.7935 103.988C83.2135 104.156 83.6522 104.24 84.1095 104.24C84.8748 104.24 85.4208 104.016 85.7475 103.568C86.0835 103.129 86.2515 102.569 86.2515 101.888V101.006C86.0835 101.258 85.8688 101.468 85.6075 101.636C85.3555 101.795 85.0755 101.916 84.7675 102C84.4595 102.075 84.1422 102.112 83.8155 102.112C83.0875 102.112 82.5135 101.967 82.0935 101.678C81.6735 101.389 81.3748 100.987 81.1975 100.474C81.0202 99.9607 80.9315 99.368 80.9315 98.696V94.622H82.1215V98.36C82.1215 98.696 82.1402 99.0273 82.1775 99.354C82.2242 99.6713 82.3128 99.9607 82.4435 100.222C82.5742 100.474 82.7655 100.679 83.0175 100.838C83.2695 100.987 83.6055 101.062 84.0255 101.062C84.5575 101.062 84.9822 100.931 85.2995 100.67C85.6262 100.409 85.8595 100.059 85.9995 99.62C86.1488 99.1813 86.2235 98.696 86.2235 98.164V94.622H87.4135V102C87.4135 102.532 87.3435 103.003 87.2035 103.414C87.0635 103.825 86.8535 104.17 86.5735 104.45C86.2935 104.73 85.9528 104.94 85.5515 105.08C85.1595 105.229 84.7022 105.304 84.1795 105.304ZM92.505 102.084C91.721 102.084 91.0724 101.925 90.559 101.608C90.0457 101.281 89.663 100.833 89.411 100.264C89.159 99.6947 89.033 99.046 89.033 98.318C89.033 97.5807 89.1637 96.932 89.425 96.372C89.6957 95.8027 90.0877 95.3547 90.601 95.028C91.1144 94.7013 91.7444 94.538 92.491 94.538C93.0697 94.538 93.5644 94.65 93.975 94.874C94.395 95.0887 94.7404 95.378 95.011 95.742C95.2817 96.106 95.4777 96.5073 95.599 96.946C95.7204 97.3753 95.7717 97.8093 95.753 98.248C95.7437 98.332 95.7344 98.416 95.725 98.5C95.725 98.584 95.7204 98.668 95.711 98.752H90.237C90.2744 99.1813 90.3817 99.5687 90.559 99.914C90.7364 100.259 90.9884 100.535 91.315 100.74C91.6417 100.936 92.0477 101.034 92.533 101.034C92.7757 101.034 93.0184 101.006 93.261 100.95C93.513 100.885 93.737 100.777 93.933 100.628C94.1384 100.479 94.283 100.278 94.367 100.026H95.585C95.473 100.502 95.263 100.894 94.955 101.202C94.647 101.501 94.2784 101.725 93.849 101.874C93.4197 102.014 92.9717 102.084 92.505 102.084ZM90.265 97.716H94.535C94.5257 97.296 94.4324 96.9273 94.255 96.61C94.0777 96.2927 93.835 96.0453 93.527 95.868C93.2284 95.6907 92.869 95.602 92.449 95.602C91.9917 95.602 91.6044 95.7 91.287 95.896C90.979 96.092 90.741 96.3487 90.573 96.666C90.405 96.9833 90.3024 97.3333 90.265 97.716ZM100.558 102.084C99.7744 102.084 99.1258 101.925 98.6124 101.608C98.0991 101.281 97.7164 100.833 97.4644 100.264C97.2124 99.6947 97.0864 99.046 97.0864 98.318C97.0864 97.5807 97.2171 96.932 97.4784 96.372C97.7491 95.8027 98.1411 95.3547 98.6544 95.028C99.1678 94.7013 99.7978 94.538 100.544 94.538C101.123 94.538 101.618 94.65 102.028 94.874C102.448 95.0887 102.794 95.378 103.064 95.742C103.335 96.106 103.531 96.5073 103.652 96.946C103.774 97.3753 103.825 97.8093 103.806 98.248C103.797 98.332 103.788 98.416 103.778 98.5C103.778 98.584 103.774 98.668 103.764 98.752H98.2904C98.3278 99.1813 98.4351 99.5687 98.6124 99.914C98.7898 100.259 99.0418 100.535 99.3684 100.74C99.6951 100.936 100.101 101.034 100.586 101.034C100.829 101.034 101.072 101.006 101.314 100.95C101.566 100.885 101.79 100.777 101.986 100.628C102.192 100.479 102.336 100.278 102.42 100.026H103.638C103.526 100.502 103.316 100.894 103.008 101.202C102.7 101.501 102.332 101.725 101.902 101.874C101.473 102.014 101.025 102.084 100.558 102.084ZM98.3184 97.716H102.588C102.579 97.296 102.486 96.9273 102.308 96.61C102.131 96.2927 101.888 96.0453 101.58 95.868C101.282 95.6907 100.922 95.602 100.502 95.602C100.045 95.602 99.6578 95.7 99.3404 95.896C99.0324 96.092 98.7944 96.3487 98.6264 96.666C98.4584 96.9833 98.3558 97.3333 98.3184 97.716ZM108.108 102.084C107.772 102.084 107.431 102.051 107.086 101.986C106.75 101.921 106.432 101.809 106.134 101.65C105.844 101.491 105.602 101.277 105.406 101.006C105.21 100.735 105.084 100.399 105.028 99.998H106.232C106.325 100.25 106.474 100.455 106.68 100.614C106.894 100.763 107.132 100.871 107.394 100.936C107.664 101.001 107.921 101.034 108.164 101.034C108.313 101.034 108.486 101.025 108.682 101.006C108.878 100.987 109.064 100.945 109.242 100.88C109.428 100.805 109.578 100.698 109.69 100.558C109.811 100.418 109.872 100.222 109.872 99.97C109.872 99.7833 109.83 99.6293 109.746 99.508C109.662 99.3867 109.545 99.2887 109.396 99.214C109.246 99.13 109.064 99.0693 108.85 99.032C108.411 98.9387 107.94 98.85 107.436 98.766C106.941 98.682 106.502 98.5233 106.12 98.29C105.989 98.206 105.868 98.1127 105.756 98.01C105.653 97.898 105.564 97.7767 105.49 97.646C105.415 97.506 105.354 97.3567 105.308 97.198C105.27 97.03 105.252 96.848 105.252 96.652C105.252 96.288 105.322 95.9753 105.462 95.714C105.611 95.4433 105.816 95.224 106.078 95.056C106.339 94.8787 106.638 94.748 106.974 94.664C107.319 94.58 107.688 94.538 108.08 94.538C108.565 94.538 108.999 94.6173 109.382 94.776C109.774 94.9253 110.096 95.1493 110.348 95.448C110.6 95.7373 110.749 96.0967 110.796 96.526H109.69C109.624 96.2553 109.447 96.036 109.158 95.868C108.868 95.6907 108.5 95.602 108.052 95.602C107.902 95.602 107.734 95.616 107.548 95.644C107.361 95.6627 107.184 95.7093 107.016 95.784C106.848 95.8493 106.708 95.952 106.596 96.092C106.484 96.2227 106.428 96.4 106.428 96.624C106.428 96.8293 106.479 97.002 106.582 97.142C106.694 97.282 106.848 97.394 107.044 97.478C107.24 97.562 107.464 97.632 107.716 97.688C108.042 97.7533 108.402 97.8233 108.794 97.898C109.186 97.9633 109.494 98.0333 109.718 98.108C110.016 98.2013 110.264 98.332 110.46 98.5C110.665 98.668 110.814 98.8687 110.908 99.102C111.01 99.3353 111.062 99.606 111.062 99.914C111.062 100.353 110.973 100.712 110.796 100.992C110.628 101.272 110.399 101.491 110.11 101.65C109.82 101.809 109.498 101.921 109.144 101.986C108.798 102.051 108.453 102.084 108.108 102.084Z" fill="#030E09"/>
<path d="M196.5 95C198.709 95 200.5 93.2091 200.5 91C200.5 88.7909 198.709 87 196.5 87C194.291 87 192.5 88.7909 192.5 91C192.5 93.2091 194.291 95 196.5 95Z" stroke="#70C748" stroke-width="1.5"/>
<path opacity="0.5" d="M200 89.341C200.356 88.8041 200.876 88.3962 201.482 88.1777C202.089 87.9592 202.749 87.9417 203.366 88.1278C203.983 88.3139 204.524 88.6938 204.908 89.211C205.292 89.7283 205.5 90.3556 205.5 91C205.5 91.6444 205.292 92.2717 204.908 92.789C204.524 93.3062 203.983 93.6861 203.366 93.8722C202.749 94.0583 202.089 94.0408 201.482 93.8223C200.876 93.6038 200.356 93.1959 200 92.659" stroke="#70C748" stroke-width="1.5"/>
<path d="M196.5 106C200.366 106 203.5 104.209 203.5 102C203.5 99.7909 200.366 98 196.5 98C192.634 98 189.5 99.7909 189.5 102C189.5 104.209 192.634 106 196.5 106Z" stroke="#70C748" stroke-width="1.5"/>
<path opacity="0.5" d="M205.5 99C207.254 99.385 208.5 100.359 208.5 101.5C208.5 102.53 207.486 103.423 206 103.87" stroke="#70C748" stroke-width="1.5" stroke-linecap="round"/>
<path d="M45.22 190.144C44.536 190.144 43.888 190.03 43.276 189.802C42.676 189.562 42.166 189.202 41.746 188.722C41.326 188.242 41.05 187.642 40.918 186.922H43.168C43.336 187.306 43.624 187.6 44.032 187.804C44.452 187.996 44.89 188.092 45.346 188.092C45.898 188.092 46.354 187.984 46.714 187.768C47.086 187.54 47.38 187.24 47.596 186.868C47.824 186.484 47.986 186.064 48.082 185.608C48.178 185.14 48.226 184.666 48.226 184.186C48.226 184.126 48.226 184.066 48.226 184.006C48.226 183.946 48.226 183.892 48.226 183.844C47.974 184.264 47.662 184.594 47.29 184.834C46.918 185.062 46.522 185.23 46.102 185.338C45.682 185.434 45.274 185.482 44.878 185.482C44.122 185.482 43.438 185.326 42.826 185.014C42.214 184.702 41.728 184.246 41.368 183.646C41.008 183.034 40.828 182.302 40.828 181.45C40.828 180.538 41.032 179.758 41.44 179.11C41.848 178.462 42.4 177.97 43.096 177.634C43.804 177.286 44.59 177.112 45.454 177.112C46.39 177.112 47.17 177.304 47.794 177.688C48.418 178.072 48.916 178.588 49.288 179.236C49.66 179.872 49.924 180.58 50.08 181.36C50.236 182.14 50.314 182.932 50.314 183.736C50.314 184.624 50.218 185.458 50.026 186.238C49.846 187.006 49.552 187.684 49.144 188.272C48.748 188.86 48.226 189.322 47.578 189.658C46.93 189.982 46.144 190.144 45.22 190.144ZM45.346 183.556C45.814 183.556 46.222 183.46 46.57 183.268C46.93 183.064 47.206 182.8 47.398 182.476C47.59 182.14 47.68 181.78 47.668 181.396C47.668 180.94 47.566 180.55 47.362 180.226C47.17 179.89 46.9 179.626 46.552 179.434C46.204 179.242 45.814 179.146 45.382 179.146C44.914 179.146 44.506 179.248 44.158 179.452C43.822 179.656 43.558 179.926 43.366 180.262C43.174 180.598 43.078 180.958 43.078 181.342C43.078 182.002 43.276 182.536 43.672 182.944C44.068 183.352 44.626 183.556 45.346 183.556ZM57.1017 190.144C56.2137 190.144 55.4517 189.976 54.8157 189.64C54.1797 189.304 53.6637 188.848 53.2677 188.272C52.8717 187.696 52.5777 187.036 52.3857 186.292C52.2057 185.548 52.1157 184.768 52.1157 183.952C52.1157 183.028 52.2117 182.158 52.4037 181.342C52.6077 180.514 52.9197 179.788 53.3397 179.164C53.7597 178.528 54.2997 178.03 54.9597 177.67C55.6317 177.298 56.4237 177.112 57.3357 177.112C58.0197 177.112 58.6497 177.232 59.2257 177.472C59.8137 177.712 60.3057 178.072 60.7017 178.552C61.0977 179.032 61.3677 179.632 61.5117 180.352H59.3517C59.1837 179.968 58.9077 179.674 58.5237 179.47C58.1517 179.254 57.7377 179.146 57.2817 179.146C56.8137 179.146 56.4057 179.236 56.0577 179.416C55.7217 179.584 55.4337 179.812 55.1937 180.1C54.9537 180.376 54.7617 180.7 54.6177 181.072C54.4737 181.444 54.3657 181.828 54.2937 182.224C54.2217 182.62 54.1857 183.01 54.1857 183.394C54.4737 182.974 54.8037 182.65 55.1757 182.422C55.5477 182.182 55.9377 182.014 56.3457 181.918C56.7537 181.81 57.1377 181.756 57.4977 181.756C58.3497 181.756 59.0757 181.924 59.6757 182.26C60.2877 182.596 60.7617 183.07 61.0977 183.682C61.4337 184.282 61.6017 184.99 61.6017 185.806C61.6017 186.682 61.4097 187.444 61.0257 188.092C60.6417 188.74 60.1077 189.244 59.4237 189.604C58.7517 189.964 57.9777 190.144 57.1017 190.144ZM57.0837 188.11C57.5517 188.098 57.9537 187.996 58.2897 187.804C58.6257 187.612 58.8837 187.354 59.0637 187.03C59.2557 186.694 59.3517 186.328 59.3517 185.932C59.3517 185.512 59.2617 185.14 59.0817 184.816C58.9017 184.48 58.6437 184.216 58.3077 184.024C57.9837 183.82 57.5937 183.718 57.1377 183.718C56.7057 183.718 56.3097 183.814 55.9497 184.006C55.5897 184.186 55.3017 184.444 55.0857 184.78C54.8697 185.104 54.7617 185.482 54.7617 185.914C54.7617 186.31 54.8577 186.676 55.0497 187.012C55.2537 187.336 55.5297 187.6 55.8777 187.804C56.2257 188.008 56.6277 188.11 57.0837 188.11Z" fill="#030E09"/>
<rect x="24" y="229" width="203.5" height="144" rx="16" fill="#053B25" fill-opacity="0.15"/>
<path d="M45.222 262.112C44.2047 262.112 43.3553 261.897 42.674 261.468C42.002 261.029 41.498 260.432 41.162 259.676C40.8353 258.911 40.672 258.038 40.672 257.058C40.672 256.087 40.84 255.224 41.176 254.468C41.512 253.703 42.016 253.101 42.688 252.662C43.3693 252.214 44.2233 251.99 45.25 251.99C45.978 251.99 46.6033 252.107 47.126 252.34C47.658 252.564 48.0873 252.877 48.414 253.278C48.7407 253.679 48.9647 254.151 49.086 254.692H47.854C47.714 254.207 47.4107 253.819 46.944 253.53C46.4867 253.241 45.908 253.096 45.208 253.096C44.424 253.096 43.7893 253.283 43.304 253.656C42.828 254.02 42.478 254.501 42.254 255.098C42.03 255.686 41.918 256.325 41.918 257.016C41.918 257.744 42.0347 258.411 42.268 259.018C42.5013 259.625 42.8653 260.11 43.36 260.474C43.8547 260.829 44.4847 261.006 45.25 261.006C45.7167 261.006 46.132 260.941 46.496 260.81C46.8693 260.679 47.1773 260.493 47.42 260.25C47.672 260.007 47.8447 259.727 47.938 259.41H49.268C49.128 259.951 48.876 260.427 48.512 260.838C48.1573 261.239 47.7047 261.552 47.154 261.776C46.6033 262 45.9593 262.112 45.222 262.112ZM50.8234 262V252.102H52.0134V262H50.8234ZM53.9139 262V254.622H55.1039V262H53.9139ZM54.5019 253.53C54.2593 253.53 54.0633 253.455 53.9139 253.306C53.7739 253.157 53.7039 252.965 53.7039 252.732C53.7039 252.499 53.7786 252.312 53.9279 252.172C54.0773 252.023 54.2686 251.948 54.5019 251.948C54.7166 251.948 54.9033 252.023 55.0619 252.172C55.2299 252.321 55.3139 252.508 55.3139 252.732C55.3139 252.965 55.2346 253.157 55.0759 253.306C54.9173 253.455 54.7259 253.53 54.5019 253.53ZM60.1964 262.084C59.4124 262.084 58.7638 261.925 58.2504 261.608C57.7371 261.281 57.3544 260.833 57.1024 260.264C56.8504 259.695 56.7244 259.046 56.7244 258.318C56.7244 257.581 56.8551 256.932 57.1164 256.372C57.3871 255.803 57.7791 255.355 58.2924 255.028C58.8058 254.701 59.4358 254.538 60.1824 254.538C60.7611 254.538 61.2558 254.65 61.6664 254.874C62.0864 255.089 62.4318 255.378 62.7024 255.742C62.9731 256.106 63.1691 256.507 63.2904 256.946C63.4118 257.375 63.4631 257.809 63.4444 258.248C63.4351 258.332 63.4258 258.416 63.4164 258.5C63.4164 258.584 63.4118 258.668 63.4024 258.752H57.9284C57.9658 259.181 58.0731 259.569 58.2504 259.914C58.4278 260.259 58.6798 260.535 59.0064 260.74C59.3331 260.936 59.7391 261.034 60.2244 261.034C60.4671 261.034 60.7098 261.006 60.9524 260.95C61.2044 260.885 61.4284 260.777 61.6244 260.628C61.8298 260.479 61.9744 260.278 62.0584 260.026H63.2764C63.1644 260.502 62.9544 260.894 62.6464 261.202C62.3384 261.501 61.9698 261.725 61.5404 261.874C61.1111 262.014 60.6631 262.084 60.1964 262.084ZM57.9564 257.716H62.2264C62.2171 257.296 62.1238 256.927 61.9464 256.61C61.7691 256.293 61.5264 256.045 61.2184 255.868C60.9198 255.691 60.5604 255.602 60.1404 255.602C59.6831 255.602 59.2958 255.7 58.9784 255.896C58.6704 256.092 58.4324 256.349 58.2644 256.666C58.0964 256.983 57.9938 257.333 57.9564 257.716ZM65.0578 262V254.622H66.2058L66.2618 255.742C66.4298 255.471 66.6445 255.247 66.9058 255.07C67.1671 254.893 67.4518 254.762 67.7598 254.678C68.0771 254.585 68.3851 254.538 68.6838 254.538C69.4025 254.538 69.9625 254.687 70.3638 254.986C70.7745 255.285 71.0638 255.691 71.2318 256.204C71.4091 256.708 71.4978 257.282 71.4978 257.926V262H70.3078V258.248C70.3078 257.903 70.2845 257.571 70.2378 257.254C70.2005 256.937 70.1165 256.652 69.9858 256.4C69.8645 256.148 69.6871 255.952 69.4538 255.812C69.2205 255.663 68.9078 255.588 68.5158 255.588C68.0305 255.588 67.6151 255.723 67.2698 255.994C66.9338 256.265 66.6771 256.629 66.4998 257.086C66.3318 257.543 66.2478 258.057 66.2478 258.626V262H65.0578ZM76.1293 262.084C75.3546 262.084 74.8086 261.874 74.4913 261.454C74.1833 261.034 74.0293 260.437 74.0293 259.662V255.672H72.8253V254.622H74.0293V252.41H75.2193V254.622H77.4873V255.672H75.2193V259.508C75.2193 259.788 75.2426 260.045 75.2893 260.278C75.336 260.502 75.434 260.684 75.5833 260.824C75.7326 260.955 75.9566 261.025 76.2553 261.034C76.47 261.034 76.6566 260.997 76.8153 260.922C76.9833 260.847 77.1233 260.759 77.2353 260.656L77.7533 261.524C77.5946 261.655 77.4266 261.762 77.2493 261.846C77.0813 261.93 76.904 261.991 76.7173 262.028C76.54 262.065 76.344 262.084 76.1293 262.084ZM81.6241 262.084C81.2881 262.084 80.9474 262.051 80.6021 261.986C80.2661 261.921 79.9487 261.809 79.6501 261.65C79.3607 261.491 79.1181 261.277 78.9221 261.006C78.7261 260.735 78.6001 260.399 78.5441 259.998H79.7481C79.8414 260.25 79.9907 260.455 80.1961 260.614C80.4107 260.763 80.6487 260.871 80.9101 260.936C81.1807 261.001 81.4374 261.034 81.6801 261.034C81.8294 261.034 82.0021 261.025 82.1981 261.006C82.3941 260.987 82.5807 260.945 82.7581 260.88C82.9447 260.805 83.0941 260.698 83.2061 260.558C83.3274 260.418 83.3881 260.222 83.3881 259.97C83.3881 259.783 83.3461 259.629 83.2621 259.508C83.1781 259.387 83.0614 259.289 82.9121 259.214C82.7627 259.13 82.5807 259.069 82.3661 259.032C81.9274 258.939 81.4561 258.85 80.9521 258.766C80.4574 258.682 80.0187 258.523 79.6361 258.29C79.5054 258.206 79.3841 258.113 79.2721 258.01C79.1694 257.898 79.0807 257.777 79.0061 257.646C78.9314 257.506 78.8707 257.357 78.8241 257.198C78.7867 257.03 78.7681 256.848 78.7681 256.652C78.7681 256.288 78.8381 255.975 78.9781 255.714C79.1274 255.443 79.3327 255.224 79.5941 255.056C79.8554 254.879 80.1541 254.748 80.4901 254.664C80.8354 254.58 81.2041 254.538 81.5961 254.538C82.0814 254.538 82.5154 254.617 82.8981 254.776C83.2901 254.925 83.6121 255.149 83.8641 255.448C84.1161 255.737 84.2654 256.097 84.3121 256.526H83.2061C83.1407 256.255 82.9634 256.036 82.6741 255.868C82.3847 255.691 82.0161 255.602 81.5681 255.602C81.4187 255.602 81.2507 255.616 81.0641 255.644C80.8774 255.663 80.7001 255.709 80.5321 255.784C80.3641 255.849 80.2241 255.952 80.1121 256.092C80.0001 256.223 79.9441 256.4 79.9441 256.624C79.9441 256.829 79.9954 257.002 80.0981 257.142C80.2101 257.282 80.3641 257.394 80.5601 257.478C80.7561 257.562 80.9801 257.632 81.2321 257.688C81.5587 257.753 81.9181 257.823 82.3101 257.898C82.7021 257.963 83.0101 258.033 83.2341 258.108C83.5327 258.201 83.7801 258.332 83.9761 258.5C84.1814 258.668 84.3307 258.869 84.4241 259.102C84.5267 259.335 84.5781 259.606 84.5781 259.914C84.5781 260.353 84.4894 260.712 84.3121 260.992C84.1441 261.272 83.9154 261.491 83.6261 261.65C83.3367 261.809 83.0147 261.921 82.6601 261.986C82.3147 262.051 81.9694 262.084 81.6241 262.084Z" fill="#030E09"/>
<path d="M201.5 251H197.5C196.144 251 195.032 251 194.11 251.054C192.465 251.151 191.422 251.421 190.672 252.172C189.5 253.343 189.5 255.229 189.5 259C189.5 262.771 189.5 264.657 190.672 265.828C191.844 266.999 193.729 267 197.5 267H201.5C205.271 267 207.157 267 208.328 265.828C209.499 264.656 209.5 262.771 209.5 259C209.5 255.229 209.5 253.343 208.328 252.172C207.578 251.422 206.535 251.152 204.891 251.054C203.968 251 202.856 251 201.5 251Z" stroke="#053B25" stroke-width="1.5"/>
<path opacity="0.5" d="M194.109 251.054C194.932 251.034 195.659 250.454 195.939 249.68L195.974 249.577L195.999 249.5C196.041 249.373 196.063 249.31 196.085 249.254C196.227 248.903 196.465 248.599 196.772 248.378C197.079 248.156 197.443 248.027 197.82 248.004C197.879 248 197.947 248 198.079 248H200.917C201.05 248 201.117 248 201.177 248.004C201.555 248.027 201.919 248.156 202.226 248.378C202.533 248.599 202.771 248.903 202.912 249.254C202.935 249.31 202.956 249.374 202.998 249.5L203.024 249.577C203.042 249.63 203.05 249.657 203.059 249.68C203.339 250.455 204.066 251.034 204.889 251.054" stroke="#053B25" stroke-width="1.5"/>
<path opacity="0.5" d="M209.164 253.721C206.154 255.677 204.649 256.655 203.063 257.148C200.744 257.868 198.261 257.868 195.942 257.148C194.355 256.655 192.85 255.678 189.84 253.721" stroke="#053B25" stroke-width="1.5" stroke-linecap="round"/>
<path d="M195.5 256V258M203.5 256V258" stroke="#053B25" stroke-width="1.5" stroke-linecap="round"/>
<path d="M45.364 350.144C44.8 350.144 44.242 350.078 43.69 349.946C43.138 349.814 42.634 349.61 42.178 349.334C41.722 349.046 41.338 348.674 41.026 348.218C40.726 347.762 40.534 347.21 40.45 346.562H42.682C42.79 346.934 42.982 347.228 43.258 347.444C43.546 347.66 43.876 347.822 44.248 347.93C44.62 348.026 44.998 348.074 45.382 348.074C45.658 348.074 45.934 348.05 46.21 348.002C46.486 347.954 46.744 347.864 46.984 347.732C47.224 347.6 47.416 347.414 47.56 347.174C47.704 346.934 47.776 346.622 47.776 346.238C47.776 345.89 47.71 345.602 47.578 345.374C47.458 345.146 47.284 344.972 47.056 344.852C46.84 344.72 46.588 344.63 46.3 344.582C46.024 344.522 45.73 344.492 45.418 344.492H44.014V342.566H44.932C45.28 342.566 45.598 342.53 45.886 342.458C46.174 342.386 46.426 342.284 46.642 342.152C46.858 342.008 47.02 341.828 47.128 341.612C47.248 341.396 47.308 341.138 47.308 340.838C47.308 340.406 47.212 340.07 47.02 339.83C46.84 339.59 46.594 339.422 46.282 339.326C45.97 339.218 45.628 339.164 45.256 339.164C44.92 339.164 44.596 339.218 44.284 339.326C43.972 339.422 43.702 339.572 43.474 339.776C43.246 339.98 43.102 340.238 43.042 340.55H40.846C40.918 339.95 41.092 339.434 41.368 339.002C41.644 338.57 41.986 338.216 42.394 337.94C42.814 337.652 43.282 337.442 43.798 337.31C44.314 337.178 44.848 337.112 45.4 337.112C45.94 337.112 46.456 337.172 46.948 337.292C47.452 337.412 47.896 337.61 48.28 337.886C48.664 338.15 48.97 338.498 49.198 338.93C49.426 339.362 49.54 339.89 49.54 340.514C49.54 340.91 49.474 341.282 49.342 341.63C49.21 341.978 49.018 342.284 48.766 342.548C48.526 342.812 48.232 343.028 47.884 343.196C48.364 343.328 48.766 343.544 49.09 343.844C49.414 344.132 49.654 344.48 49.81 344.888C49.978 345.296 50.062 345.746 50.062 346.238C50.062 347.006 49.918 347.648 49.63 348.164C49.354 348.668 48.982 349.064 48.514 349.352C48.058 349.64 47.554 349.844 47.002 349.964C46.45 350.084 45.904 350.144 45.364 350.144ZM52.6792 352.574L52.0492 351.62C52.2292 351.524 52.4152 351.386 52.6072 351.206C52.7992 351.038 52.9732 350.846 53.1292 350.63C53.2972 350.426 53.4112 350.24 53.4712 350.072C53.1232 350.036 52.8232 349.91 52.5712 349.694C52.3312 349.466 52.2112 349.148 52.2112 348.74C52.2112 348.32 52.3552 347.99 52.6432 347.75C52.9312 347.51 53.2552 347.39 53.6152 347.39C54.0712 347.39 54.4312 347.564 54.6952 347.912C54.9592 348.248 55.0912 348.692 55.0912 349.244C55.0912 349.736 54.9712 350.21 54.7312 350.666C54.5032 351.122 54.2032 351.518 53.8312 351.854C53.4712 352.19 53.0872 352.43 52.6792 352.574ZM62.0947 350.144C61.2067 350.144 60.4447 349.976 59.8087 349.64C59.1727 349.304 58.6567 348.848 58.2607 348.272C57.8647 347.696 57.5707 347.036 57.3787 346.292C57.1987 345.548 57.1087 344.768 57.1087 343.952C57.1087 343.028 57.2047 342.158 57.3967 341.342C57.6007 340.514 57.9127 339.788 58.3327 339.164C58.7527 338.528 59.2927 338.03 59.9527 337.67C60.6247 337.298 61.4167 337.112 62.3287 337.112C63.0127 337.112 63.6427 337.232 64.2187 337.472C64.8067 337.712 65.2987 338.072 65.6947 338.552C66.0907 339.032 66.3607 339.632 66.5047 340.352H64.3447C64.1767 339.968 63.9007 339.674 63.5167 339.47C63.1447 339.254 62.7307 339.146 62.2747 339.146C61.8067 339.146 61.3987 339.236 61.0507 339.416C60.7147 339.584 60.4267 339.812 60.1867 340.1C59.9467 340.376 59.7547 340.7 59.6107 341.072C59.4667 341.444 59.3587 341.828 59.2867 342.224C59.2147 342.62 59.1787 343.01 59.1787 343.394C59.4667 342.974 59.7967 342.65 60.1687 342.422C60.5407 342.182 60.9307 342.014 61.3387 341.918C61.7467 341.81 62.1307 341.756 62.4907 341.756C63.3427 341.756 64.0687 341.924 64.6687 342.26C65.2807 342.596 65.7547 343.07 66.0907 343.682C66.4267 344.282 66.5947 344.99 66.5947 345.806C66.5947 346.682 66.4027 347.444 66.0187 348.092C65.6347 348.74 65.1007 349.244 64.4167 349.604C63.7447 349.964 62.9707 350.144 62.0947 350.144ZM62.0767 348.11C62.5447 348.098 62.9467 347.996 63.2827 347.804C63.6187 347.612 63.8767 347.354 64.0567 347.03C64.2487 346.694 64.3447 346.328 64.3447 345.932C64.3447 345.512 64.2547 345.14 64.0747 344.816C63.8947 344.48 63.6367 344.216 63.3007 344.024C62.9767 343.82 62.5867 343.718 62.1307 343.718C61.6987 343.718 61.3027 343.814 60.9427 344.006C60.5827 344.186 60.2947 344.444 60.0787 344.78C59.8627 345.104 59.7547 345.482 59.7547 345.914C59.7547 346.31 59.8507 346.676 60.0427 347.012C60.2467 347.336 60.5227 347.6 60.8707 347.804C61.2187 348.008 61.6207 348.11 62.0767 348.11ZM72.9676 350.144C72.4036 350.144 71.8696 350.078 71.3656 349.946C70.8616 349.802 70.4056 349.586 69.9976 349.298C69.5896 349.01 69.2476 348.644 68.9716 348.2C68.7076 347.744 68.5276 347.21 68.4316 346.598H70.6456C70.7416 346.862 70.8976 347.108 71.1136 347.336C71.3416 347.564 71.6116 347.744 71.9236 347.876C72.2476 348.008 72.5956 348.074 72.9676 348.074C73.4716 348.074 73.9036 347.99 74.2636 347.822C74.6236 347.642 74.9056 347.39 75.1096 347.066C75.3136 346.73 75.4156 346.328 75.4156 345.86C75.4156 345.164 75.1996 344.618 74.7676 344.222C74.3476 343.826 73.7716 343.628 73.0396 343.628C72.6076 343.628 72.2056 343.706 71.8336 343.862C71.4616 344.006 71.1136 344.21 70.7896 344.474H68.7916L69.1336 337.274H77.2516V339.326H71.2036L70.9876 342.368C71.3476 342.116 71.7616 341.93 72.2296 341.81C72.6976 341.678 73.2076 341.618 73.7596 341.63C74.5756 341.642 75.2776 341.822 75.8656 342.17C76.4656 342.506 76.9216 342.974 77.2336 343.574C77.5456 344.174 77.7016 344.882 77.7016 345.698C77.7016 346.646 77.4916 347.45 77.0716 348.11C76.6636 348.77 76.0996 349.274 75.3796 349.622C74.6716 349.97 73.8676 350.144 72.9676 350.144ZM84.5278 350.144C83.6038 350.144 82.8178 349.982 82.1698 349.658C81.5218 349.322 80.9998 348.854 80.6038 348.254C80.2078 347.654 79.9138 346.964 79.7218 346.184C79.5418 345.404 79.4518 344.564 79.4518 343.664C79.4518 342.752 79.5418 341.9 79.7218 341.108C79.9138 340.316 80.2078 339.626 80.6038 339.038C81.0118 338.438 81.5398 337.97 82.1878 337.634C82.8358 337.286 83.6218 337.112 84.5458 337.112C85.4938 337.112 86.2918 337.292 86.9398 337.652C87.5998 338.012 88.1218 338.498 88.5058 339.11C88.9018 339.722 89.1838 340.418 89.3518 341.198C89.5318 341.978 89.6218 342.794 89.6218 343.646C89.6218 344.486 89.5318 345.296 89.3518 346.076C89.1838 346.856 88.9018 347.552 88.5058 348.164C88.1098 348.776 87.5818 349.262 86.9218 349.622C86.2738 349.97 85.4758 350.144 84.5278 350.144ZM84.5278 348.092C85.1398 348.092 85.6318 347.948 86.0038 347.66C86.3878 347.372 86.6758 347.006 86.8678 346.562C87.0598 346.106 87.1858 345.62 87.2458 345.104C87.3178 344.588 87.3538 344.102 87.3538 343.646C87.3538 343.19 87.3238 342.71 87.2638 342.206C87.2038 341.69 87.0778 341.204 86.8858 340.748C86.6938 340.292 86.4118 339.92 86.0398 339.632C85.6678 339.344 85.1698 339.2 84.5458 339.2C83.9218 339.2 83.4178 339.344 83.0338 339.632C82.6618 339.92 82.3798 340.292 82.1878 340.748C81.9958 341.192 81.8638 341.672 81.7918 342.188C81.7318 342.704 81.7018 343.19 81.7018 343.646C81.7018 344.102 81.7318 344.588 81.7918 345.104C81.8518 345.608 81.9718 346.088 82.1518 346.544C82.3438 347 82.6258 347.372 82.9978 347.66C83.3818 347.948 83.8918 348.092 84.5278 348.092Z" fill="#030E09"/>
<rect x="243.5" y="69" width="203.5" height="90.6667" rx="16" fill="#8754EC" fill-opacity="0.15"/>
<path d="M260.718 102V92.102H264.148C264.876 92.102 265.501 92.2233 266.024 92.466C266.547 92.6993 266.943 93.0587 267.214 93.544C267.494 94.0293 267.634 94.6453 267.634 95.392C267.634 96.12 267.471 96.736 267.144 97.24C266.827 97.7347 266.388 98.108 265.828 98.36C265.268 98.612 264.624 98.738 263.896 98.738H261.936V102H260.718ZM261.936 97.632H263.84C264.596 97.632 265.207 97.4547 265.674 97.1C266.15 96.736 266.388 96.148 266.388 95.336C266.388 94.6267 266.197 94.0947 265.814 93.74C265.431 93.3853 264.857 93.208 264.092 93.208H261.936V97.632ZM269.284 102V94.622H270.432L270.488 95.77C270.675 95.4807 270.89 95.2473 271.132 95.07C271.384 94.8927 271.66 94.762 271.958 94.678C272.266 94.5847 272.598 94.538 272.952 94.538C273.018 94.538 273.078 94.538 273.134 94.538C273.2 94.538 273.265 94.538 273.33 94.538V95.658H272.896C272.318 95.658 271.846 95.784 271.482 96.036C271.128 96.2787 270.871 96.61 270.712 97.03C270.554 97.4407 270.474 97.898 270.474 98.402V102H269.284ZM277.618 102.084C276.844 102.084 276.195 101.925 275.672 101.608C275.15 101.281 274.758 100.833 274.496 100.264C274.244 99.6947 274.118 99.046 274.118 98.318C274.118 97.5807 274.249 96.932 274.51 96.372C274.772 95.8027 275.164 95.3547 275.686 95.028C276.209 94.7013 276.862 94.538 277.646 94.538C278.421 94.538 279.065 94.7013 279.578 95.028C280.101 95.3547 280.488 95.8027 280.74 96.372C281.002 96.932 281.132 97.5807 281.132 98.318C281.132 99.046 281.002 99.6947 280.74 100.264C280.479 100.833 280.087 101.281 279.564 101.608C279.051 101.925 278.402 102.084 277.618 102.084ZM277.618 101.034C278.16 101.034 278.598 100.913 278.934 100.67C279.28 100.427 279.532 100.101 279.69 99.69C279.858 99.2793 279.942 98.822 279.942 98.318C279.942 97.814 279.858 97.3567 279.69 96.946C279.532 96.5353 279.28 96.2087 278.934 95.966C278.598 95.7233 278.16 95.602 277.618 95.602C277.086 95.602 276.648 95.7233 276.302 95.966C275.966 96.2087 275.714 96.5353 275.546 96.946C275.388 97.3567 275.308 97.814 275.308 98.318C275.308 98.822 275.388 99.2793 275.546 99.69C275.714 100.101 275.966 100.427 276.302 100.67C276.648 100.913 277.086 101.034 277.618 101.034ZM281.38 104.52V103.484H281.884C282.22 103.484 282.477 103.428 282.654 103.316C282.841 103.204 282.967 103.036 283.032 102.812C283.107 102.597 283.144 102.331 283.144 102.014V94.622H284.334V102.14C284.334 102.681 284.255 103.129 284.096 103.484C283.947 103.839 283.704 104.1 283.368 104.268C283.032 104.436 282.584 104.52 282.024 104.52H281.38ZM283.732 93.53C283.49 93.53 283.294 93.4553 283.144 93.306C283.004 93.1567 282.934 92.9653 282.934 92.732C282.934 92.4987 283.009 92.312 283.158 92.172C283.308 92.0227 283.499 91.948 283.732 91.948C283.947 91.948 284.134 92.0227 284.292 92.172C284.46 92.3213 284.544 92.508 284.544 92.732C284.544 92.9653 284.465 93.1567 284.306 93.306C284.148 93.4553 283.956 93.53 283.732 93.53ZM289.527 102.084C288.743 102.084 288.094 101.925 287.581 101.608C287.068 101.281 286.685 100.833 286.433 100.264C286.181 99.6947 286.055 99.046 286.055 98.318C286.055 97.5807 286.186 96.932 286.447 96.372C286.718 95.8027 287.11 95.3547 287.623 95.028C288.136 94.7013 288.766 94.538 289.513 94.538C290.092 94.538 290.586 94.65 290.997 94.874C291.417 95.0887 291.762 95.378 292.033 95.742C292.304 96.106 292.5 96.5073 292.621 96.946C292.742 97.3753 292.794 97.8093 292.775 98.248C292.766 98.332 292.756 98.416 292.747 98.5C292.747 98.584 292.742 98.668 292.733 98.752H287.259C287.296 99.1813 287.404 99.5687 287.581 99.914C287.758 100.259 288.01 100.535 288.337 100.74C288.664 100.936 289.07 101.034 289.555 101.034C289.798 101.034 290.04 101.006 290.283 100.95C290.535 100.885 290.759 100.777 290.955 100.628C291.16 100.479 291.305 100.278 291.389 100.026H292.607C292.495 100.502 292.285 100.894 291.977 101.202C291.669 101.501 291.3 101.725 290.871 101.874C290.442 102.014 289.994 102.084 289.527 102.084ZM287.287 97.716H291.557C291.548 97.296 291.454 96.9273 291.277 96.61C291.1 96.2927 290.857 96.0453 290.549 95.868C290.25 95.6907 289.891 95.602 289.471 95.602C289.014 95.602 288.626 95.7 288.309 95.896C288.001 96.092 287.763 96.3487 287.595 96.666C287.427 96.9833 287.324 97.3333 287.287 97.716ZM297.675 102.084C296.901 102.084 296.257 101.925 295.743 101.608C295.239 101.281 294.861 100.833 294.609 100.264C294.367 99.6947 294.245 99.0507 294.245 98.332C294.245 97.632 294.371 96.9973 294.623 96.428C294.885 95.8493 295.277 95.392 295.799 95.056C296.331 94.7107 297.003 94.538 297.815 94.538C298.319 94.538 298.767 94.622 299.159 94.79C299.561 94.958 299.892 95.2053 300.153 95.532C300.415 95.8493 300.597 96.2507 300.699 96.736H299.481C299.341 96.3253 299.117 96.036 298.809 95.868C298.511 95.6907 298.156 95.602 297.745 95.602C297.185 95.602 296.737 95.7327 296.401 95.994C296.065 96.2553 295.818 96.596 295.659 97.016C295.51 97.4267 295.435 97.8653 295.435 98.332C295.435 98.8173 295.515 99.2653 295.673 99.676C295.832 100.087 296.079 100.418 296.415 100.67C296.751 100.913 297.185 101.034 297.717 101.034C298.109 101.034 298.478 100.95 298.823 100.782C299.178 100.614 299.411 100.315 299.523 99.886H300.755C300.662 100.39 300.461 100.805 300.153 101.132C299.855 101.459 299.486 101.701 299.047 101.86C298.618 102.009 298.161 102.084 297.675 102.084ZM305.064 102.084C304.289 102.084 303.743 101.874 303.426 101.454C303.118 101.034 302.964 100.437 302.964 99.662V95.672H301.76V94.622H302.964V92.41H304.154V94.622H306.422V95.672H304.154V99.508C304.154 99.788 304.177 100.045 304.224 100.278C304.27 100.502 304.368 100.684 304.518 100.824C304.667 100.955 304.891 101.025 305.19 101.034C305.404 101.034 305.591 100.997 305.75 100.922C305.918 100.847 306.058 100.759 306.17 100.656L306.688 101.524C306.529 101.655 306.361 101.762 306.184 101.846C306.016 101.93 305.838 101.991 305.652 102.028C305.474 102.065 305.278 102.084 305.064 102.084ZM310.558 102.084C310.222 102.084 309.882 102.051 309.536 101.986C309.2 101.921 308.883 101.809 308.584 101.65C308.295 101.491 308.052 101.277 307.856 101.006C307.66 100.735 307.534 100.399 307.478 99.998H308.682C308.776 100.25 308.925 100.455 309.13 100.614C309.345 100.763 309.583 100.871 309.844 100.936C310.115 101.001 310.372 101.034 310.614 101.034C310.764 101.034 310.936 101.025 311.132 101.006C311.328 100.987 311.515 100.945 311.692 100.88C311.879 100.805 312.028 100.698 312.14 100.558C312.262 100.418 312.322 100.222 312.322 99.97C312.322 99.7833 312.28 99.6293 312.196 99.508C312.112 99.3867 311.996 99.2887 311.846 99.214C311.697 99.13 311.515 99.0693 311.3 99.032C310.862 98.9387 310.39 98.85 309.886 98.766C309.392 98.682 308.953 98.5233 308.57 98.29C308.44 98.206 308.318 98.1127 308.206 98.01C308.104 97.898 308.015 97.7767 307.94 97.646C307.866 97.506 307.805 97.3567 307.758 97.198C307.721 97.03 307.702 96.848 307.702 96.652C307.702 96.288 307.772 95.9753 307.912 95.714C308.062 95.4433 308.267 95.224 308.528 95.056C308.79 94.8787 309.088 94.748 309.424 94.664C309.77 94.58 310.138 94.538 310.53 94.538C311.016 94.538 311.45 94.6173 311.832 94.776C312.224 94.9253 312.546 95.1493 312.798 95.448C313.05 95.7373 313.2 96.0967 313.246 96.526H312.14C312.075 96.2553 311.898 96.036 311.608 95.868C311.319 95.6907 310.95 95.602 310.502 95.602C310.353 95.602 310.185 95.616 309.998 95.644C309.812 95.6627 309.634 95.7093 309.466 95.784C309.298 95.8493 309.158 95.952 309.046 96.092C308.934 96.2227 308.878 96.4 308.878 96.624C308.878 96.8293 308.93 97.002 309.032 97.142C309.144 97.282 309.298 97.394 309.494 97.478C309.69 97.562 309.914 97.632 310.166 97.688C310.493 97.7533 310.852 97.8233 311.244 97.898C311.636 97.9633 311.944 98.0333 312.168 98.108C312.467 98.2013 312.714 98.332 312.91 98.5C313.116 98.668 313.265 98.8687 313.358 99.102C313.461 99.3353 313.512 99.606 313.512 99.914C313.512 100.353 313.424 100.712 313.246 100.992C313.078 101.272 312.85 101.491 312.56 101.65C312.271 101.809 311.949 101.921 311.594 101.986C311.249 102.051 310.904 102.084 310.558 102.084Z" fill="#030E09"/>
<path opacity="0.5" d="M417.5 107V105M421.5 107V105" stroke="#8754EC" stroke-width="1.5" stroke-linecap="round"/>
<path d="M418 105V105.75H418.75V105H418ZM421 104.25C420.801 104.25 420.61 104.329 420.47 104.47C420.329 104.61 420.25 104.801 420.25 105C420.25 105.199 420.329 105.39 420.47 105.53C420.61 105.671 420.801 105.75 421 105.75V104.25ZM424.5 90.25C424.301 90.25 424.11 90.329 423.97 90.4697C423.829 90.6103 423.75 90.8011 423.75 91C423.75 91.1989 423.829 91.3897 423.97 91.5303C424.11 91.671 424.301 91.75 424.5 91.75V90.25ZM414 90.25C413.801 90.25 413.61 90.329 413.47 90.4697C413.329 90.6103 413.25 90.8011 413.25 91C413.25 91.1989 413.329 91.3897 413.47 91.5303C413.61 91.671 413.801 91.75 414 91.75V90.25ZM416 104.25C415.801 104.25 415.61 104.329 415.47 104.47C415.329 104.61 415.25 104.801 415.25 105C415.25 105.199 415.329 105.39 415.47 105.53C415.61 105.671 415.801 105.75 416 105.75V104.25ZM422 105.75C422.199 105.75 422.39 105.671 422.53 105.53C422.671 105.39 422.75 105.199 422.75 105C422.75 104.801 422.671 104.61 422.53 104.47C422.39 104.329 422.199 104.25 422 104.25V105.75ZM417.25 96.25V105H418.75V96.25H417.25ZM418 104.25H411.233V105.75H418V104.25ZM409.75 102.395V96.25H408.25V102.395H409.75ZM411.233 104.25C410.518 104.25 409.75 103.532 409.75 102.395H408.25C408.25 104.135 409.481 105.75 411.233 105.75V104.25ZM413.5 91.75C415.467 91.75 417.25 93.652 417.25 96.25H418.75C418.75 93.049 416.504 90.25 413.5 90.25V91.75ZM413.5 90.25C410.496 90.25 408.25 93.049 408.25 96.25H409.75C409.75 93.652 411.533 91.75 413.5 91.75V90.25ZM428.25 96.25V102.425H429.75V96.25H428.25ZM426.793 104.25H421V105.75H426.793V104.25ZM428.25 102.425C428.25 103.545 427.493 104.25 426.793 104.25V105.75C428.531 105.75 429.75 104.149 429.75 102.425H428.25ZM429.75 96.25C429.75 93.049 427.504 90.25 424.5 90.25V91.75C426.467 91.75 428.25 93.652 428.25 96.25H429.75ZM414 91.75H425V90.25H414V91.75ZM416 105.75H422V104.25H416V105.75Z" fill="#8754EC"/>
<path d="M412 101H415" stroke="#8754EC" stroke-width="1.5" stroke-linecap="round"/>
<path opacity="0.5" d="M423 94.8837V90.4107M423 90.4107V87.6347C423 87.3987 423.168 87.1957 423.4 87.1507L423.886 87.0577C424.474 86.9445 425.082 86.9985 425.641 87.2137L425.721 87.2437C426.275 87.4577 426.881 87.4977 427.458 87.3587C427.523 87.3433 427.59 87.3428 427.655 87.357C427.719 87.3713 427.78 87.4001 427.832 87.4411C427.884 87.4822 427.927 87.5345 427.956 87.5942C427.985 87.6539 428 87.7194 428 87.7857V90.0067C428.001 90.1221 427.962 90.2343 427.891 90.3249C427.819 90.4155 427.719 90.4793 427.607 90.5057L427.541 90.5217C426.91 90.6738 426.247 90.6302 425.641 90.3967C425.082 90.1815 424.474 90.1275 423.886 90.2407L423 90.4107Z" stroke="#8754EC" stroke-width="1.5" stroke-linecap="round"/>
<path d="M264.864 136.81C264.3 136.81 263.742 136.744 263.19 136.612C262.638 136.48 262.134 136.276 261.678 136C261.222 135.712 260.838 135.34 260.526 134.884C260.226 134.428 260.034 133.876 259.95 133.228H262.182C262.29 133.6 262.482 133.894 262.758 134.11C263.046 134.326 263.376 134.488 263.748 134.596C264.12 134.692 264.498 134.74 264.882 134.74C265.158 134.74 265.434 134.716 265.71 134.668C265.986 134.62 266.244 134.53 266.484 134.398C266.724 134.266 266.916 134.08 267.06 133.84C267.204 133.6 267.276 133.288 267.276 132.904C267.276 132.556 267.21 132.268 267.078 132.04C266.958 131.812 266.784 131.638 266.556 131.518C266.34 131.386 266.088 131.296 265.8 131.248C265.524 131.188 265.23 131.158 264.918 131.158H263.514V129.232H264.432C264.78 129.232 265.098 129.196 265.386 129.124C265.674 129.052 265.926 128.95 266.142 128.818C266.358 128.674 266.52 128.494 266.628 128.278C266.748 128.062 266.808 127.804 266.808 127.504C266.808 127.072 266.712 126.736 266.52 126.496C266.34 126.256 266.094 126.088 265.782 125.992C265.47 125.884 265.128 125.83 264.756 125.83C264.42 125.83 264.096 125.884 263.784 125.992C263.472 126.088 263.202 126.238 262.974 126.442C262.746 126.646 262.602 126.904 262.542 127.216H260.346C260.418 126.616 260.592 126.1 260.868 125.668C261.144 125.236 261.486 124.882 261.894 124.606C262.314 124.318 262.782 124.108 263.298 123.976C263.814 123.844 264.348 123.778 264.9 123.778C265.44 123.778 265.956 123.838 266.448 123.958C266.952 124.078 267.396 124.276 267.78 124.552C268.164 124.816 268.47 125.164 268.698 125.596C268.926 126.028 269.04 126.556 269.04 127.18C269.04 127.576 268.974 127.948 268.842 128.296C268.71 128.644 268.518 128.95 268.266 129.214C268.026 129.478 267.732 129.694 267.384 129.862C267.864 129.994 268.266 130.21 268.59 130.51C268.914 130.798 269.154 131.146 269.31 131.554C269.478 131.962 269.562 132.412 269.562 132.904C269.562 133.672 269.418 134.314 269.13 134.83C268.854 135.334 268.482 135.73 268.014 136.018C267.558 136.306 267.054 136.51 266.502 136.63C265.95 136.75 265.404 136.81 264.864 136.81ZM275.995 136.81C275.431 136.81 274.897 136.744 274.393 136.612C273.889 136.468 273.433 136.252 273.025 135.964C272.617 135.676 272.275 135.31 271.999 134.866C271.735 134.41 271.555 133.876 271.459 133.264H273.673C273.769 133.528 273.925 133.774 274.141 134.002C274.369 134.23 274.639 134.41 274.951 134.542C275.275 134.674 275.623 134.74 275.995 134.74C276.499 134.74 276.931 134.656 277.291 134.488C277.651 134.308 277.933 134.056 278.137 133.732C278.341 133.396 278.443 132.994 278.443 132.526C278.443 131.83 278.227 131.284 277.795 130.888C277.375 130.492 276.799 130.294 276.067 130.294C275.635 130.294 275.233 130.372 274.861 130.528C274.489 130.672 274.141 130.876 273.817 131.14H271.819L272.161 123.94H280.279V125.992H274.231L274.015 129.034C274.375 128.782 274.789 128.596 275.257 128.476C275.725 128.344 276.235 128.284 276.787 128.296C277.603 128.308 278.305 128.488 278.893 128.836C279.493 129.172 279.949 129.64 280.261 130.24C280.573 130.84 280.729 131.548 280.729 132.364C280.729 133.312 280.519 134.116 280.099 134.776C279.691 135.436 279.127 135.94 278.407 136.288C277.699 136.636 276.895 136.81 275.995 136.81ZM287.483 136.81C286.595 136.81 285.833 136.642 285.197 136.306C284.561 135.97 284.045 135.514 283.649 134.938C283.253 134.362 282.959 133.702 282.767 132.958C282.587 132.214 282.497 131.434 282.497 130.618C282.497 129.694 282.593 128.824 282.785 128.008C282.989 127.18 283.301 126.454 283.721 125.83C284.141 125.194 284.681 124.696 285.341 124.336C286.013 123.964 286.805 123.778 287.717 123.778C288.401 123.778 289.031 123.898 289.607 124.138C290.195 124.378 290.687 124.738 291.083 125.218C291.479 125.698 291.749 126.298 291.893 127.018H289.733C289.565 126.634 289.289 126.34 288.905 126.136C288.533 125.92 288.119 125.812 287.663 125.812C287.195 125.812 286.787 125.902 286.439 126.082C286.103 126.25 285.815 126.478 285.575 126.766C285.335 127.042 285.143 127.366 284.999 127.738C284.855 128.11 284.747 128.494 284.675 128.89C284.603 129.286 284.567 129.676 284.567 130.06C284.855 129.64 285.185 129.316 285.557 129.088C285.929 128.848 286.319 128.68 286.727 128.584C287.135 128.476 287.519 128.422 287.879 128.422C288.731 128.422 289.457 128.59 290.057 128.926C290.669 129.262 291.143 129.736 291.479 130.348C291.815 130.948 291.983 131.656 291.983 132.472C291.983 133.348 291.791 134.11 291.407 134.758C291.023 135.406 290.489 135.91 289.805 136.27C289.133 136.63 288.359 136.81 287.483 136.81ZM287.465 134.776C287.933 134.764 288.335 134.662 288.671 134.47C289.007 134.278 289.265 134.02 289.445 133.696C289.637 133.36 289.733 132.994 289.733 132.598C289.733 132.178 289.643 131.806 289.463 131.482C289.283 131.146 289.025 130.882 288.689 130.69C288.365 130.486 287.975 130.384 287.519 130.384C287.087 130.384 286.691 130.48 286.331 130.672C285.971 130.852 285.683 131.11 285.467 131.446C285.251 131.77 285.143 132.148 285.143 132.58C285.143 132.976 285.239 133.342 285.431 133.678C285.635 134.002 285.911 134.266 286.259 134.47C286.607 134.674 287.009 134.776 287.465 134.776Z" fill="#030E09"/>
<rect x="243.5" y="175.666" width="203.5" height="90.6667" rx="16" fill="#F6B51E" fill-opacity="0.15"/>
<path d="M260.718 208.666V198.768H264.148C264.876 198.768 265.501 198.889 266.024 199.132C266.547 199.365 266.943 199.725 267.214 200.21C267.494 200.695 267.634 201.311 267.634 202.058C267.634 202.786 267.471 203.402 267.144 203.906C266.827 204.401 266.388 204.774 265.828 205.026C265.268 205.278 264.624 205.404 263.896 205.404H261.936V208.666H260.718ZM261.936 204.298H263.84C264.596 204.298 265.207 204.121 265.674 203.766C266.15 203.402 266.388 202.814 266.388 202.002C266.388 201.293 266.197 200.761 265.814 200.406C265.431 200.051 264.857 199.874 264.092 199.874H261.936V204.298ZM271.377 208.75C271.041 208.75 270.714 208.708 270.397 208.624C270.089 208.531 269.809 208.395 269.557 208.218C269.314 208.031 269.118 207.803 268.969 207.532C268.829 207.252 268.759 206.93 268.759 206.566C268.759 206.146 268.834 205.791 268.983 205.502C269.142 205.213 269.352 204.984 269.613 204.816C269.874 204.648 270.178 204.527 270.523 204.452C270.868 204.377 271.228 204.34 271.601 204.34H273.771C273.771 203.92 273.71 203.556 273.589 203.248C273.477 202.94 273.29 202.702 273.029 202.534C272.768 202.357 272.422 202.268 271.993 202.268C271.732 202.268 271.489 202.296 271.265 202.352C271.041 202.408 270.85 202.497 270.691 202.618C270.532 202.739 270.416 202.903 270.341 203.108H269.067C269.132 202.772 269.258 202.487 269.445 202.254C269.641 202.011 269.874 201.815 270.145 201.666C270.425 201.507 270.724 201.391 271.041 201.316C271.358 201.241 271.676 201.204 271.993 201.204C273.057 201.204 273.813 201.517 274.261 202.142C274.709 202.767 274.933 203.612 274.933 204.676V208.666H273.939L273.869 207.728C273.664 208.008 273.416 208.223 273.127 208.372C272.838 208.521 272.539 208.619 272.231 208.666C271.932 208.722 271.648 208.75 271.377 208.75ZM271.489 207.7C271.956 207.7 272.357 207.625 272.693 207.476C273.038 207.317 273.304 207.089 273.491 206.79C273.678 206.491 273.771 206.127 273.771 205.698V205.334H272.469C272.161 205.334 271.858 205.339 271.559 205.348C271.26 205.357 270.99 205.395 270.747 205.46C270.504 205.525 270.308 205.637 270.159 205.796C270.019 205.955 269.949 206.183 269.949 206.482C269.949 206.762 270.019 206.991 270.159 207.168C270.308 207.345 270.5 207.481 270.733 207.574C270.976 207.658 271.228 207.7 271.489 207.7ZM280.053 211.97C279.483 211.97 278.933 211.891 278.401 211.732C277.878 211.573 277.407 211.298 276.987 210.906L277.505 209.968C277.869 210.257 278.256 210.486 278.667 210.654C279.087 210.822 279.525 210.906 279.983 210.906C280.748 210.906 281.294 210.682 281.621 210.234C281.957 209.795 282.125 209.235 282.125 208.554V207.672C281.957 207.924 281.742 208.134 281.481 208.302C281.229 208.461 280.949 208.582 280.641 208.666C280.333 208.741 280.015 208.778 279.689 208.778C278.961 208.778 278.387 208.633 277.967 208.344C277.547 208.055 277.248 207.653 277.071 207.14C276.893 206.627 276.805 206.034 276.805 205.362V201.288H277.995V205.026C277.995 205.362 278.013 205.693 278.051 206.02C278.097 206.337 278.186 206.627 278.317 206.888C278.447 207.14 278.639 207.345 278.891 207.504C279.143 207.653 279.479 207.728 279.899 207.728C280.431 207.728 280.855 207.597 281.173 207.336C281.499 207.075 281.733 206.725 281.873 206.286C282.022 205.847 282.097 205.362 282.097 204.83V201.288H283.287V208.666C283.287 209.198 283.217 209.669 283.077 210.08C282.937 210.491 282.727 210.836 282.447 211.116C282.167 211.396 281.826 211.606 281.425 211.746C281.033 211.895 280.575 211.97 280.053 211.97ZM285.186 208.666V201.288H286.334L286.39 202.436C286.577 202.147 286.791 201.913 287.034 201.736C287.286 201.559 287.561 201.428 287.86 201.344C288.168 201.251 288.499 201.204 288.854 201.204C288.919 201.204 288.98 201.204 289.036 201.204C289.101 201.204 289.167 201.204 289.232 201.204V202.324H288.798C288.219 202.324 287.748 202.45 287.384 202.702C287.029 202.945 286.773 203.276 286.614 203.696C286.455 204.107 286.376 204.564 286.376 205.068V208.666H285.186ZM293.52 208.75C292.745 208.75 292.097 208.591 291.574 208.274C291.051 207.947 290.659 207.499 290.398 206.93C290.146 206.361 290.02 205.712 290.02 204.984C290.02 204.247 290.151 203.598 290.412 203.038C290.673 202.469 291.065 202.021 291.588 201.694C292.111 201.367 292.764 201.204 293.548 201.204C294.323 201.204 294.967 201.367 295.48 201.694C296.003 202.021 296.39 202.469 296.642 203.038C296.903 203.598 297.034 204.247 297.034 204.984C297.034 205.712 296.903 206.361 296.642 206.93C296.381 207.499 295.989 207.947 295.466 208.274C294.953 208.591 294.304 208.75 293.52 208.75ZM293.52 207.7C294.061 207.7 294.5 207.579 294.836 207.336C295.181 207.093 295.433 206.767 295.592 206.356C295.76 205.945 295.844 205.488 295.844 204.984C295.844 204.48 295.76 204.023 295.592 203.612C295.433 203.201 295.181 202.875 294.836 202.632C294.5 202.389 294.061 202.268 293.52 202.268C292.988 202.268 292.549 202.389 292.204 202.632C291.868 202.875 291.616 203.201 291.448 203.612C291.289 204.023 291.21 204.48 291.21 204.984C291.21 205.488 291.289 205.945 291.448 206.356C291.616 206.767 291.868 207.093 292.204 207.336C292.549 207.579 292.988 207.7 293.52 207.7ZM298.654 208.666V198.768H299.844V208.666H298.654ZM301.745 208.666V198.768H302.935V208.666H301.745Z" fill="#030E09"/>
<path opacity="0.5" d="M419 213.666C424.523 213.666 429 209.189 429 203.666C429 198.143 424.523 193.666 419 193.666C413.477 193.666 409 198.143 409 203.666C409 209.189 413.477 213.666 419 213.666Z" stroke="#F6B51E" stroke-width="1.5"/>
<path d="M419 208.666V209.666M419 208.666C420.657 208.666 422 207.546 422 206.166C422 204.786 420.657 203.666 419 203.666C417.343 203.666 416 202.546 416 201.166C416 199.786 417.343 198.666 419 198.666M419 208.666C417.343 208.666 416 207.546 416 206.166M419 197.666V198.666M419 198.666C420.657 198.666 422 199.786 422 201.166" stroke="#F6B51E" stroke-width="1.5" stroke-linecap="round"/>
<path d="M264.468 245.852V243.35C263.796 243.254 263.172 243.062 262.596 242.774C262.02 242.486 261.54 242.084 261.156 241.568C260.784 241.04 260.538 240.386 260.418 239.606H262.704C262.848 240.074 263.076 240.44 263.388 240.704C263.712 240.968 264.084 241.154 264.504 241.262C264.936 241.37 265.38 241.424 265.836 241.424C266.256 241.424 266.64 241.37 266.988 241.262C267.348 241.154 267.636 240.98 267.852 240.74C268.08 240.5 268.194 240.194 268.194 239.822C268.194 239.51 268.122 239.258 267.978 239.066C267.846 238.874 267.66 238.718 267.42 238.598C267.192 238.478 266.922 238.376 266.61 238.292C266.13 238.148 265.662 238.034 265.206 237.95C264.762 237.854 264.336 237.752 263.928 237.644C263.532 237.536 263.154 237.398 262.794 237.23C262.206 236.942 261.732 236.558 261.372 236.078C261.024 235.598 260.85 234.938 260.85 234.098C260.85 233.342 261.024 232.712 261.372 232.208C261.72 231.692 262.176 231.296 262.74 231.02C263.304 230.732 263.91 230.564 264.558 230.516V228.05H266.664V230.552C267.312 230.624 267.894 230.81 268.41 231.11C268.926 231.41 269.34 231.818 269.652 232.334C269.964 232.838 270.126 233.45 270.138 234.17H267.942C267.906 233.774 267.768 233.45 267.528 233.198C267.3 232.946 267.006 232.766 266.646 232.658C266.286 232.538 265.89 232.478 265.458 232.478C265.086 232.478 264.714 232.526 264.342 232.622C263.982 232.706 263.682 232.862 263.442 233.09C263.214 233.306 263.1 233.618 263.1 234.026C263.1 234.278 263.16 234.506 263.28 234.71C263.4 234.902 263.562 235.064 263.766 235.196C263.97 235.328 264.204 235.436 264.468 235.52C264.912 235.688 265.404 235.826 265.944 235.934C266.484 236.042 266.988 236.168 267.456 236.312C268.068 236.48 268.596 236.69 269.04 236.942C269.496 237.182 269.844 237.512 270.084 237.932C270.336 238.34 270.462 238.874 270.462 239.534C270.462 240.374 270.288 241.064 269.94 241.604C269.592 242.144 269.124 242.564 268.536 242.864C267.948 243.164 267.294 243.344 266.574 243.404V245.852H264.468ZM276.656 243.476C275.972 243.476 275.324 243.362 274.712 243.134C274.112 242.894 273.602 242.534 273.182 242.054C272.762 241.574 272.486 240.974 272.354 240.254H274.604C274.772 240.638 275.06 240.932 275.468 241.136C275.888 241.328 276.326 241.424 276.782 241.424C277.334 241.424 277.79 241.316 278.15 241.1C278.522 240.872 278.816 240.572 279.032 240.2C279.26 239.816 279.422 239.396 279.518 238.94C279.614 238.472 279.662 237.998 279.662 237.518C279.662 237.458 279.662 237.398 279.662 237.338C279.662 237.278 279.662 237.224 279.662 237.176C279.41 237.596 279.098 237.926 278.726 238.166C278.354 238.394 277.958 238.562 277.538 238.67C277.118 238.766 276.71 238.814 276.314 238.814C275.558 238.814 274.874 238.658 274.262 238.346C273.65 238.034 273.164 237.578 272.804 236.978C272.444 236.366 272.264 235.634 272.264 234.782C272.264 233.87 272.468 233.09 272.876 232.442C273.284 231.794 273.836 231.302 274.532 230.966C275.24 230.618 276.026 230.444 276.89 230.444C277.826 230.444 278.606 230.636 279.23 231.02C279.854 231.404 280.352 231.92 280.724 232.568C281.096 233.204 281.36 233.912 281.516 234.692C281.672 235.472 281.75 236.264 281.75 237.068C281.75 237.956 281.654 238.79 281.462 239.57C281.282 240.338 280.988 241.016 280.58 241.604C280.184 242.192 279.662 242.654 279.014 242.99C278.366 243.314 277.58 243.476 276.656 243.476ZM276.782 236.888C277.25 236.888 277.658 236.792 278.006 236.6C278.366 236.396 278.642 236.132 278.834 235.808C279.026 235.472 279.116 235.112 279.104 234.728C279.104 234.272 279.002 233.882 278.798 233.558C278.606 233.222 278.336 232.958 277.988 232.766C277.64 232.574 277.25 232.478 276.818 232.478C276.35 232.478 275.942 232.58 275.594 232.784C275.258 232.988 274.994 233.258 274.802 233.594C274.61 233.93 274.514 234.29 274.514 234.674C274.514 235.334 274.712 235.868 275.108 236.276C275.504 236.684 276.062 236.888 276.782 236.888ZM288.538 243.476C287.65 243.476 286.888 243.308 286.252 242.972C285.616 242.636 285.1 242.18 284.704 241.604C284.308 241.028 284.014 240.368 283.822 239.624C283.642 238.88 283.552 238.1 283.552 237.284C283.552 236.36 283.648 235.49 283.84 234.674C284.044 233.846 284.356 233.12 284.776 232.496C285.196 231.86 285.736 231.362 286.396 231.002C287.068 230.63 287.86 230.444 288.772 230.444C289.456 230.444 290.086 230.564 290.662 230.804C291.25 231.044 291.742 231.404 292.138 231.884C292.534 232.364 292.804 232.964 292.948 233.684H290.788C290.62 233.3 290.344 233.006 289.96 232.802C289.588 232.586 289.174 232.478 288.718 232.478C288.25 232.478 287.842 232.568 287.494 232.748C287.158 232.916 286.87 233.144 286.63 233.432C286.39 233.708 286.198 234.032 286.054 234.404C285.91 234.776 285.802 235.16 285.73 235.556C285.658 235.952 285.622 236.342 285.622 236.726C285.91 236.306 286.24 235.982 286.612 235.754C286.984 235.514 287.374 235.346 287.782 235.25C288.19 235.142 288.574 235.088 288.934 235.088C289.786 235.088 290.512 235.256 291.112 235.592C291.724 235.928 292.198 236.402 292.534 237.014C292.87 237.614 293.038 238.322 293.038 239.138C293.038 240.014 292.846 240.776 292.462 241.424C292.078 242.072 291.544 242.576 290.86 242.936C290.188 243.296 289.414 243.476 288.538 243.476ZM288.52 241.442C288.988 241.43 289.39 241.328 289.726 241.136C290.062 240.944 290.32 240.686 290.5 240.362C290.692 240.026 290.788 239.66 290.788 239.264C290.788 238.844 290.698 238.472 290.518 238.148C290.338 237.812 290.08 237.548 289.744 237.356C289.42 237.152 289.03 237.05 288.574 237.05C288.142 237.05 287.746 237.146 287.386 237.338C287.026 237.518 286.738 237.776 286.522 238.112C286.306 238.436 286.198 238.814 286.198 239.246C286.198 239.642 286.294 240.008 286.486 240.344C286.69 240.668 286.966 240.932 287.314 241.136C287.662 241.34 288.064 241.442 288.52 241.442ZM294.965 243.332V230.606H297.161V237.644H298.529L301.031 233.846H303.497L300.419 238.364L303.749 243.332H301.193L298.655 239.57H297.161V243.332H294.965Z" fill="#030E09"/>
<rect x="243.5" y="282.334" width="203.5" height="90.6667" rx="16" fill="#EF4444" fill-opacity="0.15"/>
<path d="M260.718 315.334V305.436H267.368V306.542H261.936V309.874H266.822V310.994H261.936V314.228H267.368V315.334H260.718ZM271.013 315.334L268.171 307.956H269.515L271.839 314.186L274.121 307.956H275.479L272.637 315.334H271.013ZM279.737 315.418C278.953 315.418 278.304 315.259 277.791 314.942C277.277 314.615 276.895 314.167 276.643 313.598C276.391 313.029 276.265 312.38 276.265 311.652C276.265 310.915 276.395 310.266 276.657 309.706C276.927 309.137 277.319 308.689 277.833 308.362C278.346 308.035 278.976 307.872 279.723 307.872C280.301 307.872 280.796 307.984 281.207 308.208C281.627 308.423 281.972 308.712 282.243 309.076C282.513 309.44 282.709 309.841 282.831 310.28C282.952 310.709 283.003 311.143 282.985 311.582C282.975 311.666 282.966 311.75 282.957 311.834C282.957 311.918 282.952 312.002 282.943 312.086H277.469C277.506 312.515 277.613 312.903 277.791 313.248C277.968 313.593 278.22 313.869 278.547 314.074C278.873 314.27 279.279 314.368 279.765 314.368C280.007 314.368 280.25 314.34 280.493 314.284C280.745 314.219 280.969 314.111 281.165 313.962C281.37 313.813 281.515 313.612 281.599 313.36H282.817C282.705 313.836 282.495 314.228 282.187 314.536C281.879 314.835 281.51 315.059 281.081 315.208C280.651 315.348 280.203 315.418 279.737 315.418ZM277.497 311.05H281.767C281.757 310.63 281.664 310.261 281.487 309.944C281.309 309.627 281.067 309.379 280.759 309.202C280.46 309.025 280.101 308.936 279.681 308.936C279.223 308.936 278.836 309.034 278.519 309.23C278.211 309.426 277.973 309.683 277.805 310C277.637 310.317 277.534 310.667 277.497 311.05ZM284.598 315.334V307.956H285.746L285.802 309.076C285.97 308.805 286.185 308.581 286.446 308.404C286.708 308.227 286.992 308.096 287.3 308.012C287.618 307.919 287.926 307.872 288.224 307.872C288.943 307.872 289.503 308.021 289.904 308.32C290.315 308.619 290.604 309.025 290.772 309.538C290.95 310.042 291.038 310.616 291.038 311.26V315.334H289.848V311.582C289.848 311.237 289.825 310.905 289.778 310.588C289.741 310.271 289.657 309.986 289.526 309.734C289.405 309.482 289.228 309.286 288.994 309.146C288.761 308.997 288.448 308.922 288.056 308.922C287.571 308.922 287.156 309.057 286.81 309.328C286.474 309.599 286.218 309.963 286.04 310.42C285.872 310.877 285.788 311.391 285.788 311.96V315.334H284.598ZM295.67 315.418C294.895 315.418 294.349 315.208 294.032 314.788C293.724 314.368 293.57 313.771 293.57 312.996V309.006H292.366V307.956H293.57V305.744H294.76V307.956H297.028V309.006H294.76V312.842C294.76 313.122 294.783 313.379 294.83 313.612C294.876 313.836 294.974 314.018 295.124 314.158C295.273 314.289 295.497 314.359 295.796 314.368C296.01 314.368 296.197 314.331 296.356 314.256C296.524 314.181 296.664 314.093 296.776 313.99L297.294 314.858C297.135 314.989 296.967 315.096 296.79 315.18C296.622 315.264 296.444 315.325 296.258 315.362C296.08 315.399 295.884 315.418 295.67 315.418ZM301.164 315.418C300.828 315.418 300.488 315.385 300.142 315.32C299.806 315.255 299.489 315.143 299.19 314.984C298.901 314.825 298.658 314.611 298.462 314.34C298.266 314.069 298.14 313.733 298.084 313.332H299.288C299.382 313.584 299.531 313.789 299.736 313.948C299.951 314.097 300.189 314.205 300.45 314.27C300.721 314.335 300.978 314.368 301.22 314.368C301.37 314.368 301.542 314.359 301.738 314.34C301.934 314.321 302.121 314.279 302.298 314.214C302.485 314.139 302.634 314.032 302.746 313.892C302.868 313.752 302.928 313.556 302.928 313.304C302.928 313.117 302.886 312.963 302.802 312.842C302.718 312.721 302.602 312.623 302.452 312.548C302.303 312.464 302.121 312.403 301.906 312.366C301.468 312.273 300.996 312.184 300.492 312.1C299.998 312.016 299.559 311.857 299.176 311.624C299.046 311.54 298.924 311.447 298.812 311.344C298.71 311.232 298.621 311.111 298.546 310.98C298.472 310.84 298.411 310.691 298.364 310.532C298.327 310.364 298.308 310.182 298.308 309.986C298.308 309.622 298.378 309.309 298.518 309.048C298.668 308.777 298.873 308.558 299.134 308.39C299.396 308.213 299.694 308.082 300.03 307.998C300.376 307.914 300.744 307.872 301.136 307.872C301.622 307.872 302.056 307.951 302.438 308.11C302.83 308.259 303.152 308.483 303.404 308.782C303.656 309.071 303.806 309.431 303.852 309.86H302.746C302.681 309.589 302.504 309.37 302.214 309.202C301.925 309.025 301.556 308.936 301.108 308.936C300.959 308.936 300.791 308.95 300.604 308.978C300.418 308.997 300.24 309.043 300.072 309.118C299.904 309.183 299.764 309.286 299.652 309.426C299.54 309.557 299.484 309.734 299.484 309.958C299.484 310.163 299.536 310.336 299.638 310.476C299.75 310.616 299.904 310.728 300.1 310.812C300.296 310.896 300.52 310.966 300.772 311.022C301.099 311.087 301.458 311.157 301.85 311.232C302.242 311.297 302.55 311.367 302.774 311.442C303.073 311.535 303.32 311.666 303.516 311.834C303.722 312.002 303.871 312.203 303.964 312.436C304.067 312.669 304.118 312.94 304.118 313.248C304.118 313.687 304.03 314.046 303.852 314.326C303.684 314.606 303.456 314.825 303.166 314.984C302.877 315.143 302.555 315.255 302.2 315.32C301.855 315.385 301.51 315.418 301.164 315.418Z" fill="#030E09"/>
<path d="M428 314.424V309.432C428 305.142 428 302.999 426.682 301.666C425.364 300.334 423.242 300.334 419 300.334C414.758 300.334 412.636 300.334 411.318 301.666C410 302.998 410 305.144 410 309.432V314.425C410 317.521 410 319.07 410.734 319.746C411.084 320.069 411.526 320.272 411.997 320.326C412.984 320.439 414.137 319.419 416.442 317.38C417.462 316.479 417.971 316.028 418.56 315.91C418.85 315.85 419.15 315.85 419.44 315.91C420.03 316.028 420.539 316.479 421.558 317.38C423.863 319.419 425.016 320.439 426.003 320.325C426.473 320.272 426.916 320.069 427.266 319.746C428 319.07 428 317.521 428 314.424Z" stroke="#EF4444" stroke-width="1.5"/>
<path opacity="0.5" d="M422 304.334H416" stroke="#EF4444" stroke-width="1.5" stroke-linecap="round"/>
<path d="M264.72 350.144C264.036 350.144 263.388 350.03 262.776 349.802C262.176 349.562 261.666 349.202 261.246 348.722C260.826 348.242 260.55 347.642 260.418 346.922H262.668C262.836 347.306 263.124 347.6 263.532 347.804C263.952 347.996 264.39 348.092 264.846 348.092C265.398 348.092 265.854 347.984 266.214 347.768C266.586 347.54 266.88 347.24 267.096 346.868C267.324 346.484 267.486 346.064 267.582 345.608C267.678 345.14 267.726 344.666 267.726 344.186C267.726 344.126 267.726 344.066 267.726 344.006C267.726 343.946 267.726 343.892 267.726 343.844C267.474 344.264 267.162 344.594 266.79 344.834C266.418 345.062 266.022 345.23 265.602 345.338C265.182 345.434 264.774 345.482 264.378 345.482C263.622 345.482 262.938 345.326 262.326 345.014C261.714 344.702 261.228 344.246 260.868 343.646C260.508 343.034 260.328 342.302 260.328 341.45C260.328 340.538 260.532 339.758 260.94 339.11C261.348 338.462 261.9 337.97 262.596 337.634C263.304 337.286 264.09 337.112 264.954 337.112C265.89 337.112 266.67 337.304 267.294 337.688C267.918 338.072 268.416 338.588 268.788 339.236C269.16 339.872 269.424 340.58 269.58 341.36C269.736 342.14 269.814 342.932 269.814 343.736C269.814 344.624 269.718 345.458 269.526 346.238C269.346 347.006 269.052 347.684 268.644 348.272C268.248 348.86 267.726 349.322 267.078 349.658C266.43 349.982 265.644 350.144 264.72 350.144ZM264.846 343.556C265.314 343.556 265.722 343.46 266.07 343.268C266.43 343.064 266.706 342.8 266.898 342.476C267.09 342.14 267.18 341.78 267.168 341.396C267.168 340.94 267.066 340.55 266.862 340.226C266.67 339.89 266.4 339.626 266.052 339.434C265.704 339.242 265.314 339.146 264.882 339.146C264.414 339.146 264.006 339.248 263.658 339.452C263.322 339.656 263.058 339.926 262.866 340.262C262.674 340.598 262.578 340.958 262.578 341.342C262.578 342.002 262.776 342.536 263.172 342.944C263.568 343.352 264.126 343.556 264.846 343.556ZM276.602 350.144C275.714 350.144 274.952 349.976 274.316 349.64C273.68 349.304 273.164 348.848 272.768 348.272C272.372 347.696 272.078 347.036 271.886 346.292C271.706 345.548 271.616 344.768 271.616 343.952C271.616 343.028 271.712 342.158 271.904 341.342C272.108 340.514 272.42 339.788 272.84 339.164C273.26 338.528 273.8 338.03 274.46 337.67C275.132 337.298 275.924 337.112 276.836 337.112C277.52 337.112 278.15 337.232 278.726 337.472C279.314 337.712 279.806 338.072 280.202 338.552C280.598 339.032 280.868 339.632 281.012 340.352H278.852C278.684 339.968 278.408 339.674 278.024 339.47C277.652 339.254 277.238 339.146 276.782 339.146C276.314 339.146 275.906 339.236 275.558 339.416C275.222 339.584 274.934 339.812 274.694 340.1C274.454 340.376 274.262 340.7 274.118 341.072C273.974 341.444 273.866 341.828 273.794 342.224C273.722 342.62 273.686 343.01 273.686 343.394C273.974 342.974 274.304 342.65 274.676 342.422C275.048 342.182 275.438 342.014 275.846 341.918C276.254 341.81 276.638 341.756 276.998 341.756C277.85 341.756 278.576 341.924 279.176 342.26C279.788 342.596 280.262 343.07 280.598 343.682C280.934 344.282 281.102 344.99 281.102 345.806C281.102 346.682 280.91 347.444 280.526 348.092C280.142 348.74 279.608 349.244 278.924 349.604C278.252 349.964 277.478 350.144 276.602 350.144ZM276.584 348.11C277.052 348.098 277.454 347.996 277.79 347.804C278.126 347.612 278.384 347.354 278.564 347.03C278.756 346.694 278.852 346.328 278.852 345.932C278.852 345.512 278.762 345.14 278.582 344.816C278.402 344.48 278.144 344.216 277.808 344.024C277.484 343.82 277.094 343.718 276.638 343.718C276.206 343.718 275.81 343.814 275.45 344.006C275.09 344.186 274.802 344.444 274.586 344.78C274.37 345.104 274.262 345.482 274.262 345.914C274.262 346.31 274.358 346.676 274.55 347.012C274.754 347.336 275.03 347.6 275.378 347.804C275.726 348.008 276.128 348.11 276.584 348.11Z" fill="#030E09"/>
</svg>
