<svg width="273" height="380" viewBox="0 0 273 380" fill="none" xmlns="http://www.w3.org/2000/svg">
<rect width="273" height="380" rx="16" fill="white"/>
<rect x="0.5" y="0.5" width="272" height="379" rx="15.5" stroke="#030E09" stroke-opacity="0.05"/>
<path d="M30.606 42.144C29.394 42.144 28.398 41.91 27.618 41.442C26.838 40.962 26.262 40.29 25.89 39.426C25.518 38.562 25.332 37.542 25.332 36.366V29.274H27.582V36.42C27.582 37.068 27.672 37.674 27.852 38.238C28.044 38.79 28.362 39.234 28.806 39.57C29.262 39.906 29.874 40.074 30.642 40.074C31.422 40.074 32.022 39.906 32.442 39.57C32.874 39.222 33.174 38.772 33.342 38.22C33.522 37.668 33.612 37.068 33.612 36.42V29.274H35.88V36.366C35.88 37.53 35.694 38.544 35.322 39.408C34.95 40.272 34.38 40.944 33.612 41.424C32.844 41.904 31.842 42.144 30.606 42.144ZM41.777 42.126C41.321 42.126 40.865 42.078 40.409 41.982C39.965 41.886 39.545 41.73 39.149 41.514C38.753 41.286 38.423 40.98 38.159 40.596C37.895 40.212 37.721 39.732 37.637 39.156H39.851C39.947 39.42 40.097 39.636 40.301 39.804C40.517 39.96 40.763 40.08 41.039 40.164C41.327 40.236 41.609 40.272 41.885 40.272C42.053 40.272 42.233 40.26 42.425 40.236C42.629 40.212 42.815 40.164 42.983 40.092C43.163 40.02 43.307 39.918 43.415 39.786C43.523 39.642 43.577 39.456 43.577 39.228C43.577 39.012 43.517 38.844 43.397 38.724C43.277 38.592 43.115 38.49 42.911 38.418C42.707 38.334 42.461 38.268 42.173 38.22C41.657 38.112 41.105 37.998 40.517 37.878C39.929 37.746 39.419 37.542 38.987 37.266C38.807 37.158 38.651 37.032 38.519 36.888C38.387 36.744 38.273 36.588 38.177 36.42C38.093 36.24 38.027 36.048 37.979 35.844C37.943 35.64 37.925 35.418 37.925 35.178C37.925 34.674 38.027 34.248 38.231 33.9C38.447 33.54 38.729 33.252 39.077 33.036C39.437 32.808 39.845 32.64 40.301 32.532C40.757 32.424 41.225 32.37 41.705 32.37C42.353 32.37 42.941 32.472 43.469 32.676C43.997 32.88 44.435 33.192 44.783 33.612C45.143 34.032 45.359 34.566 45.431 35.214H43.343C43.283 34.914 43.097 34.674 42.785 34.494C42.485 34.314 42.101 34.224 41.633 34.224C41.465 34.224 41.291 34.242 41.111 34.278C40.931 34.302 40.757 34.35 40.589 34.422C40.433 34.482 40.301 34.578 40.193 34.71C40.097 34.842 40.049 35.004 40.049 35.196C40.049 35.376 40.091 35.532 40.175 35.664C40.271 35.796 40.409 35.91 40.589 36.006C40.781 36.09 41.003 36.162 41.255 36.222C41.663 36.306 42.089 36.39 42.533 36.474C42.977 36.558 43.361 36.642 43.685 36.726C44.069 36.834 44.417 36.99 44.729 37.194C45.041 37.386 45.281 37.644 45.449 37.968C45.629 38.28 45.719 38.682 45.719 39.174C45.719 39.75 45.599 40.23 45.359 40.614C45.131 40.998 44.825 41.298 44.441 41.514C44.057 41.73 43.631 41.886 43.163 41.982C42.695 42.078 42.233 42.126 41.777 42.126ZM51.6183 42.126C50.6343 42.126 49.7943 41.922 49.0983 41.514C48.4143 41.106 47.8923 40.542 47.5323 39.822C47.1843 39.09 47.0103 38.244 47.0103 37.284C47.0103 36.324 47.1903 35.478 47.5503 34.746C47.9223 34.002 48.4503 33.42 49.1343 33C49.8303 32.58 50.6643 32.37 51.6363 32.37C52.3563 32.37 52.9863 32.502 53.5263 32.766C54.0663 33.018 54.5163 33.366 54.8763 33.81C55.2483 34.254 55.5243 34.758 55.7043 35.322C55.8843 35.886 55.9683 36.48 55.9563 37.104C55.9443 37.248 55.9323 37.392 55.9203 37.536C55.9083 37.668 55.8903 37.812 55.8663 37.968H49.2063C49.2423 38.388 49.3503 38.772 49.5303 39.12C49.7223 39.468 49.9863 39.744 50.3223 39.948C50.6703 40.152 51.1023 40.254 51.6183 40.254C51.9183 40.254 52.2063 40.218 52.4823 40.146C52.7583 40.062 52.9983 39.942 53.2023 39.786C53.4183 39.63 53.5623 39.432 53.6343 39.192H55.8303C55.6743 39.876 55.3863 40.434 54.9663 40.866C54.5463 41.298 54.0423 41.616 53.4543 41.82C52.8783 42.024 52.2663 42.126 51.6183 42.126ZM49.2423 36.33H53.8143C53.8143 35.934 53.7243 35.574 53.5443 35.25C53.3643 34.926 53.1063 34.674 52.7703 34.494C52.4463 34.302 52.0503 34.206 51.5823 34.206C51.0783 34.206 50.6583 34.308 50.3223 34.512C49.9863 34.716 49.7283 34.98 49.5483 35.304C49.3683 35.628 49.2663 35.97 49.2423 36.33ZM57.7423 42V32.514H59.7403L59.8663 33.756C60.1063 33.396 60.3763 33.12 60.6763 32.928C60.9883 32.724 61.3183 32.58 61.6663 32.496C62.0263 32.412 62.3863 32.37 62.7463 32.37C62.8783 32.37 62.9983 32.37 63.1063 32.37C63.2263 32.37 63.3223 32.376 63.3943 32.388V34.476H62.8183C62.1943 34.476 61.6663 34.596 61.2343 34.836C60.8023 35.076 60.4783 35.418 60.2623 35.862C60.0463 36.306 59.9383 36.852 59.9383 37.5V42H57.7423ZM68.7774 42L73.6554 29.274H76.3374L81.1974 42H78.7674L77.9214 39.642H72.0534L71.1894 42H68.7774ZM72.7734 37.608H77.1834L74.9874 31.542L72.7734 37.608ZM86.5477 42.126C85.5637 42.126 84.7357 41.928 84.0637 41.532C83.3917 41.124 82.8817 40.554 82.5337 39.822C82.1857 39.09 82.0117 38.244 82.0117 37.284C82.0117 36.324 82.1917 35.478 82.5517 34.746C82.9117 34.002 83.4397 33.42 84.1357 33C84.8317 32.58 85.6777 32.37 86.6737 32.37C87.4057 32.37 88.0538 32.496 88.6177 32.748C89.1938 33 89.6557 33.372 90.0037 33.864C90.3637 34.344 90.5917 34.944 90.6878 35.664H88.5278C88.3838 35.208 88.1438 34.878 87.8078 34.674C87.4838 34.458 87.0937 34.35 86.6377 34.35C86.0257 34.35 85.5397 34.5 85.1797 34.8C84.8317 35.088 84.5797 35.454 84.4237 35.898C84.2677 36.342 84.1897 36.804 84.1897 37.284C84.1897 37.788 84.2737 38.262 84.4417 38.706C84.6097 39.138 84.8677 39.486 85.2157 39.75C85.5757 40.014 86.0377 40.146 86.6017 40.146C87.0577 40.146 87.4657 40.044 87.8257 39.84C88.1977 39.636 88.4377 39.306 88.5457 38.85H90.7778C90.6938 39.582 90.4478 40.194 90.0397 40.686C89.6437 41.166 89.1398 41.526 88.5278 41.766C87.9158 42.006 87.2557 42.126 86.5477 42.126ZM96.6024 42C95.8344 42 95.1984 41.898 94.6944 41.694C94.2024 41.49 93.8304 41.16 93.5784 40.704C93.3384 40.248 93.2184 39.636 93.2184 38.868V34.458H91.7604V32.514H93.2184V29.868H95.4144V32.514H97.6284V34.458H95.4144V38.58C95.4144 39.06 95.4984 39.426 95.6664 39.678C95.8344 39.93 96.2124 40.056 96.8004 40.056H97.5564V42H96.6024ZM99.1254 42V32.514H101.321V42H99.1254ZM100.223 31.416C99.8034 31.416 99.4674 31.29 99.2154 31.038C98.9634 30.786 98.8374 30.456 98.8374 30.048C98.8374 29.652 98.9694 29.328 99.2334 29.076C99.4974 28.812 99.8274 28.68 100.223 28.68C100.607 28.68 100.937 28.806 101.213 29.058C101.489 29.31 101.627 29.64 101.627 30.048C101.627 30.456 101.495 30.786 101.231 31.038C100.967 31.29 100.631 31.416 100.223 31.416ZM105.898 42L102.46 32.514H104.89L107.392 40.128L109.876 32.514H112.288L108.85 42H105.898ZM113.418 42V32.514H115.614V42H113.418ZM114.516 31.416C114.096 31.416 113.76 31.29 113.508 31.038C113.256 30.786 113.13 30.456 113.13 30.048C113.13 29.652 113.262 29.328 113.526 29.076C113.79 28.812 114.12 28.68 114.516 28.68C114.9 28.68 115.23 28.806 115.506 29.058C115.782 29.31 115.92 29.64 115.92 30.048C115.92 30.456 115.788 30.786 115.524 31.038C115.26 31.29 114.924 31.416 114.516 31.416ZM121.558 42.108C120.514 42.108 119.752 41.82 119.272 41.244C118.792 40.668 118.552 39.87 118.552 38.85V34.458H117.094V32.514H118.552V29.85H120.748V32.514H123.628V34.458H120.748V38.436C120.748 38.748 120.784 39.03 120.856 39.282C120.928 39.534 121.06 39.732 121.252 39.876C121.444 40.02 121.708 40.098 122.044 40.11C122.332 40.11 122.578 40.062 122.782 39.966C122.986 39.87 123.154 39.762 123.286 39.642L124.024 41.316C123.796 41.508 123.538 41.664 123.25 41.784C122.974 41.904 122.692 41.988 122.404 42.036C122.116 42.084 121.834 42.108 121.558 42.108ZM129.444 46.338C128.712 46.338 127.998 46.236 127.302 46.032C126.618 45.84 125.982 45.51 125.394 45.042L126.186 43.278C126.594 43.602 127.05 43.854 127.554 44.034C128.058 44.226 128.61 44.322 129.21 44.322C130.158 44.322 130.848 44.082 131.28 43.602C131.724 43.122 131.946 42.468 131.946 41.64V40.938C131.73 41.214 131.466 41.442 131.154 41.622C130.842 41.802 130.506 41.934 130.146 42.018C129.786 42.102 129.42 42.144 129.048 42.144C128.124 42.144 127.386 41.958 126.834 41.586C126.294 41.202 125.904 40.68 125.664 40.02C125.424 39.348 125.304 38.586 125.304 37.734V32.514H127.482V37.248C127.482 37.584 127.506 37.926 127.554 38.274C127.602 38.622 127.698 38.94 127.842 39.228C127.986 39.516 128.196 39.75 128.472 39.93C128.76 40.098 129.138 40.182 129.606 40.182C130.218 40.182 130.692 40.032 131.028 39.732C131.364 39.432 131.592 39.042 131.712 38.562C131.844 38.082 131.91 37.572 131.91 37.032V32.514H134.106V41.1C134.106 41.904 134.022 42.624 133.854 43.26C133.686 43.908 133.416 44.46 133.044 44.916C132.672 45.372 132.192 45.72 131.604 45.96C131.016 46.212 130.296 46.338 129.444 46.338Z" fill="#030E09"/>
<rect x="36.5" y="192" width="8" height="35" rx="4" fill="#C2FD75"/>
<rect x="36.5" y="230" width="8" height="48" rx="4" fill="#053B25"/>
<path d="M36.4053 298V289.516H37.9893L40.5333 294.184L43.0413 289.516H44.5893V298H43.5453V290.62L40.7493 295.78H40.2693L37.4493 290.62V298H36.4053Z" fill="#030E09" fill-opacity="0.6"/>
<rect x="68.5" y="167" width="8" height="63" rx="4" fill="#C2FD75"/>
<rect x="68.5" y="233" width="8" height="48" rx="4" fill="#053B25"/>
<path d="M71.976 298V290.464H69.252V289.516H75.744V290.464H73.02V298H71.976Z" fill="#030E09" fill-opacity="0.6"/>
<rect x="100.5" y="128" width="8" height="77" rx="4" fill="#C2FD75"/>
<rect x="100.5" y="208" width="8" height="69" rx="4" fill="#053B25"/>
<path d="M101.072 298L98.7676 289.516H99.9436L101.876 297.1L103.724 289.516H105.32L107.168 297.1L109.1 289.516H110.228L107.924 298H106.34L104.492 290.512L102.644 298H101.072Z" fill="#030E09" fill-opacity="0.6"/>
<rect x="132.5" y="150" width="8" height="65" rx="4" fill="#C2FD75"/>
<rect x="132.5" y="218" width="8" height="60" rx="4" fill="#053B25"/>
<path d="M135.976 298V290.464H133.252V289.516H139.744V290.464H137.02V298H135.976Z" fill="#030E09" fill-opacity="0.6"/>
<rect x="164.5" y="134" width="8" height="51" rx="4" fill="#C2FD75"/>
<rect x="164.5" y="188" width="8" height="90" rx="4" fill="#053B25"/>
<path d="M165.952 298V289.516H171.652V290.464H166.996V293.644H171.064V294.604H166.996V298H165.952Z" fill="#030E09" fill-opacity="0.6"/>
<rect x="196.5" y="91" width="8" height="71" rx="4" fill="#C2FD75"/>
<rect x="196.5" y="165" width="8" height="113" rx="4" fill="#053B25"/>
<path d="M200.69 298.096C200.154 298.096 199.646 298.024 199.166 297.88C198.694 297.728 198.29 297.484 197.954 297.148C197.618 296.804 197.39 296.348 197.27 295.78H198.362C198.474 296.14 198.654 296.42 198.902 296.62C199.158 296.82 199.45 296.96 199.778 297.04C200.106 297.112 200.434 297.148 200.762 297.148C201.09 297.148 201.394 297.104 201.674 297.016C201.962 296.92 202.194 296.768 202.37 296.56C202.554 296.352 202.646 296.084 202.646 295.756C202.646 295.5 202.598 295.292 202.502 295.132C202.414 294.972 202.286 294.844 202.118 294.748C201.958 294.644 201.766 294.56 201.542 294.496C201.246 294.4 200.93 294.32 200.594 294.256C200.258 294.192 199.926 294.116 199.598 294.028C199.278 293.94 198.978 293.828 198.698 293.692C198.546 293.612 198.398 293.516 198.254 293.404C198.118 293.284 197.998 293.148 197.894 292.996C197.798 292.836 197.718 292.656 197.654 292.456C197.598 292.256 197.57 292.036 197.57 291.796C197.57 291.436 197.626 291.124 197.738 290.86C197.85 290.596 198.002 290.372 198.194 290.188C198.386 290.004 198.61 289.856 198.866 289.744C199.122 289.632 199.394 289.552 199.682 289.504C199.978 289.448 200.274 289.42 200.57 289.42C201.058 289.42 201.514 289.496 201.938 289.648C202.37 289.792 202.726 290.028 203.006 290.356C203.294 290.684 203.45 291.128 203.474 291.688H202.454C202.414 291.352 202.302 291.088 202.118 290.896C201.934 290.704 201.706 290.568 201.434 290.488C201.162 290.408 200.874 290.368 200.57 290.368C200.346 290.368 200.118 290.388 199.886 290.428C199.662 290.468 199.454 290.54 199.262 290.644C199.078 290.74 198.93 290.876 198.818 291.052C198.706 291.22 198.65 291.436 198.65 291.7C198.65 291.908 198.686 292.092 198.758 292.252C198.838 292.412 198.942 292.548 199.07 292.66C199.206 292.764 199.354 292.852 199.514 292.924C199.898 293.084 200.322 293.204 200.786 293.284C201.258 293.356 201.698 293.464 202.106 293.608C202.346 293.688 202.566 293.788 202.766 293.908C202.966 294.028 203.134 294.168 203.27 294.328C203.414 294.488 203.522 294.672 203.594 294.88C203.674 295.08 203.714 295.308 203.714 295.564C203.714 296.028 203.634 296.424 203.474 296.752C203.314 297.072 203.094 297.332 202.814 297.532C202.534 297.732 202.21 297.876 201.842 297.964C201.482 298.052 201.098 298.096 200.69 298.096Z" fill="#030E09" fill-opacity="0.6"/>
<rect x="228.5" y="165" width="8" height="61" rx="4" fill="#C2FD75"/>
<rect x="228.5" y="229" width="8" height="49" rx="4" fill="#053B25"/>
<path d="M232.69 298.096C232.154 298.096 231.646 298.024 231.166 297.88C230.694 297.728 230.29 297.484 229.954 297.148C229.618 296.804 229.39 296.348 229.27 295.78H230.362C230.474 296.14 230.654 296.42 230.902 296.62C231.158 296.82 231.45 296.96 231.778 297.04C232.106 297.112 232.434 297.148 232.762 297.148C233.09 297.148 233.394 297.104 233.674 297.016C233.962 296.92 234.194 296.768 234.37 296.56C234.554 296.352 234.646 296.084 234.646 295.756C234.646 295.5 234.598 295.292 234.502 295.132C234.414 294.972 234.286 294.844 234.118 294.748C233.958 294.644 233.766 294.56 233.542 294.496C233.246 294.4 232.93 294.32 232.594 294.256C232.258 294.192 231.926 294.116 231.598 294.028C231.278 293.94 230.978 293.828 230.698 293.692C230.546 293.612 230.398 293.516 230.254 293.404C230.118 293.284 229.998 293.148 229.894 292.996C229.798 292.836 229.718 292.656 229.654 292.456C229.598 292.256 229.57 292.036 229.57 291.796C229.57 291.436 229.626 291.124 229.738 290.86C229.85 290.596 230.002 290.372 230.194 290.188C230.386 290.004 230.61 289.856 230.866 289.744C231.122 289.632 231.394 289.552 231.682 289.504C231.978 289.448 232.274 289.42 232.57 289.42C233.058 289.42 233.514 289.496 233.938 289.648C234.37 289.792 234.726 290.028 235.006 290.356C235.294 290.684 235.45 291.128 235.474 291.688H234.454C234.414 291.352 234.302 291.088 234.118 290.896C233.934 290.704 233.706 290.568 233.434 290.488C233.162 290.408 232.874 290.368 232.57 290.368C232.346 290.368 232.118 290.388 231.886 290.428C231.662 290.468 231.454 290.54 231.262 290.644C231.078 290.74 230.93 290.876 230.818 291.052C230.706 291.22 230.65 291.436 230.65 291.7C230.65 291.908 230.686 292.092 230.758 292.252C230.838 292.412 230.942 292.548 231.07 292.66C231.206 292.764 231.354 292.852 231.514 292.924C231.898 293.084 232.322 293.204 232.786 293.284C233.258 293.356 233.698 293.464 234.106 293.608C234.346 293.688 234.566 293.788 234.766 293.908C234.966 294.028 235.134 294.168 235.27 294.328C235.414 294.488 235.522 294.672 235.594 294.88C235.674 295.08 235.714 295.308 235.714 295.564C235.714 296.028 235.634 296.424 235.474 296.752C235.314 297.072 235.094 297.332 234.814 297.532C234.534 297.732 234.21 297.876 233.842 297.964C233.482 298.052 233.098 298.096 232.69 298.096Z" fill="#030E09" fill-opacity="0.6"/>
<circle cx="48" cy="331.5" r="4" fill="#C2FD75"/>
<path d="M63.348 335L60.168 326.516H61.308L64.104 334.1L66.9 326.516H68.028L64.86 335H63.348ZM69.0194 335V328.676H70.0394V335H69.0194ZM69.5234 327.74C69.3154 327.74 69.1474 327.676 69.0194 327.548C68.8994 327.42 68.8394 327.256 68.8394 327.056C68.8394 326.856 68.9034 326.696 69.0314 326.576C69.1594 326.448 69.3234 326.384 69.5234 326.384C69.7074 326.384 69.8674 326.448 70.0034 326.576C70.1474 326.704 70.2194 326.864 70.2194 327.056C70.2194 327.256 70.1514 327.42 70.0154 327.548C69.8794 327.676 69.7154 327.74 69.5234 327.74ZM74.4044 335.072C73.7324 335.072 73.1764 334.936 72.7364 334.664C72.2964 334.384 71.9684 334 71.7524 333.512C71.5364 333.024 71.4284 332.468 71.4284 331.844C71.4284 331.212 71.5404 330.656 71.7644 330.176C71.9964 329.688 72.3324 329.304 72.7724 329.024C73.2124 328.744 73.7524 328.604 74.3924 328.604C74.8884 328.604 75.3124 328.7 75.6644 328.892C76.0244 329.076 76.3204 329.324 76.5524 329.636C76.7844 329.948 76.9524 330.292 77.0564 330.668C77.1604 331.036 77.2044 331.408 77.1884 331.784C77.1804 331.856 77.1724 331.928 77.1644 332C77.1644 332.072 77.1604 332.144 77.1524 332.216H72.4604C72.4924 332.584 72.5844 332.916 72.7364 333.212C72.8884 333.508 73.1044 333.744 73.3844 333.92C73.6644 334.088 74.0124 334.172 74.4284 334.172C74.6364 334.172 74.8444 334.148 75.0524 334.1C75.2684 334.044 75.4604 333.952 75.6284 333.824C75.8044 333.696 75.9284 333.524 76.0004 333.308H77.0444C76.9484 333.716 76.7684 334.052 76.5044 334.316C76.2404 334.572 75.9244 334.764 75.5564 334.892C75.1884 335.012 74.8044 335.072 74.4044 335.072ZM72.4844 331.328H76.1444C76.1364 330.968 76.0564 330.652 75.9044 330.38C75.7524 330.108 75.5444 329.896 75.2804 329.744C75.0244 329.592 74.7164 329.516 74.3564 329.516C73.9644 329.516 73.6324 329.6 73.3604 329.768C73.0964 329.936 72.8924 330.156 72.7484 330.428C72.6044 330.7 72.5164 331 72.4844 331.328ZM79.8793 335L77.9113 328.676H79.0633L80.5753 334.016L82.1353 328.676H83.5153L85.0873 334.016L86.5753 328.676H87.7393L85.7713 335H84.3793L82.8193 329.876L81.2593 335H79.8793ZM91.4446 335.072C90.7726 335.072 90.2166 334.936 89.7766 334.664C89.3366 334.384 89.0086 334 88.7926 333.512C88.5766 333.024 88.4686 332.468 88.4686 331.844C88.4686 331.212 88.5806 330.656 88.8046 330.176C89.0366 329.688 89.3726 329.304 89.8126 329.024C90.2526 328.744 90.7926 328.604 91.4326 328.604C91.9286 328.604 92.3526 328.7 92.7046 328.892C93.0646 329.076 93.3606 329.324 93.5926 329.636C93.8246 329.948 93.9926 330.292 94.0966 330.668C94.2006 331.036 94.2446 331.408 94.2286 331.784C94.2206 331.856 94.2126 331.928 94.2046 332C94.2046 332.072 94.2006 332.144 94.1926 332.216H89.5006C89.5326 332.584 89.6246 332.916 89.7766 333.212C89.9286 333.508 90.1446 333.744 90.4246 333.92C90.7046 334.088 91.0526 334.172 91.4686 334.172C91.6766 334.172 91.8846 334.148 92.0926 334.1C92.3086 334.044 92.5006 333.952 92.6686 333.824C92.8446 333.696 92.9686 333.524 93.0406 333.308H94.0846C93.9886 333.716 93.8086 334.052 93.5446 334.316C93.2806 334.572 92.9646 334.764 92.5966 334.892C92.2286 335.012 91.8446 335.072 91.4446 335.072ZM89.5246 331.328H93.1846C93.1766 330.968 93.0966 330.652 92.9446 330.38C92.7926 330.108 92.5846 329.896 92.3206 329.744C92.0646 329.592 91.7566 329.516 91.3966 329.516C91.0046 329.516 90.6726 329.6 90.4006 329.768C90.1366 329.936 89.9326 330.156 89.7886 330.428C89.6446 330.7 89.5566 331 89.5246 331.328ZM98.1435 335.072C97.5115 335.072 96.9915 334.932 96.5835 334.652C96.1755 334.364 95.8715 333.98 95.6715 333.5C95.4715 333.012 95.3715 332.464 95.3715 331.856C95.3715 331.248 95.4715 330.7 95.6715 330.212C95.8715 329.716 96.1795 329.324 96.5955 329.036C97.0115 328.748 97.5435 328.604 98.1915 328.604C98.4395 328.604 98.6875 328.636 98.9355 328.7C99.1915 328.756 99.4315 328.848 99.6555 328.976C99.8795 329.096 100.071 329.26 100.231 329.468V326.516H101.251V335H100.279L100.231 334.052C100.087 334.292 99.9035 334.488 99.6795 334.64C99.4635 334.784 99.2235 334.892 98.9595 334.964C98.6955 335.036 98.4235 335.072 98.1435 335.072ZM98.2875 334.172C98.7115 334.172 99.0675 334.064 99.3555 333.848C99.6435 333.632 99.8635 333.344 100.015 332.984C100.167 332.624 100.243 332.232 100.243 331.808C100.243 331.368 100.167 330.976 100.015 330.632C99.8715 330.288 99.6555 330.016 99.3675 329.816C99.0795 329.616 98.7155 329.516 98.2755 329.516C97.8195 329.516 97.4515 329.62 97.1715 329.828C96.8995 330.036 96.6995 330.32 96.5715 330.68C96.4515 331.032 96.3915 331.428 96.3915 331.868C96.3915 332.188 96.4235 332.488 96.4875 332.768C96.5595 333.04 96.6675 333.284 96.8115 333.5C96.9635 333.708 97.1595 333.872 97.3995 333.992C97.6395 334.112 97.9355 334.172 98.2875 334.172Z" fill="#030E09" fill-opacity="0.6"/>
<path d="M46.732 358.128C45.9533 358.128 45.2867 357.984 44.732 357.696C44.1773 357.397 43.724 356.992 43.372 356.48C43.02 355.968 42.764 355.387 42.604 354.736C42.444 354.075 42.364 353.387 42.364 352.672C42.364 351.84 42.4493 351.056 42.62 350.32C42.7907 349.584 43.0573 348.933 43.42 348.368C43.7933 347.803 44.268 347.36 44.844 347.04C45.4307 346.72 46.1293 346.56 46.94 346.56C47.516 346.56 48.0493 346.661 48.54 346.864C49.0413 347.056 49.468 347.349 49.82 347.744C50.172 348.139 50.4227 348.635 50.572 349.232H48.876C48.7053 348.859 48.4387 348.576 48.076 348.384C47.7133 348.192 47.324 348.096 46.908 348.096C46.4493 348.096 46.0547 348.181 45.724 348.352C45.404 348.512 45.132 348.736 44.908 349.024C44.684 349.301 44.5027 349.621 44.364 349.984C44.2253 350.347 44.124 350.725 44.06 351.12C43.996 351.504 43.964 351.883 43.964 352.256C44.22 351.883 44.508 351.584 44.828 351.36C45.1587 351.136 45.5107 350.976 45.884 350.88C46.2573 350.773 46.6253 350.72 46.988 350.72C47.7453 350.72 48.396 350.875 48.94 351.184C49.484 351.483 49.9053 351.904 50.204 352.448C50.5133 352.981 50.668 353.605 50.668 354.32C50.668 355.077 50.4973 355.744 50.156 356.32C49.8253 356.896 49.3613 357.344 48.764 357.664C48.1773 357.973 47.5 358.128 46.732 358.128ZM46.716 356.592C47.164 356.592 47.5533 356.496 47.884 356.304C48.2253 356.112 48.4867 355.856 48.668 355.536C48.86 355.205 48.956 354.843 48.956 354.448C48.956 354.032 48.8653 353.659 48.684 353.328C48.5027 352.997 48.2467 352.736 47.916 352.544C47.596 352.341 47.2173 352.24 46.78 352.24C46.364 352.24 45.9747 352.336 45.612 352.528C45.26 352.709 44.9773 352.965 44.764 353.296C44.5507 353.616 44.444 353.995 44.444 354.432C44.444 354.827 44.54 355.189 44.732 355.52C44.924 355.84 45.1907 356.101 45.532 356.304C45.884 356.496 46.2787 356.592 46.716 356.592ZM52.9247 358L57.4207 348.24H51.6287V346.688H59.3088V348.016L54.7967 358H52.9247ZM64.6181 358.128C64.0955 358.128 63.5888 358.069 63.0981 357.952C62.6075 357.835 62.1648 357.648 61.7701 357.392C61.3861 357.125 61.0768 356.779 60.8421 356.352C60.6075 355.925 60.4901 355.403 60.4901 354.784C60.4901 354.357 60.5595 353.973 60.6981 353.632C60.8368 353.28 61.0395 352.976 61.3061 352.72C61.5835 352.464 61.9035 352.261 62.2661 352.112C61.8928 351.909 61.5995 351.669 61.3861 351.392C61.1728 351.104 61.0288 350.8 60.9541 350.48C60.8795 350.16 60.8421 349.856 60.8421 349.568C60.8421 349.024 60.9488 348.565 61.1621 348.192C61.3755 347.808 61.6635 347.499 62.0261 347.264C62.3888 347.019 62.7941 346.843 63.2421 346.736C63.6901 346.619 64.1541 346.56 64.6341 346.56C65.1035 346.56 65.5621 346.619 66.0101 346.736C66.4581 346.843 66.8635 347.019 67.2261 347.264C67.5888 347.509 67.8768 347.824 68.0901 348.208C68.3035 348.592 68.4101 349.056 68.4101 349.6C68.4101 349.877 68.3675 350.171 68.2821 350.48C68.2075 350.789 68.0635 351.083 67.8501 351.36C67.6368 351.637 67.3381 351.872 66.9541 352.064C67.3381 352.213 67.6635 352.421 67.9301 352.688C68.2075 352.955 68.4155 353.264 68.5541 353.616C68.6928 353.968 68.7621 354.363 68.7621 354.8C68.7621 355.408 68.6448 355.925 68.4101 356.352C68.1755 356.779 67.8555 357.125 67.4501 357.392C67.0555 357.648 66.6128 357.835 66.1221 357.952C65.6421 358.069 65.1408 358.128 64.6181 358.128ZM64.6181 356.592C64.8741 356.592 65.1408 356.565 65.4181 356.512C65.6955 356.459 65.9568 356.368 66.2021 356.24C66.4475 356.101 66.6448 355.915 66.7941 355.68C66.9541 355.435 67.0341 355.131 67.0341 354.768C67.0341 354.32 66.9221 353.968 66.6981 353.712C66.4741 353.445 66.1755 353.253 65.8021 353.136C65.4395 353.008 65.0448 352.944 64.6181 352.944C64.2021 352.944 63.8075 353.008 63.4341 353.136C63.0715 353.253 62.7728 353.445 62.5381 353.712C62.3141 353.968 62.2021 354.32 62.2021 354.768C62.2021 355.131 62.2768 355.435 62.4261 355.68C62.5861 355.915 62.7888 356.101 63.0341 356.24C63.2901 356.368 63.5568 356.459 63.8341 356.512C64.1115 356.565 64.3728 356.592 64.6181 356.592ZM64.6341 351.536C65.0181 351.536 65.3595 351.472 65.6581 351.344C65.9675 351.216 66.2181 351.029 66.4101 350.784C66.6021 350.528 66.6981 350.219 66.6981 349.856C66.7088 349.429 66.6181 349.088 66.4261 348.832C66.2341 348.565 65.9781 348.373 65.6581 348.256C65.3488 348.128 65.0021 348.064 64.6181 348.064C64.2235 348.064 63.8661 348.128 63.5461 348.256C63.2368 348.373 62.9915 348.56 62.8101 348.816C62.6395 349.072 62.5541 349.397 62.5541 349.792C62.5541 350.187 62.6501 350.517 62.8421 350.784C63.0341 351.04 63.2848 351.232 63.5941 351.36C63.9141 351.477 64.2608 351.536 64.6341 351.536ZM71.1149 360.112L70.6509 359.424C70.8002 359.328 70.9495 359.2 71.0989 359.04C71.2589 358.891 71.3975 358.725 71.5149 358.544C71.6322 358.373 71.7175 358.208 71.7709 358.048C71.4722 358.027 71.2269 357.925 71.0349 357.744C70.8429 357.563 70.7469 357.317 70.7469 357.008C70.7575 356.677 70.8695 356.421 71.0829 356.24C71.3069 356.048 71.5575 355.952 71.8349 355.952C72.1975 355.952 72.4855 356.085 72.6989 356.352C72.9122 356.608 73.0189 356.96 73.0189 357.408C73.0189 357.792 72.9282 358.171 72.7469 358.544C72.5655 358.917 72.3309 359.243 72.0429 359.52C71.7549 359.797 71.4455 359.995 71.1149 360.112ZM78.6895 358.128C78.1028 358.128 77.5535 358.032 77.0415 357.84C76.5295 357.648 76.0868 357.355 75.7135 356.96C75.3508 356.555 75.1055 356.053 74.9775 355.456H76.7375C76.9082 355.84 77.1908 356.128 77.5855 356.32C77.9908 356.501 78.4015 356.592 78.8175 356.592C79.3508 356.592 79.7935 356.485 80.1455 356.272C80.4975 356.048 80.7748 355.749 80.9775 355.376C81.1908 354.992 81.3402 354.571 81.4255 354.112C81.5215 353.643 81.5695 353.163 81.5695 352.672C81.5695 352.619 81.5695 352.565 81.5695 352.512C81.5695 352.448 81.5695 352.395 81.5695 352.352C81.3562 352.736 81.0788 353.045 80.7375 353.28C80.4068 353.515 80.0442 353.68 79.6495 353.776C79.2548 353.872 78.8602 353.92 78.4655 353.92C77.8042 353.92 77.1962 353.787 76.6415 353.52C76.0975 353.243 75.6655 352.837 75.3455 352.304C75.0255 351.771 74.8655 351.125 74.8655 350.368C74.8655 349.589 75.0362 348.917 75.3775 348.352C75.7295 347.776 76.2095 347.333 76.8175 347.024C77.4255 346.715 78.1135 346.56 78.8815 346.56C79.7135 346.56 80.4068 346.731 80.9615 347.072C81.5162 347.413 81.9535 347.877 82.2735 348.464C82.5935 349.04 82.8175 349.68 82.9455 350.384C83.0842 351.077 83.1535 351.776 83.1535 352.48C83.1535 353.269 83.0735 354.005 82.9135 354.688C82.7535 355.371 82.4975 355.973 82.1455 356.496C81.7935 357.008 81.3295 357.408 80.7535 357.696C80.1882 357.984 79.5002 358.128 78.6895 358.128ZM78.7855 352.432C79.2228 352.432 79.6122 352.341 79.9535 352.16C80.3055 351.968 80.5775 351.717 80.7695 351.408C80.9722 351.088 81.0735 350.731 81.0735 350.336C81.0735 349.888 80.9722 349.499 80.7695 349.168C80.5775 348.827 80.3108 348.565 79.9695 348.384C79.6388 348.192 79.2602 348.096 78.8335 348.096C78.3855 348.096 77.9908 348.192 77.6495 348.384C77.3188 348.576 77.0575 348.837 76.8655 349.168C76.6735 349.499 76.5775 349.861 76.5775 350.256C76.5775 350.917 76.7695 351.445 77.1535 351.84C77.5482 352.235 78.0922 352.432 78.7855 352.432ZM89.3314 358.128C88.5207 358.128 87.8327 357.984 87.2674 357.696C86.702 357.397 86.2434 356.987 85.8914 356.464C85.5394 355.931 85.278 355.317 85.1074 354.624C84.9474 353.92 84.8674 353.163 84.8674 352.352C84.8674 351.541 84.9474 350.789 85.1074 350.096C85.2674 349.392 85.5234 348.779 85.8754 348.256C86.238 347.723 86.702 347.307 87.2674 347.008C87.8434 346.709 88.5314 346.56 89.3314 346.56C90.1847 346.56 90.894 346.72 91.4594 347.04C92.0354 347.36 92.494 347.797 92.8354 348.352C93.1874 348.896 93.4327 349.515 93.5714 350.208C93.7207 350.901 93.7954 351.616 93.7954 352.352C93.7954 353.088 93.7207 353.803 93.5714 354.496C93.422 355.189 93.1767 355.808 92.8354 356.352C92.494 356.896 92.0354 357.328 91.4594 357.648C90.8834 357.968 90.174 358.128 89.3314 358.128ZM89.3314 356.576C89.918 356.576 90.3927 356.448 90.7554 356.192C91.118 355.925 91.3954 355.579 91.5874 355.152C91.7794 354.725 91.9074 354.267 91.9714 353.776C92.046 353.285 92.0834 352.811 92.0834 352.352C92.0834 351.904 92.046 351.435 91.9714 350.944C91.9074 350.443 91.7794 349.979 91.5874 349.552C91.3954 349.125 91.118 348.779 90.7554 348.512C90.4034 348.245 89.934 348.112 89.3474 348.112C88.75 348.112 88.2647 348.245 87.8914 348.512C87.5287 348.779 87.2514 349.125 87.0594 349.552C86.8674 349.979 86.7394 350.437 86.6754 350.928C86.6114 351.419 86.5794 351.893 86.5794 352.352C86.5794 352.811 86.6114 353.285 86.6754 353.776C86.7394 354.267 86.862 354.725 87.0434 355.152C87.2354 355.579 87.5127 355.925 87.8754 356.192C88.2487 356.448 88.734 356.576 89.3314 356.576ZM99.9728 358.128C99.1621 358.128 98.4741 357.984 97.9088 357.696C97.3434 357.397 96.8848 356.987 96.5328 356.464C96.1808 355.931 95.9194 355.317 95.7488 354.624C95.5888 353.92 95.5088 353.163 95.5088 352.352C95.5088 351.541 95.5888 350.789 95.7488 350.096C95.9088 349.392 96.1648 348.779 96.5168 348.256C96.8794 347.723 97.3434 347.307 97.9088 347.008C98.4848 346.709 99.1728 346.56 99.9728 346.56C100.826 346.56 101.535 346.72 102.101 347.04C102.677 347.36 103.135 347.797 103.477 348.352C103.829 348.896 104.074 349.515 104.213 350.208C104.362 350.901 104.437 351.616 104.437 352.352C104.437 353.088 104.362 353.803 104.213 354.496C104.063 355.189 103.818 355.808 103.477 356.352C103.135 356.896 102.677 357.328 102.101 357.648C101.525 357.968 100.815 358.128 99.9728 358.128ZM99.9728 356.576C100.559 356.576 101.034 356.448 101.397 356.192C101.759 355.925 102.037 355.579 102.229 355.152C102.421 354.725 102.549 354.267 102.613 353.776C102.687 353.285 102.725 352.811 102.725 352.352C102.725 351.904 102.687 351.435 102.613 350.944C102.549 350.443 102.421 349.979 102.229 349.552C102.037 349.125 101.759 348.779 101.397 348.512C101.045 348.245 100.575 348.112 99.9888 348.112C99.3914 348.112 98.9061 348.245 98.5328 348.512C98.1701 348.779 97.8928 349.125 97.7008 349.552C97.5088 349.979 97.3808 350.437 97.3168 350.928C97.2528 351.419 97.2208 351.893 97.2208 352.352C97.2208 352.811 97.2528 353.285 97.3168 353.776C97.3808 354.267 97.5034 354.725 97.6848 355.152C97.8768 355.579 98.1541 355.925 98.5168 356.192C98.8901 356.448 99.3754 356.576 99.9728 356.576Z" fill="#030E09"/>
<circle cx="164.5" cy="331.5" r="4" fill="#053B25"/>
<path d="M180.976 335.096C180.104 335.096 179.376 334.912 178.792 334.544C178.216 334.168 177.784 333.656 177.496 333.008C177.216 332.352 177.076 331.604 177.076 330.764C177.076 329.932 177.22 329.192 177.508 328.544C177.796 327.888 178.228 327.372 178.804 326.996C179.388 326.612 180.12 326.42 181 326.42C181.624 326.42 182.16 326.52 182.608 326.72C183.064 326.912 183.432 327.18 183.712 327.524C183.992 327.868 184.184 328.272 184.288 328.736H183.232C183.112 328.32 182.852 327.988 182.452 327.74C182.06 327.492 181.564 327.368 180.964 327.368C180.292 327.368 179.748 327.528 179.332 327.848C178.924 328.16 178.624 328.572 178.432 329.084C178.24 329.588 178.144 330.136 178.144 330.728C178.144 331.352 178.244 331.924 178.444 332.444C178.644 332.964 178.956 333.38 179.38 333.692C179.804 333.996 180.344 334.148 181 334.148C181.4 334.148 181.756 334.092 182.068 333.98C182.388 333.868 182.652 333.708 182.86 333.5C183.076 333.292 183.224 333.052 183.304 332.78H184.444C184.324 333.244 184.108 333.652 183.796 334.004C183.492 334.348 183.104 334.616 182.632 334.808C182.16 335 181.608 335.096 180.976 335.096ZM185.777 335V326.516H186.797V329.648C186.949 329.424 187.133 329.236 187.349 329.084C187.573 328.924 187.817 328.804 188.081 328.724C188.345 328.644 188.617 328.604 188.897 328.604C189.513 328.604 189.993 328.732 190.337 328.988C190.689 329.244 190.937 329.592 191.081 330.032C191.225 330.464 191.297 330.96 191.297 331.52V335H190.277V331.832C190.277 331.552 190.257 331.276 190.217 331.004C190.185 330.724 190.117 330.472 190.013 330.248C189.909 330.024 189.749 329.844 189.533 329.708C189.325 329.572 189.041 329.504 188.681 329.504C188.337 329.504 188.041 329.58 187.793 329.732C187.553 329.884 187.361 330.088 187.217 330.344C187.073 330.592 186.965 330.868 186.893 331.172C186.829 331.468 186.797 331.76 186.797 332.048V335H185.777ZM195.627 335.072C194.955 335.072 194.399 334.936 193.959 334.664C193.519 334.384 193.191 334 192.975 333.512C192.759 333.024 192.651 332.468 192.651 331.844C192.651 331.212 192.763 330.656 192.987 330.176C193.219 329.688 193.555 329.304 193.995 329.024C194.435 328.744 194.975 328.604 195.615 328.604C196.111 328.604 196.535 328.7 196.887 328.892C197.247 329.076 197.543 329.324 197.775 329.636C198.007 329.948 198.175 330.292 198.279 330.668C198.383 331.036 198.427 331.408 198.411 331.784C198.403 331.856 198.395 331.928 198.387 332C198.387 332.072 198.383 332.144 198.375 332.216H193.683C193.715 332.584 193.807 332.916 193.959 333.212C194.111 333.508 194.327 333.744 194.607 333.92C194.887 334.088 195.235 334.172 195.651 334.172C195.859 334.172 196.067 334.148 196.275 334.1C196.491 334.044 196.683 333.952 196.851 333.824C197.027 333.696 197.151 333.524 197.223 333.308H198.267C198.171 333.716 197.991 334.052 197.727 334.316C197.463 334.572 197.147 334.764 196.779 334.892C196.411 335.012 196.027 335.072 195.627 335.072ZM193.707 331.328H197.367C197.359 330.968 197.279 330.652 197.127 330.38C196.975 330.108 196.767 329.896 196.503 329.744C196.247 329.592 195.939 329.516 195.579 329.516C195.187 329.516 194.855 329.6 194.583 329.768C194.319 329.936 194.115 330.156 193.971 330.428C193.827 330.7 193.739 331 193.707 331.328ZM202.611 335.072C201.947 335.072 201.395 334.936 200.955 334.664C200.523 334.384 200.199 334 199.983 333.512C199.775 333.024 199.671 332.472 199.671 331.856C199.671 331.256 199.779 330.712 199.995 330.224C200.219 329.728 200.555 329.336 201.003 329.048C201.459 328.752 202.035 328.604 202.731 328.604C203.163 328.604 203.547 328.676 203.883 328.82C204.227 328.964 204.511 329.176 204.735 329.456C204.959 329.728 205.115 330.072 205.203 330.488H204.159C204.039 330.136 203.847 329.888 203.583 329.744C203.327 329.592 203.023 329.516 202.671 329.516C202.191 329.516 201.807 329.628 201.519 329.852C201.231 330.076 201.019 330.368 200.883 330.728C200.755 331.08 200.691 331.456 200.691 331.856C200.691 332.272 200.759 332.656 200.895 333.008C201.031 333.36 201.243 333.644 201.531 333.86C201.819 334.068 202.191 334.172 202.647 334.172C202.983 334.172 203.299 334.1 203.595 333.956C203.899 333.812 204.099 333.556 204.195 333.188H205.251C205.171 333.62 204.999 333.976 204.735 334.256C204.479 334.536 204.163 334.744 203.787 334.88C203.419 335.008 203.027 335.072 202.611 335.072ZM206.568 335V326.516H207.588V331.4H208.692L210.588 328.676H211.74L209.628 331.688L211.92 335H210.72L208.812 332.288H207.588V335H206.568ZM215.586 335.072C214.922 335.072 214.366 334.936 213.918 334.664C213.47 334.384 213.134 334 212.91 333.512C212.694 333.024 212.586 332.468 212.586 331.844C212.586 331.212 212.698 330.656 212.922 330.176C213.146 329.688 213.482 329.304 213.93 329.024C214.378 328.744 214.938 328.604 215.61 328.604C216.274 328.604 216.826 328.744 217.266 329.024C217.714 329.304 218.046 329.688 218.262 330.176C218.486 330.656 218.598 331.212 218.598 331.844C218.598 332.468 218.486 333.024 218.262 333.512C218.038 334 217.702 334.384 217.254 334.664C216.814 334.936 216.258 335.072 215.586 335.072ZM215.586 334.172C216.05 334.172 216.426 334.068 216.714 333.86C217.01 333.652 217.226 333.372 217.362 333.02C217.506 332.668 217.578 332.276 217.578 331.844C217.578 331.412 217.506 331.02 217.362 330.668C217.226 330.316 217.01 330.036 216.714 329.828C216.426 329.62 216.05 329.516 215.586 329.516C215.13 329.516 214.754 329.62 214.458 329.828C214.17 330.036 213.954 330.316 213.81 330.668C213.674 331.02 213.606 331.412 213.606 331.844C213.606 332.276 213.674 332.668 213.81 333.02C213.954 333.372 214.17 333.652 214.458 333.86C214.754 334.068 215.13 334.172 215.586 334.172ZM222.627 335.072C221.755 335.072 221.091 334.84 220.635 334.376C220.187 333.912 219.963 333.2 219.963 332.24V328.676H220.983V332.192C220.983 332.608 221.043 332.964 221.163 333.26C221.283 333.556 221.463 333.784 221.703 333.944C221.951 334.096 222.259 334.172 222.627 334.172C223.011 334.172 223.327 334.096 223.575 333.944C223.823 333.784 224.003 333.556 224.115 333.26C224.235 332.964 224.295 332.608 224.295 332.192V328.676H225.315V332.24C225.315 333.2 225.083 333.912 224.619 334.376C224.163 334.84 223.499 335.072 222.627 335.072ZM229.493 335C229.013 335 228.625 334.928 228.329 334.784C228.041 334.64 227.829 334.416 227.693 334.112C227.565 333.808 227.501 333.424 227.501 332.96V329.576H226.469V328.676H227.501V326.792H228.521V328.676H230.213V329.576H228.521V332.852C228.521 333.284 228.597 333.604 228.749 333.812C228.909 334.012 229.229 334.112 229.709 334.112H230.177V335H229.493Z" fill="#030E09" fill-opacity="0.6"/>
<path d="M170.72 358.128C170.24 358.128 169.765 358.075 169.296 357.968C168.827 357.861 168.389 357.696 167.984 357.472C167.589 357.248 167.253 356.949 166.976 356.576C166.709 356.203 166.539 355.749 166.464 355.216H168.176C168.293 355.557 168.485 355.829 168.752 356.032C169.029 356.224 169.339 356.363 169.68 356.448C170.032 356.533 170.384 356.576 170.736 356.576C170.971 356.576 171.221 356.555 171.488 356.512C171.765 356.469 172.021 356.384 172.256 356.256C172.501 356.128 172.699 355.941 172.848 355.696C172.997 355.451 173.072 355.136 173.072 354.752C173.072 354.379 173.003 354.08 172.864 353.856C172.725 353.621 172.539 353.44 172.304 353.312C172.08 353.184 171.824 353.099 171.536 353.056C171.248 353.013 170.949 352.992 170.64 352.992H169.488V351.52H170.208C170.549 351.52 170.869 351.488 171.168 351.424C171.467 351.349 171.723 351.248 171.936 351.12C172.16 350.981 172.336 350.805 172.464 350.592C172.592 350.368 172.656 350.096 172.656 349.776C172.656 349.328 172.56 348.987 172.368 348.752C172.176 348.507 171.925 348.336 171.616 348.24C171.307 348.144 170.971 348.096 170.608 348.096C170.309 348.096 170.011 348.144 169.712 348.24C169.424 348.325 169.168 348.464 168.944 348.656C168.72 348.848 168.571 349.093 168.496 349.392H166.832C166.896 348.891 167.045 348.464 167.28 348.112C167.525 347.749 167.824 347.451 168.176 347.216C168.539 346.981 168.939 346.816 169.376 346.72C169.813 346.613 170.267 346.56 170.736 346.56C171.216 346.56 171.669 346.613 172.096 346.72C172.533 346.816 172.917 346.981 173.248 347.216C173.579 347.451 173.84 347.76 174.032 348.144C174.235 348.517 174.336 348.976 174.336 349.52C174.336 349.893 174.272 350.24 174.144 350.56C174.027 350.88 173.845 351.163 173.6 351.408C173.365 351.643 173.077 351.84 172.736 352C173.195 352.096 173.579 352.272 173.888 352.528C174.197 352.784 174.427 353.099 174.576 353.472C174.736 353.835 174.816 354.24 174.816 354.688C174.816 355.392 174.688 355.968 174.432 356.416C174.176 356.864 173.84 357.211 173.424 357.456C173.019 357.701 172.576 357.877 172.096 357.984C171.616 358.08 171.157 358.128 170.72 358.128ZM178.296 358V349.184H176.024V347.984C176.451 347.952 176.835 347.904 177.176 347.84C177.518 347.765 177.822 347.643 178.088 347.472C178.355 347.291 178.59 347.029 178.792 346.688H179.992V358H178.296ZM182.105 358V356.592L185.289 353.872C185.556 353.648 185.849 353.397 186.169 353.12C186.5 352.843 186.815 352.544 187.113 352.224C187.423 351.904 187.673 351.563 187.865 351.2C188.068 350.837 188.169 350.459 188.169 350.064C188.169 349.456 187.983 348.981 187.609 348.64C187.247 348.299 186.751 348.128 186.121 348.128C185.588 348.128 185.135 348.24 184.761 348.464C184.399 348.688 184.159 349.003 184.041 349.408H182.313C182.409 348.757 182.649 348.224 183.033 347.808C183.417 347.392 183.887 347.083 184.441 346.88C184.996 346.667 185.577 346.56 186.185 346.56C186.889 346.56 187.519 346.688 188.073 346.944C188.628 347.2 189.065 347.579 189.385 348.08C189.705 348.571 189.865 349.173 189.865 349.888C189.865 350.56 189.737 351.157 189.481 351.68C189.225 352.203 188.884 352.677 188.457 353.104C188.041 353.531 187.588 353.947 187.097 354.352L184.585 356.448H189.945V358H182.105ZM192.459 360.112L191.995 359.424C192.144 359.328 192.293 359.2 192.443 359.04C192.603 358.891 192.741 358.725 192.859 358.544C192.976 358.373 193.061 358.208 193.115 358.048C192.816 358.027 192.571 357.925 192.379 357.744C192.187 357.563 192.091 357.317 192.091 357.008C192.101 356.677 192.213 356.421 192.427 356.24C192.651 356.048 192.901 355.952 193.179 355.952C193.541 355.952 193.829 356.085 194.043 356.352C194.256 356.608 194.363 356.96 194.363 357.408C194.363 357.792 194.272 358.171 194.091 358.544C193.909 358.917 193.675 359.243 193.387 359.52C193.099 359.797 192.789 359.995 192.459 360.112ZM202.033 358V355.808H196.017V354.528L201.457 346.688H203.713V354.272H205.025V355.808H203.713V358H202.033ZM198.017 354.272H202.033V348.368L198.017 354.272ZM206.014 358V356.592L209.198 353.872C209.465 353.648 209.758 353.397 210.078 353.12C210.409 352.843 210.723 352.544 211.022 352.224C211.331 351.904 211.582 351.563 211.774 351.2C211.977 350.837 212.078 350.459 212.078 350.064C212.078 349.456 211.891 348.981 211.518 348.64C211.155 348.299 210.659 348.128 210.03 348.128C209.497 348.128 209.043 348.24 208.67 348.464C208.307 348.688 208.067 349.003 207.95 349.408H206.222C206.318 348.757 206.558 348.224 206.942 347.808C207.326 347.392 207.795 347.083 208.35 346.88C208.905 346.667 209.486 346.56 210.094 346.56C210.798 346.56 211.427 346.688 211.982 346.944C212.537 347.2 212.974 347.579 213.294 348.08C213.614 348.571 213.774 349.173 213.774 349.888C213.774 350.56 213.646 351.157 213.39 351.68C213.134 352.203 212.793 352.677 212.366 353.104C211.95 353.531 211.497 353.947 211.006 354.352L208.494 356.448H213.854V358H206.014ZM219.957 358.128C219.146 358.128 218.458 357.984 217.893 357.696C217.328 357.397 216.869 356.987 216.517 356.464C216.165 355.931 215.904 355.317 215.733 354.624C215.573 353.92 215.493 353.163 215.493 352.352C215.493 351.541 215.573 350.789 215.733 350.096C215.893 349.392 216.149 348.779 216.501 348.256C216.864 347.723 217.328 347.307 217.893 347.008C218.469 346.709 219.157 346.56 219.957 346.56C220.81 346.56 221.52 346.72 222.085 347.04C222.661 347.36 223.12 347.797 223.461 348.352C223.813 348.896 224.058 349.515 224.197 350.208C224.346 350.901 224.421 351.616 224.421 352.352C224.421 353.088 224.346 353.803 224.197 354.496C224.048 355.189 223.802 355.808 223.461 356.352C223.12 356.896 222.661 357.328 222.085 357.648C221.509 357.968 220.8 358.128 219.957 358.128ZM219.957 356.576C220.544 356.576 221.018 356.448 221.381 356.192C221.744 355.925 222.021 355.579 222.213 355.152C222.405 354.725 222.533 354.267 222.597 353.776C222.672 353.285 222.709 352.811 222.709 352.352C222.709 351.904 222.672 351.435 222.597 350.944C222.533 350.443 222.405 349.979 222.213 349.552C222.021 349.125 221.744 348.779 221.381 348.512C221.029 348.245 220.56 348.112 219.973 348.112C219.376 348.112 218.89 348.245 218.517 348.512C218.154 348.779 217.877 349.125 217.685 349.552C217.493 349.979 217.365 350.437 217.301 350.928C217.237 351.419 217.205 351.893 217.205 352.352C217.205 352.811 217.237 353.285 217.301 353.776C217.365 354.267 217.488 354.725 217.669 355.152C217.861 355.579 218.138 355.925 218.501 356.192C218.874 356.448 219.36 356.576 219.957 356.576Z" fill="#030E09"/>
</svg>
