<svg width="32" height="32" viewBox="0 0 32 32" fill="none" xmlns="http://www.w3.org/2000/svg">
<g clip-path="url(#clip0_107_973)">
<path d="M19.2885 12.1132L16.3797 14.7206L13.6795 9.47505L15.0744 6.45891C15.4269 5.85727 16.0035 5.84933 16.3561 6.45891L19.2885 12.1132Z" fill="#FFA000"/>
<path d="M16.3809 14.7195L5.5 24.4626L13.6807 9.47504L16.3809 14.7195Z" fill="#F57F17"/>
<path d="M22.478 8.12532C22.9992 7.64742 23.5357 7.80861 23.6713 8.48744L26.5 24.331L17.1178 29.7536C16.7888 29.9307 15.9163 30 15.9163 30C15.9163 30 15.1227 29.9069 14.8185 29.7457L5.5 24.4626L22.478 8.12532Z" fill="#FFCA28"/>
<path d="M13.6807 9.47514L5.5 24.4627L9.14582 2.55631C9.28259 1.87748 9.68231 1.80823 10.0431 2.40987L13.6807 9.47514Z" fill="#FFA000"/>
</g>
<defs>
<clipPath id="clip0_107_973">
<rect width="21" height="28" fill="white" transform="translate(5.5 2)"/>
</clipPath>
</defs>
</svg>
