<svg width="33" height="32" viewBox="0 0 33 32" fill="none" xmlns="http://www.w3.org/2000/svg">
<g clip-path="url(#clip0_2374_31387)">
<path d="M6.83795 19.886L26.3661 13.3669C25.9758 10.9265 25.6978 9.2963 25.3756 8.05217C25.0285 6.71392 24.7533 6.35592 24.6453 6.2318C24.2687 5.80103 23.7999 5.46057 23.2737 5.23567C23.1217 5.17067 22.6956 5.01967 21.317 5.10267C19.8583 5.19067 17.9436 5.48867 14.9113 5.9688C11.8801 6.4488 9.96633 6.75792 8.55258 7.12392C7.21508 7.47105 6.85595 7.74705 6.73183 7.85517C6.30169 8.23209 5.96156 8.70067 5.73645 9.22642C5.67145 9.3783 5.52033 9.80442 5.60345 11.1837C5.69145 12.6418 5.98958 14.5572 6.4697 17.5887C6.60383 18.4387 6.72483 19.1989 6.83795 19.886Z" fill="url(#paint0_linear_2374_31387)"/>
<path d="M1.45313 18.3829C0.524753 12.5179 0.0595032 9.58541 1.06588 7.23116C1.59058 6.00316 2.38526 4.90919 3.39088 4.03054C5.31875 2.34729 8.25088 1.88329 14.1154 0.95416C19.9818 0.0237848 22.9141 -0.44009 25.27 0.566035C26.4975 1.09072 27.591 1.88517 28.4694 2.89041C30.154 4.81866 30.6181 7.75116 31.5466 13.6172C32.476 19.4822 32.9403 22.4155 31.9338 24.7689C31.4094 25.9968 30.6151 27.0907 29.6099 27.9694C27.682 29.6537 24.7488 30.1178 18.8834 31.0469C13.0189 31.976 10.0856 32.4402 7.73175 31.4339C6.50427 30.9092 5.41074 30.1148 4.53238 29.1095C2.84763 27.1813 2.3835 24.2488 1.45413 18.3829H1.45313ZM11.7984 28.7985C13.369 28.7035 15.3919 28.3865 18.3861 27.9123C21.3814 27.4383 23.4011 27.1143 24.9259 26.7192C26.4015 26.3362 27.0818 25.963 27.5209 25.579C28.167 25.0142 28.6776 24.311 29.0146 23.5217C29.2446 22.9857 29.3896 22.2235 29.2976 20.7013C29.2026 19.131 28.8855 17.1077 28.4114 14.1132C27.9371 11.1188 27.6139 9.09741 27.2189 7.57416C26.8356 6.09791 26.4615 5.41791 26.0784 4.97879C25.5137 4.33252 24.8107 3.82179 24.0215 3.48454C23.4853 3.25454 22.723 3.10954 21.2003 3.20141C19.6296 3.29641 17.6078 3.61354 14.6126 4.08766C11.6184 4.56266 9.5975 4.88579 8.07388 5.28079C6.59725 5.66391 5.918 6.03791 5.47888 6.42104C4.83239 6.98577 4.32148 7.68894 3.98413 8.47829C3.755 9.01441 3.61 9.77654 3.702 11.2988C3.797 12.87 4.11325 14.8923 4.58838 17.8868C5.06263 20.8813 5.38575 22.9027 5.78088 24.4259C6.164 25.9022 6.53713 26.5822 6.92138 27.0213C7.48606 27.6676 8.18909 28.1783 8.97825 28.5155C9.5145 28.7455 10.2758 28.8905 11.7995 28.7985H11.7984Z" fill="url(#paint1_linear_2374_31387)"/>
</g>
<defs>
<linearGradient id="paint0_linear_2374_31387" x1="-32.0899" y1="-61.6856" x2="96.6067" y2="111.694" gradientUnits="userSpaceOnUse">
<stop stop-color="#66E3FF"/>
<stop offset="1" stop-color="#7064F9"/>
</linearGradient>
<linearGradient id="paint1_linear_2374_31387" x1="-13.6219" y1="-32.1557" x2="51.4875" y2="70.9878" gradientUnits="userSpaceOnUse">
<stop stop-color="#66E3FF"/>
<stop offset="1" stop-color="#7064F9"/>
</linearGradient>
<clipPath id="clip0_2374_31387">
<rect width="32" height="32" fill="white" transform="translate(0.5)"/>
</clipPath>
</defs>
</svg>
