<svg width="33" height="32" viewBox="0 0 33 32" fill="none" xmlns="http://www.w3.org/2000/svg">
<path d="M15.685 3.56224C15.6317 3.56713 15.4619 3.5842 15.3081 3.59629C11.773 3.91495 8.46188 5.82215 6.36499 8.75335C5.19699 10.3832 4.45034 12.2319 4.16767 14.1902C4.06811 14.8737 4.05566 15.0757 4.05566 16.0024C4.05566 16.9293 4.06811 17.1311 4.16767 17.8147C4.84411 22.4877 8.17033 26.4139 12.6806 27.8686C13.4886 28.1288 14.3401 28.3064 15.3081 28.4134C15.685 28.4548 17.3152 28.4548 17.693 28.4134C19.3641 28.2286 20.7801 27.815 22.1766 27.1023C22.3908 26.9928 22.4317 26.9637 22.4023 26.9393C22.3837 26.9247 21.4708 25.7011 20.3757 24.2222L18.3863 21.5342L15.8921 17.8439C14.5197 15.8151 13.3908 14.1561 13.381 14.1561C13.3721 14.1537 13.3623 15.7933 13.357 17.7953C13.3499 21.3006 13.3472 21.4417 13.3037 21.5244C13.2405 21.6436 13.1917 21.6923 13.0894 21.7458C13.0112 21.7846 12.9437 21.792 12.5766 21.792H12.1552L12.0432 21.7214C11.9703 21.6752 11.917 21.6144 11.8806 21.5438L11.829 21.4344L11.8343 16.5571L11.8414 11.6774L11.917 11.5825C11.9561 11.5314 12.0388 11.4657 12.0965 11.4341C12.197 11.3854 12.2352 11.3806 12.6565 11.3806C13.1525 11.3806 13.2352 11.4 13.3641 11.5411C13.4006 11.58 14.7508 13.6137 16.3668 16.0633C17.9819 18.5129 20.1908 21.8576 21.2761 23.4997L23.2468 26.4844L23.3463 26.4188C24.2299 25.8446 25.1641 25.0273 25.9037 24.1759C27.4779 22.3685 28.4921 20.1646 28.8325 17.8147C28.933 17.1311 28.9446 16.9293 28.9446 16.0024C28.9446 15.0757 28.933 14.8737 28.8325 14.1902C28.157 9.51718 24.8308 5.59104 20.3206 4.13638C19.525 3.87851 18.6779 3.70091 17.7294 3.59389C17.4957 3.56953 15.8877 3.54278 15.685 3.56224ZM20.7801 11.0886C20.8966 11.147 20.9917 11.259 21.0254 11.3757C21.045 11.439 21.0503 12.7915 21.045 15.8395L21.0379 20.2133L20.2663 19.031L19.493 17.8488V14.6694C19.493 12.6139 19.5028 11.4584 19.517 11.4024C19.5561 11.2662 19.6414 11.1592 19.7579 11.0959C19.8574 11.0449 19.8948 11.04 20.2761 11.04C20.6361 11.04 20.7001 11.0449 20.7801 11.0886Z" fill="black"/>
</svg>
