<svg width="33" height="32" viewBox="0 0 33 32" fill="none" xmlns="http://www.w3.org/2000/svg">
<path d="M15.684 3.56139C15.6307 3.56628 15.4609 3.58334 15.3071 3.59543C11.772 3.9141 8.4609 5.8213 6.36401 8.7525C5.19601 10.3824 4.44936 12.2311 4.16669 14.1893C4.06714 14.8729 4.05469 15.0748 4.05469 16.0016C4.05469 16.9284 4.06714 17.1303 4.16669 17.8138C4.84314 22.4868 8.16936 26.413 12.6796 27.8677C13.4876 28.128 14.3391 28.3056 15.3071 28.4126C15.684 28.4539 17.3143 28.4539 17.692 28.4126C19.3631 28.2277 20.7791 27.8142 22.1756 27.1015C22.3898 26.992 22.4307 26.9628 22.4014 26.9385C22.3827 26.9239 21.4698 25.7002 20.3747 24.2213L18.3854 21.5333L15.8911 17.8431C14.5187 15.8143 13.3898 14.1553 13.38 14.1553C13.3711 14.1529 13.3613 15.7924 13.356 17.7945C13.3489 21.2998 13.3462 21.4409 13.3027 21.5235C13.2396 21.6427 13.1907 21.6914 13.0885 21.7449C13.0102 21.7838 12.9427 21.7912 12.5756 21.7912H12.1542L12.0422 21.7206C11.9693 21.6744 11.916 21.6136 11.8796 21.543L11.828 21.4336L11.8334 16.5562L11.8405 11.6765L11.916 11.5817C11.9551 11.5305 12.0378 11.4649 12.0956 11.4332C12.196 11.3846 12.2342 11.3797 12.6556 11.3797C13.1516 11.3797 13.2343 11.3992 13.3631 11.5402C13.3996 11.5792 14.7498 13.6129 16.3658 16.0625C17.9809 18.5121 20.1898 21.8568 21.2751 23.4988L23.2458 26.4835L23.3454 26.4179C24.2289 25.8438 25.1631 25.0265 25.9027 24.1751C27.4769 22.3676 28.4911 20.1637 28.8316 17.8138C28.932 17.1303 28.9436 16.9284 28.9436 16.0016C28.9436 15.0748 28.932 14.8729 28.8316 14.1893C28.156 9.51632 24.8298 5.59019 20.3196 4.13552C19.524 3.87766 18.6769 3.70006 17.7285 3.59303C17.4947 3.56868 15.8867 3.54192 15.684 3.56139ZM20.7791 11.0878C20.8956 11.1462 20.9907 11.2581 21.0245 11.3748C21.044 11.4381 21.0494 12.7906 21.044 15.8386L21.0369 20.2124L20.2654 19.0302L19.492 17.848V14.6686C19.492 12.613 19.5018 11.4576 19.516 11.4016C19.5551 11.2654 19.6405 11.1584 19.7569 11.0951C19.8565 11.0441 19.8938 11.0392 20.2751 11.0392C20.6351 11.0392 20.6991 11.0441 20.7791 11.0878Z" fill="#F5F5F5"/>
</svg>
