<svg width="33" height="32" viewBox="0 0 33 32" fill="none" xmlns="http://www.w3.org/2000/svg">
<path d="M29.3891 16.0026C29.3891 14.3495 27.2504 12.7829 23.9722 11.8114C24.7287 8.57644 24.3927 6.00275 22.9109 5.17884C22.5696 4.98551 22.1696 4.89395 21.734 4.89395V6.02826C21.9758 6.02826 22.1696 6.07404 22.3331 6.16044C23.0478 6.55724 23.3571 8.06782 23.1153 10.0108C23.0576 10.489 22.9633 10.9925 22.8478 11.5062C21.8176 11.262 20.6931 11.0739 19.5109 10.9518C18.8016 10.0108 18.0664 9.15635 17.3251 8.40862C19.038 6.86746 20.646 6.02311 21.7393 6.02311V4.88889C20.294 4.88889 18.4025 5.88577 16.4905 7.6152C14.5776 5.896 12.686 4.90924 11.2407 4.90924V6.04346C12.3287 6.04346 13.942 6.88275 15.6549 8.41369C14.9189 9.16142 14.1838 10.0108 13.4842 10.9518C12.2967 11.0739 11.1722 11.262 10.1429 11.5113C10.022 11.0027 9.93222 10.5093 9.86911 10.0363C9.62289 8.09324 9.92778 6.58266 10.6371 6.1808C10.7944 6.08924 10.9989 6.04853 11.2407 6.04853V4.91431C10.7998 4.91431 10.4007 5.00586 10.0531 5.1992C8.57667 6.02311 8.24601 8.59173 9.00779 11.8164C5.73934 12.7931 3.61133 14.3546 3.61133 16.0026C3.61133 17.6556 5.75 19.2222 9.02911 20.1937C8.27177 23.4286 8.60866 26.0023 10.0904 26.8263C10.4318 27.0196 10.8309 27.1111 11.2727 27.1111C12.7171 27.1111 14.6087 26.1142 16.5216 24.3848C18.4344 26.104 20.326 27.0908 21.7704 27.0908C22.2122 27.0908 22.6113 26.9992 22.958 26.806C24.4345 25.982 24.766 23.4133 24.0033 20.1886C27.2611 19.2171 29.3891 17.6505 29.3891 16.0026ZM22.5482 12.61C22.3536 13.2661 22.1118 13.9426 21.8389 14.619C21.6238 14.2122 21.398 13.8052 21.1509 13.3983C20.9091 12.9915 20.6513 12.5947 20.3936 12.2081C21.1402 12.3149 21.8602 12.4472 22.5482 12.61ZM20.142 18.0269C19.7322 18.7136 19.3118 19.3646 18.8753 19.9699C18.0922 20.036 17.2993 20.0716 16.5002 20.0716C15.7073 20.0716 14.9136 20.036 14.1358 19.9749C13.7002 19.3697 13.2744 18.7237 12.8647 18.0421C12.4656 17.3758 12.1029 16.6994 11.7713 16.0178C12.0976 15.3363 12.4656 14.6547 12.8593 13.9884C13.2691 13.3017 13.6896 12.6507 14.1251 12.0453C14.9082 11.9793 15.702 11.9436 16.5002 11.9436C17.294 11.9436 18.0869 11.9793 18.8647 12.0403C19.3011 12.6456 19.7269 13.2916 20.1367 13.9731C20.5358 14.6394 20.8984 15.3159 21.2291 15.9974C20.8984 16.679 20.5358 17.3606 20.142 18.0269ZM21.8389 17.3657C22.1224 18.0473 22.3642 18.7288 22.5642 19.39C21.8753 19.5528 21.1509 19.6901 20.3989 19.797C20.6567 19.4053 20.9144 19.0035 21.1562 18.5915C21.398 18.1846 21.6238 17.7726 21.8389 17.3657ZM16.5109 22.7928C16.022 22.3045 15.534 21.7603 15.0504 21.1651C15.5233 21.1855 16.0069 21.2008 16.4949 21.2008C16.9891 21.2008 17.478 21.1906 17.9562 21.1651C17.4833 21.7603 16.9944 22.3045 16.5109 22.7928ZM12.6016 19.797C11.8558 19.6901 11.1358 19.5579 10.4478 19.3951C10.6416 18.739 10.8833 18.0625 11.1571 17.386C11.3722 17.793 11.598 18.1998 11.8451 18.6068C12.0922 19.0137 12.3447 19.4104 12.6016 19.797ZM16.4851 9.21226C16.9731 9.70053 17.462 10.2448 17.9456 10.8399C17.4727 10.8196 16.9891 10.8043 16.5002 10.8043C16.0069 10.8043 15.518 10.8145 15.0398 10.8399C15.5127 10.2448 16.0016 9.70053 16.4851 9.21226ZM12.5962 12.2081C12.3393 12.5998 12.0816 13.0016 11.8398 13.4136C11.598 13.8205 11.3722 14.2274 11.1571 14.6343C10.8736 13.9527 10.6318 13.2712 10.4318 12.61C11.1198 12.4523 11.8451 12.3149 12.5962 12.2081ZM7.84155 18.5763C5.98111 17.8082 4.77844 16.8011 4.77844 16.0026C4.77844 15.204 5.98111 14.1918 7.84155 13.4289C8.29311 13.2406 8.78734 13.0728 9.29667 12.9151C9.59623 13.9121 9.99001 14.9497 10.4789 16.0127C9.99534 17.0707 9.60688 18.1032 9.31266 19.095C8.79266 18.9373 8.29844 18.7644 7.84155 18.5763ZM10.6682 25.8446C9.95356 25.4479 9.64334 23.9372 9.88512 21.9942C9.9429 21.5162 10.038 21.0126 10.1536 20.4988C11.1829 20.743 12.3073 20.9312 13.4896 21.0532C14.1989 21.9942 14.9349 22.8488 15.6753 23.5964C13.9624 25.1376 12.3544 25.9819 11.262 25.9819C11.0256 25.9769 10.8256 25.9311 10.6682 25.8446ZM23.1313 21.9688C23.3784 23.9118 23.0736 25.4225 22.3642 25.8243C22.2069 25.9158 22.0016 25.9565 21.7598 25.9565C20.6727 25.9565 19.0593 25.1172 17.3464 23.5863C18.0824 22.8386 18.8176 21.9892 19.5162 21.0482C20.7038 20.9261 21.8282 20.738 22.8585 20.4887C22.9793 21.0024 23.0736 21.4958 23.1313 21.9688ZM25.1544 18.5763C24.7029 18.7644 24.2087 18.9323 23.6993 19.09C23.3998 18.0931 23.0051 17.0554 22.5171 15.9924C22.9998 14.9344 23.3891 13.9019 23.6833 12.91C24.2033 13.0677 24.6976 13.2406 25.1598 13.4289C27.0193 14.1969 28.2229 15.204 28.2229 16.0026C28.2176 16.8011 27.014 17.8132 25.1544 18.5763Z" fill="#61DAFB"/>
<path d="M16.4946 18.326C17.8209 18.326 18.8964 17.2853 18.8964 16.0015C18.8964 14.7178 17.8209 13.6771 16.4946 13.6771C15.1693 13.6771 14.0938 14.7178 14.0938 16.0015C14.0938 17.2853 15.1693 18.326 16.4946 18.326Z" fill="#61DAFB"/>
</svg>
