<svg width="32" height="32" viewBox="0 0 32 32" fill="none" xmlns="http://www.w3.org/2000/svg">
<path d="M0.484924 15.9549C0.492273 17.8603 1.99668 19.4204 3.84543 19.4204C5.69995 19.418 7.20299 17.8685 7.20593 15.956V15.4644C7.21139 14.3644 8.36966 13.683 9.29078 14.238C9.4324 14.3233 9.55828 14.434 9.66253 14.5648H11.8357C11.4386 13.0525 10.1088 12.0018 8.5896 12C6.73497 12.003 5.23246 13.553 5.23015 15.4655V15.9549C5.229 16.7434 4.60886 17.3818 3.84438 17.3818C3.08063 17.3806 2.46186 16.7425 2.4607 15.9549C2.4607 15.7295 2.28349 15.5467 2.06492 15.5467H0.87966C0.661401 15.5474 0.484924 15.7299 0.484924 15.9549ZM13.3443 19.4204C11.8267 19.4145 10.4998 18.3646 10.1014 16.8545H12.2714C12.9394 17.708 14.2527 17.4957 14.6354 16.4724C14.697 16.3076 14.7284 16.1325 14.7279 15.956V15.4644C14.7308 13.552 16.2338 12.0024 18.0885 12C19.9183 12 21.4101 13.5157 21.4479 15.3919L21.4584 15.9549C21.4639 17.055 22.6221 17.7363 23.5433 17.1814C23.6849 17.0961 23.8108 16.9853 23.915 16.8545H26.0881C25.6916 18.3669 24.3622 19.4181 22.8431 19.4204C20.9944 19.4204 19.49 17.8592 19.4826 15.956L19.4721 15.4471V15.4255C19.45 14.6536 18.8372 14.0395 18.0885 14.0386C17.3247 14.0398 16.7059 14.678 16.7048 15.4655V15.9549C16.7025 17.8679 15.1992 19.418 13.3443 19.4204ZM26.5144 14.5658C27.1824 13.7125 28.4957 13.9248 28.8784 14.9481C28.9401 15.1132 28.9715 15.2886 28.971 15.4655C28.971 15.691 29.1482 15.8737 29.3668 15.8737H30.5531C30.7712 15.8731 30.9478 15.6906 30.9478 15.4655C30.9455 13.5526 29.4422 12.0024 27.5873 12C26.0678 12.0019 24.7378 13.0532 24.3412 14.5658H26.5144Z" fill="black"/>
</svg>
