<svg width="42" height="40" viewBox="0 0 42 40" fill="none" xmlns="http://www.w3.org/2000/svg">
<path d="M1 19.9436C1.00947 22.3254 2.94874 24.2755 5.3319 24.2755C7.72249 24.2725 9.66 22.3357 9.66379 19.9449V19.3305C9.67083 17.9555 11.1639 17.1037 12.3513 17.7975C12.5339 17.9042 12.6961 18.0425 12.8305 18.206H15.6318C15.12 16.3157 13.4058 15.0023 11.4474 15C9.05671 15.0038 7.11987 16.9413 7.11689 19.3319V19.9436C7.1154 20.9292 6.31601 21.7272 5.33054 21.7272C4.34602 21.7257 3.54839 20.9281 3.5469 19.9436C3.5469 19.6618 3.31846 19.4334 3.03671 19.4334H1.50884C1.22749 19.4342 1 19.6624 1 19.9436ZM17.5765 24.2755C15.6203 24.2682 13.9098 22.9557 13.3962 21.0682H16.1934C17.0545 22.135 18.7475 21.8696 19.2408 20.5905C19.3202 20.3845 19.3607 20.1657 19.3602 19.9449V19.3305C19.3638 16.9399 21.3013 15.003 23.692 15C26.0508 15 27.9739 16.8946 28.0226 19.2399L28.0361 19.9436C28.0432 21.3188 29.5363 22.1704 30.7236 21.4767C30.9062 21.3701 31.0685 21.2317 31.2028 21.0682H34.0042C33.493 22.9586 31.7793 24.2726 29.8211 24.2755C27.438 24.2755 25.4987 22.324 25.4892 19.9449L25.4757 19.3089V19.2818C25.4471 18.3171 24.6572 17.5493 23.692 17.5483C22.7075 17.5497 21.9099 18.3475 21.9084 19.3319V19.9436C21.9054 22.3349 19.9676 24.2725 17.5765 24.2755ZM34.5536 18.2073C35.4147 17.1406 37.1077 17.406 37.6009 18.6852C37.6805 18.8915 37.721 19.1108 37.7203 19.3319C37.7203 19.6138 37.9487 19.8421 38.2305 19.8421H39.7597C40.0409 19.8414 40.2686 19.6132 40.2686 19.3319C40.2656 16.9408 38.3278 15.003 35.9367 15C33.9779 15.0024 32.2634 16.3165 31.7523 18.2073H34.5536Z" fill="white"/>
</svg>
