<svg width="33" height="32" viewBox="0 0 33 32" fill="none" xmlns="http://www.w3.org/2000/svg">
<path fill-rule="evenodd" clip-rule="evenodd" d="M15.9758 8.48474C12.5089 8.48474 10.3426 10.2078 9.47546 13.6539C10.7756 11.9308 12.2923 11.2848 14.0256 11.7153C15.0145 11.9609 15.7216 12.6742 16.5037 13.4638C17.7784 14.7498 19.2538 16.2379 22.4757 16.2379C25.9422 16.2379 28.109 14.5149 28.9756 11.0693C27.6759 12.7923 26.1592 13.4384 24.426 13.0073C23.4366 12.7618 22.7294 12.0485 21.9474 11.2593C20.6727 9.97241 19.1978 8.48474 15.9758 8.48474ZM9.47546 16.2379C6.009 16.2379 3.8422 17.961 2.97559 21.4071C4.27576 19.684 5.79247 19.038 7.52519 19.4685C8.51459 19.7141 9.22174 20.4273 10.0038 21.217C11.2785 22.5029 12.7534 23.9911 15.9758 23.9911C19.4423 23.9911 21.6091 22.2686 22.4757 18.8225C21.1755 20.5455 19.6588 21.1915 17.9256 20.761C16.9367 20.515 16.2296 19.8017 15.4475 19.0125C14.1728 17.7266 12.6974 16.2379 9.47546 16.2379Z" fill="#38BDF8"/>
</svg>
